<svg width="444" height="188" viewBox="0 0 444 188" fill="none" xmlns="http://www.w3.org/2000/svg">
<path d="M0 20C0 8.9543 8.9543 0 20 0H430C437.732 0 444 6.26801 444 14V188H0V20Z" fill="url(#paint0_linear_3338_2795)" fill-opacity="0.1"/>
<rect x="172.5" y="121.5" width="102" height="39" rx="4.5" fill="url(#paint1_linear_3338_2795)" fill-opacity="0.1"/>
<rect x="172.5" y="121.5" width="102" height="39" rx="4.5" stroke="url(#paint2_linear_3338_2795)"/>
<path d="M191.409 147V135.364H198.432V136.614H192.818V140.545H198.068V141.795H192.818V145.75H198.523V147H191.409ZM208.128 135.364H209.537V143.068C209.537 143.864 209.35 144.574 208.975 145.199C208.603 145.82 208.079 146.311 207.401 146.67C206.723 147.027 205.927 147.205 205.014 147.205C204.101 147.205 203.306 147.027 202.628 146.67C201.95 146.311 201.423 145.82 201.048 145.199C200.677 144.574 200.492 143.864 200.492 143.068V135.364H201.901V142.955C201.901 143.523 202.026 144.028 202.276 144.472C202.526 144.911 202.882 145.258 203.344 145.511C203.81 145.761 204.367 145.886 205.014 145.886C205.662 145.886 206.219 145.761 206.685 145.511C207.151 145.258 207.507 144.911 207.753 144.472C208.003 144.028 208.128 143.523 208.128 142.955V135.364ZM211.871 147V135.364H215.803C216.712 135.364 217.458 135.519 218.041 135.83C218.625 136.136 219.057 136.559 219.337 137.097C219.617 137.634 219.757 138.246 219.757 138.932C219.757 139.617 219.617 140.225 219.337 140.756C219.057 141.286 218.627 141.703 218.047 142.006C217.468 142.305 216.727 142.455 215.826 142.455H212.644V141.182H215.78C216.401 141.182 216.901 141.091 217.28 140.909C217.663 140.727 217.939 140.47 218.11 140.136C218.284 139.799 218.371 139.398 218.371 138.932C218.371 138.466 218.284 138.059 218.11 137.71C217.935 137.362 217.657 137.093 217.274 136.903C216.892 136.71 216.386 136.614 215.757 136.614H213.28V147H211.871ZM217.348 141.773L220.212 147H218.576L215.757 141.773H217.348ZM225.557 134.818L221.807 148.75H220.58L224.33 134.818H225.557ZM234.485 135.364H235.894V143.068C235.894 143.864 235.706 144.574 235.331 145.199C234.96 145.82 234.436 146.311 233.758 146.67C233.08 147.027 232.284 147.205 231.371 147.205C230.458 147.205 229.663 147.027 228.985 146.67C228.307 146.311 227.78 145.82 227.405 145.199C227.034 144.574 226.848 143.864 226.848 143.068V135.364H228.258V142.955C228.258 143.523 228.383 144.028 228.633 144.472C228.883 144.911 229.239 145.258 229.701 145.511C230.167 145.761 230.723 145.886 231.371 145.886C232.019 145.886 232.576 145.761 233.042 145.511C233.508 145.258 233.864 144.911 234.11 144.472C234.36 144.028 234.485 143.523 234.485 142.955V135.364ZM244.591 138.273C244.523 137.697 244.247 137.25 243.762 136.932C243.277 136.614 242.682 136.455 241.978 136.455C241.463 136.455 241.012 136.538 240.626 136.705C240.243 136.871 239.944 137.1 239.728 137.392C239.516 137.684 239.41 138.015 239.41 138.386C239.41 138.697 239.484 138.964 239.631 139.188C239.783 139.407 239.976 139.591 240.211 139.739C240.446 139.883 240.692 140.002 240.949 140.097C241.207 140.187 241.444 140.261 241.66 140.318L242.841 140.636C243.145 140.716 243.482 140.826 243.853 140.966C244.228 141.106 244.586 141.297 244.927 141.54C245.271 141.778 245.555 142.085 245.779 142.46C246.002 142.835 246.114 143.295 246.114 143.841C246.114 144.47 245.949 145.038 245.62 145.545C245.294 146.053 244.817 146.456 244.188 146.756C243.563 147.055 242.804 147.205 241.91 147.205C241.076 147.205 240.355 147.07 239.745 146.801C239.139 146.532 238.662 146.157 238.313 145.676C237.968 145.195 237.773 144.636 237.728 144H239.182C239.22 144.439 239.368 144.803 239.626 145.091C239.887 145.375 240.216 145.587 240.614 145.727C241.016 145.864 241.448 145.932 241.91 145.932C242.448 145.932 242.93 145.845 243.359 145.67C243.787 145.492 244.126 145.246 244.376 144.932C244.626 144.614 244.751 144.242 244.751 143.818C244.751 143.432 244.643 143.117 244.427 142.875C244.211 142.633 243.927 142.436 243.574 142.284C243.222 142.133 242.841 142 242.432 141.886L241.001 141.477C240.091 141.216 239.372 140.843 238.841 140.358C238.311 139.873 238.046 139.239 238.046 138.455C238.046 137.803 238.222 137.235 238.574 136.75C238.93 136.261 239.408 135.883 240.006 135.614C240.609 135.341 241.281 135.205 242.023 135.205C242.773 135.205 243.44 135.339 244.023 135.608C244.607 135.873 245.069 136.237 245.41 136.699C245.754 137.161 245.936 137.686 245.955 138.273H244.591ZM251.542 147H247.951V135.364H251.701C252.83 135.364 253.796 135.597 254.599 136.062C255.402 136.525 256.017 137.189 256.445 138.057C256.873 138.92 257.087 139.955 257.087 141.159C257.087 142.371 256.871 143.415 256.44 144.29C256.008 145.161 255.379 145.831 254.553 146.301C253.727 146.767 252.724 147 251.542 147ZM249.36 145.75H251.451C252.413 145.75 253.21 145.564 253.843 145.193C254.476 144.822 254.947 144.294 255.258 143.608C255.568 142.922 255.724 142.106 255.724 141.159C255.724 140.22 255.57 139.411 255.263 138.733C254.957 138.051 254.498 137.528 253.888 137.165C253.279 136.797 252.519 136.614 251.61 136.614H249.36V145.75Z" fill="#CDCDCD"/>
<g opacity="0.7">
<rect x="291.35" y="127.35" width="71.4" height="27.3" rx="3.15" fill="url(#paint3_linear_3338_2795)" fill-opacity="0.1"/>
<rect x="291.35" y="127.35" width="71.4" height="27.3" rx="3.15" stroke="#686868" stroke-width="0.7"/>
<path d="M308.332 136.855H309.318V142.248C309.318 142.805 309.187 143.302 308.924 143.739C308.665 144.174 308.297 144.517 307.823 144.769C307.348 145.019 306.791 145.143 306.152 145.143C305.513 145.143 304.956 145.019 304.482 144.769C304.007 144.517 303.639 144.174 303.376 143.739C303.116 143.302 302.986 142.805 302.986 142.248V136.855H303.973V142.168C303.973 142.566 304.06 142.92 304.235 143.23C304.41 143.538 304.659 143.78 304.983 143.958C305.309 144.133 305.699 144.22 306.152 144.22C306.606 144.22 306.995 144.133 307.322 143.958C307.648 143.78 307.897 143.538 308.069 143.23C308.244 142.92 308.332 142.566 308.332 142.168V136.855ZM315.406 138.891C315.359 138.488 315.165 138.175 314.826 137.952C314.486 137.73 314.07 137.618 313.577 137.618C313.216 137.618 312.901 137.677 312.63 137.793C312.363 137.91 312.153 138.07 312.002 138.274C311.853 138.479 311.779 138.711 311.779 138.97C311.779 139.188 311.831 139.375 311.934 139.531C312.04 139.685 312.176 139.814 312.34 139.917C312.504 140.018 312.677 140.101 312.857 140.168C313.037 140.231 313.203 140.283 313.354 140.323L314.181 140.545C314.394 140.601 314.63 140.678 314.889 140.776C315.152 140.874 315.402 141.008 315.641 141.178C315.882 141.345 316.081 141.56 316.238 141.822C316.394 142.085 316.472 142.407 316.472 142.789C316.472 143.229 316.357 143.627 316.126 143.982C315.898 144.337 315.564 144.62 315.124 144.829C314.687 145.038 314.155 145.143 313.529 145.143C312.946 145.143 312.441 145.049 312.014 144.861C311.59 144.673 311.256 144.41 311.012 144.073C310.77 143.737 310.634 143.345 310.602 142.9H311.62C311.647 143.208 311.75 143.462 311.93 143.664C312.113 143.862 312.344 144.011 312.622 144.109C312.903 144.205 313.206 144.252 313.529 144.252C313.906 144.252 314.244 144.191 314.543 144.069C314.843 143.945 315.08 143.772 315.255 143.552C315.43 143.33 315.518 143.07 315.518 142.773C315.518 142.502 315.442 142.282 315.291 142.113C315.14 141.943 314.941 141.805 314.695 141.699C314.448 141.593 314.181 141.5 313.895 141.42L312.893 141.134C312.256 140.951 311.753 140.69 311.381 140.351C311.01 140.011 310.825 139.567 310.825 139.018C310.825 138.562 310.948 138.164 311.195 137.825C311.444 137.483 311.778 137.218 312.197 137.03C312.618 136.839 313.089 136.743 313.609 136.743C314.134 136.743 314.6 136.837 315.009 137.026C315.417 137.211 315.741 137.466 315.979 137.789C316.22 138.113 316.348 138.48 316.361 138.891H315.406ZM320.272 145H317.758V136.855H320.383C321.173 136.855 321.849 137.018 322.412 137.344C322.974 137.667 323.405 138.133 323.704 138.74C324.004 139.344 324.154 140.068 324.154 140.911C324.154 141.76 324.002 142.49 323.7 143.103C323.398 143.713 322.958 144.182 322.38 144.511C321.802 144.837 321.099 145 320.272 145ZM318.744 144.125H320.208C320.882 144.125 321.44 143.995 321.883 143.735C322.325 143.475 322.655 143.105 322.873 142.626C323.09 142.146 323.199 141.574 323.199 140.911C323.199 140.254 323.092 139.688 322.877 139.213C322.662 138.736 322.341 138.37 321.914 138.115C321.487 137.858 320.956 137.73 320.319 137.73H318.744V144.125ZM327.776 136.473L325.151 146.225H324.292L326.917 136.473H327.776ZM335.234 139.4H334.248C334.19 139.116 334.088 138.867 333.942 138.652C333.799 138.438 333.624 138.257 333.417 138.111C333.213 137.963 332.986 137.852 332.737 137.777C332.487 137.703 332.228 137.666 331.957 137.666C331.464 137.666 331.017 137.791 330.617 138.04C330.219 138.289 329.902 138.656 329.666 139.141C329.433 139.627 329.316 140.222 329.316 140.927C329.316 141.633 329.433 142.228 329.666 142.713C329.902 143.198 330.219 143.566 330.617 143.815C331.017 144.064 331.464 144.189 331.957 144.189C332.228 144.189 332.487 144.152 332.737 144.077C332.986 144.003 333.213 143.893 333.417 143.747C333.624 143.599 333.799 143.417 333.942 143.202C334.088 142.985 334.19 142.736 334.248 142.455H335.234C335.16 142.871 335.025 143.243 334.829 143.572C334.633 143.901 334.389 144.181 334.097 144.411C333.805 144.639 333.478 144.813 333.115 144.932C332.754 145.052 332.368 145.111 331.957 145.111C331.262 145.111 330.645 144.942 330.104 144.602C329.563 144.263 329.137 143.78 328.827 143.155C328.517 142.529 328.362 141.786 328.362 140.927C328.362 140.068 328.517 139.326 328.827 138.7C329.137 138.074 329.563 137.592 330.104 137.252C330.645 136.913 331.262 136.743 331.957 136.743C332.368 136.743 332.754 136.803 333.115 136.922C333.478 137.041 333.805 137.216 334.097 137.447C334.389 137.675 334.633 137.954 334.829 138.282C335.025 138.609 335.16 138.981 335.234 139.4ZM336.492 145V136.855H337.479V140.482H341.822V136.855H342.808V145H341.822V141.357H337.479V145H336.492ZM344.447 145V136.855H349.331V137.73H345.433V140.482H348.965V141.357H345.433V145H344.447Z" fill="#CDCDCD"/>
</g>
<g opacity="0.7">
<rect x="84.35" y="127.35" width="71.4" height="27.3" rx="3.15" fill="url(#paint4_linear_3338_2795)" fill-opacity="0.1"/>
<rect x="84.35" y="127.35" width="71.4" height="27.3" rx="3.15" stroke="#686868" stroke-width="0.7"/>
<path d="M102.332 136.855H103.318V142.248C103.318 142.805 103.187 143.302 102.924 143.739C102.665 144.174 102.297 144.517 101.823 144.769C101.348 145.019 100.791 145.143 100.152 145.143C99.5133 145.143 98.9564 145.019 98.4818 144.769C98.0072 144.517 97.6386 144.174 97.3761 143.739C97.1163 143.302 96.9864 142.805 96.9864 142.248V136.855H97.9727V142.168C97.9727 142.566 98.0602 142.92 98.2352 143.23C98.4102 143.538 98.6595 143.78 98.983 143.958C99.3091 144.133 99.6989 144.22 100.152 144.22C100.606 144.22 100.995 144.133 101.322 143.958C101.648 143.78 101.897 143.538 102.069 143.23C102.244 142.92 102.332 142.566 102.332 142.168V136.855ZM109.406 138.891C109.359 138.488 109.165 138.175 108.826 137.952C108.486 137.73 108.07 137.618 107.577 137.618C107.216 137.618 106.901 137.677 106.63 137.793C106.363 137.91 106.153 138.07 106.002 138.274C105.853 138.479 105.779 138.711 105.779 138.97C105.779 139.188 105.831 139.375 105.934 139.531C106.04 139.685 106.176 139.814 106.34 139.917C106.504 140.018 106.677 140.101 106.857 140.168C107.037 140.231 107.203 140.283 107.354 140.323L108.181 140.545C108.394 140.601 108.63 140.678 108.889 140.776C109.152 140.874 109.402 141.008 109.641 141.178C109.882 141.345 110.081 141.56 110.238 141.822C110.394 142.085 110.472 142.407 110.472 142.789C110.472 143.229 110.357 143.627 110.126 143.982C109.898 144.337 109.564 144.62 109.124 144.829C108.687 145.038 108.155 145.143 107.529 145.143C106.946 145.143 106.441 145.049 106.014 144.861C105.59 144.673 105.256 144.41 105.012 144.073C104.77 143.737 104.634 143.345 104.602 142.9H105.62C105.647 143.208 105.75 143.462 105.93 143.664C106.113 143.862 106.344 144.011 106.622 144.109C106.903 144.205 107.206 144.252 107.529 144.252C107.906 144.252 108.244 144.191 108.543 144.069C108.843 143.945 109.08 143.772 109.255 143.552C109.43 143.33 109.518 143.07 109.518 142.773C109.518 142.502 109.442 142.282 109.291 142.113C109.14 141.943 108.941 141.805 108.695 141.699C108.448 141.593 108.181 141.5 107.895 141.42L106.893 141.134C106.256 140.951 105.753 140.69 105.381 140.351C105.01 140.011 104.825 139.567 104.825 139.018C104.825 138.562 104.948 138.164 105.195 137.825C105.444 137.483 105.778 137.218 106.197 137.03C106.618 136.839 107.089 136.743 107.609 136.743C108.134 136.743 108.6 136.837 109.009 137.026C109.417 137.211 109.741 137.466 109.979 137.789C110.22 138.113 110.348 138.48 110.361 138.891H109.406ZM114.272 145H111.758V136.855H114.383C115.173 136.855 115.849 137.018 116.412 137.344C116.974 137.667 117.405 138.133 117.704 138.74C118.004 139.344 118.154 140.068 118.154 140.911C118.154 141.76 118.002 142.49 117.7 143.103C117.398 143.713 116.958 144.182 116.38 144.511C115.802 144.837 115.099 145 114.272 145ZM112.744 144.125H114.208C114.882 144.125 115.44 143.995 115.883 143.735C116.325 143.475 116.655 143.105 116.873 142.626C117.09 142.146 117.199 141.574 117.199 140.911C117.199 140.254 117.092 139.688 116.877 139.213C116.662 138.736 116.341 138.37 115.914 138.115C115.487 137.858 114.956 137.73 114.319 137.73H112.744V144.125ZM121.776 136.473L119.151 146.225H118.292L120.917 136.473H121.776ZM129.234 139.4H128.248C128.19 139.116 128.088 138.867 127.942 138.652C127.799 138.438 127.624 138.257 127.417 138.111C127.213 137.963 126.986 137.852 126.737 137.777C126.487 137.703 126.228 137.666 125.957 137.666C125.464 137.666 125.017 137.791 124.617 138.04C124.219 138.289 123.902 138.656 123.666 139.141C123.433 139.627 123.316 140.222 123.316 140.927C123.316 141.633 123.433 142.228 123.666 142.713C123.902 143.198 124.219 143.566 124.617 143.815C125.017 144.064 125.464 144.189 125.957 144.189C126.228 144.189 126.487 144.152 126.737 144.077C126.986 144.003 127.213 143.893 127.417 143.747C127.624 143.599 127.799 143.417 127.942 143.202C128.088 142.985 128.19 142.736 128.248 142.455H129.234C129.16 142.871 129.025 143.243 128.829 143.572C128.633 143.901 128.389 144.181 128.097 144.411C127.805 144.639 127.478 144.813 127.115 144.932C126.754 145.052 126.368 145.111 125.957 145.111C125.262 145.111 124.645 144.942 124.104 144.602C123.563 144.263 123.137 143.78 122.827 143.155C122.517 142.529 122.362 141.786 122.362 140.927C122.362 140.068 122.517 139.326 122.827 138.7C123.137 138.074 123.563 137.592 124.104 137.252C124.645 136.913 125.262 136.743 125.957 136.743C126.368 136.743 126.754 136.803 127.115 136.922C127.478 137.041 127.805 137.216 128.097 137.447C128.389 137.675 128.633 137.954 128.829 138.282C129.025 138.609 129.16 138.981 129.234 139.4ZM136.951 136.855V145H135.997L131.558 138.605H131.479V145H130.492V136.855H131.447L135.901 143.266H135.981V136.855H136.951ZM137.889 136.855H139.019L141.278 140.657H141.373L143.632 136.855H144.762L141.819 141.643V145H140.832V141.643L137.889 136.855Z" fill="#CDCDCD"/>
</g>
<g opacity="0.4">
<rect x="18.245" y="131.445" width="49.98" height="19.11" rx="2.205" fill="url(#paint5_linear_3338_2795)" fill-opacity="0.1"/>
<rect x="18.245" y="131.445" width="49.98" height="19.11" rx="2.205" stroke="#686868" stroke-width="0.49"/>
<path d="M27.0908 144.1V138.398H29.0843C29.4815 138.398 29.809 138.467 30.067 138.604C30.325 138.74 30.5171 138.923 30.6433 139.153C30.7696 139.381 30.8327 139.634 30.8327 139.913C30.8327 140.158 30.789 140.36 30.7018 140.52C30.6164 140.679 30.5032 140.805 30.3622 140.898C30.2229 140.991 30.0717 141.06 29.9083 141.104V141.16C30.0828 141.171 30.2582 141.232 30.4345 141.344C30.6109 141.455 30.7584 141.615 30.8772 141.823C30.996 142.03 31.0554 142.285 31.0554 142.585C31.0554 142.871 30.9904 143.128 30.8605 143.357C30.7306 143.585 30.5255 143.766 30.2452 143.9C29.965 144.033 29.6002 144.1 29.1511 144.1H27.0908ZM27.7813 143.488H29.1511C29.6021 143.488 29.9223 143.4 30.1116 143.226C30.3028 143.049 30.3983 142.836 30.3983 142.585C30.3983 142.392 30.3492 142.214 30.2508 142.051C30.1524 141.886 30.0123 141.754 29.8304 141.656C29.6485 141.555 29.4332 141.505 29.1845 141.505H27.7813V143.488ZM27.7813 140.904H29.062C29.2699 140.904 29.4573 140.863 29.6244 140.781C29.7933 140.7 29.9269 140.585 30.0253 140.436C30.1255 140.288 30.1756 140.113 30.1756 139.913C30.1756 139.662 30.0884 139.45 29.9139 139.275C29.7394 139.099 29.4629 139.011 29.0843 139.011H27.7813V140.904ZM35.8524 140.18C35.7912 139.993 35.7104 139.825 35.6102 139.676C35.5118 139.526 35.394 139.398 35.2566 139.292C35.1211 139.186 34.9671 139.105 34.7945 139.05C34.6219 138.994 34.4325 138.966 34.2265 138.966C33.8887 138.966 33.5815 139.053 33.305 139.228C33.0284 139.402 32.8085 139.659 32.6452 139.999C32.4818 140.339 32.4002 140.755 32.4002 141.249C32.4002 141.743 32.4828 142.159 32.6479 142.499C32.8131 142.839 33.0368 143.096 33.3189 143.27C33.601 143.445 33.9184 143.532 34.2711 143.532C34.5977 143.532 34.8854 143.462 35.1341 143.323C35.3847 143.182 35.5796 142.984 35.7188 142.727C35.8599 142.469 35.9304 142.166 35.9304 141.817L36.142 141.862H34.427V141.249H36.5986V141.862C36.5986 142.331 36.4983 142.74 36.2979 143.087C36.0993 143.434 35.8246 143.703 35.4738 143.894C35.1249 144.083 34.724 144.178 34.2711 144.178C33.7662 144.178 33.3226 144.059 32.9403 143.822C32.5598 143.584 32.2628 143.246 32.0494 142.808C31.8378 142.37 31.732 141.85 31.732 141.249C31.732 140.798 31.7923 140.393 31.9129 140.032C32.0354 139.671 32.2081 139.362 32.4308 139.108C32.6535 138.854 32.9171 138.659 33.2215 138.523C33.5259 138.388 33.8609 138.32 34.2265 138.32C34.5272 138.32 34.8075 138.366 35.0673 138.457C35.329 138.546 35.562 138.673 35.7661 138.838C35.9722 139.001 36.1438 139.197 36.2812 139.426C36.4185 139.652 36.5132 139.903 36.5652 140.18H35.8524ZM37.5459 144.1V138.398H39.4725C39.9198 138.398 40.2855 138.479 40.5694 138.64C40.8553 138.8 41.0669 139.016 41.2042 139.289C41.3416 139.562 41.4102 139.866 41.4102 140.202C41.4102 140.538 41.3416 140.844 41.2042 141.118C41.0687 141.393 40.859 141.612 40.575 141.775C40.291 141.937 39.9272 142.018 39.4836 142.018H38.1027V141.405H39.4614C39.7676 141.405 40.0135 141.352 40.1992 141.246C40.3848 141.141 40.5193 140.998 40.6028 140.818C40.6882 140.636 40.7309 140.431 40.7309 140.202C40.7309 139.974 40.6882 139.77 40.6028 139.59C40.5193 139.41 40.3838 139.269 40.1964 139.167C40.0089 139.063 39.7602 139.011 39.4502 139.011H38.2364V144.1H37.5459ZM44.2139 138.131L42.3764 144.958H41.775L43.6125 138.131H44.2139ZM48.5884 138.398H49.2789V142.173C49.2789 142.563 49.187 142.911 49.0033 143.217C48.8214 143.522 48.5643 143.762 48.2321 143.939C47.8998 144.113 47.5101 144.2 47.0627 144.2C46.6154 144.2 46.2257 144.113 45.8934 143.939C45.5612 143.762 45.3032 143.522 45.1194 143.217C44.9376 142.911 44.8466 142.563 44.8466 142.173V138.398H45.5371V142.118C45.5371 142.396 45.5983 142.644 45.7208 142.861C45.8433 143.076 46.0178 143.246 46.2442 143.371C46.4725 143.493 46.7454 143.554 47.0627 143.554C47.3801 143.554 47.653 143.493 47.8813 143.371C48.1096 143.246 48.284 143.076 48.4047 142.861C48.5272 142.644 48.5884 142.396 48.5884 142.118V138.398ZM53.5407 139.824C53.5073 139.542 53.3718 139.323 53.1342 139.167C52.8966 139.011 52.6052 138.933 52.26 138.933C52.0076 138.933 51.7867 138.974 51.5974 139.055C51.4099 139.137 51.2633 139.249 51.1575 139.392C51.0536 139.535 51.0016 139.697 51.0016 139.879C51.0016 140.032 51.0378 140.162 51.1102 140.272C51.1844 140.38 51.2791 140.47 51.3941 140.542C51.5092 140.612 51.6299 140.671 51.7561 140.717C51.8823 140.762 51.9983 140.798 52.1041 140.826L52.6832 140.982C52.8317 141.021 52.9969 141.075 53.1788 141.143C53.3625 141.212 53.5379 141.306 53.7049 141.424C53.8738 141.541 54.013 141.692 54.1226 141.876C54.2321 142.059 54.2868 142.285 54.2868 142.552C54.2868 142.86 54.2061 143.139 54.0446 143.387C53.885 143.636 53.6511 143.834 53.343 143.98C53.0368 144.127 52.6646 144.2 52.2266 144.2C51.8183 144.2 51.4647 144.134 51.1659 144.003C50.8689 143.871 50.635 143.687 50.4643 143.451C50.2954 143.216 50.1998 142.942 50.1775 142.63H50.8902C50.9088 142.845 50.9812 143.023 51.1074 143.165C51.2355 143.304 51.3969 143.408 51.5918 143.476C51.7886 143.543 52.0002 143.577 52.2266 143.577C52.4902 143.577 52.7268 143.534 52.9365 143.449C53.1463 143.361 53.3124 143.241 53.4349 143.087C53.5574 142.931 53.6186 142.749 53.6186 142.541C53.6186 142.352 53.5657 142.198 53.4599 142.079C53.3541 141.96 53.2149 141.863 53.0423 141.789C52.8697 141.715 52.6832 141.65 52.4827 141.594L51.7811 141.394C51.3357 141.266 50.983 141.083 50.7232 140.845C50.4633 140.608 50.3334 140.297 50.3334 139.913C50.3334 139.593 50.4197 139.315 50.5923 139.078C50.7668 138.838 51.0007 138.652 51.2939 138.521C51.589 138.387 51.9185 138.32 52.2823 138.32C52.6498 138.32 52.9764 138.386 53.2623 138.518C53.5481 138.648 53.7745 138.826 53.9416 139.052C54.1105 139.279 54.1996 139.536 54.2089 139.824H53.5407ZM56.9464 144.1H55.1868V138.398H57.0243C57.5774 138.398 58.0507 138.512 58.4442 138.741C58.8377 138.967 59.1393 139.293 59.349 139.718C59.5588 140.141 59.6637 140.648 59.6637 141.238C59.6637 141.832 59.5579 142.343 59.3463 142.772C59.1347 143.199 58.8266 143.527 58.4219 143.758C58.0173 143.986 57.5255 144.1 56.9464 144.1ZM55.8773 143.488H56.9018C57.3733 143.488 57.764 143.397 58.0739 143.215C58.3839 143.033 58.615 142.774 58.7672 142.438C58.9194 142.102 58.9955 141.702 58.9955 141.238C58.9955 140.778 58.9203 140.381 58.77 140.049C58.6196 139.715 58.395 139.459 58.0962 139.281C57.7974 139.101 57.4252 139.011 56.9798 139.011H55.8773V143.488Z" fill="#CDCDCD"/>
</g>
<g opacity="0.4">
<rect x="379.245" y="131.245" width="49.98" height="19.11" rx="2.205" fill="url(#paint6_linear_3338_2795)" fill-opacity="0.1"/>
<rect x="379.245" y="131.245" width="49.98" height="19.11" rx="2.205" stroke="#686868" stroke-width="0.49"/>
<path d="M388.325 143.9H387.601L389.694 138.198H390.407L392.501 143.9H391.777L390.073 139.1H390.029L388.325 143.9ZM388.592 141.673H391.51V142.285H388.592V141.673ZM396.896 138.198H397.586V141.973C397.586 142.363 397.494 142.711 397.31 143.017C397.129 143.322 396.871 143.562 396.539 143.739C396.207 143.913 395.817 144 395.37 144C394.923 144 394.533 143.913 394.201 143.739C393.868 143.562 393.61 143.322 393.427 143.017C393.245 142.711 393.154 142.363 393.154 141.973V138.198H393.844V141.918C393.844 142.196 393.905 142.444 394.028 142.661C394.15 142.876 394.325 143.046 394.551 143.171C394.78 143.293 395.053 143.354 395.37 143.354C395.687 143.354 395.96 143.293 396.188 143.171C396.417 143.046 396.591 142.876 396.712 142.661C396.834 142.444 396.896 142.196 396.896 141.918V138.198ZM400.489 143.9H398.73V138.198H400.567C401.12 138.198 401.594 138.312 401.987 138.541C402.381 138.767 402.682 139.093 402.892 139.518C403.102 139.941 403.206 140.448 403.206 141.038C403.206 141.632 403.101 142.143 402.889 142.572C402.678 142.999 402.369 143.327 401.965 143.558C401.56 143.786 401.068 143.9 400.489 143.9ZM399.42 143.288H400.445C400.916 143.288 401.307 143.197 401.617 143.015C401.927 142.833 402.158 142.574 402.31 142.238C402.462 141.902 402.538 141.502 402.538 141.038C402.538 140.578 402.463 140.181 402.313 139.849C402.162 139.515 401.938 139.259 401.639 139.081C401.34 138.901 400.968 138.811 400.523 138.811H399.42V143.288ZM405.742 137.931L403.905 144.758H403.303L405.141 137.931H405.742ZM410.117 138.198H410.807V141.973C410.807 142.363 410.715 142.711 410.532 143.017C410.35 143.322 410.093 143.562 409.76 143.739C409.428 143.913 409.038 144 408.591 144C408.144 144 407.754 143.913 407.422 143.739C407.089 143.562 406.831 143.322 406.648 143.017C406.466 142.711 406.375 142.363 406.375 141.973V138.198H407.065V141.918C407.065 142.196 407.127 142.444 407.249 142.661C407.372 142.876 407.546 143.046 407.773 143.171C408.001 143.293 408.274 143.354 408.591 143.354C408.908 143.354 409.181 143.293 409.41 143.171C409.638 143.046 409.812 142.876 409.933 142.661C410.055 142.444 410.117 142.196 410.117 141.918V138.198ZM415.069 139.624C415.036 139.342 414.9 139.123 414.662 138.967C414.425 138.811 414.134 138.733 413.788 138.733C413.536 138.733 413.315 138.774 413.126 138.855C412.938 138.937 412.792 139.049 412.686 139.192C412.582 139.335 412.53 139.497 412.53 139.679C412.53 139.832 412.566 139.962 412.638 140.072C412.713 140.18 412.807 140.27 412.922 140.342C413.038 140.413 413.158 140.471 413.284 140.517C413.411 140.562 413.527 140.598 413.632 140.626L414.211 140.782C414.36 140.821 414.525 140.875 414.707 140.943C414.891 141.012 415.066 141.106 415.233 141.225C415.402 141.341 415.541 141.492 415.651 141.676C415.76 141.859 415.815 142.085 415.815 142.352C415.815 142.66 415.734 142.939 415.573 143.187C415.413 143.436 415.179 143.634 414.871 143.78C414.565 143.927 414.193 144 413.755 144C413.347 144 412.993 143.934 412.694 143.803C412.397 143.671 412.163 143.487 411.993 143.251C411.824 143.016 411.728 142.742 411.706 142.43H412.419C412.437 142.645 412.509 142.824 412.636 142.965C412.764 143.104 412.925 143.208 413.12 143.276C413.317 143.343 413.528 143.377 413.755 143.377C414.018 143.377 414.255 143.334 414.465 143.249C414.675 143.161 414.841 143.041 414.963 142.887C415.086 142.731 415.147 142.549 415.147 142.341C415.147 142.152 415.094 141.998 414.988 141.879C414.882 141.76 414.743 141.664 414.571 141.589C414.398 141.515 414.211 141.45 414.011 141.394L413.309 141.194C412.864 141.066 412.511 140.883 412.251 140.645C411.992 140.408 411.862 140.097 411.862 139.713C411.862 139.394 411.948 139.115 412.121 138.878C412.295 138.638 412.529 138.453 412.822 138.321C413.117 138.187 413.447 138.12 413.811 138.12C414.178 138.12 414.505 138.186 414.791 138.318C415.076 138.448 415.303 138.626 415.47 138.852C415.639 139.079 415.728 139.336 415.737 139.624H415.069ZM418.475 143.9H416.715V138.198H418.553C419.106 138.198 419.579 138.312 419.972 138.541C420.366 138.767 420.668 139.093 420.877 139.518C421.087 139.941 421.192 140.448 421.192 141.038C421.192 141.632 421.086 142.143 420.875 142.572C420.663 142.999 420.355 143.327 419.95 143.558C419.546 143.786 419.054 143.9 418.475 143.9ZM417.406 143.288H418.43C418.902 143.288 419.292 143.197 419.602 143.015C419.912 142.833 420.143 142.574 420.295 142.238C420.448 141.902 420.524 141.502 420.524 141.038C420.524 140.578 420.449 140.181 420.298 139.849C420.148 139.515 419.923 139.259 419.624 139.081C419.326 138.901 418.954 138.811 418.508 138.811H417.406V143.288Z" fill="#CDCDCD"/>
</g>
<path d="M152.513 41.7273V89H146.788V47.7287H146.511L134.97 55.392V49.5753L146.788 41.7273H152.513ZM167.378 89.3693C166.239 89.3693 165.262 88.9615 164.446 88.146C163.631 87.3304 163.223 86.3532 163.223 85.2145C163.223 84.0758 163.631 83.0986 164.446 82.283C165.262 81.4674 166.239 81.0597 167.378 81.0597C168.517 81.0597 169.494 81.4674 170.309 82.283C171.125 83.0986 171.533 84.0758 171.533 85.2145C171.533 85.9685 171.34 86.661 170.956 87.2919C170.586 87.9228 170.086 88.4306 169.455 88.8153C168.84 89.1847 168.147 89.3693 167.378 89.3693ZM192.186 41.7273V89H186.461V47.7287H186.184L174.643 55.392V49.5753L186.461 41.7273H192.186ZM221.2 89.6463C217.722 89.6463 214.76 88.6999 212.313 86.8072C209.867 84.899 207.997 82.1368 206.704 78.5206C205.412 74.889 204.766 70.5033 204.766 65.3636C204.766 60.2547 205.412 55.8922 206.704 52.2759C208.012 48.6443 209.89 45.8744 212.337 43.9663C214.799 42.0427 217.753 41.081 221.2 41.081C224.647 41.081 227.594 42.0427 230.041 43.9663C232.503 45.8744 234.38 48.6443 235.673 52.2759C236.981 55.8922 237.635 60.2547 237.635 65.3636C237.635 70.5033 236.989 74.889 235.696 78.5206C234.403 82.1368 232.534 84.899 230.087 86.8072C227.64 88.6999 224.678 89.6463 221.2 89.6463ZM221.2 84.5682C224.647 84.5682 227.325 82.9062 229.233 79.5824C231.141 76.2585 232.095 71.5189 232.095 65.3636C232.095 61.2704 231.657 57.7849 230.779 54.9073C229.918 52.0297 228.671 49.8369 227.04 48.3288C225.424 46.8208 223.478 46.0668 221.2 46.0668C217.784 46.0668 215.114 47.7518 213.191 51.1218C211.267 54.4764 210.305 59.2237 210.305 65.3636C210.305 69.4569 210.736 72.9347 211.598 75.7969C212.46 78.6591 213.698 80.8365 215.314 82.3292C216.945 83.8219 218.907 84.5682 221.2 84.5682ZM261.179 89.6463C258.471 89.6463 256.032 89.1077 253.862 88.0305C251.692 86.9534 249.953 85.4761 248.645 83.5987C247.337 81.7214 246.622 79.5824 246.498 77.1818H252.038C252.254 79.3208 253.223 81.0904 254.947 82.4908C256.686 83.8757 258.763 84.5682 261.179 84.5682C263.118 84.5682 264.841 84.1142 266.349 83.2063C267.873 82.2984 269.065 81.052 269.927 79.467C270.804 77.8666 271.243 76.0585 271.243 74.0426C271.243 71.9806 270.789 70.1417 269.881 68.5259C268.988 66.8948 267.757 65.6098 266.188 64.6712C264.618 63.7325 262.825 63.2554 260.81 63.2401C259.363 63.2247 257.878 63.4478 256.355 63.9094C254.831 64.3557 253.577 64.9328 252.592 65.6406L247.237 64.9943L250.099 41.7273H274.659V46.8054H254.9L253.239 60.7472H253.516C254.485 59.9777 255.701 59.3391 257.163 58.8313C258.624 58.3235 260.148 58.0696 261.733 58.0696C264.626 58.0696 267.203 58.7621 269.465 60.147C271.743 61.5166 273.528 63.3939 274.821 65.7791C276.129 68.1643 276.783 70.888 276.783 73.9503C276.783 76.9664 276.105 79.6593 274.751 82.0291C273.413 84.3835 271.566 86.2455 269.212 87.6151C266.857 88.9692 264.18 89.6463 261.179 89.6463Z" fill="white"/>
<path d="M302.571 41.7273V89H296.847V47.7287H296.57L285.029 55.392V49.5753L296.847 41.7273H302.571Z" fill="url(#paint7_linear_3338_2795)"/>
<path d="M318.717 39V31.7273H321.445C322.003 31.7273 322.472 31.8314 322.851 32.0398C323.232 32.2481 323.52 32.5346 323.714 32.8991C323.91 33.2614 324.009 33.6733 324.009 34.1349C324.009 34.6013 323.91 35.0156 323.714 35.3778C323.517 35.7401 323.227 36.0253 322.844 36.2337C322.46 36.4396 321.988 36.5426 321.427 36.5426H319.619V35.4595H321.249C321.576 35.4595 321.844 35.4027 322.052 35.2891C322.26 35.1754 322.414 35.0192 322.513 34.8203C322.615 34.6214 322.666 34.393 322.666 34.1349C322.666 33.8769 322.615 33.6496 322.513 33.4531C322.414 33.2566 322.259 33.1039 322.048 32.995C321.84 32.8838 321.571 32.8281 321.242 32.8281H320.035V39H318.717ZM326.47 31.7273V39H325.153V31.7273H326.47ZM327.897 39V31.7273H330.624C331.183 31.7273 331.652 31.8314 332.031 32.0398C332.412 32.2481 332.699 32.5346 332.893 32.8991C333.09 33.2614 333.188 33.6733 333.188 34.1349C333.188 34.6013 333.09 35.0156 332.893 35.3778C332.697 35.7401 332.407 36.0253 332.023 36.2337C331.64 36.4396 331.168 36.5426 330.607 36.5426H328.799V35.4595H330.429C330.756 35.4595 331.023 35.4027 331.232 35.2891C331.44 35.1754 331.594 35.0192 331.693 34.8203C331.795 34.6214 331.846 34.393 331.846 34.1349C331.846 33.8769 331.795 33.6496 331.693 33.4531C331.594 33.2566 331.439 33.1039 331.228 32.995C331.02 32.8838 330.751 32.8281 330.422 32.8281H329.214V39H327.897Z" fill="#45D1FF"/>
<g clip-path="url(#clip0_3338_2795)">
<path d="M314.269 48.291C315.572 48.541 316.972 48.3597 318.217 47.6406C320.403 46.3788 321.428 43.8882 320.939 41.5444L319.618 41.8182C319.805 42.7132 319.705 43.6442 319.331 44.4787C318.958 45.3132 318.331 46.0085 317.539 46.4656C316.622 46.9947 315.59 47.1394 314.622 46.9713L315.341 44.2876L311.111 46.7298L313.554 50.9599L314.269 48.291Z" fill="#45D1FF"/>
</g>
<defs>
<linearGradient id="paint0_linear_3338_2795" x1="222" y1="0" x2="222" y2="188" gradientUnits="userSpaceOnUse">
<stop stop-color="white"/>
<stop offset="1"/>
</linearGradient>
<linearGradient id="paint1_linear_3338_2795" x1="223.5" y1="121" x2="223.5" y2="161" gradientUnits="userSpaceOnUse">
<stop stop-color="white"/>
<stop offset="1"/>
</linearGradient>
<linearGradient id="paint2_linear_3338_2795" x1="195.948" y1="123.667" x2="252" y2="164.5" gradientUnits="userSpaceOnUse">
<stop stop-color="#1E8AD5"/>
<stop offset="1" stop-color="#3EC3F7"/>
</linearGradient>
<linearGradient id="paint3_linear_3338_2795" x1="327.05" y1="127" x2="327.05" y2="155" gradientUnits="userSpaceOnUse">
<stop stop-color="white"/>
<stop offset="1"/>
</linearGradient>
<linearGradient id="paint4_linear_3338_2795" x1="120.05" y1="127" x2="120.05" y2="155" gradientUnits="userSpaceOnUse">
<stop stop-color="white"/>
<stop offset="1"/>
</linearGradient>
<linearGradient id="paint5_linear_3338_2795" x1="43.235" y1="131.2" x2="43.235" y2="150.8" gradientUnits="userSpaceOnUse">
<stop stop-color="white"/>
<stop offset="1"/>
</linearGradient>
<linearGradient id="paint6_linear_3338_2795" x1="404.235" y1="131" x2="404.235" y2="150.6" gradientUnits="userSpaceOnUse">
<stop stop-color="white"/>
<stop offset="1"/>
</linearGradient>
<linearGradient id="paint7_linear_3338_2795" x1="131.803" y1="25.9" x2="210.419" y2="144.471" gradientUnits="userSpaceOnUse">
<stop stop-color="#0052B4"/>
<stop offset="1" stop-color="#45D1FF"/>
</linearGradient>
<clipPath id="clip0_3338_2795">
<rect width="13.0252" height="13.0252" fill="white" transform="translate(325.793 48.28) rotate(150)"/>
</clipPath>
</defs>
</svg>
