<svg width="444" height="237" viewBox="0 0 444 237" fill="none" xmlns="http://www.w3.org/2000/svg">
<path d="M0.5 13C0.5 6.09644 6.09644 0.5 13 0.5H431C437.904 0.5 443.5 6.09644 443.5 13V224C443.5 230.904 437.904 236.5 431 236.5H13C6.09645 236.5 0.5 230.904 0.5 224V13Z" fill="url(#paint0_linear_3327_995)" fill-opacity="0.1" stroke="#6B6B6B"/>
<path d="M88 162V166H358V63L350.5 80L346.5 89L343 95L340.5 99.5L337.5 103L333.5 105.5C332.5 105.333 330.3 104.9 329.5 104.5C328.7 104.1 325.5 102.333 324 101.5L321 99.5L316 98H311.5C311.1 98 307.667 98.3333 306 98.5L301.5 97.5L296 94L292 91.5L288 90H284.5L282.5 91.5L279 94L276 97.5L271 103L266 108L260 112L254.5 115L248.5 115.5L243.5 115L239 114L235 113H232L229 113.5L224 115.5L217.5 118.5L210 121.5L204.5 122L200 121.5L193 118L188.5 113.5L183.5 110.5L180 109.5L176.5 111L173.5 113.5L164.5 123.5L158 131.5L151.5 137.5L144.5 143L133.5 152.5L128 155.5H124L121.5 153.5L119 150L115 143.5C113.833 141.5 111.4 137.5 111 137.5C110.5 137.5 108.5 135 108 135H105C104.2 135 102.333 136.667 101.5 137.5L97.5 143.5L93 151.5L88 162Z" fill="url(#paint1_linear_3327_995)"/>
<path d="M86.9999 163.059L90.5444 155.75C94.0888 148.441 101.178 133.823 106.948 134.327C112.717 134.83 117.168 150.456 122.634 154.433C128.101 158.41 134.584 150.739 140.883 145.181C147.181 139.622 153.296 136.175 159.73 129.065C166.163 121.956 172.917 111.184 178.885 109.419C184.852 107.654 190.034 114.895 195.53 118.542C201.025 122.188 206.834 122.241 212.841 120.024C218.848 117.807 225.053 113.321 230.936 112.531C236.818 111.742 242.378 114.65 248.167 114.939C253.955 115.228 259.972 112.898 266.327 106.692C272.682 100.487 279.376 90.4061 285.307 89.0528C291.239 87.6995 296.409 95.0735 302.044 97.1301C307.678 99.1867 313.776 95.9259 319.402 98.0722C325.029 100.218 330.184 107.772 336.434 102.77C342.684 97.7673 350.029 80.2094 353.702 71.4305L357.375 62.6516" stroke="#18A0FB"/>
<rect x="166.5" y="20.5" width="118" height="39" rx="4.5" fill="url(#paint2_linear_3327_995)" fill-opacity="0.1"/>
<rect x="166.5" y="20.5" width="118" height="39" rx="4.5" stroke="url(#paint3_linear_3327_995)"/>
<path d="M185.636 47.4545V32.9091H186.568V47.4545H185.636ZM188.773 37.2727C188.705 36.697 188.428 36.25 187.943 35.9318C187.458 35.6136 186.864 35.4545 186.159 35.4545C185.644 35.4545 185.193 35.5379 184.807 35.7045C184.424 35.8712 184.125 36.1004 183.909 36.392C183.697 36.6837 183.591 37.0152 183.591 37.3864C183.591 37.697 183.665 37.964 183.812 38.1875C183.964 38.4072 184.157 38.5909 184.392 38.7386C184.627 38.8826 184.873 39.0019 185.131 39.0966C185.388 39.1875 185.625 39.2614 185.841 39.3182L187.023 39.6364C187.326 39.7159 187.663 39.8258 188.034 39.9659C188.409 40.1061 188.767 40.2973 189.108 40.5398C189.453 40.7784 189.737 41.0852 189.96 41.4602C190.184 41.8352 190.295 42.2955 190.295 42.8409C190.295 43.4697 190.131 44.0379 189.801 44.5455C189.475 45.053 188.998 45.4564 188.369 45.7557C187.744 46.0549 186.985 46.2045 186.091 46.2045C185.258 46.2045 184.536 46.0701 183.926 45.8011C183.32 45.5322 182.843 45.1572 182.494 44.6761C182.15 44.1951 181.955 43.6364 181.909 43H183.364C183.402 43.4394 183.549 43.803 183.807 44.0909C184.068 44.375 184.398 44.5871 184.795 44.7273C185.197 44.8636 185.629 44.9318 186.091 44.9318C186.629 44.9318 187.112 44.8447 187.54 44.6705C187.968 44.4924 188.307 44.2462 188.557 43.9318C188.807 43.6136 188.932 43.2424 188.932 42.8182C188.932 42.4318 188.824 42.1174 188.608 41.875C188.392 41.6326 188.108 41.4356 187.756 41.2841C187.403 41.1326 187.023 41 186.614 40.8864L185.182 40.4773C184.273 40.2159 183.553 39.8428 183.023 39.358C182.492 38.8731 182.227 38.2386 182.227 37.4545C182.227 36.803 182.403 36.2348 182.756 35.75C183.112 35.2614 183.589 34.8826 184.188 34.6136C184.79 34.3409 185.462 34.2045 186.205 34.2045C186.955 34.2045 187.621 34.339 188.205 34.608C188.788 34.8731 189.25 35.2367 189.591 35.6989C189.936 36.161 190.117 36.6856 190.136 37.2727H188.773ZM196.019 34.3636V46H194.609V35.8409H194.541L191.7 37.7273V36.2955L194.609 34.3636H196.019ZM200.22 44.4091L200.129 45.0227C200.065 45.4545 199.967 45.9167 199.834 46.4091C199.705 46.9015 199.571 47.3655 199.431 47.8011C199.29 48.2367 199.175 48.5833 199.084 48.8409H198.061C198.111 48.5985 198.175 48.2784 198.254 47.8807C198.334 47.483 198.414 47.0379 198.493 46.5455C198.576 46.0568 198.645 45.5568 198.698 45.0455L198.766 44.4091H200.22ZM205.591 46.1591C204.735 46.1591 204.006 45.9261 203.404 45.4602C202.801 44.9905 202.341 44.3106 202.023 43.4205C201.705 42.5265 201.546 41.447 201.546 40.1818C201.546 38.9242 201.705 37.8504 202.023 36.9602C202.345 36.0663 202.807 35.3845 203.409 34.9148C204.015 34.4413 204.743 34.2045 205.591 34.2045C206.44 34.2045 207.165 34.4413 207.767 34.9148C208.373 35.3845 208.836 36.0663 209.154 36.9602C209.476 37.8504 209.637 38.9242 209.637 40.1818C209.637 41.447 209.478 42.5265 209.159 43.4205C208.841 44.3106 208.381 44.9905 207.779 45.4602C207.176 45.9261 206.447 46.1591 205.591 46.1591ZM205.591 44.9091C206.44 44.9091 207.099 44.5 207.569 43.6818C208.038 42.8636 208.273 41.697 208.273 40.1818C208.273 39.1742 208.165 38.3163 207.949 37.608C207.737 36.8996 207.43 36.3598 207.029 35.9886C206.631 35.6174 206.152 35.4318 205.591 35.4318C204.75 35.4318 204.093 35.8466 203.62 36.6761C203.146 37.5019 202.909 38.6705 202.909 40.1818C202.909 41.1894 203.015 42.0455 203.228 42.75C203.44 43.4545 203.745 43.9905 204.142 44.358C204.544 44.7254 205.027 44.9091 205.591 44.9091ZM215.111 46.1591C214.255 46.1591 213.526 45.9261 212.924 45.4602C212.321 44.9905 211.861 44.3106 211.543 43.4205C211.225 42.5265 211.066 41.447 211.066 40.1818C211.066 38.9242 211.225 37.8504 211.543 36.9602C211.865 36.0663 212.327 35.3845 212.929 34.9148C213.535 34.4413 214.263 34.2045 215.111 34.2045C215.96 34.2045 216.685 34.4413 217.287 34.9148C217.893 35.3845 218.356 36.0663 218.674 36.9602C218.996 37.8504 219.157 38.9242 219.157 40.1818C219.157 41.447 218.998 42.5265 218.679 43.4205C218.361 44.3106 217.901 44.9905 217.299 45.4602C216.696 45.9261 215.967 46.1591 215.111 46.1591ZM215.111 44.9091C215.96 44.9091 216.619 44.5 217.089 43.6818C217.558 42.8636 217.793 41.697 217.793 40.1818C217.793 39.1742 217.685 38.3163 217.469 37.608C217.257 36.8996 216.95 36.3598 216.549 35.9886C216.151 35.6174 215.672 35.4318 215.111 35.4318C214.27 35.4318 213.613 35.8466 213.14 36.6761C212.666 37.5019 212.429 38.6705 212.429 40.1818C212.429 41.1894 212.535 42.0455 212.748 42.75C212.96 43.4545 213.265 43.9905 213.662 44.358C214.064 44.7254 214.547 44.9091 215.111 44.9091ZM224.631 46.1591C223.775 46.1591 223.046 45.9261 222.444 45.4602C221.841 44.9905 221.381 44.3106 221.063 43.4205C220.745 42.5265 220.586 41.447 220.586 40.1818C220.586 38.9242 220.745 37.8504 221.063 36.9602C221.385 36.0663 221.847 35.3845 222.449 34.9148C223.055 34.4413 223.783 34.2045 224.631 34.2045C225.48 34.2045 226.205 34.4413 226.807 34.9148C227.413 35.3845 227.876 36.0663 228.194 36.9602C228.516 37.8504 228.677 38.9242 228.677 40.1818C228.677 41.447 228.518 42.5265 228.199 43.4205C227.881 44.3106 227.421 44.9905 226.819 45.4602C226.216 45.9261 225.487 46.1591 224.631 46.1591ZM224.631 44.9091C225.48 44.9091 226.139 44.5 226.609 43.6818C227.078 42.8636 227.313 41.697 227.313 40.1818C227.313 39.1742 227.205 38.3163 226.989 37.608C226.777 36.8996 226.47 36.3598 226.069 35.9886C225.671 35.6174 225.192 35.4318 224.631 35.4318C223.79 35.4318 223.133 35.8466 222.66 36.6761C222.186 37.5019 221.949 38.6705 221.949 40.1818C221.949 41.1894 222.055 42.0455 222.268 42.75C222.48 43.4545 222.785 43.9905 223.182 44.358C223.584 44.7254 224.067 44.9091 224.631 44.9091ZM242.217 34.3636H243.626V42.0682C243.626 42.8636 243.438 43.5739 243.063 44.1989C242.692 44.8201 242.167 45.3106 241.489 45.6705C240.811 46.0265 240.016 46.2045 239.103 46.2045C238.19 46.2045 237.395 46.0265 236.717 45.6705C236.039 45.3106 235.512 44.8201 235.137 44.1989C234.766 43.5739 234.58 42.8636 234.58 42.0682V34.3636H235.989V41.9545C235.989 42.5227 236.114 43.0284 236.364 43.4716C236.614 43.911 236.97 44.2576 237.433 44.5114C237.899 44.7614 238.455 44.8864 239.103 44.8864C239.751 44.8864 240.308 44.7614 240.774 44.5114C241.239 44.2576 241.595 43.911 241.842 43.4716C242.092 43.0284 242.217 42.5227 242.217 41.9545V34.3636ZM252.323 37.2727C252.255 36.697 251.979 36.25 251.494 35.9318C251.009 35.6136 250.414 35.4545 249.71 35.4545C249.195 35.4545 248.744 35.5379 248.357 35.7045C247.975 35.8712 247.676 36.1004 247.46 36.392C247.248 36.6837 247.142 37.0152 247.142 37.3864C247.142 37.697 247.215 37.964 247.363 38.1875C247.515 38.4072 247.708 38.5909 247.943 38.7386C248.178 38.8826 248.424 39.0019 248.681 39.0966C248.939 39.1875 249.176 39.2614 249.392 39.3182L250.573 39.6364C250.876 39.7159 251.214 39.8258 251.585 39.9659C251.96 40.1061 252.318 40.2973 252.659 40.5398C253.003 40.7784 253.287 41.0852 253.511 41.4602C253.734 41.8352 253.846 42.2955 253.846 42.8409C253.846 43.4697 253.681 44.0379 253.352 44.5455C253.026 45.053 252.549 45.4564 251.92 45.7557C251.295 46.0549 250.535 46.2045 249.642 46.2045C248.808 46.2045 248.087 46.0701 247.477 45.8011C246.871 45.5322 246.393 45.1572 246.045 44.6761C245.7 44.1951 245.505 43.6364 245.46 43H246.914C246.952 43.4394 247.1 43.803 247.357 44.0909C247.619 44.375 247.948 44.5871 248.346 44.7273C248.748 44.8636 249.179 44.9318 249.642 44.9318C250.179 44.9318 250.662 44.8447 251.09 44.6705C251.518 44.4924 251.857 44.2462 252.107 43.9318C252.357 43.6136 252.482 43.2424 252.482 42.8182C252.482 42.4318 252.374 42.1174 252.159 41.875C251.943 41.6326 251.659 41.4356 251.306 41.2841C250.954 41.1326 250.573 41 250.164 40.8864L248.732 40.4773C247.823 40.2159 247.104 39.8428 246.573 39.358C246.043 38.8731 245.778 38.2386 245.778 37.4545C245.778 36.803 245.954 36.2348 246.306 35.75C246.662 35.2614 247.14 34.8826 247.738 34.6136C248.34 34.3409 249.013 34.2045 249.755 34.2045C250.505 34.2045 251.172 34.339 251.755 34.608C252.339 34.8731 252.801 35.2367 253.142 35.6989C253.486 36.161 253.668 36.6856 253.687 37.2727H252.323ZM259.274 46H255.683V34.3636H259.433C260.562 34.3636 261.528 34.5966 262.331 35.0625C263.134 35.5246 263.749 36.1894 264.177 37.0568C264.605 37.9205 264.819 38.9545 264.819 40.1591C264.819 41.3712 264.603 42.4148 264.171 43.2898C263.74 44.161 263.111 44.8314 262.285 45.3011C261.459 45.767 260.456 46 259.274 46ZM257.092 44.75H259.183C260.145 44.75 260.942 44.5644 261.575 44.1932C262.207 43.822 262.679 43.2936 262.99 42.608C263.3 41.9223 263.456 41.1061 263.456 40.1591C263.456 39.2197 263.302 38.411 262.995 37.733C262.689 37.0511 262.23 36.5284 261.62 36.1648C261.01 35.7973 260.251 35.6136 259.342 35.6136H257.092V44.75Z" fill="#50F494"/>
<rect x="194.1" y="15.1" width="54.8" height="11.8" rx="1.9" fill="#181D26" stroke="#6B6B6B" stroke-width="0.2"/>
<path d="M204.989 18.6364V23H204.477L202.099 19.5739H202.057V23H201.528V18.6364H202.04L204.426 22.071H204.469V18.6364H204.989ZM205.866 23V18.6364H208.5V19.1051H206.394V20.5795H208.363V21.0483H206.394V22.5312H208.534V23H205.866ZM210.065 23L208.871 18.6364H209.408L210.32 22.1903H210.363L211.292 18.6364H211.888L212.817 22.1903H212.86L213.772 18.6364H214.309L213.116 23H212.57L211.607 19.5227H211.573L210.61 23H210.065ZM216.295 23V18.6364H217.769C218.111 18.6364 218.391 18.6982 218.609 18.8217C218.827 18.9439 218.989 19.1094 219.094 19.3182C219.2 19.527 219.252 19.7599 219.252 20.017C219.252 20.2741 219.2 20.5078 219.094 20.718C218.991 20.9283 218.83 21.0959 218.613 21.2209C218.396 21.3445 218.117 21.4062 217.778 21.4062H216.721V20.9375H217.761C217.995 20.9375 218.183 20.897 218.325 20.8161C218.467 20.7351 218.57 20.6257 218.634 20.4879C218.7 20.3487 218.732 20.1918 218.732 20.017C218.732 19.8423 218.7 19.6861 218.634 19.5483C218.57 19.4105 218.467 19.3026 218.323 19.2244C218.18 19.1449 217.989 19.1051 217.752 19.1051H216.823V23H216.295ZM219.657 23H219.103L220.705 18.6364H221.251L222.853 23H222.299L220.995 19.3267H220.961L219.657 23ZM219.862 21.2955H222.094V21.7642H219.862V21.2955ZM222.532 18.6364H223.138L224.348 20.6733H224.399L225.609 18.6364H226.214L224.638 21.2017V23H224.109V21.2017L222.532 18.6364ZM226.718 18.6364H227.348L228.831 22.2585H228.882L230.365 18.6364H230.996V23H230.502V19.6847H230.459L229.095 23H228.618L227.255 19.6847H227.212V23H226.718V18.6364ZM231.876 23V18.6364H234.509V19.1051H232.404V20.5795H234.373V21.0483H232.404V22.5312H234.543V23H231.876ZM238.742 18.6364V23H238.23L235.852 19.5739H235.81V23H235.281V18.6364H235.793L238.179 22.071H238.222V18.6364H238.742ZM239.38 19.1051V18.6364H242.653V19.1051H241.281V23H240.753V19.1051H239.38Z" fill="#B9B9B9"/>
<path d="M49.9864 217V208.855H52.7386C53.3777 208.855 53.9 208.97 54.3057 209.201C54.714 209.429 55.0163 209.738 55.2125 210.127C55.4087 210.517 55.5068 210.952 55.5068 211.432C55.5068 211.912 55.4087 212.348 55.2125 212.74C55.0189 213.133 54.7193 213.446 54.3136 213.679C53.908 213.91 53.3883 214.025 52.7545 214.025H50.7818V213.15H52.7227C53.1602 213.15 53.5116 213.074 53.7767 212.923C54.0419 212.772 54.2341 212.568 54.3534 212.311C54.4754 212.051 54.5364 211.758 54.5364 211.432C54.5364 211.106 54.4754 210.814 54.3534 210.557C54.2341 210.3 54.0405 210.098 53.7727 209.952C53.5049 209.804 53.1496 209.73 52.7068 209.73H50.9727V217H49.9864ZM57.7461 208.855V217H56.7597V208.855H57.7461ZM59.3878 217V208.855H62.1401C62.7791 208.855 63.3014 208.97 63.7071 209.201C64.1155 209.429 64.4177 209.738 64.6139 210.127C64.8101 210.517 64.9083 210.952 64.9083 211.432C64.9083 211.912 64.8101 212.348 64.6139 212.74C64.4204 213.133 64.1208 213.446 63.7151 213.679C63.3094 213.91 62.7897 214.025 62.156 214.025H60.1833V213.15H62.1242C62.5617 213.15 62.913 213.074 63.1781 212.923C63.4433 212.772 63.6355 212.568 63.7548 212.311C63.8768 212.051 63.9378 211.758 63.9378 211.432C63.9378 211.106 63.8768 210.814 63.7548 210.557C63.6355 210.3 63.442 210.098 63.1742 209.952C62.9064 209.804 62.5511 209.73 62.1083 209.73H60.3742V217H59.3878ZM70.6157 210.891C70.568 210.488 70.3744 210.175 70.035 209.952C69.6956 209.73 69.2794 209.618 68.7862 209.618C68.4256 209.618 68.11 209.677 67.8396 209.793C67.5718 209.91 67.3623 210.07 67.2112 210.274C67.0627 210.479 66.9884 210.711 66.9884 210.97C66.9884 211.188 67.0402 211.375 67.1436 211.531C67.2496 211.685 67.3849 211.814 67.5492 211.917C67.7136 212.018 67.886 212.101 68.0663 212.168C68.2466 212.231 68.4123 212.283 68.5634 212.323L69.3907 212.545C69.6028 212.601 69.8388 212.678 70.0987 212.776C70.3612 212.874 70.6117 213.008 70.8504 213.178C71.0917 213.345 71.2905 213.56 71.447 213.822C71.6034 214.085 71.6816 214.407 71.6816 214.789C71.6816 215.229 71.5663 215.627 71.3356 215.982C71.1076 216.337 70.7735 216.62 70.3333 216.829C69.8958 217.038 69.3642 217.143 68.7384 217.143C68.1551 217.143 67.65 217.049 67.2231 216.861C66.7989 216.673 66.4648 216.41 66.2208 216.073C65.9795 215.737 65.843 215.345 65.8112 214.9H66.8294C66.8559 215.208 66.9593 215.462 67.1396 215.664C67.3225 215.862 67.5532 216.011 67.8316 216.109C68.1127 216.205 68.415 216.252 68.7384 216.252C69.115 216.252 69.453 216.191 69.7527 216.069C70.0523 215.945 70.2896 215.772 70.4646 215.552C70.6396 215.33 70.7271 215.07 70.7271 214.773C70.7271 214.502 70.6515 214.282 70.5004 214.113C70.3492 213.943 70.1504 213.805 69.9038 213.699C69.6572 213.593 69.3907 213.5 69.1044 213.42L68.1021 213.134C67.4657 212.951 66.9619 212.69 66.5907 212.351C66.2195 212.011 66.0339 211.567 66.0339 211.018C66.0339 210.562 66.1572 210.164 66.4038 209.825C66.653 209.483 66.9871 209.218 67.4061 209.03C67.8277 208.839 68.2983 208.743 68.818 208.743C69.343 208.743 69.8097 208.837 70.218 209.026C70.6263 209.211 70.9498 209.466 71.1884 209.789C71.4297 210.113 71.557 210.48 71.5703 210.891H70.6157ZM81.3495 211.4C81.262 211.132 81.1467 210.892 81.0035 210.68C80.863 210.465 80.6946 210.282 80.4984 210.131C80.3048 209.98 80.0848 209.865 79.8382 209.785C79.5916 209.706 79.3211 209.666 79.0268 209.666C78.5442 209.666 78.1054 209.791 77.7103 210.04C77.3153 210.289 77.0011 210.656 76.7677 211.141C76.5344 211.627 76.4177 212.222 76.4177 212.927C76.4177 213.633 76.5357 214.228 76.7717 214.713C77.0077 215.198 77.3272 215.566 77.7302 215.815C78.1333 216.064 78.5867 216.189 79.0905 216.189C79.5571 216.189 79.9681 216.089 80.3234 215.89C80.6814 215.689 80.9598 215.405 81.1586 215.039C81.3602 214.671 81.4609 214.237 81.4609 213.739L81.7632 213.802H79.3132V212.927H82.4155V213.802C82.4155 214.473 82.2723 215.056 81.9859 215.552C81.7022 216.048 81.3098 216.433 80.8086 216.706C80.3102 216.976 79.7374 217.111 79.0905 217.111C78.3692 217.111 77.7355 216.942 77.1893 216.602C76.6458 216.263 76.2215 215.78 75.9166 215.155C75.6143 214.529 75.4632 213.786 75.4632 212.927C75.4632 212.283 75.5494 211.704 75.7217 211.189C75.8967 210.672 76.1433 210.232 76.4615 209.869C76.7797 209.505 77.1562 209.227 77.591 209.034C78.0259 208.84 78.5045 208.743 79.0268 208.743C79.4564 208.743 79.8567 208.808 80.228 208.938C80.6018 209.065 80.9346 209.247 81.2262 209.483C81.5206 209.716 81.7658 209.996 81.962 210.322C82.1583 210.646 82.2935 211.005 82.3677 211.4H81.3495ZM83.7688 217V208.855H86.5211C87.1574 208.855 87.6798 208.963 88.0881 209.181C88.4965 209.395 88.7987 209.691 88.9949 210.068C89.1911 210.444 89.2893 210.872 89.2893 211.352C89.2893 211.832 89.1911 212.258 88.9949 212.629C88.7987 213 88.4978 213.292 88.0921 213.504C87.6864 213.713 87.168 213.818 86.537 213.818H84.3097V212.927H86.5052C86.94 212.927 87.29 212.864 87.5552 212.736C87.823 212.609 88.0165 212.429 88.1358 212.195C88.2578 211.959 88.3188 211.678 88.3188 211.352C88.3188 211.026 88.2578 210.741 88.1358 210.497C88.0139 210.253 87.819 210.065 87.5512 209.932C87.2834 209.797 86.9294 209.73 86.4893 209.73H84.7552V217H83.7688ZM87.6029 213.341L89.6074 217H88.462L86.4893 213.341H87.6029ZM97.4696 212.927C97.4696 213.786 97.3145 214.529 97.0043 215.155C96.694 215.78 96.2685 216.263 95.7275 216.602C95.1866 216.942 94.5688 217.111 93.8741 217.111C93.1794 217.111 92.5616 216.942 92.0207 216.602C91.4798 216.263 91.0543 215.78 90.744 215.155C90.4338 214.529 90.2787 213.786 90.2787 212.927C90.2787 212.068 90.4338 211.326 90.744 210.7C91.0543 210.074 91.4798 209.592 92.0207 209.252C92.5616 208.913 93.1794 208.743 93.8741 208.743C94.5688 208.743 95.1866 208.913 95.7275 209.252C96.2685 209.592 96.694 210.074 97.0043 210.7C97.3145 211.326 97.4696 212.068 97.4696 212.927ZM96.515 212.927C96.515 212.222 96.3971 211.627 96.1611 211.141C95.9277 210.656 95.6109 210.289 95.2105 210.04C94.8128 209.791 94.3673 209.666 93.8741 209.666C93.381 209.666 92.9342 209.791 92.5338 210.04C92.1361 210.289 91.8192 210.656 91.5832 211.141C91.3499 211.627 91.2332 212.222 91.2332 212.927C91.2332 213.633 91.3499 214.228 91.5832 214.713C91.8192 215.198 92.1361 215.566 92.5338 215.815C92.9342 216.064 93.381 216.189 93.8741 216.189C94.3673 216.189 94.8128 216.064 95.2105 215.815C95.6109 215.566 95.9277 215.198 96.1611 214.713C96.3971 214.228 96.515 213.633 96.515 212.927ZM100.272 217L98.0444 208.855H99.0467L100.749 215.489H100.828L102.563 208.855H103.676L105.41 215.489H105.49L107.192 208.855H108.194L105.967 217H104.949L103.151 210.509H103.088L101.29 217H100.272ZM108.642 209.73V208.855H114.751V209.73H112.19V217H111.203V209.73H108.642ZM115.937 217V208.855H116.924V212.482H121.267V208.855H122.253V217H121.267V213.357H116.924V217H115.937Z" fill="#A3A3A3"/>
<path d="M329.986 217V208.855H330.973V216.125H334.759V217H329.986ZM335.95 217V208.855H340.866V209.73H336.937V212.482H340.612V213.357H336.937V216.125H340.93V217H335.95ZM342.642 208.855L345.06 215.711H345.156L347.574 208.855H348.608L345.617 217H344.599L341.608 208.855H342.642ZM349.541 217V208.855H354.457V209.73H350.527V212.482H354.202V213.357H350.527V216.125H354.52V217H349.541ZM355.899 217V208.855H356.885V216.125H360.671V217H355.899ZM366.317 210.891C366.269 210.488 366.076 210.175 365.736 209.952C365.397 209.73 364.981 209.618 364.488 209.618C364.127 209.618 363.811 209.677 363.541 209.793C363.273 209.91 363.064 210.07 362.913 210.274C362.764 210.479 362.69 210.711 362.69 210.97C362.69 211.188 362.742 211.375 362.845 211.531C362.951 211.685 363.086 211.814 363.251 211.917C363.415 212.018 363.587 212.101 363.768 212.168C363.948 212.231 364.114 212.283 364.265 212.323L365.092 212.545C365.304 212.601 365.54 212.678 365.8 212.776C366.063 212.874 366.313 213.008 366.552 213.178C366.793 213.345 366.992 213.56 367.148 213.822C367.305 214.085 367.383 214.407 367.383 214.789C367.383 215.229 367.268 215.627 367.037 215.982C366.809 216.337 366.475 216.62 366.035 216.829C365.597 217.038 365.066 217.143 364.44 217.143C363.857 217.143 363.351 217.049 362.925 216.861C362.5 216.673 362.166 216.41 361.922 216.073C361.681 215.737 361.544 215.345 361.513 214.9H362.531C362.557 215.208 362.661 215.462 362.841 215.664C363.024 215.862 363.255 216.011 363.533 216.109C363.814 216.205 364.116 216.252 364.44 216.252C364.816 216.252 365.154 216.191 365.454 216.069C365.754 215.945 365.991 215.772 366.166 215.552C366.341 215.33 366.429 215.07 366.429 214.773C366.429 214.502 366.353 214.282 366.202 214.113C366.051 213.943 365.852 213.805 365.605 213.699C365.359 213.593 365.092 213.5 364.806 213.42L363.804 213.134C363.167 212.951 362.663 212.69 362.292 212.351C361.921 212.011 361.735 211.567 361.735 211.018C361.735 210.562 361.859 210.164 362.105 209.825C362.354 209.483 362.689 209.218 363.107 209.03C363.529 208.839 364 208.743 364.519 208.743C365.044 208.743 365.511 208.837 365.919 209.026C366.328 209.211 366.651 209.466 366.89 209.789C367.131 210.113 367.258 210.48 367.272 210.891H366.317ZM376.828 208.855H377.815V214.248C377.815 214.805 377.683 215.302 377.421 215.739C377.161 216.174 376.794 216.517 376.319 216.769C375.845 217.019 375.288 217.143 374.649 217.143C374.01 217.143 373.453 217.019 372.978 216.769C372.504 216.517 372.135 216.174 371.873 215.739C371.613 215.302 371.483 214.805 371.483 214.248V208.855H372.469V214.168C372.469 214.566 372.557 214.92 372.732 215.23C372.907 215.538 373.156 215.78 373.479 215.958C373.806 216.133 374.195 216.22 374.649 216.22C375.102 216.22 375.492 216.133 375.818 215.958C376.144 215.78 376.393 215.538 376.566 215.23C376.741 214.92 376.828 214.566 376.828 214.168V208.855ZM379.448 217V208.855H382.201C382.84 208.855 383.362 208.97 383.768 209.201C384.176 209.429 384.478 209.738 384.674 210.127C384.871 210.517 384.969 210.952 384.969 211.432C384.969 211.912 384.871 212.348 384.674 212.74C384.481 213.133 384.181 213.446 383.776 213.679C383.37 213.91 382.85 214.025 382.217 214.025H380.244V213.15H382.185C382.622 213.15 382.974 213.074 383.239 212.923C383.504 212.772 383.696 212.568 383.815 212.311C383.937 212.051 383.998 211.758 383.998 211.432C383.998 211.106 383.937 210.814 383.815 210.557C383.696 210.3 383.503 210.098 383.235 209.952C382.967 209.804 382.612 209.73 382.169 209.73H380.435V217H379.448Z" fill="#A3A3A3"/>
<path d="M71.4943 203.139C70.8381 203.139 70.2531 203.027 69.7393 202.801C69.2289 202.576 68.8229 202.263 68.5213 201.862C68.223 201.457 68.0606 200.988 68.0341 200.455H69.2869C69.3134 200.783 69.4261 201.066 69.625 201.305C69.8239 201.54 70.084 201.722 70.4055 201.852C70.727 201.981 71.0833 202.045 71.4744 202.045C71.9119 202.045 72.2997 201.969 72.6378 201.817C72.9759 201.664 73.241 201.452 73.4332 201.18C73.6255 200.909 73.7216 200.594 73.7216 200.236C73.7216 199.861 73.6288 199.531 73.4432 199.246C73.2576 198.958 72.9858 198.733 72.6278 198.57C72.2699 198.408 71.8324 198.327 71.3153 198.327H70.5V197.233H71.3153C71.7197 197.233 72.0743 197.16 72.3793 197.014C72.6875 196.868 72.9278 196.663 73.1001 196.398C73.2758 196.133 73.3636 195.821 73.3636 195.463C73.3636 195.118 73.2874 194.818 73.1349 194.563C72.9825 194.308 72.767 194.109 72.4886 193.967C72.2135 193.824 71.8887 193.753 71.5142 193.753C71.1629 193.753 70.8314 193.817 70.5199 193.947C70.2116 194.073 69.9598 194.257 69.7642 194.499C69.5687 194.737 69.4626 195.026 69.446 195.364H68.2528C68.2727 194.83 68.4335 194.363 68.7351 193.962C69.0367 193.557 69.4311 193.242 69.9183 193.017C70.4089 192.792 70.9474 192.679 71.5341 192.679C72.1638 192.679 72.7041 192.807 73.1548 193.062C73.6056 193.314 73.9519 193.647 74.1939 194.061C74.4358 194.475 74.5568 194.923 74.5568 195.403C74.5568 195.977 74.406 196.466 74.1044 196.87C73.8061 197.274 73.4001 197.554 72.8864 197.71V197.79C73.5294 197.896 74.0315 198.169 74.3928 198.61C74.754 199.048 74.9347 199.589 74.9347 200.236C74.9347 200.789 74.7839 201.286 74.4822 201.727C74.1839 202.165 73.7763 202.509 73.2592 202.761C72.7422 203.013 72.1539 203.139 71.4943 203.139ZM79.7299 203.139C79.1465 203.139 78.6212 203.023 78.1539 202.791C77.6865 202.559 77.312 202.241 77.0303 201.837C76.7486 201.432 76.5944 200.972 76.5679 200.455H77.7611C77.8075 200.915 78.0163 201.296 78.3875 201.598C78.7621 201.896 79.2095 202.045 79.7299 202.045C80.1475 202.045 80.5187 201.948 80.8435 201.752C81.1716 201.557 81.4285 201.288 81.6141 200.947C81.803 200.602 81.8975 200.213 81.8975 199.778C81.8975 199.334 81.7997 198.938 81.6041 198.59C81.4119 198.239 81.1468 197.962 80.8087 197.76C80.4706 197.558 80.0845 197.455 79.6503 197.452C79.3388 197.448 79.0189 197.496 78.6908 197.596C78.3627 197.692 78.0925 197.816 77.8804 197.969L76.727 197.83L77.3435 192.818H82.6333V193.912H78.3776L78.0196 196.915H78.0793C78.2881 196.749 78.5499 196.612 78.8648 196.502C79.1797 196.393 79.5078 196.338 79.8492 196.338C80.4723 196.338 81.0274 196.487 81.5147 196.786C82.0052 197.08 82.3897 197.485 82.6681 197.999C82.9498 198.512 83.0907 199.099 83.0907 199.759C83.0907 200.408 82.9448 200.988 82.6532 201.499C82.3648 202.006 81.9671 202.407 81.46 202.702C80.9529 202.993 80.3762 203.139 79.7299 203.139ZM84.407 200.912V199.898L88.8814 192.818H89.6172V194.389H89.12L85.7394 199.739V199.818H91.7649V200.912H84.407ZM89.1996 203V200.604V200.131V192.818H90.3729V203H89.1996ZM98.3984 201.091V200.554C98.3984 200.183 98.4746 199.843 98.6271 199.535C98.7829 199.223 99.0082 198.975 99.3032 198.789C99.6015 198.6 99.9628 198.506 100.387 198.506C100.818 198.506 101.179 198.6 101.471 198.789C101.762 198.975 101.983 199.223 102.132 199.535C102.281 199.843 102.356 200.183 102.356 200.554V201.091C102.356 201.462 102.28 201.804 102.127 202.115C101.978 202.423 101.756 202.672 101.461 202.861C101.169 203.046 100.811 203.139 100.387 203.139C99.9561 203.139 99.5932 203.046 99.2982 202.861C99.0033 202.672 98.7795 202.423 98.6271 202.115C98.4746 201.804 98.3984 201.462 98.3984 201.091ZM99.4126 200.554V201.091C99.4126 201.399 99.4855 201.676 99.6313 201.921C99.7772 202.163 100.029 202.284 100.387 202.284C100.735 202.284 100.98 202.163 101.123 201.921C101.269 201.676 101.342 201.399 101.342 201.091V200.554C101.342 200.246 101.272 199.971 101.133 199.729C100.994 199.483 100.745 199.361 100.387 199.361C100.039 199.361 99.7888 199.483 99.6363 199.729C99.4872 199.971 99.4126 200.246 99.4126 200.554ZM93.3274 195.264V194.727C93.3274 194.356 93.4036 194.016 93.5561 193.708C93.7118 193.397 93.9372 193.148 94.2322 192.962C94.5305 192.773 94.8918 192.679 95.316 192.679C95.7469 192.679 96.1081 192.773 96.3998 192.962C96.6915 193.148 96.9119 193.397 97.061 193.708C97.2102 194.016 97.2847 194.356 97.2847 194.727V195.264C97.2847 195.635 97.2085 195.977 97.0561 196.288C96.9069 196.597 96.6848 196.845 96.3899 197.034C96.0982 197.22 95.7402 197.312 95.316 197.312C94.8851 197.312 94.5222 197.22 94.2272 197.034C93.9322 196.845 93.7085 196.597 93.5561 196.288C93.4036 195.977 93.3274 195.635 93.3274 195.264ZM94.3416 194.727V195.264C94.3416 195.572 94.4145 195.849 94.5603 196.094C94.7061 196.336 94.958 196.457 95.316 196.457C95.664 196.457 95.9093 196.336 96.0518 196.094C96.1976 195.849 96.2705 195.572 96.2705 195.264V194.727C96.2705 194.419 96.2009 194.144 96.0617 193.902C95.9225 193.657 95.6739 193.534 95.316 193.534C94.968 193.534 94.7177 193.657 94.5653 193.902C94.4161 194.144 94.3416 194.419 94.3416 194.727ZM93.7052 203L100.705 192.818H101.839L94.8387 203H93.7052Z" fill="url(#paint4_linear_3327_995)"/>
<path d="M352.815 200.912V199.898L357.29 192.818H358.026V194.389H357.528L354.148 199.739V199.818H360.173V200.912H352.815ZM357.608 203V200.604V200.131V192.818H358.781V203H357.608Z" fill="url(#paint5_linear_3327_995)"/>
<g clip-path="url(#clip0_3327_995)">
<path d="M341.41 197.93L344.56 194.78L347.71 197.93" stroke="#50F494" stroke-width="1.26" stroke-linecap="round" stroke-linejoin="round"/>
<path d="M341.41 201.71L344.56 198.56L347.71 201.71" stroke="#50F494" stroke-width="1.26" stroke-linecap="round" stroke-linejoin="round"/>
</g>
<rect x="185.15" y="191.15" width="80.7" height="25.7" rx="4.85" fill="url(#paint6_linear_3327_995)" fill-opacity="0.3" stroke="#B7B7B7" stroke-width="0.3"/>
<path d="M201.716 209H199.159V200.273H201.869C202.702 200.273 203.413 200.446 204.004 200.793C204.598 201.139 205.053 201.636 205.368 202.284C205.683 202.932 205.841 203.709 205.841 204.615C205.841 205.53 205.679 206.315 205.355 206.972C205.034 207.625 204.565 208.126 203.949 208.476C203.335 208.825 202.591 209 201.716 209ZM199.956 208.284H201.669C202.419 208.284 203.047 208.136 203.553 207.841C204.058 207.545 204.438 207.124 204.69 206.575C204.943 206.027 205.07 205.374 205.07 204.615C205.067 203.862 204.942 203.214 204.695 202.672C204.45 202.129 204.087 201.713 203.604 201.423C203.124 201.134 202.53 200.989 201.822 200.989H199.956V208.284ZM208.209 200.273V209H207.412V200.273H208.209ZM210.182 209H209.347L212.522 200.273H213.374L216.549 209H215.714L212.978 201.308H212.918L210.182 209ZM210.783 205.655H215.113V206.371H210.783V205.655ZM217.685 200.273H218.605L221.771 207.875H221.848L225.014 200.273H225.935V209H225.185V201.956H225.116L222.172 209H221.447L218.503 201.956H218.435V209H217.685V200.273ZM235.05 204.636C235.05 205.545 234.888 206.337 234.564 207.01C234.24 207.68 233.794 208.2 233.226 208.57C232.66 208.936 232.01 209.119 231.274 209.119C230.538 209.119 229.886 208.936 229.318 208.57C228.753 208.2 228.308 207.68 227.984 207.01C227.663 206.337 227.503 205.545 227.503 204.636C227.503 203.727 227.663 202.937 227.984 202.267C228.308 201.594 228.754 201.074 229.322 200.707C229.891 200.338 230.541 200.153 231.274 200.153C232.01 200.153 232.66 200.338 233.226 200.707C233.794 201.074 234.24 201.594 234.564 202.267C234.888 202.937 235.05 203.727 235.05 204.636ZM234.274 204.636C234.274 203.855 234.143 203.186 233.882 202.629C233.621 202.07 233.264 201.642 232.812 201.347C232.361 201.051 231.848 200.903 231.274 200.903C230.703 200.903 230.192 201.051 229.74 201.347C229.288 201.642 228.93 202.068 228.666 202.625C228.405 203.182 228.274 203.852 228.274 204.636C228.274 205.418 228.405 206.087 228.666 206.643C228.928 207.2 229.284 207.628 229.736 207.926C230.187 208.222 230.7 208.369 231.274 208.369C231.848 208.369 232.361 208.222 232.812 207.926C233.267 207.631 233.625 207.205 233.886 206.648C234.148 206.088 234.277 205.418 234.274 204.636ZM243.414 200.273V209H242.638L237.482 201.692H237.414V209H236.617V200.273H237.388L242.562 207.589H242.63V200.273H243.414ZM247.931 209H245.374V200.273H248.084C248.917 200.273 249.628 200.446 250.219 200.793C250.813 201.139 251.268 201.636 251.583 202.284C251.898 202.932 252.056 203.709 252.056 204.615C252.056 205.53 251.894 206.315 251.57 206.972C251.249 207.625 250.78 208.126 250.164 208.476C249.55 208.825 248.806 209 247.931 209ZM246.171 208.284H247.884C248.634 208.284 249.262 208.136 249.768 207.841C250.273 207.545 250.653 207.124 250.905 206.575C251.158 206.027 251.285 205.374 251.285 204.615C251.282 203.862 251.157 203.214 250.91 202.672C250.665 202.129 250.302 201.713 249.819 201.423C249.339 201.134 248.745 200.989 248.037 200.989H246.171V208.284Z" fill="white"/>
<defs>
<linearGradient id="paint0_linear_3327_995" x1="222" y1="0" x2="222" y2="237" gradientUnits="userSpaceOnUse">
<stop stop-color="white" stop-opacity="0.6"/>
<stop offset="1"/>
</linearGradient>
<linearGradient id="paint1_linear_3327_995" x1="223" y1="115" x2="223" y2="166" gradientUnits="userSpaceOnUse">
<stop stop-color="#153A59"/>
<stop offset="1" stop-color="#101620" stop-opacity="0"/>
</linearGradient>
<linearGradient id="paint2_linear_3327_995" x1="225.5" y1="20" x2="225.5" y2="60" gradientUnits="userSpaceOnUse">
<stop stop-color="white"/>
<stop offset="1"/>
</linearGradient>
<linearGradient id="paint3_linear_3327_995" x1="193.668" y1="22.667" x2="251.692" y2="71.5025" gradientUnits="userSpaceOnUse">
<stop stop-color="#50F494"/>
<stop offset="1" stop-color="#083D1E"/>
</linearGradient>
<linearGradient id="paint4_linear_3327_995" x1="67.1639" y1="191.078" x2="92.2855" y2="215.916" gradientUnits="userSpaceOnUse">
<stop stop-color="#0052B4"/>
<stop offset="1" stop-color="#45D1FF"/>
</linearGradient>
<linearGradient id="paint5_linear_3327_995" x1="352.049" y1="191.078" x2="365.748" y2="195.141" gradientUnits="userSpaceOnUse">
<stop stop-color="#0052B4"/>
<stop offset="1" stop-color="#45D1FF"/>
</linearGradient>
<linearGradient id="paint6_linear_3327_995" x1="185" y1="204" x2="266" y2="204" gradientUnits="userSpaceOnUse">
<stop stop-color="#1E8AD6"/>
<stop offset="1" stop-color="#3BBFF4"/>
</linearGradient>
<clipPath id="clip0_3327_995">
<rect width="15.12" height="15.12" fill="white" transform="translate(337 191)"/>
</clipPath>
</defs>
</svg>
