<svg width="444" height="188" viewBox="0 0 444 188" fill="none" xmlns="http://www.w3.org/2000/svg">
<path d="M0 20C0 8.9543 8.9543 0 20 0H430C437.732 0 444 6.26801 444 14V188H0V20Z" fill="url(#paint0_linear_3327_960)" fill-opacity="0.1"/>
<rect x="74.25" y="17.25" width="0.5" height="170.5" stroke="#6C6C6C" stroke-width="0.5" stroke-dasharray="2 2"/>
<path d="M72 138.5C72 137.119 73.1193 136 74.5 136C75.8807 136 77 137.119 77 138.5V188H72V138.5Z" fill="url(#paint1_linear_3327_960)"/>
<rect x="102.25" y="17.25" width="0.5" height="170.5" stroke="#6C6C6C" stroke-width="0.5" stroke-dasharray="2 2"/>
<path d="M100 95.5C100 94.1193 101.119 93 102.5 93C103.881 93 105 94.1193 105 95.5V188H100V95.5Z" fill="url(#paint2_linear_3327_960)"/>
<rect x="130.25" y="17.25" width="0.5" height="170.5" stroke="#6C6C6C" stroke-width="0.5" stroke-dasharray="2 2"/>
<path d="M128 117.5C128 116.119 129.119 115 130.5 115C131.881 115 133 116.119 133 117.5V188H128V117.5Z" fill="url(#paint3_linear_3327_960)"/>
<rect x="158.25" y="17.25" width="0.5" height="170.5" stroke="#6C6C6C" stroke-width="0.5" stroke-dasharray="2 2"/>
<path d="M156 148.5C156 147.119 157.119 146 158.5 146C159.881 146 161 147.119 161 148.5V188H156V148.5Z" fill="url(#paint4_linear_3327_960)"/>
<rect x="214.25" y="17.25" width="0.5" height="170.5" stroke="#6C6C6C" stroke-width="0.5" stroke-dasharray="2 2"/>
<path d="M212 117.5C212 116.119 213.119 115 214.5 115C215.881 115 217 116.119 217 117.5V188H212V117.5Z" fill="url(#paint5_linear_3327_960)"/>
<rect x="242.25" y="17.25" width="0.5" height="170.5" stroke="#6C6C6C" stroke-width="0.5" stroke-dasharray="2 2"/>
<path d="M240 148.5C240 147.119 241.119 146 242.5 146C243.881 146 245 147.119 245 148.5V188H240V148.5Z" fill="url(#paint6_linear_3327_960)"/>
<rect x="270.25" y="17.25" width="0.5" height="170.5" stroke="#6C6C6C" stroke-width="0.5" stroke-dasharray="2 2"/>
<path d="M268 130.5C268 129.119 269.119 128 270.5 128C271.881 128 273 129.119 273 130.5V188H268V130.5Z" fill="url(#paint7_linear_3327_960)"/>
<rect x="298.25" y="17.25" width="0.5" height="170.5" stroke="#6C6C6C" stroke-width="0.5" stroke-dasharray="2 2"/>
<path d="M296 95.5C296 94.1193 297.119 93 298.5 93C299.881 93 301 94.1193 301 95.5V188H296V95.5Z" fill="url(#paint8_linear_3327_960)"/>
<rect x="326.25" y="17.25" width="0.5" height="170.5" stroke="#6C6C6C" stroke-width="0.5" stroke-dasharray="2 2"/>
<path d="M324 51.5C324 50.1193 325.119 49 326.5 49C327.881 49 329 50.1193 329 51.5V188H324V51.5Z" fill="url(#paint9_linear_3327_960)"/>
<rect x="354.25" y="17.25" width="0.5" height="170.5" stroke="#6C6C6C" stroke-width="0.5" stroke-dasharray="2 2"/>
<path d="M352 30.5C352 29.1193 353.119 28 354.5 28C355.881 28 357 29.1193 357 30.5V188H352V30.5Z" fill="url(#paint10_linear_3327_960)"/>
<rect x="186.25" y="17.25" width="0.5" height="170.5" stroke="#6C6C6C" stroke-width="0.5" stroke-dasharray="2 2"/>
<path d="M184 166.5C184 165.119 185.119 164 186.5 164C187.881 164 189 165.119 189 166.5V188H184V166.5Z" fill="url(#paint11_linear_3327_960)"/>
<defs>
<linearGradient id="paint0_linear_3327_960" x1="222" y1="0" x2="222" y2="188" gradientUnits="userSpaceOnUse">
<stop stop-color="white"/>
<stop offset="1"/>
</linearGradient>
<linearGradient id="paint1_linear_3327_960" x1="74.5" y1="136" x2="74.5" y2="188" gradientUnits="userSpaceOnUse">
<stop stop-color="#3CC1F5"/>
<stop offset="1" stop-color="#1E8AD5"/>
</linearGradient>
<linearGradient id="paint2_linear_3327_960" x1="102.5" y1="93" x2="102.5" y2="188" gradientUnits="userSpaceOnUse">
<stop stop-color="#3CC1F5"/>
<stop offset="1" stop-color="#1E8AD5"/>
</linearGradient>
<linearGradient id="paint3_linear_3327_960" x1="130.5" y1="115" x2="130.5" y2="188" gradientUnits="userSpaceOnUse">
<stop stop-color="#3CC1F5"/>
<stop offset="1" stop-color="#1E8AD5"/>
</linearGradient>
<linearGradient id="paint4_linear_3327_960" x1="158.5" y1="146" x2="158.5" y2="188" gradientUnits="userSpaceOnUse">
<stop stop-color="#3CC1F5"/>
<stop offset="1" stop-color="#1E8AD5"/>
</linearGradient>
<linearGradient id="paint5_linear_3327_960" x1="214.5" y1="115" x2="214.5" y2="188" gradientUnits="userSpaceOnUse">
<stop stop-color="#3CC1F5"/>
<stop offset="1" stop-color="#1E8AD5"/>
</linearGradient>
<linearGradient id="paint6_linear_3327_960" x1="242.5" y1="146" x2="242.5" y2="188" gradientUnits="userSpaceOnUse">
<stop stop-color="#3CC1F5"/>
<stop offset="1" stop-color="#1E8AD5"/>
</linearGradient>
<linearGradient id="paint7_linear_3327_960" x1="270.5" y1="128" x2="270.5" y2="188" gradientUnits="userSpaceOnUse">
<stop stop-color="#3CC1F5"/>
<stop offset="1" stop-color="#1E8AD5"/>
</linearGradient>
<linearGradient id="paint8_linear_3327_960" x1="298.5" y1="93" x2="298.5" y2="188" gradientUnits="userSpaceOnUse">
<stop stop-color="#3CC1F5"/>
<stop offset="1" stop-color="#1E8AD5"/>
</linearGradient>
<linearGradient id="paint9_linear_3327_960" x1="326.5" y1="49" x2="326.5" y2="188" gradientUnits="userSpaceOnUse">
<stop stop-color="#3CC1F5"/>
<stop offset="1" stop-color="#1E8AD5"/>
</linearGradient>
<linearGradient id="paint10_linear_3327_960" x1="354.5" y1="28" x2="354.5" y2="188" gradientUnits="userSpaceOnUse">
<stop stop-color="#3CC1F5"/>
<stop offset="1" stop-color="#1E8AD5"/>
</linearGradient>
<linearGradient id="paint11_linear_3327_960" x1="186.5" y1="164" x2="186.5" y2="188" gradientUnits="userSpaceOnUse">
<stop stop-color="#3CC1F5"/>
<stop offset="1" stop-color="#1E8AD5"/>
</linearGradient>
</defs>
</svg>
