<svg width="806" height="586" viewBox="0 0 806 586" fill="none" xmlns="http://www.w3.org/2000/svg">
<path d="M369.347 283.206C412.589 283.206 447.643 248.151 447.643 204.91C447.643 161.668 412.589 126.614 369.347 126.614C326.106 126.614 291.052 161.668 291.052 204.91C291.052 248.151 326.106 283.206 369.347 283.206Z" fill="url(#paint0_linear_2554_2073)" fill-opacity="0.2"/>
<path d="M173.346 417.726C190.178 417.726 203.823 404.081 203.823 387.249C203.823 370.417 190.178 356.771 173.346 356.771C156.513 356.771 142.868 370.417 142.868 387.249C142.868 404.081 156.513 417.726 173.346 417.726Z" fill="url(#paint1_linear_2554_2073)" fill-opacity="0.3"/>
<path d="M361.992 104.544C355.898 104.544 350.957 99.6036 350.957 93.5091C350.957 87.4147 355.898 82.4741 361.992 82.4741C368.087 82.4741 373.027 87.4147 373.027 93.5091C373.027 99.6036 368.087 104.544 361.992 104.544Z" fill="url(#paint2_linear_2554_2073)" fill-opacity="0.3"/>
<path d="M579.538 471.325C573.444 471.325 568.503 466.384 568.503 460.29C568.503 454.195 573.444 449.255 579.538 449.255C585.633 449.255 590.573 454.195 590.573 460.29C590.573 466.384 585.633 471.325 579.538 471.325Z" fill="url(#paint3_linear_2554_2073)" fill-opacity="0.3"/>
<path d="M425.574 112.952C423.252 112.952 421.37 111.069 421.37 108.748C421.37 106.426 423.252 104.544 425.574 104.544C427.895 104.544 429.777 106.426 429.777 108.748C429.777 111.069 427.895 112.952 425.574 112.952Z" fill="url(#paint4_linear_2554_2073)" fill-opacity="0.3"/>
<path d="M447.643 469.224C445.321 469.224 443.439 467.341 443.439 465.02C443.439 462.698 445.321 460.816 447.643 460.816C449.965 460.816 451.847 462.698 451.847 465.02C451.847 467.341 449.965 469.224 447.643 469.224Z" fill="url(#paint5_linear_2554_2073)" fill-opacity="0.3"/>
<path d="M116.594 398.81C114.272 398.81 112.39 396.928 112.39 394.606C112.39 392.284 114.272 390.402 116.594 390.402C118.916 390.402 120.798 392.284 120.798 394.606C120.798 396.928 118.916 398.81 116.594 398.81Z" fill="url(#paint6_linear_2554_2073)" fill-opacity="0.3"/>
<path d="M601.607 203.333C595.512 203.333 590.572 198.392 590.572 192.298C590.572 186.203 595.512 181.263 601.607 181.263C607.701 181.263 612.642 186.203 612.642 192.298C612.642 198.392 607.701 203.333 601.607 203.333Z" fill="url(#paint7_linear_2554_2073)" fill-opacity="0.3"/>
<path d="M488.097 194.155C390.349 162.952 465.758 275.224 468.889 305.287C578.165 334.067 697.176 355.98 717.323 276.649C742.508 177.485 626.826 109.097 605.056 123.202C583.286 137.307 580.725 251.431 488.097 194.155Z" stroke="url(#paint8_linear_2554_2073)" stroke-width="2.1019" stroke-linecap="round" stroke-linejoin="round" stroke-dasharray="2.1 10.51"/>
<path d="M271.084 370.434C338.994 370.434 394.045 315.382 394.045 247.473C394.045 179.563 338.994 124.512 271.084 124.512C203.175 124.512 148.123 179.563 148.123 247.473C148.123 315.382 203.175 370.434 271.084 370.434Z" stroke="url(#paint9_linear_2554_2073)" stroke-width="2.1019" stroke-linecap="round" stroke-linejoin="round" stroke-dasharray="2.1 10.51"/>
<path d="M282.339 414.924C280.766 457.489 313.995 493.269 356.56 494.842C399.124 496.416 434.904 463.186 436.478 420.622C438.051 378.057 404.821 342.277 362.257 340.704C319.693 339.13 283.912 372.36 282.339 414.924Z" stroke="url(#paint10_linear_2554_2073)" stroke-width="2.1019" stroke-linecap="round" stroke-linejoin="round" stroke-dasharray="2.1 10.51"/>
<g filter="url(#filter0_d_2554_2073)">
<path d="M555.179 422.778C555.369 422.579 555.536 422.365 555.679 422.139C559.498 417.205 559.981 409.703 554.999 404.262L554.997 404.26L549.769 398.554L626.434 384.228C626.931 384.135 627.394 383.953 627.807 383.699C646.681 378.038 656.964 356.243 647.571 337.569C647.527 337.481 647.479 337.394 647.428 337.309L562.678 168.814L562.677 168.813C556.123 155.792 541.76 148.651 527.405 151.3H527.402L231.461 206.169H231.459C217.962 208.678 207.441 219.323 205.129 232.849L181.101 372.481V372.483C177.501 393.353 194.355 412.105 215.504 410.766H215.505L265.449 407.596L278.101 430.282L278.103 430.286C283.74 440.367 295.089 445.854 306.485 443.998L482.236 431.804L488.642 482.577C488.836 484.121 489.901 485.416 491.378 485.905C492.856 486.394 494.483 485.991 495.561 484.869L555.179 422.778Z" stroke="url(#paint11_linear_2554_2073)" stroke-width="8.07611" stroke-linejoin="round"/>
<path d="M484.271 423.013L492.738 482.196L551.527 420.765L487.973 405.784L484.271 423.013Z" fill="url(#paint12_linear_2554_2073)"/>
<path d="M306.54 439.85L545.79 423.779C553.951 423.225 557.872 413.487 552.363 407.44L527.745 380.47L306.542 439.868L306.54 439.85Z" fill="white"/>
<path d="M264.364 397.757L280.861 427.491C285.675 436.145 295.425 440.846 305.194 439.201L622.206 381.134L441.83 280.664L288.788 321.502L264.364 397.757Z" fill="url(#paint13_linear_2554_2073)"/>
<path d="M209.071 232.947L184.655 373.067C181.444 391.426 196.24 407.97 214.864 406.832L621.325 381.894C641.972 380.625 654.634 358.671 645.378 340.166L560.539 170.589C554.795 159.114 542.165 152.798 529.523 155.102L232.319 209.517C220.429 211.7 211.15 221.051 209.09 232.945L209.071 232.947Z" fill="white"/>
<path d="M415.529 260.725L436.642 258.376L442.088 307.329C442.832 314.017 442.096 319.941 439.896 325.078C437.696 330.215 434.176 334.365 429.317 337.51C424.479 340.671 418.429 342.646 411.208 343.45C403.986 344.253 397.908 343.627 392.53 341.603C387.151 339.578 382.826 336.32 379.606 331.786C376.367 327.253 374.386 321.651 373.64 314.944L368.193 265.992L389.307 263.643L394.753 312.595C395.049 315.26 395.836 317.479 397.114 319.271C398.393 321.064 400.059 322.329 402.099 323.107C404.157 323.883 406.546 324.119 409.284 323.814C412.022 323.51 414.319 322.752 416.193 321.539C418.067 320.326 419.396 318.727 420.212 316.701C421.031 314.694 421.29 312.34 420.993 309.676L415.547 260.723L415.529 260.725ZM458.077 336.84L479.191 334.491L470.306 254.631L449.192 256.98L458.077 336.84ZM544.91 246.331L480.908 253.451L483.131 273.426L519.533 269.376L487.242 313.392L489.465 333.367L553.467 326.246L551.244 306.272L514.842 310.322L547.133 266.305L544.91 246.331ZM263.755 304.939L261.635 285.884L266.67 285.323L264.362 264.577L266.806 264.306L269.114 285.052L274.149 284.491L275.899 300.221L284.102 297.039L281.506 273.702L286.54 273.142L285.33 262.263L287.774 261.991L288.984 272.87L294.019 272.309L296.608 295.573L305.273 297.213L304.169 287.29L309.204 286.73L306.225 259.957L308.669 259.685L311.648 286.458L316.683 285.898L317.678 294.847L325.626 290.707L323.218 269.061L328.253 268.501L327.043 257.622L329.487 257.351L330.697 268.229L335.732 267.669L337.602 284.482L358.247 273.74C356.437 269.346 354.142 265.267 351.342 261.504C345.067 253.087 337.042 246.836 327.251 242.773C317.46 238.709 306.534 237.32 294.462 238.663C285.458 239.665 277.387 242.033 270.249 245.766C263.112 249.499 257.088 254.374 252.211 260.367C247.315 266.362 243.772 273.137 241.564 280.713C239.356 288.288 238.74 296.467 239.718 305.251C240.043 308.172 240.525 311.002 241.181 313.72L263.81 304.933L263.755 304.939ZM354.855 329.703L366.977 358.9L335.96 348.64C327.953 353.587 318.641 356.669 308.038 357.849C295.965 359.192 285.005 357.826 275.157 353.75C265.309 349.674 257.251 343.464 251 335.1C247.529 330.482 244.837 325.349 242.895 319.761L291.381 300.935L311.942 304.824L360.292 279.744C361.397 283.491 362.19 287.439 362.654 291.61C363.935 303.132 362.465 313.657 358.242 323.187C357.229 325.457 356.095 327.63 354.839 329.723L354.855 329.703ZM277.273 312.737L265.141 317.565L266.065 325.871L271.1 325.311L272.697 339.662L275.141 339.39L273.544 325.039L278.579 324.478L277.273 312.737ZM297.967 307.96L292.058 306.85L285.486 309.479L285.911 313.301L290.946 312.741L293.682 337.327L296.126 337.055L293.39 312.469L298.425 311.909L297.987 307.976L297.967 307.96ZM319.054 307.381L312.56 310.708L306.651 309.598L308.573 326.871L313.608 326.311L314.566 334.929L317.01 334.657L316.051 326.039L321.086 325.479L319.075 307.397L319.054 307.381ZM338.999 297.2L327.01 303.315L328.016 312.356L333.051 311.795L335.365 332.596L337.809 332.325L335.495 311.524L340.53 310.963L338.999 297.2ZM362.765 241.11L368.774 240.441L370.56 256.501L376.165 255.878L374.378 239.818L380.35 239.153L379.778 234.008L362.211 235.963L362.783 241.108L362.765 241.11ZM406.214 244.721L411.74 251.92L405.308 252.635L400.738 246.335L398.772 246.554L399.52 253.279L393.916 253.903L391.556 232.698L396.371 232.162L400.336 231.684C401.932 231.487 403.38 231.624 404.681 232.112C405.981 232.6 407.051 233.355 407.87 234.361C408.689 235.368 409.179 236.597 409.337 238.012C409.494 239.427 409.284 240.715 408.708 241.895C408.147 243.037 407.32 243.966 406.212 244.703L406.214 244.721ZM398.218 241.407L401.103 241.086C401.599 241.031 402.048 240.888 402.413 240.661C402.779 240.434 403.044 240.144 403.23 239.807C403.414 239.452 403.485 239.091 403.44 238.686C403.373 238.08 403.079 237.61 402.556 237.259C402.035 236.927 401.388 236.794 400.635 236.878L397.75 237.199L398.218 241.407ZM433.967 227.979L444.448 248.281L438.513 248.941L436.885 245.681L428.965 246.562L428.094 250.1L422.159 250.761L427.921 228.652L433.949 227.981L433.967 227.979ZM434.536 240.956L431.732 235.315L430.237 241.435L434.536 240.956ZM471.58 228.966C472.767 230.434 473.467 232.216 473.698 234.293C473.929 236.369 473.636 238.243 472.801 239.936C471.968 241.647 470.71 243.052 469.028 244.151C467.346 245.25 465.339 245.938 463.005 246.198L455.912 246.987L453.553 225.781L460.646 224.992C462.961 224.735 465.071 224.965 466.972 225.665C468.854 226.367 470.39 227.461 471.578 228.948L471.58 228.966ZM467.965 234.931C467.877 234.14 467.651 233.44 467.267 232.832C466.901 232.221 466.399 231.719 465.813 231.301C465.21 230.903 464.526 230.607 463.744 230.433C462.962 230.26 462.139 230.221 461.239 230.321L459.751 230.487L460.93 241.089L462.419 240.924C463.301 240.826 464.113 240.605 464.838 240.264C465.563 239.923 466.165 239.484 466.665 238.963C467.165 238.442 467.525 237.826 467.747 237.15C467.97 236.474 468.055 235.739 467.967 234.949L467.965 234.931ZM491.633 234.809L498.598 234.034L498.041 229.036L491.077 229.811L490.75 226.87L499.35 225.914L498.777 220.769L484.573 222.349L486.932 243.554L501.357 241.949L500.785 236.804L491.964 237.786L491.633 234.809ZM520.969 232.959L519.003 233.177L519.751 239.903L514.146 240.526L511.787 219.321L516.602 218.786L520.567 218.307C522.163 218.111 523.611 218.248 524.911 218.735C526.212 219.223 527.282 219.978 528.101 220.985C528.92 221.991 529.41 223.22 529.568 224.635C529.725 226.05 529.515 227.339 528.939 228.519C528.378 229.66 527.551 230.589 526.443 231.327L531.969 238.525L525.537 239.241L520.967 232.94L520.969 232.959ZM518.43 228.032L521.315 227.711C521.811 227.656 522.26 227.513 522.626 227.286C522.991 227.06 523.257 226.77 523.443 226.433C523.626 226.078 523.698 225.716 523.653 225.312C523.585 224.706 523.291 224.236 522.768 223.885C522.248 223.552 521.6 223.42 520.847 223.503L517.962 223.824L518.43 228.032Z" fill="url(#paint14_linear_2554_2073)"/>
</g>
<defs>
<filter id="filter0_d_2554_2073" x="154.055" y="138.818" width="523.612" height="388.475" filterUnits="userSpaceOnUse" color-interpolation-filters="sRGB">
<feFlood flood-opacity="0" result="BackgroundImageFix"/>
<feColorMatrix in="SourceAlpha" type="matrix" values="0 0 0 0 0 0 0 0 0 0 0 0 0 0 0 0 0 0 127 0" result="hardAlpha"/>
<feOffset dy="14.6243"/>
<feGaussianBlur stdDeviation="11.2603"/>
<feComposite in2="hardAlpha" operator="out"/>
<feColorMatrix type="matrix" values="0 0 0 0 0 0 0 0 0 0 0 0 0 0 0 0 0 0 0.15 0"/>
<feBlend mode="normal" in2="BackgroundImageFix" result="effect1_dropShadow_2554_2073"/>
<feBlend mode="normal" in="SourceGraphic" in2="effect1_dropShadow_2554_2073" result="shape"/>
</filter>
<linearGradient id="paint0_linear_2554_2073" x1="318.107" y1="265.988" x2="397.519" y2="103.054" gradientUnits="userSpaceOnUse">
<stop stop-color="#024A9F"/>
<stop offset="1" stop-color="#3B53A7"/>
</linearGradient>
<linearGradient id="paint1_linear_2554_2073" x1="153.4" y1="411.025" x2="184.312" y2="347.601" gradientUnits="userSpaceOnUse">
<stop stop-color="#014DA4"/>
<stop offset="1" stop-color="#3B53A7"/>
</linearGradient>
<linearGradient id="paint2_linear_2554_2073" x1="369.214" y1="102.118" x2="358.022" y2="79.1537" gradientUnits="userSpaceOnUse">
<stop stop-color="#68CDED"/>
<stop offset="1" stop-color="#3B53A7"/>
</linearGradient>
<linearGradient id="paint3_linear_2554_2073" x1="586.76" y1="468.898" x2="575.568" y2="445.934" gradientUnits="userSpaceOnUse">
<stop stop-color="#68CDED"/>
<stop offset="1" stop-color="#3B53A7"/>
</linearGradient>
<linearGradient id="paint4_linear_2554_2073" x1="428.325" y1="112.027" x2="424.061" y2="103.279" gradientUnits="userSpaceOnUse">
<stop stop-color="#68CDED"/>
<stop offset="1" stop-color="#3B53A7"/>
</linearGradient>
<linearGradient id="paint5_linear_2554_2073" x1="450.394" y1="468.299" x2="446.13" y2="459.551" gradientUnits="userSpaceOnUse">
<stop stop-color="#68CDED"/>
<stop offset="1" stop-color="#3B53A7"/>
</linearGradient>
<linearGradient id="paint6_linear_2554_2073" x1="119.345" y1="397.885" x2="115.081" y2="389.137" gradientUnits="userSpaceOnUse">
<stop stop-color="#68CDED"/>
<stop offset="1" stop-color="#3B53A7"/>
</linearGradient>
<linearGradient id="paint7_linear_2554_2073" x1="608.828" y1="200.906" x2="597.636" y2="177.942" gradientUnits="userSpaceOnUse">
<stop stop-color="#68CDED"/>
<stop offset="1" stop-color="#3B53A7"/>
</linearGradient>
<linearGradient id="paint8_linear_2554_2073" x1="542.015" y1="159.578" x2="542.015" y2="324.118" gradientUnits="userSpaceOnUse">
<stop stop-color="#022854"/>
<stop offset="1" stop-color="#3B53A7"/>
</linearGradient>
<linearGradient id="paint9_linear_2554_2073" x1="271.084" y1="124.512" x2="271.084" y2="370.435" gradientUnits="userSpaceOnUse">
<stop stop-color="#68CDED"/>
<stop offset="1" stop-color="#3B53A7"/>
</linearGradient>
<linearGradient id="paint10_linear_2554_2073" x1="436.478" y1="420.622" x2="282.339" y2="414.924" gradientUnits="userSpaceOnUse">
<stop stop-color="#68CDED"/>
<stop offset="1" stop-color="#3B53A7"/>
</linearGradient>
<linearGradient id="paint11_linear_2554_2073" x1="393.747" y1="170.457" x2="441.224" y2="695.615" gradientUnits="userSpaceOnUse">
<stop stop-color="#101F30"/>
<stop offset="1" stop-color="#3B53A7"/>
</linearGradient>
<linearGradient id="paint12_linear_2554_2073" x1="491.783" y1="486.039" x2="517.006" y2="427.186" gradientUnits="userSpaceOnUse">
<stop stop-color="#002A5B"/>
<stop offset="1" stop-color="#091423"/>
</linearGradient>
<linearGradient id="paint13_linear_2554_2073" x1="271.609" y1="426.135" x2="559.044" y2="379.893" gradientUnits="userSpaceOnUse">
<stop stop-color="#0A1320"/>
<stop offset="1" stop-color="#002C5F"/>
</linearGradient>
<linearGradient id="paint14_linear_2554_2073" x1="191.137" y1="298.057" x2="608" y2="274.5" gradientUnits="userSpaceOnUse">
<stop stop-color="#052146"/>
<stop offset="1" stop-color="#0059BE"/>
</linearGradient>
</defs>
</svg>
