<svg width="186" height="76" viewBox="0 0 186 76" fill="none" xmlns="http://www.w3.org/2000/svg">
<path d="M1.4314 14V3.7457H7.65646V4.89691H2.71052V8.4216H7.2514V9.5586H2.71052V14H1.4314ZM11.707 14.1421C9.65331 14.1421 8.28181 12.6569 8.28181 10.3048V10.2905C8.28181 7.93838 9.66042 6.46739 11.6999 6.46739C13.7394 6.46739 15.1251 7.93127 15.1251 10.2905V10.3048C15.1251 12.664 13.7465 14.1421 11.707 14.1421ZM11.7141 13.0478C13.0146 13.0478 13.8602 12.0387 13.8602 10.3048V10.2905C13.8602 8.55662 13.0075 7.56175 11.6999 7.56175C10.4137 7.56175 9.54672 8.56373 9.54672 10.2905V10.3048C9.54672 12.0458 10.4066 13.0478 11.7141 13.0478ZM16.3758 14V6.60951H17.6123V7.86021H17.6407C17.8894 7.00746 18.529 6.46739 19.3604 6.46739C19.5736 6.46739 19.7584 6.50292 19.8579 6.51713V7.71809C19.7584 7.68256 19.4954 7.64703 19.197 7.64703C18.2376 7.64703 17.6123 8.31501 17.6123 9.4378V14H16.3758ZM20.867 14V6.60951H22.1034V7.68966H22.1319C22.4659 6.95772 23.2049 6.46739 24.1571 6.46739C25.1662 6.46739 25.9124 6.98615 26.2322 7.88864H26.2606C26.6727 7.00036 27.5397 6.46739 28.5772 6.46739C30.0411 6.46739 30.9862 7.42673 30.9862 8.89772V14H29.7497V9.18197C29.7497 8.16578 29.1884 7.56175 28.2148 7.56175C27.2341 7.56175 26.5448 8.29369 26.5448 9.30278V14H25.3083V9.04695C25.3083 8.15157 24.7114 7.56175 23.7947 7.56175C22.8141 7.56175 22.1034 8.33633 22.1034 9.36673V14H20.867ZM35.6053 14.1421C33.4805 14.1421 32.2014 12.6569 32.2014 10.3332V10.3261C32.2014 8.03787 33.5089 6.46739 35.5271 6.46739C37.5453 6.46739 38.7747 7.96681 38.7747 10.184V10.6388H33.4521C33.4805 12.1595 34.3191 13.0478 35.6337 13.0478C36.5717 13.0478 37.2326 12.5788 37.4458 11.9463L37.4671 11.8823H38.6823L38.6681 11.9534C38.4265 13.1757 37.2184 14.1421 35.6053 14.1421ZM35.52 7.56175C34.447 7.56175 33.6084 8.29369 33.4734 9.6723H37.5169C37.3961 8.23684 36.6002 7.56175 35.52 7.56175ZM40.0254 14V6.60951H41.2618V7.86021H41.2903C41.539 7.00746 42.1786 6.46739 43.01 6.46739C43.2232 6.46739 43.4079 6.50292 43.5074 6.51713V7.71809C43.4079 7.68256 43.145 7.64703 42.8465 7.64703C41.8872 7.64703 41.2618 8.31501 41.2618 9.4378V14H40.0254ZM44.5805 14V3.7457H45.8169V14H44.5805ZM48.1975 16.4872C47.9559 16.4872 47.693 16.4588 47.5367 16.4303V15.4212C47.6432 15.4426 47.7854 15.4639 47.9346 15.4639C48.7163 15.4639 49.1498 15.2649 49.4482 14.4264L49.5975 14.0071L46.8545 6.60951H48.1762L50.2157 12.7635H50.2441L52.2907 6.60951H53.5912L50.706 14.4619C50.1802 15.876 49.5335 16.4872 48.1975 16.4872ZM60.335 14V4.89691H57.1016V3.7457H64.8474V4.89691H61.6141V14H60.335ZM67.1499 14.1421C65.0962 14.1421 63.7247 12.6569 63.7247 10.3048V10.2905C63.7247 7.93838 65.1033 6.46739 67.1428 6.46739C69.1822 6.46739 70.568 7.93127 70.568 10.2905V10.3048C70.568 12.664 69.1894 14.1421 67.1499 14.1421ZM67.157 13.0478C68.4574 13.0478 69.3031 12.0387 69.3031 10.3048V10.2905C69.3031 8.55662 68.4503 7.56175 67.1428 7.56175C65.8565 7.56175 64.9896 8.56373 64.9896 10.2905V10.3048C64.9896 12.0458 65.8494 13.0478 67.157 13.0478ZM71.8187 16.4872V6.60951H73.0551V7.86021H73.0836C73.5455 7.00036 74.3698 6.46739 75.4286 6.46739C77.3189 6.46739 78.5696 7.97391 78.5696 10.3048V10.3119C78.5696 12.6427 77.3047 14.1421 75.4499 14.1421C74.4053 14.1421 73.5455 13.6163 73.0836 12.7635H73.0551V16.4872H71.8187ZM75.187 13.0478C76.4946 13.0478 77.3047 11.996 77.3047 10.3119V10.3048C77.3047 8.60637 76.4946 7.56175 75.187 7.56175C73.9363 7.56175 73.048 8.649 73.048 10.3048V10.3119C73.048 11.9605 73.9434 13.0478 75.187 13.0478ZM80.8294 14V4.89691H77.596V3.7457H85.3418V4.89691H82.1085V14H80.8294ZM86.8412 5.35882C86.4149 5.35882 86.0667 5.01061 86.0667 4.58424C86.0667 4.15076 86.4149 3.80966 86.8412 3.80966C87.2747 3.80966 87.6158 4.15076 87.6158 4.58424C87.6158 5.01061 87.2747 5.35882 86.8412 5.35882ZM86.223 14V6.60951H87.4595V14H86.223ZM92.1851 14.1421C90.0604 14.1421 88.7812 12.6569 88.7812 10.3332V10.3261C88.7812 8.03787 90.0888 6.46739 92.107 6.46739C94.1251 6.46739 95.3545 7.96681 95.3545 10.184V10.6388H90.0319C90.0604 12.1595 90.8989 13.0478 92.2136 13.0478C93.1516 13.0478 93.8125 12.5788 94.0256 11.9463L94.047 11.8823H95.2621L95.2479 11.9534C95.0063 13.1757 93.7982 14.1421 92.1851 14.1421ZM92.0999 7.56175C91.0268 7.56175 90.1883 8.29369 90.0533 9.6723H94.0967C93.9759 8.23684 93.18 7.56175 92.0999 7.56175ZM96.6052 14V6.60951H97.8417V7.86021H97.8701C98.1188 7.00746 98.7584 6.46739 99.5898 6.46739C99.803 6.46739 99.9878 6.50292 100.087 6.51713V7.71809C99.9878 7.68256 99.7249 7.64703 99.4264 7.64703C98.467 7.64703 97.8417 8.31501 97.8417 9.4378V14H96.6052ZM106.867 14V4.89691H103.633V3.7457H111.379V4.89691H108.146V14H106.867ZM110.903 14V6.60951H112.139V7.86021H112.168C112.417 7.00746 113.056 6.46739 113.888 6.46739C114.101 6.46739 114.286 6.50292 114.385 6.51713V7.71809C114.286 7.68256 114.023 7.64703 113.724 7.64703C112.765 7.64703 112.139 8.31501 112.139 9.4378V14H110.903ZM117.412 14.1421C115.941 14.1421 114.954 13.2538 114.954 11.9108V11.8966C114.954 10.6388 115.934 9.84996 117.633 9.75047L119.75 9.62967V9.01142C119.75 8.10893 119.16 7.56175 118.13 7.56175C117.178 7.56175 116.581 8.01655 116.439 8.67743L116.425 8.74139H115.231L115.238 8.66322C115.344 7.44805 116.403 6.46739 118.144 6.46739C119.892 6.46739 120.987 7.41252 120.987 8.89062V14H119.75V12.799H119.722C119.288 13.6092 118.4 14.1421 117.412 14.1421ZM116.218 11.9108C116.218 12.6214 116.801 13.0691 117.689 13.0691C118.855 13.0691 119.75 12.2661 119.75 11.193V10.589L117.775 10.7098C116.787 10.7667 116.218 11.2072 116.218 11.8966V11.9108ZM125.336 14.1421C123.445 14.1421 122.195 12.6356 122.195 10.3048V10.2977C122.195 7.96681 123.46 6.46739 125.314 6.46739C126.359 6.46739 127.219 6.99325 127.681 7.846H127.709V3.7457H128.946V14H127.709V12.7493H127.681C127.219 13.6092 126.395 14.1421 125.336 14.1421ZM125.577 13.0478C126.828 13.0478 127.716 11.9605 127.716 10.3048V10.2977C127.716 8.649 126.821 7.56175 125.577 7.56175C124.27 7.56175 123.46 8.61347 123.46 10.2977V10.3048C123.46 12.0031 124.27 13.0478 125.577 13.0478ZM133.657 14.1421C131.532 14.1421 130.253 12.6569 130.253 10.3332V10.3261C130.253 8.03787 131.561 6.46739 133.579 6.46739C135.597 6.46739 136.827 7.96681 136.827 10.184V10.6388H131.504C131.532 12.1595 132.371 13.0478 133.686 13.0478C134.624 13.0478 135.284 12.5788 135.498 11.9463L135.519 11.8823H136.734L136.72 11.9534C136.478 13.1757 135.27 14.1421 133.657 14.1421ZM133.572 7.56175C132.499 7.56175 131.66 8.29369 131.525 9.6723H135.569C135.448 8.23684 134.652 7.56175 133.572 7.56175ZM138.077 14V6.60951H139.314V7.86021H139.342C139.591 7.00746 140.23 6.46739 141.062 6.46739C141.275 6.46739 141.46 6.50292 141.559 6.51713V7.71809C141.46 7.68256 141.197 7.64703 140.898 7.64703C139.939 7.64703 139.314 8.31501 139.314 9.4378V14H138.077Z" fill="#919FBA"/>
<path d="M41.8186 23.8425H35.4642L25.89 34.5411L23.1347 29.2567H0.78762L0 34.0028H5.57207L3.06504 48.8057H8.26867L10.7757 34.0028H19.8106L22.4298 38.5262L10.0014 52.5893H16.4145L24.6779 43.0044L28.2288 49.7178H34.3589L28.1674 38.8735L41.8186 23.8425Z" fill="white"/>
<path d="M74.0096 34.0028L74.7972 29.2567H61.3249L58.0356 48.8057H63.2365L64.4513 41.5991H70.9152L71.7295 36.8531H65.2496L65.7302 34.0028H74.0096Z" fill="white"/>
<path d="M88.5764 29.2567L86.5793 41.2385C86.4859 41.8537 86.2509 42.3946 85.8771 42.8586C85.5007 43.3252 85.0227 43.6858 84.4434 43.9483C83.8613 44.2081 83.2072 44.3381 82.4757 44.3381C81.8749 44.3381 81.3783 44.2214 80.9859 43.9881C80.5934 43.7547 80.3211 43.4074 80.1715 42.9408C80.022 42.4768 80.0033 41.9067 80.1155 41.2359L82.1126 29.2541H76.9089L74.9118 41.2359C74.6502 42.8559 74.7677 44.2559 75.2643 45.4384C75.7609 46.6209 76.6046 47.533 77.7953 48.1747C78.9861 48.8163 80.4813 49.1371 82.2808 49.1371C84.0803 49.1371 85.5567 48.8296 86.8783 48.2144C88.1999 47.5993 89.2786 46.7031 90.1116 45.5206C90.9446 44.3381 91.5026 42.9089 91.7856 41.2332L93.7827 29.2514H88.579L88.5764 29.2567Z" fill="white"/>
<path d="M108.206 40.109L102.383 29.2567H96.8719L93.5799 48.8057H98.7835L100.695 37.5265L106.742 48.8057H111.946L115.235 29.2567H110.032L108.206 40.109Z" fill="white"/>
<path d="M130.561 30.5533C129.063 29.7101 127.271 29.2806 125.189 29.2594V29.2541H118.607L115.318 48.8031H121.899C123.531 48.8031 125.063 48.5697 126.497 48.1057C127.931 47.6417 129.207 46.9895 130.323 46.1516C131.439 45.3138 132.363 44.3169 133.094 43.1635C133.826 42.0101 134.304 40.7348 134.528 39.3375C134.864 37.3648 134.672 35.6228 133.951 34.1141C133.23 32.6055 132.098 31.4203 130.563 30.5533H130.561ZM129.295 38.7223C129.164 39.4859 128.897 40.1833 128.494 40.817C128.091 41.4507 127.584 41.9995 126.975 42.4635C126.366 42.9302 125.68 43.2881 124.922 43.54C124.164 43.7919 123.371 43.9165 122.546 43.9165H121.344L122.989 34.1407H124.374C125.517 34.1407 126.484 34.3369 127.271 34.7266C128.059 35.1164 128.63 35.652 128.988 36.3334C129.343 37.0122 129.447 37.8102 129.298 38.7223H129.295Z" fill="white"/>
<path d="M135.313 48.8057H140.517L143.809 29.2567H138.605L135.313 48.8057Z" fill="white"/>
<path d="M158.517 40.109L152.694 29.2567H147.181L143.892 48.8057H149.095L151.004 37.5265L157.051 48.8057H162.255L165.547 29.2567H160.343L158.517 40.109Z" fill="white"/>
<path d="M176.486 37.858L175.81 41.7688H180.077C179.946 42.1984 179.778 42.5775 179.564 42.901C179.236 43.3942 178.8 43.768 178.256 44.0172C177.711 44.2691 177.036 44.3937 176.232 44.3937C175.428 44.3937 174.713 44.232 174.096 43.9059C173.477 43.5798 172.972 43.1476 172.577 42.6067C172.184 42.0658 171.912 41.4851 171.763 40.862C171.613 40.239 171.584 39.6291 171.677 39.0326C171.883 37.7678 172.262 36.7417 172.817 35.9595C173.37 35.1774 174.032 34.602 174.801 34.2282C175.57 33.857 176.365 33.6687 177.19 33.6687C177.623 33.6687 178.08 33.7482 178.568 33.9047C179.057 34.0638 179.505 34.2865 179.919 34.5755C180.33 34.8645 180.64 35.2145 180.848 35.6228L185.657 33.3611C185.264 32.5233 184.733 31.7703 184.068 31.0995C183.403 30.4287 182.573 29.8984 181.58 29.5086C180.587 29.1189 179.396 28.9226 178.007 28.9226C176.301 28.9226 174.777 29.156 173.437 29.62C172.096 30.0866 170.948 30.7468 169.992 31.6032C169.037 32.4597 168.257 33.4884 167.659 34.6895C167.058 35.8906 166.628 37.2349 166.367 38.725C166.142 39.9924 166.212 41.2438 166.578 42.4821C166.943 43.7203 167.547 44.8418 168.39 45.8467C169.234 46.8516 170.278 47.6523 171.525 48.2489C172.772 48.8455 174.173 49.1425 175.73 49.1425C177.772 49.1425 179.441 48.8402 180.736 48.2357C182.028 47.6311 183.046 46.6952 183.788 45.4278C184.527 44.1631 185.059 42.543 185.376 40.5677L185.828 37.858H176.486Z" fill="white"/>
<path d="M53.0854 29.1984H40.0323L36.3959 33.2021L36.0088 33.6475H44.9236L39.3301 37.7174L39.4449 40.5439H41.3566C43.4311 40.5439 44.5551 41.151 44.467 42.3521C44.2508 45.3297 37.8403 44.8047 33.0559 43.3862L35.9153 48.4955C43.2415 49.7417 49.983 49.0391 49.9456 42.1745C49.927 38.847 47.1503 37.6962 45.8927 37.3569L51.9988 33.1331L53.0828 29.1931L53.0854 29.1984Z" fill="white"/>
<path d="M47.6416 69.616L49.2032 60.2733H55.1825L54.9022 61.9416H50.7514L50.3777 64.1838H53.8345L53.5542 65.8522H50.0974L49.4701 69.616H47.6416ZM71.7422 69.7761C71.0215 69.7761 70.3675 69.656 69.7803 69.4158C69.2019 69.1666 68.717 68.8152 68.3255 68.3614C67.934 67.8987 67.6581 67.3604 67.498 66.7464C67.3378 66.1236 67.32 65.434 67.4446 64.6777C67.5959 63.7701 67.9162 62.9737 68.4056 62.2886C68.9038 61.6035 69.5178 61.0696 70.2474 60.687C70.9859 60.3044 71.7912 60.1131 72.6632 60.1131C73.3839 60.1131 74.0334 60.2377 74.6118 60.4868C75.199 60.7359 75.6884 61.0874 76.0799 61.5412C76.4714 61.995 76.7428 62.5378 76.8941 63.1695C77.0542 63.7923 77.072 64.4775 76.9475 65.2249C76.7962 66.1236 76.4759 66.9155 75.9865 67.6006C75.4971 68.2857 74.8832 68.8196 74.1447 69.2022C73.415 69.5848 72.6142 69.7761 71.7422 69.7761ZM71.8223 68.1078C72.3651 68.1078 72.8634 67.9788 73.3172 67.7207C73.7798 67.4627 74.1669 67.1068 74.4783 66.653C74.7897 66.1903 74.9988 65.6564 75.1056 65.0514C75.2124 64.4196 75.1724 63.8591 74.9855 63.3697C74.8075 62.8714 74.5095 62.4844 74.0913 62.2085C73.682 61.9327 73.1837 61.7948 72.5964 61.7948C72.0537 61.7948 71.5465 61.9238 71.0749 62.1818C70.6122 62.4399 70.2207 62.8002 69.9004 63.2629C69.589 63.7167 69.3843 64.2461 69.2864 64.8512C69.1797 65.4829 69.2197 66.0435 69.4066 66.5329C69.5934 67.0223 69.8959 67.4093 70.3141 67.694C70.7323 67.9699 71.2351 68.1078 71.8223 68.1078ZM89.8412 69.616L91.4028 60.2733H94.8196C95.478 60.2733 96.043 60.4067 96.5146 60.6737C96.9862 60.9406 97.3288 61.3099 97.5423 61.7814C97.7648 62.2441 97.8226 62.7824 97.7158 63.3964C97.6268 63.9659 97.3999 64.473 97.0351 64.9179C96.6792 65.3539 96.2254 65.6965 95.6738 65.9456C95.1221 66.1859 94.517 66.306 93.8586 66.306H92.217L91.6697 69.616H89.8412ZM94.9931 69.616L93.4582 65.8655L94.9664 64.8645L97.0218 69.616H94.9931ZM92.4972 64.6376H94.0989C94.4103 64.6376 94.6906 64.5798 94.9397 64.4641C95.1977 64.3396 95.4068 64.1705 95.567 63.957C95.7361 63.7345 95.8339 63.472 95.8606 63.1695C95.8962 62.7958 95.7983 62.4977 95.567 62.2753C95.3445 62.0528 95.0153 61.9416 94.5793 61.9416H92.951L92.4972 64.6376ZM110.589 69.616L112.151 60.2733H118.063L117.783 61.9416H113.699L113.339 64.0637H116.862L116.595 65.692H113.072L112.685 67.9476H116.835L116.555 69.616H110.589ZM129.687 69.616L134.144 64.5042L137.815 60.2733H140.03L135.706 65.1315L131.942 69.616H129.687ZM136.333 69.616L134.118 65.1315L131.368 60.2733H133.504L135.719 64.4908L138.482 69.616H136.333Z" fill="white"/>
</svg>
