<svg width="186" height="52" viewBox="0 0 186 52" fill="none" xmlns="http://www.w3.org/2000/svg">
<path d="M41.8186 0H35.4642L25.89 10.6985L23.1347 5.41422H0.78762L0 10.1603H5.57207L3.06504 24.9632H8.26867L10.7757 10.1603H19.8106L22.4298 14.6836L10.0014 28.7468H16.4145L24.6779 19.1619L28.2288 25.8753H34.3589L28.1674 15.031L41.8186 0Z" fill="white"/>
<path d="M74.0096 10.1603L74.7972 5.4142H61.3249L58.0356 24.9632H63.2365L64.4513 17.7566H70.9152L71.7295 13.0105H65.2496L65.7302 10.1603H74.0096Z" fill="white"/>
<path d="M88.5764 5.4142L86.5793 17.396C86.4859 18.0111 86.2509 18.552 85.8771 19.016C85.5007 19.4827 85.0227 19.8433 84.4434 20.1058C83.8613 20.3656 83.2072 20.4955 82.4757 20.4955C81.8749 20.4955 81.3783 20.3789 80.9859 20.1455C80.5934 19.9122 80.3211 19.5649 80.1715 19.0982C80.022 18.6342 80.0033 18.0642 80.1155 17.3934L82.1126 5.41154H76.9089L74.9118 17.3934C74.6502 19.0134 74.7677 20.4133 75.2643 21.5959C75.7609 22.7784 76.6046 23.6905 77.7953 24.3321C78.9861 24.9738 80.4813 25.2946 82.2808 25.2946C84.0803 25.2946 85.5567 24.9871 86.8783 24.3719C88.1999 23.7568 89.2786 22.8606 90.1116 21.6781C90.9446 20.4955 91.5026 19.0664 91.7856 17.3907L93.7827 5.40889H88.579L88.5764 5.4142Z" fill="white"/>
<path d="M108.206 16.2665L102.383 5.4142H96.8719L93.5799 24.9632H98.7835L100.695 13.684L106.742 24.9632H111.946L115.235 5.4142H110.032L108.206 16.2665Z" fill="white"/>
<path d="M130.561 6.71075C129.063 5.86759 127.271 5.43806 125.189 5.41685V5.41155H118.607L115.318 24.9605H121.899C123.531 24.9605 125.063 24.7272 126.497 24.2632C127.931 23.7992 129.207 23.147 130.323 22.3091C131.439 21.4713 132.363 20.4743 133.094 19.321C133.826 18.1676 134.304 16.8922 134.528 15.4949C134.864 13.5223 134.672 11.7803 133.951 10.2716C133.23 8.76295 132.098 7.57776 130.563 6.71075H130.561ZM129.295 14.8798C129.164 15.6434 128.897 16.3407 128.494 16.9744C128.091 17.6081 127.584 18.157 126.975 18.621C126.366 19.0876 125.68 19.4456 124.922 19.6975C124.164 19.9493 123.371 20.074 122.546 20.074H121.344L122.989 10.2981H124.374C125.517 10.2981 126.484 10.4943 127.271 10.8841C128.059 11.2739 128.63 11.8094 128.988 12.4909C129.343 13.1696 129.447 13.9677 129.298 14.8798H129.295Z" fill="white"/>
<path d="M135.313 24.9632H140.517L143.809 5.4142H138.605L135.313 24.9632Z" fill="white"/>
<path d="M158.517 16.2665L152.694 5.4142H147.181L143.892 24.9632H149.095L151.004 13.684L157.051 24.9632H162.255L165.547 5.4142H160.343L158.517 16.2665Z" fill="white"/>
<path d="M176.486 14.0154L175.81 17.9263H180.077C179.946 18.3558 179.778 18.735 179.564 19.0585C179.236 19.5516 178.8 19.9255 178.256 20.1747C177.711 20.4266 177.036 20.5512 176.232 20.5512C175.428 20.5512 174.713 20.3895 174.096 20.0633C173.477 19.7372 172.972 19.305 172.577 18.7641C172.184 18.2233 171.912 17.6426 171.763 17.0195C171.613 16.3964 171.584 15.7866 171.677 15.19C171.883 13.9253 172.262 12.8992 172.817 12.117C173.37 11.3348 174.032 10.7595 174.801 10.3856C175.57 10.0144 176.365 9.82618 177.19 9.82618C177.623 9.82618 178.08 9.90572 178.568 10.0622C179.057 10.2212 179.505 10.444 179.919 10.733C180.33 11.022 180.64 11.372 180.848 11.7803L185.657 9.51861C185.264 8.68076 184.733 7.92775 184.068 7.25694C183.403 6.58613 182.573 6.05584 181.58 5.66608C180.587 5.27632 179.396 5.08012 178.007 5.08012C176.301 5.08012 174.777 5.31344 173.437 5.77744C172.096 6.2441 170.948 6.9043 169.992 7.76071C169.037 8.61713 168.257 9.64588 167.659 10.847C167.058 12.0481 166.628 13.3924 166.367 14.8825C166.142 16.1498 166.212 17.4013 166.578 18.6395C166.943 19.8777 167.547 20.9993 168.39 22.0042C169.234 23.0091 170.278 23.8098 171.525 24.4064C172.772 25.003 174.173 25.2999 175.73 25.2999C177.772 25.2999 179.441 24.9977 180.736 24.3931C182.028 23.7886 183.046 22.8527 183.788 21.5853C184.527 20.3205 185.059 18.7005 185.376 16.7252L185.828 14.0154H176.486Z" fill="white"/>
<path d="M53.0854 5.35587H40.0323L36.3959 9.35953L36.0088 9.80497H44.9236L39.3301 13.8749L39.4449 16.7013H41.3566C43.4311 16.7013 44.5551 17.3085 44.467 18.5096C44.2508 21.4872 37.8403 20.9622 33.0559 19.5437L35.9153 24.653C43.2415 25.8992 49.983 25.1965 49.9456 18.332C49.927 15.0044 47.1503 13.8537 45.8927 13.5143L51.9988 9.29059L53.0828 5.35057L53.0854 5.35587Z" fill="white"/>
<path d="M27.5733 45.7734L29.1348 36.4307H35.1142L34.8339 38.0991H30.683L30.3093 40.3413H33.7661L33.4859 42.0097H30.0291L29.4018 45.7734H27.5733ZM50.8331 45.9603C50.0412 45.9603 49.3783 45.809 48.8444 45.5065C48.3194 45.1951 47.9413 44.768 47.7099 44.2252C47.4875 43.6736 47.4341 43.0285 47.5498 42.2899L48.5241 36.4307H50.3526L49.3783 42.2899C49.3071 42.6992 49.3249 43.0507 49.4317 43.3443C49.5384 43.638 49.7164 43.8649 49.9655 44.025C50.2236 44.1852 50.5394 44.2653 50.9131 44.2653C51.3313 44.2653 51.7139 44.1852 52.061 44.025C52.408 43.856 52.6927 43.6246 52.9152 43.331C53.1465 43.0285 53.2933 42.6814 53.3556 42.2899L54.3299 36.4307H56.1584L55.1841 42.2899C55.0506 43.0463 54.7881 43.7002 54.3966 44.2519C54.0051 44.8036 53.5069 45.2262 52.9018 45.5198C52.2968 45.8135 51.6072 45.9603 50.8331 45.9603ZM70.3536 45.7734L71.6482 38.0991H68.8454L69.1124 36.4307H76.5331L76.2662 38.0991H73.4634L72.1821 45.7734H70.3536ZM92.0552 45.9603C91.2633 45.9603 90.6004 45.809 90.0665 45.5065C89.5415 45.1951 89.1634 44.768 88.932 44.2252C88.7096 43.6736 88.6562 43.0285 88.7719 42.2899L89.7462 36.4307H91.5747L90.6004 42.2899C90.5292 42.6992 90.547 43.0507 90.6538 43.3443C90.7605 43.638 90.9385 43.8649 91.1876 44.025C91.4457 44.1852 91.7615 44.2653 92.1352 44.2653C92.5534 44.2653 92.9361 44.1852 93.2831 44.025C93.6301 43.856 93.9148 43.6246 94.1373 43.331C94.3686 43.0285 94.5154 42.6814 94.5777 42.2899L95.552 36.4307H97.3805L96.4062 42.2899C96.2727 43.0463 96.0103 43.7002 95.6187 44.2519C95.2272 44.8036 94.729 45.2262 94.1239 45.5198C93.5189 45.8135 92.8293 45.9603 92.0552 45.9603ZM109.861 45.7734L111.423 36.4307H114.839C115.498 36.4307 116.063 36.5642 116.534 36.8311C117.006 37.0981 117.349 37.4673 117.562 37.9389C117.785 38.4016 117.842 38.9399 117.736 39.5539C117.647 40.1233 117.42 40.6305 117.055 41.0754C116.699 41.5114 116.245 41.8539 115.694 42.1031C115.142 42.3433 114.537 42.4634 113.878 42.4634H112.237L111.69 45.7734H109.861ZM115.013 45.7734L113.478 42.023L114.986 41.022L117.042 45.7734H115.013ZM112.517 40.7951H114.119C114.43 40.7951 114.71 40.7373 114.96 40.6216C115.218 40.497 115.427 40.328 115.587 40.1144C115.756 39.892 115.854 39.6295 115.88 39.327C115.916 38.9533 115.818 38.6552 115.587 38.4327C115.364 38.2103 115.035 38.0991 114.599 38.0991H112.971L112.517 40.7951ZM130.609 45.7734L132.171 36.4307H138.083L137.803 38.0991H133.719L133.358 40.2212H136.882L136.615 41.8495H133.091L132.704 44.1051H136.855L136.575 45.7734H130.609ZM153.831 45.9603C153.341 45.9603 152.896 45.898 152.496 45.7734C152.095 45.6578 151.748 45.4976 151.455 45.293C151.161 45.0794 150.93 44.8392 150.761 44.5722C150.601 44.3053 150.512 44.025 150.494 43.7314L152.322 43.3043C152.385 43.6068 152.54 43.8604 152.789 44.0651C153.039 44.2697 153.39 44.372 153.844 44.372C154.164 44.372 154.458 44.3231 154.725 44.2252C155.001 44.1184 155.223 43.9627 155.392 43.7581C155.561 43.5534 155.646 43.3043 155.646 43.0107C155.646 42.7971 155.601 42.6281 155.512 42.5035C155.423 42.37 155.294 42.2677 155.125 42.1965C154.965 42.1164 154.769 42.0497 154.538 41.9963L153.443 41.716C153.025 41.6093 152.66 41.4402 152.349 41.2089C152.047 40.9775 151.824 40.6883 151.682 40.3413C151.539 39.9943 151.49 39.5939 151.535 39.1401C151.597 38.5529 151.784 38.0501 152.095 37.6319C152.416 37.2048 152.843 36.8756 153.377 36.6443C153.911 36.4129 154.525 36.2973 155.219 36.2973C155.841 36.2973 156.366 36.3907 156.793 36.5775C157.229 36.7555 157.576 37.0091 157.835 37.3383C158.093 37.6675 158.266 38.0501 158.355 38.4861L156.527 38.9399C156.473 38.6374 156.322 38.3882 156.073 38.1925C155.824 37.9878 155.477 37.8855 155.032 37.8855C154.72 37.8855 154.44 37.9389 154.191 38.0457C153.942 38.1436 153.742 38.2904 153.59 38.4861C153.448 38.6819 153.377 38.9177 153.377 39.1935C153.377 39.4426 153.461 39.6517 153.63 39.8208C153.799 39.981 154.035 40.0966 154.338 40.1678L155.445 40.4481C155.997 40.5905 156.424 40.7862 156.727 41.0353C157.038 41.2845 157.261 41.5692 157.394 41.8895C157.528 42.2099 157.594 42.548 157.594 42.9039C157.594 43.5712 157.421 44.1362 157.074 44.5989C156.736 45.0527 156.282 45.3953 155.712 45.6266C155.143 45.8491 154.516 45.9603 153.831 45.9603Z" fill="white"/>
</svg>
