<svg width="561" height="500" viewBox="0 0 561 500" fill="none" xmlns="http://www.w3.org/2000/svg">
<path d="M107 202.5V74H435V173V276L422 332.5L391 368.5L353 400.5L306 423C296.5 428 275.8 437.7 269 436.5C262.2 435.3 232.167 420.667 218 413.5L164.5 378L125.5 332.5L107 289V202.5Z" fill="white"/>
<path d="M101.538 67.7949V254.518C101.538 404.14 271.599 440.162 271.599 440.162C271.599 440.162 442.324 404.148 442.324 254.344V67.7949H101.538ZM428.1 254.344C428.1 311.052 401.795 357.029 349.928 390.987C316.132 413.118 281.71 422.921 271.607 425.485C261.536 422.921 227.264 413.118 193.617 391.019C141.957 357.084 115.763 311.163 115.763 254.518V82.0673H428.1V254.344ZM250.792 399.877C250.27 401.005 249.962 402.243 249.645 403.449C246.093 402.092 242.303 400.568 238.34 398.853C238.126 396.409 237.644 393.98 237.201 391.558C236.829 389.534 235.547 388.455 233.641 387.423C231.876 386.47 230.46 385.311 228.261 385.319C227.699 385.319 226.592 383.343 226.655 382.335C226.884 378.826 230.943 375.246 234.479 375.579C237.541 375.865 239.582 374.635 241.378 372.468C242.652 370.92 243.949 369.396 245.413 367.642C247.509 374.309 249.867 380.604 251.401 387.097C252.382 391.233 252.746 395.686 250.792 399.869V399.877ZM212.992 386.185C209.147 383.978 205.279 381.612 201.41 379.08C177.597 363.442 159.512 344.971 147.669 324.197C135.936 303.63 129.995 280.19 129.995 254.518V245.366H264.843V254.598C259.36 253.209 253.506 253.232 247.256 254.296C235.342 256.312 226.085 261.861 218.894 271.418C217.589 273.149 215.674 274.435 213.949 275.816C212.074 277.324 209.978 278.578 208.19 280.182C205.033 283.008 201.41 284.555 197.399 285.945C192.937 287.492 189.947 287.231 186.236 284.032C181.569 279.999 175.627 279.189 169.567 280.96C167.629 281.523 165.675 282.087 163.8 282.841C156.696 285.691 149.496 287.969 141.632 287.143C146.585 291.009 152.06 293.994 158.001 294.486C163.317 294.525 165.722 292.866 171.229 293.66C177.937 294.629 181.6 300.574 181.6 300.574C181.6 300.574 179.709 305.908 179.662 312.298C179.733 314.981 179.931 318.03 179.852 321.07C179.749 325.047 180.651 328.508 183.317 331.651C184.464 333.008 185.05 335.104 185.263 336.946C185.841 341.915 186.031 346.932 186.481 351.924C186.711 354.401 189.219 355.901 192.367 355.56C193.301 357.806 196.545 357.91 197.834 357.814C202.874 357.457 206.086 355.116 206.94 349.845C207.264 347.86 207.953 345.9 208.752 344.05C209.377 342.613 210.231 341.145 211.347 340.073C214.733 336.819 217.953 333.556 217.612 328.127C220.445 328.46 221.924 330.286 223.277 332.254C225.555 335.58 227.818 338.914 230.065 342.264C230.318 342.645 230.698 343.161 230.603 343.51C229.527 347.678 229.226 352.361 227.043 355.862C223.15 362.117 218.119 367.665 213.538 373.484C211.362 376.691 211.766 381.827 212.976 386.192L212.992 386.185ZM294.819 231.125H279.028V211.971C291.243 212.932 293.743 222.021 294.819 231.125ZM413.875 96.3396V231.125H331.155C330.142 218.329 328.956 205.946 328.956 205.946C328.956 205.946 331.598 203.628 336.218 199.652C347.444 201.636 384.754 210.915 389.706 210.915C394.659 210.915 399.611 205.946 402.91 202.303C406.209 198.659 402.578 194.349 402.578 194.349L388.377 177.783C388.377 177.783 392.673 173.806 388.377 165.193C384.034 156.477 367.579 142.665 367.579 142.665C367.579 142.665 372.658 131.028 366.922 127.099C363.212 124.559 354.707 131.735 354.707 131.735C345.467 124.114 330.934 128.425 330.934 128.425C330.934 128.425 308.481 111.858 299.898 107.223C293.228 103.619 283.173 105.818 279.02 106.976V96.3317H413.867L413.875 96.3396ZM129.987 96.3396V231.125H264.835V96.3396H129.987ZM211.995 129.274L212.779 130.06L217.09 134.386L235.887 153.247L239.598 156.969H232.098C230.112 156.969 228.498 158.589 228.498 160.581V163.693H211.995V129.274ZM190.825 120.519L191.655 119.693L195.255 116.081L197.051 114.279L198.847 112.477L200.651 114.287L202.446 116.089L210.556 124.226C208.57 124.226 206.956 125.837 206.956 127.837L206.924 163.669H190.817L190.738 127.829C190.738 125.837 189.124 124.226 187.138 124.226H187.122L190.809 120.526L190.825 120.519ZM161.846 153.215L180.643 134.354L184.955 130.028L185.738 129.242V163.661H169.235V160.549C169.235 158.557 167.621 156.938 165.635 156.938H158.135L161.846 153.215ZM243.996 172.194L235.911 180.299L222.351 193.904V191.475C222.351 188.015 219.551 185.205 216.101 185.205H210.658V212.86L210.595 212.932L206.988 209.32L207.003 209.304L198.878 201.152H198.871L190.864 209.185L190.754 209.296V209.312L187.154 212.924L187.122 212.892V185.205H181.679C178.23 185.205 175.429 188.015 175.429 191.475V193.936L161.885 180.347L153.768 172.202L150.343 168.765H247.422L244.012 172.186L243.996 172.194ZM337.16 297.764L348.307 316.513L325.617 316.498L337.152 297.756L337.16 297.764ZM279.028 245.366V408.522C293.64 403.942 318.094 394.781 342.152 379.032C366.068 363.371 384.224 344.891 396.122 324.086C407.894 303.503 413.867 280.039 413.867 254.344V245.366H279.02H279.028ZM359.422 335.207L348.441 316.736L346.266 318.919L340.593 324.594L331.084 334.12V332.413C331.084 329.984 329.13 328.016 326.709 328.016H322.896H318.544L314.114 335.207H299.233L337.168 271.259L375.102 335.207H359.422Z" fill="url(#paint0_linear_22280_139)"/>
<defs>
<linearGradient id="paint0_linear_22280_139" x1="271.931" y1="67.7949" x2="271.931" y2="440.162" gradientUnits="userSpaceOnUse">
<stop stop-color="#1980CF"/>
<stop offset="1" stop-color="#172041"/>
</linearGradient>
</defs>
</svg>
