<svg width="169" height="85" viewBox="0 0 169 85" fill="none" xmlns="http://www.w3.org/2000/svg">
<path d="M24.2837 52.5H40.4968V48.2062H29.1835V42.9398H38.5634V38.6424H29.1835V33.7938H40.5649V29.5H24.2837V52.5Z" fill="white"/>
<path d="M60.0171 43.9772L49.3961 29.5H42.0823L44.36 32.4106V52.572H49.2562V37.4681L60.2252 52.5H64.9169V29.5H60.0171V43.9772Z" fill="white"/>
<path d="M16.9018 40.6668C19.054 40.2525 20.8475 38.2425 20.8475 35.404C20.8331 32.3385 18.6271 29.5 14.2116 29.5H0L2.20599 32.3385V52.5108H14.7066C19.1257 52.5108 21.3999 49.7407 21.3999 46.2754C21.3174 43.4261 19.3696 41.0018 16.9018 40.6668ZM7.10578 33.8226H13.2467C14.9039 33.8226 15.9369 34.7952 15.9369 36.2469C15.9369 37.6986 14.9039 38.6712 13.2467 38.6712H7.10578V33.8226ZM13.4511 48.2314H7.10578V42.9398H13.4511C15.3164 42.9398 16.3494 44.1177 16.3494 45.573C16.3494 47.2336 15.2446 48.2062 13.4511 48.2062V48.2314Z" fill="white"/>
<path d="M136.595 43.9772H139.149V46.6825C137.828 47.7808 136.172 48.391 134.458 48.4115C130.386 48.4115 127.492 45.2956 127.492 41.0702C127.492 36.8449 130.386 33.7254 134.458 33.7254C135.504 33.7341 136.531 34.0048 137.447 34.513C138.363 35.0213 139.138 35.751 139.702 36.6359L143.565 34.4746C141.911 31.8558 139.009 29.5 134.389 29.5C127.904 29.5 122.524 34.0027 122.524 41.0018C122.524 48.0009 127.836 52.5 134.389 52.5C136.159 52.5295 137.914 52.1731 139.534 51.4555C141.153 50.7378 142.598 49.6759 143.769 48.3431V39.8239H133.285L136.595 43.9772Z" fill="white"/>
<path d="M114.521 43.9772L103.897 29.5H96.5828L98.8605 32.4106V52.572H103.76V37.4681L114.729 52.5H119.417V29.5H114.521V43.9772Z" fill="white"/>
<path d="M159.979 29.5H150.531L152.805 32.4106L152.392 33.5164L145.079 52.572H150.599L152.034 48.6889H161.916L163.351 52.572H168.867L159.979 29.5ZM153.293 44.3266L156.88 34.417L160.467 44.3266H153.293Z" fill="white"/>
<path d="M93.7562 29.5H88.8564V52.572H93.7562V29.5Z" fill="white"/>
<path d="M84.925 33.448V29.5H67.6753V33.7938H78.5079L67.6753 48.552V52.5H85.1331V48.2062H74.0242L84.925 33.448Z" fill="white"/>
</svg>
