<svg width="1719" height="554" viewBox="0 0 1719 554" fill="none" xmlns="http://www.w3.org/2000/svg">
<rect width="1719" height="554" fill="#3B53A7"/>
<mask id="mask0_2120_27" style="mask-type:alpha" maskUnits="userSpaceOnUse" x="0" y="0" width="1719" height="554">
<rect width="1719" height="554" fill="#3B53A7"/>
</mask>
<g mask="url(#mask0_2120_27)">
<g style="mix-blend-mode:overlay" opacity="0.5">
<circle cx="158.5" cy="428.5" r="37.5" fill="url(#paint0_linear_2120_27)"/>
</g>
<g style="mix-blend-mode:overlay" opacity="0.5">
<circle cx="965.398" cy="18.3978" r="80.1021" transform="rotate(156.502 965.398 18.3978)" fill="url(#paint1_linear_2120_27)"/>
</g>
<g style="mix-blend-mode:overlay" opacity="0.5">
<circle cx="449.5" cy="568.5" r="139.5" fill="url(#paint2_linear_2120_27)"/>
</g>
<g style="mix-blend-mode:overlay" opacity="0.5">
<circle cx="-94.4999" cy="115.5" r="214.5" transform="rotate(-44.149 -94.4999 115.5)" fill="url(#paint3_linear_2120_27)"/>
</g>
<g style="mix-blend-mode:overlay" opacity="0.1">
<path d="M1116.01 34V380.956C1116.01 658.973 1433.07 725.907 1433.07 725.907C1433.07 725.907 1751.37 658.988 1751.37 380.632V34H1116H1116.01ZM1724.85 380.632C1724.85 486.004 1675.81 571.434 1579.11 634.533C1516.1 675.655 1451.92 693.871 1433.09 698.635C1414.31 693.871 1350.42 675.655 1287.69 634.592C1191.37 571.537 1142.53 486.21 1142.53 380.956V60.5199H1724.85V380.632Z" fill="white"/>
<path d="M1324.84 601.995C1333.39 591.184 1342.76 580.874 1350.02 569.251C1354.07 562.746 1354.63 554.044 1356.65 546.3C1356.82 545.651 1356.12 544.678 1355.65 543.985C1351.46 537.775 1347.24 531.565 1343 525.385C1340.47 521.713 1337.72 518.335 1332.44 517.716C1333.07 527.804 1327.07 533.866 1320.75 539.914C1318.67 541.905 1317.08 544.634 1315.92 547.303C1314.41 550.74 1313.13 554.398 1312.54 558.071C1310.95 567.85 1304.96 572.201 1295.56 572.879C1293.16 573.056 1287.11 572.85 1285.37 568.69C1279.5 569.325 1274.81 566.537 1274.4 561.935C1273.54 552.672 1273.2 543.35 1272.12 534.102C1271.73 530.695 1270.63 526.787 1268.5 524.264C1263.54 518.438 1261.86 511.993 1262.04 504.603C1262.18 498.954 1261.8 493.29 1261.68 488.305C1261.77 476.431 1265.3 466.519 1265.3 466.519C1265.3 466.519 1258.47 455.457 1245.96 453.673C1235.69 452.198 1231.21 455.28 1221.3 455.206C1210.22 454.277 1200.01 448.731 1190.78 441.563C1205.44 443.112 1218.86 438.879 1232.11 433.569C1235.6 432.167 1239.25 431.12 1242.86 430.073C1254.17 426.784 1265.24 428.288 1273.94 435.781C1280.84 441.725 1286.43 442.212 1294.75 439.336C1302.23 436.755 1308.98 433.878 1314.87 428.628C1318.2 425.648 1322.11 423.318 1325.61 420.515C1328.81 417.949 1332.39 415.559 1334.83 412.344C1348.23 394.585 1365.49 384.275 1387.7 380.529C1399.36 378.567 1410.28 378.508 1420.49 381.089V363.936H1169.08V380.942C1169.08 428.642 1180.17 472.198 1202.03 510.414C1224.13 549.014 1257.83 583.322 1302.23 612.394C1309.43 617.114 1316.65 621.509 1323.82 625.595C1321.57 617.482 1320.81 607.939 1324.87 601.98L1324.84 601.995Z" fill="white"/>
<path d="M1446.92 301.913V337.504H1476.36C1474.37 320.586 1469.7 303.698 1446.92 301.913Z" fill="white"/>
<path d="M1446.92 87.04V106.819C1454.67 104.666 1473.41 100.58 1485.85 107.277C1501.85 115.89 1543.71 146.673 1543.71 146.673C1543.71 146.673 1570.79 138.664 1588.03 152.824C1588.03 152.824 1603.89 139.475 1610.81 144.21C1621.5 151.526 1612.03 173.134 1612.03 173.134C1612.03 173.134 1642.71 198.798 1650.81 214.993C1658.82 230.997 1650.81 238.386 1650.81 238.386L1677.28 269.169C1677.28 269.169 1684.05 277.178 1677.9 283.948C1671.75 290.718 1662.52 299.952 1653.29 299.952C1644.05 299.952 1574.49 282.709 1553.56 279.022C1544.95 286.411 1540.02 290.718 1540.02 290.718C1540.02 290.718 1542.22 313.728 1544.12 337.504H1698.35V87.04H1446.94H1446.92Z" fill="white"/>
<path d="M1169.05 87.04V337.489H1420.46V87.04H1169.05ZM1321.95 148.236L1323.41 149.697L1331.45 157.735L1366.49 192.78L1373.41 199.698H1359.43C1355.73 199.698 1352.72 202.707 1352.72 206.409V212.191H1321.95V148.236ZM1282.48 131.968L1284.03 130.434L1290.74 123.722L1294.09 120.374L1297.43 117.026L1300.8 120.389L1304.15 123.737L1319.26 138.856C1315.56 138.856 1312.55 141.85 1312.55 145.567L1312.49 212.147H1282.46L1282.32 145.552C1282.32 141.85 1279.31 138.856 1275.61 138.856H1275.58L1282.45 131.982L1282.48 131.968ZM1228.44 192.721L1263.48 157.676L1271.52 149.638L1272.98 148.177V212.132H1242.21V206.35C1242.21 202.648 1239.2 199.639 1235.5 199.639H1221.52L1228.44 192.721ZM1381.61 227.988L1366.54 243.047L1341.26 268.328V263.815C1341.26 257.384 1336.03 252.163 1329.6 252.163H1319.46V303.55L1319.34 303.683L1312.61 296.972L1312.64 296.943L1297.49 281.795H1297.48L1282.55 296.721L1282.35 296.928V296.957L1275.63 303.668L1275.58 303.609V252.163H1265.43C1259 252.163 1253.78 257.384 1253.78 263.815V268.387L1228.52 243.136L1213.39 228.003L1207 221.616H1388L1381.64 227.973L1381.61 227.988Z" fill="white"/>
<path d="M1533.78 496.137L1576.09 496.167L1555.3 461.313L1533.78 496.137Z" fill="white"/>
<path d="M1446.92 363.951V667.116C1474.17 658.605 1519.76 641.584 1564.61 612.321C1609.2 583.22 1643.05 548.883 1665.23 510.224C1687.18 471.978 1698.32 428.378 1698.32 380.633V363.951H1446.91H1446.92ZM1596.81 530.888L1576.34 496.565L1572.28 500.622L1561.71 511.168L1543.98 528.867V525.696C1543.98 521.183 1540.33 517.525 1535.82 517.525H1528.71H1520.6L1512.34 530.888H1484.59L1555.32 412.065L1626.04 530.888H1596.81Z" fill="white"/>
</g>
<g style="mix-blend-mode:overlay">
<ellipse cx="1490.5" cy="478.153" rx="630.5" ry="586.153" fill="url(#paint4_radial_2120_27)"/>
</g>
<g style="mix-blend-mode:overlay">
<ellipse cx="-151.523" cy="-189.153" rx="762.477" ry="708.847" fill="url(#paint5_radial_2120_27)"/>
</g>
</g>
<defs>
<linearGradient id="paint0_linear_2120_27" x1="69.517" y1="490.788" x2="200.5" y2="404.5" gradientUnits="userSpaceOnUse">
<stop stop-color="white"/>
<stop offset="1" stop-color="#68CDED" stop-opacity="0"/>
</linearGradient>
<linearGradient id="paint1_linear_2120_27" x1="775.325" y1="151.449" x2="1055.11" y2="-32.8675" gradientUnits="userSpaceOnUse">
<stop stop-color="white"/>
<stop offset="1" stop-color="#68CDED" stop-opacity="0"/>
</linearGradient>
<linearGradient id="paint2_linear_2120_27" x1="118.483" y1="800.212" x2="605.74" y2="479.22" gradientUnits="userSpaceOnUse">
<stop stop-color="white"/>
<stop offset="1" stop-color="#68CDED" stop-opacity="0"/>
</linearGradient>
<linearGradient id="paint3_linear_2120_27" x1="205.589" y1="-40.8838" x2="-265.677" y2="285.621" gradientUnits="userSpaceOnUse">
<stop stop-color="white"/>
<stop offset="1" stop-color="#68CDED" stop-opacity="0"/>
</linearGradient>
<radialGradient id="paint4_radial_2120_27" cx="0" cy="0" r="1" gradientUnits="userSpaceOnUse" gradientTransform="translate(1551.11 624.218) rotate(-98.0967) scale(430.344 462.901)">
<stop stop-color="#67CBEB"/>
<stop offset="1" stop-color="#68CDED" stop-opacity="0"/>
</radialGradient>
<radialGradient id="paint5_radial_2120_27" cx="0" cy="0" r="1" gradientUnits="userSpaceOnUse" gradientTransform="translate(-78.2244 -12.5137) rotate(-98.0967) scale(520.424 559.796)">
<stop stop-color="#67CBEB"/>
<stop offset="1" stop-color="#3B53A7" stop-opacity="0"/>
</radialGradient>
</defs>
</svg>
