<svg width="197" height="41" viewBox="0 0 197 41" fill="none" xmlns="http://www.w3.org/2000/svg">
<g clip-path="url(#clip0_2316_69)">
<mask id="mask0_2316_69" style="mask-type:luminance" maskUnits="userSpaceOnUse" x="0" y="0" width="197" height="41">
<path d="M197 0.5H0V40.5H197V0.5Z" fill="white"/>
</mask>
<g mask="url(#mask0_2316_69)">
<path d="M67.6177 10.1494C61.6476 10.1494 56.8735 14.3368 56.8735 20.5965C56.8735 26.8562 61.6476 31.0437 67.6177 31.0437C73.5879 31.0437 78.3619 26.8562 78.3619 20.5965C78.3619 14.3368 73.5826 10.1494 67.6177 10.1494ZM67.6177 26.5671C63.9973 26.5671 61.8124 23.7076 61.8124 20.5965C61.8124 17.4854 63.9973 14.626 67.6177 14.626C71.2381 14.626 73.4178 17.4854 73.4178 20.5965C73.4178 23.7076 71.2381 26.5671 67.6177 26.5671Z" fill="white"/>
<path d="M192.311 10.6474V13.6354H192.226C190.785 11.2311 188.196 10.1494 185.437 10.1494C179.345 10.1494 175.682 14.7117 175.682 20.5965C175.682 26.4814 179.589 30.7973 185.517 30.7973C187.984 30.7973 190.535 29.8442 191.976 27.8951H192.061V29.3462C192.061 33.2819 190.578 36.0182 185.804 36.0182C183.045 36.0182 180.987 34.9848 179.01 33.1588L176.048 37.223C178.85 39.713 182.183 40.5001 185.846 40.5001C193.539 40.5001 197 35.9379 197 28.7679V10.6474H192.306H192.311ZM186.421 26.3208C183.087 26.3208 180.615 23.7076 180.615 20.5591C180.615 17.0356 183.002 14.6313 186.463 14.6313C189.924 14.6313 192.311 17.0356 192.311 20.4734C192.311 23.9111 190.083 26.3208 186.426 26.3208H186.421Z" fill="white"/>
<path d="M167.718 19.8951C167.718 18.8134 168.382 14.8777 173.024 14.8777C173.81 14.8777 174.592 15.0437 175.416 15.2525V10.4386C174.836 10.2779 174.262 10.1494 173.646 10.1494C171.051 10.1494 168.872 11.5202 167.798 13.796H167.718V10.6474H162.779V30.5457H167.718V19.8951Z" fill="white"/>
<path d="M127.771 10.1493C124.071 10.1493 122.094 11.8949 121.062 13.1747H120.94V0.5H116.001V30.5455H120.695V27.5629H120.775C122.216 29.9672 124.81 31.0489 127.569 31.0489C133.657 31.0489 137.325 26.4866 137.325 20.6017C137.325 14.7169 133.412 10.1546 127.771 10.1546V10.1493ZM126.581 26.5669C122.96 26.5669 120.775 23.7075 120.775 20.5964C120.775 17.4853 122.96 14.6258 126.581 14.6258C130.201 14.6258 132.381 17.4853 132.381 20.5964C132.381 23.7075 130.201 26.5669 126.581 26.5669Z" fill="white"/>
<path d="M99.1485 19.7666C99.1485 17.1963 100.307 14.626 103.391 14.626C106.315 14.626 107.054 16.784 107.054 19.2686V30.5457H111.993V18.6902C111.993 13.9245 110.137 10.1494 104.874 10.1494C101.913 10.1494 99.8131 11.3114 98.3724 13.8388C97.3463 11.3489 95.2464 10.1494 92.2002 10.1494C88.9094 10.1494 87.0115 11.8951 86.1502 13.7585H86.0705V10.6474H81.3762V30.5457H86.315V19.6862C86.315 17.0356 87.5909 14.6313 90.8445 14.6313C93.2315 14.6313 94.2203 16.2485 94.2203 18.6956V30.551H99.1592V19.7719L99.1485 19.7666Z" fill="white"/>
<path d="M159.557 20.9767C159.557 14.053 155.809 10.1548 150.296 10.1548C144.326 10.1548 139.552 14.3422 139.552 20.6019C139.552 26.8616 144.326 31.049 150.296 31.049C153.422 31.049 156.346 29.9245 158.654 27.0704L155.113 24.377C153.885 25.9085 152.274 27.0704 149.807 27.0704C147.048 27.0704 144.826 25.2873 144.502 22.3422H159.563V20.9767H159.557ZM144.496 18.6099C144.863 15.7505 146.676 13.8817 149.6 13.8817C152.683 13.8817 154.576 15.7023 154.619 18.6099H144.496Z" fill="white"/>
<path d="M15.2311 15.0865V15.0008C18.2348 14.0905 20.2975 11.8951 20.2975 8.57514C20.2975 3.2311 15.7681 1.19629 11.3662 1.19629H0V30.5457H10.4996C16.0126 30.5457 21.5309 28.5591 21.5309 22.1709C21.5309 18.4011 18.8994 15.4935 15.2311 15.0865ZM5.18869 5.67286H9.46829C13.3811 5.67286 15.1089 6.92052 15.1089 9.44796C15.1089 11.6434 13.3811 13.1374 9.92017 13.1374H5.18869V5.67822V5.67286ZM9.9627 26.0745H5.18869V17.6193H10.17C14.3699 17.6193 16.3422 18.6956 16.3422 21.7639C16.3422 25.6193 12.6421 26.0745 9.9627 26.0745Z" fill="white"/>
<path d="M43.8965 10.1494C37.9264 10.1494 33.1523 14.3368 33.1523 20.5965C33.1523 26.8562 37.9264 31.0437 43.8965 31.0437C49.8667 31.0437 54.6407 26.8562 54.6407 20.5965C54.6407 14.3368 49.8667 10.1494 43.8965 10.1494ZM43.8965 26.5671C40.2762 26.5671 38.0912 23.7076 38.0912 20.5965C38.0912 17.4854 40.2762 14.626 43.8965 14.626C47.5169 14.626 49.6966 17.4854 49.6966 20.5965C49.6966 23.7076 47.5169 26.5671 43.8965 26.5671Z" fill="white"/>
<path d="M29.8509 0.5H24.9121V30.5455H29.8509V0.5Z" fill="white"/>
</g>
</g>
<defs>
<clipPath id="clip0_2316_69">
<rect width="197" height="40" fill="white" transform="translate(0 0.5)"/>
</clipPath>
</defs>
</svg>
