<svg width="136" height="57" viewBox="0 0 136 57" fill="none" xmlns="http://www.w3.org/2000/svg">
<g clip-path="url(#clip0_2316_49)">
<mask id="mask0_2316_49" style="mask-type:luminance" maskUnits="userSpaceOnUse" x="0" y="0" width="136" height="57">
<path d="M136 0H0V57H136V0Z" fill="white"/>
</mask>
<g mask="url(#mask0_2316_49)">
<path d="M14.1546 23.4536H0V0.615234H14.1546V23.4536Z" fill="white"/>
<path d="M75.1151 40.4767C76.0908 43.5938 77.9865 46.151 80.0793 48.5619C80.4585 49.0007 81.2623 49.0714 82.0458 49.379V50.993C80.6051 50.993 79.1745 51.0435 77.754 50.9577C77.3799 50.9325 76.9047 50.5593 76.6974 50.2163C74.7815 47.0437 72.9161 43.8409 70.9547 40.5019H68.8568V48.9906C69.2814 49.0461 69.7314 49.1016 70.2571 49.1672V50.9224H63.4225C63.3972 50.3676 63.3719 49.8632 63.3466 49.2933C63.8875 49.1823 64.3375 49.0865 64.843 48.9856V30.0562C64.4487 29.9604 64.0139 29.8545 63.4427 29.7132C63.4073 29.2492 63.3719 28.7448 63.3264 28.1295C67.1178 28.1295 70.8738 27.7815 74.5186 28.2556C76.8794 28.5633 79.043 30.152 79.6294 32.8707C80.2007 35.5086 79.1795 37.5261 76.9704 39.0191C76.3739 39.4226 75.833 39.9118 75.1202 40.4717L75.1151 40.4767ZM68.8619 29.8595V38.55C71.2176 38.3684 73.7654 39.3671 75.2213 36.6232C76.1767 34.8277 76.197 33.0522 75.0545 31.3676C73.4621 29.0222 71.0407 30.147 68.8619 29.8545V29.8595Z" fill="white"/>
<path d="M17.0715 23.146C16.4648 21.7691 17.2737 21.5522 18.3656 21.5774V2.26471C17.764 1.98731 16.389 2.22941 16.9602 0.827231C20.7163 0.827231 24.5077 0.529647 28.2232 0.91802C31.4131 1.25091 33.1672 3.67698 33.7486 6.7537C34.4816 10.6072 34.4613 14.4758 33.3593 18.2737C32.4797 21.3 30.215 22.8737 27.2526 23.0906C23.8707 23.3428 20.4534 23.1511 17.0765 23.1511L17.0715 23.146ZM22.3592 21.6632C23.077 21.6632 23.6078 21.6632 24.1386 21.6632C27.7531 21.6581 28.845 20.8158 29.7802 17.3709C30.6447 14.1883 30.6497 10.9653 30.1442 7.74228C29.3758 2.8498 27.3133 1.41736 22.3592 2.30506V21.6682V21.6632Z" fill="white"/>
<path d="M43 39.5787C43 41.5 42.9389 44.0071 42.1706 46.0448C40.2142 51.2248 35.8263 52.516 31.0238 50.6145C28.84 49.752 27.4397 47.6639 26.8179 45.3135C25.7816 41.3894 25.635 37.3897 26.8836 33.5312C28.567 28.3209 32.8589 26.4597 37.8484 28.1847C40.1839 28.9917 41.8217 31.0244 42.4284 33.5312C42.8985 35.473 43 37 43 39.5V39.5787ZM39.5671 39.5787C39.5 37 39.0667 35.0342 38.5005 32.8502C37.8989 30.52 36.4784 29.5365 34.5625 29.5718C32.7022 29.6071 31.3221 30.7167 30.7104 33.0066C29.5578 37.3493 29.5578 41.7374 30.7559 46.07C31.3929 48.3851 32.7628 49.4443 34.6484 49.4443C36.5087 49.4443 37.9545 48.365 38.5308 46.06C39.0566 43.9718 39.2284 41.8468 39.5671 39.6376V39.5787Z" fill="white"/>
<path d="M96.9333 42.933C96.9333 38.9535 96.9333 34.9739 96.9333 30.9944C96.9333 30.6817 96.8929 30.3689 96.8727 30.0159C96.3773 29.915 95.9324 29.8242 95.4421 29.7183V28.1244H100.113C100.138 28.6187 100.164 29.1231 100.189 29.7032C99.6733 29.8242 99.2335 29.9301 98.6774 30.0613V50.7862C97.2316 51.3007 96.4834 50.9527 95.9173 49.5505C95.2854 47.992 94.2541 46.5898 93.425 45.1069C91.2766 41.2837 89.1382 37.4605 86.7522 33.7029V48.9604C87.1212 49.031 87.5206 49.1016 88.016 49.1924V50.9174H83.2691C83.2439 50.3424 83.2186 49.833 83.1933 49.2428C83.714 49.142 84.1589 49.0562 84.6846 48.9553V30.0461C84.3004 29.9553 83.8657 29.8494 83.2995 29.7132C83.2641 29.2442 83.2287 28.7398 83.1731 28.0135C84.7453 28.0135 86.2214 27.963 87.6924 28.0538C88.0109 28.074 88.3749 28.5733 88.5771 28.9315C91.2816 33.6121 93.9558 38.3028 96.6401 42.9936C96.7362 42.9734 96.8322 42.9482 96.9333 42.928V42.933Z" fill="white"/>
<path d="M59.3833 6.04228H57.4017C57.0074 3.86336 55.9963 2.15855 53.5648 1.83071C50.6985 1.44233 48.8179 2.63771 47.9687 5.59843C46.8666 9.4418 46.7908 13.3507 47.7311 17.2547C47.9282 18.0717 48.1608 18.904 48.5399 19.6505C49.5358 21.6024 50.9917 22.2934 53.1503 21.9605C55.1319 21.6528 55.7739 20.9114 55.779 18.9342C55.779 17.5573 55.779 16.1803 55.779 14.7075C55.0662 14.6218 54.4545 14.5461 53.7468 14.4553V13.0633C53.9844 13.0229 54.1866 12.9624 54.3938 12.9624C56.4715 12.9573 58.5492 12.9624 61.2234 12.9624C60.6269 13.8198 60.2528 14.3545 59.8838 14.8891C59.7574 14.8286 59.6361 14.7681 59.5097 14.7025C59.5097 15.6003 59.5097 16.493 59.5097 17.3908C59.5097 20.6895 58.0993 22.4699 54.8084 23.3223C50.7136 24.3815 46.5734 23.0248 44.8243 19.8724C44.2228 18.788 43.7223 17.4917 43.6869 16.2762C43.5959 12.9573 43.2876 9.52755 43.9498 6.32473C45.158 0.484011 53.3373 -2.0278 57.9476 1.90636C58.8424 2.66798 58.8677 4.44844 59.3884 6.04732L59.3833 6.04228Z" fill="white"/>
<path d="M45.3551 29.9855C44.7991 29.9149 44.3845 29.8644 43.8689 29.7989V28.084H50.5215V29.7384C50.102 29.8342 49.6672 29.9351 49.2375 30.0309C49.2375 34.9536 49.1162 39.7957 49.3184 44.6226C49.374 45.9693 50.0918 47.5783 51.0372 48.5416C52.7256 50.2616 55.9761 49.5605 57.0427 47.3614C57.6544 46.1055 58.074 44.6377 58.1195 43.2507C58.256 38.8929 58.1701 34.53 58.1701 30.0309C56.8608 30.041 56.3704 29.4206 56.9416 28.089H61.6126C61.643 28.6035 61.6733 29.1079 61.7087 29.6879C61.2032 29.809 60.7634 29.9199 60.2578 30.041C60.2225 30.3386 60.1567 30.6513 60.1567 30.959C60.1315 34.9486 60.1719 38.9433 60.0809 42.9329C60.0203 45.6062 59.2569 47.9868 57.1489 49.9085C55.1622 51.7192 50.4103 51.6486 48.363 49.8581C45.987 47.78 45.4006 45.1673 45.3753 42.2772C45.34 38.2372 45.3652 34.1971 45.3652 29.9805L45.3551 29.9855Z" fill="white"/>
<path d="M118.903 49.3337V50.9124H112.149C112.417 50.1104 112.65 49.4244 112.877 48.7435C113.034 48.7738 113.196 48.8091 113.353 48.8394C112.771 47.0337 112.185 45.223 111.619 43.4627C111.427 43.4122 111.325 43.3618 111.224 43.3567C107.703 43.2391 105.532 44.9086 104.713 48.3652C105.158 49.3488 105.467 50.0297 105.876 50.9275H101.053C101.023 50.3979 100.993 49.8935 100.957 49.258C102.625 49.4497 102.858 48.3148 103.202 47.1749C105.118 40.8399 107.074 34.515 109.046 28.0841C109.536 28.0589 110.052 28.0337 110.673 28.0034C112.079 32.4874 113.464 36.9209 114.859 41.3544C115.496 43.3769 116.143 45.3995 116.8 47.417C117.316 49.0058 117.326 49.0008 118.913 49.3337H118.903ZM109.076 35.1858C108.95 35.1807 108.828 35.1757 108.702 35.1707C108.07 37.3143 107.433 39.4528 106.786 41.6519H111.047C110.36 39.3974 109.718 37.2891 109.076 35.1858Z" fill="white"/>
<path d="M102.16 23.1559H95.4218C95.806 22.3842 96.0942 21.8092 96.534 20.9265C96.4228 20.5735 96.2003 19.8119 95.9526 19.0603C95.5786 17.9154 95.4724 16.0996 94.7343 15.7869C93.4149 15.2321 91.7063 15.5347 90.1644 15.6053C89.851 15.6205 89.4062 16.1248 89.2899 16.488C88.7743 18.102 88.3597 19.7463 87.9958 21.0728C88.4507 21.8092 88.7793 22.3438 89.2646 23.1256H84.0679C84.3965 22.5254 84.6442 21.7335 84.8565 21.7436C86.1001 21.8042 86.1506 20.9013 86.3882 20.1094C88.2334 14.0216 90.0633 7.92866 91.9641 1.85592C92.1259 1.3465 92.687 0.766459 93.1925 0.600013C94.1328 0.282254 94.249 1.1397 94.4563 1.81053C96.3773 7.98918 98.3134 14.1628 100.25 20.3364C100.467 21.0224 100.558 21.784 101.645 21.7335C101.923 21.7184 102.236 22.4145 102.535 22.7877C102.408 22.9138 102.282 23.0348 102.155 23.1609L102.16 23.1559ZM94.3956 13.9207C93.693 11.7569 93.0307 9.71416 92.232 7.2427C91.4535 9.69903 90.8014 11.7619 90.1189 13.9207H94.3956Z" fill="white"/>
<path d="M120.122 50.8968V49.2222C120.561 49.1415 121.011 49.0608 121.527 48.9701V30.0508C121.138 29.96 120.708 29.8591 120.137 29.7229C120.106 29.2488 120.071 28.7444 120.031 28.124H126.708C127.153 29.2185 126.992 29.9852 125.49 29.9953V49.0608C127.987 49.0608 130.469 49.1264 132.947 49.0003C133.371 48.9801 133.958 48.2236 134.124 47.694C134.453 46.6449 135.009 46.5036 136 46.9021C135.838 48.2034 135.681 49.4997 135.51 50.8968H120.122Z" fill="white"/>
<path d="M75.7319 2.10821C74.736 2.10821 73.8817 2.16369 73.0425 2.09308C71.9405 2.00733 71.2479 2.51676 71.0508 3.51039C70.8284 4.66542 70.2116 4.69064 69.2107 4.33253C69.3725 3.1321 69.5342 1.93168 69.7112 0.645508H85.7058C85.8878 1.85602 86.0748 3.08671 86.3326 4.78647C85.5238 4.42836 84.6543 4.28209 84.5937 3.97946C84.2347 2.09812 82.9558 1.98716 81.4594 2.10317C80.9337 2.14352 80.3978 2.10821 79.7457 2.10821V21.5369C80.5495 21.6176 81.6263 21.6227 81.05 23.1106H74.463C74.2575 22.2195 74.6787 21.658 75.7268 21.426V2.10821H75.7319Z" fill="white"/>
<path d="M16.8794 55.7792C18.6336 55.2092 19.3463 53.7817 19.3666 52.203C19.4525 44.834 19.4019 37.4601 19.4019 29.9902C19.0835 29.9347 18.6336 29.8539 18.1381 29.7682V28.0938H25.0233C25.0587 28.6082 25.0941 29.1024 25.1345 29.6875C24.6037 29.8035 24.1488 29.8994 23.6281 30.0104C23.5927 30.2878 23.527 30.5954 23.5219 30.903C23.5169 36.8043 23.5978 42.7055 23.4663 48.6017C23.4259 50.4175 22.9962 52.2788 22.4351 54.0138C21.8183 55.9154 20.1046 56.7173 18.2342 56.9947C17.7691 57.0603 17.2181 56.561 16.7075 56.3189C16.7631 56.1373 16.8187 55.9608 16.8743 55.7792H16.8794Z" fill="white"/>
<path d="M118.514 19.333H119.707C119.5 20.6696 119.313 21.9003 119.121 23.141H103.773V21.759C104.228 21.6783 104.673 21.6027 105.189 21.5119V2.25465C104.537 2.0075 103.222 2.20421 103.839 0.655762H110.279C110.498 1.50648 110.121 2.04785 109.147 2.27987V21.5926C111.654 21.5926 114.146 21.7338 116.608 21.4967C117.25 21.4362 117.781 20.2005 118.514 19.3229V19.333Z" fill="white"/>
<path d="M36.7462 2.19899C35.8211 2.04264 34.5067 2.34526 35.1134 0.630371H42.3726C42.3929 1.05405 42.4181 1.48782 42.4383 1.97202C41.8317 2.06785 41.3262 2.14856 40.7651 2.23934V21.4865C41.2858 21.5621 41.7862 21.6378 42.3726 21.7286V23.1409H35.078C35.0426 22.697 35.0072 22.2632 34.9668 21.7387C35.5936 21.6681 36.1092 21.6126 36.7411 21.542V2.19899H36.7462Z" fill="white"/>
<path d="M66.7591 21.5726C67.3606 21.6129 67.8257 21.6482 68.3413 21.6835V23.116H60.9961V21.6886C61.5927 21.6482 62.1083 21.6129 62.72 21.5726V2.22453C62.1639 2.15392 61.6483 2.0934 60.9961 2.01269C60.9759 1.57388 60.9557 1.13003 60.9304 0.620605H68.311V2.04296C67.7954 2.08835 67.3354 2.1287 66.7591 2.17914V21.5776V21.5726Z" fill="white"/>
</g>
</g>
<defs>
<clipPath id="clip0_2316_49">
<rect width="136" height="57" fill="white"/>
</clipPath>
</defs>
</svg>
