<svg width="192" height="140" viewBox="0 0 192 140" fill="none" xmlns="http://www.w3.org/2000/svg">
<path d="M62.7973 42.5H37V43.7156C39.9726 43.8518 40.916 44.257 40.916 47.3625V68.2973C40.916 71.539 39.9663 71.808 37 71.9442V73.0237H51.4514V71.9442C47.8045 71.808 46.9941 71.4028 46.9941 68.2973V58.3032H52.2587C56.1746 58.3032 58.0677 59.2529 58.742 62.7605H59.9577V51.9528H58.742C58.2007 55.1945 57.1212 56.0049 52.2587 56.0049H46.9941V46.2798C46.9941 45.0642 47.2632 44.7951 48.7511 44.7951H53.3445C59.4226 44.7951 60.5022 45.8746 61.5753 49.2524H62.791L62.7973 42.5ZM82.3835 69.9181L76.4414 61.1396L79.6831 57.0875C81.8453 54.5202 83.0609 53.1716 84.9509 53.0354V51.8198H76.5744V53.0354C78.0591 53.0354 78.7366 53.4407 78.7366 54.3872C78.7366 55.1976 77.7869 56.2866 76.9796 57.0875L75.0802 59.2497L72.918 56.008C72.3767 55.3337 71.9683 54.7924 71.9683 54.1086C71.9683 53.4248 72.7787 53.0291 74.1305 53.0291V51.8135H62.9334V53.0291C64.5542 53.4343 65.2285 54.3809 66.039 55.5965L71.5694 63.7039L66.976 69.1077C65.3552 71.0071 64.5447 71.6751 62.6548 71.9568V73.0363H70.8856V71.9568C69.8061 71.9568 68.5905 71.6878 68.5905 71.0071C68.5905 70.3265 69.4009 69.3863 70.7527 67.7654L72.6521 65.4703L74.9472 68.8481C75.7577 70.0637 76.1629 70.6051 76.1629 71.0103C76.1629 71.5516 75.3524 71.8207 73.8677 71.8207V72.9002H85.3497V71.8207C84.4095 72.0803 83.5991 71.808 82.3835 69.9181ZM101.697 42.5H87.246V43.7156C90.3515 43.8518 91.162 44.257 91.162 47.3625V68.2973C91.162 71.539 90.3515 71.808 87.246 71.9442V73.0237H101.428V71.9442C98.1866 71.808 97.3762 71.4028 97.3762 68.2973V60.3292H101.428C109.263 60.3292 113.458 57.2237 113.458 51.4146C113.316 46.416 110.074 42.5 101.697 42.5ZM97.2401 58.5723V46.0108C97.2401 44.9313 97.6453 44.2538 99.8075 44.2538C103.86 44.2538 106.965 46.5489 106.965 50.7372C106.965 55.5997 104.401 58.5723 97.2401 58.5723ZM127.767 51.4146C125.2 51.4146 123.579 53.4407 122.768 55.3306H122.632V52.0889C122.632 51.6837 122.632 51.4146 122.363 51.4146C121.958 51.4146 116.959 52.7664 114.664 53.1716V54.3872C116.69 54.3872 117.231 54.7924 117.231 57.0875V69.38C117.231 71.2794 116.421 71.6751 114.664 71.9473V73.0268H125.874V71.9473C123.848 71.9473 122.632 71.406 122.632 69.0982V57.2205C123.306 56.141 124.117 55.4635 124.927 55.4635C125.36 55.4936 125.779 55.633 126.143 55.8688C126.548 56.1378 127.093 56.8185 128.305 56.8185C128.625 56.8197 128.941 56.7577 129.237 56.6359C129.533 56.5142 129.801 56.3352 130.027 56.1092C130.253 55.8831 130.432 55.6146 130.554 55.3191C130.676 55.0235 130.738 54.7068 130.736 54.3872C130.872 53.0354 129.929 51.4146 127.767 51.4146ZM140.734 51.4146C134.655 51.4146 130.467 56.141 130.467 62.6244C130.467 69.1077 134.655 73.8341 140.734 73.8341C146.812 73.8341 151 69.1077 151 62.6244C151 56.141 146.812 51.4146 140.734 51.4146ZM140.734 71.9442C137.492 71.9442 136.276 69.095 136.276 62.6244C136.276 56.1537 137.628 53.3045 140.734 53.3045C143.975 53.3045 145.191 56.1537 145.191 62.6244C145.33 69.1077 143.975 71.9442 140.734 71.9442ZM37.0918 83.5813H45.1517V84.8792H41.8119V93.9015H40.4063V84.8856H37.0918V83.5813ZM48.4377 86.5127C48.9466 86.2126 49.5279 86.0572 50.1187 86.0632V87.3801C49.7766 87.3439 49.4308 87.3783 49.1027 87.4814C48.7746 87.5845 48.4712 87.754 48.2114 87.9794C47.9516 88.2048 47.7409 88.4812 47.5925 88.7914C47.4441 89.1017 47.3611 89.4392 47.3487 89.7829V93.8983H45.9779V86.1138H47.3487V87.7948C47.5728 87.2666 47.9527 86.8194 48.4377 86.5127ZM56.0259 93.9015V92.8093C55.4455 93.5754 54.5369 93.9584 53.3002 93.9584C52.808 93.9666 52.321 93.8581 51.8788 93.6419C51.4869 93.4538 51.1573 93.1571 50.9291 92.7871C50.7116 92.4173 50.6019 91.9941 50.6125 91.5652C50.6 91.2472 50.6636 90.9308 50.798 90.6423C50.9323 90.3538 51.1335 90.1015 51.3849 89.9064C52.0147 89.4622 52.774 89.2396 53.5439 89.2732H56.0195V88.906C56.0324 88.6705 55.9935 88.435 55.9054 88.2162C55.8173 87.9974 55.6823 87.8006 55.5098 87.6397C55.088 87.3129 54.5606 87.1529 54.0283 87.1902C53.1604 87.2171 52.3216 87.5099 51.6255 88.0291L51.0525 87.0794C51.5364 86.754 52.0585 86.4892 52.6069 86.2911C53.1576 86.1177 53.7328 86.0354 54.31 86.0474C55.283 86.0474 56.0343 86.2858 56.564 86.7628C56.8346 87.0174 57.047 87.3274 57.1869 87.6716C57.3267 88.0157 57.3907 88.386 57.3744 88.7572V93.8856L56.0259 93.9015ZM55.2091 92.3629C55.4209 92.2243 55.6017 92.0433 55.7401 91.8314C55.8785 91.6194 55.9715 91.3811 56.0132 91.1315V90.3496H53.7307C53.2551 90.3179 52.7796 90.4141 52.3536 90.6281C52.2047 90.7197 52.0839 90.8506 52.0045 91.0065C51.9252 91.1623 51.8905 91.337 51.9041 91.5114C51.8983 91.6946 51.9367 91.8766 52.0161 92.0419C52.0954 92.2072 52.2134 92.3509 52.36 92.4611C52.7159 92.7132 53.1463 92.8381 53.5819 92.8156C54.158 92.8361 54.7264 92.678 55.2091 92.3629ZM67.0931 82.9703V93.9015H65.7224V92.3534C65.4456 92.8557 65.0345 93.2711 64.5353 93.5532C64.0048 93.8426 63.4077 93.9878 62.8036 93.9743C62.118 93.9877 61.442 93.8113 60.8504 93.4646C60.2855 93.1271 59.8278 92.6365 59.5303 92.0495C59.2076 91.4078 59.0457 90.6973 59.0586 89.9792C59.0449 89.27 59.2069 88.5685 59.5303 87.9373C59.8312 87.3585 60.2886 86.8759 60.8504 86.5444C61.4387 86.2046 62.1085 86.0316 62.7878 86.0442C63.3978 86.0304 64.0014 86.172 64.5416 86.4557C65.0413 86.7313 65.4504 87.1459 65.7192 87.6492V82.964L67.0931 82.9703ZM64.4466 92.4452C64.8494 92.2114 65.1784 91.8692 65.3963 91.4575C65.6192 91.0112 65.7353 90.5192 65.7353 90.0203C65.7353 89.5214 65.6192 89.0294 65.3963 88.5831C65.1787 88.1713 64.8496 87.829 64.4466 87.5954C64.0327 87.3548 63.5608 87.2322 63.0822 87.2408C62.6028 87.2325 62.1304 87.3574 61.7178 87.6017C61.3156 87.8392 60.9869 88.1832 60.7681 88.5958C60.5469 89.038 60.4317 89.5258 60.4317 90.0203C60.4317 90.5148 60.5469 91.0026 60.7681 91.4449C60.9857 91.8567 61.3148 92.199 61.7178 92.4326C62.1346 92.6643 62.6037 92.7859 63.0806 92.7859C63.5575 92.7859 64.0266 92.6643 64.4435 92.4326L64.4466 92.4452ZM75.7133 87.1332C76.3317 87.8465 76.6409 88.8363 76.6409 90.1026V90.5458H70.4678C70.5465 91.1895 70.8585 91.7819 71.3447 92.211C71.8322 92.6337 72.4598 92.8594 73.1048 92.8441C73.5467 92.8476 73.9848 92.7625 74.3932 92.594C74.784 92.4309 75.1374 92.1896 75.4316 91.8849L76.185 92.6668C75.7972 93.0788 75.3254 93.4027 74.8016 93.6166C74.2308 93.848 73.6194 93.9632 73.0035 93.9553C72.2917 93.9691 71.5884 93.799 70.9616 93.4614C70.3758 93.1403 69.8953 92.6565 69.5782 92.0685C69.2535 91.4357 69.0841 90.7347 69.0841 90.0235C69.0841 89.3122 69.2535 88.6112 69.5782 87.9784C69.8986 87.3933 70.3754 86.9089 70.9553 86.5792C71.5716 86.2339 72.2687 86.0591 72.975 86.0727C74.1801 86.0664 75.0929 86.4199 75.7133 87.1332ZM75.3968 89.4822C75.401 89.1694 75.3404 88.8592 75.2186 88.5711C75.0968 88.283 74.9165 88.0233 74.6892 87.8085C74.4618 87.5936 74.1924 87.4283 73.8979 87.323C73.6034 87.2176 73.2902 87.1746 72.9782 87.1965C72.3462 87.1798 71.732 87.4065 71.2624 87.8297C70.7946 88.2654 70.5038 88.8582 70.4456 89.4948L75.3968 89.4822ZM82.5069 83.5813H83.9157V92.613H88.4236V93.8951H82.5069V83.5813ZM91.3836 83.2489C91.5393 83.423 91.6254 83.6484 91.6254 83.882C91.6254 84.1156 91.5393 84.341 91.3836 84.5152C91.2207 84.6756 91.0012 84.7656 90.7726 84.7656C90.5439 84.7656 90.3245 84.6756 90.1616 84.5152C90.0059 84.341 89.9198 84.1156 89.9198 83.882C89.9198 83.6484 90.0059 83.423 90.1616 83.2489C90.3245 83.0884 90.5439 82.9985 90.7726 82.9985C91.0012 82.9985 91.2207 83.0884 91.3836 83.2489ZM90.0951 86.098H91.4659V93.9015H90.0951V86.098ZM99.5827 93.9015L97.0913 90.1026L95.5749 91.6855V93.9015H94.2042V82.9703H95.5749V89.9348L99.3485 86.1138H100.953L98.0474 89.1339L101.232 93.9078L99.5827 93.9015ZM108.219 87.1332C108.837 87.8465 109.146 88.8363 109.146 90.1026V90.5458H102.973C103.052 91.1894 103.364 91.7817 103.85 92.211C104.338 92.6337 104.965 92.8594 105.61 92.8441C106.052 92.8476 106.49 92.7625 106.899 92.594C107.289 92.4308 107.643 92.1895 107.937 91.8849L108.687 92.6668C108.3 93.0791 107.828 93.403 107.304 93.6166C106.733 93.8482 106.122 93.9633 105.506 93.9553C104.794 93.9692 104.091 93.7991 103.464 93.4614C102.878 93.1406 102.397 92.6568 102.08 92.0685C101.756 91.4356 101.587 90.7346 101.587 90.0235C101.587 89.3123 101.756 88.6114 102.08 87.9784C102.401 87.3934 102.878 86.909 103.458 86.5792C104.074 86.2339 104.771 86.0591 105.477 86.0727C106.687 86.0664 107.6 86.4199 108.219 87.1332ZM107.902 89.4822C107.906 89.1697 107.846 88.8597 107.724 88.5719C107.603 88.284 107.423 88.0245 107.196 87.8097C106.969 87.5949 106.7 87.4295 106.405 87.324C106.111 87.2184 105.799 87.175 105.487 87.1965C104.855 87.1795 104.24 87.4062 103.771 87.8297C103.303 88.265 103.012 88.858 102.954 89.4948L107.902 89.4822ZM119.641 93.9015V92.8093C119.062 93.5754 118.154 93.9584 116.915 93.9584C116.423 93.9666 115.936 93.8581 115.494 93.6419C115.102 93.4536 114.772 93.157 114.544 92.7871C114.327 92.4171 114.217 91.994 114.227 91.5652C114.215 91.2472 114.278 90.9308 114.413 90.6423C114.547 90.3538 114.748 90.1015 115 89.9064C115.629 89.4622 116.389 89.2396 117.159 89.2732H119.634V88.906C119.647 88.6705 119.608 88.435 119.52 88.2162C119.432 87.9974 119.297 87.8006 119.125 87.6397C118.703 87.3127 118.175 87.1526 117.643 87.1902C116.775 87.2169 115.936 87.5098 115.24 88.0291L114.664 87.0794C115.148 86.7539 115.67 86.4891 116.218 86.2911C116.769 86.1176 117.344 86.0352 117.922 86.0474C118.895 86.0474 119.646 86.2858 120.176 86.7628C120.446 87.0177 120.658 87.3277 120.798 87.6718C120.938 88.0159 121.002 88.3861 120.986 88.7572V93.8856L119.641 93.9015ZM118.824 92.3629C119.036 92.2243 119.216 92.0433 119.355 91.8314C119.493 91.6194 119.586 91.3811 119.628 91.1315V90.3496H117.342C116.867 90.3177 116.391 90.4139 115.965 90.6281C115.816 90.7197 115.695 90.8506 115.616 91.0065C115.537 91.1623 115.502 91.337 115.516 91.5114C115.51 91.6946 115.548 91.8766 115.628 92.0419C115.707 92.2072 115.825 92.3509 115.972 92.4611C116.329 92.7135 116.76 92.8384 117.197 92.8156C117.772 92.8355 118.339 92.6774 118.821 92.3629H118.824ZM134.399 84.5025C134.755 84.824 135.035 85.2212 135.217 85.6649C135.4 86.1087 135.48 86.5877 135.453 87.0667C135.453 88.2169 135.1 89.1086 134.393 89.7417C133.686 90.3749 132.694 90.6914 131.417 90.6914H128.853V93.9015H127.438V83.5813H131.401C132.697 83.5813 133.696 83.8884 134.399 84.5025ZM133.389 88.8269C133.631 88.6147 133.821 88.3495 133.944 88.0519C134.067 87.7543 134.12 87.4323 134.098 87.111C134.119 86.7964 134.066 86.4812 133.943 86.1908C133.82 85.9005 133.63 85.6432 133.389 85.4395C132.919 85.0618 132.241 84.8729 131.357 84.8729H128.853V89.3967H131.357C132.231 89.4051 132.908 89.2152 133.389 88.8269ZM139.651 86.5127C140.16 86.2128 140.741 86.0574 141.332 86.0632V87.3801C140.99 87.3434 140.644 87.3775 140.316 87.4804C139.987 87.5834 139.684 87.7528 139.424 87.9783C139.164 88.2037 138.953 88.4803 138.805 88.7908C138.657 89.1013 138.574 89.439 138.562 89.7829V93.8983H137.191V86.1138H138.562V87.7948C138.786 87.2666 139.166 86.8194 139.651 86.5127ZM148.132 86.5634C148.725 86.8861 149.215 87.3687 149.547 87.9563C149.881 88.586 150.056 89.2882 150.056 90.0013C150.056 90.7144 149.881 91.4166 149.547 92.0464C149.217 92.6382 148.727 93.1245 148.132 93.4488C147.489 93.778 146.777 93.9497 146.055 93.9497C145.333 93.9497 144.621 93.778 143.978 93.4488C143.386 93.1262 142.895 92.6435 142.563 92.0559C142.23 91.4246 142.056 90.7215 142.056 90.0077C142.056 89.2938 142.23 88.5907 142.563 87.9594C142.896 87.372 143.386 86.8894 143.978 86.5665C144.622 86.2368 145.334 86.0648 146.057 86.0648C146.78 86.0648 147.492 86.2368 148.135 86.5665L148.132 86.5634ZM144.697 87.6112C144.302 87.8443 143.98 88.1845 143.77 88.5926C143.549 89.0332 143.44 89.5214 143.453 90.014C143.44 90.5137 143.549 91.0091 143.77 91.4575C143.976 91.8699 144.299 92.2131 144.697 92.4452C145.113 92.673 145.579 92.7924 146.054 92.7924C146.528 92.7924 146.994 92.673 147.41 92.4452C147.807 92.2158 148.13 91.876 148.338 91.467C148.565 91.0202 148.679 90.5246 148.67 90.0235C148.679 89.5295 148.564 89.0411 148.338 88.6021C148.127 88.1939 147.806 87.8537 147.41 87.6207C146.996 87.3886 146.529 87.2668 146.054 87.2668C145.579 87.2668 145.112 87.3886 144.697 87.6207V87.6112Z" fill="white"/>
</svg>
