<svg width="68" height="89" viewBox="0 0 68 89" fill="none" xmlns="http://www.w3.org/2000/svg">
<g clip-path="url(#clip0_22279_99)">
<mask id="mask0_22279_99" style="mask-type:luminance" maskUnits="userSpaceOnUse" x="0" y="0" width="68" height="89">
<path d="M67.8499 0H0V89H67.8499V0Z" fill="white"/>
</mask>
<g mask="url(#mask0_22279_99)">
<path d="M1.66341 84.9814C0.746201 84.9814 0 84.2352 0 83.318V1.66341C0 0.746201 0.746201 0 1.66341 0H41.6629C42.0982 0 42.5257 0.178777 42.8366 0.489694L59.5017 17.1548C59.8127 17.4658 59.9914 17.8933 59.9914 18.3286V63.2405C59.9914 64.1577 59.183 63.7069 58.2658 63.7069C57.3486 63.7069 56.6724 64.1577 56.6724 63.2405V19.0126L40.9711 3.31904H3.31904V81.6546H43.4273C44.3445 81.6546 43.8237 82.323 43.8237 83.2402C43.8237 84.1575 44.3445 84.9736 43.4273 84.9736H1.66341V84.9814Z" fill="url(#paint0_linear_22279_99)"/>
<path d="M41.6546 19.9843C40.7374 19.9843 39.9912 19.2381 39.9912 18.3208V1.66345C39.9912 0.987201 40.3954 0.388686 41.0172 0.132179C41.2193 0.0466771 41.4292 0.0078125 41.6546 0.0078125C42.0977 0.0078125 42.5174 0.178817 42.8283 0.497507L59.4935 17.1627C59.9676 17.6368 60.1153 18.3519 59.851 18.9738C59.5945 19.5956 58.9882 19.9998 58.3198 19.9998H41.6546V19.9843ZM43.318 16.6652H54.3089L43.318 5.67428V16.6652Z" fill="url(#paint1_linear_22279_99)"/>
<path d="M11.1605 22.3937C10.2433 22.3937 9.49707 21.6475 9.49707 20.7303C9.49707 19.8131 10.2433 19.0669 11.1605 19.0669H30.6627C31.5799 19.0669 32.3261 19.8131 32.3261 20.7303C32.3261 21.6475 31.5799 22.3937 30.6627 22.3937H11.1605Z" fill="url(#paint2_linear_22279_99)"/>
<path d="M11.1605 66.824C10.2433 66.824 9.49707 66.0778 9.49707 65.1606C9.49707 64.2433 10.2433 63.4971 11.1605 63.4971H30.6627C31.5799 63.4971 32.3261 64.2433 32.3261 65.1606C32.3261 66.0778 31.5799 66.824 30.6627 66.824H11.1605Z" fill="url(#paint3_linear_22279_99)"/>
<path d="M11.1605 37.2013C10.2433 37.2013 9.49707 36.4551 9.49707 35.5379C9.49707 34.6207 10.2433 33.8745 11.1605 33.8745H49.9862C50.9034 33.8745 51.6496 34.6207 51.6496 35.5379C51.6496 36.4551 50.9034 37.2013 49.9862 37.2013H11.1605Z" fill="url(#paint4_linear_22279_99)"/>
<path d="M11.1605 52.0089C10.2433 52.0089 9.49707 51.2627 9.49707 50.3455C9.49707 49.4283 10.2433 48.6821 11.1605 48.6821H49.9862C50.9034 48.6821 51.6496 49.4283 51.6496 50.3455C51.6496 51.2627 50.9034 52.0089 49.9862 52.0089H11.1605Z" fill="url(#paint5_linear_22279_99)"/>
<path d="M60.3965 74.5503C60.5286 74.0839 60.6219 73.5942 60.6841 73.1123C60.7463 72.6303 60.7696 72.1018 60.754 71.6043C60.7385 71.0602 61.0494 70.5628 61.5391 70.3373L64.8582 68.7983L64.3918 67.2437L60.7618 67.609C60.2255 67.6635 59.7125 67.3992 59.4482 66.9328C58.9585 66.07 58.3444 65.2849 57.6216 64.6009C57.2251 64.2278 57.093 63.6526 57.2795 63.1474L58.5388 59.7117L57.1163 58.9422L54.8078 61.7716C54.4657 62.1835 53.9139 62.3623 53.4009 62.2224C52.4526 61.9659 51.4421 61.8415 50.4549 61.8648C49.9108 61.8804 49.4133 61.5695 49.1879 61.0798L47.6489 57.7607L46.0943 58.2271L46.4596 61.8571C46.514 62.3934 46.2498 62.9064 45.7834 63.1707C44.9206 63.6604 44.1355 64.2745 43.4515 64.9973C43.0784 65.3938 42.511 65.5259 41.998 65.3393L38.5623 64.0801L37.7928 65.5026L40.6222 67.8111C41.0419 68.1531 41.2129 68.705 41.073 69.2258C40.9486 69.6922 40.8476 70.1741 40.7932 70.6638C40.7388 71.1535 40.7077 71.6743 40.7232 72.1717C40.7388 72.7159 40.4278 73.2133 39.9381 73.4387L36.6191 74.9778L37.0855 76.5324L40.7154 76.167C41.2518 76.1126 41.7648 76.3769 42.0291 76.8433C42.5188 77.7061 43.1328 78.4911 43.8557 79.1752C44.2521 79.5483 44.3843 80.1235 44.1977 80.6287L42.9385 84.0643L44.3609 84.8338L46.6695 82.0045C47.0115 81.5925 47.5634 81.4138 48.0764 81.5537C49.0247 81.8179 50.043 81.9345 51.0223 81.9112C51.0923 81.9112 51.1623 81.9112 51.2244 81.919C51.683 81.9734 52.0872 82.2688 52.2893 82.6963L53.8284 86.0153L55.383 85.5567L55.0176 81.9268C54.9632 81.3904 55.2275 80.8774 55.6939 80.6131C56.5567 80.1234 57.3417 79.5094 58.0257 78.7865C58.3988 78.3901 58.9663 78.2579 59.4793 78.4445L62.9149 79.7037L63.6844 78.2813L60.8551 75.9727C60.4354 75.6307 60.2643 75.0788 60.4043 74.5658L60.3965 74.5503ZM50.3228 76.3225C47.9443 76.0271 46.2575 73.8662 46.5529 71.4955C46.8483 69.1248 49.0092 67.4303 51.3799 67.7256C53.7506 68.021 55.4451 70.1819 55.1498 72.5526C54.8544 74.9234 52.6935 76.6179 50.3228 76.3225Z" fill="white"/>
<path d="M52.9108 88.9925C52.46 88.938 52.048 88.6504 51.8459 88.2152L50.1747 84.6085C49.5218 84.5774 48.8689 84.4997 48.2237 84.3676L45.7442 87.4068C45.3322 87.912 44.6171 88.0519 44.0497 87.741L40.6063 85.8755C40.0155 85.5568 39.7435 84.8495 39.9767 84.2121L41.3447 80.4811C40.9016 79.9992 40.4974 79.4784 40.1321 78.9343L36.2301 79.3307C35.5772 79.3929 34.9787 78.9887 34.7921 78.3669L33.6728 74.6125C33.4785 73.9674 33.7894 73.2756 34.4035 72.9958L38.0101 71.3246C38.0257 70.9904 38.0567 70.6561 38.0956 70.3219C38.1345 69.9877 38.1889 69.6845 38.2511 69.3736L35.2119 66.894C34.7066 66.4821 34.5667 65.767 34.8776 65.1995L36.7431 61.7561C37.0618 61.1654 37.7691 60.9011 38.4065 61.1265L42.1375 62.4946C42.6195 62.0515 43.1402 61.6473 43.6843 61.282L43.2879 57.38C43.2257 56.7348 43.6299 56.1285 44.2518 55.942L48.0061 54.8227C48.6512 54.6284 49.343 54.9393 49.6229 55.5533L51.294 59.16C51.947 59.1911 52.5999 59.2688 53.245 59.4009L55.7246 56.3617C56.1366 55.8565 56.8517 55.7166 57.4191 56.0275L60.8625 57.893C61.4533 58.2117 61.7253 58.919 61.4921 59.5564L60.1241 63.2874C60.5671 63.7693 60.9713 64.2901 61.3367 64.8342L65.2387 64.4378C65.8838 64.3756 66.4901 64.772 66.6767 65.4016L67.796 69.156C67.9903 69.8011 67.6794 70.4929 67.0653 70.7727L63.4587 72.4439C63.4431 72.7781 63.412 73.1124 63.3732 73.4466C63.3343 73.7808 63.2799 74.084 63.2177 74.3949L66.2569 76.8745C66.7622 77.2864 66.9021 78.0015 66.5912 78.569L64.7257 82.0124C64.407 82.6031 63.6996 82.8752 63.0623 82.642L59.3312 81.2739C58.8493 81.717 58.3285 82.1212 57.7844 82.4865L58.1809 86.3885C58.243 87.0337 57.8388 87.64 57.217 87.8265L53.4627 88.9458C53.2761 89.0002 53.0896 89.0158 52.9108 88.9925ZM51.2163 81.9113C51.6749 81.9657 52.0791 82.2611 52.2812 82.6886L53.8202 86.0077L55.3748 85.5491L55.0095 81.9191C54.9551 81.3828 55.2194 80.8697 55.6857 80.6055C56.5485 80.1158 57.3336 79.5017 58.0176 78.7788C58.3907 78.3824 58.9581 78.2503 59.4712 78.4368L62.9068 79.696L63.6763 78.2736L60.847 75.965C60.4272 75.623 60.2562 75.0711 60.3961 74.5581C60.5283 74.0918 60.6216 73.6021 60.6837 73.1201C60.7459 72.6382 60.7692 72.1097 60.7537 71.6122C60.7382 71.0681 61.0491 70.5706 61.5388 70.3452L64.8578 68.8062L64.3914 67.2516L60.7615 67.6169C60.2251 67.6713 59.7121 67.407 59.4478 66.9407C58.9582 66.0779 58.3441 65.2928 57.6212 64.6088C57.2248 64.2357 57.0926 63.6683 57.2792 63.1553L58.5384 59.7196L57.116 58.9501L54.8074 61.7794C54.4654 62.1914 53.9135 62.3702 53.4005 62.2303C52.4522 61.9738 51.4417 61.8494 50.4546 61.8727C49.9105 61.8883 49.413 61.5773 49.1876 61.0877L47.6485 57.7686L46.094 58.235L46.4593 61.8649C46.5137 62.4013 46.2494 62.9143 45.783 63.1786C44.9202 63.6683 44.1352 64.2823 43.4512 65.0052C43.0781 65.4016 42.5106 65.5338 41.9976 65.3472L38.562 64.088L37.7925 65.5104L40.6218 67.819C41.0416 68.161 41.2126 68.7129 41.0726 69.2337C40.9483 69.7001 40.8472 70.182 40.7928 70.6717C40.7384 71.1614 40.7073 71.6822 40.7229 72.1796C40.7384 72.7237 40.4275 73.2212 39.9378 73.4466L36.6188 74.9856L37.0851 76.5402L40.7151 76.1749C41.2514 76.1205 41.7644 76.3848 42.0287 76.8512C42.5184 77.7139 43.1325 78.499 43.8553 79.183C44.2518 79.5561 44.3839 80.1236 44.1974 80.6366L42.9381 84.0722L44.3606 84.8417L46.6692 82.0124C47.0112 81.6004 47.563 81.4216 48.076 81.5615C49.0243 81.8258 50.0426 81.9424 51.022 81.9191C51.0919 81.9191 51.1619 81.9191 51.2241 81.9269L51.2163 81.9113Z" fill="url(#paint6_linear_22279_99)"/>
<path d="M50.0434 77.4648C46.9654 77.0839 44.7734 74.2779 45.1543 71.1998C45.5351 68.1217 48.3412 65.9297 51.4192 66.3106C54.4973 66.6915 56.6893 69.4975 56.3084 72.5756C55.9275 75.6537 53.1215 77.8456 50.0434 77.4648ZM51.085 69.0078C49.4993 68.8135 48.0458 69.9483 47.8515 71.534C47.6571 73.1197 48.792 74.5732 50.3777 74.7676C51.9633 74.9619 53.4169 73.827 53.6112 72.2414C53.8055 70.6557 52.6707 69.2021 51.085 69.0078Z" fill="url(#paint7_linear_22279_99)"/>
</g>
</g>
<defs>
<linearGradient id="paint0_linear_22279_99" x1="29.9957" y1="0" x2="29.9957" y2="84.9814" gradientUnits="userSpaceOnUse">
<stop stop-color="#1980CF"/>
<stop offset="1" stop-color="#172041"/>
</linearGradient>
<linearGradient id="paint1_linear_22279_99" x1="49.9862" y1="0.0078125" x2="49.9862" y2="19.9998" gradientUnits="userSpaceOnUse">
<stop stop-color="#1980CF"/>
<stop offset="1" stop-color="#172041"/>
</linearGradient>
<linearGradient id="paint2_linear_22279_99" x1="20.9116" y1="19.0669" x2="20.9116" y2="22.3937" gradientUnits="userSpaceOnUse">
<stop stop-color="#1980CF"/>
<stop offset="1" stop-color="#172041"/>
</linearGradient>
<linearGradient id="paint3_linear_22279_99" x1="20.9116" y1="63.4971" x2="20.9116" y2="66.824" gradientUnits="userSpaceOnUse">
<stop stop-color="#1980CF"/>
<stop offset="1" stop-color="#172041"/>
</linearGradient>
<linearGradient id="paint4_linear_22279_99" x1="30.5733" y1="33.8745" x2="30.5733" y2="37.2013" gradientUnits="userSpaceOnUse">
<stop stop-color="#1980CF"/>
<stop offset="1" stop-color="#172041"/>
</linearGradient>
<linearGradient id="paint5_linear_22279_99" x1="30.5733" y1="48.6821" x2="30.5733" y2="52.0089" gradientUnits="userSpaceOnUse">
<stop stop-color="#1980CF"/>
<stop offset="1" stop-color="#172041"/>
</linearGradient>
<linearGradient id="paint6_linear_22279_99" x1="50.7344" y1="54.7651" x2="50.7344" y2="89.003" gradientUnits="userSpaceOnUse">
<stop stop-color="#1980CF"/>
<stop offset="1" stop-color="#172041"/>
</linearGradient>
<linearGradient id="paint7_linear_22279_99" x1="50.7314" y1="66.2676" x2="50.7314" y2="77.5078" gradientUnits="userSpaceOnUse">
<stop stop-color="#1980CF"/>
<stop offset="1" stop-color="#172041"/>
</linearGradient>
<clipPath id="clip0_22279_99">
<rect width="68" height="89" fill="white"/>
</clipPath>
</defs>
</svg>
