<svg width="113" height="83" viewBox="0 0 113 83" fill="none" xmlns="http://www.w3.org/2000/svg">
<g clip-path="url(#clip0_22279_76)">
<mask id="mask0_22279_76" style="mask-type:luminance" maskUnits="userSpaceOnUse" x="0" y="0" width="113" height="83">
<path d="M112.15 0H0V82.6091H112.15V0Z" fill="white"/>
</mask>
<g mask="url(#mask0_22279_76)">
<path d="M103.661 82.6088C103.185 82.6088 102.649 82.3111 102.071 81.7327C100.472 80.1421 98.9065 78.5345 97.2393 76.8333C96.5078 76.0848 95.7678 75.3278 95.0023 74.5452L94.2623 73.7967L93.5307 74.5537C93.0629 75.0386 92.6036 75.5064 92.1613 75.9742C91.1831 76.9864 90.2645 77.9476 89.3118 78.9002C88.6143 79.5977 87.9509 79.9635 87.4065 79.9635C86.5729 79.9635 85.9775 79.0363 85.6203 78.2538C83.2131 72.9291 80.8145 67.5959 78.4158 62.2712C75.5493 55.9003 72.6743 49.5294 69.7993 43.167C69.1189 41.67 69.2975 41.0831 69.8504 40.5217C70.2076 40.1645 70.5564 40.0029 70.9817 40.0029C71.3814 40.0029 71.8578 40.1304 72.4787 40.4196C78.9517 43.3457 85.4246 46.2632 91.8976 49.1807C97.1202 51.5368 102.343 53.8844 107.557 56.2406C108.28 56.5723 109.173 57.1082 109.309 57.8227C109.42 58.4011 109.02 59.1836 108.178 60.0257C107.693 60.519 107.2 61.0124 106.715 61.4972C106 62.2202 105.277 62.9432 104.563 63.6747C104.376 63.8703 104.291 64.066 104.223 64.2446C104.197 64.3126 104.163 64.3977 104.112 64.5083L103.814 65.1632L104.325 65.6651C105.022 66.3541 105.72 67.043 106.417 67.732C107.974 69.2716 109.59 70.8537 111.146 72.4273C112.473 73.7627 112.482 74.5027 111.146 75.8466C108.909 78.1177 107.03 79.9975 105.226 81.7667C104.648 82.3366 104.121 82.6258 103.653 82.6258L103.661 82.6088ZM94.2537 69.6458C94.8066 69.6458 95.6827 70.4114 96.831 71.5597C98.2005 72.9376 99.5699 74.3241 100.956 75.7275L103.602 78.4154L107.897 74.0264L107.174 73.3034C106.451 72.5889 105.737 71.8744 105.022 71.1769C103.355 69.5268 101.773 67.9702 100.182 66.3711C99.5529 65.7331 99.2297 65.1717 99.2297 64.6954C99.2297 64.2361 99.5444 63.7002 100.148 63.1048C100.854 62.4158 101.611 61.7949 102.487 61.0719C102.904 60.7317 103.338 60.3659 103.797 59.9832L105.039 58.9284L74.5967 45.2255L88.2061 75.4128L89.2608 74.239C89.5755 73.8903 89.8647 73.5585 90.1369 73.2523C90.6728 72.6399 91.1321 72.1125 91.6254 71.6192C92.7992 70.4369 93.6924 69.6458 94.2623 69.6458H94.2537Z" fill="#1980CF"/>
<path d="M94.2538 69.646C94.8067 69.646 95.6828 70.4115 96.8311 71.5598C98.2005 72.9378 99.57 74.3242 100.956 75.7277L103.602 78.4155L107.897 74.0265L107.174 73.3035C106.451 72.589 105.737 71.8745 105.022 71.177C103.355 69.5269 101.773 67.9703 100.182 66.3712C99.5529 65.7333 99.2297 65.1719 99.2297 64.6956C99.2297 64.2362 99.5444 63.7004 100.148 63.105C100.854 62.416 101.611 61.7951 102.487 61.0721C102.904 60.7318 103.338 60.3661 103.797 59.9833L105.039 58.9286L74.5967 45.2256L88.2061 75.413L89.2608 74.2392C89.5756 73.8904 89.8647 73.5587 90.1369 73.2525C90.6728 72.6401 91.1321 72.1127 91.6255 71.6193C92.7993 70.437 93.6924 69.646 94.2623 69.646H94.2538Z" fill="#68CDED"/>
<path d="M26.9559 50.0823C26.4625 50.0737 26.1138 49.776 26.0287 49.2997C25.9947 49.1126 25.9947 48.9084 25.9947 48.6958C25.9947 46.3056 25.9947 43.924 25.9947 41.5338V38.9651H24.6083C24.3531 38.9651 24.1064 38.9651 23.8597 38.9651C23.0432 38.9651 22.6689 38.5823 22.6689 37.7913C22.6689 34.2528 22.6689 30.6378 22.6689 27.0398C22.6689 26.2403 23.0517 25.866 23.8597 25.866C24.1064 25.866 24.3616 25.866 24.6083 25.866H26.0032V24.7262C26.0032 24.0117 25.9947 23.2717 26.0032 22.5062C26.0117 21.8768 26.4285 21.4004 26.9729 21.4004C27.1005 21.4004 27.2366 21.426 27.3642 21.4855C27.781 21.6726 27.9766 22.0044 27.9766 22.5487V25.8575H29.363C29.6182 25.8575 29.8734 25.8575 30.1201 25.8575C30.9366 25.8575 31.3109 26.2403 31.3109 27.0313C31.3109 30.5783 31.3109 34.1933 31.3109 37.7828C31.3109 38.5823 30.9281 38.9566 30.1201 38.9651C29.8734 38.9651 29.6182 38.9651 29.3716 38.9651H27.9766V42.3504C27.9766 44.5109 27.9766 46.6799 27.9766 48.8489C27.9766 49.6655 27.6449 50.0737 26.9984 50.0823H26.9644H26.9559Z" fill="white"/>
<path d="M64.7301 40.6666C64.6025 40.6666 64.475 40.6411 64.3389 40.5901C63.8966 40.4199 63.6839 40.0882 63.6839 39.5693C63.6839 38.4211 63.6839 37.2643 63.6839 36.1415V33.981H61.634C60.6983 33.981 60.3496 33.6237 60.3496 32.6796C60.3496 26.9551 60.3496 21.2307 60.3496 15.5062C60.3496 14.5366 60.6983 14.1963 61.668 14.1878H63.6924V11.5935C63.6924 11.5085 63.6924 11.4319 63.6924 11.3468C63.6924 11.1172 63.6924 10.9216 63.7009 10.7174C63.7434 10.156 64.1602 9.73926 64.6791 9.73926C65.2065 9.73926 65.6318 10.156 65.6573 10.7089C65.6828 11.2193 65.6828 11.7381 65.6743 12.24C65.6743 12.4696 65.6743 12.6823 65.6743 12.8949V14.1963H66.3803C66.5589 14.2048 66.746 14.2133 66.9161 14.2133C67.2053 14.2133 67.4435 14.2133 67.6476 14.1963C67.7072 14.1963 67.7582 14.1963 67.8093 14.1963C68.4132 14.1963 68.7959 14.443 69.0171 14.9618L69.0511 15.0384V33.1729L69.0171 33.2495C68.7874 33.7768 68.4047 34.015 67.8008 34.015C67.7497 34.015 67.6987 34.015 67.6476 34.015C67.4605 34.0065 67.2224 33.998 66.9332 33.998C66.7715 33.998 66.6014 33.998 66.4228 33.998C66.2952 33.998 65.7168 33.998 65.7168 33.998L65.6998 34.3297C65.6998 34.4743 65.6828 34.5934 65.6828 34.721C65.6828 35.1718 65.6828 35.6226 65.6828 36.0734C65.6828 37.1877 65.6828 38.3105 65.6658 39.4162C65.6658 39.7565 65.5297 40.1307 65.3426 40.3859C65.2065 40.5815 64.9938 40.6836 64.7471 40.6836L64.7301 40.6666Z" fill="white"/>
<path d="M52.1414 45.1066C52.0308 45.1066 51.9117 45.0896 51.7926 45.0471C51.3503 44.8855 51.1292 44.5622 51.1292 44.0349C51.1292 43.3034 51.1292 42.5719 51.1292 41.8148V40.658H49.7512H49.0112C48.1351 40.658 47.7949 40.3178 47.7949 39.4587C47.7949 34.3637 47.7949 29.2517 47.7949 24.2757C47.7949 23.4421 48.1351 23.0934 48.9687 23.0849C49.2153 23.0849 49.4705 23.0849 49.7257 23.0849H51.1377V20.8053C51.1377 20.0568 51.1377 19.2913 51.1377 18.5343C51.1462 17.9218 51.5119 17.5391 52.0988 17.5391C52.6942 17.5391 53.077 17.9473 53.0855 18.5513C53.094 19.5635 53.0855 20.5586 53.0855 21.6134V23.0849H55.0929C56.0711 23.0849 56.4198 23.4336 56.4198 24.3948C56.4198 29.3877 56.4198 34.3807 56.4198 39.3736C56.4198 40.3263 56.0796 40.658 55.1354 40.6665H53.077V41.7978C53.077 42.5719 53.077 43.3034 53.077 44.0519C53.077 44.6643 52.6602 45.1151 52.1329 45.1151L52.1414 45.1066Z" fill="white"/>
<path d="M39.5446 43.9924C38.9577 43.9924 38.5664 43.5416 38.5664 42.8696C38.5664 41.9595 38.5664 41.0663 38.5664 40.1222V38.4295H37.1969C36.9503 38.4295 36.7036 38.4295 36.4569 38.4295C35.5808 38.421 35.2236 38.0638 35.2236 37.1792C35.2236 31.4037 35.2236 25.6282 35.2236 19.8527C35.2236 18.9851 35.5638 18.6449 36.4229 18.6449C36.6696 18.6449 36.9162 18.6449 37.1714 18.6449H38.5664V17.7687C38.5664 17.2669 38.5664 16.7991 38.5664 16.3227C38.5749 15.7784 38.9066 15.3786 39.4 15.3191C39.451 15.3191 39.5105 15.3105 39.5531 15.3105C40.0974 15.3105 40.4887 15.7018 40.5142 16.2632C40.5312 16.7565 40.5312 17.2499 40.5227 17.7687V18.6534H41.8752H42.6152C43.5763 18.6534 43.8655 18.9511 43.8655 19.9037C43.8655 25.6622 43.8655 31.4207 43.8655 37.1792C43.8655 38.1063 43.5338 38.4295 42.5982 38.438H41.6625C41.3988 38.438 41.1352 38.438 40.88 38.4465H40.5227V41.1429C40.5227 41.7128 40.5227 42.2912 40.5227 42.8696C40.5227 43.5501 40.1315 43.9924 39.5531 43.9924H39.5446Z" fill="white"/>
<path d="M69.4845 78.4922H61.0041V67.4091H73.3036C74.6816 67.4091 75.6002 65.9886 75.0303 64.7382L75.0133 64.6957C74.7071 64.0152 74.0266 63.5814 73.2866 63.5814H3.82764V56.3259H68.3107C69.6886 56.3259 70.6073 54.9054 70.0374 53.6551L70.0204 53.6211C69.7142 52.9406 69.0422 52.5068 68.2937 52.5068H3.82764V3.82764H92.1357V43.5586C92.1357 44.2986 92.5695 44.9791 93.2499 45.2853C93.2669 45.2853 93.284 45.3023 93.301 45.3023C94.5513 45.8637 95.9718 44.9536 95.9718 43.5756V1.91382C95.9718 0.859094 95.1127 0 94.058 0H1.91382C0.859094 0 0 0.859094 0 1.91382V65.4953C0 66.55 0.859094 67.4091 1.91382 67.4091H35.0102V78.4922H26.3342C25.339 78.4922 24.4374 79.2237 24.3438 80.2189C24.2332 81.3587 25.1264 82.3284 26.2491 82.3284H69.5696C70.6923 82.3284 71.5855 81.3672 71.4749 80.2189C71.3813 79.2237 70.4882 78.4922 69.4845 78.4922ZM57.1765 78.4922H38.8378V67.4091H57.1765V78.4922Z" fill="url(#paint0_linear_22279_76)"/>
<path d="M103.661 82.6088C103.185 82.6088 102.649 82.3111 102.071 81.7327C100.472 80.1421 98.9065 78.5345 97.2393 76.8333C96.5078 76.0848 95.7678 75.3278 95.0023 74.5452L94.2623 73.7967L93.5307 74.5537C93.0629 75.0386 92.6036 75.5064 92.1613 75.9742C91.1831 76.9864 90.2645 77.9476 89.3118 78.9002C88.6143 79.5977 87.9509 79.9635 87.4065 79.9635C86.5729 79.9635 85.9775 79.0363 85.6203 78.2538C83.2131 72.9291 80.8145 67.5959 78.4158 62.2712C75.5493 55.9003 72.6743 49.5294 69.7993 43.167C69.1189 41.67 69.2975 41.0831 69.8504 40.5217C70.2076 40.1645 70.5564 40.0029 70.9817 40.0029C71.3814 40.0029 71.8578 40.1304 72.4787 40.4196C78.9517 43.3457 85.4246 46.2632 91.8976 49.1807C97.1202 51.5368 102.343 53.8844 107.557 56.2406C108.28 56.5723 109.173 57.1082 109.309 57.8227C109.42 58.4011 109.02 59.1836 108.178 60.0257C107.693 60.519 107.2 61.0124 106.715 61.4972C106 62.2202 105.277 62.9432 104.563 63.6747C104.376 63.8703 104.291 64.066 104.223 64.2446C104.197 64.3126 104.163 64.3977 104.112 64.5083L103.814 65.1632L104.325 65.6651C105.022 66.3541 105.72 67.043 106.417 67.732C107.974 69.2716 109.59 70.8537 111.146 72.4273C112.473 73.7627 112.482 74.5027 111.146 75.8466C108.909 78.1177 107.03 79.9975 105.226 81.7667C104.648 82.3366 104.121 82.6258 103.653 82.6258L103.661 82.6088ZM94.2537 69.6458C94.8066 69.6458 95.6827 70.4114 96.831 71.5597C98.2005 72.9376 99.5699 74.3241 100.956 75.7275L103.602 78.4154L107.897 74.0264L107.174 73.3034C106.451 72.5889 105.737 71.8744 105.022 71.1769C103.355 69.5268 101.773 67.9702 100.182 66.3711C99.5529 65.7331 99.2297 65.1717 99.2297 64.6954C99.2297 64.2361 99.5444 63.7002 100.148 63.1048C100.854 62.4158 101.611 61.7949 102.487 61.0719C102.904 60.7317 103.338 60.3659 103.797 59.9832L105.039 58.9284L74.5967 45.2255L88.2061 75.4128L89.2608 74.239C89.5755 73.8903 89.8647 73.5585 90.1369 73.2523C90.6728 72.6399 91.1321 72.1125 91.6254 71.6192C92.7992 70.4369 93.6924 69.6458 94.2623 69.6458H94.2537Z" fill="url(#paint1_linear_22279_76)"/>
<path d="M94.2538 69.646C94.8067 69.646 95.6828 70.4115 96.8311 71.5598C98.2005 72.9378 99.57 74.3242 100.956 75.7277L103.602 78.4155L107.897 74.0265L107.174 73.3035C106.451 72.589 105.737 71.8745 105.022 71.177C103.355 69.5269 101.773 67.9703 100.182 66.3712C99.5529 65.7333 99.2297 65.1719 99.2297 64.6956C99.2297 64.2362 99.5444 63.7004 100.148 63.105C100.854 62.416 101.611 61.7951 102.487 61.0721C102.904 60.7318 103.338 60.3661 103.797 59.9833L105.039 58.9286L74.5967 45.2256L88.2061 75.413L89.2608 74.2392C89.5756 73.8904 89.8647 73.5587 90.1369 73.2525C90.6728 72.6401 91.1321 72.1127 91.6255 71.6193C92.7993 70.437 93.6924 69.646 94.2623 69.646H94.2538Z" fill="white"/>
</g>
</g>
<defs>
<linearGradient id="paint0_linear_22279_76" x1="47.9859" y1="0" x2="47.9859" y2="82.3284" gradientUnits="userSpaceOnUse">
<stop stop-color="#1980CF"/>
<stop offset="1" stop-color="#172041"/>
</linearGradient>
<linearGradient id="paint1_linear_22279_76" x1="90.7515" y1="40.0029" x2="90.7515" y2="82.6258" gradientUnits="userSpaceOnUse">
<stop stop-color="#1980CF"/>
<stop offset="1" stop-color="#172041"/>
</linearGradient>
<clipPath id="clip0_22279_76">
<rect width="113" height="83" fill="white"/>
</clipPath>
</defs>
</svg>
