<svg width="104" height="80" viewBox="0 0 104 80" fill="none" xmlns="http://www.w3.org/2000/svg">
<g clip-path="url(#clip0_22279_90)">
<path d="M3.42598 66.6406L21.6222 56.8041V37.2354C21.6222 37.2354 10.6084 37.2354 7.16694 42.9409C3.72553 48.6464 -1.29029 55.5292 3.43293 66.6406H3.42598Z" fill="white"/>
<path d="M97.9324 72.9452H36.7325C35.7712 72.9452 34.9909 72.165 34.9909 71.2036C34.9909 70.2422 35.7712 69.462 36.7325 69.462H97.9324C99.3605 69.462 100.531 68.2986 100.531 66.8635V6.0747C100.531 4.64659 99.3674 3.47623 97.9324 3.47623H15.9517C14.5236 3.47623 13.3533 4.63962 13.3533 6.0747V39.8966C13.3533 40.858 12.5731 41.6382 11.6117 41.6382C10.6503 41.6382 9.87012 40.858 9.87012 39.8966V6.0747C9.87012 2.72386 12.594 0 15.9448 0H97.9254C101.276 0 104 2.72386 104 6.0747V66.8705C104 70.2213 101.276 72.9452 97.9254 72.9452H97.9324Z" fill="url(#paint0_linear_22279_90)"/>
<path d="M22.075 79.2291C9.94646 79.2291 0.0820312 69.3647 0.0820312 57.2362C0.0820312 45.1077 9.94646 35.2432 22.075 35.2432C34.2035 35.2432 44.0679 45.1077 44.0679 57.2362C44.0679 69.3647 34.2035 79.2291 22.075 79.2291ZM22.075 38.7264C11.8692 38.7264 3.56523 47.0304 3.56523 57.2362C3.56523 67.4419 11.8692 75.7459 22.075 75.7459C32.2808 75.7459 40.5847 67.4419 40.5847 57.2362C40.5847 47.0304 32.2808 38.7264 22.075 38.7264Z" fill="url(#paint1_linear_22279_90)"/>
<path d="M42.327 58.9778H22.0756C21.1143 58.9778 20.334 58.1975 20.334 57.2362V36.9848C20.334 36.0235 21.1143 35.2432 22.0756 35.2432C23.037 35.2432 23.8172 36.0235 23.8172 36.9848V55.4946H42.327C43.2883 55.4946 44.0686 56.2748 44.0686 57.2362C44.0686 58.1975 43.2883 58.9778 42.327 58.9778Z" fill="url(#paint2_linear_22279_90)"/>
<path d="M4.14316 68.3822C3.51618 68.3822 2.91009 68.0408 2.60357 67.4487C2.15772 66.5988 2.48515 65.5468 3.33505 65.101L21.2736 55.6963C22.1235 55.2505 23.1754 55.5779 23.6212 56.4278C24.0671 57.2777 23.7396 58.3296 22.8897 58.7755L4.95124 68.1801C4.69348 68.3125 4.41485 68.3822 4.14316 68.3822Z" fill="url(#paint3_linear_22279_90)"/>
<path d="M89.476 9.16113C85.8743 9.16113 82.9415 12.0939 82.9415 15.6956C82.9415 16.643 83.1505 17.5417 83.5127 18.3567L76.1214 24.0274C75.0625 23.289 73.7807 22.857 72.4013 22.857C71.022 22.857 69.7611 23.282 68.7091 24.0065L63.6445 19.8824C64.2576 18.8862 64.6198 17.7228 64.6198 16.4688C64.6198 12.8672 61.687 9.9344 58.0854 9.9344C54.4837 9.9344 51.5509 12.8672 51.5509 16.4688C51.5509 17.7437 51.9271 18.935 52.561 19.9381L46.6465 25.2953C45.6712 24.7171 44.5357 24.3757 43.3236 24.3757C39.7219 24.3757 36.7891 27.3086 36.7891 30.9102C36.7891 34.5118 39.7219 37.4447 43.3236 37.4447C46.9252 37.4447 49.858 34.5118 49.858 30.9102C49.858 29.4473 49.3704 28.0958 48.5484 27.002L54.3096 21.7912C55.3754 22.5505 56.6781 23.0033 58.0854 23.0033C59.4926 23.0033 60.8301 22.5366 61.9099 21.7563L66.9257 25.8387C66.257 26.8627 65.8668 28.0818 65.8668 29.3915C65.8668 32.9932 68.7997 35.926 72.4013 35.926C76.0029 35.926 78.9358 32.9932 78.9358 29.3915C78.9358 28.0958 78.5527 26.8906 77.8978 25.8735L84.9896 20.4327C86.16 21.5404 87.7344 22.2301 89.476 22.2301C93.0776 22.2301 96.0105 19.2972 96.0105 15.6956C96.0105 12.0939 93.0776 9.16113 89.476 9.16113Z" fill="white"/>
<path d="M91.948 50.7498H58.6068C57.6455 50.7498 56.8652 49.9696 56.8652 49.0082C56.8652 48.0469 57.6455 47.2666 58.6068 47.2666H91.948C92.9094 47.2666 93.6896 48.0469 93.6896 49.0082C93.6896 49.9696 92.9094 50.7498 91.948 50.7498Z" fill="url(#paint4_linear_22279_90)"/>
<path d="M91.948 60.8792H58.6068C57.6455 60.8792 56.8652 60.099 56.8652 59.1376C56.8652 58.1763 57.6455 57.396 58.6068 57.396H91.948C92.9094 57.396 93.6896 58.1763 93.6896 59.1376C93.6896 60.099 92.9094 60.8792 91.948 60.8792Z" fill="url(#paint5_linear_22279_90)"/>
</g>
<defs>
<linearGradient id="paint0_linear_22279_90" x1="56.9352" y1="0" x2="56.9352" y2="72.9452" gradientUnits="userSpaceOnUse">
<stop stop-color="#1980CF"/>
<stop offset="1" stop-color="#172041"/>
</linearGradient>
<linearGradient id="paint1_linear_22279_90" x1="22.0749" y1="35.2432" x2="26" y2="66" gradientUnits="userSpaceOnUse">
<stop stop-color="#1980CF"/>
<stop offset="1" stop-color="#172041"/>
</linearGradient>
<linearGradient id="paint2_linear_22279_90" x1="23" y1="35" x2="22.5" y2="57" gradientUnits="userSpaceOnUse">
<stop stop-color="#1980CF"/>
<stop offset="1" stop-color="#172041"/>
</linearGradient>
<linearGradient id="paint3_linear_22279_90" x1="3.5" y1="63.5" x2="20.5" y2="55" gradientUnits="userSpaceOnUse">
<stop stop-color="#202D5B"/>
<stop offset="1" stop-color="#172041"/>
</linearGradient>
<linearGradient id="paint4_linear_22279_90" x1="56.8652" y1="49.0082" x2="93.6896" y2="49.0082" gradientUnits="userSpaceOnUse">
<stop stop-color="#1980CF"/>
<stop offset="1" stop-color="#172041"/>
</linearGradient>
<linearGradient id="paint5_linear_22279_90" x1="56.8652" y1="59.1376" x2="93.6896" y2="59.1376" gradientUnits="userSpaceOnUse">
<stop stop-color="#1980CF"/>
<stop offset="1" stop-color="#172041"/>
</linearGradient>
<clipPath id="clip0_22279_90">
<rect width="104" height="80" fill="white"/>
</clipPath>
</defs>
</svg>
