<svg width="288" height="294" viewBox="0 0 288 294" fill="none" xmlns="http://www.w3.org/2000/svg">
<path d="M232.485 259.751C245.162 267.252 245.225 279.406 232.628 286.908C220.046 294.409 199.567 294.409 186.891 286.908C174.214 279.406 174.151 267.252 186.748 259.766C199.346 252.265 219.809 252.265 232.485 259.766V259.751Z" fill="#3B53A7" fill-opacity="0.2"/>
<path d="M244.702 232.894C257.379 238.971 257.442 248.831 244.844 254.908C232.263 260.985 211.784 260.985 199.108 254.908C186.431 248.831 186.368 238.971 198.965 232.894C211.563 226.817 232.026 226.817 244.702 232.894Z" fill="#3B53A7" fill-opacity="0.2"/>
<path d="M111.242 236.297L141.169 219.696L126.166 211.656L82.4071 234.366L96.0016 243.213L111.242 236.297Z" fill="#3B53A7" fill-opacity="0.2"/>
<path d="M73.7036 214.109L103.646 197.507L88.6275 189.452L44.8846 212.178L58.4633 221.009L73.7036 214.109Z" fill="#3B53A7" fill-opacity="0.2"/>
<path d="M34.9761 193.108L53.3975 182.979L38.3945 174.94L6.1571 191.177L19.7357 200.008L34.9761 193.108Z" fill="#3B53A7" fill-opacity="0.2"/>
<path d="M264.555 206.876C261.485 206.876 259 209.377 259 212.431C259 215.486 261.5 217.986 264.555 217.986C267.609 217.986 270.11 215.486 270.11 212.431C270.11 209.377 267.609 206.876 264.555 206.876ZM264.555 214.742C263.289 214.742 262.26 213.713 262.26 212.447C262.26 211.181 263.289 210.152 264.555 210.152C265.821 210.152 266.85 211.181 266.85 212.447C266.85 213.713 265.821 214.742 264.555 214.742Z" fill="#68CDED"/>
<path d="M25.0213 127.296C22.0263 127.972 20.1527 130.958 20.8248 133.937C21.4968 136.917 24.4862 138.806 27.4658 138.134C30.4453 137.462 32.3343 134.472 31.6623 131.493C30.9903 128.513 28.0009 126.624 25.0213 127.296ZM26.7519 134.969C25.5169 135.248 24.2871 134.471 24.0085 133.236C23.7299 132 24.5071 130.771 25.7421 130.492C26.9772 130.214 28.207 130.991 28.4855 132.226C28.7641 133.461 27.987 134.691 26.7519 134.969Z" fill="#68CDED"/>
<path d="M266.596 196.684C267.89 196.684 268.938 195.636 268.938 194.342C268.938 193.049 267.89 192 266.596 192C265.303 192 264.254 193.049 264.254 194.342C264.254 195.636 265.303 196.684 266.596 196.684Z" fill="#FF782D"/>
<path d="M3.31554 127.521C4.57742 127.236 5.36965 125.982 5.08502 124.72C4.8004 123.459 3.54672 122.666 2.28484 122.951C1.02296 123.236 0.23073 124.489 0.515353 125.751C0.799975 127.013 2.05366 127.805 3.31554 127.521Z" fill="#3B53A7"/>
<path d="M283.847 205.041C285.613 205.041 287.044 203.609 287.044 201.844C287.044 200.078 285.613 198.647 283.847 198.647C282.082 198.647 280.65 200.078 280.65 201.844C280.65 203.609 282.082 205.041 283.847 205.041Z" fill="#3B53A7"/>
<path d="M23.6093 116.94C25.3316 116.552 26.4128 114.841 26.0244 113.119C25.6359 111.396 23.9248 110.315 22.2025 110.703C20.4802 111.092 19.3989 112.803 19.7874 114.525C20.1758 116.248 21.887 117.329 23.6093 116.94Z" fill="#FF782D"/>
<path d="M49.4286 20.7003C49.4286 15.731 51.1378 12.2651 53.8124 10.8724C55.8856 9.79628 58.5285 9.97037 61.4246 11.6321L196.53 89.6222C203.162 93.4521 208.527 103.707 208.527 112.538V230.267C208.527 235.189 206.849 238.623 204.238 240.032L204.159 240.079C202.101 241.155 199.442 240.997 196.546 239.32L61.4405 161.329C54.8094 157.5 49.4444 147.26 49.4444 138.429V20.7003H49.4286Z" fill="white"/>
<path d="M226.63 103.502C226.63 94.6865 221.265 84.4155 214.65 80.6014L79.5443 2.59547C76.6482 0.933745 74.0053 0.75966 71.9321 1.83582L53.8114 10.8882C55.8846 9.81208 58.5275 9.98617 61.4237 11.6479L196.53 89.638C203.161 93.4679 208.526 103.723 208.526 112.554V230.283C208.526 235.205 206.848 238.639 204.237 240.048L222.278 231.043C224.953 229.65 226.646 226.2 226.646 221.215V103.502H226.63Z" fill="#E6F1FC"/>
<path d="M226.5 128.858L209 135.358V197.858L226.5 193.358V128.858Z" fill="#3B53A7" fill-opacity="0.1"/>
<path d="M201.292 241.931C199.567 241.931 197.779 241.393 195.943 240.332L60.8371 162.342C53.7946 158.275 48.2714 147.767 48.2714 138.445V20.7003C48.2714 15.4461 50.0913 11.4896 53.2724 9.84374C54.301 9.30566 55.4247 9.03662 56.6274 9.03662C58.3525 9.03662 60.1566 9.5747 61.9766 10.635L197.082 88.641C204.125 92.7082 209.648 103.217 209.648 112.554V230.283C209.648 235.458 207.86 239.383 204.758 241.06C203.634 241.646 202.495 241.931 201.276 241.931H201.292ZM56.6591 11.3472C55.8203 11.3472 55.0449 11.5371 54.3485 11.9011C51.9905 13.1197 50.5978 16.4115 50.5978 20.7003V138.429C50.5978 146.865 55.7254 156.692 62.0083 160.332L197.114 238.322C198.586 239.177 199.994 239.604 201.308 239.604C202.147 239.604 202.906 239.43 203.587 239.082C205.992 237.784 207.369 234.508 207.369 230.283V112.554C207.369 104.103 202.242 94.275 195.959 90.635L60.853 12.6449C59.3653 11.7903 57.9568 11.363 56.6591 11.363V11.3472Z" fill="#3B53A7"/>
<path d="M204.141 241.25C203.698 241.25 203.302 241.013 203.112 240.617C202.97 240.348 202.954 240.032 203.049 239.731C203.144 239.43 203.35 239.193 203.635 239.066L221.771 230.014C224.145 228.779 225.506 225.583 225.506 221.215V103.501C225.506 95.1929 220.284 85.1593 214.096 81.5984L78.9739 3.59248C77.4863 2.73788 76.0778 2.31058 74.78 2.31058C73.9413 2.31058 73.1658 2.50049 72.4694 2.86449L54.333 11.9169C54.1747 11.996 54.0006 12.0435 53.8265 12.0435C53.3834 12.0435 52.9877 11.8061 52.7978 11.4105C52.6554 11.1414 52.6396 10.8249 52.7345 10.5242C52.8295 10.2235 53.0352 10.002 53.3201 9.85955L71.4091 0.791296C72.4378 0.269041 73.5456 0 74.7484 0C76.4734 0 78.2776 0.538081 80.1134 1.59842L215.235 79.6044C222.278 83.6716 227.785 94.1642 227.785 103.501V221.215C227.785 226.469 225.965 230.425 222.8 232.071L204.647 241.124C204.489 241.203 204.315 241.25 204.141 241.25Z" fill="#3B53A7"/>
<g opacity="0.95">
<path d="M94.9742 81.1079V80.9813L98.2977 82.8962V83.0228L94.9742 81.1079Z" fill="#3B53A7"/>
<path d="M62.704 90.9516V90.8091L64.9829 92.1227V92.2493L62.704 90.9516Z" fill="#3B53A7"/>
<path d="M58.6686 88.6094V88.4828L60.362 89.464V89.5906L58.6686 88.6094Z" fill="#3B53A7"/>
<path d="M67.3248 93.6106V93.4839L70.6166 95.3831V95.5097L67.3248 93.6106Z" fill="#3B53A7"/>
<path d="M67.294 103.075V102.948L69.5254 104.246V104.372L67.294 103.075Z" fill="#3B53A7"/>
<path d="M66.2811 87.8182L67.3414 88.4354L67.3256 93.4839V93.6105L67.2939 102.948V103.074V105.607L66.2336 104.989L66.2811 87.8182Z" fill="#FF782D"/>
<path d="M58.6377 98.0891V97.9467L64.9523 101.602V101.729L58.6377 98.0891Z" fill="#3B53A7"/>
<path d="M60.3631 89.464L60.3789 84.1148L61.4393 84.732L61.4076 95.1138L60.3473 94.4966L60.3631 89.5906V89.464Z" fill="#B6CCDF"/>
<path d="M61.6615 84.8586L62.7218 85.4758L62.706 90.8091V90.9516V95.8576L61.6456 95.2404L61.6615 84.8586Z" fill="#B6CCDF"/>
<path d="M58.6855 79.1298V79.0032L61.4551 80.6016V80.7282L58.6855 79.1298Z" fill="#3B53A7"/>
<path d="M64.9838 92.123L64.9996 87.0904L66.06 87.6918L66.0125 104.863L64.9521 104.246V101.729V101.603L64.9838 92.2496V92.123Z" fill="#FF782D"/>
<path d="M66.2983 84.0517L66.2825 87.8182L66.235 104.989L66.2192 108.645L65.9977 108.519L66.0135 104.863L66.061 87.6916V83.9092L66.2983 84.0517Z" fill="#FF782D"/>
<path d="M61.6925 74.3027L61.6767 80.728V80.8546L61.6609 84.8586L61.645 95.2404L61.6292 98.8962L61.4077 98.7696V95.1138L61.4393 84.732L61.4551 80.728V80.6014L61.471 74.1603L61.6925 74.3027Z" fill="#B6CCDF"/>
<path d="M58.7163 69.6659V69.5235L89.0863 87.0586V87.201L58.7163 69.6659Z" fill="#3B53A7"/>
<path d="M89.3078 87.3275V87.2009L92.5996 89.1V89.2266L89.3078 87.3275Z" fill="#3B53A7"/>
<path d="M89.3397 77.9428L89.3081 87.201V87.3276V87.4067L89.2764 98.8805V102.536L89.039 102.41L89.0549 98.7539L89.0865 87.2801V87.201V87.0586L89.1182 77.8004L89.3397 77.9428Z" fill="#B6CCDF"/>
<path d="M58.7493 60.1862V60.0596L92.6326 79.6204V79.747L58.7493 60.1862Z" fill="#3B53A7"/>
<path d="M94.9413 90.5718V90.4452L97.2202 91.7587V91.8853L94.9413 90.5718Z" fill="#3B53A7"/>
<path d="M108.726 108.028V107.885L110.958 109.183V109.31L108.726 108.028Z" fill="#3B53A7"/>
<path d="M87.9617 95.9054L87.9934 86.6473L89.0854 87.2803L89.0537 98.7541L87.9617 98.1211V96.032V95.9054Z" fill="#B6CCDF"/>
<path d="M85.7315 94.7501V94.6235L87.963 95.9054V96.032L85.7315 94.7501Z" fill="#3B53A7"/>
<path d="M75.4274 107.775V107.648L78.7192 109.547V109.674L75.4274 107.775Z" fill="#3B53A7"/>
<path d="M58.6049 107.553V107.426L70.5534 114.326V114.453L58.6049 107.553Z" fill="#3B53A7"/>
<path d="M89.3077 87.4067L90.368 88.0239L90.3522 97.2821V97.4087L90.3364 99.4977L89.276 98.8805L89.3077 87.4067Z" fill="#B6CCDF"/>
<path d="M93.9299 74.0656V77.848L93.8824 95.0033L93.8666 98.6591L93.6451 98.5325V94.8767L93.6925 77.7056L93.7083 73.939L93.9299 74.0656Z" fill="#B6CCDF"/>
<path d="M93.9284 77.848L94.9887 78.4493L94.9729 80.9815V81.1081L94.9413 90.4454V90.572L94.9254 95.6205L93.8809 95.0033L93.9284 77.848Z" fill="#B6CCDF"/>
<path d="M92.6321 79.6205V77.1042L93.6925 77.7056L93.645 94.8767L92.5847 94.2595L92.6005 89.2268V89.1002L92.6321 79.7471V79.6205Z" fill="#B6CCDF"/>
<path d="M97.2213 91.7589L97.2371 84.3682L98.2975 84.9854L98.2658 95.5413L97.2055 94.9241L97.2213 91.8855V91.7589Z" fill="#FF782D"/>
<path d="M162.82 148.748V148.605L166.112 150.505V150.647L162.82 148.748Z" fill="#3B53A7"/>
<path d="M140.854 145.551V145.425L144.177 147.339V147.466L140.854 145.551Z" fill="#3B53A7"/>
<path d="M58.5897 117.032V116.89L75.1436 126.465V126.591L58.5897 117.032Z" fill="#3B53A7"/>
<path d="M70.7915 114.579V114.453L74.1149 116.384V116.51L70.7915 114.579Z" fill="#3B53A7"/>
<path d="M76.4567 117.855V117.729L78.6882 119.011V119.153L76.4567 117.855Z" fill="#3B53A7"/>
<path d="M74.1148 116.384L74.1464 108.122L75.1909 108.724L75.1434 125.942L74.0831 125.325L74.1148 116.51V116.384Z" fill="#B6CCDF"/>
<path d="M71.9145 105.749V105.622L75.2063 107.521V107.648L71.9145 105.749Z" fill="#3B53A7"/>
<path d="M75.4289 108.866L76.4893 109.468L76.4576 117.729V117.855L76.4418 126.686L75.3815 126.069L75.4289 108.866Z" fill="#B6CCDF"/>
<path d="M69.5259 104.245L69.5576 96.8071L70.6021 97.4243L70.5704 110.449L69.5101 109.848L69.5259 104.372V104.245Z" fill="#B6CCDF"/>
<path d="M75.4283 105.131V107.648V107.774V108.866L75.3809 126.069V126.591V126.718L75.365 129.725L75.1435 129.598V126.591V126.465V125.942L75.2068 108.724V107.648V107.521V104.989L75.4283 105.131Z" fill="#B6CCDF"/>
<path d="M70.839 97.5509L71.9309 98.1839L71.9151 105.622V105.749L71.8993 111.224L70.7915 110.591L70.839 97.5509Z" fill="#B6CCDF"/>
<path d="M70.8383 93.7686V95.5094V95.636V97.551L70.7909 110.592V114.453V114.58L70.775 118.362L70.5535 118.235V114.453V114.326L70.5693 110.449L70.6009 97.4244L70.6168 95.5094V95.3828V93.642L70.8383 93.7686Z" fill="#B6CCDF"/>
<path d="M78.7207 109.547L78.7365 105.195L79.8285 105.828L79.781 123.046L78.689 122.413V119.153V119.011L78.7207 109.674V109.547Z" fill="#FF782D"/>
<path d="M80.0498 105.97L81.1101 106.572L81.0943 110.924V111.051L81.0785 120.388V120.53L81.0626 123.79L80.0023 123.173L80.0498 105.97Z" fill="#FF782D"/>
<path d="M80.065 102.188L80.0491 105.97L80.0017 123.173V126.781L79.7643 126.655L79.7801 123.047L79.8276 105.828L79.8434 102.046L80.065 102.188Z" fill="#FF782D"/>
<path d="M70.8393 95.6359V95.5093L83.3576 102.742V102.868L70.8393 95.6359Z" fill="#3B53A7"/>
<path d="M61.6763 80.8546V80.728L83.3894 93.2622V93.3888L61.6763 80.8546Z" fill="#3B53A7"/>
<path d="M83.3893 93.2619L83.4051 88.8307L84.4655 89.4479L84.418 106.651L83.3577 106.033V102.868V102.742L83.3893 93.3885V93.2619Z" fill="#FF782D"/>
<path d="M84.6865 89.5744L85.7469 90.1758L85.731 94.6229V94.7495L85.6994 104.087V104.213V107.394L84.639 106.777L84.6865 89.5744Z" fill="#FF782D"/>
<path d="M84.7017 85.8398L84.6859 89.5747L84.6384 106.778L84.6226 110.433L84.401 110.307L84.4169 106.651L84.4643 89.4481V85.6974L84.7017 85.8398Z" fill="#FF782D"/>
<path d="M85.6994 104.213V104.087L106.352 116.004V116.146L85.6994 104.213Z" fill="#3B53A7"/>
<path d="M81.0786 120.53V120.387L124.679 145.566V145.693L81.0786 120.53Z" fill="#3B53A7"/>
<path d="M81.0935 111.05V110.924L116.575 131.403V131.529L81.0935 111.05Z" fill="#3B53A7"/>
<path d="M90.3531 97.4084V97.2818L101.764 103.881V104.008L90.3531 97.4084Z" fill="#3B53A7"/>
<path d="M108.695 117.492V117.365L111.987 119.264V119.391L108.695 117.492Z" fill="#3B53A7"/>
<path d="M127.021 147.054V146.928L129.3 148.225V148.368L127.021 147.054Z" fill="#3B53A7"/>
<path d="M116.798 131.656V131.529L121.197 134.061L121.182 134.188L116.798 131.656Z" fill="#3B53A7"/>
<path d="M104.153 105.385V105.242L106.384 106.54V106.667L104.153 105.385Z" fill="#3B53A7"/>
<path d="M112.208 119.533L112.224 119.391L115.547 121.321V121.448L112.208 119.533Z" fill="#3B53A7"/>
<path d="M121.419 134.33V134.203L124.71 136.103V136.229L121.419 134.33Z" fill="#3B53A7"/>
<path d="M131.642 149.713V149.586L133.873 150.868V151.011L131.642 149.713Z" fill="#3B53A7"/>
<path d="M99.5629 93.246V93.1194L101.794 94.4013V94.528L99.5629 93.246Z" fill="#3B53A7"/>
<path d="M117.889 122.793V122.667L120.152 123.98V124.107L117.889 122.793Z" fill="#3B53A7"/>
<path d="M106.384 106.54L106.4 100.89L107.46 101.508L107.413 118.71L106.352 118.093V116.147V116.004L106.384 106.667V106.54Z" fill="#B6CCDF"/>
<path d="M127.052 137.575V137.448L129.315 138.762V138.888L127.052 137.575Z" fill="#3B53A7"/>
<path d="M136.248 152.388V152.245L138.479 153.543V153.67L136.248 152.388Z" fill="#3B53A7"/>
<path d="M107.682 101.634L108.743 102.235L108.727 107.885V108.028L108.695 117.365V117.492V119.454L107.635 118.837L107.682 101.634Z" fill="#B6CCDF"/>
<path d="M124.71 136.103L124.726 130.231L125.786 130.848L125.739 148.051L124.678 147.434V145.693V145.567L124.71 136.229V136.103Z" fill="#B6CCDF"/>
<path d="M110.958 109.183V106.524L112.018 107.141L112.003 116.447L110.942 115.83L110.958 109.309V109.183Z" fill="#B6CCDF"/>
<path d="M98.5183 85.1114L99.5786 85.7286L99.5628 93.1193V93.2459L99.5469 96.2845L98.4866 95.6673L98.5183 85.1114Z" fill="#FF782D"/>
<path d="M101.794 94.4014L101.81 90.7931L102.902 91.4261L102.854 108.629L101.746 107.996L101.762 104.008V103.881L101.794 94.528V94.4014Z" fill="#FF782D"/>
<path d="M120.152 123.98L120.168 121.163L121.228 121.764L121.196 129.804L120.136 129.203L120.152 124.107V123.98Z" fill="#B6CCDF"/>
<path d="M126.008 130.975L127.069 131.577L127.053 137.448V137.575L127.021 146.928V147.054V148.795L125.961 148.178L126.008 130.975Z" fill="#B6CCDF"/>
<path d="M112.255 107.268L113.316 107.885L113.3 110.528V110.67L113.284 117.175L112.224 116.573L112.255 107.268Z" fill="#B6CCDF"/>
<path d="M103.092 91.5369L104.184 92.1699V95.7782L104.168 95.9048L104.153 105.242V105.385L104.137 109.373L103.045 108.74L103.092 91.5369Z" fill="#FF782D"/>
<path d="M115.547 121.321L115.563 112.839L116.623 113.456L116.576 130.659L115.515 130.057L115.547 121.448V121.321Z" fill="#B6CCDF"/>
<path d="M129.316 138.762L129.332 136.372L130.392 136.973L130.345 154.192L129.284 153.575L129.3 148.368V148.226L129.316 138.888V138.762Z" fill="#FF782D"/>
<path d="M104.168 95.9048L185.64 142.813L181.256 140.407L181.018 140.233L167.44 132.431L167.25 132.289L107.697 97.9305L107.46 97.7564L104.168 95.9048Z" fill="#3B53A7"/>
<path d="M107.697 97.899L107.682 101.634L107.634 118.837L107.618 122.492L107.397 122.366L107.413 118.71L107.46 101.507V97.804L107.697 97.899Z" fill="#B6CCDF"/>
<path d="M113.3 110.67V110.528L116.623 112.459V112.585L113.3 110.67Z" fill="#3B53A7"/>
<path d="M121.45 121.891L122.511 122.508L122.495 125.341V125.468V130.548L121.434 129.93L121.45 121.891Z" fill="#B6CCDF"/>
<path d="M116.861 113.582L117.906 114.2L117.89 122.666V122.793L117.858 131.402L116.798 130.801L116.861 113.582Z" fill="#B6CCDF"/>
<path d="M130.614 137.116L131.674 137.717L131.659 140.107V140.249L131.643 149.587V149.713L131.627 154.936L130.567 154.318L130.614 137.116Z" fill="#FF782D"/>
<path d="M122.495 125.468V125.341L125.787 127.24V127.367L122.495 125.468Z" fill="#3B53A7"/>
<path d="M103.108 87.7546L103.092 91.537L103.044 108.74L103.029 112.348L102.839 112.237L102.854 108.629L102.902 91.4263L102.918 87.6439L103.108 87.7546Z" fill="#FF782D"/>
<path d="M126.023 127.193V127.367V127.493L126.008 130.975L125.96 148.178L125.944 151.786L125.723 151.66L125.739 148.051L125.786 130.848V127.367V127.24V127.066L126.023 127.193Z" fill="#B6CCDF"/>
<path d="M112.256 103.485V107.268L112.224 116.573V119.39L112.208 119.533L112.192 128.079L111.971 127.952L111.987 119.39V119.264L112.002 116.447L112.018 107.141L112.034 103.359L112.256 103.485Z" fill="#B6CCDF"/>
<path d="M121.466 118.156L121.451 121.891L121.435 129.931L121.419 134.204V134.33L121.387 142.75L121.166 142.623L121.181 134.188L121.197 134.061V129.804L121.229 121.764V118.029L121.466 118.156Z" fill="#B6CCDF"/>
<path d="M140.821 155.031V154.888L144.16 156.819V156.946L140.821 155.031Z" fill="#3B53A7"/>
<path d="M116.86 109.8V112.585V112.712V113.582L116.797 130.801V131.529V131.656V134.394L116.56 134.267L116.576 131.529V131.402V130.659L116.623 113.456V112.585V112.459L116.639 109.673L116.86 109.8Z" fill="#B6CCDF"/>
<path d="M130.629 133.333L130.614 137.116L130.566 154.319L130.55 157.927L130.329 157.8L130.345 154.192L130.392 136.973V133.207L130.629 133.333Z" fill="#FF782D"/>
<path d="M131.658 140.249V140.107L138.51 144.063V144.19L131.658 140.249Z" fill="#3B53A7"/>
<path d="M98.5493 74.7299L98.5335 83.0227V83.1651L98.5176 85.1117L98.486 95.6676V99.3233L98.2486 99.1967L98.2644 95.541L98.2961 84.9851V83.0227V82.8961L98.3277 74.6033L98.5493 74.7299Z" fill="#FF782D"/>
<path d="M138.512 144.063L138.528 139.806L139.588 140.423L139.54 157.578L138.48 156.977V153.669V153.543L138.512 144.19V144.063Z" fill="#B6CCDF"/>
<path d="M139.808 140.55L140.868 141.167L140.852 145.424V145.551L140.821 154.888V155.03V158.322L139.76 157.721L139.808 140.55Z" fill="#B6CCDF"/>
<path d="M139.823 136.767L139.807 140.55L139.76 157.721L139.744 161.361L139.522 161.234L139.538 157.578L139.586 140.423V136.641L139.823 136.767Z" fill="#B6CCDF"/>
<path d="M144.366 147.577V147.45L147.706 149.365V149.508L144.366 147.577Z" fill="#3B53A7"/>
<path d="M126.024 127.494V127.367L143.116 137.227V137.369L126.024 127.494Z" fill="#3B53A7"/>
<path d="M150.048 150.853V150.726L153.371 152.641V152.783L150.048 150.853Z" fill="#3B53A7"/>
<path d="M143.117 137.226V135.802L144.209 136.435L144.193 144.823L143.101 144.19L143.117 137.369V137.226Z" fill="#B6CCDF"/>
<path d="M147.705 149.365L147.721 143.193L148.781 143.81L148.749 151.28L147.689 150.679L147.705 149.508V149.365Z" fill="#B6CCDF"/>
<path d="M149.003 143.937L150.063 144.554L150.048 150.726V150.853V152.024L148.987 151.422L149.003 143.937Z" fill="#B6CCDF"/>
<path d="M145.491 138.746V138.603L148.782 140.502V140.645L145.491 138.746Z" fill="#3B53A7"/>
<path d="M144.415 132.763L144.399 136.546L144.383 144.934L144.367 147.45V147.577L144.351 156.93V157.056V157.357L144.161 157.246V156.945V156.819L144.177 147.466V147.339L144.193 144.823L144.209 136.435L144.225 132.653L144.415 132.763Z" fill="#B6CCDF"/>
<path d="M149.018 140.771V140.645L152.341 142.56V142.686L149.018 140.771Z" fill="#3B53A7"/>
<path d="M116.861 112.712V112.586L148.814 131.039V131.165L116.861 112.712Z" fill="#3B53A7"/>
<path d="M154.684 144.047V143.921L157.976 145.82V145.946L154.684 144.047Z" fill="#3B53A7"/>
<path d="M149.034 130.421V131.165V131.292L149.018 140.645V140.771L149.002 143.936L148.987 151.422L148.971 155.03L148.749 154.888V151.28L148.781 143.81V140.645V140.502L148.813 131.165V131.038V130.294L149.034 130.421Z" fill="#B6CCDF"/>
<path d="M149.035 131.292V131.165L152.374 133.096V133.223L149.035 131.292Z" fill="#3B53A7"/>
<path d="M158.199 146.073V145.947L162.583 148.479V148.605L158.199 146.073Z" fill="#3B53A7"/>
<path d="M153.657 133.302L154.717 133.919V134.441V134.568L154.685 143.921V144.047L154.669 151.122L153.609 150.52L153.657 133.302Z" fill="#B6CCDF"/>
<path d="M154.716 134.568V134.441L156.948 135.723V135.865L154.716 134.568Z" fill="#3B53A7"/>
<path d="M153.672 129.567L153.656 133.301L153.608 150.52L153.593 152.783V152.91V154.176L153.371 154.033V152.783V152.641V150.393L153.434 133.175V129.44L153.672 129.567Z" fill="#B6CCDF"/>
<path d="M156.947 135.723V133.08L158.008 133.697L157.992 142.259L156.932 141.642L156.947 135.865V135.723Z" fill="#FF782D"/>
<path d="M159.29 137.21V137.084L161.553 138.397V138.524L159.29 137.21Z" fill="#3B53A7"/>
<path d="M158.23 133.824L159.29 134.425V137.084V137.211L159.274 142.987L158.214 142.386L158.23 133.824Z" fill="#FF782D"/>
<path d="M168.485 152.008V151.881L170.717 153.179V153.306L168.485 152.008Z" fill="#3B53A7"/>
<path d="M158.246 130.042L158.23 133.824L158.214 142.386L158.198 145.947V146.073L158.183 154.635L157.945 154.508L157.977 145.947V145.82L157.993 142.259L158.008 133.697L158.024 129.915L158.246 130.042Z" fill="#FF782D"/>
<path d="M161.553 138.397L161.569 134.267L162.629 134.884L162.598 147.086L161.537 146.485L161.553 138.524V138.397Z" fill="#B6CCDF"/>
<path d="M173.058 154.651V154.524L176.397 156.455V156.582L173.058 154.651Z" fill="#3B53A7"/>
<path d="M162.867 131.276L162.851 135.011L162.819 147.212V148.605V148.748L162.803 155.869L162.566 155.743L162.582 148.605V148.479L162.598 147.086L162.629 134.884L162.645 131.133L162.867 131.276Z" fill="#B6CCDF"/>
<path d="M168.516 142.544V142.418L170.747 143.7V143.826L168.516 142.544Z" fill="#3B53A7"/>
<path d="M176.587 156.692V156.55L179.91 158.481V158.607L176.587 156.692Z" fill="#3B53A7"/>
<path d="M166.126 141.04L166.142 135.391L167.25 136.024L167.202 153.226L166.095 152.593L166.11 150.647V150.504L166.126 141.167V141.04Z" fill="#B6CCDF"/>
<path d="M167.44 136.134L168.532 136.767L168.517 142.417V142.544L168.485 151.881V152.008V153.97L167.393 153.337L167.44 136.134Z" fill="#B6CCDF"/>
<path d="M170.748 143.699V141.056L171.808 141.658L171.761 158.829L170.7 158.212L170.716 153.306V153.179L170.748 143.826V143.699Z" fill="#FF782D"/>
<path d="M173.09 145.187V145.06L175.321 146.342V146.469L173.09 145.187Z" fill="#3B53A7"/>
<path d="M172.046 141.784L173.107 142.401L173.091 145.06V145.187L173.059 154.524V154.651V159.572L171.999 158.955L172.046 141.784Z" fill="#FF782D"/>
<path d="M167.441 132.4V136.134L167.394 153.337L167.378 156.993L167.188 156.882L167.204 153.226L167.251 136.024V132.32L167.441 132.4Z" fill="#B6CCDF"/>
<path d="M182.253 159.968V159.826L184.532 161.139V161.266L182.253 159.968Z" fill="#3B53A7"/>
<path d="M172.046 138.018V141.784L171.998 158.955L171.982 162.611L171.761 162.469V158.829L171.808 141.658L171.824 137.875L172.046 138.018Z" fill="#FF782D"/>
<path d="M177.711 147.846V147.719L179.942 149.001V149.143L177.711 147.846Z" fill="#3B53A7"/>
<path d="M175.321 146.342L175.337 140.867L176.429 141.5L176.413 152.056L175.305 151.423L175.321 146.469V146.342Z" fill="#B6CCDF"/>
<path d="M153.593 152.783L198.333 178.611V178.738L153.593 152.91V152.783Z" fill="#3B53A7"/>
<path d="M176.618 141.61L177.726 142.243L177.71 147.719V147.846L177.695 152.799L176.587 152.166L176.618 141.61Z" fill="#B6CCDF"/>
<path d="M182.285 150.489V150.362L184.548 151.676V151.802L182.285 150.489Z" fill="#3B53A7"/>
<path d="M176.635 137.828L176.619 141.61L176.587 152.166V156.55V156.692L176.572 162.421L176.382 162.31L176.397 156.581V156.455L176.413 152.055L176.429 141.499L176.445 137.717L176.635 137.828Z" fill="#B6CCDF"/>
<path d="M179.943 149.001L179.959 143.351L181.019 143.968L180.956 161.171L179.911 160.57V158.607V158.481L179.943 149.143V149.001Z" fill="#B6CCDF"/>
<path d="M181.24 144.095L182.3 144.712L182.285 150.362V150.488L182.253 159.826V159.968V161.915L181.193 161.313L181.24 144.095Z" fill="#B6CCDF"/>
<path d="M184.549 151.675L184.565 148.89L185.625 149.507L185.578 161.978L184.517 161.361L184.533 161.266V161.139L184.549 151.802V151.675Z" fill="#B6CCDF"/>
<path d="M186.891 153.147V153.021L189.122 154.319V154.445L186.891 153.147Z" fill="#3B53A7"/>
<path d="M185.845 149.634L186.905 150.235L186.89 153.021V153.147L186.874 162.5V162.627V162.706L185.813 162.105L185.845 149.634Z" fill="#B6CCDF"/>
<path d="M181.256 140.36L181.241 144.095L181.193 161.314L181.177 164.953L180.956 164.827V161.171L181.019 143.968V140.281L181.256 140.36Z" fill="#B6CCDF"/>
<path d="M186.874 162.5L198.363 169.131V169.258L186.874 162.627V162.5Z" fill="#3B53A7"/>
<path d="M185.862 141.12V142.94V143.066L185.847 149.634L185.815 162.105L185.799 165.713L185.578 165.586V161.978L185.625 149.507L185.641 142.94V142.813V140.977L185.862 141.12Z" fill="#B6CCDF"/>
<path d="M185.861 143.066V142.94L189.153 144.839V144.965L185.861 143.066Z" fill="#3B53A7"/>
<path d="M195.025 157.721L198.396 159.668V159.794L195.025 157.848V157.721Z" fill="#3B53A7"/>
<path d="M191.497 146.326V146.2L193.776 147.497V147.64L191.497 146.326Z" fill="#3B53A7"/>
<path d="M190.451 141.974L191.511 142.591L191.495 146.2V146.326L191.48 155.664V155.79L191.464 159.794L190.403 159.177L190.451 141.974Z" fill="#FF782D"/>
<path d="M190.466 138.192L190.45 141.974L190.403 159.177L190.387 162.785L190.165 162.659L190.181 159.05L190.229 141.848V138.065L190.466 138.192Z" fill="#FF782D"/>
<path d="M196.118 148.858L198.428 150.188V150.314L196.118 148.985V148.858Z" fill="#3B53A7"/>
<path d="M195.088 136.039V138.777V138.904L195.072 139.774L195.041 151.28L195.025 157.721V157.848V160.633L194.787 160.506L194.803 157.721V157.594L194.819 151.153L194.851 139.632V138.777V138.635L194.866 135.897L195.088 136.039Z" fill="#FF782D"/>
<path d="M195.088 138.777L198.443 140.708V140.851L195.088 138.904V138.777Z" fill="#3B53A7"/>
<path d="M191.479 155.79V155.664L194.802 157.595V157.721L191.479 155.79Z" fill="#3B53A7"/>
<path d="M162.852 135.011L163.912 135.613L163.896 139.743V139.886L163.881 147.83L162.82 147.213L162.852 135.011Z" fill="#B6CCDF"/>
<path d="M163.895 139.886V139.743L166.127 141.041V141.167L163.895 139.886Z" fill="#3B53A7"/>
<path d="M135.172 144.792V148.574L135.109 165.793V169.385L134.919 169.29L134.935 165.682L134.982 148.463V144.681L135.172 144.792Z" fill="#B6CCDF"/>
<path d="M135.17 148.574L136.262 149.207L136.246 152.245V152.388L136.231 161.725V161.852L136.215 166.425L135.107 165.792L135.17 148.574Z" fill="#B6CCDF"/>
<path d="M133.874 150.869V147.83L134.982 148.463L134.934 165.682L133.827 165.049L133.842 160.475V160.348L133.874 151.011V150.869Z" fill="#B6CCDF"/>
<path d="M144.397 136.546L145.505 137.179L145.489 138.604V138.746L145.474 145.567L144.382 144.934L144.397 136.546Z" fill="#B6CCDF"/>
<path d="M152.374 133.096V132.574L153.435 133.176L153.371 150.394L152.327 149.777L152.343 142.687V142.56L152.374 133.223V133.096Z" fill="#B6CCDF"/>
<path d="M189.154 144.839L189.17 141.231L190.23 141.848L190.167 159.051L189.122 158.434V154.445V154.319L189.154 144.966V144.839Z" fill="#FF782D"/>
<path d="M195.072 139.775L196.132 140.376L196.117 148.859V148.986L196.101 151.898L195.04 151.28L195.072 139.775Z" fill="#FF782D"/>
<path d="M193.775 147.498L193.791 139.031L194.851 139.632L194.819 151.153L193.759 150.536L193.775 147.64V147.498Z" fill="#FF782D"/>
</g>
<path d="M245.146 226.833L245.114 239.826C245.114 244.59 241.965 249.353 235.714 252.978C223.132 260.289 202.653 260.289 189.977 252.978C183.599 249.29 180.418 244.463 180.434 239.636L180.466 226.643C180.466 231.47 183.631 236.297 190.009 239.985C202.685 247.296 223.148 247.296 235.745 239.985C241.997 236.345 245.13 231.597 245.146 226.833Z" fill="#B6CCDF"/>
<path d="M212.877 259.387C204.426 259.387 195.959 257.52 189.518 253.801C183.045 250.066 179.484 245.033 179.5 239.652L179.532 226.659C179.532 226.137 179.959 225.725 180.465 225.725C180.988 225.725 181.399 226.153 181.399 226.659C181.399 231.344 184.612 235.791 190.483 239.177C202.875 246.331 222.974 246.331 235.271 239.177C241.015 235.838 244.196 231.454 244.196 226.833C244.196 226.311 244.624 225.899 245.13 225.899C245.652 225.899 246.064 226.327 246.064 226.833L246.032 239.826C246.016 245.144 242.503 250.097 236.173 253.785C229.763 257.504 221.312 259.371 212.861 259.371L212.877 259.387ZM181.383 233.243V239.652C181.352 244.337 184.58 248.784 190.436 252.17C202.827 259.324 222.926 259.324 235.239 252.17C240.984 248.831 244.165 244.447 244.165 239.826V233.401C242.535 236.17 239.828 238.687 236.204 240.792C223.385 248.246 202.448 248.246 189.534 240.792C185.799 238.639 183.045 236.06 181.368 233.227L181.383 233.243Z" fill="#3B53A7"/>
<path d="M245.146 226.833L245.114 239.826C245.114 244.59 241.965 249.353 235.714 252.977C223.132 260.289 202.653 260.289 189.977 252.977C183.599 249.29 180.418 244.463 180.434 239.636L180.466 226.643C180.466 231.47 183.631 236.297 190.009 239.984C202.685 247.296 223.148 247.296 235.745 239.984C241.997 236.344 245.13 231.597 245.146 226.833Z" fill="#B6CCDF"/>
<path d="M212.877 259.387C204.426 259.387 195.959 257.519 189.518 253.8C183.045 250.065 179.484 245.033 179.5 239.652L179.532 226.659C179.532 226.137 179.959 225.725 180.465 225.725C180.988 225.725 181.399 226.152 181.399 226.659C181.399 231.343 184.612 235.79 190.483 239.177C202.875 246.33 222.974 246.33 235.271 239.177C241.015 235.838 244.196 231.454 244.196 226.833C244.196 226.311 244.624 225.899 245.13 225.899C245.652 225.899 246.064 226.326 246.064 226.833L246.032 239.826C246.016 245.143 242.503 250.097 236.173 253.784C229.763 257.504 221.312 259.371 212.861 259.371L212.877 259.387ZM181.383 233.242V239.652C181.352 244.336 184.58 248.783 190.436 252.17C202.827 259.324 222.926 259.324 235.239 252.17C240.984 248.831 244.165 244.447 244.165 239.826V233.401C242.535 236.17 239.828 238.687 236.204 240.791C223.385 248.245 202.448 248.245 189.534 240.791C185.799 238.639 183.045 236.059 181.368 233.227L181.383 233.242Z" fill="#3B53A7"/>
<path d="M235.603 213.508C248.279 220.82 248.342 232.689 235.745 240.001C223.163 247.312 202.685 247.312 190.008 240.001C177.332 232.689 177.268 220.82 189.866 213.508C202.463 206.196 222.926 206.196 235.603 213.508Z" fill="white"/>
<path d="M212.908 246.394C204.457 246.394 195.99 244.526 189.549 240.807C183.092 237.088 179.547 232.071 179.531 226.706C179.531 221.373 183.029 216.404 189.391 212.7C202.21 205.246 223.148 205.246 236.062 212.7C242.519 216.42 246.064 221.436 246.079 226.801C246.079 232.135 242.582 237.12 236.22 240.823C229.81 244.542 221.359 246.41 212.908 246.41V246.394ZM212.703 208.95C204.584 208.95 196.497 210.738 190.341 214.315C184.58 217.67 181.399 222.069 181.415 226.706C181.415 231.375 184.643 235.806 190.499 239.193C202.89 246.346 222.989 246.346 235.286 239.193C241.063 235.838 244.228 231.438 244.228 226.801C244.228 222.133 240.999 217.701 235.144 214.315C228.956 210.738 220.821 208.95 212.718 208.95H212.703Z" fill="#3B53A7"/>
<path d="M245.146 209.757L245.114 222.75C245.114 227.514 241.965 232.278 235.714 235.902C223.132 243.213 202.653 243.213 189.977 235.902C183.599 232.214 180.418 227.387 180.434 222.561L180.466 209.567C180.466 214.394 183.631 219.221 190.009 222.909C202.685 230.22 223.148 230.22 235.745 222.909C241.997 219.269 245.13 214.521 245.146 209.757Z" fill="#B6CCDF"/>
<path d="M212.877 242.311C204.426 242.311 195.959 240.444 189.518 236.725C183.045 232.99 179.484 227.957 179.5 222.576L179.532 209.583C179.532 209.061 179.959 208.649 180.465 208.649C180.988 208.649 181.399 209.077 181.399 209.583C181.399 214.268 184.612 218.715 190.483 222.101C202.875 229.255 222.974 229.255 235.271 222.101C241.015 218.762 244.196 214.378 244.196 209.757C244.196 209.235 244.624 208.823 245.13 208.823C245.652 208.823 246.064 209.251 246.064 209.757L246.032 222.75C246.016 228.068 242.503 233.021 236.173 236.709C229.763 240.428 221.312 242.295 212.861 242.295L212.877 242.311ZM181.383 216.167V222.576C181.352 227.261 184.58 231.708 190.436 235.094C202.827 242.248 222.926 242.248 235.239 235.094C240.984 231.755 244.165 227.371 244.165 222.75V216.325C242.535 219.094 239.828 221.611 236.204 223.716C223.385 231.17 202.448 231.17 189.534 223.716C185.799 221.563 183.045 218.984 181.368 216.151L181.383 216.167Z" fill="#3B53A7"/>
<path d="M212.877 242.311C204.426 242.311 195.959 240.444 189.518 236.725C183.045 232.99 179.484 227.957 179.5 222.576L179.532 209.583C179.532 209.061 179.959 208.649 180.465 208.649C180.988 208.649 181.399 209.077 181.399 209.583C181.399 214.268 184.612 218.715 190.483 222.101C202.875 229.255 222.974 229.255 235.271 222.101C241.015 218.762 244.196 214.378 244.196 209.757C244.196 209.235 244.624 208.823 245.13 208.823C245.652 208.823 246.064 209.251 246.064 209.757L246.032 222.75C246.016 228.068 243.658 233.908 236.173 236.709C229.225 239.304 221.312 242.295 212.861 242.295L212.877 242.311ZM181.383 216.167V222.576C181.352 227.261 184.58 231.708 190.436 235.094C202.827 242.248 222.926 242.248 235.239 235.094C240.984 231.755 244.165 227.371 244.165 222.75V216.325C242.535 219.094 239.828 221.611 236.204 223.716C223.385 231.17 202.448 231.17 189.534 223.716C185.799 221.563 183.045 218.984 181.368 216.151L181.383 216.167Z" fill="#3B53A7"/>
<path d="M235.603 196.432C248.279 203.743 248.342 215.613 235.745 222.924C223.163 230.236 202.685 230.236 190.008 222.924C177.332 215.613 177.268 203.743 189.866 196.432C202.463 189.12 222.926 189.12 235.603 196.432Z" fill="white"/>
<path d="M212.908 229.318C204.457 229.318 195.99 227.451 189.549 223.731C183.092 220.012 179.547 214.996 179.531 209.631C179.531 204.297 183.029 199.328 189.391 195.625C202.21 188.171 223.148 188.171 236.062 195.625C242.519 199.344 246.064 204.361 246.079 209.726C246.079 215.059 242.582 220.044 236.22 223.747C229.81 227.466 221.359 229.334 212.908 229.334V229.318ZM212.703 191.874C204.584 191.874 196.497 193.662 190.341 197.239C184.58 200.594 181.399 204.994 181.415 209.631C181.415 214.299 184.643 218.73 190.499 222.117C202.89 229.271 222.989 229.271 235.286 222.117C241.063 218.762 244.228 214.363 244.228 209.726C244.228 205.057 240.999 200.626 235.144 197.239C228.956 193.662 220.821 191.874 212.718 191.874H212.703Z" fill="#3B53A7"/>
<path d="M245.146 192.681L245.114 205.674C245.114 210.437 241.965 215.201 235.714 218.825C223.132 226.137 202.653 226.137 189.977 218.825C183.599 215.138 180.418 210.311 180.434 205.484L180.466 192.491C180.466 197.318 183.631 202.145 190.009 205.832C202.685 213.144 223.148 213.144 235.745 205.832C241.997 202.192 245.13 197.444 245.146 192.681Z" fill="#B6CCDF"/>
<path d="M212.877 225.234C204.426 225.234 195.959 223.367 189.518 219.648C183.045 215.913 179.484 210.88 179.5 205.5L179.532 192.506C179.532 191.984 179.959 191.573 180.465 191.573C180.988 191.573 181.399 192 181.399 192.506C181.399 197.191 184.612 201.638 190.483 205.025C202.875 212.178 222.974 212.178 235.271 205.025C241.015 201.686 244.196 197.302 244.196 192.681C244.196 192.158 244.624 191.747 245.13 191.747C245.652 191.747 246.064 192.174 246.064 192.681L246.032 205.674C246.016 210.991 242.503 215.945 236.173 219.632C229.763 223.351 221.312 225.219 212.861 225.219L212.877 225.234ZM181.383 199.074V205.484C181.352 210.168 184.58 214.615 190.436 218.018C202.827 225.171 222.926 225.171 235.239 218.018C240.984 214.679 244.165 210.295 244.165 205.674V199.248C242.535 202.018 239.828 204.534 236.204 206.639C223.385 214.093 202.448 214.093 189.534 206.639C185.799 204.487 183.045 201.907 181.368 199.074H181.383Z" fill="#3B53A7"/>
<path d="M235.603 179.34C248.279 186.651 248.342 198.521 235.745 205.832C223.163 213.144 202.685 213.144 190.008 205.832C177.332 198.521 177.268 186.651 189.866 179.34C202.463 172.028 222.926 172.028 235.603 179.34Z" fill="white"/>
<path d="M212.908 212.242C204.457 212.242 195.99 210.374 189.549 206.655C183.092 202.936 179.547 197.919 179.531 192.554C179.531 187.221 183.029 182.252 189.391 178.548C202.21 171.094 223.148 171.094 236.062 178.548C242.519 182.267 246.064 187.284 246.079 192.649C246.079 197.983 242.582 202.968 236.22 206.671C229.81 210.39 221.359 212.257 212.908 212.257V212.242ZM212.703 174.798C204.584 174.798 196.497 176.586 190.341 180.163C184.58 183.518 181.399 187.917 181.415 192.554C181.415 197.223 184.643 201.654 190.499 205.041C202.89 212.194 222.989 212.194 235.286 205.041C241.063 201.686 244.228 197.286 244.228 192.649C244.228 187.981 240.999 183.549 235.144 180.163C228.956 176.586 220.821 174.798 212.718 174.798H212.703Z" fill="#3B53A7"/>
<path d="M232.138 260.653L232.107 273.646C232.107 278.41 228.957 283.173 222.706 286.797C210.124 294.109 189.646 294.109 176.969 286.797C170.591 283.11 167.41 278.283 167.426 273.456L167.458 260.463C167.458 265.29 170.623 270.117 177.001 273.804C189.677 281.116 210.14 281.116 222.738 273.804C228.989 270.164 232.122 265.416 232.138 260.653Z" fill="#B6CCDF"/>
<path d="M199.869 293.206C191.418 293.206 182.951 291.339 176.51 287.62C170.037 283.885 166.476 278.852 166.492 273.471L166.524 260.478C166.524 259.956 166.951 259.545 167.457 259.545C167.98 259.545 168.391 259.972 168.391 260.478C168.391 265.163 171.604 269.61 177.475 272.997C189.867 280.15 209.966 280.15 222.278 272.997C228.023 269.657 231.204 265.274 231.204 260.652C231.204 260.13 231.632 259.719 232.138 259.719C232.66 259.719 233.072 260.146 233.072 260.652L233.04 273.646C233.04 278.963 229.527 283.917 223.181 287.604C216.771 291.323 208.32 293.191 199.869 293.191V293.206ZM168.375 267.062V273.471C168.344 278.156 171.572 282.603 177.444 285.99C189.835 293.143 209.934 293.143 222.231 285.99C227.976 282.651 231.157 278.267 231.157 273.646V267.22C229.527 269.99 226.836 272.506 223.196 274.611C210.362 282.065 189.424 282.065 176.526 274.611C172.791 272.459 170.037 269.879 168.36 267.046L168.375 267.062Z" fill="#3B53A7"/>
<path d="M222.595 247.327C235.272 254.639 235.335 266.508 222.738 273.82C210.156 281.131 189.678 281.131 177.001 273.82C164.324 266.508 164.261 254.639 176.859 247.327C189.456 240.016 209.919 240.016 222.595 247.327Z" fill="white"/>
<path d="M199.901 280.214C191.45 280.214 182.983 278.346 176.542 274.627C170.085 270.908 166.54 265.891 166.524 260.526C166.524 255.193 170.022 250.208 176.384 246.52C189.203 239.066 210.14 239.066 223.054 246.52C229.511 250.239 233.056 255.256 233.072 260.621C233.072 265.955 229.575 270.94 223.213 274.643C216.803 278.362 208.352 280.23 199.901 280.23V280.214ZM199.695 242.77C191.577 242.77 183.49 244.558 177.333 248.135C171.573 251.49 168.392 255.889 168.408 260.526C168.408 265.195 171.636 269.626 177.492 273.013C189.883 280.166 209.982 280.166 222.295 273.013C228.071 269.658 231.236 265.258 231.221 260.621C231.221 255.953 227.992 251.521 222.137 248.135C215.949 244.558 207.814 242.77 199.711 242.77H199.695Z" fill="#3B53A7"/>
<path d="M239.733 243.482L239.701 256.475C239.701 261.239 236.552 266.003 230.301 269.627C217.719 276.938 197.24 276.938 184.564 269.627C178.186 265.939 175.005 261.112 175.021 256.286L175.053 243.292C175.053 248.119 178.218 252.946 184.596 256.634C197.272 263.945 217.735 263.945 230.332 256.634C236.584 252.994 239.717 248.246 239.733 243.482Z" fill="#B6CCDF"/>
<path d="M207.464 276.02C199.013 276.02 190.546 274.153 184.105 270.434C177.632 266.699 174.071 261.666 174.087 256.285L174.119 243.292C174.119 242.77 174.546 242.358 175.052 242.358C175.575 242.358 175.986 242.786 175.986 243.292C175.986 247.977 179.199 252.424 185.07 255.826C197.462 262.98 217.561 262.98 229.873 255.826C235.618 252.487 238.799 248.103 238.799 243.482C238.799 242.96 239.226 242.548 239.733 242.548C240.255 242.548 240.667 242.976 240.667 243.482L240.635 256.475C240.635 261.793 237.122 266.746 230.775 270.434C224.366 274.153 215.915 276.02 207.464 276.02ZM175.97 249.876V256.285C175.939 260.97 179.167 265.417 185.038 268.804C197.43 275.957 217.529 275.957 229.842 268.804C235.586 265.464 238.767 261.081 238.767 256.459V250.034C237.137 252.804 234.447 255.32 230.807 257.425C217.972 264.879 197.05 264.879 184.136 257.425C180.401 255.272 177.648 252.693 175.97 249.86V249.876Z" fill="#3B53A7"/>
<path d="M207.463 276.02C199.012 276.02 190.545 274.152 184.104 270.433C177.632 266.698 174.071 261.666 174.087 256.285L174.118 243.292C174.118 242.77 174.545 242.358 175.052 242.358C175.574 242.358 175.986 242.785 175.986 243.292C175.986 247.976 179.198 252.423 185.07 255.826C197.461 262.979 217.56 262.979 229.873 255.826C235.618 252.487 238.799 248.103 238.799 243.482C238.799 242.96 239.226 242.548 239.732 242.548C240.255 242.548 240.666 242.975 240.666 243.482L240.634 256.475C240.634 261.792 237.121 266.746 230.775 270.433C224.365 274.152 215.914 276.02 207.463 276.02ZM175.97 249.875V256.285C175.938 260.969 179.167 265.417 185.038 268.803C197.43 275.957 217.529 275.957 229.841 268.803C235.586 265.464 238.767 261.08 238.767 256.459V250.034C237.137 252.803 234.447 255.32 230.807 257.424C217.972 264.878 197.05 264.878 184.136 257.424C180.401 255.272 177.647 252.692 175.97 249.86V249.875Z" fill="#3B53A7"/>
<path d="M230.191 230.14C242.868 237.452 242.931 249.321 230.334 256.633C217.752 263.945 197.274 263.945 184.597 256.633C171.92 249.321 171.857 237.452 184.455 230.14C197.052 222.829 217.515 222.829 230.191 230.14Z" fill="white"/>
<path d="M207.497 263.043C199.046 263.043 190.595 261.175 184.138 257.456C177.681 253.737 174.136 248.72 174.12 243.355C174.12 238.022 177.618 233.053 183.98 229.349C196.799 221.895 217.736 221.895 230.65 229.349C237.107 233.068 240.652 238.085 240.668 243.45C240.668 248.784 237.171 253.769 230.808 257.456C224.399 261.191 215.948 263.043 207.497 263.043ZM207.291 225.583C199.172 225.583 191.085 227.371 184.929 230.948C179.169 234.303 175.988 238.702 176.003 243.339C176.003 248.008 179.232 252.439 185.087 255.826C197.479 262.979 217.578 262.979 229.891 255.826C235.667 252.471 238.832 248.071 238.816 243.434C238.816 238.766 235.588 234.335 229.732 230.948C223.544 227.371 215.41 225.583 207.307 225.583H207.291Z" fill="#3B53A7"/>
<path d="M220.553 240.934L224.05 239.794L220.885 236.946L217.419 238.069C216.09 237.151 214.713 236.502 213.273 236.123C211.2 235.569 209.205 235.616 207.306 236.233C206.309 236.55 205.581 236.977 205.107 237.515C204.632 238.038 204.41 238.655 204.458 239.335C204.505 240.032 204.79 240.775 205.312 241.583L206.832 243.798C207.196 244.336 207.338 244.795 207.259 245.175C207.18 245.555 206.927 245.824 206.483 245.966C205.866 246.172 205.17 246.14 204.379 245.903C203.587 245.666 202.907 245.27 202.337 244.716C201.704 244.131 201.387 243.592 201.403 243.102C201.403 242.611 201.593 242.2 201.973 241.883L197.083 239.066C196.371 239.462 195.943 240.032 195.801 240.791C195.658 241.551 195.801 242.406 196.26 243.339C196.481 243.782 196.766 244.241 197.114 244.684L192.921 246.046L196.086 248.894L200.28 247.533C200.944 247.992 201.625 248.372 202.321 248.704C203.666 249.321 205.027 249.701 206.388 249.828C207.749 249.955 209.063 249.828 210.297 249.416C211.69 248.957 212.576 248.245 212.956 247.248C213.336 246.251 213.083 245.128 212.212 243.846L210.725 241.614C210.408 241.124 210.266 240.696 210.282 240.348C210.297 240 210.566 239.731 211.041 239.573C211.69 239.367 212.371 239.351 213.083 239.557C213.795 239.747 214.46 240.127 215.061 240.681C215.678 241.234 215.979 241.757 215.947 242.247C215.916 242.738 215.726 243.118 215.362 243.387L220.252 246.156C220.964 245.539 221.407 244.874 221.581 244.162C221.755 243.45 221.629 242.706 221.201 241.915C221.027 241.598 220.79 241.266 220.521 240.934H220.553Z" fill="#3B53A7"/>
<path d="M224.983 189.278L228.481 188.139L225.316 185.29L221.85 186.414C220.52 185.496 219.143 184.847 217.703 184.467C215.63 183.913 213.636 183.961 211.737 184.578C210.74 184.894 210.012 185.322 209.537 185.86C209.062 186.382 208.841 186.999 208.888 187.68C208.936 188.376 209.221 189.12 209.743 189.927L211.262 192.143C211.626 192.681 211.769 193.14 211.689 193.52C211.61 193.899 211.357 194.168 210.914 194.311C210.297 194.517 209.6 194.485 208.809 194.247C208.018 194.01 207.337 193.614 206.768 193.061C206.135 192.475 205.818 191.937 205.834 191.446C205.834 190.956 206.024 190.544 206.404 190.228L201.513 187.411C200.801 187.806 200.374 188.376 200.232 189.136C200.089 189.895 200.232 190.75 200.69 191.684C200.912 192.127 201.197 192.586 201.545 193.029L197.351 194.39L200.516 197.239L204.71 195.878C205.375 196.337 206.055 196.716 206.752 197.049C208.097 197.666 209.458 198.046 210.819 198.172C212.18 198.299 213.494 198.172 214.728 197.761C216.121 197.302 217.007 196.59 217.387 195.593C217.767 194.596 217.513 193.472 216.643 192.19L215.155 189.959C214.839 189.468 214.696 189.041 214.712 188.693C214.728 188.344 214.997 188.075 215.472 187.917C216.121 187.711 216.801 187.696 217.513 187.901C218.226 188.091 218.89 188.471 219.507 189.025C220.125 189.579 220.425 190.101 220.394 190.592C220.362 191.082 220.172 191.462 219.808 191.731L224.698 194.501C225.411 193.884 225.854 193.219 226.028 192.507C226.202 191.794 226.075 191.051 225.648 190.259C225.474 189.943 225.236 189.611 224.967 189.278H224.983Z" fill="#3B53A7"/>
<path d="M110.893 130.373L97.0449 138.429L83.1023 130.373L96.95 122.334L110.893 130.373Z" fill="#BFD0E2"/>
<path d="M110.894 130.374L110.688 236.629L96.8402 243.545L97.0459 138.429L110.894 130.374Z" fill="#68CDED"/>
<g style="mix-blend-mode:multiply" opacity="0.3">
<path d="M110.894 130.374L110.688 236.629L96.8402 243.545L97.0459 138.429L110.894 130.374Z" fill="#3B53A7"/>
</g>
<path d="M97.0456 138.429L96.8399 243.545L82.8972 235.489L83.103 130.374L97.0456 138.429Z" fill="#68CDED"/>
<path d="M96.8401 244.542C96.666 244.542 96.492 244.494 96.3337 244.399L82.3911 236.36C82.0746 236.186 81.8846 235.853 81.8846 235.489L82.0904 130.374V130.215C82.2012 129.851 82.3594 129.646 82.5968 129.503L96.4445 121.464C96.6027 121.384 96.7768 121.337 96.9509 121.337C97.125 121.337 97.2991 121.384 97.4573 121.464L111.4 129.503C111.4 129.503 111.542 129.598 111.606 129.661C111.669 129.74 111.716 129.804 111.764 129.867L111.827 130.041L111.875 130.231L111.701 236.091C111.701 236.344 111.606 236.629 110.561 237.119C110.213 237.341 103.25 241.171 97.3782 244.383C97.1092 244.51 96.9667 244.542 96.8401 244.542ZM98.0587 138.999L97.853 241.883L109.691 235.473L109.881 132.114L98.0429 138.999H98.0587ZM83.9104 234.92L95.8431 241.804L96.0488 138.999L84.1161 132.114L83.9104 234.92ZM85.1131 130.374L97.0459 137.258L108.899 130.374L96.9667 123.489L85.1131 130.374Z" fill="#3B53A7"/>
<path d="M73.1801 158.37L59.3324 166.425L45.3898 158.37L59.2375 150.315L73.1801 158.37Z" fill="#BFD0E2"/>
<path d="M73.1816 158.37L72.9759 214.837L59.1282 221.753L59.3339 166.426L73.1816 158.37Z" fill="#68CDED"/>
<g style="mix-blend-mode:multiply" opacity="0.3">
<path d="M73.1816 158.37L72.9759 214.837L59.1282 221.753L59.3339 166.426L73.1816 158.37Z" fill="#3B53A7"/>
</g>
<path d="M59.3327 166.426L59.1269 221.753L45.1843 213.713L45.39 158.37L59.3327 166.426Z" fill="#68CDED"/>
<path d="M59.1272 222.766C58.9532 222.766 58.7791 222.718 58.6208 222.624L44.6782 214.568C44.3617 214.394 44.1718 214.062 44.1718 213.698L44.3775 158.37C44.425 157.943 44.5991 157.658 44.8839 157.5L58.7316 149.444C58.8899 149.365 59.0639 149.318 59.238 149.318C59.4121 149.318 59.5862 149.365 59.7445 149.444L73.6871 157.5C73.6871 157.5 73.8295 157.595 73.8928 157.658C73.972 157.737 74.0194 157.801 74.0511 157.864L74.1302 158.038L74.1777 158.228L73.9878 214.299C73.9878 214.552 73.8928 214.837 72.8483 215.328C72.4527 215.581 62.9255 220.804 59.6653 222.576L59.5387 222.639C59.3963 222.703 59.2538 222.75 59.1272 222.75V222.766ZM60.33 166.995L60.1401 220.107L71.9779 213.698L72.1678 160.111L60.33 166.995ZM46.1975 213.128L58.1302 220.012L58.3201 166.995L46.3874 160.111L46.1816 213.128H46.1975ZM47.4002 158.37L59.333 165.255L71.1866 158.37L59.2539 151.486L47.4002 158.37Z" fill="#3B53A7"/>
<path d="M34.9929 166.457L21.1453 174.496L7.20262 166.457L21.0661 158.401L34.9929 166.457Z" fill="#BFD0E2"/>
<path d="M34.9935 166.457L34.8036 193.06L20.94 199.976L21.1458 174.497L34.9935 166.457Z" fill="#68CDED"/>
<g style="mix-blend-mode:multiply" opacity="0.3">
<path d="M34.9935 166.457L34.8036 193.06L20.94 199.976L21.1458 174.497L34.9935 166.457Z" fill="#3B53A7"/>
</g>
<path d="M21.1449 174.496L20.9391 199.976L6.99651 191.921L7.20224 166.457L21.1449 174.496Z" fill="#68CDED"/>
<path d="M20.9395 200.973C20.7655 200.973 20.5914 200.926 20.4331 200.831L6.50631 192.791C6.18979 192.617 5.99988 192.285 5.99988 191.921L6.20561 166.457C6.25309 166.029 6.42718 165.745 6.71204 165.586L20.5597 157.531C20.718 157.452 20.8921 157.404 21.0661 157.404C21.2402 157.404 21.4143 157.452 21.5726 157.531L35.5152 165.586C35.5152 165.586 35.6576 165.681 35.7209 165.745C35.8001 165.855 35.8476 165.903 35.8792 165.95L35.9583 166.156L35.99 166.314L35.8001 192.506C35.8001 192.759 35.7051 193.044 34.6606 193.535C34.3124 193.756 27.349 197.586 21.4776 200.799L21.351 200.862C21.2086 200.926 21.0661 200.973 20.9395 200.973ZM22.1581 175.082L21.9682 198.314L33.806 191.921L34.0117 168.198L22.174 175.082H22.1581ZM8.00977 191.335L19.9425 198.219L20.1482 175.066L8.21551 168.182L8.00977 191.335ZM9.21254 166.441L21.1453 173.325L32.9989 166.441L21.0661 159.557L9.21254 166.441Z" fill="#3B53A7"/>
</svg>
