<svg width="286" height="268" viewBox="0 0 286 268" fill="none" xmlns="http://www.w3.org/2000/svg">
<path opacity="0.5" d="M152.968 265.911L4.48118 180.074C-0.944621 176.952 -0.261517 171.487 6.00352 167.876L104.41 111.061C110.675 107.451 120.14 107.06 125.547 110.183L274.034 196C279.46 199.123 278.777 204.588 272.512 208.199L174.106 265.013C167.841 268.624 158.375 269.014 152.968 265.892V265.911Z" fill="#3B53A7" fill-opacity="0.3"/>
<path d="M152.085 251.588L241.152 200.167V194.32L101.965 119.807L12.8983 165.38V171.227L152.085 251.588Z" fill="#68CDED"/>
<path opacity="0.5" d="M152.085 251.588L241.152 200.167V194.32L101.965 119.807L12.8983 165.38V171.227L152.085 251.588Z" fill="#3B53A7"/>
<path d="M101.965 113.941L211.952 177.465L227.044 168.777L243.027 162.429L246.554 179.358L245.384 191.591L241.152 194.32L152.085 245.74L12.8983 165.38L101.965 113.941Z" fill="#68CDED"/>
<path opacity="0.8" d="M101.965 113.941L211.952 177.465L227.044 168.777L243.027 162.429L246.554 179.358L245.384 191.591L241.152 194.32L152.085 245.74L12.8983 165.38L101.965 113.941Z" fill="#3B53A7"/>
<path d="M152.085 252.869C151.862 252.869 151.639 252.813 151.453 252.701L12.2478 172.323C11.8579 172.1 11.6166 171.673 11.6166 171.209V165.361C11.6166 164.897 11.8579 164.489 12.2478 164.248C12.6376 164.006 13.1388 164.025 13.5286 164.248L152.716 244.608C153.106 244.831 153.347 245.258 153.347 245.722V251.569C153.347 252.033 153.106 252.442 152.716 252.683C152.512 252.794 152.289 252.85 152.085 252.85V252.869ZM14.1783 170.485L150.804 249.379V246.483L14.1783 167.589V170.485Z" fill="#3B53A7"/>
<path d="M152.086 246.594C151.937 246.594 151.789 246.557 151.659 246.483L12.4718 166.104C12.2119 165.956 12.0449 165.677 12.0449 165.362C12.0449 165.046 12.2119 164.768 12.4718 164.619L101.538 113.199C101.798 113.051 102.132 113.051 102.392 113.199L211.952 176.462L226.617 168.035L242.712 161.63C242.953 161.538 243.213 161.556 243.436 161.668C243.658 161.779 243.807 162.002 243.862 162.243L247.389 179.173C247.389 179.173 247.408 179.34 247.389 179.433L246.22 191.666C246.201 191.926 246.053 192.167 245.83 192.297L241.598 195.007L152.494 246.446C152.364 246.52 152.216 246.557 152.067 246.557L152.086 246.594ZM14.6066 165.38L152.086 244.757L240.725 193.578L244.568 191.109L245.7 179.414L242.396 163.598L227.341 169.576L212.361 178.189C212.101 178.337 211.767 178.337 211.507 178.189L101.947 114.925L14.6066 165.38Z" fill="#3B53A7"/>
<path d="M152.086 252.442C151.937 252.442 151.789 252.405 151.659 252.33L12.4718 171.97C12.2119 171.822 12.0449 171.543 12.0449 171.228V165.38C12.0449 165.083 12.2119 164.786 12.4718 164.638C12.7317 164.489 13.0658 164.489 13.3257 164.638L152.513 244.998C152.773 245.146 152.94 245.425 152.94 245.74V251.588C152.94 251.885 152.773 252.182 152.513 252.33C152.383 252.405 152.234 252.442 152.086 252.442ZM13.7527 170.726L151.232 250.103V246.223L13.7527 166.847V170.726Z" fill="#3B53A7"/>
<path d="M16.3677 137.275V163.356L149.763 240.375L235.302 190.811C236.732 189.976 237.753 188.621 238.18 187.025C239.405 182.328 241.057 172.155 235.098 164.526C227.097 154.26 111.968 128.179 111.968 128.179L16.3677 137.294V137.275Z" fill="#E6E6E6"/>
<path d="M149.782 240.375V208.446L16.3677 137.275V163.356L149.782 240.375Z" fill="white"/>
<path d="M149.782 241.656C149.56 241.656 149.337 241.601 149.151 241.489L15.7373 164.471C15.3475 164.248 15.1061 163.821 15.1061 163.357V137.275C15.1061 136.626 15.6073 136.069 16.2571 135.995L111.858 126.88C111.988 126.88 112.136 126.88 112.266 126.899C124.091 129.572 228.082 153.37 236.12 163.709C242.302 171.636 240.835 181.901 239.424 187.322C238.904 189.271 237.679 190.905 235.953 191.888L150.414 241.452C150.209 241.564 149.987 241.619 149.764 241.619L149.782 241.656ZM17.6493 162.614L149.764 238.891L234.653 189.679C235.786 189.03 236.603 187.953 236.937 186.672C238.236 181.716 239.591 172.341 234.097 165.269C227.785 157.157 143.935 136.7 111.895 129.423L17.6493 138.408V162.596V162.614Z" fill="#3B53A7"/>
<path d="M149.782 241.656C149.56 241.656 149.337 241.601 149.151 241.489L15.7373 164.47C15.3475 164.248 15.1061 163.821 15.1061 163.357V137.275C15.1061 136.83 15.3475 136.403 15.7187 136.18C16.1086 135.957 16.5726 135.939 16.981 136.143L150.376 207.314C150.785 207.537 151.045 207.964 151.045 208.447V240.375C151.045 240.839 150.803 241.248 150.413 241.489C150.209 241.601 149.987 241.656 149.782 241.656ZM17.6493 162.614L148.501 238.166V209.208L17.6493 139.41V162.633V162.614Z" fill="#3B53A7"/>
<path d="M152.085 215.631L241.152 164.211V158.363L101.965 83.8506L12.8983 129.423V135.271L152.085 215.631Z" fill="#FEDD6C"/>
<path d="M152.085 209.783V215.63L12.8983 135.27V129.423L152.085 209.783Z" fill="#68CDED"/>
<path opacity="0.5" d="M152.085 209.783V215.63L12.8983 135.27V129.423L152.085 209.783Z" fill="#3B53A7"/>
<path d="M152.084 216.912C151.861 216.912 151.639 216.856 151.453 216.745L12.2474 136.384C11.8575 136.162 11.6162 135.735 11.6162 135.271V129.423C11.6162 128.94 11.8761 128.495 12.3031 128.291L101.369 82.718C101.741 82.5324 102.186 82.5324 102.557 82.718L241.745 157.231C242.153 157.454 242.413 157.881 242.413 158.363V164.211C242.413 164.675 242.172 165.083 241.782 165.324L152.715 216.745C152.511 216.856 152.288 216.912 152.084 216.912ZM14.1779 134.528L152.084 214.164L239.87 163.468V159.124L101.945 85.2797L14.1779 130.203V134.528Z" fill="#3B53A7"/>
<path d="M152.084 211.064C151.861 211.064 151.639 211.008 151.453 210.897L12.2474 130.518C11.8575 130.295 11.6162 129.868 11.6162 129.404C11.6162 128.94 11.8575 128.532 12.2474 128.291L101.314 76.8704C101.704 76.6477 102.186 76.6477 102.595 76.8704L245.29 159.106C245.699 159.347 245.94 159.774 245.921 160.238C245.921 160.702 245.661 161.129 245.253 161.352L152.678 210.916C152.493 211.008 152.288 211.064 152.084 211.064ZM15.4402 129.423L152.103 208.335L242.023 160.201L101.963 79.4693L15.4402 129.423Z" fill="#3B53A7"/>
<path d="M152.084 216.912C151.861 216.912 151.639 216.856 151.453 216.745L12.2474 136.384C11.8575 136.162 11.6162 135.735 11.6162 135.271V129.423C11.6162 128.959 11.8575 128.551 12.2474 128.309C12.6372 128.068 13.1384 128.087 13.5282 128.309L152.715 208.67C153.105 208.892 153.346 209.319 153.346 209.783V215.631C153.346 216.095 153.105 216.503 152.715 216.745C152.511 216.856 152.288 216.912 152.084 216.912ZM14.1779 134.528L150.803 213.422V210.526L14.1779 131.632V134.528Z" fill="#3B53A7"/>
<path d="M152.085 209.783L244.66 160.219L101.965 77.9842L12.8983 129.423L152.085 209.783Z" fill="#68CDED"/>
<path d="M152.085 211.064C151.862 211.064 151.639 211.008 151.453 210.897L12.2478 130.518C11.8579 130.296 11.6166 129.869 11.6166 129.404C11.6166 128.94 11.8579 128.532 12.2478 128.291L101.314 76.8705C101.704 76.6478 102.187 76.6478 102.595 76.8705L245.291 159.106C245.699 159.347 245.94 159.774 245.922 160.238C245.922 160.702 245.662 161.129 245.253 161.352L152.679 210.916C152.493 211.008 152.289 211.064 152.085 211.064ZM15.4406 129.423L152.103 208.335L242.023 160.201L101.964 79.4694L15.4406 129.423Z" fill="#3B53A7"/>
<path d="M238.701 165.64L230.774 170.225L152.085 215.649V209.783L230.774 164.359L237.884 160.256C238.942 159.644 240.056 159.347 241.151 159.328C244.771 159.273 248.112 162.131 248.112 166.16V189.568C248.112 193.689 245.922 197.476 242.376 199.518L230.793 206.2V206.145L152.103 251.569V245.703L230.793 200.279L237.903 196.176C238.125 196.046 238.367 195.935 238.608 195.824L239.555 195.285C242.246 193.745 243.88 190.886 243.88 187.804V168.61C243.88 165.955 241.021 164.303 238.719 165.621L238.701 165.64Z" fill="#68CDED"/>
<path opacity="0.5" d="M238.701 165.64L230.774 170.225L152.085 215.649V209.783L230.774 164.359L237.884 160.256C238.942 159.644 240.056 159.347 241.151 159.328C244.771 159.273 248.112 162.131 248.112 166.16V189.568C248.112 193.689 245.922 197.476 242.376 199.518L230.793 206.2V206.145L152.103 251.569V245.703L230.793 200.279L237.903 196.176C238.125 196.046 238.367 195.935 238.608 195.824L239.555 195.285C242.246 193.745 243.88 190.886 243.88 187.804V168.61C243.88 165.955 241.021 164.303 238.719 165.621L238.701 165.64Z" fill="#3B53A7"/>
<path d="M152.084 252.868C151.862 252.868 151.639 252.813 151.453 252.701C151.063 252.479 150.822 252.052 150.822 251.588V245.722C150.822 245.258 151.063 244.849 151.453 244.608L237.253 195.081C237.512 194.933 237.791 194.784 238.088 194.673L238.905 194.19C241.188 192.891 242.599 190.44 242.599 187.804V168.61C242.599 167.83 242.19 167.125 241.522 166.735C240.854 166.345 240.037 166.345 239.369 166.735L152.753 216.744C152.363 216.967 151.862 216.967 151.472 216.744C151.082 216.522 150.841 216.095 150.841 215.631V209.765C150.841 209.301 151.082 208.892 151.472 208.651L237.271 159.124C238.459 158.419 239.777 158.066 241.151 158.029C243.323 158.029 245.457 158.846 247.017 160.386C248.558 161.909 249.411 163.951 249.411 166.141V189.549C249.411 194.097 246.961 198.348 243.026 200.613L231.442 207.296C231.331 207.351 231.22 207.407 231.108 207.426L152.753 252.664C152.549 252.776 152.326 252.831 152.122 252.831L152.084 252.868ZM153.365 246.464V249.379L230.143 205.05C230.254 204.994 230.366 204.938 230.477 204.92L241.726 198.422C244.882 196.603 246.831 193.206 246.831 189.568V166.16C246.831 164.656 246.256 163.264 245.198 162.224C244.121 161.166 242.654 160.553 241.169 160.609C240.241 160.628 239.35 160.888 238.533 161.37L153.365 210.526V213.44L238.069 164.545C239.554 163.691 241.318 163.709 242.784 164.545C244.251 165.38 245.142 166.921 245.142 168.629V187.823C245.142 191.368 243.23 194.654 240.167 196.418L239.239 196.956C238.923 197.104 238.738 197.197 238.533 197.309L153.365 246.483V246.464Z" fill="#3B53A7"/>
<path d="M216.648 188.157C217.056 188.38 217.427 188.714 217.799 189.03C218.894 190.088 219.729 191.424 220.453 192.742C220.676 193.206 220.954 193.707 221.14 194.209C222.569 197.197 223.628 200.353 225.28 203.249C227.711 207.389 231.517 210.73 235.935 212.623L235.174 206.182L246.572 206.368C242.154 204.493 238.404 201.133 235.972 196.993C234.32 194.153 233.262 190.979 231.888 187.99C231.665 187.489 231.424 186.988 231.146 186.468C230.403 185.131 229.586 183.813 228.491 182.755C228.176 182.44 227.804 182.161 227.433 181.92L216.666 188.138L216.648 188.157Z" fill="#FF782D"/>
<path d="M235.934 213.496C235.823 213.496 235.712 213.477 235.6 213.422C231.015 211.454 227.08 208.001 224.555 203.695C223.497 201.857 222.699 199.926 221.901 198.051C221.418 196.882 220.917 195.731 220.378 194.599C220.211 194.153 220.026 193.782 219.84 193.429L219.692 193.151C219.06 192.018 218.262 190.682 217.204 189.661C216.907 189.401 216.573 189.104 216.239 188.918C215.979 188.77 215.793 188.491 215.793 188.176C215.793 187.86 215.96 187.582 216.22 187.433L226.987 181.214C227.265 181.066 227.599 181.066 227.859 181.214C228.323 181.512 228.732 181.827 229.066 182.161C230.273 183.331 231.164 184.797 231.869 186.078C232.147 186.598 232.389 187.136 232.63 187.656C233.113 188.714 233.577 189.809 234.022 190.886C234.821 192.798 235.637 194.784 236.677 196.585C239.034 200.595 242.654 203.787 246.887 205.588C247.258 205.755 247.462 206.145 247.388 206.553C247.295 206.962 246.961 207.222 246.534 207.222L236.12 207.055L236.77 212.531C236.807 212.828 236.677 213.125 236.436 213.31C236.287 213.422 236.101 213.477 235.916 213.477L235.934 213.496ZM218.206 188.25C218.206 188.25 218.318 188.343 218.374 188.398C219.617 189.605 220.508 191.072 221.214 192.352L221.362 192.649C221.566 193.058 221.789 193.503 221.956 193.93C222.476 195.007 222.977 196.195 223.478 197.383C224.24 199.221 225.038 201.096 226.04 202.841C228.138 206.386 231.256 209.319 234.932 211.213L234.338 206.293C234.301 206.052 234.394 205.811 234.542 205.625C234.709 205.44 234.932 205.328 235.192 205.347L243.007 205.477C239.833 203.472 237.141 200.706 235.229 197.457C234.134 195.564 233.28 193.522 232.463 191.554C232.017 190.496 231.572 189.419 231.089 188.38C230.867 187.897 230.644 187.396 230.384 186.913C229.734 185.744 228.936 184.426 227.878 183.405C227.729 183.256 227.562 183.108 227.377 182.978L218.206 188.287V188.25Z" fill="#3B53A7"/>
<path opacity="0.5" d="M136.695 193.392L22.6798 127.492C18.5216 125.098 22.1971 123.371 27.005 120.605L94.0554 82.922C98.8633 80.1561 106.121 79.8405 110.28 82.2537L221.121 145.666C225.279 148.06 224.759 152.256 219.951 155.04L152.901 192.723C148.093 195.489 140.835 195.805 136.677 193.392H136.695Z" fill="#3B53A7"/>
<path d="M142.914 188.751L224.444 141.674V136.309L97.0447 68.1082L15.515 109.82V115.185L142.914 188.751Z" fill="#FF782D"/>
<path opacity="0.5" d="M142.914 188.751L224.444 141.674V136.309L97.0447 68.1082L15.515 109.82V115.185L142.914 188.751Z" fill="#3B53A7"/>
<path d="M97.0447 62.7623L197.713 120.884L211.524 112.957L226.171 107.147L229.401 122.629L228.324 133.822L224.444 136.31L142.914 183.386L15.515 109.82L97.0447 62.7623Z" fill="#FF782D"/>
<path opacity="0.8" d="M97.0447 62.7623L197.713 120.884L211.524 112.957L226.171 107.147L229.401 122.629L228.324 133.822L224.444 136.31L142.914 183.386L15.515 109.82L97.0447 62.7623Z" fill="#3B53A7"/>
<path d="M142.914 189.92C142.709 189.92 142.505 189.865 142.338 189.772L14.9387 116.206C14.5675 116.002 14.3633 115.612 14.3633 115.185V109.82C14.3633 109.393 14.586 109.022 14.9387 108.799C15.2914 108.576 15.7555 108.595 16.1082 108.799L143.508 182.365C143.879 182.569 144.083 182.959 144.083 183.386V188.751C144.083 189.178 143.86 189.549 143.508 189.772C143.322 189.883 143.118 189.92 142.932 189.92H142.914ZM16.6837 114.517L141.744 186.727V184.073L16.6837 111.862V114.517Z" fill="#3B53A7"/>
<path d="M142.915 184.166C142.785 184.166 142.655 184.129 142.525 184.054L15.1259 110.507C14.8846 110.358 14.7361 110.117 14.7361 109.839C14.7361 109.56 14.8846 109.3 15.1259 109.17L96.6556 62.0939C96.897 61.9639 97.194 61.9639 97.4353 62.0939L197.714 119.993L211.135 112.27L225.874 106.404C226.097 106.311 226.32 106.33 226.524 106.441C226.728 106.553 226.877 106.738 226.914 106.961L230.144 122.462C230.144 122.462 230.162 122.61 230.144 122.703L229.067 133.896C229.049 134.138 228.919 134.342 228.714 134.472L224.835 136.959L143.286 184.054C143.157 184.129 143.027 184.166 142.897 184.166H142.915ZM17.0751 109.82L142.915 182.476L224.055 135.641L227.582 133.377L228.603 122.684L225.596 108.205L211.822 113.681L198.122 121.57C197.881 121.719 197.584 121.7 197.343 121.57L97.064 63.6718L17.0751 109.82Z" fill="#3B53A7"/>
<path d="M142.915 189.531C142.785 189.531 142.655 189.493 142.525 189.419L15.1259 115.853C14.8846 115.705 14.7361 115.463 14.7361 115.185V109.82C14.7361 109.542 14.8846 109.282 15.1259 109.152C15.3673 109.022 15.6643 109.022 15.9056 109.152L143.305 182.718C143.546 182.866 143.695 183.108 143.695 183.386V188.751C143.695 189.029 143.546 189.289 143.305 189.419C143.175 189.493 143.045 189.531 142.915 189.531ZM16.2954 114.739L142.136 187.396V183.832L16.2954 111.175V114.739Z" fill="#3B53A7"/>
<path d="M18.7087 84.1101V107.982L140.799 178.486L219.08 133.117C220.398 132.356 221.326 131.112 221.716 129.646C222.849 125.339 224.352 116.039 218.895 109.041C211.581 99.6475 106.197 75.7752 106.197 75.7752L18.6902 84.1287L18.7087 84.1101Z" fill="#E6E6E6"/>
<path d="M140.816 178.486V149.267L18.7073 84.1101V107.982L140.816 178.486Z" fill="white"/>
<path d="M140.815 179.655C140.611 179.655 140.407 179.599 140.24 179.506L18.131 109.003C17.7783 108.799 17.5555 108.409 17.5555 107.982V84.1099C17.5555 83.5158 18.0196 82.9961 18.6136 82.9404L106.121 74.5869C106.251 74.5869 106.362 74.5869 106.492 74.6055C117.314 77.0558 212.488 98.8491 219.858 108.298C225.519 115.556 224.183 124.949 222.883 129.905C222.419 131.687 221.287 133.172 219.709 134.101L141.428 179.469C141.242 179.581 141.038 179.618 140.834 179.618L140.815 179.655ZM19.8759 107.314L140.797 177.13L218.502 132.096C219.542 131.502 220.285 130.518 220.582 129.348C221.77 124.8 223.013 116.224 217.983 109.764C212.21 102.339 135.469 83.6086 106.139 76.963L19.8759 85.1865V107.314Z" fill="#3B53A7"/>
<path d="M140.815 179.655C140.611 179.655 140.407 179.599 140.24 179.506L18.131 109.003C17.7783 108.799 17.5555 108.409 17.5555 107.982V84.1099C17.5555 83.7015 17.7783 83.3116 18.131 83.1074C18.4837 82.9033 18.9292 82.8847 19.2819 83.0703L141.372 148.209C141.762 148.413 141.985 148.803 141.985 149.248V178.467C141.985 178.894 141.762 179.265 141.409 179.488C141.224 179.599 141.02 179.636 140.834 179.636L140.815 179.655ZM19.8759 107.314L139.627 176.462V149.972L19.8759 86.059V107.314Z" fill="#3B53A7"/>
<path d="M142.914 155.838L224.444 108.762V103.416L97.0447 35.2143L15.515 76.9258V82.272L142.914 155.838Z" fill="#FEDD6C"/>
<path d="M142.914 150.473V155.838L15.515 82.2719V76.9257L142.914 150.473Z" fill="#FF782D"/>
<path opacity="0.5" d="M142.914 150.473V155.838L15.515 82.2719V76.9257L142.914 150.473Z" fill="#3B53A7"/>
<path d="M142.914 157.008C142.71 157.008 142.506 156.952 142.339 156.859L14.9391 83.2929C14.5678 83.0887 14.3636 82.6989 14.3636 82.2719V76.9072C14.3636 76.4617 14.605 76.0718 14.9948 75.8676L96.5245 34.1561C96.8586 33.989 97.267 33.989 97.6012 34.1561L225.001 102.357C225.372 102.562 225.613 102.951 225.613 103.397V108.762C225.613 109.189 225.39 109.56 225.038 109.783L143.508 156.859C143.322 156.97 143.118 157.008 142.933 157.008H142.914ZM16.6841 81.6037L142.914 154.483L223.274 108.093V104.121L97.0443 36.5322L16.6841 77.6311V81.6037Z" fill="#3B53A7"/>
<path d="M142.914 151.643C142.71 151.643 142.506 151.587 142.339 151.494L14.9391 77.9282C14.5678 77.724 14.3636 77.3342 14.3636 76.9072C14.3636 76.4802 14.5864 76.109 14.9391 75.8862L96.4688 28.8284C96.8215 28.6242 97.267 28.6242 97.6383 28.8284L228.249 104.102C228.62 104.307 228.843 104.715 228.843 105.142C228.843 105.569 228.602 105.959 228.231 106.163L143.489 151.531C143.322 151.624 143.118 151.661 142.933 151.661L142.914 151.643ZM17.8535 76.9258L142.933 149.155L225.242 105.086L97.0443 31.2045L17.8535 76.9258Z" fill="#3B53A7"/>
<path d="M142.914 157.008C142.71 157.008 142.506 156.952 142.339 156.859L14.9391 83.293C14.5678 83.0888 14.3636 82.699 14.3636 82.272V76.9072C14.3636 76.4803 14.5864 76.109 14.9391 75.8863C15.2918 75.6635 15.7559 75.6821 16.1086 75.8863L143.508 149.452C143.879 149.657 144.083 150.046 144.083 150.473V155.838C144.083 156.265 143.861 156.636 143.508 156.859C143.322 156.97 143.118 157.008 142.933 157.008H142.914ZM16.6841 81.6037L141.745 153.815V151.16L16.6841 78.9492V81.6037Z" fill="#3B53A7"/>
<path d="M142.914 150.474L227.656 105.124L97.0447 29.8497L15.515 76.9261L142.914 150.474Z" fill="#FF782D"/>
<path d="M142.914 151.643C142.709 151.643 142.505 151.587 142.338 151.494L14.9387 77.9282C14.5675 77.724 14.3633 77.3342 14.3633 76.9072C14.3633 76.4802 14.586 76.109 14.9387 75.8862L96.4684 28.8284C96.8211 28.6242 97.2667 28.6242 97.6379 28.8284L228.249 104.102C228.62 104.307 228.843 104.715 228.843 105.142C228.843 105.569 228.601 105.959 228.23 106.163L143.489 151.531C143.322 151.624 143.118 151.661 142.932 151.661L142.914 151.643ZM17.8532 76.9258L142.932 149.155L225.242 105.086L97.0439 31.2045L17.8532 76.9258Z" fill="#3B53A7"/>
<path d="M222.198 110.061L214.94 114.256L142.915 155.838V150.473L214.94 108.892L221.456 105.142C222.421 104.585 223.442 104.306 224.445 104.288C227.749 104.232 230.812 106.85 230.812 110.544V131.984C230.812 135.753 228.807 139.224 225.558 141.099L214.959 147.225V147.169L142.933 188.751V183.386L214.959 141.804L221.474 138.054C221.679 137.924 221.901 137.832 222.124 137.739L222.978 137.238C225.428 135.827 226.932 133.209 226.932 130.388V112.808C226.932 110.395 224.315 108.873 222.217 110.08L222.198 110.061Z" fill="#FF782D"/>
<path opacity="0.5" d="M222.198 110.061L214.94 114.256L142.915 155.838V150.473L214.94 108.892L221.456 105.142C222.421 104.585 223.442 104.306 224.445 104.288C227.749 104.232 230.812 106.85 230.812 110.544V131.984C230.812 135.753 228.807 139.224 225.558 141.099L214.959 147.225V147.169L142.933 188.751V183.386L214.959 141.804L221.474 138.054C221.679 137.924 221.901 137.832 222.124 137.739L222.978 137.238C225.428 135.827 226.932 133.209 226.932 130.388V112.808C226.932 110.395 224.315 108.873 222.217 110.08L222.198 110.061Z" fill="#3B53A7"/>
<path d="M142.914 189.92C142.71 189.92 142.506 189.865 142.339 189.772C141.967 189.568 141.763 189.178 141.763 188.751V183.386C141.763 182.959 141.986 182.588 142.339 182.365L220.88 137.034C221.121 136.885 221.381 136.774 221.641 136.662L222.383 136.217C224.462 135.029 225.762 132.783 225.762 130.369V112.79C225.762 112.066 225.39 111.435 224.778 111.082C224.165 110.73 223.423 110.73 222.81 111.082L143.527 156.859C143.174 157.063 142.71 157.063 142.357 156.859C141.986 156.655 141.782 156.265 141.782 155.838V150.473C141.782 150.046 142.004 149.675 142.357 149.452L220.898 104.121C221.993 103.49 223.181 103.137 224.444 103.119C226.43 103.119 228.398 103.861 229.808 105.272C231.219 106.664 231.999 108.539 231.999 110.544V131.984C231.999 136.143 229.753 140.022 226.152 142.12L215.552 148.246C215.459 148.302 215.348 148.339 215.255 148.376L143.527 189.772C143.341 189.883 143.137 189.92 142.951 189.92H142.914ZM144.083 184.054V186.709L214.364 146.148C214.457 146.093 214.568 146.055 214.661 146.018L224.963 140.078C227.841 138.407 229.641 135.307 229.641 131.984V110.544C229.641 109.17 229.103 107.889 228.138 106.943C227.154 105.977 225.817 105.42 224.462 105.458C223.608 105.476 222.792 105.718 222.049 106.144L144.102 151.142V153.796L221.622 109.04C222.977 108.261 224.592 108.261 225.929 109.04C227.265 109.82 228.082 111.212 228.082 112.772V130.351C228.082 133.599 226.337 136.607 223.534 138.222L222.68 138.723C222.383 138.853 222.216 138.946 222.049 139.039L144.083 184.036V184.054Z" fill="#3B53A7"/>
<path d="M181.952 160.071L263.463 112.995V107.63L136.063 39.4285L54.5521 81.14V86.5048L181.952 160.071Z" fill="#B6CCDF"/>
<path opacity="0.5" d="M181.952 160.071L263.463 112.995V107.63L136.063 39.4285L54.5521 81.14V86.5048L181.952 160.071Z" fill="#3B53A7"/>
<path d="M136.063 34.0823L236.75 92.2038L250.543 84.2773L265.189 78.467L268.419 93.9487L267.342 105.142L263.463 107.63L181.952 154.706L54.5521 81.1401L136.063 34.0823Z" fill="#B6CCDF"/>
<path opacity="0.8" d="M136.063 34.0823L236.75 92.2038L250.543 84.2773L265.189 78.467L268.419 93.9487L267.342 105.142L263.463 107.63L181.952 154.706L54.5521 81.1401L136.063 34.0823Z" fill="#3B53A7"/>
<path d="M181.951 161.24C181.747 161.24 181.543 161.185 181.376 161.092L53.9577 87.5258C53.5864 87.3216 53.3822 86.9318 53.3822 86.5049V81.1401C53.3822 80.7131 53.605 80.3419 53.9577 80.1191C54.3104 79.8963 54.7744 79.9149 55.1271 80.1191L182.527 153.685C182.898 153.889 183.102 154.279 183.102 154.706V160.071C183.102 160.498 182.879 160.869 182.527 161.092C182.341 161.203 182.137 161.24 181.951 161.24ZM55.7212 85.8366L180.782 158.048V155.393L55.7212 83.182V85.8366Z" fill="#3B53A7"/>
<path d="M181.951 155.486C181.821 155.486 181.691 155.449 181.561 155.374L54.162 81.8269C53.9207 81.6784 53.7722 81.437 53.7722 81.1586C53.7722 80.8801 53.9207 80.6202 54.162 80.4903L135.692 33.414C135.933 33.284 136.23 33.284 136.471 33.414L236.75 91.3127L250.171 83.5904L264.91 77.7244C265.133 77.6316 265.356 77.6501 265.56 77.7615C265.764 77.8729 265.913 78.0585 265.95 78.2813L269.18 93.7816C269.18 93.7816 269.198 93.9301 269.18 94.0229L268.103 105.217C268.085 105.458 267.955 105.662 267.751 105.792L263.871 108.279L182.323 155.374C182.193 155.449 182.063 155.486 181.933 155.486H181.951ZM56.1112 81.14L181.951 153.796L263.091 106.961L266.618 104.697L267.639 94.0043L264.632 79.525L250.858 85.0012L237.158 92.8905C236.917 93.0391 236.62 93.0205 236.379 92.8905L136.1 34.9918L56.1297 81.1586L56.1112 81.14Z" fill="#3B53A7"/>
<path d="M181.951 160.851C181.821 160.851 181.691 160.814 181.561 160.739L54.162 87.1734C53.9207 87.0249 53.7722 86.7836 53.7722 86.5051V81.1403C53.7722 80.8619 53.9207 80.602 54.162 80.4721C54.4033 80.3421 54.7003 80.3421 54.9417 80.4721L182.341 154.038C182.582 154.187 182.731 154.428 182.731 154.706V160.071C182.731 160.35 182.582 160.61 182.341 160.739C182.211 160.814 182.081 160.851 181.951 160.851ZM55.3315 86.0596L181.172 158.716V155.152L55.3315 82.4955V86.0596Z" fill="#3B53A7"/>
<path d="M57.7267 55.4302V79.3025L179.817 149.806L258.098 104.437C259.416 103.676 260.344 102.432 260.734 100.966C261.866 96.6591 263.37 87.3589 257.913 80.3606C250.599 70.9676 145.215 47.0953 145.215 47.0953L57.7081 55.4487L57.7267 55.4302Z" fill="#E6E6E6"/>
<path d="M179.835 149.806V120.587L57.7263 55.4302V79.3025L179.835 149.806Z" fill="white"/>
<path d="M179.834 150.975C179.63 150.975 179.426 150.919 179.259 150.826L57.15 80.323C56.7973 80.1188 56.5745 79.7289 56.5745 79.302V55.4297C56.5745 54.8357 57.0386 54.3159 57.6326 54.2602L145.14 45.9067C145.27 45.9067 145.381 45.9067 145.511 45.9253C156.333 48.3756 251.507 70.1689 258.877 79.6176C264.538 86.8758 263.202 96.2688 261.902 101.225C261.438 103.007 260.306 104.492 258.728 105.42L180.447 150.789C180.261 150.9 180.057 150.937 179.853 150.937L179.834 150.975ZM58.8949 78.6337L179.816 148.45L257.521 103.416C258.561 102.822 259.303 101.838 259.601 100.668C260.789 96.1203 262.032 87.5441 257.002 81.0841C251.229 73.6588 174.488 54.9285 145.158 48.2828L58.8949 56.5063V78.6337Z" fill="#3B53A7"/>
<path d="M179.834 150.975C179.63 150.975 179.426 150.919 179.259 150.827L57.15 80.3235C56.7973 80.1193 56.5745 79.7294 56.5745 79.3025V55.4302C56.5745 55.0218 56.7973 54.632 57.15 54.4278C57.5027 54.2236 57.9482 54.205 58.3009 54.3906L180.391 119.529C180.781 119.733 181.004 120.123 181.004 120.569V149.787C181.004 150.214 180.781 150.585 180.428 150.808C180.243 150.919 180.039 150.957 179.853 150.957L179.834 150.975ZM58.8949 78.6342L178.646 147.782V121.293L58.8949 57.3793V78.6342Z" fill="#3B53A7"/>
<path d="M181.952 127.158L263.463 80.0821V74.7359L136.063 6.53458L54.5521 48.2462V53.5924L181.952 127.158Z" fill="#FEDD6C"/>
<path d="M181.952 121.794V127.158L54.5521 53.5922V48.246L181.952 121.794Z" fill="#B6CCDF"/>
<path opacity="0.5" d="M181.952 121.794V127.158L54.5521 53.5922V48.246L181.952 121.794Z" fill="#3B53A7"/>
<path d="M181.951 128.328C181.747 128.328 181.542 128.272 181.375 128.179L53.9573 54.6132C53.586 54.409 53.3818 54.0191 53.3818 53.5922V48.2274C53.3818 47.7819 53.6231 47.3921 54.013 47.1879L135.543 5.49487C135.877 5.3278 136.285 5.3278 136.619 5.49487L264.019 73.6962C264.39 73.9004 264.631 74.2902 264.631 74.7357V80.1005C264.631 80.5274 264.409 80.8987 264.056 81.1215L182.526 128.198C182.341 128.309 182.136 128.346 181.951 128.346V128.328ZM55.7208 52.9239L181.951 125.803L262.311 79.4136V75.4411L136.062 7.8524L55.7208 48.9514V52.9239Z" fill="#3B53A7"/>
<path d="M181.951 122.963C181.747 122.963 181.542 122.907 181.375 122.815L53.9573 49.2486C53.586 49.0444 53.3818 48.6546 53.3818 48.2276C53.3818 47.8007 53.6046 47.4294 53.9573 47.2066L135.487 0.148844C135.84 -0.0553519 136.285 -0.0553519 136.656 0.148844L267.267 75.4227C267.639 75.6269 267.861 76.0353 267.861 76.4623C267.861 76.8892 267.62 77.2791 267.249 77.4833L182.508 122.852C182.341 122.945 182.136 122.982 181.951 122.982V122.963ZM56.8903 48.2462L181.969 120.476L264.279 76.4066L136.062 2.52494L56.8903 48.2462Z" fill="#3B53A7"/>
<path d="M181.951 128.328C181.747 128.328 181.542 128.272 181.375 128.179L53.9573 54.6131C53.586 54.4089 53.3818 54.0191 53.3818 53.5922V48.2274C53.3818 47.8004 53.6046 47.4292 53.9573 47.2064C54.31 46.9837 54.774 47.0022 55.1267 47.2064L182.526 120.772C182.897 120.977 183.102 121.367 183.102 121.793V127.158C183.102 127.585 182.879 127.956 182.526 128.179C182.341 128.291 182.136 128.328 181.951 128.328ZM55.7208 52.9239L180.781 125.135V122.48L55.7208 50.2693V52.9239Z" fill="#3B53A7"/>
<path d="M181.952 121.794L266.674 76.4439L136.063 1.17004L54.5521 48.2464L181.952 121.794Z" fill="#B6CCDF"/>
<path d="M181.951 122.963C181.747 122.963 181.543 122.907 181.376 122.815L53.9577 49.2485C53.5864 49.0443 53.3822 48.6545 53.3822 48.2275C53.3822 47.8006 53.605 47.4293 53.9577 47.2065L135.487 0.148752C135.84 -0.0554434 136.286 -0.0554434 136.657 0.148752L267.268 75.4226C267.639 75.6268 267.862 76.0352 267.862 76.4622C267.862 76.8891 267.62 77.279 267.249 77.4832L182.508 122.852C182.341 122.945 182.137 122.982 181.951 122.982V122.963ZM56.8907 48.2461L181.97 120.476L264.279 76.4065L136.063 2.52485L56.8907 48.2461Z" fill="#3B53A7"/>
<path d="M261.234 81.3814L253.976 85.5767L181.951 127.158V121.794L253.976 80.2119L260.492 76.4621C261.457 75.9052 262.478 75.6268 263.481 75.6082C266.785 75.5525 269.848 78.17 269.848 81.864V103.305C269.848 107.073 267.843 110.544 264.594 112.419L253.995 118.545V118.489L181.969 160.071V154.706L253.995 113.125L260.511 109.375C260.715 109.245 260.937 109.152 261.16 109.059L262.014 108.558C264.464 107.147 265.968 104.53 265.968 101.708V84.1288C265.968 81.7155 263.351 80.1933 261.253 81.4L261.234 81.3814Z" fill="#B6CCDF"/>
<path opacity="0.5" d="M261.234 81.3814L253.976 85.5767L181.951 127.158V121.794L253.976 80.2119L260.492 76.4621C261.457 75.9052 262.478 75.6268 263.481 75.6082C266.785 75.5525 269.848 78.17 269.848 81.864V103.305C269.848 107.073 267.843 110.544 264.594 112.419L253.995 118.545V118.489L181.969 160.071V154.706L253.995 113.125L260.511 109.375C260.715 109.245 260.937 109.152 261.16 109.059L262.014 108.558C264.464 107.147 265.968 104.53 265.968 101.708V84.1288C265.968 81.7155 263.351 80.1933 261.253 81.4L261.234 81.3814Z" fill="#3B53A7"/>
<path d="M181.95 161.241C181.746 161.241 181.542 161.185 181.375 161.092C181.003 160.888 180.799 160.498 180.799 160.071V154.706C180.799 154.279 181.022 153.908 181.375 153.685L259.916 108.354C260.157 108.205 260.417 108.094 260.677 107.983L261.419 107.537C263.498 106.349 264.798 104.103 264.798 101.69V84.1104C264.798 83.3864 264.426 82.7553 263.814 82.4026C263.201 82.0499 262.459 82.0499 261.846 82.4026L182.563 128.18C182.21 128.384 181.746 128.384 181.393 128.18C181.022 127.975 180.818 127.585 180.818 127.159V121.794C180.818 121.367 181.04 120.996 181.393 120.773L259.934 75.4414C261.029 74.8102 262.217 74.4575 263.48 74.439C265.466 74.439 267.434 75.1815 268.845 76.5923C270.255 77.9845 271.035 79.8594 271.035 81.8643V103.305C271.035 107.463 268.789 111.343 265.188 113.44L254.588 119.566C254.495 119.622 254.384 119.659 254.291 119.696L182.563 161.092C182.377 161.203 182.173 161.241 181.987 161.241H181.95ZM183.12 155.375V158.029L253.4 117.469C253.493 117.413 253.604 117.376 253.697 117.339L264 111.398C266.877 109.728 268.677 106.628 268.677 103.305V81.8643C268.677 80.4906 268.139 79.2097 267.174 78.263C266.19 77.2977 264.853 76.7408 263.498 76.7779C262.644 76.7965 261.828 77.0378 261.085 77.4648L183.138 122.462V125.117L260.658 80.3606C262.013 79.581 263.628 79.581 264.965 80.3606C266.301 81.1403 267.118 82.5325 267.118 84.0918V101.671C267.118 104.92 265.373 107.927 262.57 109.542L261.716 110.043C261.419 110.173 261.252 110.266 261.085 110.359L183.12 155.356V155.375Z" fill="#3B53A7"/>
<path d="M241.037 102.005C241.408 102.21 241.761 102.507 242.095 102.804C243.098 103.769 243.859 104.994 244.527 106.201C244.731 106.628 244.991 107.092 245.158 107.537C246.458 110.266 247.423 113.162 248.945 115.816C251.173 119.603 254.663 122.666 258.691 124.393L257.985 118.489L268.418 118.657C264.39 116.93 260.937 113.867 258.709 110.08C257.187 107.481 256.222 104.567 254.96 101.838C254.755 101.374 254.533 100.91 254.291 100.446C253.623 99.2208 252.862 98.0142 251.86 97.0489C251.563 96.7519 251.228 96.5106 250.894 96.2878L241.056 101.987L241.037 102.005Z" fill="#68CDED"/>
<path d="M258.692 125.191C258.581 125.191 258.488 125.172 258.395 125.135C254.2 123.334 250.598 120.179 248.278 116.243C247.313 114.554 246.57 112.791 245.846 111.064C245.401 110.006 244.955 108.929 244.454 107.89C244.306 107.481 244.12 107.147 243.953 106.813L243.823 106.553C243.247 105.514 242.505 104.289 241.54 103.36C241.261 103.119 240.964 102.859 240.649 102.674C240.407 102.544 240.24 102.284 240.24 102.005C240.24 101.727 240.389 101.467 240.63 101.318L250.469 95.6195C250.71 95.471 251.025 95.4896 251.267 95.6195C251.694 95.8794 252.065 96.1764 252.362 96.492C253.476 97.5501 254.293 98.9052 254.924 100.075C255.184 100.557 255.406 101.04 255.629 101.523C256.075 102.488 256.483 103.49 256.91 104.474C257.634 106.219 258.395 108.038 259.342 109.69C261.495 113.366 264.818 116.299 268.679 117.933C269.013 118.081 269.217 118.452 269.143 118.805C269.069 119.176 268.753 119.418 268.363 119.418L258.841 119.269L259.435 124.281C259.472 124.56 259.342 124.838 259.119 125.005C258.989 125.098 258.822 125.154 258.655 125.154L258.692 125.191ZM242.468 102.098C242.468 102.098 242.561 102.191 242.616 102.228C243.767 103.323 244.584 104.66 245.215 105.848L245.364 106.126C245.549 106.498 245.753 106.906 245.902 107.296C246.385 108.298 246.83 109.375 247.294 110.47C248 112.141 248.724 113.867 249.633 115.464C251.545 118.712 254.404 121.404 257.764 123.13L257.226 118.619C257.207 118.397 257.263 118.174 257.43 118.007C257.578 117.84 257.782 117.728 258.024 117.747L265.189 117.858C262.293 116.039 259.824 113.496 258.061 110.507C257.058 108.762 256.279 106.906 255.536 105.105C255.128 104.121 254.719 103.156 254.293 102.191C254.088 101.745 253.884 101.3 253.643 100.854C253.049 99.7963 252.325 98.5711 251.341 97.6429C251.192 97.4944 251.044 97.3645 250.877 97.2531L242.486 102.098H242.468Z" fill="#3B53A7"/>
<path d="M262.649 150.112C259.527 150.112 257 152.655 257 155.761C257 158.867 259.543 161.41 262.649 161.41C265.755 161.41 268.298 158.867 268.298 155.761C268.298 152.655 265.755 150.112 262.649 150.112ZM262.649 158.111C261.361 158.111 260.315 157.065 260.315 155.777C260.315 154.49 261.361 153.443 262.649 153.443C263.936 153.443 264.983 154.49 264.983 155.777C264.983 157.065 263.936 158.111 262.649 158.111Z" fill="#68CDED"/>
<path d="M264.726 139.764C266.041 139.764 267.108 138.697 267.108 137.382C267.108 136.066 266.041 135 264.726 135C263.41 135 262.344 136.066 262.344 137.382C262.344 138.697 263.41 139.764 264.726 139.764Z" fill="#FF782D"/>
<path d="M282.284 148.245C284.08 148.245 285.535 146.79 285.535 144.994C285.535 143.199 284.08 141.743 282.284 141.743C280.489 141.743 279.033 143.199 279.033 144.994C279.033 146.79 280.489 148.245 282.284 148.245Z" fill="#3B53A7"/>
<path d="M33.1155 44.0208C33.0641 47.1426 35.5649 49.7109 38.6706 49.762C41.7763 49.8132 44.3607 47.3126 44.4119 44.2069C44.463 41.1012 41.9624 38.5168 38.8567 38.4657C35.751 38.4145 33.1667 40.9151 33.1155 44.0208ZM41.1131 44.1526C41.0919 45.4399 40.0287 46.4686 38.7413 46.4474C37.454 46.4262 36.4253 45.363 36.4465 44.0757C36.4677 42.7883 37.5309 41.7596 38.8182 41.7808C40.1055 41.802 41.1343 42.8652 41.1131 44.1526Z" fill="#3B53A7"/>
<path d="M22.8024 41.7741C22.824 40.4588 21.7753 39.375 20.46 39.3533C19.1447 39.3316 18.0609 40.3803 18.0392 41.6956C18.0176 43.0109 19.0663 44.0948 20.3816 44.1164C21.6969 44.1381 22.7807 43.0894 22.8024 41.7741Z" fill="#FF782D"/>
<path d="M31.5722 24.3576C31.6017 22.5624 30.1704 21.0831 28.3752 21.0535C26.58 21.024 25.1007 22.4553 25.0711 24.2505C25.0415 26.0457 26.4729 27.525 28.2681 27.5546C30.0633 27.5841 31.5426 26.1528 31.5722 24.3576Z" fill="#68CDED"/>
</svg>
