<svg width="59" height="59" viewBox="0 0 59 59" fill="none" xmlns="http://www.w3.org/2000/svg">
<g clip-path="url(#clip0_22279_70)">
<path d="M29.5 59C45.7924 59 59 45.7924 59 29.5C59 13.2076 45.7924 0 29.5 0C13.2076 0 0 13.2076 0 29.5C0 45.7924 13.2076 59 29.5 59Z" fill="url(#paint0_linear_22279_70)"/>
<path fill-rule="evenodd" clip-rule="evenodd" d="M16.3022 30.9007C16.3022 28.5549 18.2039 26.6533 20.5496 26.6533H38.3611C40.7068 26.6533 42.6085 28.5549 42.6085 30.9007V37.4772C42.6085 43.1524 38.0078 47.7531 32.3326 47.7531H26.5781C20.9029 47.7531 16.3022 43.1524 16.3022 37.4772V30.9007ZM20.5496 28.0234C18.9605 28.0234 17.6724 29.3116 17.6724 30.9007V37.4772C17.6724 42.3957 21.6596 46.383 26.5781 46.383H32.3326C37.2511 46.383 41.2383 42.3957 41.2383 37.4772V30.9007C41.2383 29.3116 39.9502 28.0234 38.3611 28.0234H20.5496Z" fill="white"/>
<path fill-rule="evenodd" clip-rule="evenodd" d="M34.6619 28.0235H24.249V20.2139C24.249 17.5655 26.396 15.4185 29.0444 15.4185H29.8665C32.5149 15.4185 34.6619 17.5655 34.6619 20.2139V28.0235ZM33.2918 26.6534V20.2139C33.2918 18.3222 31.7582 16.7886 29.8665 16.7886H29.0444C27.1527 16.7886 25.6192 18.3222 25.6192 20.2139V26.6534H33.2918Z" fill="white"/>
<path fill-rule="evenodd" clip-rule="evenodd" d="M38.7723 28.0233H20.1387V19.9397C20.1387 15.4752 23.7579 11.856 28.2224 11.856H30.6886C35.1531 11.856 38.7723 15.4752 38.7723 19.9397V28.0233ZM37.4021 26.6532V19.9397C37.4021 16.2319 34.3964 13.2261 30.6886 13.2261H28.2224C24.5146 13.2261 21.5088 16.2319 21.5088 19.9397V26.6532H37.4021Z" fill="white"/>
</g>
<defs>
<linearGradient id="paint0_linear_22279_70" x1="29.5" y1="0" x2="29.5" y2="59" gradientUnits="userSpaceOnUse">
<stop stop-color="#1980CF"/>
<stop offset="1" stop-color="#142436"/>
</linearGradient>
<clipPath id="clip0_22279_70">
<rect width="59" height="59" fill="white"/>
</clipPath>
</defs>
</svg>
