<svg width="137" height="52" viewBox="0 0 137 52" fill="none" xmlns="http://www.w3.org/2000/svg">
<g clip-path="url(#clip0_2316_85)">
<path fill-rule="evenodd" clip-rule="evenodd" d="M49.2172 15.7V30.9191H52.9399H56.6627V25.0656C56.6627 21.2023 56.6627 19.095 56.6627 18.8609C56.779 18.2756 56.8953 17.6902 57.2443 17.2219C57.7097 16.4024 58.524 16.0512 59.4547 16.1683C60.7344 16.2854 61.5488 16.9878 61.7814 18.5097C61.7814 18.7438 61.7814 21.0852 61.7814 24.8315V30.802H65.5042H69.227V23.7778C69.227 17.8073 69.227 16.6366 69.1106 16.0512C68.8779 13.944 68.1799 12.305 66.9002 11.1343C65.8532 10.0807 64.5735 9.49533 63.0611 9.26119C62.4795 9.14412 60.8508 9.26118 60.3854 9.37825C58.9894 9.72946 57.9424 10.1977 57.0117 11.2514L56.43 11.7196V6.1003V0.480957H52.7073H48.9845V15.7H49.2172ZM128.326 0.715097C128.093 1.18338 120.531 19.5633 120.531 19.5633C120.531 19.5633 122.509 19.5633 124.952 19.5633H129.373L133.328 10.0807C135.538 4.81254 137.283 0.480957 137.283 0.480957C137.283 0.480957 135.306 0.480957 132.863 0.480957H128.442L128.326 0.715097ZM32.9301 9.37825C31.3014 9.61239 30.0217 10.0807 28.7421 10.9002C26.1827 12.5391 24.554 15.3488 24.0886 18.6268C23.8559 20.1487 23.9723 22.0218 24.3213 23.4266C25.252 27.0558 27.695 29.8655 30.8361 30.9191C31.9995 31.2703 32.4648 31.3874 33.8608 31.3874C34.9079 31.3874 35.2569 31.3874 35.6059 31.2703C37.1182 30.9191 38.1653 30.3337 39.0959 29.3972L39.5613 28.9289V29.8655V30.802H43.1677H46.7741V20.2657V9.72947H43.1677H39.5613V10.666V11.6026L39.2123 11.2514C38.3979 10.3148 37.2346 9.72946 35.7222 9.37825C35.2569 9.26118 35.0242 9.26119 34.0935 9.26119C33.5118 9.37826 33.0465 9.37825 32.9301 9.37825ZM80.3952 9.37825C78.4175 9.61239 76.3234 10.549 74.8111 11.7196C71.9027 14.1781 70.3903 18.0414 70.972 22.0218C71.5537 26.4704 74.6947 29.8655 79.1155 31.0362C80.0462 31.2703 80.9769 31.3874 82.1402 31.3874C84.2343 31.3874 85.7466 31.0362 87.3754 30.2167C90.6328 28.5777 92.7268 25.6509 93.1921 22.0218C93.3085 21.0852 93.3085 19.5633 93.1921 18.7438C92.9595 16.9878 92.2615 15.2317 91.2144 13.8269C90.7491 13.2416 89.8184 12.1879 89.2367 11.7196C87.608 10.4319 85.7467 9.61239 83.6526 9.37825C82.8383 9.26118 81.2095 9.26118 80.3952 9.37825ZM104.128 9.37825C102.15 9.61239 100.172 10.4319 98.6599 11.7196C98.0783 12.1879 97.0312 13.2416 96.6822 13.8269C95.6352 15.2317 95.0535 16.9878 94.7045 18.7438C94.5882 19.5633 94.5882 21.2023 94.7045 22.0218C95.4025 26.7046 98.7763 30.3337 103.43 31.2703C104.36 31.5044 104.826 31.5044 105.873 31.5044C107.85 31.5044 109.596 31.1532 111.224 30.2167C115.529 27.9923 117.855 23.0754 116.808 18.0414C115.878 13.3586 112.155 9.9636 107.385 9.37825C106.571 9.26118 104.942 9.26118 104.128 9.37825ZM0.00708008 9.84653C0.00708008 9.84653 1.98479 14.6464 4.42784 20.4999C6.8709 26.3534 8.84861 31.1532 8.84861 31.1532C8.84861 31.1532 8.1506 32.9093 7.21991 35.0165C6.28922 37.1238 5.5912 38.7628 5.5912 38.8798C5.5912 38.9969 7.33624 38.8798 9.54663 38.8798H13.502L19.4352 24.4802C22.6926 16.5195 25.3683 10.0807 25.3683 9.9636C25.3683 9.9636 24.554 9.84653 21.4129 9.9636H17.4575L15.0144 16.0512C13.9674 19.3292 12.9204 22.1389 12.9204 22.1389C12.9204 22.1389 11.8733 19.3292 10.4773 16.0512L8.15059 9.9636H4.07884C1.86845 9.84653 0.00708008 9.84653 0.00708008 9.84653ZM36.5366 16.1683C38.0489 16.5195 39.2123 17.6902 39.6776 19.2121C39.794 19.7975 39.794 20.8511 39.6776 21.4364C39.3286 22.9583 38.1653 24.129 36.6529 24.4802C36.0712 24.5973 35.0242 24.5973 34.4425 24.4802C33.1628 24.129 31.9995 23.1925 31.5341 22.0218C30.9524 20.734 31.1851 19.095 31.8831 17.9243C32.9301 16.4024 34.6752 15.8171 36.5366 16.1683ZM82.9546 16.2854C84.5833 16.5195 85.863 17.8073 86.212 19.4463C86.3283 20.0316 86.3283 20.9682 86.212 21.5535C85.863 23.0754 84.6996 24.129 83.3036 24.5973C82.8383 24.7144 81.5586 24.7144 81.0932 24.5973C79.9299 24.2461 78.9992 23.4266 78.4175 22.373C78.0685 21.6706 78.0685 21.3194 78.0685 20.4999C78.0685 19.7975 78.1848 19.4463 78.4175 18.8609C78.7665 18.1585 79.2318 17.4561 79.9299 16.9878C80.6279 16.2854 81.7912 16.0512 82.9546 16.2854ZM106.571 16.2854C107.967 16.5195 109.13 17.4561 109.596 18.7438C109.828 19.3292 109.945 19.6804 109.945 20.3828C109.945 21.2023 109.828 21.5535 109.596 22.2559C109.13 23.3096 108.083 24.129 106.92 24.4802C106.454 24.5973 105.175 24.5973 104.709 24.4802C103.313 24.129 102.15 22.9583 101.801 21.4364C101.685 20.8511 101.685 19.7975 101.801 19.2121C102.266 17.339 103.895 16.0512 105.756 16.0512C105.989 16.1683 106.338 16.1683 106.571 16.2854ZM122.392 21.4364C120.182 21.6706 118.553 23.3096 118.088 25.4168C117.972 26.0022 117.972 27.0558 118.088 27.6411C118.553 29.5142 119.949 30.802 121.811 31.2703C122.043 31.2703 122.509 31.3874 122.858 31.3874C124.254 31.3874 125.417 30.9191 126.348 29.9825C127.395 28.9289 127.744 27.8753 127.744 26.4704C127.744 24.7144 126.93 23.1925 125.534 22.373C124.603 21.5535 123.323 21.3194 122.392 21.4364ZM61.0834 32.9093C59.5711 33.3775 58.8731 35.1336 59.6874 36.4214C59.9201 36.7726 60.3854 37.2408 60.7344 37.3579C61.0834 37.475 61.0834 37.475 61.7814 37.475C62.3631 37.475 62.4795 37.475 62.8285 37.3579C63.2938 37.1238 63.7592 36.6555 63.9918 36.1872C64.5735 35.0165 63.9918 33.6117 62.8285 33.0263C62.4795 32.7922 62.3631 32.7922 61.8978 32.7922C61.4324 32.7922 61.3161 32.7922 61.0834 32.9093ZM54.8013 33.0263C52.8236 33.3775 51.5439 34.6653 50.9622 36.7726C50.8459 37.1238 50.8459 37.475 50.8459 37.9433V38.7628H50.0315H49.2172V40.5188V42.2748H50.0315H50.8459V46.4894V50.7039H53.0563H55.2666V46.4894V42.2748H56.779H58.2914V40.5188V38.7628H56.779H55.2666V38.4115C55.383 37.5921 55.732 37.0067 56.43 36.8896C56.8953 36.7726 57.5934 36.7726 58.0587 37.0067C58.2914 37.1238 58.4077 37.1238 58.4077 37.1238C58.4077 37.1238 58.4077 36.3043 58.4077 35.2507V33.3775L58.0587 33.2605C57.5934 33.0263 57.0117 33.0263 56.1973 33.0263C55.6157 32.9093 55.1503 33.0263 54.8013 33.0263ZM72.4844 38.5286C71.5537 38.7628 70.8557 39.231 70.3903 39.8164L70.1576 40.1676V39.4652V38.7628H67.9473H65.7369V44.7333V50.7039H67.9473H70.1576V47.4259C70.1576 45.5528 70.1576 44.0309 70.1576 43.7968C70.274 43.3285 70.5066 42.8602 70.7393 42.6261C71.321 42.1578 72.368 42.2748 72.8334 42.8602C73.1824 43.3285 73.1824 43.3285 73.1824 47.0747V50.5868H75.3928H77.6031V46.6064C77.6031 42.3919 77.6031 41.9236 77.3705 41.1041C77.1378 40.4017 76.9051 39.8164 76.3234 39.3481C75.8581 38.8798 75.3928 38.5286 74.6947 38.4115C74.1131 38.4115 72.9497 38.4115 72.4844 38.5286ZM83.5363 38.4115C82.8383 38.5286 81.7912 38.8798 81.2096 39.3481C79.9299 40.2847 79.1155 41.6895 78.7665 43.4455C78.6502 44.148 78.6502 45.4357 78.7665 46.1381C78.9992 47.1918 79.3482 48.2454 79.9299 48.9478C80.7442 50.0015 81.7912 50.7039 83.0709 50.938C83.7689 51.0551 84.9323 51.0551 85.514 50.8209C86.212 50.5868 86.6773 50.3527 87.259 49.8844L87.7244 49.4161V50.0015V50.5868H89.9347H92.1451V44.6162V38.6457H89.9347H87.7244V39.231V39.8164L87.3754 39.6993C86.7937 39.114 85.9793 38.6457 85.0486 38.5286C84.6996 38.4115 83.8853 38.4115 83.5363 38.4115ZM100.405 38.5286C99.5906 38.6457 98.7763 39.231 98.3109 39.8164L98.0783 40.0505V39.3481V38.6457H95.8679H93.6575V44.6162V50.5868H95.8679H98.0783V47.1918C98.0783 43.5626 98.0783 43.5626 98.3109 42.9773C98.5436 42.509 99.0089 42.2748 99.4743 42.2748C99.9396 42.2748 100.172 42.3919 100.521 42.6261C100.987 43.0943 100.987 42.9773 100.987 46.9576V50.4697H103.197H105.407V46.1381C105.407 41.8066 105.407 41.8066 105.291 41.3383C105.175 41.1042 105.058 40.6359 104.942 40.2847C104.709 39.8164 104.593 39.6993 104.244 39.3481C103.779 38.8798 103.43 38.6457 102.964 38.4115C102.15 38.4115 101.219 38.2945 100.405 38.5286ZM111.922 38.5286C109.945 38.8798 108.432 39.8164 107.501 41.4554C107.269 41.9236 107.036 42.509 106.803 43.0943C106.687 43.6797 106.687 43.7968 106.687 44.7333C106.687 45.7869 106.687 46.1381 107.036 46.9576C107.734 48.9478 109.363 50.4697 111.573 50.938C111.922 51.0551 112.271 51.0551 113.086 51.0551C114.249 51.0551 114.714 50.938 115.529 50.5868L115.994 50.3527V48.3625V46.3723L115.645 46.6064C115.063 46.9576 114.714 47.0747 114.016 47.0747C113.318 47.0747 112.969 47.0747 112.504 46.8406C112.039 46.6064 111.69 46.2552 111.457 45.7869C111.341 45.4357 111.341 45.4357 111.341 44.8504C111.341 44.3821 111.341 44.265 111.457 43.9138C111.806 42.9773 112.62 42.509 113.784 42.3919C114.598 42.3919 114.947 42.3919 116.11 42.9773C116.11 42.9773 116.11 42.0407 116.11 40.9871V38.9969L115.761 38.8798C114.482 38.4116 113.086 38.2945 111.922 38.5286ZM121.927 38.5286C118.553 39.114 116.459 42.0407 116.692 45.4357C116.808 46.6064 117.157 47.6601 117.739 48.4795C118.553 49.7673 119.833 50.5868 121.462 50.938C122.16 51.0551 124.021 51.0551 124.836 50.938C125.999 50.7039 127.046 50.1185 127.86 49.299C128.209 48.9478 128.791 48.1283 128.791 48.1283C128.791 48.1283 127.977 47.7771 126.93 47.4259L125.068 46.7235L124.836 46.9576C124.487 47.3088 124.254 47.4259 123.788 47.543C122.509 47.8942 121.229 47.1918 120.996 46.0211V45.7869H125.068H129.14V44.7333C129.14 44.0309 129.14 43.5626 129.024 43.3285C128.791 41.9236 128.209 40.9871 127.395 40.0505C126.581 39.231 125.65 38.7628 124.37 38.5286C123.905 38.4115 122.509 38.4115 121.927 38.5286ZM59.5711 44.7333V50.7039H61.7814H63.9918V44.7333V38.7628H61.7814H59.5711V44.7333ZM123.672 41.8066C124.021 41.9236 124.138 42.0407 124.487 42.2748C124.719 42.509 124.952 42.7431 124.952 43.0943V43.3285H122.974C120.764 43.3285 120.88 43.3285 121.113 42.8602C121.462 42.0407 122.509 41.5724 123.672 41.8066ZM86.0957 42.3919C86.6773 42.509 87.3754 43.0943 87.608 43.6797C88.1897 44.9675 87.608 46.4894 86.212 46.9576C85.7466 47.0747 85.0486 47.0747 84.5833 46.9576C83.8853 46.7235 83.1873 46.1382 83.0709 45.4357C82.9546 45.0845 82.9546 44.9674 82.9546 44.6162C82.9546 44.148 82.9546 44.0309 83.1873 43.6797C83.6526 42.6261 84.816 42.1578 86.0957 42.3919Z" fill="white"/>
</g>
<defs>
<clipPath id="clip0_2316_85">
<rect width="137" height="52" fill="white"/>
</clipPath>
</defs>
</svg>
