<svg width="137" height="41" viewBox="0 0 137 41" fill="none" xmlns="http://www.w3.org/2000/svg">
<g clip-path="url(#clip0_2378_3615)">
<path d="M50.223 12.4363H45.1641V10.6155H57.3686V12.4363H52.3097V25.2586H50.223V12.4363Z" fill="white"/>
<path d="M57.8105 17.9362C57.8105 13.6482 61.1405 10.4492 65.6738 10.4492C70.2072 10.4492 73.4951 13.6285 73.4951 17.9362C73.4951 22.2439 70.1652 25.4232 65.6738 25.4232C61.1824 25.4232 57.8105 22.222 57.8105 17.9362ZM71.3863 17.9362C71.3863 14.6934 68.9419 12.3095 65.6738 12.3095C62.4057 12.3095 59.9193 14.6934 59.9193 17.9362C59.9193 21.1791 62.3638 23.563 65.6738 23.563C68.9839 23.563 71.3863 21.1791 71.3863 17.9362Z" fill="white"/>
<path d="M87.8813 15.7183C87.8813 18.8976 85.5627 20.8214 81.7271 20.8214H78.0815V25.2562H75.9727V10.6152H81.7271C85.5627 10.6152 87.8813 12.539 87.8813 15.7183ZM85.7725 15.7183C85.7725 13.6258 84.3593 12.4339 81.6631 12.4339H78.0792V19.0006H81.6631C84.3615 19.0006 85.7725 17.8086 85.7725 15.7161V15.7183Z" fill="white"/>
<path d="M93.889 12.436H88.8301V10.6152H101.035V12.436H95.9757V25.2584H93.889V12.436Z" fill="white"/>
<path d="M103.334 10.6155H105.443V25.2565H103.334V10.6155Z" fill="white"/>
<path d="M120.575 23.4376V25.2562H109.867V10.6152H120.281V12.436H111.976V16.9322H119.376V18.7092H111.976V23.4354H120.577L120.575 23.4376Z" fill="white"/>
<path d="M133.854 25.2562L130.672 20.7601C130.376 20.782 130.06 20.8017 129.745 20.8017H126.099V25.2562H123.99V10.6152H129.745C133.58 10.6152 135.899 12.539 135.899 15.7183C135.899 17.9774 134.72 19.6097 132.653 20.3416L136.153 25.2562H133.854ZM133.79 15.7183C133.79 13.6258 132.377 12.4339 129.681 12.4339H126.097V19.0225H129.681C132.379 19.0225 133.79 17.8086 133.79 15.7183Z" fill="white"/>
<path d="M65.1195 30.3809H63.0195V29.625H68.0828V30.3809H65.9829V35.7009H65.1173V30.3809H65.1195Z" fill="white"/>
<path d="M76.8046 35.7009L75.4841 33.8341C75.3627 33.8429 75.2302 33.8516 75.0999 33.8516H73.5873V35.7009H72.7129V29.625H75.0999C76.692 29.625 77.6548 30.4226 77.6548 31.7416C77.6548 32.6794 77.1645 33.3565 76.3078 33.6588L77.7607 35.6987H76.8068L76.8046 35.7009ZM76.7781 31.7438C76.7781 30.8761 76.193 30.3809 75.0734 30.3809H73.5873V33.1154H75.0734C76.193 33.1154 76.7781 32.6115 76.7781 31.7438Z" fill="white"/>
<path d="M86.6454 34.1825H83.3928L82.7193 35.7009H81.8184L84.5918 29.625H85.4574L88.2397 35.7009H87.3211L86.6476 34.1825H86.6454ZM86.3385 33.4879L85.018 30.5102L83.6975 33.4879H86.3385Z" fill="white"/>
<path d="M92.8184 29.6272H95.3976C97.365 29.6272 98.7032 30.8586 98.7032 32.6641C98.7032 34.4695 97.365 35.7009 95.3976 35.7009H92.8184V29.625V29.6272ZM95.3468 34.9472C96.8594 34.9472 97.831 34.0269 97.831 32.6641C97.831 31.3012 96.8594 30.3809 95.3468 30.3809H93.6929V34.945H95.3468V34.9472Z" fill="white"/>
<path d="M108.16 34.945V35.7009H103.717V29.625H108.038V30.3809H104.591V32.2478H107.661V32.9862H104.591V34.9472H108.16V34.945Z" fill="white"/>
<path d="M117.34 35.7009L116.019 33.8341C115.898 33.8429 115.765 33.8516 115.635 33.8516H114.122V35.7009H113.248V29.625H115.635C117.227 29.625 118.19 30.4226 118.19 31.7416C118.19 32.6794 117.7 33.3565 116.843 33.6588L118.296 35.6987H117.342L117.34 35.7009ZM117.313 31.7438C117.313 30.8761 116.728 30.3809 115.609 30.3809H114.122V33.1154H115.609C116.728 33.1154 117.313 32.6115 117.313 31.7438Z" fill="white"/>
<path d="M20.0192 0L19.2773 0.736212L18.5353 1.47242L17.0492 2.94704L16.707 3.28447L15.1855 4.79414H15.19C16.0092 4.79414 16.6738 5.45148 16.6761 6.26438L16.707 20.89H23.3535L23.3646 6.26657C23.3646 5.45367 24.0292 4.79414 24.8507 4.79414L21.5053 1.47462L20.7634 0.738403L20.0192 0Z" fill="white"/>
<path d="M14.6087 6.84375L14.2841 7.16584L12.5065 8.92968L4.74705 16.6292L3.2168 18.1477H6.31043C7.12966 18.1477 7.79653 18.8072 7.79653 19.6223V20.8931H14.6065V6.84813L14.6087 6.84375Z" fill="white"/>
<path d="M25.4453 6.85571V20.9007H32.2553V19.6299C32.2553 18.817 32.9199 18.1552 33.7414 18.1552H36.835L35.3048 16.6368L27.5475 8.93945L25.7699 7.17561L25.4453 6.85352V6.85571Z" fill="white"/>
<path d="M40.0583 22.9785L38.6517 24.3764L35.3152 27.685L29.7197 33.2373V32.2447C29.7197 30.8314 28.5648 29.6855 27.1405 29.6855H24.8948V40.9741L24.8683 41.0026L23.3822 39.528H23.38L23.3867 39.5192L20.0325 36.1909H20.0303L20.0258 36.1931L16.7202 39.471L16.6738 39.517H16.6761L16.6738 39.5236L15.1877 40.9982L15.1745 40.985V29.6855H12.9288C11.5045 29.6855 10.3497 30.8314 10.3497 32.2447V33.2482L4.7608 27.7025L1.41322 24.3808L0 22.9785H40.0583Z" fill="white"/>
</g>
<defs>
<clipPath id="clip0_2378_3615">
<rect width="136.151" height="41" fill="white"/>
</clipPath>
</defs>
</svg>
