<svg width="159" height="22" viewBox="0 0 159 22" fill="none" xmlns="http://www.w3.org/2000/svg">
<g clip-path="url(#clip0_10046_386)">
<path d="M26.4764 6.68793H23.8096V5.72119H30.2434V6.68793H27.5765V13.4996H26.4764V6.68793Z" fill="white"/>
<path d="M30.4766 9.61091C30.4766 7.33295 32.2323 5.63281 34.6213 5.63281C37.0104 5.63281 38.7439 7.32184 38.7439 9.61091C38.7439 11.9 36.9882 13.589 34.6213 13.589C32.2545 13.589 30.4766 11.8889 30.4766 9.61091ZM37.6327 9.61091C37.6327 7.88855 36.3437 6.62178 34.6213 6.62178C32.899 6.62178 31.5878 7.88855 31.5878 9.61091C31.5878 11.3333 32.8768 12.6 34.6213 12.6C36.3659 12.6 37.6327 11.3333 37.6327 9.61091Z" fill="white"/>
<path d="M46.331 8.43301C46.331 10.122 45.1087 11.1443 43.0863 11.1443H41.1639V13.5001H40.0527V5.72168H43.0863C45.1087 5.72168 46.331 6.74398 46.331 8.43301ZM45.2198 8.43301C45.2198 7.32181 44.4753 6.68842 43.053 6.68842H41.1639V10.1776H43.053C44.4753 10.1776 45.2198 9.54421 45.2198 8.43301Z" fill="white"/>
<path d="M49.4989 6.68842H46.832V5.72168H53.2659V6.68842H50.599V13.5001H49.4989V6.68842Z" fill="white"/>
<path d="M54.4775 5.72168H55.5887V13.5001H54.4775V5.72168Z" fill="white"/>
<path d="M63.5677 12.5333V13.5001H57.9229V5.72168H63.4122V6.68842H59.0341V9.0775H62.9344V10.022H59.0341V12.5333H63.5677Z" fill="white"/>
<path d="M70.5666 13.5001L68.8887 11.111C68.7331 11.1221 68.5665 11.1332 68.3998 11.1332H66.4774V13.5001H65.3662V5.72168H68.3998C70.4222 5.72168 71.6445 6.74398 71.6445 8.43301C71.6445 9.6331 71.0222 10.4998 69.9332 10.8888L71.7778 13.5001H70.5666ZM70.5333 8.43301C70.5333 7.32181 69.7888 6.68842 68.3664 6.68842H66.4774V10.1887H68.3664C69.7888 10.1887 70.5333 9.54421 70.5333 8.43301Z" fill="white"/>
<path d="M34.3301 16.2229H33.2236V15.8213H35.8937V16.2229H34.7872V19.0501H34.3301V16.2229Z" fill="white"/>
<path d="M40.489 19.0495L39.7921 18.0574C39.727 18.0621 39.6588 18.0669 39.5889 18.0669H38.7904V19.0495H38.3301V15.8223H39.5889C40.4287 15.8223 40.935 16.2461 40.935 16.9478C40.935 17.4462 40.6763 17.805 40.2255 17.9669L40.9906 19.0511H40.4874L40.489 19.0495ZM40.4747 16.9462C40.4747 16.4858 40.1651 16.2223 39.5762 16.2223H38.792V17.6748H39.5762C40.1667 17.6748 40.4747 17.4081 40.4747 16.9462Z" fill="white"/>
<path d="M45.6771 18.2421H43.9611L43.6055 19.0485H43.1309L44.5929 15.8213H45.0501L46.5168 19.0485H46.0327L45.6771 18.2421ZM45.5152 17.8738L44.8183 16.2928L44.1214 17.8738H45.5136H45.5152Z" fill="white"/>
<path d="M48.9336 15.8213H50.294C51.3322 15.8213 52.037 16.4753 52.037 17.4357C52.037 18.3961 51.3322 19.0501 50.294 19.0501H48.9336V15.8229V15.8213ZM50.2654 18.6485C51.0623 18.6485 51.5751 18.1596 51.5751 17.4357C51.5751 16.7118 51.0639 16.2229 50.2654 16.2229H49.3939V18.6485H50.2654Z" fill="white"/>
<path d="M57.0198 18.6479V19.0495H54.6768V15.8223H56.9547V16.2239H55.1387V17.216H56.7579V17.6081H55.1387V18.6495H57.0198V18.6479Z" fill="white"/>
<path d="M61.8611 19.0495L61.1642 18.0574C61.0991 18.0621 61.0308 18.0669 60.961 18.0669H60.1625V19.0495H59.7021V15.8223H60.961C61.8007 15.8223 62.3071 16.2461 62.3071 16.9478C62.3071 17.4462 62.0484 17.805 61.5975 17.9669L62.3627 19.0511H61.8595L61.8611 19.0495ZM61.8468 16.9462C61.8468 16.4858 61.5372 16.2223 60.9483 16.2223H60.1641V17.6748H60.9483C61.5388 17.6748 61.8468 17.4081 61.8468 16.9462Z" fill="white"/>
<path d="M10.554 0.0795898L10.1635 0.471684L9.77144 0.862192L8.98884 1.64638L8.80946 1.82576L8.00781 2.62741H8.01099C8.44277 2.62741 8.79359 2.97665 8.79359 3.40843L8.80946 11.1789H12.3145L12.3209 3.41001C12.3209 2.97823 12.6717 2.62741 13.1035 2.62741L11.3398 0.863779L10.9477 0.471684L10.5556 0.0795898L10.554 0.0795898Z" fill="white"/>
<path d="M7.7025 3.71631L7.53106 3.88775L6.59289 4.82592L2.50368 8.91513L1.69727 9.72155H3.32914C3.76092 9.72155 4.11174 10.0724 4.11174 10.5041V11.1788H7.7025V3.71631Z" fill="white"/>
<path d="M13.417 3.72217V11.1847H17.0078V10.51C17.0078 10.0782 17.3586 9.72741 17.7904 9.72741H19.4222L18.6158 8.92099L14.5266 4.83178L13.5884 3.89361L13.417 3.72217Z" fill="white"/>
<path d="M21.1194 12.2864L20.378 13.0293L18.6192 14.7866L15.6697 17.736V17.209C15.6697 16.4581 15.0618 15.8486 14.3093 15.8486H13.1251V21.8459L13.1108 21.8602L12.3266 21.076H12.325L12.3282 21.0712L10.5598 19.3028H10.5582L10.555 19.3044L8.81364 21.0458L8.78824 21.0712H8.78983L8.78824 21.0744L8.00564 21.857L7.9977 21.849V15.8454H6.81348C6.06263 15.8454 5.45306 16.4534 5.45306 17.2058V17.7392L2.50679 14.7929L0.741574 13.0277L-0.00292969 12.2832H21.1178L21.1194 12.2864Z" fill="white"/>
</g>
<g clip-path="url(#clip1_10046_386)">
<path d="M111.587 18.978L110.98 2.72363H108.04L108.8 18.978H111.587Z" stroke="white" stroke-width="0.309607"/>
<path d="M117.159 18.978L116.552 2.72363H113.612L114.372 18.978H117.159Z" stroke="white" stroke-width="0.309607"/>
<path d="M111.129 2.56836H107.878L103.079 19.1324H106.175L111.129 2.56836Z" fill="white"/>
<path d="M116.701 2.56836H113.45L108.651 19.1324H111.747L116.701 2.56836Z" fill="white"/>
<path d="M122.273 2.56836H119.023L114.224 19.1324H117.32L122.273 2.56836Z" fill="white"/>
<path d="M125.796 8.95413V2.92711H126.613L128.512 7.09648H128.661L130.551 2.92711H131.385V8.95413H130.758V3.62889L130.807 3.63715L128.975 7.68265H128.149L126.308 3.63715L126.374 3.62889V8.95413H125.796ZM132.436 8.95413L134.657 2.92711H135.78L138.075 8.95413H137.431L135.293 3.32341L135.631 3.49679H134.764L135.119 3.32341L133.064 8.95413H132.436ZM133.625 7.0387L133.831 6.46902H136.63L136.845 7.0387H133.625ZM139.124 8.95413V2.90234H139.751V8.95413H139.124ZM142.864 8.95413L140.808 6.28738H141.543L143.632 8.95413H142.864ZM139.495 6.66716V6.10575H141.114C141.411 6.10575 141.658 6.04795 141.857 5.93237C142.055 5.81678 142.203 5.65991 142.302 5.46176C142.402 5.26361 142.451 5.03795 142.451 4.78476C142.451 4.53157 142.402 4.3059 142.302 4.10775C142.203 3.9096 142.055 3.75273 141.857 3.63715C141.658 3.51605 141.411 3.45551 141.114 3.45551H139.495V2.90234H141.006C141.452 2.90234 141.829 2.9739 142.137 3.117C142.451 3.25461 142.688 3.46102 142.847 3.73622C143.013 4.00593 143.095 4.33617 143.095 4.72696V4.84255C143.095 5.23334 143.013 5.56634 142.847 5.84155C142.682 6.11125 142.446 6.31766 142.137 6.46076C141.829 6.59839 141.452 6.66716 141.006 6.66716H139.495ZM148.416 8.95413L145.791 6.10575H145.015L147.847 2.92711H148.573L145.964 5.84155L145.906 5.38746L149.201 8.95413H148.416ZM144.627 8.95413V2.92711H145.254V8.95413H144.627ZM149.896 8.95413V2.92711H150.523V8.95413H149.896ZM150.375 8.95413V8.38444H153.388V8.95413H150.375ZM150.375 6.17179V5.61037H153.108V6.17179H150.375ZM150.375 3.49679V2.92711H153.297V3.49679H150.375ZM155.878 8.95413V3.33992H156.505V8.95413H155.878ZM153.995 3.49679V2.92711H158.388V3.49679H153.995Z" fill="white"/>
<path d="M125.53 18.508V12.4809H127.396L128.775 15.866H128.932L130.294 12.4809H132.193V18.508H130.856V13.3644L131.045 13.3809L129.452 17.2861H128.164L126.562 13.3809L126.769 13.3644V18.508H125.53ZM133.379 18.508V12.4809H134.7V18.508H133.379ZM134.535 18.508V17.3851H137.169V18.508H134.535ZM134.535 16.0064V14.8835H136.979V16.0064H134.535ZM134.535 13.6038V12.4809H137.111V13.6038H134.535ZM138.116 18.508V12.4809H139.982L141.361 15.866H141.518L142.88 12.4809H144.779V18.508H143.442V13.3644L143.632 13.3809L142.038 17.2861H140.75L139.148 13.3809L139.355 13.3644V18.508H138.116ZM148.855 18.6648C148.31 18.6648 147.834 18.5712 147.427 18.3841C147.025 18.1915 146.692 17.9411 146.428 17.6328C146.164 17.3191 145.966 16.9806 145.834 16.6173C145.707 16.254 145.644 15.9045 145.644 15.5688V15.3871C145.644 15.0128 145.71 14.6441 145.842 14.2808C145.979 13.912 146.183 13.579 146.453 13.2818C146.722 12.9846 147.058 12.7479 147.46 12.5718C147.862 12.3901 148.327 12.2993 148.855 12.2993C149.384 12.2993 149.849 12.3901 150.251 12.5718C150.652 12.7479 150.988 12.9846 151.258 13.2818C151.528 13.579 151.731 13.912 151.869 14.2808C152.006 14.6441 152.075 15.0128 152.075 15.3871V15.5688C152.075 15.9045 152.009 16.254 151.877 16.6173C151.745 16.9806 151.547 17.3191 151.283 17.6328C151.018 17.9411 150.683 18.1915 150.275 18.3841C149.874 18.5712 149.4 18.6648 148.855 18.6648ZM148.855 17.4016C149.142 17.4016 149.397 17.3521 149.623 17.253C149.854 17.154 150.05 17.0164 150.209 16.8402C150.374 16.6641 150.498 16.4604 150.581 16.2293C150.663 15.9981 150.705 15.7504 150.705 15.4862C150.705 15.2055 150.661 14.9496 150.573 14.7184C150.49 14.4817 150.366 14.278 150.201 14.1074C150.041 13.9313 149.849 13.7964 149.623 13.7028C149.397 13.6093 149.142 13.5625 148.855 13.5625C148.569 13.5625 148.313 13.6093 148.087 13.7028C147.862 13.7964 147.666 13.9313 147.501 14.1074C147.342 14.278 147.221 14.4817 147.138 14.7184C147.055 14.9496 147.014 15.2055 147.014 15.4862C147.014 15.7504 147.055 15.9981 147.138 16.2293C147.221 16.4604 147.342 16.6641 147.501 16.8402C147.666 17.0164 147.862 17.154 148.087 17.253C148.313 17.3521 148.569 17.4016 148.855 17.4016Z" fill="white"/>
</g>
<mask id="path-25-outside-1_10046_386" maskUnits="userSpaceOnUse" x="79.3348" y="3.81907" width="14.1421" height="14.1421" fill="black">
<rect fill="white" x="79.3348" y="3.81907" width="14.1421" height="14.1421"/>
<path fill-rule="evenodd" clip-rule="evenodd" d="M84.0125 7.62669L83.6628 7.97635L86.5768 10.8904L83.663 13.8041L84.0127 14.1538L86.9265 11.24L89.8403 14.1538L90.1899 13.8042L87.2761 10.8904L90.1902 7.97634L89.8405 7.62667L86.9265 10.5407L84.0125 7.62669Z"/>
</mask>
<path fill-rule="evenodd" clip-rule="evenodd" d="M84.0125 7.62669L83.6628 7.97635L86.5768 10.8904L83.663 13.8041L84.0127 14.1538L86.9265 11.24L89.8403 14.1538L90.1899 13.8042L87.2761 10.8904L90.1902 7.97634L89.8405 7.62667L86.9265 10.5407L84.0125 7.62669Z" fill="white"/>
<path d="M83.6628 7.97635L83.5613 7.87482L83.4597 7.97635L83.5613 8.07789L83.6628 7.97635ZM84.0125 7.62669L84.114 7.52515L84.0125 7.42362L83.9109 7.52515L84.0125 7.62669ZM86.5768 10.8904L86.6783 10.9919L86.7799 10.8904L86.6783 10.7888L86.5768 10.8904ZM83.663 13.8041L83.5615 13.7026L83.46 13.8041L83.5615 13.9057L83.663 13.8041ZM84.0127 14.1538L83.9112 14.2553L84.0127 14.3569L84.1142 14.2553L84.0127 14.1538ZM86.9265 11.24L87.028 11.1385L86.9265 11.037L86.8249 11.1385L86.9265 11.24ZM89.8403 14.1538L89.7387 14.2554L89.8403 14.3569L89.9418 14.2554L89.8403 14.1538ZM90.1899 13.8042L90.2915 13.9057L90.393 13.8042L90.2915 13.7026L90.1899 13.8042ZM87.2761 10.8904L87.1746 10.7888L87.0731 10.8904L87.1746 10.9919L87.2761 10.8904ZM90.1902 7.97634L90.2917 8.07787L90.3932 7.97634L90.2917 7.8748L90.1902 7.97634ZM89.8405 7.62667L89.942 7.52514L89.8405 7.4236L89.739 7.52514L89.8405 7.62667ZM86.9265 10.5407L86.8249 10.6422L86.9265 10.7438L87.028 10.6422L86.9265 10.5407ZM83.7643 8.07789L84.114 7.72822L83.9109 7.52515L83.5613 7.87482L83.7643 8.07789ZM86.6783 10.7888L83.7643 7.87482L83.5613 8.07789L86.4753 10.9919L86.6783 10.7888ZM83.7646 13.9057L86.6783 10.9919L86.4753 10.7888L83.5615 13.7026L83.7646 13.9057ZM84.1142 14.0523L83.7646 13.7026L83.5615 13.9057L83.9112 14.2553L84.1142 14.0523ZM86.8249 11.1385L83.9112 14.0523L84.1142 14.2553L87.028 11.3416L86.8249 11.1385ZM89.9418 14.0523L87.028 11.1385L86.8249 11.3416L89.7387 14.2554L89.9418 14.0523ZM90.0884 13.7026L89.7387 14.0523L89.9418 14.2554L90.2915 13.9057L90.0884 13.7026ZM87.1746 10.9919L90.0884 13.9057L90.2915 13.7026L87.3777 10.7888L87.1746 10.9919ZM90.0886 7.8748L87.1746 10.7888L87.3777 10.9919L90.2917 8.07787L90.0886 7.8748ZM89.739 7.7282L90.0886 8.07787L90.2917 7.8748L89.942 7.52514L89.739 7.7282ZM87.028 10.6422L89.942 7.7282L89.739 7.52514L86.8249 10.4392L87.028 10.6422ZM83.9109 7.72822L86.8249 10.6422L87.028 10.4392L84.114 7.52515L83.9109 7.72822Z" fill="white" mask="url(#path-25-outside-1_10046_386)"/>
<defs>
<clipPath id="clip0_10046_386">
<rect width="71.7787" height="21.7827" fill="white" transform="translate(0 0.0795898)"/>
</clipPath>
<clipPath id="clip1_10046_386">
<rect width="56.5584" height="19.9814" fill="white" transform="translate(102.149 0.961914)"/>
</clipPath>
</defs>
</svg>
