<svg width="1833" height="2003" viewBox="0 0 1833 2003" fill="none" xmlns="http://www.w3.org/2000/svg">
<g clip-path="url(#clip0_125_2)">
<path d="M1645.94 1067.55C1641.59 1067.55 1638.29 1063.74 1638.29 1059.17V948.212C1638.29 943.454 1641.77 939.838 1645.94 939.838C1650.12 939.838 1653.6 943.644 1653.6 948.212V1059.17C1653.6 1063.93 1650.12 1067.55 1645.94 1067.55Z" fill="url(#paint0_linear_125_2)"/>
<path d="M1725.29 1017.49C1720.94 1017.49 1717.63 1013.69 1717.63 1009.12V857.429C1717.63 852.671 1721.11 849.054 1725.29 849.054C1729.46 849.054 1732.94 852.861 1732.94 857.429V1009.12C1732.94 1013.88 1729.46 1017.49 1725.29 1017.49Z" fill="url(#paint1_linear_125_2)"/>
<path d="M1804.46 967.435C1800.11 967.435 1796.81 963.628 1796.81 959.061V726.291C1796.81 721.533 1800.29 717.917 1804.46 717.917C1808.64 717.917 1812.12 721.723 1812.12 726.291V959.061C1812.12 963.819 1808.64 967.435 1804.46 967.435Z" fill="url(#paint2_linear_125_2)"/>
<path d="M7.6566 901.391C3.3064 901.391 0.000244141 897.584 0.000244141 893.016V782.056C0.000244141 777.298 3.4804 773.681 7.6566 773.681C11.8328 773.681 15.3129 777.488 15.3129 782.056V893.016C15.3129 897.774 11.8328 901.391 7.6566 901.391Z" fill="url(#paint3_linear_125_2)"/>
<path d="M87.0057 851.337C82.6555 851.337 79.3494 847.531 79.3494 842.963V691.273C79.3494 686.514 82.8295 682.898 87.0057 682.898C91.1819 682.898 94.6621 686.705 94.6621 691.273V842.963C94.6621 847.721 91.1819 851.337 87.0057 851.337Z" fill="url(#paint4_linear_125_2)"/>
<path d="M166.178 801.279C161.828 801.279 158.521 797.472 158.521 792.904V560.134C158.521 555.376 162.002 551.76 166.178 551.76C170.354 551.76 173.834 555.567 173.834 560.134V792.904C173.834 797.662 170.354 801.279 166.178 801.279Z" fill="url(#paint5_linear_125_2)"/>
<path d="M245.526 751.225C241.176 751.225 237.87 747.418 237.87 742.85V591.16C237.87 586.402 241.35 582.785 245.526 582.785C249.702 582.785 253.183 586.592 253.183 591.16V742.85C253.183 747.608 249.702 751.225 245.526 751.225Z" fill="url(#paint6_linear_125_2)"/>
<path d="M324.699 701.362C320.349 701.362 317.042 697.556 317.042 692.988V582.027C317.042 577.269 320.523 573.653 324.699 573.653C328.875 573.653 332.355 577.459 332.355 582.027V692.988C332.355 697.746 328.875 701.362 324.699 701.362Z" fill="url(#paint7_linear_125_2)"/>
<path d="M154.171 1376.25C154.171 1369.02 159.566 1363.12 166.178 1363.12C172.79 1363.12 178.184 1369.02 178.184 1376.25C178.184 1383.49 172.79 1389.39 166.178 1389.39C159.566 1389.39 154.171 1383.49 154.171 1376.25ZM154.171 1298.79C154.171 1291.56 159.566 1285.66 166.178 1285.66C172.79 1285.66 178.184 1291.56 178.184 1298.79C178.184 1306.02 172.79 1311.92 166.178 1311.92C159.566 1311.92 154.171 1306.02 154.171 1298.79ZM154.171 1221.14C154.171 1213.91 159.566 1208.01 166.178 1208.01C172.79 1208.01 178.184 1213.91 178.184 1221.14C178.184 1228.37 172.79 1234.27 166.178 1234.27C159.566 1234.27 154.171 1228.37 154.171 1221.14Z" fill="#262830"/>
<path d="M166.178 1156.81C166.178 1156.81 164.612 1156.81 163.742 1156.62C163.045 1156.62 162.175 1156.24 161.479 1155.86C160.783 1155.48 160.087 1155.1 159.391 1154.72C158.695 1154.15 157.999 1153.58 157.477 1153C155.215 1150.53 153.997 1147.1 153.997 1143.68C153.997 1140.25 155.215 1136.83 157.477 1134.35C157.999 1133.78 158.695 1133.21 159.391 1132.83C160.087 1132.26 160.783 1131.88 161.479 1131.5C162.175 1131.12 162.871 1130.93 163.742 1130.74C165.308 1130.36 166.874 1130.36 168.44 1130.74C169.31 1130.93 170.006 1131.12 170.702 1131.5C171.398 1131.88 172.094 1132.26 172.79 1132.83C173.486 1133.21 174.008 1133.78 174.53 1134.35C176.792 1136.83 178.01 1140.25 178.01 1143.68C178.01 1147.1 176.618 1150.53 174.53 1153C174.008 1153.58 173.312 1154.15 172.79 1154.72C172.094 1155.1 171.398 1155.67 170.702 1155.86C170.006 1156.24 169.31 1156.43 168.44 1156.62C167.744 1156.62 166.874 1156.81 166.178 1156.81Z" fill="#262830"/>
<path d="M154.171 1066.22C154.171 1058.98 159.566 1053.08 166.178 1053.08C172.79 1053.08 178.184 1058.98 178.184 1066.22C178.184 1073.45 172.79 1079.35 166.178 1079.35C159.566 1079.35 154.171 1073.45 154.171 1066.22ZM154.171 988.563C154.171 981.331 159.566 975.431 166.178 975.431C172.79 975.431 178.184 981.331 178.184 988.563C178.184 995.796 172.79 1001.7 166.178 1001.7C159.566 1001.7 154.171 995.796 154.171 988.563Z" fill="#262830"/>
<path d="M166.178 924.422C166.178 924.422 164.612 924.422 163.742 924.232C163.045 924.232 162.175 923.851 161.479 923.47C160.783 923.09 160.087 922.709 159.391 922.328C158.695 921.757 157.999 921.186 157.477 920.615C155.215 918.141 153.997 914.715 153.997 911.289C153.997 907.864 155.215 904.438 157.477 901.963C157.999 901.392 158.695 900.822 159.391 900.441C160.087 899.87 160.783 899.489 161.479 899.109C162.175 898.728 162.871 898.538 163.742 898.347C165.308 897.967 166.874 897.967 168.44 898.347C169.31 898.538 170.006 898.728 170.702 899.109C171.398 899.489 172.094 899.87 172.79 900.441C173.486 900.822 174.008 901.392 174.53 901.963C176.792 904.438 178.01 907.864 178.01 911.289C178.01 914.715 176.618 918.141 174.53 920.615C174.008 921.186 173.312 921.757 172.79 922.328C172.094 922.709 171.398 923.28 170.702 923.47C170.006 923.851 169.31 924.041 168.44 924.232C167.744 924.232 166.874 924.422 166.178 924.422Z" fill="#262830"/>
<g opacity="0.2">
<path d="M514.716 1572.29C513.846 1570.39 512.28 1568.87 510.366 1568.3C508.452 1567.73 506.363 1567.92 504.623 1569.06C502.535 1570.39 453.117 1601.98 311.301 1713.52C308.516 1715.61 307.472 1719.61 308.864 1723.03C335.14 1794.79 479.74 1885.95 485.831 1889.76C486.875 1890.52 488.267 1890.9 489.485 1890.9C491.573 1890.9 493.661 1889.95 495.053 1888.05L596.326 1759.57C598.24 1757.1 598.588 1753.67 597.37 1750.82L514.89 1572.48L514.716 1572.29Z" fill="#262830"/>
<path d="M1751.91 1175.66C1644.38 1107.71 1470.54 1107.71 1363.7 1175.66C1266.95 1237.13 1258.6 1333.25 1337.77 1401.19C1289.92 1408.43 1244.68 1423.65 1207.44 1447.25C1170.38 1470.85 1146.54 1499.4 1135.4 1529.66L1086.68 1477.7C1083.9 1474.66 1079.37 1474.66 1076.59 1477.7L872.651 1690.49L602.416 1949.52C600.502 1951.24 599.632 1953.9 599.98 1956.57C600.328 1959.23 601.894 1961.52 604.157 1962.66C608.507 1964.94 682.46 2003.01 763.026 2003.01C796.957 2003.01 832.107 1996.15 863.602 1977.12C953.565 1922.69 1215.45 1766.05 1281.92 1726.27C1384.76 1758.25 1512.13 1747.4 1597.22 1693.34C1693.97 1631.87 1702.32 1535.75 1623.15 1467.81C1671 1460.57 1716.24 1445.35 1753.48 1421.75C1860.32 1353.8 1859.8 1243.6 1752.26 1175.85L1751.91 1175.66Z" fill="#262830"/>
</g>
<path d="M1564.33 1170.89L1563.98 1281.47C1563.98 1322.01 1539.45 1362.55 1490.9 1393.39C1392.93 1455.62 1233.54 1455.62 1134.88 1393.39C1085.29 1361.98 1060.41 1320.87 1060.58 1279.76L1060.93 1169.18C1060.93 1210.29 1085.64 1251.4 1135.23 1282.81C1233.89 1345.04 1393.28 1345.04 1491.25 1282.81C1539.97 1251.78 1564.33 1211.43 1564.33 1170.89Z" fill="#D6E4F9"/>
<path d="M1313.06 1448.01C1247.29 1448.01 1181.51 1432.21 1131.23 1400.43C1080.94 1368.64 1053.1 1325.82 1053.27 1279.95L1053.62 1169.37C1053.62 1165 1056.92 1161.38 1060.93 1161.38C1064.93 1161.38 1068.23 1165 1068.23 1169.37C1068.23 1209.34 1093.29 1247.22 1138.88 1275.96C1235.28 1336.86 1391.72 1336.86 1487.59 1275.96C1532.31 1247.6 1557.02 1210.1 1557.2 1170.9C1557.2 1166.52 1560.5 1162.9 1564.51 1162.9C1568.51 1162.9 1571.81 1166.52 1571.81 1170.9L1571.47 1281.48C1571.47 1326.77 1543.97 1369.03 1494.73 1400.43C1444.79 1432.21 1379.01 1448.01 1313.24 1448.01H1313.06ZM1068.06 1225.33V1279.95C1067.89 1319.92 1092.94 1357.8 1138.53 1386.54C1234.93 1447.44 1391.37 1447.44 1487.25 1386.54C1531.97 1358.18 1556.67 1320.68 1556.85 1281.48V1226.85C1544.15 1250.45 1523.09 1271.96 1494.9 1289.85C1395.02 1353.23 1232.15 1353.23 1131.57 1289.85C1102.51 1271.58 1081.11 1249.5 1068.06 1225.33Z" fill="#262830"/>
<path d="M1564.33 1170.89L1563.98 1281.47C1563.98 1322.01 1539.45 1362.55 1490.9 1393.39C1392.93 1455.62 1233.54 1455.62 1134.88 1393.39C1085.29 1361.98 1060.41 1320.87 1060.58 1279.76L1060.93 1169.18C1060.93 1210.29 1085.64 1251.4 1135.23 1282.81C1233.89 1345.04 1393.28 1345.04 1491.25 1282.81C1539.97 1251.78 1564.33 1211.43 1564.33 1170.89Z" fill="#D6E4F9"/>
<path d="M1313.06 1448.01C1247.29 1448.01 1181.51 1432.21 1131.23 1400.43C1080.94 1368.64 1053.1 1325.82 1053.27 1279.95L1053.62 1169.37C1053.62 1165 1056.92 1161.38 1060.93 1161.38C1064.93 1161.38 1068.23 1165 1068.23 1169.37C1068.23 1209.34 1093.29 1247.22 1138.88 1275.96C1235.28 1336.86 1391.72 1336.86 1487.59 1275.96C1532.31 1247.6 1557.02 1210.1 1557.2 1170.9C1557.2 1166.52 1560.5 1162.9 1564.51 1162.9C1568.51 1162.9 1571.81 1166.52 1571.81 1170.9L1571.47 1281.48C1571.47 1326.77 1543.97 1369.03 1494.73 1400.43C1444.79 1432.21 1379.01 1448.01 1313.24 1448.01H1313.06ZM1068.06 1225.33V1279.95C1067.89 1319.92 1092.94 1357.8 1138.53 1386.54C1234.93 1447.44 1391.37 1447.44 1487.25 1386.54C1531.97 1358.18 1556.67 1320.68 1556.85 1281.48V1226.85C1544.15 1250.45 1523.09 1271.96 1494.9 1289.85C1395.02 1353.23 1232.15 1353.23 1131.57 1289.85C1102.51 1271.58 1081.11 1249.5 1068.06 1225.33Z" fill="#262830"/>
<path d="M1490.03 1057.46C1588.69 1119.69 1589.21 1220.76 1491.25 1282.99C1393.28 1345.23 1233.89 1345.23 1135.23 1282.99C1036.56 1220.76 1036.04 1119.69 1134.01 1057.46C1231.97 995.219 1391.37 995.219 1490.03 1057.46Z" fill="white"/>
<path d="M1313.41 1337.43C1247.64 1337.43 1181.86 1321.63 1131.57 1289.85C1081.46 1258.06 1053.62 1215.43 1053.62 1169.75C1053.62 1124.26 1080.76 1082.01 1130.35 1050.42C1230.23 987.038 1393.11 986.848 1493.68 1050.42C1543.8 1082.2 1571.46 1124.64 1571.64 1170.51C1571.64 1216 1544.49 1258.25 1494.9 1289.85C1444.96 1321.63 1379.36 1337.43 1313.41 1337.43ZM1311.84 1018.63C1248.68 1018.63 1185.69 1033.86 1137.66 1064.31C1092.77 1092.86 1068.06 1130.35 1068.23 1169.75C1068.23 1209.53 1093.29 1247.22 1138.88 1275.95C1235.28 1336.86 1391.71 1336.86 1487.59 1275.95C1532.49 1247.41 1557.2 1209.91 1557.2 1170.51C1557.2 1130.74 1532.14 1093.05 1486.55 1064.31C1438.35 1033.86 1375.18 1018.63 1312.02 1018.63H1311.84Z" fill="#262830"/>
<path d="M1564.33 1025.48L1563.98 1136.06C1563.98 1176.6 1539.45 1217.14 1490.9 1247.97C1392.93 1310.21 1233.54 1310.21 1134.88 1247.97C1085.29 1216.57 1060.41 1175.46 1060.58 1134.35L1060.93 1023.77C1060.93 1064.88 1085.64 1105.99 1135.23 1137.39C1233.89 1199.63 1393.28 1199.63 1491.25 1137.39C1539.97 1106.37 1564.33 1066.02 1564.33 1025.48Z" fill="#D6E4F9"/>
<path d="M1313.06 1302.6C1247.29 1302.6 1181.51 1286.8 1131.23 1255.02C1080.94 1223.23 1053.1 1180.41 1053.27 1134.54L1053.62 1023.96C1053.62 1019.58 1056.92 1015.96 1060.93 1015.96C1064.93 1015.96 1068.23 1019.58 1068.23 1023.96C1068.23 1063.93 1093.29 1101.8 1138.88 1130.54C1235.28 1191.45 1391.72 1191.45 1487.59 1130.54C1532.31 1102.18 1557.02 1064.69 1557.2 1025.48C1557.2 1021.1 1560.5 1017.49 1564.51 1017.49C1568.51 1017.49 1571.81 1021.1 1571.81 1025.48L1571.47 1136.06C1571.47 1181.36 1543.97 1223.61 1494.73 1255.02C1444.79 1286.8 1379.01 1302.6 1313.24 1302.6H1313.06ZM1068.06 1079.91V1134.54C1067.89 1174.51 1092.94 1212.38 1138.53 1241.12C1234.93 1302.03 1391.37 1302.03 1487.25 1241.12C1531.97 1212.76 1556.67 1175.27 1556.85 1136.06V1081.44C1544.15 1105.04 1523.09 1126.54 1494.9 1144.44C1395.02 1207.81 1232.15 1207.81 1131.57 1144.44C1102.51 1126.16 1081.11 1104.09 1068.06 1079.91Z" fill="#262830"/>
<path d="M1564.33 1025.48L1563.98 1136.06C1563.98 1176.6 1539.45 1217.14 1490.9 1247.97C1392.93 1310.21 1233.54 1310.21 1134.88 1247.97C1085.29 1216.57 1060.41 1175.46 1060.58 1134.35L1060.93 1023.77C1060.93 1064.88 1085.64 1105.99 1135.23 1137.39C1233.89 1199.63 1393.28 1199.63 1491.25 1137.39C1539.97 1106.37 1564.33 1066.02 1564.33 1025.48Z" fill="url(#paint8_linear_125_2)"/>
<path d="M1313.06 1302.6C1247.29 1302.6 1181.51 1286.8 1131.23 1255.02C1080.94 1223.23 1053.1 1180.41 1053.27 1134.54L1053.62 1023.96C1053.62 1019.58 1056.92 1015.96 1060.93 1015.96C1064.93 1015.96 1068.23 1019.58 1068.23 1023.96C1068.23 1063.93 1093.29 1101.8 1138.88 1130.54C1235.28 1191.45 1391.72 1191.45 1487.59 1130.54C1532.31 1102.18 1557.02 1064.69 1557.2 1025.48C1557.2 1021.1 1560.5 1017.49 1564.51 1017.49C1568.51 1017.49 1571.81 1021.1 1571.81 1025.48L1571.47 1136.06C1571.47 1181.36 1553.02 1231.03 1494.73 1255.02C1440.61 1277.09 1379.01 1302.6 1313.24 1302.6H1313.06ZM1068.06 1079.91V1134.54C1067.89 1174.51 1092.94 1212.38 1138.53 1241.12C1234.93 1302.03 1391.37 1302.03 1487.25 1241.12C1531.97 1212.76 1556.67 1175.27 1556.85 1136.06V1081.44C1544.15 1105.04 1523.09 1126.54 1494.9 1144.44C1395.02 1207.81 1232.15 1207.81 1131.57 1144.44C1102.51 1126.16 1081.11 1104.09 1068.06 1079.91Z" fill="#262830"/>
<path d="M1490.03 912.046C1588.69 974.283 1589.21 1075.35 1491.25 1137.58C1393.28 1199.82 1233.89 1199.82 1135.23 1137.58C1036.56 1075.35 1036.04 974.283 1134.01 912.046C1231.97 849.809 1391.37 849.809 1490.03 912.046Z" fill="white"/>
<path d="M1313.41 1192.02C1247.64 1192.02 1181.86 1176.22 1131.57 1144.44C1081.46 1112.65 1053.62 1070.02 1053.62 1024.34C1053.62 978.855 1080.76 936.602 1130.35 905.008C1230.23 841.629 1393.11 841.439 1493.68 905.008C1543.8 936.793 1571.46 979.236 1571.64 1025.1C1571.64 1070.59 1544.49 1112.85 1494.9 1144.44C1444.96 1176.22 1379.36 1192.02 1313.41 1192.02ZM1311.84 873.224C1248.68 873.224 1185.69 888.45 1137.66 918.902C1092.77 947.451 1068.06 984.945 1068.23 1024.34C1068.23 1064.12 1093.29 1101.81 1138.88 1130.55C1235.28 1191.45 1391.71 1191.45 1487.59 1130.55C1532.49 1102 1557.2 1064.5 1557.2 1025.1C1557.2 985.326 1532.14 947.641 1486.55 918.902C1438.35 888.45 1375.18 873.224 1312.02 873.224H1311.84Z" fill="#262830"/>
<path d="M1564.33 880.074L1563.98 990.654C1563.98 1031.19 1539.45 1071.73 1490.9 1102.57C1392.93 1164.8 1233.54 1164.8 1134.88 1102.57C1085.29 1071.16 1060.41 1030.05 1060.58 988.941L1060.93 878.361C1060.93 919.472 1085.64 960.582 1135.23 991.986C1233.89 1054.22 1393.28 1054.22 1491.25 991.986C1539.97 960.963 1564.33 920.614 1564.33 880.074Z" fill="#D6E4F9"/>
<path d="M1313.06 1157.19C1247.29 1157.19 1181.51 1141.39 1131.23 1109.61C1080.94 1077.83 1053.1 1035 1053.27 989.133L1053.62 878.554C1053.62 874.176 1056.92 870.56 1060.93 870.56C1064.93 870.56 1068.23 874.176 1068.23 878.554C1068.23 918.522 1093.29 956.397 1138.88 985.137C1235.28 1046.04 1391.72 1046.04 1487.59 985.137C1532.31 956.778 1557.02 919.283 1557.2 880.076C1557.2 875.699 1560.5 872.082 1564.51 872.082C1568.51 872.082 1571.81 875.699 1571.81 880.076L1571.47 990.656C1571.47 1035.95 1543.97 1078.21 1494.73 1109.61C1444.79 1141.39 1379.01 1157.19 1313.24 1157.19H1313.06ZM1068.06 934.51V989.133C1067.89 1029.1 1092.94 1066.98 1138.53 1095.72C1234.93 1156.62 1391.37 1156.62 1487.25 1095.72C1531.97 1067.36 1556.67 1029.86 1556.85 990.656V936.032C1544.15 959.633 1523.09 981.14 1494.9 999.03C1395.02 1062.41 1232.15 1062.41 1131.57 999.03C1102.51 980.759 1081.11 958.681 1068.06 934.51Z" fill="#262830"/>
<path d="M1564.33 880.074L1563.98 990.654C1563.98 1031.19 1539.45 1071.73 1490.9 1102.57C1392.93 1164.8 1233.54 1164.8 1134.88 1102.57C1085.29 1071.16 1060.41 1030.05 1060.58 988.941L1060.93 878.361C1060.93 919.472 1085.64 960.582 1135.23 991.986C1233.89 1054.22 1393.28 1054.22 1491.25 991.986C1539.97 960.963 1564.33 920.614 1564.33 880.074Z" fill="url(#paint9_linear_125_2)"/>
<path d="M1313.06 1157.19C1247.29 1157.19 1181.51 1141.39 1131.23 1109.61C1080.94 1077.83 1053.1 1035 1053.27 989.133L1053.62 878.554C1053.62 874.176 1056.92 870.56 1060.93 870.56C1064.93 870.56 1068.23 874.176 1068.23 878.554C1068.23 918.522 1093.29 956.397 1138.88 985.137C1235.28 1046.04 1391.72 1046.04 1487.59 985.137C1532.31 956.778 1557.02 919.283 1557.2 880.076C1557.2 875.699 1560.5 872.082 1564.51 872.082C1568.51 872.082 1571.81 875.699 1571.81 880.076L1571.47 990.656C1571.47 1035.95 1543.97 1078.21 1494.73 1109.61C1444.79 1141.39 1379.01 1157.19 1313.24 1157.19H1313.06ZM1068.06 934.51V989.133C1067.89 1029.1 1092.94 1066.98 1138.53 1095.72C1234.93 1156.62 1391.37 1156.62 1487.25 1095.72C1531.97 1067.36 1556.67 1029.86 1556.85 990.656V936.032C1544.15 959.633 1523.09 981.14 1494.9 999.03C1395.02 1062.41 1232.15 1062.41 1131.57 999.03C1102.51 980.759 1081.11 958.681 1068.06 934.51Z" fill="#262830"/>
<path d="M1490.03 766.645C1588.69 828.882 1589.21 929.945 1491.25 992.182C1393.28 1054.42 1233.89 1054.42 1135.23 992.182C1036.56 929.945 1036.04 828.882 1134.01 766.645C1231.97 704.408 1391.37 704.408 1490.03 766.645Z" fill="white"/>
<path d="M1313.41 1046.61C1247.64 1046.61 1181.86 1030.81 1131.57 999.029C1081.46 967.244 1053.62 924.611 1053.62 878.933C1053.62 833.445 1080.76 791.192 1130.35 759.598C1230.23 696.219 1393.11 696.029 1493.68 759.598C1543.8 791.382 1571.46 833.825 1571.64 879.694C1571.64 925.182 1544.49 967.435 1494.9 999.029C1444.96 1030.81 1379.36 1046.61 1313.41 1046.61ZM1311.84 727.813C1248.68 727.813 1185.69 743.039 1137.66 773.492C1092.77 802.041 1068.06 839.535 1068.23 878.933C1068.23 918.711 1093.29 956.396 1138.88 985.135C1235.28 1046.04 1391.71 1046.04 1487.59 985.135C1532.49 956.586 1557.2 919.092 1557.2 879.694C1557.2 839.916 1532.14 802.231 1486.55 773.492C1438.35 743.039 1375.18 727.813 1312.02 727.813H1311.84Z" fill="#262830"/>
<path d="M1564.33 734.665L1563.98 845.245C1563.98 885.785 1539.45 926.325 1490.9 957.158C1392.93 1019.39 1233.54 1019.39 1134.88 957.158C1085.29 925.754 1060.41 884.643 1060.58 843.532L1060.93 732.952C1060.93 774.063 1085.64 815.174 1135.23 846.578C1233.89 908.814 1393.28 908.814 1491.25 846.578C1539.97 815.554 1564.33 775.205 1564.33 734.665Z" fill="#D6E4F9"/>
<path d="M1313.06 1011.78C1247.29 1011.78 1181.51 995.986 1131.23 964.202C1080.94 932.417 1053.1 889.594 1053.27 843.725L1053.62 733.145C1053.62 728.767 1056.92 725.151 1060.93 725.151C1064.93 725.151 1068.23 728.767 1068.23 733.145C1068.23 773.114 1093.29 810.989 1138.88 839.728C1235.28 900.632 1391.72 900.632 1487.59 839.728C1532.31 811.369 1557.02 773.875 1557.2 734.667C1557.2 730.29 1560.5 726.674 1564.51 726.674C1568.51 726.674 1571.81 730.29 1571.81 734.667L1571.47 845.247C1571.47 890.545 1543.97 932.798 1494.73 964.202C1444.79 995.986 1379.01 1011.78 1313.24 1011.78H1313.06ZM1068.06 789.101V843.725C1067.89 883.693 1092.94 921.568 1138.53 950.308C1234.93 1011.21 1391.37 1011.21 1487.25 950.308C1531.97 921.949 1556.67 884.645 1556.85 845.247V790.624C1544.15 814.224 1523.09 835.731 1494.9 853.622C1395.02 917.001 1232.15 917.001 1131.57 853.622C1102.51 835.35 1081.11 813.272 1068.06 789.101Z" fill="#262830"/>
<path d="M1564.33 734.665L1563.98 845.245C1563.98 885.785 1539.45 926.325 1490.9 957.158C1392.93 1019.39 1233.54 1019.39 1134.88 957.158C1085.29 925.754 1060.41 884.643 1060.58 843.532L1060.93 732.952C1060.93 774.063 1085.64 815.174 1135.23 846.578C1233.89 908.814 1393.28 908.814 1491.25 846.578C1539.97 815.554 1564.33 775.205 1564.33 734.665Z" fill="url(#paint10_linear_125_2)"/>
<path d="M1313.06 1011.78C1247.29 1011.78 1181.51 995.986 1131.23 964.202C1080.94 932.417 1053.1 889.594 1053.27 843.725L1053.62 733.145C1053.62 728.767 1056.92 725.151 1060.93 725.151C1064.93 725.151 1068.23 728.767 1068.23 733.145C1068.23 773.114 1093.29 810.989 1138.88 839.728C1235.28 900.632 1391.72 900.632 1487.59 839.728C1532.31 811.369 1557.02 773.875 1557.2 734.667C1557.2 730.29 1560.5 726.674 1564.51 726.674C1568.51 726.674 1571.81 730.29 1571.81 734.667L1571.47 845.247C1571.47 890.545 1543.97 932.798 1494.73 964.202C1444.79 995.986 1379.01 1011.78 1313.24 1011.78H1313.06ZM1068.06 789.101V843.725C1067.89 883.693 1092.94 921.568 1138.53 950.308C1234.93 1011.21 1391.37 1011.21 1487.25 950.308C1531.97 921.949 1556.67 884.645 1556.85 845.247V790.624C1544.15 814.224 1523.09 835.731 1494.9 853.622C1395.02 917.001 1232.15 917.001 1131.57 853.622C1102.51 835.35 1081.11 813.272 1068.06 789.101Z" fill="#262830"/>
<path d="M1490.03 621.231C1588.69 683.468 1589.21 784.531 1491.25 846.768C1393.28 909.005 1233.89 909.005 1135.23 846.768C1036.56 784.531 1036.04 683.468 1134.01 621.231C1231.97 558.994 1391.37 558.994 1490.03 621.231Z" fill="white"/>
<path d="M1313.41 901.202C1247.64 901.202 1181.86 885.405 1131.57 853.62C1081.46 821.836 1053.62 779.202 1053.62 733.524C1053.62 688.036 1080.76 645.783 1130.35 614.189C1230.23 550.81 1393.11 550.62 1493.68 614.189C1543.8 645.974 1571.46 688.417 1571.64 734.285C1571.64 779.773 1544.49 822.026 1494.9 853.62C1444.96 885.405 1379.36 901.202 1313.41 901.202ZM1311.84 582.404C1248.68 582.404 1185.69 597.631 1137.66 628.083C1092.77 656.632 1068.06 694.126 1068.23 733.524C1068.23 773.302 1093.29 810.987 1138.88 839.726C1235.28 900.631 1391.71 900.631 1487.59 839.726C1532.49 811.177 1557.2 773.683 1557.2 734.285C1557.2 694.507 1532.14 656.822 1486.55 628.083C1438.35 597.631 1375.18 582.404 1312.02 582.404H1311.84Z" fill="#262830"/>
<path d="M1564.33 589.256L1563.98 699.836C1563.98 740.376 1539.45 780.916 1490.9 811.749C1392.93 873.985 1233.54 873.985 1134.88 811.749C1085.29 780.345 1060.41 739.234 1060.58 698.123L1060.93 587.543C1060.93 628.654 1085.64 669.765 1135.23 701.169C1233.89 763.405 1393.28 763.405 1491.25 701.169C1539.97 670.145 1564.33 629.796 1564.33 589.256Z" fill="#D6E4F9"/>
<path d="M1313.06 866.375C1247.29 866.375 1181.51 850.578 1131.23 818.793C1080.94 787.008 1053.1 744.185 1053.27 698.316L1053.62 587.736C1053.62 583.359 1056.92 579.742 1060.93 579.742C1064.93 579.742 1068.23 583.359 1068.23 587.736C1068.23 627.705 1093.29 665.58 1138.88 694.319C1235.28 755.224 1391.72 755.224 1487.59 694.319C1532.31 665.961 1557.02 628.466 1557.2 589.259C1557.2 584.881 1560.5 581.265 1564.51 581.265C1568.51 581.265 1571.81 584.881 1571.81 589.259L1571.47 699.839C1571.47 745.137 1543.97 787.389 1494.73 818.793C1444.79 850.578 1379.01 866.375 1313.24 866.375H1313.06ZM1068.06 643.692V698.316C1067.89 738.285 1092.94 776.16 1138.53 804.899C1234.93 865.804 1391.37 865.804 1487.25 804.899C1531.97 776.54 1556.67 739.046 1556.85 699.839V645.215C1544.15 668.815 1523.09 690.322 1494.9 708.213C1395.02 771.592 1232.15 771.592 1131.57 708.213C1102.51 689.942 1081.11 667.864 1068.06 643.692Z" fill="#262830"/>
<path d="M1564.33 589.256L1563.98 699.836C1563.98 740.376 1539.45 780.916 1490.9 811.749C1392.93 873.985 1233.54 873.985 1134.88 811.749C1085.29 780.345 1060.41 739.234 1060.58 698.123L1060.93 587.543C1060.93 628.654 1085.64 669.765 1135.23 701.169C1233.89 763.405 1393.28 763.405 1491.25 701.169C1539.97 670.145 1564.33 629.796 1564.33 589.256Z" fill="url(#paint11_linear_125_2)"/>
<path d="M1313.06 866.375C1247.29 866.375 1181.51 850.578 1131.23 818.793C1080.94 787.008 1053.1 744.185 1053.27 698.316L1053.62 587.736C1053.62 583.359 1056.92 579.742 1060.93 579.742C1064.93 579.742 1068.23 583.359 1068.23 587.736C1068.23 627.705 1093.29 665.58 1138.88 694.319C1235.28 755.224 1391.72 755.224 1487.59 694.319C1532.31 665.961 1557.02 628.466 1557.2 589.259C1557.2 584.881 1560.5 581.265 1564.51 581.265C1568.51 581.265 1571.81 584.881 1571.81 589.259L1571.47 699.839C1571.47 745.137 1543.97 787.389 1494.73 818.793C1444.79 850.578 1379.01 866.375 1313.24 866.375H1313.06ZM1068.06 643.692V698.316C1067.89 738.285 1092.94 776.16 1138.53 804.899C1234.93 865.804 1391.37 865.804 1487.25 804.899C1531.97 776.54 1556.67 739.046 1556.85 699.839V645.215C1544.15 668.815 1523.09 690.322 1494.9 708.213C1395.02 771.592 1232.15 771.592 1131.57 708.213C1102.51 689.942 1081.11 667.864 1068.06 643.692Z" fill="#262830"/>
<path d="M1490.03 475.827C1588.69 538.064 1589.21 639.128 1491.25 701.364C1393.28 763.601 1233.89 763.601 1135.23 701.364C1036.56 639.128 1036.04 538.064 1134.01 475.827C1231.97 413.59 1391.37 413.59 1490.03 475.827Z" fill="white"/>
<path d="M1313.41 755.793C1247.64 755.793 1181.86 739.996 1131.57 708.212C1081.46 676.427 1053.62 633.794 1053.62 588.115C1053.62 542.627 1080.76 500.375 1130.35 468.78C1230.23 405.401 1393.11 405.211 1493.68 468.78C1543.8 500.565 1571.46 543.008 1571.64 588.877C1571.64 634.365 1544.49 676.617 1494.9 708.212C1444.96 739.996 1379.36 755.793 1313.41 755.793ZM1311.84 436.996C1248.68 436.996 1185.69 452.222 1137.66 482.674C1092.77 511.223 1068.06 548.718 1068.23 588.115C1068.23 627.894 1093.29 665.578 1138.88 694.318C1235.28 755.222 1391.71 755.222 1487.59 694.318C1532.49 665.769 1557.2 628.274 1557.2 588.877C1557.2 549.098 1532.14 511.414 1486.55 482.674C1438.35 452.222 1375.18 436.996 1312.02 436.996H1311.84Z" fill="#262830"/>
<path d="M1564.33 444.037L1563.98 554.617C1563.98 595.157 1539.45 635.697 1490.9 666.53C1392.93 728.766 1233.54 728.766 1134.88 666.53C1085.29 635.126 1060.41 594.015 1060.58 552.904L1060.93 442.324C1060.93 483.435 1085.64 524.546 1135.23 555.95C1233.89 618.187 1393.28 618.187 1491.25 555.95C1539.97 524.926 1564.33 484.577 1564.33 444.037Z" fill="#D6E4F9"/>
<path d="M1313.06 720.961C1247.29 720.961 1181.51 705.164 1131.23 673.379C1080.94 641.594 1053.1 598.771 1053.27 552.902L1053.62 442.322C1053.62 437.945 1056.92 434.328 1060.93 434.328C1064.93 434.328 1068.23 437.945 1068.23 442.322C1068.23 482.291 1093.29 520.166 1138.88 548.905C1235.28 609.81 1391.72 609.81 1487.59 548.905C1532.31 520.546 1557.02 483.242 1557.2 443.845C1557.2 439.467 1560.5 435.851 1564.51 435.851C1568.51 435.851 1571.81 439.467 1571.81 443.845L1571.47 554.425C1571.47 599.722 1543.97 641.975 1494.73 673.379C1444.79 705.164 1379.01 720.961 1313.24 720.961H1313.06ZM1068.06 498.278V552.902C1067.89 592.871 1092.94 630.746 1138.53 659.485C1234.93 720.39 1391.37 720.39 1487.25 659.485C1531.97 631.126 1556.67 593.632 1556.85 554.425V499.801C1544.15 523.401 1523.09 544.908 1494.9 562.799C1395.02 626.178 1232.15 626.368 1131.57 562.799C1102.51 544.528 1081.11 522.45 1068.06 498.278Z" fill="#262830"/>
<path d="M1564.33 444.037L1563.98 554.617C1563.98 595.157 1539.45 635.697 1490.9 666.53C1392.93 728.766 1233.54 728.766 1134.88 666.53C1085.29 635.126 1060.41 594.015 1060.58 552.904L1060.93 442.324C1060.93 483.435 1085.64 524.546 1135.23 555.95C1233.89 618.187 1393.28 618.187 1491.25 555.95C1539.97 524.926 1564.33 484.577 1564.33 444.037Z" fill="url(#paint12_linear_125_2)"/>
<path d="M1313.06 720.961C1247.29 720.961 1181.51 705.164 1131.23 673.379C1080.94 641.594 1053.1 598.771 1053.27 552.902L1053.62 442.322C1053.62 437.945 1056.92 434.328 1060.93 434.328C1064.93 434.328 1068.23 437.945 1068.23 442.322C1068.23 482.291 1093.29 520.166 1138.88 548.905C1235.28 609.81 1391.72 609.81 1487.59 548.905C1532.31 520.546 1557.02 483.242 1557.2 443.845C1557.2 439.467 1560.5 435.851 1564.51 435.851C1568.51 435.851 1571.81 439.467 1571.81 443.845L1571.47 554.425C1571.47 599.722 1543.97 641.975 1494.73 673.379C1444.79 705.164 1379.01 720.961 1313.24 720.961H1313.06ZM1068.06 498.278V552.902C1067.89 592.871 1092.94 630.746 1138.53 659.485C1234.93 720.39 1391.37 720.39 1487.25 659.485C1531.97 631.126 1556.67 593.632 1556.85 554.425V499.801C1544.15 523.401 1523.09 544.908 1494.9 562.799C1395.02 626.178 1232.15 626.368 1131.57 562.799C1102.51 544.528 1081.11 522.45 1068.06 498.278Z" fill="#262830"/>
<path d="M1490.03 330.413C1588.69 392.65 1589.21 493.713 1491.25 555.95C1393.28 618.187 1233.89 618.187 1135.23 555.95C1036.56 493.713 1036.04 392.65 1134.01 330.413C1231.97 268.176 1391.37 268.176 1490.03 330.413Z" fill="white"/>
<path d="M1313.41 610.385C1247.64 610.385 1181.86 594.587 1131.57 562.803C1081.46 531.018 1053.62 488.385 1053.62 442.707C1053.62 397.218 1080.76 354.966 1130.35 323.372C1230.23 259.993 1393.11 259.802 1493.68 323.372C1543.8 355.156 1571.46 397.599 1571.64 443.468C1571.64 488.956 1544.49 531.209 1494.9 562.803C1444.96 594.587 1379.19 610.385 1313.41 610.385ZM1311.84 291.587C1248.68 291.587 1185.69 306.813 1137.66 337.266C1092.77 365.815 1068.06 403.309 1068.23 442.707C1068.23 482.485 1093.29 520.17 1138.88 548.909C1235.28 609.814 1391.71 609.814 1487.59 548.909C1532.49 520.36 1557.2 482.866 1557.2 443.468C1557.2 403.69 1532.14 366.005 1486.55 337.266C1438.35 306.813 1375.18 291.587 1312.02 291.587H1311.84Z" fill="#262830"/>
<path d="M1505.17 298.627L1504.82 409.207C1504.82 449.747 1480.29 490.286 1431.74 521.119C1333.77 583.356 1174.38 583.356 1075.72 521.119C1026.13 489.715 1001.24 448.605 1001.42 407.494L1001.77 296.914C1001.77 338.025 1026.48 379.135 1076.07 410.539C1174.73 472.776 1334.12 472.776 1432.09 410.539C1480.81 379.516 1505.17 339.167 1505.17 298.627Z" fill="#D6E4F9"/>
<path d="M1253.9 575.742C1188.13 575.742 1122.35 559.945 1072.06 528.161C1021.78 496.376 993.935 453.553 994.109 407.684L994.457 297.104C994.457 292.726 997.763 289.11 1001.77 289.11C1005.77 289.11 1009.07 292.726 1009.07 297.104C1009.07 337.072 1034.13 374.948 1079.72 403.687C1176.12 464.591 1332.55 464.591 1428.43 403.687C1473.15 375.328 1497.86 337.834 1498.04 298.626C1498.04 294.249 1501.34 290.633 1505.34 290.633C1509.35 290.633 1512.65 294.249 1512.65 298.626L1512.3 409.206C1512.3 454.504 1484.99 496.757 1435.57 528.161C1385.63 559.945 1319.85 575.742 1254.08 575.742H1253.9ZM1008.9 353.06V407.684C1008.73 447.652 1033.78 485.527 1079.37 514.267C1175.77 575.171 1332.21 575.171 1428.08 514.267C1472.8 485.908 1497.51 448.414 1497.69 409.206V354.583C1484.99 378.183 1463.93 399.5 1435.74 417.581C1335.86 480.96 1172.99 480.96 1072.41 417.581C1043.35 399.309 1021.95 377.231 1008.9 353.06Z" fill="#262830"/>
<path d="M1505.17 298.627L1504.82 409.207C1504.82 449.747 1480.29 490.286 1431.74 521.119C1333.77 583.356 1174.38 583.356 1075.72 521.119C1026.13 489.715 1001.24 448.605 1001.42 407.494L1001.77 296.914C1001.77 338.025 1026.48 379.135 1076.07 410.539C1174.73 472.776 1334.12 472.776 1432.09 410.539C1480.81 379.516 1505.17 339.167 1505.17 298.627Z" fill="url(#paint13_linear_125_2)"/>
<path d="M1253.9 575.742C1188.13 575.742 1122.35 559.945 1072.06 528.161C1021.78 496.376 993.935 453.553 994.109 407.684L994.457 297.104C994.457 292.726 997.763 289.11 1001.77 289.11C1005.77 289.11 1009.07 292.726 1009.07 297.104C1009.07 337.072 1034.13 374.948 1079.72 403.687C1176.12 464.591 1332.55 464.591 1428.43 403.687C1473.15 375.328 1497.86 337.834 1498.04 298.626C1498.04 294.249 1501.34 290.633 1505.34 290.633C1509.35 290.633 1512.65 294.249 1512.65 298.626L1512.3 409.206C1512.3 454.504 1484.99 496.757 1435.57 528.161C1385.63 559.945 1319.85 575.742 1254.08 575.742H1253.9ZM1008.9 353.06V407.684C1008.73 447.652 1033.78 485.527 1079.37 514.267C1175.77 575.171 1332.21 575.171 1428.08 514.267C1472.8 485.908 1497.51 448.414 1497.69 409.206V354.583C1484.99 378.183 1463.93 399.5 1435.74 417.581C1335.86 480.96 1172.99 480.96 1072.41 417.581C1043.35 399.309 1021.95 377.231 1008.9 353.06Z" fill="#262830"/>
<path d="M1430.87 185.002C1529.53 247.239 1530.05 348.303 1432.09 410.539C1334.12 472.776 1174.73 472.776 1076.06 410.539C977.402 348.303 976.88 247.239 1074.85 185.002C1172.81 122.765 1332.2 122.765 1430.87 185.002Z" fill="white"/>
<path d="M1254.25 464.97C1188.47 464.97 1122.7 449.173 1072.41 417.388C1022.3 385.604 994.455 342.97 994.455 297.292C994.455 251.804 1021.6 209.551 1071.19 177.957C1171.07 114.578 1333.94 114.388 1434.52 177.957C1484.64 209.741 1512.48 252.375 1512.48 298.053C1512.48 343.541 1485.33 385.794 1435.74 417.388C1385.8 449.173 1320.02 464.97 1254.25 464.97ZM1252.68 146.172C1189.52 146.172 1126.53 161.398 1078.5 191.851C1033.61 220.4 1008.9 257.894 1009.07 297.292C1009.07 337.07 1034.13 374.755 1079.72 403.494C1176.12 464.399 1332.55 464.399 1428.43 403.494C1473.33 374.945 1498.03 337.451 1498.03 298.053C1498.03 258.275 1472.98 220.59 1427.39 191.851C1379.19 161.398 1316.02 146.172 1252.86 146.172H1252.68Z" fill="#262830"/>
<path d="M1129.14 1307.74L1128.79 1418.32C1128.79 1458.86 1104.25 1499.4 1055.71 1530.23C957.74 1592.47 798.349 1592.47 699.686 1530.23C650.094 1498.83 625.211 1457.72 625.385 1416.61L625.733 1306.03C625.733 1347.14 650.442 1388.25 700.034 1419.65C798.697 1481.89 958.088 1481.89 1056.05 1419.65C1104.78 1388.63 1129.14 1348.28 1129.14 1307.74Z" fill="#D6E4F9"/>
<path d="M878.044 1584.86C812.269 1584.86 746.494 1569.06 696.205 1537.28C645.917 1505.49 618.076 1462.67 618.25 1416.8L618.598 1306.22C618.598 1301.84 621.904 1298.23 625.906 1298.23C629.908 1298.23 633.215 1301.84 633.215 1306.22C633.215 1346.19 658.272 1384.06 703.862 1412.8C800.262 1473.71 956.695 1473.71 1052.57 1412.8C1097.29 1384.44 1122 1346.95 1122.18 1307.74C1122.18 1303.36 1125.48 1299.75 1129.49 1299.75C1133.49 1299.75 1136.79 1303.36 1136.79 1307.74L1136.45 1418.32C1136.45 1463.62 1109.13 1505.87 1059.71 1537.28C1009.77 1569.06 943.993 1584.86 878.218 1584.86H878.044ZM633.041 1362.17V1416.8C632.867 1456.77 657.924 1494.64 703.514 1523.38C799.914 1584.29 956.347 1584.29 1052.23 1523.38C1096.95 1495.02 1121.65 1457.53 1121.83 1418.32V1363.7C1109.13 1387.3 1088.07 1408.81 1059.88 1426.7C960.001 1490.07 797.13 1490.07 696.553 1426.7C667.494 1408.42 646.091 1386.35 633.041 1362.17Z" fill="#262830"/>
<path d="M1129.14 1307.74L1128.79 1418.32C1128.79 1458.86 1104.25 1499.4 1055.71 1530.23C957.74 1592.47 798.349 1592.47 699.686 1530.23C650.094 1498.83 625.211 1457.72 625.385 1416.61L625.733 1306.03C625.733 1347.14 650.442 1388.25 700.034 1419.65C798.697 1481.89 958.088 1481.89 1056.05 1419.65C1104.78 1388.63 1129.14 1348.28 1129.14 1307.74Z" fill="#D6E4F9"/>
<path d="M878.044 1584.86C812.269 1584.86 746.494 1569.06 696.205 1537.28C645.917 1505.49 618.076 1462.67 618.25 1416.8L618.598 1306.22C618.598 1301.84 621.904 1298.23 625.906 1298.23C629.908 1298.23 633.215 1301.84 633.215 1306.22C633.215 1346.19 658.272 1384.06 703.862 1412.8C800.262 1473.71 956.695 1473.71 1052.57 1412.8C1097.29 1384.44 1122 1346.95 1122.18 1307.74C1122.18 1303.36 1125.48 1299.75 1129.49 1299.75C1133.49 1299.75 1136.79 1303.36 1136.79 1307.74L1136.45 1418.32C1136.45 1463.62 1109.13 1505.87 1059.71 1537.28C1009.77 1569.06 943.993 1584.86 878.218 1584.86H878.044ZM633.041 1362.17V1416.8C632.867 1456.77 657.924 1494.64 703.514 1523.38C799.914 1584.29 956.347 1584.29 1052.23 1523.38C1096.95 1495.02 1121.65 1457.53 1121.83 1418.32V1363.7C1109.13 1387.3 1088.07 1408.81 1059.88 1426.7C960.001 1490.07 797.13 1490.07 696.553 1426.7C667.494 1408.42 646.091 1386.35 633.041 1362.17Z" fill="#262830"/>
<path d="M1055.01 1194.31C1153.67 1256.55 1154.19 1357.61 1056.23 1419.85C958.26 1482.08 798.869 1482.08 700.206 1419.85C601.544 1357.61 601.022 1256.55 698.988 1194.31C796.955 1132.07 956.346 1132.07 1055.01 1194.31Z" fill="white"/>
<path d="M878.391 1474.28C812.616 1474.28 746.841 1458.48 696.552 1426.69C646.438 1394.91 618.597 1352.28 618.597 1306.6C618.597 1261.11 645.742 1218.86 695.334 1187.26C795.215 1123.88 958.086 1123.69 1058.66 1187.26C1108.78 1219.05 1136.62 1261.68 1136.62 1307.36C1136.62 1352.85 1109.47 1395.1 1059.88 1426.69C1009.94 1458.48 944.34 1474.28 878.391 1474.28ZM876.825 1155.48C813.66 1155.48 750.669 1170.7 702.643 1201.16C657.749 1229.71 633.039 1267.2 633.213 1306.6C633.213 1346.38 658.271 1384.06 703.861 1412.8C800.261 1473.71 956.694 1473.71 1052.57 1412.8C1097.47 1384.25 1122.18 1346.76 1122.18 1307.36C1122.18 1267.58 1097.12 1229.9 1051.53 1201.16C1003.33 1170.7 940.163 1155.48 876.999 1155.48H876.825Z" fill="#262830"/>
<path d="M1129.14 1162.33L1128.79 1272.91C1128.79 1313.45 1104.25 1353.99 1055.71 1384.83C957.74 1447.06 798.349 1447.06 699.686 1384.83C650.094 1353.42 625.211 1312.31 625.385 1271.2L625.733 1160.62C625.733 1201.73 650.442 1242.84 700.034 1274.25C798.697 1336.48 958.088 1336.48 1056.05 1274.25C1104.78 1243.22 1129.14 1202.87 1129.14 1162.33Z" fill="#D6E4F9"/>
<path d="M878.044 1439.44C812.269 1439.44 746.494 1423.65 696.205 1391.86C645.917 1360.08 618.076 1317.25 618.25 1271.38L618.598 1160.81C618.598 1156.43 621.904 1152.81 625.906 1152.81C629.908 1152.81 633.215 1156.43 633.215 1160.81C633.215 1200.77 658.272 1238.65 703.862 1267.39C800.262 1328.29 956.695 1328.29 1052.57 1267.39C1097.29 1239.03 1122 1201.53 1122.18 1162.33C1122.18 1157.95 1125.48 1154.33 1129.49 1154.33C1133.49 1154.33 1136.79 1157.95 1136.79 1162.33L1136.45 1272.91C1136.45 1318.21 1109.13 1360.46 1059.71 1391.86C1009.77 1423.65 943.993 1439.44 878.218 1439.44H878.044ZM633.041 1216.76V1271.38C632.867 1311.35 657.924 1349.23 703.514 1377.97C799.914 1438.87 956.347 1438.87 1052.23 1377.97C1096.95 1349.61 1121.65 1312.11 1121.83 1272.91V1218.28C1109.13 1241.88 1088.07 1263.39 1059.88 1281.28C960.001 1344.66 797.13 1344.66 696.553 1281.28C667.494 1263.01 646.091 1240.93 633.041 1216.76Z" fill="#262830"/>
<path d="M1129.14 1162.33L1128.79 1272.91C1128.79 1313.45 1104.25 1353.99 1055.71 1384.83C957.74 1447.06 798.349 1447.06 699.686 1384.83C650.094 1353.42 625.211 1312.31 625.385 1271.2L625.733 1160.62C625.733 1201.73 650.442 1242.84 700.034 1274.25C798.697 1336.48 958.088 1336.48 1056.05 1274.25C1104.78 1243.22 1129.14 1202.87 1129.14 1162.33Z" fill="url(#paint14_linear_125_2)"/>
<path d="M878.044 1439.44C812.269 1439.44 746.494 1423.65 696.205 1391.86C645.917 1360.08 618.076 1317.25 618.25 1271.38L618.598 1160.81C618.598 1156.43 621.904 1152.81 625.906 1152.81C629.908 1152.81 633.215 1156.43 633.215 1160.81C633.215 1200.77 658.272 1238.65 703.862 1267.39C800.262 1328.29 956.695 1328.29 1052.57 1267.39C1097.29 1239.03 1122 1201.53 1122.18 1162.33C1122.18 1157.95 1125.48 1154.33 1129.49 1154.33C1133.49 1154.33 1136.79 1157.95 1136.79 1162.33L1136.45 1272.91C1136.45 1318.21 1109.13 1360.46 1059.71 1391.86C1009.77 1423.65 943.993 1439.44 878.218 1439.44H878.044ZM633.041 1216.76V1271.38C632.867 1311.35 657.924 1349.23 703.514 1377.97C799.914 1438.87 956.347 1438.87 1052.23 1377.97C1096.95 1349.61 1121.65 1312.11 1121.83 1272.91V1218.28C1109.13 1241.88 1088.07 1263.39 1059.88 1281.28C960.001 1344.66 797.13 1344.66 696.553 1281.28C667.494 1263.01 646.091 1240.93 633.041 1216.76Z" fill="#262830"/>
<path d="M1055.01 1048.89C1153.67 1111.13 1154.19 1212.2 1056.23 1274.43C958.26 1336.67 798.869 1336.67 700.206 1274.43C601.544 1212.2 601.022 1111.13 698.988 1048.89C796.955 986.658 956.346 986.658 1055.01 1048.89Z" fill="white"/>
<path d="M878.391 1328.87C812.616 1328.87 746.841 1313.07 696.552 1281.29C646.438 1249.5 618.597 1206.87 618.597 1161.19C618.597 1115.7 645.742 1073.45 695.334 1041.85C795.215 978.476 958.086 978.286 1058.66 1041.85C1108.78 1073.64 1136.62 1116.27 1136.62 1161.95C1136.62 1207.44 1109.47 1249.69 1059.88 1281.29C1009.94 1313.07 944.34 1328.87 878.391 1328.87ZM876.825 1010.07C813.66 1010.07 750.669 1025.3 702.643 1055.75C657.749 1084.3 633.039 1121.79 633.213 1161.19C633.213 1200.97 658.271 1238.65 703.861 1267.39C800.261 1328.3 956.694 1328.3 1052.57 1267.39C1097.47 1238.84 1122.18 1201.35 1122.18 1161.95C1122.18 1122.17 1097.12 1084.49 1051.53 1055.75C1003.33 1025.3 940.163 1010.07 876.999 1010.07H876.825Z" fill="#262830"/>
<path d="M1129.14 1016.16L1128.79 1126.74C1128.79 1167.28 1104.25 1207.82 1055.71 1238.65C957.74 1300.89 798.349 1300.89 699.686 1238.65C650.094 1207.25 625.211 1166.13 625.385 1125.02L625.733 1014.44C625.733 1055.55 650.442 1096.67 700.034 1128.07C798.697 1190.31 958.088 1190.31 1056.05 1128.07C1104.78 1097.05 1129.14 1056.7 1129.14 1016.16Z" fill="#D6E4F9"/>
<path d="M878.044 1293.28C812.269 1293.28 746.494 1277.48 696.205 1245.69C645.917 1213.91 618.076 1171.09 618.25 1125.22L618.598 1014.64C618.598 1010.26 621.904 1006.64 625.906 1006.64C629.908 1006.64 633.215 1010.26 633.215 1014.64C633.215 1054.61 658.272 1092.48 703.862 1121.22C800.262 1182.12 956.695 1182.12 1052.57 1121.22C1097.29 1092.86 1122 1055.37 1122.18 1016.16C1122.18 1011.78 1125.48 1008.17 1129.49 1008.17C1133.49 1008.17 1136.79 1011.78 1136.79 1016.16L1136.45 1126.74C1136.45 1172.04 1109.13 1214.29 1059.71 1245.69C1009.77 1277.48 943.993 1293.28 878.218 1293.28H878.044ZM633.041 1070.59V1125.22C632.867 1165.19 657.924 1203.06 703.514 1231.8C799.914 1292.7 956.347 1292.7 1052.23 1231.8C1096.95 1203.44 1121.65 1165.95 1121.83 1126.74V1072.12C1109.13 1095.72 1088.07 1117.22 1059.88 1135.11C960.001 1198.49 797.13 1198.49 696.553 1135.11C667.494 1116.84 646.091 1094.76 633.041 1070.59Z" fill="#262830"/>
<path d="M1129.14 1016.16L1128.79 1126.74C1128.79 1167.28 1104.25 1207.82 1055.71 1238.65C957.74 1300.89 798.349 1300.89 699.686 1238.65C650.094 1207.25 625.211 1166.13 625.385 1125.02L625.733 1014.44C625.733 1055.55 650.442 1096.67 700.034 1128.07C798.697 1190.31 958.088 1190.31 1056.05 1128.07C1104.78 1097.05 1129.14 1056.7 1129.14 1016.16Z" fill="url(#paint15_linear_125_2)"/>
<path d="M878.044 1293.28C812.269 1293.28 746.494 1277.48 696.205 1245.69C645.917 1213.91 618.076 1171.09 618.25 1125.22L618.598 1014.64C618.598 1010.26 621.904 1006.64 625.906 1006.64C629.908 1006.64 633.215 1010.26 633.215 1014.64C633.215 1054.61 658.272 1092.48 703.862 1121.22C800.262 1182.12 956.695 1182.12 1052.57 1121.22C1097.29 1092.86 1122 1055.37 1122.18 1016.16C1122.18 1011.78 1125.48 1008.17 1129.49 1008.17C1133.49 1008.17 1136.79 1011.78 1136.79 1016.16L1136.45 1126.74C1136.45 1172.04 1109.13 1214.29 1059.71 1245.69C1009.77 1277.48 943.993 1293.28 878.218 1293.28H878.044ZM633.041 1070.59V1125.22C632.867 1165.19 657.924 1203.06 703.514 1231.8C799.914 1292.7 956.347 1292.7 1052.23 1231.8C1096.95 1203.44 1121.65 1165.95 1121.83 1126.74V1072.12C1109.13 1095.72 1088.07 1117.22 1059.88 1135.11C960.001 1198.49 797.13 1198.49 696.553 1135.11C667.494 1116.84 646.091 1094.76 633.041 1070.59Z" fill="#262830"/>
<path d="M1055.01 902.536C1153.67 964.773 1154.19 1065.84 1056.23 1128.07C958.26 1190.31 798.869 1190.31 700.206 1128.07C601.544 1065.84 601.022 964.773 698.988 902.536C796.955 840.299 956.346 840.299 1055.01 902.536Z" fill="white"/>
<path d="M878.391 1182.69C812.616 1182.69 746.841 1166.9 696.552 1135.11C646.438 1103.33 618.597 1060.69 618.597 1015.02C618.597 969.528 645.742 927.275 695.334 895.681C795.215 832.302 958.086 832.112 1058.66 895.681C1108.78 927.466 1136.62 970.099 1136.62 1015.78C1136.62 1061.27 1109.47 1103.52 1059.88 1135.11C1009.94 1166.9 944.34 1182.69 878.391 1182.69ZM876.825 863.897C813.66 863.897 750.669 879.123 702.643 909.575C657.749 938.124 633.039 975.619 633.213 1015.02C633.213 1054.79 658.271 1092.48 703.861 1121.22C800.261 1182.12 956.694 1182.12 1052.57 1121.22C1097.47 1092.67 1122.18 1055.18 1122.18 1015.78C1122.18 975.999 1097.12 938.314 1051.53 909.575C1003.33 879.123 940.163 863.897 876.999 863.897H876.825Z" fill="#262830"/>
<path d="M1129.14 869.795L1128.79 980.375C1128.79 1020.91 1104.25 1061.45 1055.71 1092.29C957.74 1154.52 798.349 1154.52 699.686 1092.29C650.094 1060.88 625.211 1019.77 625.385 978.662L625.733 868.083C625.733 909.193 650.442 950.304 700.034 981.708C798.697 1043.94 958.088 1043.94 1056.05 981.708C1104.78 950.684 1129.14 910.335 1129.14 869.795Z" fill="#D6E4F9"/>
<path d="M878.044 1146.91C812.269 1146.91 746.494 1131.12 696.205 1099.33C645.917 1067.55 618.076 1024.72 618.25 978.854L618.598 868.274C618.598 863.896 621.904 860.28 625.906 860.28C629.908 860.28 633.215 863.896 633.215 868.274C633.215 908.242 658.272 946.117 703.862 974.857C800.262 1035.76 956.695 1035.76 1052.57 974.857C1097.29 946.498 1122 909.004 1122.18 869.796C1122.18 865.419 1125.48 861.803 1129.49 861.803C1133.49 861.803 1136.79 865.419 1136.79 869.796L1136.45 980.376C1136.45 1025.67 1109.13 1067.93 1059.71 1099.33C1009.77 1131.12 943.993 1146.91 878.218 1146.91H878.044ZM633.041 924.23V978.854C632.867 1018.82 657.924 1056.7 703.514 1085.44C799.914 1146.34 956.347 1146.34 1052.23 1085.44C1096.95 1057.08 1121.65 1019.58 1121.83 980.376V925.752C1109.13 949.353 1088.07 970.86 1059.88 988.751C960.001 1052.13 797.13 1052.13 696.553 988.751C667.494 970.479 646.091 948.401 633.041 924.23Z" fill="#262830"/>
<path d="M1129.14 869.795L1128.79 980.375C1128.79 1020.91 1104.25 1061.45 1055.71 1092.29C957.74 1154.52 798.349 1154.52 699.686 1092.29C650.094 1060.88 625.211 1019.77 625.385 978.662L625.733 868.083C625.733 909.193 650.442 950.304 700.034 981.708C798.697 1043.94 958.088 1043.94 1056.05 981.708C1104.78 950.684 1129.14 910.335 1129.14 869.795Z" fill="url(#paint16_linear_125_2)"/>
<path d="M878.044 1146.91C812.269 1146.91 746.494 1131.12 696.205 1099.33C645.917 1067.55 618.076 1024.72 618.25 978.854L618.598 868.274C618.598 863.896 621.904 860.28 625.906 860.28C629.908 860.28 633.215 863.896 633.215 868.274C633.215 908.242 658.272 946.117 703.862 974.857C800.262 1035.76 956.695 1035.76 1052.57 974.857C1097.29 946.498 1122 909.004 1122.18 869.796C1122.18 865.419 1125.48 861.803 1129.49 861.803C1133.49 861.803 1136.79 865.419 1136.79 869.796L1136.45 980.376C1136.45 1025.67 1109.13 1067.93 1059.71 1099.33C1009.77 1131.12 943.993 1146.91 878.218 1146.91H878.044ZM633.041 924.23V978.854C632.867 1018.82 657.924 1056.7 703.514 1085.44C799.914 1146.34 956.347 1146.34 1052.23 1085.44C1096.95 1057.08 1121.65 1019.58 1121.83 980.376V925.752C1109.13 949.353 1088.07 970.86 1059.88 988.751C960.001 1052.13 797.13 1052.13 696.553 988.751C667.494 970.479 646.091 948.401 633.041 924.23Z" fill="#262830"/>
<path d="M1055.01 756.362C1153.67 818.598 1154.19 919.662 1056.23 981.899C958.26 1044.14 798.869 1044.14 700.206 981.899C601.544 919.662 601.022 818.598 698.988 756.362C796.955 694.125 956.346 694.125 1055.01 756.362Z" fill="white"/>
<path d="M878.391 1036.33C812.616 1036.33 746.841 1020.53 696.552 988.749C646.438 956.965 618.597 914.332 618.597 868.653C618.597 823.165 645.742 780.912 695.334 749.318C795.215 685.939 958.086 685.749 1058.66 749.318C1108.78 781.103 1136.62 823.736 1136.62 869.415C1136.62 914.903 1109.47 957.155 1059.88 988.749C1009.94 1020.53 944.34 1036.33 878.391 1036.33ZM876.825 717.534C813.66 717.534 750.669 732.76 702.643 763.212C657.749 791.761 633.039 829.256 633.213 868.653C633.213 908.432 658.271 946.116 703.861 974.856C800.261 1035.76 956.694 1035.76 1052.57 974.856C1097.47 946.307 1122.18 908.812 1122.18 869.415C1122.18 829.636 1097.12 791.951 1051.53 763.212C1003.33 732.76 940.163 717.534 876.999 717.534H876.825Z" fill="#262830"/>
<path d="M1129.14 717.158L1128.79 827.738C1128.79 868.278 1104.25 908.817 1055.71 939.65C957.74 1001.89 798.349 1001.89 699.686 939.65C650.094 908.246 625.211 867.136 625.385 826.025L625.733 715.445C625.733 756.556 650.442 797.666 700.034 829.07C798.697 891.307 958.088 891.307 1056.05 829.07C1104.78 798.047 1129.14 757.698 1129.14 717.158Z" fill="#D6E4F9"/>
<path d="M878.044 994.272C812.269 994.272 746.494 978.475 696.205 946.691C645.917 914.906 618.076 872.083 618.25 826.214L618.598 715.634C618.598 711.256 621.904 707.64 625.906 707.64C629.908 707.64 633.215 711.256 633.215 715.634C633.215 755.602 658.272 793.478 703.862 822.217C800.262 883.122 956.695 883.122 1052.57 822.217C1097.29 793.858 1122 756.554 1122.18 717.156C1122.18 712.779 1125.48 709.163 1129.49 709.163C1133.49 709.163 1136.79 712.779 1136.79 717.156L1136.45 827.736C1136.45 873.034 1109.13 915.287 1059.71 946.691C1009.77 978.475 943.993 994.272 878.218 994.272H878.044ZM633.041 771.59V826.214C632.867 866.182 657.924 904.057 703.514 932.797C799.914 993.701 956.347 993.701 1052.23 932.797C1096.95 904.438 1121.65 866.944 1121.83 827.736V773.113C1109.13 796.713 1088.07 818.22 1059.88 836.111C960.001 899.49 797.13 899.49 696.553 836.111C667.494 817.839 646.091 795.761 633.041 771.59Z" fill="#262830"/>
<path d="M1129.14 717.158L1128.79 827.738C1128.79 868.278 1104.25 908.817 1055.71 939.65C957.74 1001.89 798.349 1001.89 699.686 939.65C650.094 908.246 625.211 867.136 625.385 826.025L625.733 715.445C625.733 756.556 650.442 797.666 700.034 829.07C798.697 891.307 958.088 891.307 1056.05 829.07C1104.78 798.047 1129.14 757.698 1129.14 717.158Z" fill="url(#paint17_linear_125_2)"/>
<path d="M878.044 994.272C812.269 994.272 746.494 978.475 696.205 946.691C645.917 914.906 618.076 872.083 618.25 826.214L618.598 715.634C618.598 711.256 621.904 707.64 625.906 707.64C629.908 707.64 633.215 711.256 633.215 715.634C633.215 755.602 658.272 793.478 703.862 822.217C800.262 883.122 956.695 883.122 1052.57 822.217C1097.29 793.858 1122 756.554 1122.18 717.156C1122.18 712.779 1125.48 709.163 1129.49 709.163C1133.49 709.163 1136.79 712.779 1136.79 717.156L1136.45 827.736C1136.45 873.034 1109.13 915.287 1059.71 946.691C1009.77 978.475 943.993 994.272 878.218 994.272H878.044ZM633.041 771.59V826.214C632.867 866.182 657.924 904.057 703.514 932.797C799.914 993.701 956.347 993.701 1052.23 932.797C1096.95 904.438 1121.65 866.944 1121.83 827.736V773.113C1109.13 796.713 1088.07 818.22 1059.88 836.111C960.001 899.49 797.13 899.49 696.553 836.111C667.494 817.839 646.091 795.761 633.041 771.59Z" fill="#262830"/>
<path d="M1055.01 603.533C1153.67 665.77 1154.19 766.833 1056.23 829.07C958.26 891.307 798.869 891.307 700.206 829.07C601.544 766.833 601.022 665.77 698.988 603.533C796.955 541.296 956.346 541.296 1055.01 603.533Z" fill="white"/>
<path d="M878.391 883.691C812.616 883.691 746.841 867.894 696.552 836.11C646.438 804.325 618.597 761.692 618.597 716.013C618.597 670.525 645.742 628.273 695.334 596.678C795.215 533.299 958.086 533.109 1058.66 596.678C1108.78 628.463 1136.62 671.096 1136.62 716.775C1136.62 762.263 1109.47 804.515 1059.88 836.11C1009.94 867.894 944.34 883.691 878.391 883.691ZM876.825 564.894C813.66 564.894 750.669 580.12 702.643 610.572C657.749 639.121 633.039 676.616 633.213 716.013C633.213 755.792 658.271 793.476 703.861 822.216C800.261 883.12 956.694 883.12 1052.57 822.216C1097.47 793.667 1122.18 756.172 1122.18 716.775C1122.18 676.996 1097.12 639.312 1051.53 610.572C1003.33 580.12 940.163 564.894 876.999 564.894H876.825Z" fill="#262830"/>
<path d="M1527.97 1458.86L1527.62 1569.44C1527.62 1609.98 1503.08 1650.51 1454.53 1681.35C1356.57 1743.58 1197.18 1743.58 1098.51 1681.35C1048.92 1649.94 1024.04 1608.83 1024.21 1567.72L1024.56 1457.14C1024.56 1498.25 1049.27 1539.36 1098.86 1570.77C1197.52 1633 1356.92 1633 1454.88 1570.77C1503.6 1539.74 1527.97 1499.4 1527.97 1458.86Z" fill="#D6E4F9"/>
<path d="M1276.87 1735.97C1211.1 1735.97 1145.32 1720.18 1095.03 1688.39C1044.57 1656.61 1016.9 1613.78 1017.08 1567.92L1017.43 1457.34C1017.43 1452.96 1020.73 1449.34 1024.73 1449.34C1028.74 1449.34 1032.04 1452.96 1032.04 1457.34C1032.04 1497.3 1057.1 1535.18 1102.69 1563.92C1199.09 1624.82 1355.52 1624.82 1451.4 1563.92C1496.12 1535.56 1520.83 1498.07 1521 1458.86C1521 1454.48 1524.31 1450.86 1528.31 1450.86C1532.31 1450.86 1535.62 1454.48 1535.62 1458.86L1535.27 1569.44C1535.27 1614.74 1507.95 1656.99 1458.54 1688.39C1408.59 1720.18 1342.99 1735.97 1277.04 1735.97H1276.87ZM1031.69 1513.29V1567.92C1031.52 1607.88 1056.58 1645.76 1102.17 1674.5C1198.57 1735.4 1355 1735.4 1450.88 1674.5C1495.6 1646.14 1520.31 1608.65 1520.48 1569.44V1514.81C1507.78 1538.41 1486.72 1559.73 1458.54 1577.81C1358.65 1641.19 1195.78 1641.19 1095.21 1577.81C1066.15 1559.54 1044.74 1537.46 1031.69 1513.48V1513.29Z" fill="#262830"/>
<path d="M1527.97 1458.86L1527.62 1569.44C1527.62 1609.98 1503.08 1650.51 1454.53 1681.35C1356.57 1743.58 1197.18 1743.58 1098.51 1681.35C1048.92 1649.94 1024.04 1608.83 1024.21 1567.72L1024.56 1457.14C1024.56 1498.25 1049.27 1539.36 1098.86 1570.77C1197.52 1633 1356.92 1633 1454.88 1570.77C1503.6 1539.74 1527.97 1499.4 1527.97 1458.86Z" fill="url(#paint18_linear_125_2)"/>
<path d="M1276.87 1735.97C1211.1 1735.97 1145.32 1720.18 1095.03 1688.39C1044.57 1656.61 1016.9 1613.78 1017.08 1567.92L1017.43 1457.34C1017.43 1452.96 1020.73 1449.34 1024.73 1449.34C1028.74 1449.34 1032.04 1452.96 1032.04 1457.34C1032.04 1497.3 1057.1 1535.18 1102.69 1563.92C1199.09 1624.82 1355.52 1624.82 1451.4 1563.92C1496.12 1535.56 1520.83 1498.07 1521 1458.86C1521 1454.48 1524.31 1450.86 1528.31 1450.86C1532.31 1450.86 1535.62 1454.48 1535.62 1458.86L1535.27 1569.44C1535.27 1614.74 1507.95 1656.99 1458.54 1688.39C1408.59 1720.18 1342.99 1735.97 1277.04 1735.97H1276.87ZM1031.69 1513.29V1567.92C1031.52 1607.88 1056.58 1645.76 1102.17 1674.5C1198.57 1735.4 1355 1735.4 1450.88 1674.5C1495.6 1646.14 1520.31 1608.65 1520.48 1569.44V1514.81C1507.78 1538.41 1486.72 1559.73 1458.54 1577.81C1358.65 1641.19 1195.78 1641.19 1095.21 1577.81C1066.15 1559.54 1044.74 1537.46 1031.69 1513.48V1513.29Z" fill="#262830"/>
<path d="M1453.66 1345.23C1552.33 1407.47 1552.85 1508.53 1454.88 1570.77C1356.92 1633.01 1197.52 1633.01 1098.86 1570.77C1000.2 1508.53 999.677 1407.47 1097.64 1345.23C1195.61 1283 1355 1283 1453.66 1345.23Z" fill="white"/>
<path d="M1277.04 1625.39C1211.27 1625.39 1145.49 1609.59 1095.2 1577.81C1045.09 1546.02 1017.25 1503.39 1017.25 1457.71C1017.25 1412.22 1044.39 1369.97 1093.99 1338.38C1193.87 1275 1356.74 1274.81 1457.31 1338.38C1507.43 1370.16 1535.27 1412.8 1535.27 1458.47C1535.27 1503.96 1508.13 1546.22 1458.53 1577.81C1408.59 1609.59 1342.82 1625.39 1277.04 1625.39ZM1275.48 1306.59C1212.31 1306.59 1149.32 1321.82 1101.29 1352.27C1056.4 1380.82 1031.69 1418.32 1031.87 1457.71C1031.87 1497.49 1056.92 1535.18 1102.51 1563.92C1198.91 1624.82 1355.35 1624.82 1451.22 1563.92C1496.12 1535.37 1520.83 1497.87 1520.83 1458.47C1520.83 1418.7 1495.77 1381.01 1450.18 1352.27C1401.98 1321.82 1338.82 1306.59 1275.65 1306.59H1275.48Z" fill="#262830"/>
<path d="M1587.13 1312.49L1586.78 1423.07C1586.78 1463.61 1562.24 1504.15 1513.7 1534.99C1415.73 1597.22 1256.34 1597.22 1157.68 1534.99C1108.08 1503.58 1083.2 1462.47 1083.37 1421.36L1083.72 1310.78C1083.72 1351.89 1108.43 1393 1158.02 1424.41C1256.69 1486.64 1416.08 1486.64 1514.04 1424.41C1562.77 1393.38 1587.13 1353.03 1587.13 1312.49Z" fill="#D6E4F9"/>
<path d="M1336.03 1589.61C1270.26 1589.61 1204.48 1573.81 1154.2 1542.03C1103.91 1510.24 1076.07 1467.42 1076.24 1421.55L1076.59 1310.97C1076.59 1306.6 1079.89 1302.98 1083.9 1302.98C1087.9 1302.98 1091.2 1306.6 1091.2 1310.97C1091.2 1350.94 1116.26 1388.82 1161.85 1417.56C1258.25 1478.46 1414.69 1478.46 1510.56 1417.56C1555.28 1389.2 1579.99 1351.89 1580.17 1312.5C1580.17 1308.12 1583.47 1304.5 1587.48 1304.5C1591.48 1304.5 1594.78 1308.12 1594.78 1312.5L1594.44 1423.08C1594.44 1468.37 1567.12 1510.63 1517.7 1542.03C1467.76 1573.81 1401.98 1589.61 1336.21 1589.61H1336.03ZM1091.03 1366.93V1421.55C1090.86 1461.52 1115.91 1499.4 1161.5 1528.14C1257.9 1589.04 1414.34 1589.04 1510.22 1528.14C1554.94 1499.78 1579.64 1462.28 1579.82 1423.08V1368.45C1567.12 1392.05 1546.06 1413.37 1517.87 1431.45C1417.99 1494.83 1255.12 1495.02 1154.54 1431.45C1125.48 1413.18 1104.08 1391.1 1091.03 1366.93Z" fill="#262830"/>
<path d="M1587.13 1312.49L1586.78 1423.07C1586.78 1463.61 1562.24 1504.15 1513.7 1534.99C1415.73 1597.22 1256.34 1597.22 1157.68 1534.99C1108.08 1503.58 1083.2 1462.47 1083.37 1421.36L1083.72 1310.78C1083.72 1351.89 1108.43 1393 1158.02 1424.41C1256.69 1486.64 1416.08 1486.64 1514.04 1424.41C1562.77 1393.38 1587.13 1353.03 1587.13 1312.49Z" fill="url(#paint19_linear_125_2)"/>
<path d="M1336.03 1589.61C1270.26 1589.61 1204.48 1573.81 1154.2 1542.03C1103.91 1510.24 1076.07 1467.42 1076.24 1421.55L1076.59 1310.97C1076.59 1306.6 1079.89 1302.98 1083.9 1302.98C1087.9 1302.98 1091.2 1306.6 1091.2 1310.97C1091.2 1350.94 1116.26 1388.82 1161.85 1417.56C1258.25 1478.46 1414.69 1478.46 1510.56 1417.56C1555.28 1389.2 1579.99 1351.89 1580.17 1312.5C1580.17 1308.12 1583.47 1304.5 1587.48 1304.5C1591.48 1304.5 1594.78 1308.12 1594.78 1312.5L1594.44 1423.08C1594.44 1468.37 1567.12 1510.63 1517.7 1542.03C1467.76 1573.81 1401.98 1589.61 1336.21 1589.61H1336.03ZM1091.03 1366.93V1421.55C1090.86 1461.52 1115.91 1499.4 1161.5 1528.14C1257.9 1589.04 1414.34 1589.04 1510.22 1528.14C1554.94 1499.78 1579.64 1462.28 1579.82 1423.08V1368.45C1567.12 1392.05 1546.06 1413.37 1517.87 1431.45C1417.99 1494.83 1255.12 1495.02 1154.54 1431.45C1125.48 1413.18 1104.08 1391.1 1091.03 1366.93Z" fill="#262830"/>
<path d="M1512.82 1199.06C1611.49 1261.3 1612.01 1362.36 1514.04 1424.6C1416.08 1486.84 1256.68 1486.84 1158.02 1424.6C1059.36 1362.36 1058.84 1261.3 1156.8 1199.06C1254.77 1136.82 1414.16 1136.82 1512.82 1199.06Z" fill="white"/>
<path d="M1336.21 1479.04C1270.43 1479.04 1204.66 1463.24 1154.37 1431.45C1104.25 1399.67 1076.41 1357.04 1076.41 1311.36C1076.41 1265.87 1103.56 1223.62 1153.15 1192.02C1253.03 1128.64 1415.9 1128.45 1516.48 1192.02C1566.59 1223.81 1594.43 1266.44 1594.43 1312.12C1594.43 1357.61 1567.29 1399.86 1517.7 1431.45C1467.76 1463.24 1401.98 1479.04 1336.21 1479.04ZM1334.64 1160.24C1271.48 1160.24 1208.48 1175.46 1160.46 1205.92C1115.56 1234.47 1090.86 1271.96 1091.03 1311.36C1091.03 1351.14 1116.09 1388.82 1161.68 1417.56C1258.08 1478.46 1414.51 1478.46 1510.39 1417.56C1555.28 1389.01 1579.99 1351.52 1579.99 1312.12C1579.99 1272.34 1554.93 1234.66 1509.34 1205.92C1461.14 1175.46 1397.98 1160.24 1334.81 1160.24H1334.64Z" fill="#262830"/>
<path d="M1412.25 1290.8L1439.39 1281.09L1414.69 1256.92L1387.71 1266.44C1377.45 1258.64 1366.66 1253.12 1355.52 1249.88C1339.34 1245.12 1323.85 1245.5 1309.06 1250.83C1301.41 1253.5 1295.66 1257.3 1292.01 1261.68C1288.36 1266.25 1286.62 1271.39 1286.96 1277.29C1287.31 1283.19 1289.57 1289.47 1293.58 1296.32L1305.41 1315.16C1308.19 1319.73 1309.41 1323.54 1308.71 1326.96C1308.19 1330.2 1306.1 1332.48 1302.62 1333.62C1297.93 1335.34 1292.36 1335.15 1286.27 1333.05C1280.18 1330.96 1274.78 1327.72 1270.43 1322.97C1265.56 1318.02 1263.12 1313.26 1263.12 1309.26C1263.12 1305.08 1264.69 1301.65 1267.65 1298.79L1229.54 1274.81C1223.97 1278.24 1220.67 1283 1219.45 1289.47C1218.23 1295.94 1219.45 1303.17 1222.93 1311.17C1224.67 1314.97 1226.93 1318.78 1229.54 1322.59L1196.83 1334.2L1221.54 1358.37L1254.25 1346.76C1259.47 1350.56 1264.69 1353.99 1270.26 1356.65C1280.7 1361.98 1291.31 1365.03 1301.93 1366.17C1312.54 1367.31 1322.64 1366.17 1332.38 1362.55C1343.17 1358.75 1350.13 1352.47 1353.09 1344.09C1356.05 1335.72 1354.13 1326.01 1347.17 1315.16L1335.69 1296.13C1333.25 1291.94 1332.03 1288.33 1332.21 1285.28C1332.38 1282.24 1334.29 1280.14 1338.12 1278.81C1343.17 1276.91 1348.56 1276.91 1353.96 1278.62C1359.53 1280.33 1364.57 1283.57 1369.44 1288.14C1374.32 1292.89 1376.58 1297.27 1376.4 1301.46C1376.23 1305.65 1374.66 1308.88 1371.88 1311.17L1409.99 1334.77C1415.56 1329.44 1419.04 1323.92 1420.25 1317.83C1421.47 1311.74 1420.6 1305.46 1417.3 1298.79C1415.9 1296.13 1413.99 1293.28 1412.08 1290.42L1412.25 1290.8Z" fill="#262830"/>
<path d="M965.57 713.539L992.716 703.832L968.006 679.661L941.035 689.177C930.769 681.374 919.98 675.854 908.844 672.619C892.661 667.861 877.174 668.241 862.384 673.57C854.727 676.235 848.985 680.042 845.331 684.419C841.677 688.987 839.937 694.126 840.285 700.026C840.633 705.926 842.895 712.207 846.897 719.059L858.729 737.901C861.514 742.469 862.732 746.275 862.036 749.701C861.514 752.937 859.425 755.221 855.945 756.363C851.247 758.076 845.679 757.885 839.589 755.792C833.498 753.698 828.104 750.463 823.754 745.704C818.882 740.756 816.445 735.998 816.445 732.001C816.445 727.814 818.012 724.388 820.97 721.533L782.862 697.552C777.294 700.978 773.988 705.736 772.769 712.207C771.551 718.678 772.769 725.91 776.25 733.904C777.99 737.711 780.252 741.517 782.862 745.324L750.148 756.934L774.858 781.105L807.571 769.495C812.791 773.302 818.012 776.728 823.58 779.392C834.02 784.721 844.635 787.767 855.249 788.909C865.864 790.051 875.956 788.909 885.701 785.292C896.489 781.486 903.449 775.205 906.408 766.831C909.366 758.456 907.452 748.75 900.491 737.901L889.007 718.868C886.571 714.681 885.353 711.065 885.527 708.02C885.701 704.974 887.615 702.881 891.443 701.549C896.489 699.645 901.883 699.645 907.278 701.358C912.846 703.071 917.892 706.307 922.764 710.875C927.637 715.633 929.899 720.01 929.725 724.197C929.551 728.385 927.985 731.62 925.2 733.904L963.308 757.505C968.876 752.175 972.357 746.656 973.575 740.566C974.793 734.475 973.923 728.194 970.617 721.533C969.224 718.868 967.31 716.013 965.396 713.158L965.57 713.539Z" fill="#262830"/>
<path d="M1347.17 273.122L1374.32 263.416L1349.61 239.244L1322.64 248.761C1312.37 240.957 1301.58 235.438 1290.44 232.202C1274.26 227.444 1258.77 227.825 1243.98 233.154C1236.33 235.818 1230.59 239.625 1226.93 244.002C1223.28 248.57 1221.54 253.709 1221.89 259.609C1222.23 265.509 1224.5 271.79 1228.5 278.642L1240.33 297.484C1243.11 302.052 1244.33 305.859 1243.64 309.284C1243.11 312.52 1241.03 314.804 1237.55 315.946C1232.85 317.659 1227.28 317.469 1221.19 315.375C1215.1 313.281 1209.7 310.046 1205.35 305.288C1200.48 300.339 1198.05 295.581 1198.05 291.584C1198.05 287.397 1199.61 283.971 1202.57 281.116L1164.46 257.135C1158.89 260.561 1155.59 265.319 1154.37 271.79C1153.15 278.261 1154.37 285.494 1157.85 293.487C1159.59 297.294 1161.85 301.1 1164.46 304.907L1131.75 316.517L1156.46 340.688L1189.17 329.078C1194.39 332.885 1199.61 336.311 1205.18 338.975C1215.62 344.305 1226.24 347.35 1236.85 348.492C1247.46 349.634 1257.56 348.492 1267.3 344.876C1278.09 341.069 1285.05 334.788 1288.01 326.414C1290.97 318.04 1289.05 308.333 1282.09 297.484L1270.61 278.452C1268.17 274.264 1266.95 270.648 1267.13 267.603C1267.3 264.558 1269.39 262.464 1273.04 261.132C1278.09 259.229 1283.48 259.229 1288.88 260.941C1294.45 262.654 1299.49 265.89 1304.36 270.458C1309.24 275.216 1311.5 279.593 1311.33 283.781C1311.15 287.968 1309.59 291.203 1306.8 293.487L1344.91 317.088C1350.48 311.759 1353.96 306.239 1355.18 300.149C1356.39 294.058 1355.52 287.778 1352.22 281.116C1350.83 278.452 1348.91 275.597 1347 272.742L1347.17 273.122Z" fill="#262830"/>
<path d="M602.418 1821.62L814.359 1687.06L814.011 1819.15L602.07 1953.71L602.418 1821.62Z" fill="#B6CCDF"/>
<path d="M602.069 1961.7C600.851 1961.7 599.459 1961.32 598.415 1960.56C596.153 1959.23 594.761 1956.56 594.761 1953.71L595.109 1821.62C595.109 1818.77 596.501 1816.1 598.763 1814.77L810.531 1680.21C812.793 1678.88 815.577 1678.88 817.839 1680.21C820.101 1681.54 821.493 1684.21 821.493 1687.06L824.625 1810.39C824.625 1813.25 823.233 1815.91 820.971 1817.24L605.549 1960.56C604.331 1961.32 603.113 1961.7 601.895 1961.7H602.069ZM609.725 1826.19L609.377 1939.82L806.702 1814.39L807.051 1700.76L609.725 1826.19Z" fill="#262830"/>
<path d="M807.397 1472.57C793.128 1472.95 770.507 1463.24 739.534 1443.83C702.122 1420.23 658.794 1383.87 609.376 1334.58C597.543 1322.78 586.059 1310.79 574.574 1298.8C570.746 1294.8 567.266 1290.8 563.438 1286.81C555.955 1278.62 548.299 1270.44 540.991 1262.25C536.64 1257.5 532.464 1252.55 528.114 1247.6C521.502 1239.99 515.063 1232.56 508.625 1224.95C504.275 1219.62 499.925 1214.29 495.575 1209.15C487.744 1199.64 479.914 1190.12 472.257 1180.41L260.49 1315.16C264.144 1319.92 267.798 1324.49 271.626 1329.06C275.628 1334.01 279.805 1338.96 283.807 1343.71C288.157 1349.04 292.507 1354.37 296.857 1359.51C303.296 1367.12 309.908 1374.74 316.52 1382.16C320.697 1387.11 325.047 1391.87 329.223 1396.82C336.531 1405 344.188 1413.18 351.67 1421.37C355.324 1425.36 358.978 1429.36 362.806 1433.36C374.291 1445.35 385.775 1457.34 397.608 1469.14C447.026 1518.43 490.354 1554.79 527.766 1578.39C558.565 1597.8 581.186 1607.51 595.629 1607.13C599.805 1607.13 603.285 1605.98 606.244 1604.27L818.011 1469.52C815.053 1471.42 811.573 1472.38 807.397 1472.38V1472.57Z" fill="white"/>
<path d="M594.934 1615.12C579.099 1615.12 555.956 1605.41 524.113 1585.23C486.353 1561.44 442.155 1524.33 392.737 1475.04C380.904 1463.23 369.246 1451.24 357.761 1439.06C355.325 1436.59 353.063 1433.92 350.627 1431.45L346.625 1427.07C338.968 1418.89 331.486 1410.7 324.004 1402.52C321.046 1399.09 318.087 1395.86 315.129 1392.43L311.127 1387.87C304.515 1380.25 297.902 1372.64 291.464 1365.03C287.81 1360.65 284.156 1356.27 280.502 1351.89L273.889 1343.9C271.279 1340.85 268.669 1337.62 266.059 1334.38C262.231 1329.82 258.577 1325.06 254.922 1320.3C253.53 1318.59 252.834 1316.11 253.356 1313.83C253.704 1311.54 254.922 1309.45 256.837 1308.31L468.604 1173.75C471.562 1171.84 475.565 1172.61 477.827 1175.46C484.787 1184.41 491.921 1192.97 499.056 1201.73L504.45 1208.2C507.582 1212 510.714 1215.81 514.02 1219.62C520.459 1227.23 526.897 1234.65 533.509 1242.27L537.163 1246.45C540.122 1249.88 543.254 1253.3 546.212 1256.73C553.52 1264.91 561.003 1273.1 568.659 1281.09L579.621 1293.08C590.932 1305.07 602.416 1316.87 614.249 1328.67C662.971 1377.21 706.299 1413.56 743.189 1436.97C780.079 1460.19 799.045 1464.76 807.224 1464.76C810.182 1464.76 812.444 1464 814.358 1462.85C817.838 1460.57 822.362 1461.9 824.277 1465.71C826.365 1469.52 825.147 1474.46 821.667 1476.56L609.899 1611.12C605.897 1613.78 601.024 1615.12 595.63 1615.12C595.282 1615.12 595.108 1615.12 594.76 1615.12H594.934ZM271.801 1317.06C273.541 1319.35 275.281 1321.44 277.196 1323.73C279.632 1326.77 282.242 1329.82 284.852 1333.05L291.638 1341.24C295.292 1345.61 298.772 1349.99 302.427 1354.18C308.865 1361.79 315.303 1369.21 321.916 1376.83L325.918 1381.39C328.876 1384.63 331.66 1388.06 334.618 1391.29C341.926 1399.48 349.583 1407.66 357.065 1415.65L368.028 1427.64C379.338 1439.63 390.823 1451.43 402.655 1463.23C451.203 1511.77 494.532 1548.12 531.421 1571.53C568.311 1594.75 587.104 1599.51 595.456 1599.32C598.414 1599.32 600.676 1598.56 602.59 1597.42L790.519 1477.89C776.25 1473.7 758.154 1464.76 735.881 1450.67C698.121 1426.88 653.923 1389.77 604.505 1340.47C592.672 1328.67 581.013 1316.68 569.529 1304.5L558.392 1292.51C550.736 1284.33 543.254 1276.14 535.771 1267.96C532.639 1264.53 529.681 1260.92 526.549 1257.49L522.895 1253.3C516.282 1245.69 509.67 1238.27 503.232 1230.47C499.926 1226.66 496.794 1222.66 493.487 1218.86L488.093 1212.38C482.177 1205.15 476.261 1198.11 470.518 1190.88L271.453 1317.44L271.801 1317.06Z" fill="#262830"/>
<path d="M1041.79 1536.51C1041.79 1535.18 1041.79 1533.85 1041.79 1532.7C1041.44 1526.8 1041.09 1520.9 1040.57 1515.19C1040.57 1514.24 1040.39 1513.29 1040.22 1512.34C1039.7 1507.01 1039 1501.68 1038.31 1496.35C1038.31 1495.4 1037.96 1494.26 1037.96 1493.31C1037.09 1487.6 1036.04 1481.7 1035 1475.99C1034.83 1474.66 1034.48 1473.51 1034.3 1472.18C1033.09 1466.47 1031.87 1460.95 1030.65 1455.24C1030.65 1454.86 1030.65 1454.67 1030.48 1454.29C1029.08 1448.39 1027.34 1442.68 1025.78 1436.97C1025.43 1435.64 1025.08 1434.5 1024.56 1433.16C1022.82 1427.45 1021.08 1421.74 1018.99 1416.03C1018.64 1415.27 1018.47 1414.51 1018.12 1413.75C1016.21 1408.61 1014.29 1403.28 1012.2 1398.14C1011.86 1397.38 1011.68 1396.81 1011.33 1396.05C1011.33 1395.67 1010.99 1395.29 1010.81 1394.91C1008.55 1389.2 1005.94 1383.49 1003.33 1377.78C1002.81 1376.64 1002.29 1375.49 1001.76 1374.16C998.98 1368.26 996.196 1362.36 993.238 1356.65C990.802 1351.89 988.366 1347.33 985.582 1342.57C984.712 1341.05 984.016 1339.71 983.145 1338.19C981.231 1334.76 979.317 1331.34 977.229 1327.91C976.359 1326.39 975.315 1324.68 974.445 1323.15C972.183 1319.35 969.747 1315.54 967.311 1311.74C966.615 1310.59 965.919 1309.45 965.223 1308.31C962.091 1303.36 958.784 1298.22 955.304 1293.27C954.434 1292.13 953.564 1290.8 952.868 1289.66C950.258 1285.66 947.474 1281.85 944.69 1277.86C943.472 1276.14 942.254 1274.43 941.036 1272.72C938.425 1268.91 935.641 1265.3 932.857 1261.49C931.639 1259.97 930.595 1258.25 929.377 1256.73C925.375 1251.4 921.373 1246.07 917.196 1240.74C917.196 1240.74 917.022 1240.36 916.848 1240.36C912.846 1235.03 908.67 1229.89 904.32 1224.57C903.798 1223.99 903.45 1223.42 902.928 1222.85C902.232 1221.9 901.362 1220.95 900.492 1220C896.664 1215.24 892.661 1210.29 888.659 1205.53C887.441 1204.01 886.223 1202.49 885.005 1200.97C879.959 1194.87 874.739 1188.78 869.344 1182.69C868.3 1181.55 867.256 1180.41 866.386 1179.27C861.862 1174.13 857.164 1168.8 852.466 1163.47C850.899 1161.76 849.333 1160.04 847.767 1158.33C842.025 1152.05 836.109 1145.58 830.192 1139.11C792.781 1099.52 763.721 1066.98 742.666 1041.66C739.708 1038.24 736.924 1034.81 734.314 1031.38C732.574 1029.1 730.834 1027.01 729.268 1024.91C728.92 1024.34 728.398 1023.77 728.05 1023.39C725.962 1020.73 724.048 1018.06 722.134 1015.59C721.612 1014.83 721.089 1014.25 720.567 1013.68C719.175 1011.78 717.783 1010.07 716.565 1008.35C715.869 1007.59 715.347 1006.64 714.825 1005.88C713.781 1004.36 712.737 1002.83 711.693 1001.5C711.171 1000.55 710.475 999.79 709.953 999.028C709.083 997.696 708.039 996.364 707.169 995.031C706.647 994.27 706.125 993.509 705.603 992.748C704.733 991.415 703.863 990.083 702.993 988.751C702.645 988.18 702.123 987.418 701.775 986.847C700.557 984.944 699.512 983.041 698.468 981.328C697.25 979.234 696.206 977.331 695.336 975.238C694.988 974.667 694.814 973.905 694.466 973.334C693.77 972.002 693.248 970.67 692.726 969.337C692.552 968.766 692.204 968.195 692.03 967.624C691.334 965.721 690.638 963.628 689.942 961.724C689.768 961.153 689.594 960.582 689.42 959.821C688.724 957.347 688.028 955.063 687.68 952.589C687.68 952.208 687.68 951.827 687.506 951.447C687.158 949.353 686.81 947.259 686.636 945.166C686.636 944.595 686.636 943.834 686.462 943.263C686.288 940.788 686.114 938.504 686.114 936.03C686.114 923.088 689.42 914.714 695.858 910.526L484.091 1045.09C477.652 1049.27 474.346 1057.65 474.346 1070.59C474.346 1073.07 474.346 1075.35 474.694 1077.82C474.694 1078.39 474.694 1079.16 474.868 1079.73C475.042 1081.82 475.39 1083.91 475.738 1086.01C475.738 1086.39 475.738 1086.77 475.912 1087.15C476.434 1089.62 476.956 1091.91 477.652 1094.38C477.826 1094.95 478 1095.52 478.174 1096.29C478.87 1098.19 479.566 1100.28 480.262 1102.19C480.262 1102.57 480.436 1102.95 480.61 1103.33C480.61 1103.52 480.784 1103.71 480.958 1103.9C481.481 1105.23 482.177 1106.56 482.699 1107.9C483.047 1108.47 483.221 1109.23 483.569 1109.8C484.613 1111.89 485.657 1113.8 486.701 1115.89C487.745 1117.6 488.789 1119.51 490.007 1121.41C490.355 1121.98 490.877 1122.74 491.225 1123.31C492.095 1124.64 492.965 1125.98 493.835 1127.5C494.357 1128.26 494.879 1129.02 495.401 1129.78C496.271 1131.12 497.141 1132.45 498.185 1133.78C498.707 1134.54 499.403 1135.49 499.925 1136.44C500.969 1137.97 502.013 1139.3 503.057 1140.82C503.754 1141.58 504.276 1142.53 504.972 1143.3C506.19 1145.01 507.582 1146.72 508.974 1148.63C509.496 1149.39 510.018 1149.96 510.54 1150.72C512.454 1153.19 514.368 1155.86 516.456 1158.52C516.804 1159.09 517.326 1159.66 517.848 1160.24C519.24 1161.95 520.632 1163.85 522.198 1165.75C522.372 1165.95 522.72 1166.33 522.894 1166.52C525.505 1169.94 528.289 1173.18 531.247 1176.79C552.302 1202.3 581.535 1234.65 618.773 1274.24C624.863 1280.71 630.605 1287.18 636.348 1293.46C637.914 1295.18 639.48 1296.89 641.046 1298.6C645.744 1303.93 650.442 1309.07 654.966 1314.4C656.01 1315.54 657.055 1316.68 658.099 1317.83C663.493 1323.92 668.713 1330.2 673.759 1336.1C674.977 1337.62 676.195 1339.14 677.413 1340.67C681.416 1345.61 685.418 1350.37 689.246 1355.13C690.464 1356.65 691.682 1358.18 693.074 1359.7C697.424 1365.03 701.601 1370.36 705.603 1375.49C705.603 1375.49 705.777 1375.88 705.951 1375.88C710.127 1381.2 714.129 1386.53 718.131 1391.86C719.349 1393.39 720.393 1395.1 721.612 1396.62C724.396 1400.43 727.18 1404.23 729.79 1407.85C731.008 1409.56 732.226 1411.28 733.444 1412.99C736.228 1416.99 739.012 1420.98 741.622 1424.79C742.492 1425.93 743.362 1427.26 744.059 1428.41C747.365 1433.54 750.671 1438.49 753.977 1443.44C754.673 1444.58 755.369 1445.73 756.065 1446.87C758.501 1450.67 760.937 1454.48 763.199 1458.29C764.243 1459.81 765.114 1461.52 765.984 1463.05C768.072 1466.47 769.986 1469.9 771.9 1473.32C772.77 1474.85 773.64 1476.18 774.336 1477.7C776.946 1482.46 779.556 1487.22 781.992 1491.78C784.95 1497.68 787.909 1503.58 790.519 1509.29C791.041 1510.44 791.563 1511.58 792.085 1512.91C794.695 1518.62 797.131 1524.33 799.567 1530.04C800.089 1531.18 800.437 1532.13 800.785 1533.28C802.873 1538.41 804.787 1543.74 806.701 1548.88C807.049 1549.64 807.223 1550.41 807.571 1551.17C809.486 1556.88 811.4 1562.59 813.14 1568.3C813.488 1569.63 813.836 1570.77 814.358 1572.1C816.098 1577.81 817.664 1583.71 819.056 1589.61C819.056 1589.99 819.056 1590.18 819.23 1590.56C820.622 1596.27 821.84 1601.79 822.884 1607.5C823.058 1608.84 823.406 1609.98 823.58 1611.31C824.624 1617.02 825.668 1622.92 826.538 1628.63C826.538 1629.58 826.886 1630.72 826.886 1631.67C827.582 1637 828.278 1642.33 828.8 1647.66C828.8 1648.61 828.974 1649.57 829.148 1650.52C829.67 1656.42 830.018 1662.13 830.367 1668.03C830.367 1669.36 830.367 1670.69 830.367 1671.83C830.541 1677.92 830.715 1683.82 830.715 1689.91C830.541 1765.47 811.574 1815.15 773.988 1839.13L985.756 1704.57C1023.34 1680.59 1042.31 1630.91 1042.48 1555.35C1042.48 1549.26 1042.48 1543.36 1042.13 1537.27L1041.79 1536.51Z" fill="#B6CCDF"/>
<path d="M773.641 1846.36C771.205 1846.36 768.769 1844.84 767.377 1842.37C765.289 1838.56 766.507 1833.61 769.987 1831.52C804.962 1809.25 822.711 1761.29 822.885 1689.15C822.885 1683.25 822.885 1677.35 822.537 1671.45V1667.65C822.015 1661.94 821.667 1656.23 821.145 1650.52L820.797 1647.85C820.275 1642.52 819.579 1637.38 818.883 1632.25L825.669 1627.87L818.535 1629.2C817.665 1623.49 816.795 1617.97 815.577 1612.26L814.881 1608.64C813.837 1603.13 812.619 1597.61 811.227 1592.09C809.661 1585.62 808.095 1579.91 806.354 1574.2L805.31 1570.39C803.57 1564.87 801.83 1559.35 799.916 1553.64L805.832 1548.5L799.046 1551.36C797.306 1546.22 795.218 1541.08 793.304 1536.13L792.086 1532.89C789.824 1527.18 787.388 1521.67 784.777 1515.96L783.211 1512.53C780.601 1506.82 777.817 1500.92 774.859 1495.21C772.423 1490.64 769.987 1485.88 767.377 1481.32L765.637 1478.08C763.201 1473.7 761.112 1470.28 759.198 1466.85L756.414 1462.09C754.152 1458.29 751.89 1454.67 749.454 1450.86L747.366 1447.44C744.234 1442.68 741.101 1437.54 737.621 1432.59L735.185 1428.98C732.575 1425.17 729.791 1421.17 727.007 1417.18L723.353 1412.04C720.743 1408.42 717.958 1404.61 715.348 1400.81L711.868 1396.05C707.866 1390.72 704.038 1385.39 699.862 1380.06C695.511 1374.35 691.335 1369.21 687.159 1363.88L683.505 1359.32C679.677 1354.56 675.674 1349.61 671.672 1344.85L668.018 1340.28C662.972 1334.19 657.752 1328.29 652.531 1322.01L649.399 1318.59C644.875 1313.45 640.351 1308.12 635.653 1302.98L630.954 1297.84C625.212 1291.56 619.47 1285.09 613.38 1278.62C576.142 1239.22 546.561 1206.29 525.506 1180.79L511.933 1164.04L510.541 1162.33L489.66 1133.78L488.616 1132.26L484.962 1126.55L483.744 1124.64C482.526 1122.55 481.308 1120.65 480.264 1118.74C479.045 1116.65 478.001 1114.37 476.957 1112.27L476.087 1110.18C475.391 1108.66 474.695 1107.32 474.173 1105.8C474.173 1105.8 473.477 1104.09 473.477 1103.9C472.607 1101.8 471.911 1099.52 471.215 1097.43C471.215 1097.43 470.519 1095.52 470.519 1095.33C469.823 1092.67 469.127 1090.19 468.605 1087.53C467.909 1083.91 467.561 1081.63 467.387 1079.35V1077.25C466.865 1074.4 466.691 1071.73 466.691 1069.07C466.691 1053.27 471.215 1042.42 480.09 1036.71L691.857 901.961C695.337 899.677 699.862 901.009 701.776 904.816C703.864 908.622 702.646 913.571 699.166 915.664C695.163 918.329 693.075 924.61 693.075 934.316C693.075 936.41 693.075 938.694 693.423 940.788V942.501C693.771 944.213 694.119 946.117 694.467 948.02C695.163 951.256 695.685 953.349 696.207 955.633C697.251 959.059 697.948 960.962 698.644 962.675L700.906 968.004L695.337 973.524L701.776 969.717C702.646 971.621 703.69 973.524 704.734 975.427C705.778 977.14 706.822 978.853 707.866 980.756L726.311 1007.4L722.135 1014.44L727.703 1009.31L733.619 1017.11L729.269 1023.77L734.837 1018.63L739.883 1025.1C742.494 1028.34 745.278 1031.76 748.236 1035.19C769.117 1060.31 798.35 1093.05 835.414 1132.26C841.504 1138.73 847.42 1145.2 853.163 1151.67L857.861 1157C862.559 1162.33 867.257 1167.66 871.781 1172.8L874.914 1176.22C880.308 1182.5 885.528 1188.59 890.574 1194.68L894.403 1199.25C898.405 1204.2 902.407 1208.96 906.409 1213.91L908.671 1216.76L910.063 1218.47C914.413 1223.8 918.59 1229.13 922.592 1234.46C927.116 1240.36 931.118 1245.69 935.12 1251.02L960.352 1286.61C964.702 1293.27 968.008 1298.22 971.314 1303.36L972.532 1305.26C975.838 1310.59 978.274 1314.59 980.536 1318.4L983.495 1323.34C985.583 1326.77 987.497 1330.39 989.585 1333.81L992.021 1338.38C994.631 1343.14 997.241 1347.9 999.677 1352.66C1002.81 1358.56 1005.59 1364.65 1008.38 1370.55L1009.94 1374.16C1012.55 1380.06 1015.16 1385.96 1017.43 1391.67L1018.47 1394.34C1020.73 1400.24 1022.82 1405.38 1024.73 1410.7L1025.6 1413.18C1027.69 1418.89 1029.43 1424.79 1031.35 1430.69L1032.56 1434.5C1034.3 1440.59 1035.87 1446.49 1037.44 1452.39C1039 1459.05 1040.22 1464.76 1041.44 1470.47L1042.14 1474.27C1043.35 1480.17 1044.22 1486.07 1045.09 1491.97C1045.09 1491.97 1045.44 1495.21 1045.62 1495.21C1046.31 1500.54 1047.01 1506.06 1047.53 1511.39L1047.88 1514.24C1048.4 1520.14 1048.92 1526.23 1049.1 1532.13V1535.94L1041.96 1536.51L1049.27 1536.13C1049.44 1542.22 1049.62 1548.5 1049.62 1554.59C1049.44 1632.82 1029.08 1685.35 989.237 1710.66L777.469 1845.22C776.251 1845.98 775.033 1846.36 773.815 1846.36H773.641ZM522.722 1153.38L535.946 1169.75C556.827 1194.87 586.06 1227.61 623.124 1266.82C629.214 1273.29 635.131 1279.76 640.873 1286.23L645.571 1291.56C650.269 1296.89 654.968 1302.03 659.492 1307.36L662.624 1310.78C668.018 1317.06 673.238 1323.15 678.459 1329.24L682.287 1333.81C686.289 1338.76 690.291 1343.52 694.293 1348.47L698.122 1353.04C702.472 1358.36 706.648 1363.88 710.65 1369.02C715.174 1374.92 719.351 1380.25 723.179 1385.58L726.659 1390.34C729.443 1394.15 732.227 1397.95 734.837 1401.76L738.491 1406.9C741.275 1410.9 744.06 1414.89 746.844 1418.89L749.28 1422.5C752.76 1427.64 756.066 1432.78 759.198 1437.73L761.46 1441.35C763.897 1445.15 766.333 1449.15 768.595 1452.96L771.553 1457.91C773.641 1461.33 775.555 1464.95 777.643 1468.37L780.079 1472.75C782.689 1477.51 785.3 1482.46 787.736 1487.22C790.868 1493.12 793.652 1499.21 796.436 1505.11L798.002 1508.53C800.612 1514.43 803.222 1520.14 805.484 1526.04L806.354 1528.33C808.791 1534.61 810.879 1539.94 812.793 1545.27L813.663 1547.55C815.751 1553.26 817.491 1559.16 819.405 1565.06L820.623 1569.06C822.363 1574.96 823.929 1580.86 825.495 1586.76C827.061 1593.42 828.279 1599.13 829.498 1604.84L830.194 1608.64C831.412 1614.54 832.282 1620.44 833.152 1626.35L833.674 1629.58C834.37 1634.91 835.066 1640.43 835.588 1645.95L835.936 1648.8C836.458 1654.7 836.98 1660.79 837.154 1666.69V1670.69C837.502 1676.78 837.676 1682.87 837.676 1689.15C837.676 1736.54 830.02 1774.42 815.403 1802.59L981.929 1696.77C1016.9 1674.5 1034.83 1626.54 1035 1554.4C1035 1548.5 1035 1542.6 1034.65 1536.7V1532.89C1034.3 1527.18 1033.96 1521.47 1033.43 1515.77V1513.29C1032.56 1507.77 1032.04 1502.44 1031.35 1497.3L1031 1494.26C1030.13 1488.55 1029.26 1483.03 1028.04 1477.32L1027.34 1473.7C1026.3 1468.18 1025.08 1462.66 1023.69 1457.14C1022.12 1450.67 1020.56 1444.96 1018.82 1439.25L1017.6 1435.45C1015.86 1429.93 1014.12 1424.41 1012.21 1418.89L1011.34 1416.6C1009.6 1411.47 1007.51 1406.33 1005.59 1401.38L1004.72 1399.09C1002.11 1392.62 999.677 1387.1 997.067 1381.39L995.501 1377.97C992.891 1372.26 990.107 1366.36 987.149 1360.65C984.713 1356.08 982.277 1351.32 979.666 1346.75L977.23 1342.38C975.316 1339.14 973.402 1335.72 971.314 1332.29L968.53 1327.53C966.268 1323.73 963.832 1319.92 961.57 1316.11L959.481 1312.69C956.349 1307.74 953.043 1302.79 949.737 1297.84L923.984 1261.3C920.156 1256.16 916.154 1250.83 911.977 1245.31C907.627 1239.6 903.451 1234.46 899.275 1229.13C899.275 1229.13 898.231 1227.61 898.057 1227.61L895.621 1224.56C891.618 1219.81 887.79 1214.86 883.788 1210.1L880.134 1205.53C875.088 1199.44 869.867 1193.35 864.647 1187.26L861.689 1183.84C857.165 1178.7 852.467 1173.37 847.768 1168.23L843.07 1163.09C837.328 1156.81 831.586 1150.34 825.495 1143.87C788.258 1104.47 758.676 1071.54 737.621 1046.04C734.663 1042.42 731.879 1039 729.269 1035.76L724.049 1029.29C724.049 1029.29 722.831 1027.77 722.831 1027.58L696.033 989.702C694.815 987.798 693.597 985.705 692.553 983.992C691.335 981.898 690.291 979.614 689.247 977.521C689.247 977.521 688.377 975.427 688.203 975.427L686.289 971.05L685.593 969.146C684.723 967.053 684.027 964.769 683.331 962.675L682.635 960.772C681.939 958.107 681.243 955.443 680.721 952.778C680.025 949.162 679.677 947.068 679.503 944.784V942.691C678.981 939.836 678.807 937.171 678.807 934.507C678.807 932.604 678.807 930.7 678.981 928.987L487.572 1050.61C483.57 1053.27 481.482 1059.36 481.482 1069.26C481.482 1071.35 481.482 1073.64 481.83 1075.73V1077.44C482.178 1079.16 482.526 1081.06 482.874 1082.96C483.57 1086.2 484.092 1088.29 484.614 1090.57C485.658 1094 486.354 1095.71 487.05 1097.62C488.268 1100.47 488.79 1101.8 489.312 1102.95L483.744 1108.66L490.182 1104.85C491.052 1106.75 492.096 1108.66 493.14 1110.56C494.01 1112.27 495.054 1113.99 496.272 1115.89L491.4 1122.17L497.49 1117.6L500.1 1121.6L495.75 1128.64L501.667 1123.88L522.199 1152.05L518.023 1158.9L523.592 1153.76L522.722 1153.38Z" fill="#262830"/>
<path d="M309.91 805.28L521.677 670.719C524.462 669.006 527.42 667.293 530.378 665.961C569.008 647.88 626.778 658.157 703.864 696.603L492.096 831.164C415.011 792.718 357.24 782.441 318.61 800.522C315.652 801.854 312.694 803.567 309.91 805.28Z" fill="white"/>
<path d="M492.095 839.153C491.051 839.153 490.007 838.963 489.137 838.392C414.314 800.897 357.935 790.62 321.567 807.749C318.957 808.891 316.521 810.414 314.085 811.936H313.737V812.126C310.257 814.22 305.733 813.078 303.819 809.272C301.731 805.465 302.949 800.517 306.429 798.423C306.429 798.423 306.777 798.423 306.951 798.042L518.371 663.672C521.503 661.768 524.635 660.055 527.941 658.533C568.833 639.31 627.474 649.397 707.343 689.175C709.779 690.508 711.519 692.982 711.519 696.027C711.519 699.072 710.301 701.737 707.865 703.26L496.097 838.011C495.053 838.772 493.661 839.153 492.443 839.153H492.095ZM361.763 783.768C396.565 783.768 439.545 796.52 491.747 822.214L688.028 697.359C619.643 665.194 567.789 657.01 533.509 672.998C530.725 674.33 528.115 675.662 525.505 677.375L358.457 783.577C359.675 783.577 360.719 783.577 361.937 783.577L361.763 783.768Z" fill="#262830"/>
<path d="M309.91 805.28L521.677 670.719C524.462 669.006 527.42 667.293 530.378 665.961C569.008 647.88 626.778 658.157 703.864 696.603L492.096 831.164C415.011 792.718 357.24 782.441 318.61 800.522C315.652 801.854 312.694 803.567 309.91 805.28Z" fill="white"/>
<path d="M492.095 839.153C491.051 839.153 490.007 838.963 489.137 838.392C414.314 800.897 357.935 790.62 321.567 807.749C318.957 808.891 316.521 810.414 314.085 811.936H313.737V812.126C310.257 814.22 305.733 813.078 303.819 809.272C301.731 805.465 302.949 800.517 306.429 798.423C306.429 798.423 306.777 798.423 306.951 798.042L518.371 663.672C521.503 661.768 524.635 660.055 527.941 658.533C568.833 639.31 627.474 649.397 707.343 689.175C709.779 690.508 711.519 692.982 711.519 696.027C711.519 699.072 710.301 701.737 707.865 703.26L496.097 838.011C495.053 838.772 493.661 839.153 492.443 839.153H492.095ZM361.763 783.768C396.565 783.768 439.545 796.52 491.747 822.214L688.028 697.359C619.643 665.194 567.789 657.01 533.509 672.998C530.725 674.33 528.115 675.662 525.505 677.375L358.457 783.577C359.675 783.577 360.719 783.577 361.937 783.577L361.763 783.768Z" fill="#262830"/>
<path d="M492.444 737.33L704.211 602.578L816.969 673.761L605.027 808.512L492.444 737.33Z" fill="white"/>
<path d="M605.026 816.505C603.808 816.505 602.416 816.125 601.372 815.363L488.615 744.181C486.353 742.849 484.961 740.184 484.961 737.329C484.961 734.474 486.353 731.81 488.615 730.478L700.383 595.916C702.645 594.584 705.429 594.584 707.691 595.916L820.448 667.099C822.71 668.431 824.102 671.096 824.102 673.95C824.102 676.805 822.71 679.47 820.448 680.802L608.68 815.363C607.462 816.125 606.244 816.505 605.026 816.505ZM506.886 737.329L605.026 799.376L802.351 673.95L704.211 611.904L506.886 737.329Z" fill="#262830"/>
<path d="M605.026 808.515L816.968 673.764L816.62 766.263L604.852 901.014L605.026 808.515Z" fill="#B6CCDF"/>
<path d="M604.852 908.814C603.633 908.814 602.415 908.433 601.197 907.672C598.935 906.339 597.543 903.675 597.543 900.82V808.321C597.717 805.466 599.109 802.802 601.371 801.469L813.139 666.908C815.401 665.576 818.185 665.576 820.447 666.908C822.71 668.24 824.102 670.905 824.102 673.76V766.259C823.928 769.114 822.536 771.778 820.273 773.111L608.506 907.672C607.288 908.433 606.07 908.814 604.852 908.814ZM612.334 813.079V887.116L809.311 761.691V687.654L612.334 813.079Z" fill="#262830"/>
<path d="M823.059 1105.99L1034.83 971.24L969.574 1125.4L757.806 1260.16L823.059 1105.99Z" fill="#B6CCDF"/>
<path d="M757.805 1268.15C756.065 1268.15 754.325 1267.39 752.933 1266.06C750.497 1263.78 749.975 1259.97 751.193 1256.73L816.446 1102.57C817.142 1101.05 818.012 1099.9 819.404 1098.95L1031.17 964.391C1033.96 962.678 1037.44 963.059 1039.7 965.343C1042.13 967.627 1042.66 971.433 1041.44 974.669L976.185 1128.83C975.489 1130.36 974.445 1131.5 973.227 1132.45L761.459 1267.01C760.241 1267.77 759.023 1268.15 757.805 1268.15ZM828.801 1111.7L774.162 1240.56L964.005 1119.89L1018.64 991.037L828.801 1111.7Z" fill="#262830"/>
<path d="M604.855 901.011L816.622 766.26C888.836 816.887 961.571 885.214 1034.83 971.242L823.061 1105.8C749.803 1019.78 677.068 951.448 604.855 900.821V901.011Z" fill="white"/>
<path d="M823.06 1113.98C821.145 1113.98 819.057 1113.03 817.665 1111.51C745.104 1026.43 672.195 957.726 600.851 907.861C598.763 906.338 597.371 903.673 597.545 901.009C597.545 898.154 598.937 895.68 601.199 894.347L812.967 759.786C815.403 758.264 818.361 758.264 820.623 759.786C893.011 810.604 966.964 879.883 1040.22 966.101C1041.79 967.814 1042.48 970.288 1042.14 972.762C1041.79 975.236 1040.57 977.33 1038.66 978.472L826.888 1113.03C825.67 1113.79 824.452 1114.17 823.234 1114.17L823.06 1113.98ZM618.774 901.389C686.637 950.494 755.718 1015.78 824.452 1095.9L1023.34 969.526C954.088 889.209 884.658 824.117 816.447 775.774L618.774 901.389Z" fill="#262830"/>
<path d="M604.855 901.011L816.622 766.26C888.836 816.887 961.571 885.214 1034.83 971.242L823.061 1105.8C749.803 1019.78 677.068 951.448 604.855 900.821V901.011Z" fill="white"/>
<path d="M823.06 1113.98C821.145 1113.98 819.057 1113.03 817.665 1111.51C745.104 1026.43 672.195 957.726 600.851 907.861C598.763 906.338 597.371 903.673 597.545 901.009C597.545 898.154 598.937 895.68 601.199 894.347L812.967 759.786C815.403 758.264 818.361 758.264 820.623 759.786C893.011 810.604 966.964 879.883 1040.22 966.101C1041.79 967.814 1042.48 970.288 1042.14 972.762C1041.79 975.236 1040.57 977.33 1038.66 978.472L826.888 1113.03C825.67 1113.79 824.452 1114.17 823.234 1114.17L823.06 1113.98ZM618.774 901.389C686.637 950.494 755.718 1015.78 824.452 1095.9L1023.34 969.526C954.088 889.209 884.658 824.117 816.447 775.774L618.774 901.389Z" fill="#262830"/>
<path d="M605.028 808.513V901.012C677.067 951.639 749.802 1019.97 823.06 1105.99L757.807 1260.16C681.939 1169.37 613.554 1104.66 552.651 1066.22C523.592 1047.94 503.233 1039.38 491.4 1040.9C479.568 1042.42 473.652 1051.75 473.652 1069.07C473.652 1084.11 477.828 1099.33 486.354 1114.37C494.881 1129.59 509.671 1149.96 530.726 1175.27C551.781 1200.78 581.014 1233.13 618.252 1272.72C694.12 1354.37 748.41 1427.27 781.298 1491.22C814.185 1555.17 830.542 1621.21 830.368 1689.16C830.194 1765.86 810.705 1815.91 771.901 1839.32C733.098 1862.73 676.719 1856.83 602.592 1821.62L602.244 1953.71L489.486 1882.53L489.834 1754.44C410.313 1699.62 333.749 1629.01 260.144 1542.22L260.666 1314.97C302.776 1368.64 348.366 1419.84 397.784 1469.14C447.202 1518.43 490.53 1554.78 527.942 1578.38C558.742 1597.8 581.363 1607.51 595.805 1607.12C610.248 1606.74 617.382 1595.7 617.382 1573.82C617.382 1558.78 612.336 1542.79 601.895 1525.66C591.629 1508.54 574.402 1485.89 550.215 1457.34C526.028 1428.79 493.489 1392.25 452.597 1347.71C406.485 1297.08 369.421 1249.5 341.058 1204.96C312.868 1160.43 292.335 1117.41 279.459 1076.3C266.582 1035 260.318 989.704 260.492 940.409C260.666 865.04 280.155 818.41 318.61 800.329C357.24 782.248 415.011 792.525 492.096 830.971V737.14L605.028 808.322V808.513Z" fill="#F96000"/>
<path d="M602.068 1961.7C600.85 1961.7 599.458 1961.32 598.414 1960.56L485.657 1889.38C483.395 1888.05 482.003 1885.38 482.003 1882.53L482.351 1758.82C403.873 1704.19 327.31 1633.2 254.574 1547.55C253.356 1546.03 252.66 1544.13 252.66 1542.03L253.182 1314.78C253.182 1311.36 255.096 1308.5 257.88 1307.36C260.665 1306.22 263.971 1307.17 265.885 1309.64C307.473 1362.55 353.237 1414.13 402.307 1463.05C450.855 1511.58 494.183 1547.93 531.073 1571.34C567.963 1594.56 586.755 1599.32 595.108 1599.13C599.458 1599.13 609.551 1598.75 609.551 1573.82C609.551 1560.49 604.852 1545.65 595.282 1530.04C585.189 1513.29 568.137 1490.64 544.298 1462.86C520.284 1434.5 487.571 1397.76 446.853 1353.42C400.741 1302.79 362.981 1254.26 334.618 1209.53C306.081 1164.42 285.026 1120.46 272.149 1078.78C259.098 1036.91 252.66 990.275 252.66 940.409C252.834 861.995 273.889 812.319 315.303 792.906C354.455 774.635 409.789 783.009 484.265 818.6V737.14C484.439 734.285 485.831 731.621 488.093 730.289C490.355 728.956 493.139 728.956 495.401 730.289L608.158 801.471C610.421 802.803 611.813 805.468 611.813 808.323V896.444C682.808 946.881 755.543 1015.59 827.757 1100.47C829.845 1102.76 830.367 1106.37 828.975 1109.23L763.722 1263.39C762.678 1265.87 760.589 1267.58 758.153 1267.96C755.717 1268.34 753.281 1267.39 751.715 1265.49C676.718 1175.65 608.332 1110.94 548.3 1073.07C514.02 1051.37 498.359 1047.94 491.399 1048.71C487.745 1049.09 480.089 1050.04 480.089 1069.07C480.089 1082.58 483.917 1096.48 491.747 1110.18C499.926 1124.84 514.542 1145.01 535.249 1169.94C556.13 1195.07 585.363 1227.8 622.427 1267.01C698.469 1348.85 753.629 1423.08 786.865 1487.41C820.274 1552.31 837.153 1620.26 836.979 1689.35C836.805 1768.9 815.75 1821.62 774.684 1846.56C735.706 1870.16 680.198 1865.78 609.029 1833.8L608.68 1953.9C608.68 1956.76 607.288 1959.42 605.026 1960.75C603.982 1961.51 602.59 1961.89 601.372 1961.89L602.068 1961.7ZM496.619 1877.96L594.76 1940.01L595.108 1821.62C595.108 1818.96 596.326 1816.48 598.414 1814.96C600.502 1813.44 603.112 1813.25 605.374 1814.39C676.892 1848.46 731.704 1854.55 768.246 1832.47C804.44 1810.58 822.71 1762.43 822.884 1689.16C822.884 1622.92 806.876 1557.64 774.684 1495.21C742.319 1432.21 687.854 1359.32 612.857 1278.43C575.619 1239.03 546.038 1206.11 524.983 1180.6C503.754 1154.91 488.615 1134.16 479.915 1118.56C470.692 1102.19 466.168 1085.44 466.168 1069.07C466.168 1040.14 481.481 1034.05 490.529 1032.91C504.276 1031.2 525.157 1039.57 556.304 1059.36C615.641 1096.86 682.634 1159.67 755.717 1246.07L814.358 1107.71C742.841 1024.34 671.149 957.158 600.85 907.864C598.762 906.341 597.544 903.867 597.544 901.202V813.461L499.577 751.415V831.352C499.403 834.017 498.185 836.681 496.097 838.014C494.009 839.536 491.399 839.727 489.137 838.585C414.314 801.09 357.935 790.813 321.567 807.942C286.07 824.691 267.973 869.227 267.799 940.79C267.799 988.943 273.889 1033.86 286.418 1074.02C298.946 1114.18 319.305 1156.81 346.972 1200.78C374.814 1244.74 412.051 1292.32 457.642 1342.38C498.359 1386.73 531.247 1423.65 555.434 1452.2C579.621 1480.75 597.37 1504.16 607.81 1521.48C618.947 1539.75 624.515 1557.45 624.515 1574.01C624.515 1609.41 606.418 1615.12 595.63 1615.31C595.282 1615.31 595.108 1615.31 594.76 1615.31C578.925 1615.31 555.782 1605.6 523.939 1585.43C486.179 1561.64 441.981 1524.52 392.563 1475.23C348.017 1430.88 306.081 1384.25 267.625 1336.48L267.103 1539.37C339.316 1624.25 415.532 1694.48 493.313 1747.97C495.401 1749.49 496.793 1751.96 496.793 1754.82L496.445 1878.15L496.619 1877.96Z" fill="#262830"/>
<path d="M917.718 408.256L872.65 291.966C871.258 288.35 868.474 285.495 864.993 284.353C861.513 283.211 857.859 283.782 854.727 285.876L788.082 331.935C784.428 334.409 782.34 338.787 782.34 343.545C782.34 347.732 784.254 351.539 787.212 354.013C787.56 354.394 788.082 354.584 788.43 354.965L900.143 425.195C901.883 426.337 903.797 426.908 905.885 426.908C909.017 426.908 911.976 425.957 914.412 423.482C918.414 419.676 919.632 413.585 917.544 408.256H917.718ZM891.443 396.837L808.441 344.497L858.033 310.238L891.617 396.837H891.443Z" fill="#FF6D00"/>
<path d="M1052.92 1741.87L995.848 1851.69C994.108 1855.12 993.76 1859.31 994.978 1862.92C996.196 1866.54 998.806 1869.58 1002.29 1870.92L1076.24 1900.8C1080.24 1902.32 1084.77 1901.56 1088.07 1898.7C1091.03 1896.04 1092.77 1892.23 1092.6 1888.24C1092.6 1887.67 1092.6 1887.09 1092.6 1886.52L1075.72 1746.82C1075.37 1744.54 1074.67 1742.64 1073.63 1740.73C1071.89 1738.07 1069.11 1735.97 1065.97 1735.4C1060.75 1734.26 1055.53 1736.93 1052.92 1741.87ZM1060.58 1771.76L1073.11 1875.67L1018.12 1853.6L1060.58 1771.76Z" fill="#3B53A7"/>
<path d="M720.741 345.257C703.689 345.257 689.942 360.483 689.942 379.135C689.942 397.787 703.863 412.823 720.916 412.823C737.968 412.823 751.715 397.596 751.715 378.944C751.715 360.292 737.794 345.257 720.741 345.257ZM720.741 396.835C711.693 396.835 704.385 388.841 704.385 379.135C704.385 369.428 711.693 361.244 720.568 361.244C729.442 361.244 736.924 369.238 736.924 378.944C736.924 388.651 729.616 396.835 720.741 396.835Z" fill="#3B53A7"/>
<path d="M1423.56 39.4001C1426.34 20.9384 1414.86 3.61868 1398.16 0.573453C1381.45 -2.47178 1365.44 10.0898 1362.66 28.3612C1359.87 46.6326 1371.36 64.1426 1388.06 67.1879C1404.94 70.2331 1420.78 57.6715 1423.56 39.4001ZM1376.93 31.0258C1378.32 21.3191 1386.84 14.848 1395.72 16.3706C1404.59 17.8932 1410.51 27.2192 1409.12 36.9259C1407.73 46.6326 1399.2 53.1037 1390.32 51.5811C1381.45 50.0584 1375.53 40.7324 1376.93 31.0258Z" fill="#3B53A7"/>
<path d="M1196.83 1808.11C1199.61 1789.65 1188.13 1772.33 1171.42 1769.28C1154.54 1766.24 1138.71 1778.8 1135.93 1797.07C1133.14 1815.34 1144.63 1832.85 1161.33 1835.9C1178.21 1838.94 1194.04 1826.38 1196.83 1808.11ZM1150.19 1799.73C1151.59 1790.03 1160.11 1783.56 1168.99 1785.08C1177.86 1786.6 1183.78 1795.93 1182.39 1805.63C1180.99 1815.34 1172.47 1821.81 1163.59 1820.29C1154.72 1818.77 1148.8 1809.44 1150.19 1799.73Z" fill="#32C7E8"/>
<path d="M785.474 478.296C793.546 478.296 800.09 471.138 800.09 462.309C800.09 453.479 793.546 446.321 785.474 446.321C777.401 446.321 770.857 453.479 770.857 462.309C770.857 471.138 777.401 478.296 785.474 478.296Z" fill="#32C7E8"/>
<path d="M1182.56 1933.53C1190.63 1933.53 1197.18 1926.38 1197.18 1917.55C1197.18 1908.72 1190.63 1901.56 1182.56 1901.56C1174.49 1901.56 1167.94 1908.72 1167.94 1917.55C1167.94 1926.38 1174.49 1933.53 1182.56 1933.53Z" fill="#F96000"/>
<path d="M1527.96 162.161C1536.04 162.161 1542.58 155.003 1542.58 146.174C1542.58 137.344 1536.04 130.186 1527.96 130.186C1519.89 130.186 1513.35 137.344 1513.35 146.174C1513.35 155.003 1519.89 162.161 1527.96 162.161Z" fill="#3B53A7"/>
</g>
<defs>
<linearGradient id="paint0_linear_125_2" x1="1666.65" y1="704.403" x2="1642.11" y2="1001.93" gradientUnits="userSpaceOnUse">
<stop stop-color="#32C9EA"/>
<stop offset="1" stop-color="#4671CA"/>
</linearGradient>
<linearGradient id="paint1_linear_125_2" x1="1740.6" y1="710.496" x2="1716.06" y2="1008.22" gradientUnits="userSpaceOnUse">
<stop stop-color="#32C9EA"/>
<stop offset="1" stop-color="#4671CA"/>
</linearGradient>
<linearGradient id="paint2_linear_125_2" x1="1813.16" y1="716.584" x2="1788.63" y2="1014.12" gradientUnits="userSpaceOnUse">
<stop stop-color="#32C9EA"/>
<stop offset="1" stop-color="#4671CA"/>
</linearGradient>
<linearGradient id="paint3_linear_125_2" x1="28.3635" y1="538.247" x2="3.82596" y2="835.969" gradientUnits="userSpaceOnUse">
<stop stop-color="#32C9EA"/>
<stop offset="1" stop-color="#4671CA"/>
</linearGradient>
<linearGradient id="paint4_linear_125_2" x1="102.318" y1="544.531" x2="77.7809" y2="842.062" gradientUnits="userSpaceOnUse">
<stop stop-color="#32C9EA"/>
<stop offset="1" stop-color="#4671CA"/>
</linearGradient>
<linearGradient id="paint5_linear_125_2" x1="175.052" y1="550.428" x2="150.307" y2="847.953" gradientUnits="userSpaceOnUse">
<stop stop-color="#32C9EA"/>
<stop offset="1" stop-color="#4671CA"/>
</linearGradient>
<linearGradient id="paint6_linear_125_2" x1="253.183" y1="556.901" x2="228.438" y2="854.427" gradientUnits="userSpaceOnUse">
<stop stop-color="#32C9EA"/>
<stop offset="1" stop-color="#4671CA"/>
</linearGradient>
<linearGradient id="paint7_linear_125_2" x1="329.919" y1="563.375" x2="305.174" y2="860.901" gradientUnits="userSpaceOnUse">
<stop stop-color="#32C9EA"/>
<stop offset="1" stop-color="#4671CA"/>
</linearGradient>
<linearGradient id="paint8_linear_125_2" x1="1060.58" y1="1159.47" x2="1564.33" y2="1159.47" gradientUnits="userSpaceOnUse">
<stop stop-color="#67CBEB"/>
<stop offset="1" stop-color="#5070C9"/>
</linearGradient>
<linearGradient id="paint9_linear_125_2" x1="0.000675883" y1="1014.06" x2="17.4015" y2="1014.06" gradientUnits="userSpaceOnUse">
<stop stop-color="#67CBEB"/>
<stop offset="1" stop-color="#5070C9"/>
</linearGradient>
<linearGradient id="paint10_linear_125_2" x1="0.000675883" y1="868.655" x2="17.4015" y2="868.655" gradientUnits="userSpaceOnUse">
<stop stop-color="#67CBEB"/>
<stop offset="1" stop-color="#5070C9"/>
</linearGradient>
<linearGradient id="paint11_linear_125_2" x1="0.000675883" y1="723.247" x2="17.4015" y2="723.247" gradientUnits="userSpaceOnUse">
<stop stop-color="#67CBEB"/>
<stop offset="1" stop-color="#5070C9"/>
</linearGradient>
<linearGradient id="paint12_linear_125_2" x1="0.000675883" y1="577.837" x2="17.4015" y2="577.837" gradientUnits="userSpaceOnUse">
<stop stop-color="#67CBEB"/>
<stop offset="1" stop-color="#5070C9"/>
</linearGradient>
<linearGradient id="paint13_linear_125_2" x1="1001.42" y1="432.427" x2="1505.17" y2="432.427" gradientUnits="userSpaceOnUse">
<stop stop-color="#67CBEB"/>
<stop offset="1" stop-color="#5070C9"/>
</linearGradient>
<linearGradient id="paint14_linear_125_2" x1="625.559" y1="1296.32" x2="1129.14" y2="1296.32" gradientUnits="userSpaceOnUse">
<stop stop-color="#67CBEB"/>
<stop offset="1" stop-color="#5070C9"/>
</linearGradient>
<linearGradient id="paint15_linear_125_2" x1="625.559" y1="1149.96" x2="1129.14" y2="1149.96" gradientUnits="userSpaceOnUse">
<stop stop-color="#67CBEB"/>
<stop offset="1" stop-color="#5070C9"/>
</linearGradient>
<linearGradient id="paint16_linear_125_2" x1="625.559" y1="1003.79" x2="1129.14" y2="1003.79" gradientUnits="userSpaceOnUse">
<stop stop-color="#67CBEB"/>
<stop offset="1" stop-color="#5070C9"/>
</linearGradient>
<linearGradient id="paint17_linear_125_2" x1="625.559" y1="850.958" x2="1129.14" y2="850.958" gradientUnits="userSpaceOnUse">
<stop stop-color="#67CBEB"/>
<stop offset="1" stop-color="#5070C9"/>
</linearGradient>
<linearGradient id="paint18_linear_125_2" x1="1024.21" y1="1592.66" x2="1527.97" y2="1592.66" gradientUnits="userSpaceOnUse">
<stop stop-color="#67CBEB"/>
<stop offset="1" stop-color="#5070C9"/>
</linearGradient>
<linearGradient id="paint19_linear_125_2" x1="1083.37" y1="1446.48" x2="1587.13" y2="1446.48" gradientUnits="userSpaceOnUse">
<stop stop-color="#67CBEB"/>
<stop offset="1" stop-color="#5070C9"/>
</linearGradient>
<clipPath id="clip0_125_2">
<rect width="1833" height="2003" fill="white"/>
</clipPath>
</defs>
</svg>
