<svg width="511" height="112" viewBox="0 0 511 112" fill="none" xmlns="http://www.w3.org/2000/svg">
<g clip-path="url(#clip0_12206_12)">
<g style="mix-blend-mode:multiply" opacity="0.1">
<path d="M275.298 130.656C278.27 133.041 282.516 134.489 287.271 134.489C292.026 134.489 296.271 133.041 299.243 130.656C301.536 128.782 302.979 126.397 302.979 123.926C302.979 116.601 294.064 114.897 285.233 113.108C281.837 112.427 278.44 111.745 275.214 110.979L270.798 119.838C271.308 121.115 271.647 122.478 271.647 123.926C271.647 126.397 273.091 128.782 275.383 130.656H275.298Z" fill="url(#paint0_linear_12206_12)"/>
<path d="M363.86 25.6266C354.01 15.7455 342.208 7.73838 329.217 2.28674L304.083 52.7144C307.14 54.0773 310.112 55.6958 312.574 57.7401C319.876 63.6177 324.377 71.8803 324.377 81.2503C324.377 87.2131 319.537 91.9833 313.678 91.9833C307.819 91.9833 302.979 87.1279 302.979 81.2503C302.979 78.7801 301.536 76.395 299.243 74.521C297.97 73.4988 296.356 72.647 294.573 71.9655L284.978 91.1314C286.422 91.4722 287.78 91.7277 289.224 91.9833C306.8 95.4757 324.377 98.883 324.377 123.926C324.377 133.211 319.876 141.559 312.574 147.437C308.498 150.759 303.489 153.314 297.885 154.762V157.744C297.885 163.706 293.045 168.477 287.186 168.477C281.327 168.477 276.487 163.621 276.487 157.744V154.762C270.968 153.314 265.958 150.759 261.798 147.437C260.609 146.5 259.59 145.307 258.571 144.2L232.588 196.331C248.637 205.786 267.232 211.238 287.186 211.238C317.159 211.238 344.246 199.057 363.86 179.38C383.474 159.703 395.616 132.53 395.616 102.461C395.616 72.3914 383.474 45.2184 363.86 25.5414V25.6266Z" fill="url(#paint1_linear_12206_12)"/>
<path d="M253.724 -10.4054C253.724 -12.8756 252.28 -15.2607 249.988 -17.1347C247.016 -19.5198 242.77 -20.9679 238.015 -20.9679C233.26 -20.9679 229.015 -19.5198 226.043 -17.1347C223.751 -15.2607 222.307 -12.8756 222.307 -10.4054C222.307 -3.07972 231.223 -1.37608 240.053 0.412744C242.686 0.923835 245.318 1.43491 247.865 2.03119L253.894 -9.55354C253.894 -9.55354 253.724 -10.0646 253.724 -10.4054Z" fill="url(#paint2_linear_12206_12)"/>
<path d="M218.061 59.3586C216.193 58.3364 214.241 57.229 212.627 55.8661C205.325 49.9886 200.825 41.726 200.825 32.356C200.825 26.3932 205.665 21.623 211.523 21.623C217.382 21.623 222.222 26.4784 222.222 32.356C222.222 34.8262 223.666 37.2113 225.958 39.0853C226.553 39.5112 227.147 39.9371 227.826 40.363L237.421 21.8786C236.912 21.7934 236.402 21.7082 235.893 21.5378C218.316 18.0454 200.74 14.6381 200.74 -10.4054C200.74 -19.6902 205.24 -28.038 212.542 -33.9156C216.618 -37.2377 221.628 -39.7931 227.232 -41.2412V-44.2226C227.232 -50.1853 232.072 -54.9555 237.931 -54.9555C243.789 -54.9555 248.629 -50.1001 248.629 -44.2226V-41.2412C254.148 -39.7931 259.158 -37.2377 263.319 -33.9156C264.083 -33.3193 264.677 -32.5527 265.442 -31.8712L292.188 -83.1507C276.225 -92.4355 257.715 -97.802 238.015 -97.802C208.042 -97.802 180.956 -85.621 161.341 -65.944C141.727 -46.2669 129.585 -19.0939 129.585 10.9753C129.585 41.0445 141.727 68.2175 161.341 87.8945C170.172 96.7535 180.531 103.909 191.909 109.36L217.977 59.3586H218.061Z" fill="url(#paint3_linear_12206_12)"/>
<path d="M354.345 -187.158C300.681 -216.375 238.951 -222.849 180.448 -205.387C121.945 -188.01 73.7158 -148.741 44.5915 -94.991C-15.4402 16.0861 25.7414 155.529 136.549 215.752C138.163 216.604 139.946 217.115 141.729 217.115C142.748 217.115 143.852 216.945 144.871 216.689C147.673 215.838 149.965 213.964 151.324 211.408L358.76 -172.336C361.647 -177.617 359.694 -184.347 354.345 -187.158ZM163.976 141.985C133.323 122.393 110.991 92.7498 100.547 57.4845C89.0846 18.6416 93.3301 -22.2457 112.605 -57.8517C139.946 -108.45 191.996 -137.156 245.659 -137.156C266.547 -137.156 287.605 -132.812 307.644 -123.697L163.976 142.07V141.985ZM318.003 -142.948C235.98 -181.11 137.144 -149.252 93.4999 -68.4143C71.5081 -27.6974 66.5833 19.2379 79.7444 63.6176C91.8017 104.505 118.039 138.663 153.701 161.066L137.483 191.05C44.5066 133.978 11.2217 12.764 63.7813 -84.5137C90.1035 -133.153 133.747 -168.673 186.647 -184.432C206.091 -190.224 225.96 -193.121 245.744 -193.121C276.142 -193.121 306.2 -186.306 334.221 -172.932L318.003 -142.948Z" fill="url(#paint4_linear_12206_12)"/>
<path d="M391.451 -103.765C388.903 -105.128 385.931 -105.468 383.129 -104.617C380.327 -103.765 378.035 -101.891 376.676 -99.3353L169.24 284.324C166.353 289.605 168.306 296.335 173.655 299.146C207.535 317.63 244.725 327 282.256 327C304.078 327 326.07 323.848 347.552 317.46C406.055 300.083 454.284 260.814 483.409 206.979C543.44 95.9016 502.259 -43.5412 391.451 -103.765ZM363.94 -29.9121C394.592 -10.3203 416.924 19.323 427.283 54.5883C438.746 93.4313 434.5 134.319 415.225 169.925C395.951 205.531 364.109 231.426 325.39 242.925C290.237 253.403 253.301 250.847 220.186 235.77L363.855 -29.9973L363.94 -29.9121ZM464.134 196.587C437.812 245.225 394.168 280.746 341.268 296.505C291.851 311.241 239.885 307.067 193.694 285.005L209.827 255.192C232.753 265.925 257.377 271.291 282.256 271.291C298.813 271.291 315.371 268.906 331.674 264.051C375.912 250.847 412.423 221.204 434.5 180.487C456.492 139.77 461.417 92.835 448.256 48.4552C436.198 7.56793 409.961 -26.59 374.299 -48.9928L390.517 -78.9769C483.493 -21.905 516.778 99.3088 464.219 196.587H464.134Z" fill="url(#paint5_linear_12206_12)"/>
<path d="M101.312 289.775C101.736 287.646 102.755 285.602 104.284 283.898L126.785 257.662C131.455 252.381 139.521 251.87 144.786 256.555C150.05 261.24 150.56 269.332 145.89 274.613L123.388 300.849C118.718 306.13 110.652 306.642 105.387 301.956C101.821 298.805 100.463 294.12 101.312 289.861V289.775Z" fill="url(#paint6_linear_12206_12)"/>
<path d="M36.9496 247.014C38.0534 245.14 39.5818 243.522 41.6196 242.329L76.7725 222.397C82.8861 218.819 90.6129 220.863 94.1792 226.996C97.7454 233.13 95.7076 240.881 89.594 244.459L54.4411 264.391C48.3276 267.969 40.6007 265.925 37.0345 259.792C34.657 255.703 34.8268 250.847 37.0345 247.014H36.9496Z" fill="url(#paint7_linear_12206_12)"/>
<path d="M384.488 -151.722C385.592 -153.596 387.12 -155.215 389.158 -156.407L418.707 -174.295C424.82 -177.873 432.547 -175.829 436.113 -169.696C439.68 -163.562 437.642 -155.811 431.528 -152.233L401.979 -134.345C395.866 -130.767 388.139 -132.812 384.573 -138.945C382.195 -143.034 382.365 -147.889 384.573 -151.722H384.488Z" fill="url(#paint8_linear_12206_12)"/>
</g>
</g>
<defs>
<linearGradient id="paint0_linear_12206_12" x1="17" y1="-318.572" x2="285.768" y2="-332.438" gradientUnits="userSpaceOnUse">
<stop stop-color="#3B53A7"/>
<stop offset="1" stop-color="#68CDED"/>
</linearGradient>
<linearGradient id="paint1_linear_12206_12" x1="17" y1="-318.572" x2="285.768" y2="-332.438" gradientUnits="userSpaceOnUse">
<stop stop-color="#3B53A7"/>
<stop offset="1" stop-color="#68CDED"/>
</linearGradient>
<linearGradient id="paint2_linear_12206_12" x1="17" y1="-318.572" x2="285.768" y2="-332.438" gradientUnits="userSpaceOnUse">
<stop stop-color="#3B53A7"/>
<stop offset="1" stop-color="#68CDED"/>
</linearGradient>
<linearGradient id="paint3_linear_12206_12" x1="17" y1="-318.572" x2="285.768" y2="-332.438" gradientUnits="userSpaceOnUse">
<stop stop-color="#3B53A7"/>
<stop offset="1" stop-color="#68CDED"/>
</linearGradient>
<linearGradient id="paint4_linear_12206_12" x1="17" y1="-318.572" x2="285.768" y2="-332.438" gradientUnits="userSpaceOnUse">
<stop stop-color="#3B53A7"/>
<stop offset="1" stop-color="#68CDED"/>
</linearGradient>
<linearGradient id="paint5_linear_12206_12" x1="17" y1="-318.572" x2="285.768" y2="-332.438" gradientUnits="userSpaceOnUse">
<stop stop-color="#3B53A7"/>
<stop offset="1" stop-color="#68CDED"/>
</linearGradient>
<linearGradient id="paint6_linear_12206_12" x1="17" y1="-318.572" x2="285.768" y2="-332.438" gradientUnits="userSpaceOnUse">
<stop stop-color="#3B53A7"/>
<stop offset="1" stop-color="#68CDED"/>
</linearGradient>
<linearGradient id="paint7_linear_12206_12" x1="17" y1="-318.572" x2="285.768" y2="-332.438" gradientUnits="userSpaceOnUse">
<stop stop-color="#3B53A7"/>
<stop offset="1" stop-color="#68CDED"/>
</linearGradient>
<linearGradient id="paint8_linear_12206_12" x1="17" y1="-318.572" x2="285.768" y2="-332.438" gradientUnits="userSpaceOnUse">
<stop stop-color="#3B53A7"/>
<stop offset="1" stop-color="#68CDED"/>
</linearGradient>
<clipPath id="clip0_12206_12">
<rect width="511" height="112" fill="white"/>
</clipPath>
</defs>
</svg>
