<svg width="391" height="100" viewBox="0 0 391 100" fill="none" xmlns="http://www.w3.org/2000/svg">
<circle cx="209" cy="50" r="182" fill="url(#paint0_linear_10358_74)" fill-opacity="0.8"/>
<g filter="url(#filter0_d_10358_74)">
<path d="M199.867 45.2139L203.853 21.2052H208.203L206.514 31.3691H217.64L219.328 21.2052H223.689L219.703 45.2139H215.342L217.03 35.0149H205.905L204.217 45.2139H199.867ZM247.832 33.4909C247.41 36.0387 246.578 38.2114 245.335 40.0089C244.1 41.7986 242.592 43.1702 240.81 44.1236C239.036 45.0693 237.125 45.5421 235.077 45.5421C232.928 45.5421 231.084 45.0419 229.544 44.0416C228.005 43.0334 226.895 41.5915 226.215 39.7158C225.543 37.8401 225.426 35.5893 225.863 32.9634C226.285 30.4234 227.114 28.2507 228.348 26.4454C229.583 24.6401 231.096 23.2607 232.885 22.3072C234.675 21.3537 236.605 20.877 238.676 20.877C240.81 20.877 242.639 21.3811 244.163 22.3893C245.695 23.3896 246.796 24.8315 247.469 26.715C248.149 28.5985 248.27 30.8571 247.832 33.4909ZM243.553 32.9634C243.842 31.1893 243.815 29.6927 243.471 28.4735C243.135 27.2543 242.537 26.336 241.677 25.7186C240.818 25.0934 239.759 24.7807 238.501 24.7807C237.141 24.7807 235.882 25.1207 234.726 25.8006C233.577 26.4728 232.6 27.4575 231.795 28.7548C230.998 30.0522 230.451 31.6309 230.154 33.4909C229.841 35.2728 229.861 36.7694 230.212 37.9808C230.564 39.1922 231.174 40.1066 232.041 40.724C232.909 41.3336 233.968 41.6384 235.218 41.6384C236.57 41.6384 237.821 41.3023 238.969 40.6302C240.118 39.9581 241.091 38.9773 241.888 37.6877C242.693 36.3982 243.248 34.8234 243.553 32.9634ZM269.118 21.2052H273.467L270.865 36.8906C270.583 38.6099 269.927 40.1222 268.895 41.4274C267.871 42.7325 266.566 43.7524 264.98 44.487C263.393 45.2139 261.627 45.5773 259.681 45.5773C257.719 45.5773 256.07 45.2139 254.734 44.487C253.397 43.7524 252.432 42.7325 251.838 41.4274C251.252 40.1222 251.1 38.6099 251.381 36.8906L253.984 21.2052H258.333L255.789 36.5272C255.625 37.5275 255.699 38.4185 256.012 39.2C256.332 39.9737 256.856 40.5833 257.583 41.0288C258.317 41.4742 259.236 41.697 260.337 41.697C261.439 41.697 262.432 41.4742 263.315 41.0288C264.198 40.5833 264.921 39.9737 265.484 39.2C266.047 38.4185 266.41 37.5275 266.574 36.5272L269.118 21.2052ZM274.209 45.2139L278.194 21.2052H287.198C289.042 21.2052 290.539 21.5257 291.688 22.1665C292.836 22.8074 293.638 23.7061 294.091 24.8628C294.544 26.0117 294.642 27.352 294.384 28.8838C294.134 30.4156 293.587 31.7481 292.743 32.8813C291.906 34.0067 290.801 34.8781 289.425 35.4955C288.057 36.1129 286.451 36.4216 284.607 36.4216H278.194L278.804 32.811H284.642C285.721 32.811 286.627 32.6625 287.362 32.3655C288.096 32.0607 288.675 31.6191 289.097 31.0408C289.527 30.4547 289.812 29.7357 289.953 28.8838C290.085 28.0319 290.035 27.3051 289.8 26.7033C289.574 26.0937 289.14 25.6326 288.499 25.32C287.866 24.9996 287.01 24.8394 285.932 24.8394H281.946L278.558 45.2139H274.209ZM288.417 34.335L292.555 45.2139H287.702L283.669 34.335H288.417ZM311.716 27.9225C311.748 26.8362 311.415 26.0038 310.72 25.4255C310.032 24.8472 309.043 24.558 307.754 24.558C306.847 24.558 306.046 24.6948 305.351 24.9683C304.663 25.234 304.108 25.6053 303.686 26.082C303.264 26.5509 303.002 27.0863 302.901 27.688C302.815 28.1804 302.858 28.6102 303.03 28.9776C303.201 29.3449 303.463 29.6575 303.815 29.9154C304.174 30.1733 304.581 30.3882 305.034 30.5602C305.495 30.7321 305.964 30.8767 306.441 30.9939L308.598 31.5566C309.458 31.7676 310.278 32.0529 311.06 32.4124C311.841 32.7641 312.517 33.2174 313.088 33.7723C313.666 34.3193 314.088 34.9797 314.354 35.7534C314.62 36.5272 314.663 37.4337 314.483 38.4732C314.248 39.8799 313.682 41.1186 312.783 42.1893C311.892 43.2522 310.72 44.0846 309.266 44.6863C307.82 45.2803 306.136 45.5773 304.214 45.5773C302.354 45.5773 300.783 45.2881 299.501 44.7098C298.219 44.1236 297.281 43.2757 296.687 42.1659C296.101 41.0561 295.914 39.708 296.125 38.1215H300.404C300.318 38.9577 300.454 39.6533 300.814 40.2082C301.181 40.763 301.709 41.1773 302.397 41.4508C303.084 41.7243 303.881 41.8611 304.788 41.8611C305.734 41.8611 306.589 41.7204 307.355 41.4391C308.121 41.1499 308.746 40.7513 309.231 40.2433C309.723 39.7275 310.024 39.1257 310.134 38.438C310.243 37.8206 310.153 37.3048 309.864 36.8906C309.575 36.4764 309.125 36.1325 308.516 35.8589C307.914 35.5776 307.195 35.3275 306.359 35.1087L303.756 34.4053C301.873 33.8895 300.443 33.1158 299.466 32.0842C298.497 31.0525 298.153 29.677 298.434 27.9577C298.669 26.5353 299.259 25.2966 300.204 24.2415C301.15 23.1786 302.334 22.3541 303.756 21.7679C305.179 21.174 306.734 20.877 308.422 20.877C310.126 20.877 311.568 21.174 312.748 21.7679C313.936 22.3619 314.803 23.1903 315.35 24.2532C315.905 25.3083 316.089 26.5314 315.901 27.9225H311.716ZM199.867 78.2139L203.853 54.2052H212.857C214.701 54.2052 216.194 54.5491 217.335 55.2369C218.476 55.9168 219.269 56.8585 219.714 58.0621C220.16 59.2578 220.254 60.6216 219.996 62.1534C219.746 63.693 219.195 65.0607 218.343 66.2564C217.499 67.4522 216.385 68.3939 215.002 69.0817C213.619 69.7616 212.001 70.1016 210.149 70.1016H204.182L204.779 66.5261H210.16C211.239 66.5261 212.153 66.3385 212.903 65.9634C213.662 65.5882 214.259 65.0724 214.697 64.4159C215.135 63.7595 215.424 63.0053 215.565 62.1534C215.697 61.3015 215.654 60.5513 215.436 59.9026C215.217 59.2539 214.791 58.7498 214.158 58.3903C213.533 58.023 212.677 57.8394 211.59 57.8394H207.605L204.217 78.2139H199.867ZM221.488 78.2139H216.845L229.283 54.2052H234.652L239.131 78.2139H234.488L231.265 59.1289H231.077L221.488 78.2139ZM223.199 68.8003H235.86L235.274 72.2938H222.613L223.199 68.8003ZM242.187 54.2052H247.099L251.214 64.8262H251.472L259.08 54.2052H263.992L252.761 69.2575L251.273 78.2139H246.935L248.424 69.2575L242.187 54.2052ZM285.132 66.4909C284.709 69.0387 283.877 71.2114 282.635 73.0089C281.4 74.7986 279.891 76.1702 278.109 77.1236C276.335 78.0693 274.425 78.5421 272.377 78.5421C270.228 78.5421 268.383 78.0419 266.844 77.0416C265.304 76.0334 264.194 74.5915 263.514 72.7158C262.842 70.8401 262.725 68.5893 263.163 65.9634C263.585 63.4234 264.413 61.2507 265.648 59.4454C266.883 57.6401 268.395 56.2607 270.185 55.3072C271.974 54.3537 273.905 53.877 275.976 53.877C278.109 53.877 279.938 54.3811 281.462 55.3893C282.994 56.3896 284.096 57.8315 284.768 59.715C285.448 61.5985 285.569 63.8571 285.132 66.4909ZM280.853 65.9634C281.142 64.1893 281.114 62.6927 280.771 61.4735C280.435 60.2543 279.837 59.336 278.977 58.7186C278.117 58.0934 277.058 57.7807 275.8 57.7807C274.44 57.7807 273.182 58.1207 272.025 58.8006C270.876 59.4728 269.899 60.4575 269.095 61.7548C268.297 63.0522 267.75 64.6309 267.453 66.4909C267.141 68.2728 267.16 69.7694 267.512 70.9808C267.864 72.1922 268.473 73.1066 269.341 73.724C270.208 74.3336 271.267 74.6384 272.518 74.6384C273.87 74.6384 275.12 74.3023 276.269 73.6302C277.418 72.9581 278.391 71.9773 279.188 70.6877C279.993 69.3982 280.548 67.8234 280.853 65.9634ZM306.417 54.2052H310.767L308.164 69.8906C307.883 71.6099 307.226 73.1222 306.195 74.4274C305.171 75.7325 303.866 76.7524 302.279 77.487C300.693 78.2139 298.927 78.5773 296.981 78.5773C295.019 78.5773 293.37 78.2139 292.033 77.487C290.697 76.7524 289.732 75.7325 289.138 74.4274C288.552 73.1222 288.399 71.6099 288.681 69.8906L291.283 54.2052H295.632L293.088 69.5272C292.924 70.5275 292.999 71.4185 293.311 72.2C293.632 72.9737 294.155 73.5833 294.882 74.0288C295.617 74.4742 296.535 74.697 297.637 74.697C298.739 74.697 299.731 74.4742 300.615 74.0288C301.498 73.5833 302.221 72.9737 302.783 72.2C303.346 71.4185 303.709 70.5275 303.874 69.5272L306.417 54.2052ZM313.829 57.8511L314.439 54.2052H333.594L332.985 57.8511H325.564L322.188 78.2139H317.874L321.25 57.8511H313.829ZM342.269 54.2052L339.081 71.1566H335.329L337.756 54.2052H342.269ZM336.302 78.4718C335.583 78.4718 334.989 78.2217 334.52 77.7215C334.051 77.2213 333.833 76.6117 333.864 75.8927C333.895 75.1893 334.18 74.5915 334.72 74.0991C335.259 73.6067 335.88 73.3606 336.584 73.3606C337.279 73.3606 337.869 73.6107 338.354 74.1108C338.846 74.611 339.069 75.205 339.022 75.8927C338.991 76.3773 338.842 76.8149 338.577 77.2057C338.319 77.5965 337.99 77.9052 337.592 78.1318C337.193 78.3585 336.763 78.4718 336.302 78.4718Z" fill="white"/>
</g>
<g filter="url(#filter1_d_10358_74)">
<path d="M186.35 66.1965H177.692L185.262 20.569H166.823L130.467 65.9535H115.42L115.524 65.4789L127.296 55.5131C132.805 51.161 137.134 47.4108 140.294 44.2856C143.443 41.1604 145.758 38.3131 147.216 35.7666C148.674 33.2202 149.635 30.6275 150.086 27.9884C150.769 23.972 150.341 20.4186 148.79 17.305C147.251 14.203 144.774 11.7607 141.359 10.0013C137.945 8.24198 133.743 7.3623 128.754 7.3623C123.766 7.3623 119.448 8.27671 115.42 10.1171C111.381 11.9575 108.047 14.5502 105.397 17.9069C102.757 21.2635 101.044 25.2221 100.28 29.7825H114.263C114.645 27.5602 115.42 25.6388 116.578 24.0299C117.735 22.421 119.182 21.1825 120.93 20.326C122.678 19.4694 124.611 19.0296 126.752 19.0296C128.893 19.0296 130.537 19.4231 131.995 20.2218C133.442 21.0205 134.518 22.1664 135.19 23.6595C135.861 25.1526 136.035 26.9236 135.699 28.9723C135.387 30.8127 134.715 32.5141 133.708 34.0883C132.701 35.6625 131.335 37.2713 129.622 38.9034C127.909 40.5354 125.826 42.3758 123.384 44.4129L94.7709 67.3771L93 77.9912H128.199H161.661L159.601 90.2372H173.687L175.724 77.9912H184.371L186.338 66.185L186.35 66.1965ZM145.075 65.6525L168.247 36.6347H168.791L163.907 66.1965H145.017L145.086 65.6525H145.075Z" fill="#FF532D"/>
</g>
<mask id="mask0_10358_74" style="mask-type:alpha" maskUnits="userSpaceOnUse" x="93" y="7" width="94" height="84">
<path d="M186.35 66.1965H177.692L185.262 20.569H166.823L130.467 65.9535H115.42L115.524 65.4789L127.296 55.5131C132.805 51.161 137.134 47.4108 140.294 44.2856C143.443 41.1604 145.758 38.3131 147.216 35.7666C148.674 33.2202 149.635 30.6275 150.086 27.9884C150.769 23.972 150.341 20.4186 148.79 17.305C147.251 14.203 144.774 11.7607 141.359 10.0013C137.945 8.24198 133.743 7.3623 128.754 7.3623C123.766 7.3623 119.448 8.27671 115.42 10.1171C111.381 11.9575 108.047 14.5502 105.397 17.9069C102.757 21.2635 101.044 25.2221 100.28 29.7825H114.263C114.645 27.5602 115.42 25.6388 116.578 24.0299C117.735 22.421 119.182 21.1825 120.93 20.326C122.678 19.4694 124.611 19.0296 126.752 19.0296C128.893 19.0296 130.537 19.4231 131.995 20.2218C133.442 21.0205 134.518 22.1664 135.19 23.6595C135.861 25.1526 136.035 26.9236 135.699 28.9723C135.387 30.8127 134.715 32.5141 133.708 34.0883C132.701 35.6625 131.335 37.2713 129.622 38.9034C127.909 40.5354 125.826 42.3758 123.384 44.4129L94.7709 67.3771L93 77.9912H128.199H161.661L159.601 90.2372H173.687L175.724 77.9912H184.371L186.338 66.185L186.35 66.1965ZM145.075 65.6525L168.247 36.6347H168.791L163.907 66.1965H145.017L145.086 65.6525H145.075Z" fill="#FF532D"/>
</mask>
<g mask="url(#mask0_10358_74)">
<g style="mix-blend-mode:overlay">
<rect x="-1" y="11.2773" width="203.362" height="88" transform="rotate(-18.723 -1 11.2773)" fill="url(#paint1_linear_10358_74)"/>
</g>
</g>
<circle cx="31.5" cy="50.5" r="31.5" fill="#FF532D"/>
<path d="M33.5995 57.3155H30.829C28.869 57.3155 27.2627 55.6649 27.2627 53.6312C27.2627 53.027 27.7637 52.526 28.368 52.526C28.9722 52.526 29.4732 53.027 29.4732 53.6312C29.4732 54.4418 30.0775 55.1049 30.829 55.1049H33.5995C34.1743 55.1049 34.6311 54.5891 34.6311 53.9555C34.6311 53.1597 34.4101 53.0418 33.909 52.8649L29.4732 51.3176C28.5301 50.9933 27.2627 50.3007 27.2627 48.1344C27.2627 46.2923 28.7217 44.7744 30.5048 44.7744H33.2753C35.2353 44.7744 36.8416 46.4249 36.8416 48.4586C36.8416 49.0628 36.3406 49.5639 35.7364 49.5639C35.1322 49.5639 34.6311 49.0628 34.6311 48.4586C34.6311 47.6481 34.0269 46.9849 33.2753 46.9849H30.5048C29.9301 46.9849 29.4732 47.5007 29.4732 48.1344C29.4732 48.9302 29.6943 49.0481 30.1953 49.2249L34.6311 50.7723C35.5743 51.0965 36.8416 51.7891 36.8416 53.9555C36.8416 55.8123 35.3827 57.3155 33.5995 57.3155Z" fill="white"/>
<path d="M32.0525 58.7891C31.4483 58.7891 30.9473 58.2881 30.9473 57.6839V44.4207C30.9473 43.8165 31.4483 43.3154 32.0525 43.3154C32.6567 43.3154 33.1578 43.8165 33.1578 44.4207V57.6839C33.1578 58.2881 32.6567 58.7891 32.0525 58.7891Z" fill="white"/>
<path d="M32.0526 66.8942C23.3136 66.8942 16.2104 59.791 16.2104 51.0521C16.2104 42.3131 23.3136 35.21 32.0526 35.21C32.6568 35.21 33.1578 35.711 33.1578 36.3152C33.1578 36.9194 32.6568 37.4205 32.0526 37.4205C24.5368 37.4205 18.421 43.5363 18.421 51.0521C18.421 58.5679 24.5368 64.6836 32.0526 64.6836C39.5683 64.6836 45.6841 58.5679 45.6841 51.0521C45.6841 50.4479 46.1852 49.9468 46.7894 49.9468C47.3936 49.9468 47.8947 50.4479 47.8947 51.0521C47.8947 59.791 40.7915 66.8942 32.0526 66.8942Z" fill="white"/>
<path d="M45.3154 44.7889H39.4207C38.8165 44.7889 38.3154 44.2878 38.3154 43.6836V37.7889C38.3154 37.1846 38.8165 36.6836 39.4207 36.6836C40.0249 36.6836 40.526 37.1846 40.526 37.7889V42.5783H45.3154C45.9196 42.5783 46.4207 43.0794 46.4207 43.6836C46.4207 44.2878 45.9196 44.7889 45.3154 44.7889Z" fill="white"/>
<path d="M39.4209 44.7901C39.1409 44.7901 38.8609 44.6869 38.6399 44.4659C38.2125 44.0385 38.2125 43.3312 38.6399 42.9038L46.0083 35.5354C46.4357 35.108 47.143 35.108 47.5704 35.5354C47.9978 35.9627 47.9978 36.6701 47.5704 37.0975L40.202 44.4659C39.9809 44.6869 39.7009 44.7901 39.4209 44.7901Z" fill="white"/>
<defs>
<filter id="filter0_d_10358_74" x="199.868" y="20.877" width="143.85" height="59.1486" filterUnits="userSpaceOnUse" color-interpolation-filters="sRGB">
<feFlood flood-opacity="0" result="BackgroundImageFix"/>
<feColorMatrix in="SourceAlpha" type="matrix" values="0 0 0 0 0 0 0 0 0 0 0 0 0 0 0 0 0 0 127 0" result="hardAlpha"/>
<feOffset dx="1.44843" dy="1.44843"/>
<feComposite in2="hardAlpha" operator="out"/>
<feColorMatrix type="matrix" values="0 0 0 0 0 0 0 0 0 0 0 0 0 0 0 0 0 0 0.25 0"/>
<feBlend mode="normal" in2="BackgroundImageFix" result="effect1_dropShadow_10358_74"/>
<feBlend mode="normal" in="SourceGraphic" in2="effect1_dropShadow_10358_74" result="shape"/>
</filter>
<filter id="filter1_d_10358_74" x="93" y="7.3623" width="94.7382" height="84.2631" filterUnits="userSpaceOnUse" color-interpolation-filters="sRGB">
<feFlood flood-opacity="0" result="BackgroundImageFix"/>
<feColorMatrix in="SourceAlpha" type="matrix" values="0 0 0 0 0 0 0 0 0 0 0 0 0 0 0 0 0 0 127 0" result="hardAlpha"/>
<feOffset dx="1.38808" dy="1.38808"/>
<feComposite in2="hardAlpha" operator="out"/>
<feColorMatrix type="matrix" values="0 0 0 0 0 0 0 0 0 0 0 0 0 0 0 0 0 0 0.25 0"/>
<feBlend mode="normal" in2="BackgroundImageFix" result="effect1_dropShadow_10358_74"/>
<feBlend mode="normal" in="SourceGraphic" in2="effect1_dropShadow_10358_74" result="shape"/>
</filter>
<linearGradient id="paint0_linear_10358_74" x1="151.848" y1="-15.4756" x2="304.136" y2="517.409" gradientUnits="userSpaceOnUse">
<stop stop-color="#0B111D"/>
<stop offset="1" stop-color="#0B111D" stop-opacity="0"/>
</linearGradient>
<linearGradient id="paint1_linear_10358_74" x1="216.233" y1="33.6901" x2="100.681" y2="99.2773" gradientUnits="userSpaceOnUse">
<stop stop-color="white"/>
<stop offset="1" stop-color="white" stop-opacity="0"/>
</linearGradient>
</defs>
</svg>
