<svg width="156" height="100" viewBox="0 0 156 100" fill="none" xmlns="http://www.w3.org/2000/svg">
<circle cx="34" cy="49" r="122" fill="url(#paint0_linear_10358_76)" fill-opacity="0.8"/>
<g filter="url(#filter0_d_10358_76)">
<path d="M63.473 49L65.6463 35.9091H68.0178L67.0973 41.451H73.1634L74.0838 35.9091H76.4616L74.2884 49H71.9105L72.831 43.4389H66.7649L65.8445 49H63.473ZM89.6261 42.608C89.396 43.9972 88.9421 45.1818 88.2646 46.1619C87.5913 47.1378 86.7688 47.8857 85.7972 48.4055C84.8299 48.9212 83.788 49.179 82.6715 49.179C81.4996 49.179 80.494 48.9062 79.6545 48.3608C78.815 47.8111 78.2099 47.0249 77.8391 46.0021C77.4727 44.9794 77.4087 43.7521 77.6474 42.3203C77.8775 40.9354 78.3292 39.7507 79.0025 38.7663C79.6758 37.782 80.5004 37.0298 81.4762 36.5099C82.4521 35.9901 83.5046 35.7301 84.6339 35.7301C85.7972 35.7301 86.7944 36.005 87.6254 36.5547C88.4606 37.1001 89.0614 37.8864 89.4279 38.9134C89.7987 39.9403 89.8647 41.1719 89.6261 42.608ZM87.293 42.3203C87.4506 41.353 87.4357 40.5369 87.2482 39.8722C87.065 39.2074 86.739 38.7067 86.2702 38.37C85.8015 38.0291 85.2241 37.8587 84.538 37.8587C83.7965 37.8587 83.1104 38.044 82.4798 38.4148C81.8533 38.7812 81.3207 39.3182 80.8817 40.0256C80.4471 40.733 80.1488 41.5937 79.9869 42.608C79.8164 43.5795 79.8271 44.3956 80.0188 45.0561C80.2106 45.7166 80.543 46.2152 81.016 46.5518C81.489 46.8842 82.0664 47.0504 82.7482 47.0504C83.4854 47.0504 84.1673 46.8672 84.7937 46.5007C85.4201 46.1342 85.9506 45.5994 86.3853 44.8963C86.8242 44.1932 87.1268 43.3345 87.293 42.3203ZM101.232 35.9091H103.604L102.185 44.4616C102.031 45.3991 101.673 46.2237 101.111 46.9354C100.553 47.647 99.8411 48.2031 98.976 48.6037C98.111 49 97.1479 49.1982 96.0868 49.1982C95.0172 49.1982 94.1181 49 93.3894 48.6037C92.6607 48.2031 92.1344 47.647 91.8105 46.9354C91.4909 46.2237 91.4078 45.3991 91.5613 44.4616L92.9803 35.9091H95.3517L93.9647 44.2635C93.8752 44.8089 93.9157 45.2947 94.0861 45.7209C94.2608 46.1428 94.5463 46.4751 94.9426 46.718C95.3432 46.9609 95.8439 47.0824 96.4448 47.0824C97.0456 47.0824 97.5868 46.9609 98.0684 46.718C98.5499 46.4751 98.9441 46.1428 99.2509 45.7209C99.5577 45.2947 99.7559 44.8089 99.8453 44.2635L101.232 35.9091ZM104.008 49L106.181 35.9091H111.091C112.096 35.9091 112.912 36.0838 113.539 36.4332C114.165 36.7827 114.602 37.2727 114.849 37.9034C115.096 38.5298 115.15 39.2607 115.009 40.0959C114.873 40.9311 114.574 41.6577 114.114 42.2756C113.658 42.8892 113.055 43.3643 112.305 43.701C111.559 44.0376 110.684 44.206 109.678 44.206H106.181L106.514 42.2372H109.697C110.285 42.2372 110.779 42.1562 111.18 41.9943C111.581 41.8281 111.896 41.5874 112.126 41.272C112.36 40.9524 112.516 40.5604 112.593 40.0959C112.665 39.6314 112.637 39.2351 112.51 38.907C112.386 38.5746 112.15 38.3232 111.8 38.1527C111.455 37.978 110.988 37.8906 110.4 37.8906H108.227L106.38 49H104.008ZM111.755 43.0682L114.012 49H111.365L109.167 43.0682H111.755ZM124.46 39.5717C124.477 38.9794 124.295 38.5256 123.916 38.2102C123.541 37.8949 123.002 37.7372 122.299 37.7372C121.805 37.7372 121.368 37.8118 120.989 37.9609C120.614 38.1058 120.311 38.3082 120.081 38.5682C119.851 38.8239 119.708 39.1158 119.653 39.4439C119.606 39.7124 119.629 39.9467 119.723 40.147C119.817 40.3473 119.96 40.5178 120.151 40.6584C120.347 40.799 120.569 40.9162 120.816 41.0099C121.067 41.1037 121.323 41.1825 121.583 41.2464L122.759 41.5533C123.228 41.6683 123.675 41.8239 124.102 42.0199C124.528 42.2116 124.896 42.4588 125.207 42.7614C125.523 43.0597 125.753 43.4197 125.898 43.8416C126.043 44.2635 126.066 44.7578 125.968 45.3246C125.84 46.0916 125.531 46.767 125.041 47.3509C124.555 47.9304 123.916 48.3842 123.124 48.7124C122.335 49.0362 121.417 49.1982 120.369 49.1982C119.354 49.1982 118.498 49.0405 117.799 48.7251C117.1 48.4055 116.589 47.9432 116.265 47.3381C115.945 46.733 115.843 45.9979 115.958 45.1328H118.291C118.244 45.5888 118.319 45.968 118.515 46.2706C118.715 46.5732 119.003 46.799 119.378 46.9482C119.753 47.0973 120.188 47.1719 120.682 47.1719C121.197 47.1719 121.664 47.0952 122.082 46.9418C122.499 46.7841 122.84 46.5668 123.104 46.2898C123.373 46.0085 123.537 45.6804 123.597 45.3054C123.656 44.9687 123.607 44.6875 123.45 44.4616C123.292 44.2358 123.047 44.0483 122.714 43.8991C122.386 43.7457 121.994 43.6094 121.538 43.4901L120.119 43.1065C119.092 42.8253 118.313 42.4034 117.78 41.8409C117.251 41.2784 117.064 40.5284 117.217 39.5909C117.345 38.8153 117.667 38.1399 118.183 37.5646C118.698 36.9851 119.344 36.5355 120.119 36.2159C120.895 35.892 121.743 35.7301 122.663 35.7301C123.592 35.7301 124.379 35.892 125.022 36.2159C125.67 36.5398 126.143 36.9915 126.441 37.571C126.744 38.1463 126.844 38.8132 126.741 39.5717H124.46ZM63.473 69L65.6463 55.9091H70.5554C71.5611 55.9091 72.375 56.0966 72.9972 56.4716C73.6193 56.8423 74.0518 57.3558 74.2947 58.0121C74.5376 58.6641 74.5888 59.4077 74.4482 60.2429C74.3118 61.0824 74.0114 61.8281 73.5469 62.4801C73.0866 63.1321 72.4794 63.6456 71.7251 64.0206C70.9709 64.3913 70.0888 64.5767 69.0788 64.5767H65.8253L66.1513 62.6271H69.0852C69.6733 62.6271 70.1719 62.5249 70.581 62.3203C70.9943 62.1158 71.3203 61.8345 71.5589 61.4766C71.7976 61.1186 71.9553 60.7074 72.032 60.2429C72.1044 59.7784 72.081 59.3693 71.9616 59.0156C71.8423 58.6619 71.6101 58.3871 71.2649 58.1911C70.924 57.9908 70.4574 57.8906 69.8651 57.8906H67.6918L65.8445 69H63.473ZM75.2615 69H72.7303L79.5123 55.9091H82.4398L84.8816 69H82.3503L80.5925 58.5938H80.4902L75.2615 69ZM76.1948 63.8672H83.0982L82.7786 65.772H75.8752L76.1948 63.8672ZM86.5483 55.9091H89.2266L91.4702 61.7003H91.6108L95.7592 55.9091H98.4375L92.3139 64.1165L91.5021 69H89.1371L89.9489 64.1165L86.5483 55.9091ZM109.964 62.608C109.734 63.9972 109.28 65.1818 108.602 66.1619C107.929 67.1378 107.107 67.8857 106.135 68.4055C105.168 68.9212 104.126 69.179 103.009 69.179C101.838 69.179 100.832 68.9062 99.9924 68.3608C99.1529 67.8111 98.5478 67.0249 98.177 66.0021C97.8105 64.9794 97.7466 63.7521 97.9853 62.3203C98.2154 60.9354 98.6671 59.7507 99.3404 58.7663C100.014 57.782 100.838 57.0298 101.814 56.5099C102.79 55.9901 103.843 55.7301 104.972 55.7301C106.135 55.7301 107.132 56.005 107.963 56.5547C108.798 57.1001 109.399 57.8864 109.766 58.9134C110.137 59.9403 110.203 61.1719 109.964 62.608ZM107.631 62.3203C107.789 61.353 107.774 60.5369 107.586 59.8722C107.403 59.2074 107.077 58.7067 106.608 58.37C106.139 58.0291 105.562 57.8587 104.876 57.8587C104.134 57.8587 103.448 58.044 102.818 58.4148C102.191 58.7812 101.659 59.3182 101.22 60.0256C100.785 60.733 100.487 61.5937 100.325 62.608C100.154 63.5795 100.165 64.3956 100.357 65.0561C100.548 65.7166 100.881 66.2152 101.354 66.5518C101.827 66.8842 102.404 67.0504 103.086 67.0504C103.823 67.0504 104.505 66.8672 105.132 66.5007C105.758 66.1342 106.289 65.5994 106.723 64.8963C107.162 64.1932 107.465 63.3345 107.631 62.3203ZM121.57 55.9091H123.942L122.523 64.4616C122.369 65.3991 122.011 66.2237 121.449 66.9354C120.891 67.647 120.179 68.2031 119.314 68.6037C118.449 69 117.486 69.1982 116.425 69.1982C115.355 69.1982 114.456 69 113.727 68.6037C112.999 68.2031 112.472 67.647 112.148 66.9354C111.829 66.2237 111.746 65.3991 111.899 64.4616L113.318 55.9091H115.69L114.303 64.2635C114.213 64.8089 114.254 65.2947 114.424 65.7209C114.599 66.1428 114.884 66.4751 115.281 66.718C115.681 66.9609 116.182 67.0824 116.783 67.0824C117.384 67.0824 117.925 66.9609 118.406 66.718C118.888 66.4751 119.282 66.1428 119.589 65.7209C119.896 65.2947 120.094 64.8089 120.183 64.2635L121.57 55.9091ZM125.612 57.897L125.944 55.9091H136.389L136.056 57.897H132.01L130.169 69H127.817L129.658 57.897H125.612ZM141.119 55.9091L139.38 65.152H137.335L138.658 55.9091H141.119ZM137.865 69.1406C137.473 69.1406 137.149 69.0043 136.894 68.7315C136.638 68.4588 136.519 68.1264 136.536 67.7344C136.553 67.3509 136.708 67.0249 137.002 66.7564C137.296 66.4879 137.635 66.3537 138.019 66.3537C138.398 66.3537 138.72 66.4901 138.984 66.7628C139.252 67.0355 139.374 67.3594 139.348 67.7344C139.331 67.9986 139.25 68.2372 139.105 68.4503C138.965 68.6634 138.786 68.8317 138.568 68.9553C138.351 69.0788 138.117 69.1406 137.865 69.1406Z" fill="white"/>
</g>
<g filter="url(#filter1_d_10358_76)">
<path d="M57 57.9946H52.7337L56.4639 35.5108H47.3779L29.4627 57.8748H22.048L22.0993 57.641L27.8999 52.7301C30.6149 50.5856 32.748 48.7376 34.3051 47.1976C35.8565 45.6576 36.9973 44.2545 37.7159 42.9997C38.4346 41.7449 38.908 40.4673 39.1304 39.1668C39.467 37.1877 39.2559 35.4367 38.4916 33.9024C37.733 32.3738 36.5125 31.1703 34.8299 30.3034C33.1473 29.4364 31.0769 29.0029 28.6186 29.0029C26.1603 29.0029 24.0329 29.4535 22.048 30.3604C20.0574 31.2673 18.4148 32.5449 17.1086 34.199C15.8082 35.853 14.964 37.8037 14.5876 40.0509H21.4776C21.6658 38.9558 22.048 38.009 22.6184 37.2162C23.1887 36.4234 23.9017 35.8131 24.7629 35.391C25.6242 34.969 26.5767 34.7522 27.6319 34.7522C28.687 34.7522 29.497 34.9461 30.2156 35.3397C30.9286 35.7332 31.459 36.2979 31.7898 37.0337C32.1206 37.7695 32.2062 38.6421 32.0408 39.6517C31.8868 40.5585 31.556 41.397 31.0598 42.1727C30.5635 42.9484 29.8905 43.7412 29.0464 44.5454C28.2022 45.3496 27.1756 46.2565 25.9721 47.2603L11.8727 58.5764L11 63.8067H28.3448H44.8341L43.8188 69.8411H50.7602L51.764 63.8067H56.0247L56.9943 57.9889L57 57.9946ZM36.6608 57.7266L48.0795 43.4275H48.3476L45.9406 57.9946H36.6322L36.6665 57.7266H36.6608Z" fill="#FF532D"/>
</g>
<mask id="mask0_10358_76" style="mask-type:alpha" maskUnits="userSpaceOnUse" x="11" y="29" width="46" height="41">
<path d="M57 57.9946H52.7337L56.4639 35.5108H47.3779L29.4627 57.8748H22.048L22.0993 57.641L27.8999 52.7301C30.6149 50.5856 32.748 48.7376 34.3051 47.1976C35.8565 45.6576 36.9973 44.2545 37.7159 42.9997C38.4346 41.7449 38.908 40.4673 39.1304 39.1668C39.467 37.1877 39.2559 35.4367 38.4916 33.9024C37.733 32.3738 36.5125 31.1703 34.8299 30.3034C33.1473 29.4364 31.0769 29.0029 28.6186 29.0029C26.1603 29.0029 24.0329 29.4535 22.048 30.3604C20.0574 31.2673 18.4148 32.5449 17.1086 34.199C15.8082 35.853 14.964 37.8037 14.5876 40.0509H21.4776C21.6658 38.9558 22.048 38.009 22.6184 37.2162C23.1887 36.4234 23.9017 35.8131 24.7629 35.391C25.6242 34.969 26.5767 34.7522 27.6319 34.7522C28.687 34.7522 29.497 34.9461 30.2156 35.3397C30.9286 35.7332 31.459 36.2979 31.7898 37.0337C32.1206 37.7695 32.2062 38.6421 32.0408 39.6517C31.8868 40.5585 31.556 41.397 31.0598 42.1727C30.5635 42.9484 29.8905 43.7412 29.0464 44.5454C28.2022 45.3496 27.1756 46.2565 25.9721 47.2603L11.8727 58.5764L11 63.8067H28.3448H44.8341L43.8188 69.8411H50.7602L51.764 63.8067H56.0247L56.9943 57.9889L57 57.9946ZM36.6608 57.7266L48.0795 43.4275H48.3476L45.9406 57.9946H36.6322L36.6665 57.7266H36.6608Z" fill="#FF532D"/>
</mask>
<g mask="url(#mask0_10358_76)">
<g style="mix-blend-mode:overlay">
<rect x="-35.3203" y="30.9326" width="100.21" height="43.3637" transform="rotate(-18.723 -35.3203 30.9326)" fill="url(#paint1_linear_10358_76)"/>
</g>
</g>
<defs>
<filter id="filter0_d_10358_76" x="63.4731" y="35.7305" width="78.5542" height="34.3765" filterUnits="userSpaceOnUse" color-interpolation-filters="sRGB">
<feFlood flood-opacity="0" result="BackgroundImageFix"/>
<feColorMatrix in="SourceAlpha" type="matrix" values="0 0 0 0 0 0 0 0 0 0 0 0 0 0 0 0 0 0 127 0" result="hardAlpha"/>
<feOffset dx="0.908727" dy="0.908727"/>
<feComposite in2="hardAlpha" operator="out"/>
<feColorMatrix type="matrix" values="0 0 0 0 0 0 0 0 0 0 0 0 0 0 0 0 0 0 0.25 0"/>
<feBlend mode="normal" in2="BackgroundImageFix" result="effect1_dropShadow_10358_76"/>
<feBlend mode="normal" in="SourceGraphic" in2="effect1_dropShadow_10358_76" result="shape"/>
</filter>
<filter id="filter1_d_10358_76" x="11" y="29.0029" width="46.8709" height="41.7088" filterUnits="userSpaceOnUse" color-interpolation-filters="sRGB">
<feFlood flood-opacity="0" result="BackgroundImageFix"/>
<feColorMatrix in="SourceAlpha" type="matrix" values="0 0 0 0 0 0 0 0 0 0 0 0 0 0 0 0 0 0 127 0" result="hardAlpha"/>
<feOffset dx="0.870863" dy="0.870863"/>
<feComposite in2="hardAlpha" operator="out"/>
<feColorMatrix type="matrix" values="0 0 0 0 0 0 0 0 0 0 0 0 0 0 0 0 0 0 0.25 0"/>
<feBlend mode="normal" in2="BackgroundImageFix" result="effect1_dropShadow_10358_76"/>
<feBlend mode="normal" in="SourceGraphic" in2="effect1_dropShadow_10358_76" result="shape"/>
</filter>
<linearGradient id="paint0_linear_10358_76" x1="-4.31098" y1="5.10975" x2="97.7727" y2="362.318" gradientUnits="userSpaceOnUse">
<stop stop-color="#0B111D"/>
<stop offset="1" stop-color="#0B111D" stop-opacity="0"/>
</linearGradient>
<linearGradient id="paint1_linear_10358_76" x1="71.7253" y1="41.9769" x2="14.7849" y2="74.2963" gradientUnits="userSpaceOnUse">
<stop stop-color="white"/>
<stop offset="1" stop-color="white" stop-opacity="0"/>
</linearGradient>
</defs>
</svg>
