<svg width="1385" height="117" viewBox="0 0 1385 117" fill="none" xmlns="http://www.w3.org/2000/svg">
<path opacity="0.3" d="M0 1.87813H89.0961V17.0182H52.5395V115.141H36.5567V17.0182H0V1.87813ZM212.444 57.7813C212.558 58.1455 212.558 58.5479 212.444 58.912C212.387 66.4821 210.996 73.8221 208.272 80.7789C205.491 87.8506 201.547 94.1366 196.537 99.4452C191.508 104.773 185.393 109.066 178.383 112.228C171.334 115.39 163.429 117 154.913 117C146.398 117 138.53 115.409 131.539 112.305C124.548 109.2 118.471 104.926 113.442 99.5985C108.432 94.2899 104.507 88.0231 101.783 80.9897C99.0592 73.9754 97.6876 66.5012 97.6876 58.7971V58.4904C97.6876 50.7671 99.0973 43.2737 101.86 36.2211C104.622 29.1494 108.584 22.8634 113.594 17.5548C118.604 12.2462 124.719 7.93415 131.749 4.77199C138.797 1.60983 146.703 0 155.218 0C163.733 0 171.601 1.5715 178.592 4.69533C185.584 7.8 191.66 12.0737 196.69 17.4015C201.7 22.7101 205.624 28.9769 208.348 36.0103C211.015 42.9096 212.387 50.2305 212.444 57.8005V57.7813ZM171.658 98.5061C176.649 96.2639 180.974 93.1784 184.517 89.3263C188.079 85.455 190.918 80.8555 192.937 75.6619C194.975 70.4683 196.004 64.8147 196.004 58.8162V58.5096C196.004 52.5111 194.975 46.8192 192.937 41.5872C190.899 36.3553 188.022 31.7558 184.364 27.8654C180.707 23.9941 176.325 20.8703 171.334 18.5705C166.362 16.2899 160.838 15.14 154.913 15.14C148.989 15.14 143.445 16.2708 138.473 18.4939C133.482 20.7361 129.177 23.8216 125.615 27.6737C122.052 31.5641 119.214 36.1445 117.195 41.3381C115.156 46.5125 114.128 52.1853 114.128 58.1838V58.4904C114.128 64.4889 115.156 70.1808 117.195 75.4128C119.214 80.6447 122.11 85.2442 125.767 89.1346C129.425 93.0059 133.806 96.1297 138.797 98.4295C143.769 100.71 149.294 101.86 155.218 101.86C161.143 101.86 166.686 100.729 171.658 98.5061ZM310.817 23.1509C312.837 27.6545 313.865 32.8098 313.865 38.4634V38.77C313.865 44.9794 312.646 50.5179 310.246 55.1941C307.846 59.8511 304.569 63.8182 300.473 66.9995C296.416 70.1617 291.634 72.5572 286.243 74.1287C280.909 75.6811 275.194 76.4668 269.231 76.4668H244.638V115.122H228.655V1.87813H271.251C277.518 1.87813 283.347 2.72138 288.529 4.3887C293.768 6.07518 298.321 8.50909 302.054 11.6138C305.826 14.7568 308.779 18.628 310.798 23.1509H310.817ZM281.481 60.0044C284.929 58.9312 287.938 57.3789 290.377 55.3857C292.796 53.431 294.682 51.0737 295.958 48.4098C297.235 45.7459 297.882 42.6988 297.882 39.3258V39.0192C297.882 31.7174 295.501 26.3705 290.586 22.6909C285.576 18.9346 278.794 17.0182 270.394 17.0182H244.638V61.6526H269.784C274.051 61.6526 277.994 61.0968 281.481 60.0044ZM322.419 17.0182H358.975V115.141H374.958V17.0182H411.515V1.87813H322.419V17.0182ZM426.012 115.141H441.995V1.87813H426.012V115.141ZM491.181 65.5238H550.598V50.6904H491.181V16.7115H557.608V1.87813H475.198V115.141H558.37V100.308H491.162V65.5238H491.181ZM644.285 69.7592L678.194 115.122H658.477L626.892 72.5573H598.546V115.122H582.563V1.87813H631.236C638.151 1.87813 644.418 2.89386 649.828 4.88698C655.296 6.89926 659.887 9.75479 663.487 13.3769C666.345 16.2516 668.573 19.6821 670.116 23.5533C671.64 27.4054 672.421 31.6983 672.421 36.2978V36.6044C672.421 41.4147 671.64 45.7843 670.116 49.5789C668.573 53.3926 666.364 56.7656 663.563 59.5828C660.782 62.3808 657.448 64.7189 653.638 66.5204C650.724 67.9002 647.58 68.9926 644.266 69.7592H644.285ZM598.565 57.743H630.245C634.093 57.743 637.694 57.2447 640.932 56.2482C644.132 55.2708 646.933 53.8717 649.238 52.0894C651.505 50.3455 653.295 48.1799 654.572 45.6693C655.829 43.1779 656.477 40.284 656.477 37.0452V36.7386C656.477 30.5101 654.305 25.7956 649.866 22.3268C645.333 18.8005 638.798 16.999 630.417 16.999H598.584V57.7238L598.565 57.743ZM725.952 17.0182H762.508V115.141H778.491V17.0182H815.048V1.87813H725.952V17.0182ZM893.857 69.7592L927.766 115.122H908.049L876.464 72.5573H848.118V115.122H832.135V1.87813H880.808C887.723 1.87813 893.99 2.89386 899.4 4.88698C904.868 6.89926 909.459 9.75479 913.059 13.3769C915.917 16.2516 918.145 19.6821 919.688 23.5533C921.212 27.4054 921.993 31.6983 921.993 36.2978V36.6044C921.993 41.4147 921.212 45.7843 919.688 49.5789C918.145 53.3926 915.936 56.7656 913.135 59.5828C910.354 62.3808 907.02 64.7189 903.21 66.5204C900.296 67.9002 897.152 68.9926 893.838 69.7592H893.857ZM848.118 57.743H879.798C883.646 57.743 887.247 57.2447 890.485 56.2482C893.685 55.2708 896.486 53.8717 898.791 52.0894C901.058 50.3455 902.848 48.1799 904.125 45.6693C905.382 43.1779 906.03 40.284 906.03 37.0452V36.7386C906.03 30.5101 903.858 25.7956 899.419 22.3268C894.886 18.8005 888.351 16.999 879.97 16.999H848.137V57.7238L848.118 57.743ZM1002.61 1.09238L1053.91 115.141H1036.64L1023.87 86.1833H967.008L954.092 115.141H937.443L988.725 1.09238H1002.61ZM995.507 21.9052L973.466 71.369H1017.4L995.507 21.9052ZM1163.3 35.9528C1166.17 42.7754 1167.64 50.2688 1167.64 58.203V58.5096C1167.64 66.4437 1166.17 73.9563 1163.3 80.8364C1160.4 87.7165 1156.27 93.7725 1150.97 98.8319C1145.7 103.872 1139.31 107.897 1132.02 110.791C1124.72 113.685 1116.63 115.141 1107.94 115.141H1068.3V1.87813H1107.94C1116.63 1.87813 1124.72 3.31548 1132.02 6.15184C1139.31 8.98821 1145.7 12.9936 1150.97 18.0339C1156.27 23.0934 1160.42 29.1111 1163.3 35.9528ZM1125.92 96.8388C1131.26 94.7499 1135.85 91.8369 1139.52 88.1764C1143.22 84.516 1146.11 80.1273 1148.13 75.1061C1150.15 70.085 1151.18 64.6039 1151.18 58.8354V58.5287C1151.18 52.7602 1150.15 47.2791 1148.13 42.2388C1146.11 37.2177 1143.22 32.7907 1139.52 29.0919C1135.83 25.374 1131.26 22.4034 1125.9 20.2762C1120.55 18.1297 1114.49 17.0373 1107.92 17.0373H1084.26V100.02H1107.92C1114.51 100.02 1120.55 98.9661 1125.92 96.858V96.8388ZM1203.53 65.5238H1262.95V50.6904H1203.53V16.7115H1269.96V1.87813H1187.55V115.141H1270.72V100.308H1203.51V65.5238H1203.53ZM1385 115.141H1365.28L1333.7 72.5764H1305.35V115.141H1289.37V1.87813H1338.04C1344.96 1.87813 1351.22 2.89386 1356.63 4.88698C1362.1 6.89926 1366.69 9.75479 1370.29 13.3769C1373.15 16.2516 1375.38 19.6821 1376.92 23.5533C1378.45 27.4054 1379.23 31.6983 1379.23 36.2978V36.6044C1379.23 41.4147 1378.45 45.7843 1376.92 49.5789C1375.38 53.3926 1373.17 56.7656 1370.37 59.5828C1367.59 62.3808 1364.25 64.7189 1360.44 66.5204C1357.53 67.9002 1354.39 68.9926 1351.07 69.7592L1384.98 115.122L1385 115.141ZM1305.37 57.743H1337.05C1340.9 57.743 1344.5 57.2447 1347.74 56.2482C1350.94 55.2708 1353.74 53.8717 1356.04 52.0894C1358.31 50.3455 1360.1 48.1799 1361.38 45.6693C1362.64 43.1779 1363.28 40.284 1363.28 37.0452V36.7386C1363.28 30.5101 1361.11 25.7956 1356.67 22.3268C1352.14 18.8005 1345.6 16.999 1337.22 16.999H1305.39V57.7238L1305.37 57.743Z" fill="#45D1FF"/>
</svg>
