<svg width="132" height="30" viewBox="0 0 132 30" fill="none" xmlns="http://www.w3.org/2000/svg">
<path d="M35.1788 26V22.3567L46.2872 11.3912V10.9983H35.536V8.53374H49.2518V12.177L38.1077 23.1425V23.5712H49.5376V26H35.1788ZM60.1085 26.5001C58.3464 26.5001 56.7986 26.131 55.4652 25.3928C54.1317 24.6308 53.0958 23.5712 52.3577 22.2139C51.6195 20.8566 51.2504 19.285 51.2504 17.499V17.0704C51.2504 15.2607 51.6195 13.6772 52.3577 12.3199C53.0958 10.9626 54.1198 9.91484 55.4294 9.17667C56.7391 8.41467 58.2393 8.03368 59.9299 8.03368C61.573 8.03368 63.0255 8.39086 64.2876 9.10523C65.5496 9.79578 66.5378 10.7959 67.2522 12.1056C67.9666 13.4152 68.3238 14.9511 68.3238 16.7132V17.9991H54.0721C54.1436 19.8803 54.7508 21.3566 55.8938 22.4282C57.0368 23.4759 58.4655 23.9998 60.18 23.9998C61.6801 23.9998 62.835 23.6545 63.6447 22.9639C64.4543 22.2734 65.0734 21.4519 65.502 20.4994L67.9309 21.6781C67.5737 22.4163 67.0736 23.1544 66.4307 23.8926C65.8116 24.6308 64.99 25.2499 63.9661 25.75C62.966 26.25 61.6801 26.5001 60.1085 26.5001ZM54.1079 15.6774H65.4663C65.371 14.0582 64.8115 12.7961 63.7875 11.8913C62.7874 10.9864 61.5016 10.534 59.9299 10.534C58.3345 10.534 57.0249 10.9864 56.0009 11.8913C54.977 12.7961 54.346 14.0582 54.1079 15.6774ZM79.4606 26.5001C77.6985 26.5001 76.1507 26.131 74.8172 25.3928C73.4838 24.6308 72.4479 23.5712 71.7097 22.2139C70.9716 20.8566 70.6025 19.285 70.6025 17.499V17.0704C70.6025 15.2607 70.9716 13.6772 71.7097 12.3199C72.4479 10.9626 73.4718 9.91484 74.7815 9.17667C76.0912 8.41467 77.5914 8.03368 79.282 8.03368C80.9251 8.03368 82.3776 8.39086 83.6397 9.10523C84.9017 9.79578 85.8899 10.7959 86.6043 12.1056C87.3187 13.4152 87.6758 14.9511 87.6758 16.7132V17.9991H73.4242C73.4957 19.8803 74.1029 21.3566 75.2459 22.4282C76.3888 23.4759 77.8176 23.9998 79.5321 23.9998C81.0322 23.9998 82.1871 23.6545 82.9967 22.9639C83.8063 22.2734 84.4255 21.4519 84.8541 20.4994L87.2829 21.6781C86.9258 22.4163 86.4257 23.1544 85.7828 23.8926C85.1636 24.6308 84.3421 25.2499 83.3182 25.75C82.3181 26.25 81.0322 26.5001 79.4606 26.5001ZM73.4599 15.6774H84.8184C84.7231 14.0582 84.1635 12.7961 83.1396 11.8913C82.1395 10.9864 80.8536 10.534 79.282 10.534C77.6866 10.534 76.3769 10.9864 75.353 11.8913C74.3291 12.7961 73.6981 14.0582 73.4599 15.6774ZM90.8118 26V8.53374H93.5621V11.4984H94.0622C94.4432 10.6649 95.0861 9.91484 95.991 9.2481C96.9196 8.55755 98.2769 8.21227 100.063 8.21227C101.373 8.21227 102.539 8.48611 103.563 9.03379C104.611 9.58147 105.444 10.3911 106.064 11.4626C106.683 12.5342 106.992 13.8558 106.992 15.4274V26H104.17V15.6417C104.17 13.9034 103.73 12.6413 102.849 11.8555C101.992 11.0697 100.825 10.6768 99.3485 10.6768C97.6578 10.6768 96.2767 11.2245 95.2051 12.3199C94.1574 13.4152 93.6335 15.0464 93.6335 17.2133V26H90.8118ZM116.872 26C115.872 26 115.098 25.7262 114.551 25.1785C114.027 24.6308 113.765 23.8807 113.765 22.9282V10.9983H108.514V8.53374H113.765V2.31875H116.586V8.53374H122.301V10.9983H116.586V22.4996C116.586 23.214 116.932 23.5712 117.622 23.5712H121.516V26H116.872ZM125.086 26V8.53374H127.908V26H125.086ZM126.515 5.81914C125.896 5.81914 125.372 5.61674 124.943 5.21193C124.538 4.80712 124.336 4.29516 124.336 3.67604C124.336 3.03311 124.538 2.50924 124.943 2.10444C125.372 1.69963 125.896 1.49722 126.515 1.49722C127.134 1.49722 127.646 1.69963 128.051 2.10444C128.455 2.50924 128.658 3.03311 128.658 3.67604C128.658 4.29516 128.455 4.80712 128.051 5.21193C127.646 5.61674 127.134 5.81914 126.515 5.81914Z" fill="white"/>
<path d="M23.9158 5.37207C23.9158 11.4462 19.9118 16.785 11.9854 17.357V5.37207H23.9158Z" fill="#2A3EF4"/>
<path d="M8.33428 5.37207C8.33428 8.38918 5.53716 11.041 0 11.3251V5.37207H8.33428Z" fill="#2A3EF4"/>
<path d="M0.0548935 29.3418C0.0548935 23.2676 4.05895 17.9289 11.9854 17.3569V29.3418H0.0548935Z" fill="#2A3EF4"/>
<path d="M15.4775 29.1841C15.4775 26.167 18.2746 23.5152 23.8118 23.231V29.1841H15.4775Z" fill="#2A3EF4"/>
</svg>
