<svg width="33" height="33" viewBox="0 0 33 33" fill="none" xmlns="http://www.w3.org/2000/svg">
<g clip-path="url(#clip0_2656_1314)">
<path d="M16.4993 32.1771C7.85143 32.1771 0.822266 25.1479 0.822266 16.5C0.822266 7.8521 7.85143 0.822937 16.4993 0.822937C25.1473 0.822937 32.1764 7.8521 32.1764 16.5C32.1764 25.1479 25.1473 32.1771 16.4993 32.1771ZM16.4993 3.01044C9.06185 3.01044 3.00977 9.06252 3.00977 16.5C3.00977 23.9375 9.06185 29.9896 16.4993 29.9896C23.9368 29.9896 29.9889 23.9375 29.9889 16.5C29.9889 9.06252 23.9368 3.01044 16.4993 3.01044Z" fill="url(#paint0_linear_2656_1314)"/>
<path d="M16.4997 20.8896C16.2227 20.8896 15.9456 20.7875 15.7268 20.5687L10.5789 15.4208C10.156 14.9979 10.156 14.2979 10.5789 13.875C11.0018 13.4521 11.7018 13.4521 12.1247 13.875L16.4997 18.25L20.8747 13.875C21.2977 13.4521 21.9977 13.4521 22.4206 13.875C22.8435 14.2979 22.8435 14.9979 22.4206 15.4208L17.2727 20.5687C17.0539 20.7875 16.7768 20.8896 16.4997 20.8896Z" fill="url(#paint1_linear_2656_1314)"/>
</g>
<defs>
<linearGradient id="paint0_linear_2656_1314" x1="16.4993" y1="0.822937" x2="16.4993" y2="32.1771" gradientUnits="userSpaceOnUse">
<stop stop-color="#0052B4"/>
<stop offset="1" stop-color="#45D1FF"/>
</linearGradient>
<linearGradient id="paint1_linear_2656_1314" x1="16.4997" y1="13.5578" x2="16.4997" y2="20.8896" gradientUnits="userSpaceOnUse">
<stop stop-color="#0052B4"/>
<stop offset="1" stop-color="#45D1FF"/>
</linearGradient>
<clipPath id="clip0_2656_1314">
<rect width="33" height="33" fill="white"/>
</clipPath>
</defs>
</svg>
