<svg width="33" height="33" viewBox="0 0 33 33" fill="none" xmlns="http://www.w3.org/2000/svg">
<g clip-path="url(#clip0_2656_1342)">
<path d="M16.4993 0.822898C7.85143 0.822898 0.822266 7.85206 0.822266 16.5C0.822266 25.1479 7.85143 32.1771 16.4993 32.1771C25.1473 32.1771 32.1764 25.1479 32.1764 16.5C32.1764 7.85206 25.1473 0.822898 16.4993 0.822898ZM16.4993 29.9896C9.06185 29.9896 3.00977 23.9375 3.00977 16.5C3.00977 9.06248 9.06185 3.0104 16.4993 3.0104C23.9368 3.0104 29.9889 9.06248 29.9889 16.5C29.9889 23.9375 23.9368 29.9896 16.4993 29.9896Z" fill="url(#paint0_linear_2656_1342)"/>
<path d="M16.4997 12.1104C16.2227 12.1104 15.9456 12.2125 15.7268 12.4313L10.5789 17.5792C10.156 18.0021 10.156 18.7021 10.5789 19.125C11.0018 19.5479 11.7018 19.5479 12.1247 19.125L16.4997 14.75L20.8747 19.125C21.2977 19.5479 21.9977 19.5479 22.4206 19.125C22.8435 18.7021 22.8435 18.0021 22.4206 17.5792L17.2727 12.4313C17.0539 12.2125 16.7768 12.1104 16.4997 12.1104Z" fill="url(#paint1_linear_2656_1342)"/>
</g>
<defs>
<linearGradient id="paint0_linear_2656_1342" x1="16.4993" y1="32.1771" x2="16.4993" y2="0.822897" gradientUnits="userSpaceOnUse">
<stop stop-color="#0052B4"/>
<stop offset="1" stop-color="#45D1FF"/>
</linearGradient>
<linearGradient id="paint1_linear_2656_1342" x1="16.4997" y1="19.4422" x2="16.4997" y2="12.1104" gradientUnits="userSpaceOnUse">
<stop stop-color="#0052B4"/>
<stop offset="1" stop-color="#45D1FF"/>
</linearGradient>
<clipPath id="clip0_2656_1342">
<rect width="33" height="33" fill="white"/>
</clipPath>
</defs>
</svg>
