<svg width="2007" height="148" viewBox="0 0 2007 148" fill="none" xmlns="http://www.w3.org/2000/svg">
<path d="M0.138377 117V8.50244H36.7987C45.3104 8.50244 52.2681 10.0388 57.6717 13.1115C63.1108 16.1488 67.137 20.2634 69.7506 25.4552C72.3641 30.647 73.6709 36.4391 73.6709 42.8317C73.6709 49.2243 72.3641 55.0342 69.7506 60.2613C67.1724 65.4884 63.1814 69.6559 57.7777 72.7639C52.374 75.8366 45.4516 77.373 37.0106 77.373H10.7338V65.718H36.5868C42.4143 65.718 47.0939 64.7114 50.6258 62.6982C54.1576 60.6851 56.7182 57.9656 58.3075 54.5397C59.9321 51.0785 60.7444 47.1759 60.7444 42.8317C60.7444 38.4876 59.9321 34.6026 58.3075 31.1767C56.7182 27.7509 54.1399 25.0667 50.5728 23.1242C47.0057 21.1464 42.273 20.1574 36.3749 20.1574H13.2768V117H0.138377ZM119.356 118.695C112.01 118.695 105.565 116.947 100.02 113.451C94.5101 109.954 90.2012 105.062 87.0932 98.7758C84.0205 92.4892 82.4842 85.143 82.4842 76.7372C82.4842 68.2609 84.0205 60.8617 87.0932 54.5397C90.2012 48.2178 94.5101 43.3085 100.02 39.812C105.565 36.3155 112.01 34.5673 119.356 34.5673C126.703 34.5673 133.131 36.3155 138.64 39.812C144.185 43.3085 148.494 48.2178 151.567 54.5397C154.675 60.8617 156.229 68.2609 156.229 76.7372C156.229 85.143 154.675 92.4892 151.567 98.7758C148.494 105.062 144.185 109.954 138.64 113.451C133.131 116.947 126.703 118.695 119.356 118.695ZM119.356 107.464C124.937 107.464 129.528 106.034 133.131 103.173C136.733 100.312 139.4 96.5508 141.13 91.8887C142.861 87.2267 143.726 82.1762 143.726 76.7372C143.726 71.2982 142.861 66.2301 141.13 61.5327C139.4 56.8354 136.733 53.0387 133.131 50.1426C129.528 47.2465 124.937 45.7985 119.356 45.7985C113.776 45.7985 109.185 47.2465 105.582 50.1426C101.98 53.0387 99.3133 56.8354 97.5827 61.5327C95.8521 66.2301 94.9869 71.2982 94.9869 76.7372C94.9869 82.1762 95.8521 87.2267 97.5827 91.8887C99.3133 96.5508 101.98 100.312 105.582 103.173C109.185 106.034 113.776 107.464 119.356 107.464ZM169.346 117V35.6268H181.425V47.9176H182.273C183.756 43.8913 186.44 40.6244 190.325 38.1168C194.21 35.6092 198.59 34.3554 203.464 34.3554C204.382 34.3554 205.53 34.373 206.907 34.4083C208.285 34.4437 209.327 34.4966 210.033 34.5673V47.2818C209.609 47.1759 208.638 47.017 207.119 46.805C205.636 46.5578 204.064 46.4342 202.404 46.4342C198.449 46.4342 194.917 47.2642 191.809 48.9241C188.736 50.5488 186.299 52.8091 184.498 55.7052C182.732 58.566 181.849 61.8329 181.849 65.506V117H169.346ZM310.397 147.515V104.497H309.337C308.419 105.981 307.112 107.853 305.417 110.113C303.722 112.338 301.302 114.333 298.159 116.099C295.016 117.83 290.831 118.695 285.604 118.695C278.822 118.695 272.836 116.982 267.644 113.556C262.452 110.095 258.391 105.221 255.459 98.9347C252.528 92.6128 251.062 85.143 251.062 76.5253C251.062 67.9783 252.528 60.5615 255.459 54.2748C258.391 47.9882 262.47 43.132 267.697 39.7061C272.924 36.2802 278.964 34.5673 285.815 34.5673C291.113 34.5673 295.298 35.4502 298.371 37.2162C301.479 38.9467 303.845 40.9246 305.47 43.1496C307.13 45.3393 308.419 47.1406 309.337 48.5533H310.821V35.6268H322.9V147.515H310.397ZM287.299 107.464C292.314 107.464 296.552 106.157 300.013 103.544C303.475 100.895 306.106 97.2395 307.907 92.5775C309.708 87.8801 310.609 82.4588 310.609 76.3134C310.609 70.2387 309.726 64.9233 307.96 60.3672C306.194 55.7759 303.58 52.2087 300.119 49.6658C296.658 47.0876 292.385 45.7985 287.299 45.7985C282.001 45.7985 277.586 47.1582 274.054 49.8777C270.558 52.5619 267.927 56.2173 266.161 60.844C264.43 65.4354 263.565 70.5919 263.565 76.3134C263.565 82.1056 264.448 87.368 266.214 92.1007C268.015 96.798 270.664 100.542 274.16 103.332C277.692 106.087 282.072 107.464 287.299 107.464ZM391.1 83.7302V35.6268H403.603V117H391.1V103.226H390.253C388.346 107.358 385.379 110.872 381.353 113.768C377.326 116.629 372.24 118.06 366.095 118.06C361.009 118.06 356.489 116.947 352.533 114.722C348.577 112.462 345.469 109.071 343.209 104.55C340.949 99.9943 339.818 94.2551 339.818 87.3327V35.6268H352.321V86.4851C352.321 92.4185 353.981 97.1512 357.301 100.683C360.656 104.215 364.93 105.981 370.121 105.981C373.229 105.981 376.39 105.186 379.604 103.597C382.854 102.007 385.573 99.5705 387.763 96.2859C389.988 93.0013 391.1 88.8161 391.1 83.7302ZM454.653 118.695C446.812 118.695 440.048 116.965 434.362 113.503C428.711 110.007 424.35 105.133 421.277 98.8818C418.239 92.5951 416.721 85.2842 416.721 76.9491C416.721 68.614 418.239 61.2679 421.277 54.9106C424.35 48.518 428.623 43.5381 434.097 39.971C439.607 36.3685 446.035 34.5673 453.381 34.5673C457.619 34.5673 461.804 35.2736 465.937 36.6864C470.069 38.0991 473.83 40.3948 477.221 43.5734C480.611 46.7167 483.313 50.8843 485.326 56.0761C487.34 61.2679 488.346 67.6604 488.346 75.2539V80.5516H425.621V69.7442H475.632C475.632 65.1529 474.713 61.0559 472.877 57.4535C471.076 53.851 468.497 51.0079 465.142 48.9241C461.822 46.8404 457.902 45.7985 453.381 45.7985C448.401 45.7985 444.092 47.0346 440.455 49.5069C436.852 51.9438 434.08 55.1225 432.137 59.0428C430.195 62.9631 429.223 67.166 429.223 71.6514V78.8563C429.223 85.0017 430.283 90.2111 432.402 94.4846C434.556 98.7228 437.541 101.954 441.355 104.179C445.17 106.369 449.602 107.464 454.653 107.464C457.937 107.464 460.904 107.005 463.553 106.087C466.237 105.133 468.55 103.72 470.493 101.848C472.435 99.9413 473.936 97.575 474.996 94.7495L487.075 98.1401C485.803 102.237 483.666 105.839 480.664 108.947C477.662 112.02 473.954 114.422 469.539 116.152C465.124 117.848 460.162 118.695 454.653 118.695ZM447.024 24.6075L459.95 0.0260656H474.572L458.043 24.6075H447.024ZM533.15 20.1574V8.50244H614.523V20.1574H580.406V117H567.268V20.1574H533.15ZM618.688 117V35.6268H630.767V47.9176H631.614C633.098 43.8913 635.782 40.6244 639.667 38.1168C643.552 35.6092 647.931 34.3554 652.805 34.3554C653.724 34.3554 654.871 34.373 656.249 34.4083C657.626 34.4437 658.668 34.4966 659.374 34.5673V47.2818C658.951 47.1759 657.979 47.017 656.461 46.805C654.977 46.5578 653.406 46.4342 651.746 46.4342C647.79 46.4342 644.258 47.2642 641.15 48.9241C638.078 50.5488 635.641 52.8091 633.839 55.7052C632.073 58.566 631.191 61.8329 631.191 65.506V117H618.688ZM692.173 118.907C687.017 118.907 682.337 117.936 678.134 115.993C673.931 114.016 670.594 111.172 668.122 107.464C665.649 103.72 664.413 99.1996 664.413 93.9019C664.413 89.2399 665.331 85.4608 667.168 82.5647C669.004 79.6333 671.459 77.3376 674.532 75.6777C677.604 74.0177 680.995 72.7816 684.703 71.9693C688.447 71.1216 692.209 70.4506 695.988 69.9561C700.932 69.3204 704.941 68.8436 708.013 68.5257C711.121 68.1726 713.382 67.5898 714.795 66.7775C716.243 65.9652 716.967 64.5524 716.967 62.5393V62.1155C716.967 56.8884 715.536 52.8268 712.675 49.9307C709.85 47.0346 705.559 45.5866 699.802 45.5866C693.833 45.5866 689.154 46.8933 685.763 49.5069C682.372 52.1204 679.988 54.9106 678.611 57.8773L666.744 53.6391C668.863 48.6946 671.689 44.8449 675.22 42.0901C678.788 39.2999 682.673 37.3574 686.875 36.2626C691.114 35.1324 695.281 34.5673 699.378 34.5673C701.992 34.5673 704.994 34.8851 708.384 35.5209C711.81 36.1213 715.112 37.3751 718.291 39.2823C721.505 41.1894 724.172 44.0679 726.291 47.9176C728.41 51.7673 729.469 56.9237 729.469 63.3869V117H716.967V105.981H716.331C715.483 107.747 714.071 109.636 712.093 111.649C710.115 113.662 707.484 115.375 704.199 116.788C700.914 118.201 696.906 118.907 692.173 118.907ZM694.08 107.676C699.025 107.676 703.192 106.705 706.583 104.762C710.009 102.82 712.587 100.312 714.318 97.2395C716.084 94.1668 716.967 90.9352 716.967 87.5446V76.1015C716.437 76.7372 715.271 77.32 713.47 77.8498C711.704 78.3442 709.656 78.7857 707.325 79.1742C705.029 79.5274 702.786 79.8452 700.597 80.1278C698.442 80.375 696.694 80.5869 695.352 80.7635C692.103 81.1873 689.065 81.876 686.24 82.8296C683.45 83.7479 681.189 85.143 679.459 87.0148C677.763 88.8514 676.916 91.359 676.916 94.5376C676.916 98.8818 678.523 102.166 681.737 104.391C684.986 106.581 689.101 107.676 694.08 107.676ZM777.049 118.695C770.268 118.695 764.281 116.982 759.089 113.556C753.898 110.095 749.836 105.221 746.905 98.9347C743.973 92.6128 742.507 85.143 742.507 76.5253C742.507 67.9783 743.973 60.5615 746.905 54.2748C749.836 47.9882 753.915 43.132 759.142 39.7061C764.369 36.2802 770.409 34.5673 777.261 34.5673C782.558 34.5673 786.744 35.4502 789.816 37.2162C792.924 38.9467 795.291 40.9246 796.915 43.1496C798.575 45.3393 799.864 47.1406 800.783 48.5533H801.842V8.50244H814.345V117H802.266V104.497H800.783C799.864 105.981 798.557 107.853 796.862 110.113C795.167 112.338 792.748 114.333 789.604 116.099C786.461 117.83 782.276 118.695 777.049 118.695ZM778.744 107.464C783.759 107.464 787.997 106.157 791.459 103.544C794.92 100.895 797.551 97.2395 799.352 92.5775C801.153 87.8801 802.054 82.4588 802.054 76.3134C802.054 70.2387 801.171 64.9233 799.405 60.3672C797.639 55.7759 795.026 52.2087 791.564 49.6658C788.103 47.0876 783.83 45.7985 778.744 45.7985C773.446 45.7985 769.031 47.1582 765.5 49.8777C762.003 52.5619 759.372 56.2173 757.606 60.844C755.875 65.4354 755.01 70.5919 755.01 76.3134C755.01 82.1056 755.893 87.368 757.659 92.1007C759.46 96.798 762.109 100.542 765.606 103.332C769.137 106.087 773.517 107.464 778.744 107.464ZM867.129 118.695C859.289 118.695 852.525 116.965 846.839 113.503C841.188 110.007 836.826 105.133 833.754 98.8818C830.716 92.5951 829.197 85.2842 829.197 76.9491C829.197 68.614 830.716 61.2679 833.754 54.9106C836.826 48.518 841.1 43.5381 846.574 39.971C852.084 36.3685 858.512 34.5673 865.858 34.5673C870.096 34.5673 874.281 35.2736 878.413 36.6864C882.546 38.0991 886.307 40.3948 889.698 43.5734C893.088 46.7167 895.79 50.8843 897.803 56.0761C899.816 61.2679 900.823 67.6604 900.823 75.2539V80.5516H838.098V69.7442H888.108C888.108 65.1529 887.19 61.0559 885.353 57.4535C883.552 53.851 880.974 51.0079 877.619 48.9241C874.299 46.8404 870.379 45.7985 865.858 45.7985C860.878 45.7985 856.569 47.0346 852.931 49.5069C849.329 51.9438 846.556 55.1225 844.614 59.0428C842.671 62.9631 841.7 67.166 841.7 71.6514V78.8563C841.7 85.0017 842.76 90.2111 844.879 94.4846C847.033 98.7228 850.018 101.954 853.832 104.179C857.646 106.369 862.079 107.464 867.129 107.464C870.414 107.464 873.381 107.005 876.029 106.087C878.714 105.133 881.027 103.72 882.969 101.848C884.912 99.9413 886.413 97.575 887.473 94.7495L899.551 98.1401C898.28 102.237 896.143 105.839 893.141 108.947C890.139 112.02 886.431 114.422 882.016 116.152C877.601 117.848 872.639 118.695 867.129 118.695ZM937.82 118.907C932.664 118.907 927.984 117.936 923.781 115.993C919.578 114.016 916.241 111.172 913.768 107.464C911.296 103.72 910.06 99.1996 910.06 93.9019C910.06 89.2399 910.978 85.4608 912.815 82.5647C914.651 79.6333 917.106 77.3376 920.179 75.6777C923.251 74.0177 926.642 72.7816 930.35 71.9693C934.094 71.1216 937.855 70.4506 941.634 69.9561C946.579 69.3204 950.588 68.8436 953.66 68.5257C956.768 68.1726 959.029 67.5898 960.441 66.7775C961.889 65.9652 962.613 64.5524 962.613 62.5393V62.1155C962.613 56.8884 961.183 52.8268 958.322 49.9307C955.497 47.0346 951.206 45.5866 945.449 45.5866C939.48 45.5866 934.8 46.8933 931.41 49.5069C928.019 52.1204 925.635 54.9106 924.258 57.8773L912.391 53.6391C914.51 48.6946 917.336 44.8449 920.867 42.0901C924.434 39.2999 928.319 37.3574 932.522 36.2626C936.761 35.1324 940.928 34.5673 945.025 34.5673C947.639 34.5673 950.641 34.8851 954.031 35.5209C957.457 36.1213 960.759 37.3751 963.938 39.2823C967.152 41.1894 969.818 44.0679 971.937 47.9176C974.057 51.7673 975.116 56.9237 975.116 63.3869V117H962.613V105.981H961.978C961.13 107.747 959.717 109.636 957.74 111.649C955.762 113.662 953.131 115.375 949.846 116.788C946.561 118.201 942.553 118.907 937.82 118.907ZM939.727 107.676C944.672 107.676 948.839 106.705 952.23 104.762C955.656 102.82 958.234 100.312 959.965 97.2395C961.73 94.1668 962.613 90.9352 962.613 87.5446V76.1015C962.084 76.7372 960.918 77.32 959.117 77.8498C957.351 78.3442 955.303 78.7857 952.972 79.1742C950.676 79.5274 948.433 79.8452 946.243 80.1278C944.089 80.375 942.341 80.5869 940.999 80.7635C937.749 81.1873 934.712 81.876 931.887 82.8296C929.096 83.7479 926.836 85.143 925.106 87.0148C923.41 88.8514 922.563 91.359 922.563 94.5376C922.563 98.8818 924.17 102.166 927.384 104.391C930.633 106.581 934.747 107.676 939.727 107.676ZM991.969 117V35.6268H1004.05V47.9176H1004.9C1006.38 43.8913 1009.06 40.6244 1012.95 38.1168C1016.83 35.6092 1021.21 34.3554 1026.09 34.3554C1027 34.3554 1028.15 34.373 1029.53 34.4083C1030.91 34.4437 1031.95 34.4966 1032.66 34.5673V47.2818C1032.23 47.1759 1031.26 47.017 1029.74 46.805C1028.26 46.5578 1026.69 46.4342 1025.03 46.4342C1021.07 46.4342 1017.54 47.2642 1014.43 48.9241C1011.36 50.5488 1008.92 52.8091 1007.12 55.7052C1005.35 58.566 1004.47 61.8329 1004.47 65.506V117H991.969ZM1110.56 118.695C1102.93 118.695 1096.36 116.894 1090.85 113.292C1085.34 109.689 1081.1 104.727 1078.13 98.405C1075.17 92.083 1073.68 84.8604 1073.68 76.7372C1073.68 68.4728 1075.2 61.1796 1078.24 54.8576C1081.31 48.5003 1085.59 43.5381 1091.06 39.971C1096.57 36.3685 1103 34.5673 1110.34 34.5673C1116.07 34.5673 1121.22 35.6268 1125.81 37.7459C1130.41 39.865 1134.17 42.8317 1137.1 46.6461C1140.03 50.4605 1141.85 54.9106 1142.56 59.9964H1130.05C1129.1 56.288 1126.98 53.0034 1123.7 50.1426C1120.45 47.2465 1116.07 45.7985 1110.56 45.7985C1105.68 45.7985 1101.41 47.0699 1097.74 49.6128C1094.1 52.1204 1091.26 55.6699 1089.21 60.2613C1087.19 64.8173 1086.19 70.168 1086.19 76.3134C1086.19 82.6001 1087.18 88.0744 1089.15 92.7364C1091.17 97.3984 1093.99 101.019 1097.63 103.597C1101.3 106.175 1105.61 107.464 1110.56 107.464C1113.81 107.464 1116.76 106.899 1119.4 105.769C1122.05 104.639 1124.3 103.014 1126.13 100.895C1127.97 98.7758 1129.28 96.2329 1130.05 93.2662H1142.56C1141.85 98.0694 1140.1 102.396 1137.31 106.246C1134.56 110.06 1130.9 113.097 1126.34 115.358C1121.82 117.583 1116.56 118.695 1110.56 118.695ZM1187.92 118.695C1180.58 118.695 1174.13 116.947 1168.59 113.451C1163.08 109.954 1158.77 105.062 1155.66 98.7758C1152.59 92.4892 1151.05 85.143 1151.05 76.7372C1151.05 68.2609 1152.59 60.8617 1155.66 54.5397C1158.77 48.2178 1163.08 43.3085 1168.59 39.812C1174.13 36.3155 1180.58 34.5673 1187.92 34.5673C1195.27 34.5673 1201.7 36.3155 1207.21 39.812C1212.75 43.3085 1217.06 48.2178 1220.13 54.5397C1223.24 60.8617 1224.8 68.2609 1224.8 76.7372C1224.8 85.143 1223.24 92.4892 1220.13 98.7758C1217.06 105.062 1212.75 109.954 1207.21 113.451C1201.7 116.947 1195.27 118.695 1187.92 118.695ZM1187.92 107.464C1193.5 107.464 1198.09 106.034 1201.7 103.173C1205.3 100.312 1207.97 96.5508 1209.7 91.8887C1211.43 87.2267 1212.29 82.1762 1212.29 76.7372C1212.29 71.2982 1211.43 66.2301 1209.7 61.5327C1207.97 56.8354 1205.3 53.0387 1201.7 50.1426C1198.09 47.2465 1193.5 45.7985 1187.92 45.7985C1182.34 45.7985 1177.75 47.2465 1174.15 50.1426C1170.55 53.0387 1167.88 56.8354 1166.15 61.5327C1164.42 66.2301 1163.55 71.2982 1163.55 76.7372C1163.55 82.1762 1164.42 87.2267 1166.15 91.8887C1167.88 96.5508 1170.55 100.312 1174.15 103.173C1177.75 106.034 1182.34 107.464 1187.92 107.464ZM1250.42 68.049V117H1237.91V35.6268H1249.99V48.3414H1251.05C1252.96 44.2092 1255.85 40.8892 1259.74 38.3817C1263.62 35.8387 1268.64 34.5673 1274.78 34.5673C1280.29 34.5673 1285.12 35.6975 1289.25 37.9578C1293.38 40.1829 1296.59 43.5734 1298.89 48.1295C1301.19 52.6502 1302.33 58.3718 1302.33 65.2941V117H1289.83V66.1418C1289.83 59.7492 1288.17 54.7693 1284.85 51.2022C1281.53 47.5997 1276.97 45.7985 1271.18 45.7985C1267.19 45.7985 1263.62 46.6638 1260.48 48.3944C1257.37 50.125 1254.92 52.6502 1253.12 55.9701C1251.32 59.29 1250.42 63.3163 1250.42 68.049ZM1442.93 8.50244V117H1430.22L1371.1 31.8125H1370.04V117H1356.9V8.50244H1369.61L1428.95 93.9019H1430.01V8.50244H1442.93ZM1494.62 118.695C1487.27 118.695 1480.83 116.947 1475.28 113.451C1469.77 109.954 1465.46 105.062 1462.36 98.7758C1459.28 92.4892 1457.75 85.143 1457.75 76.7372C1457.75 68.2609 1459.28 60.8617 1462.36 54.5397C1465.46 48.2178 1469.77 43.3085 1475.28 39.812C1480.83 36.3155 1487.27 34.5673 1494.62 34.5673C1501.96 34.5673 1508.39 36.3155 1513.9 39.812C1519.45 43.3085 1523.76 48.2178 1526.83 54.5397C1529.94 60.8617 1531.49 68.2609 1531.49 76.7372C1531.49 85.143 1529.94 92.4892 1526.83 98.7758C1523.76 105.062 1519.45 109.954 1513.9 113.451C1508.39 116.947 1501.96 118.695 1494.62 118.695ZM1494.62 107.464C1500.2 107.464 1504.79 106.034 1508.39 103.173C1512 100.312 1514.66 96.5508 1516.39 91.8887C1518.12 87.2267 1518.99 82.1762 1518.99 76.7372C1518.99 71.2982 1518.12 66.2301 1516.39 61.5327C1514.66 56.8354 1512 53.0387 1508.39 50.1426C1504.79 47.2465 1500.2 45.7985 1494.62 45.7985C1489.04 45.7985 1484.45 47.2465 1480.84 50.1426C1477.24 53.0387 1474.58 56.8354 1472.84 61.5327C1471.11 66.2301 1470.25 71.2982 1470.25 76.7372C1470.25 82.1762 1471.11 87.2267 1472.84 91.8887C1474.58 96.5508 1477.24 100.312 1480.84 103.173C1484.45 106.034 1489.04 107.464 1494.62 107.464ZM1602.25 53.851L1591.02 57.0297C1590.31 55.1578 1589.27 53.3389 1587.89 51.573C1586.55 49.7718 1584.71 48.2884 1582.38 47.1229C1580.05 45.9574 1577.07 45.3747 1573.43 45.3747C1568.45 45.3747 1564.3 46.5225 1560.98 48.8182C1557.69 51.0785 1556.05 53.957 1556.05 57.4535C1556.05 60.5615 1557.18 63.0161 1559.44 64.8173C1561.7 66.6186 1565.23 68.1196 1570.04 69.3204L1582.12 72.2871C1589.39 74.053 1594.81 76.7549 1598.38 80.3927C1601.95 83.9951 1603.73 88.6395 1603.73 94.3257C1603.73 98.9877 1602.39 103.155 1599.7 106.828C1597.06 110.501 1593.35 113.398 1588.58 115.517C1583.81 117.636 1578.27 118.695 1571.94 118.695C1563.65 118.695 1556.78 116.894 1551.34 113.292C1545.9 109.689 1542.45 104.427 1541.01 97.5043L1552.87 94.5376C1554 98.9171 1556.14 102.202 1559.28 104.391C1562.46 106.581 1566.61 107.676 1571.73 107.676C1577.56 107.676 1582.19 106.44 1585.61 103.968C1589.07 101.46 1590.8 98.4579 1590.8 94.9614C1590.8 92.136 1589.82 89.7697 1587.84 87.8625C1585.86 85.92 1582.82 84.4719 1578.73 83.5183L1565.16 80.3397C1557.71 78.5738 1552.24 75.8366 1548.74 72.1282C1545.28 68.3845 1543.55 63.7048 1543.55 58.0892C1543.55 53.4978 1544.84 49.4363 1547.42 45.9044C1550.03 42.3726 1553.58 39.6001 1558.06 37.587C1562.59 35.5739 1567.71 34.5673 1573.43 34.5673C1581.48 34.5673 1587.8 36.3332 1592.39 39.865C1597.02 43.3968 1600.31 48.0588 1602.25 53.851ZM1649.64 118.695C1642.3 118.695 1635.85 116.947 1630.31 113.451C1624.8 109.954 1620.49 105.062 1617.38 98.7758C1614.31 92.4892 1612.77 85.143 1612.77 76.7372C1612.77 68.2609 1614.31 60.8617 1617.38 54.5397C1620.49 48.2178 1624.8 43.3085 1630.31 39.812C1635.85 36.3155 1642.3 34.5673 1649.64 34.5673C1656.99 34.5673 1663.42 36.3155 1668.93 39.812C1674.47 43.3085 1678.78 48.2178 1681.85 54.5397C1684.96 60.8617 1686.51 68.2609 1686.51 76.7372C1686.51 85.143 1684.96 92.4892 1681.85 98.7758C1678.78 105.062 1674.47 109.954 1668.93 113.451C1663.42 116.947 1656.99 118.695 1649.64 118.695ZM1649.64 107.464C1655.22 107.464 1659.81 106.034 1663.42 103.173C1667.02 100.312 1669.69 96.5508 1671.42 91.8887C1673.15 87.2267 1674.01 82.1762 1674.01 76.7372C1674.01 71.2982 1673.15 66.2301 1671.42 61.5327C1669.69 56.8354 1667.02 53.0387 1663.42 50.1426C1659.81 47.2465 1655.22 45.7985 1649.64 45.7985C1644.06 45.7985 1639.47 47.2465 1635.87 50.1426C1632.27 53.0387 1629.6 56.8354 1627.87 61.5327C1626.14 66.2301 1625.27 71.2982 1625.27 76.7372C1625.27 82.1762 1626.14 87.2267 1627.87 91.8887C1629.6 96.5508 1632.27 100.312 1635.87 103.173C1639.47 106.034 1644.06 107.464 1649.64 107.464ZM1735.02 35.6268V46.2223H1692.85V35.6268H1735.02ZM1705.14 16.1312H1717.64V93.69C1717.64 97.2218 1718.16 99.8707 1719.18 101.637C1720.24 103.367 1721.58 104.533 1723.21 105.133C1724.87 105.698 1726.61 105.981 1728.45 105.981C1729.83 105.981 1730.96 105.91 1731.84 105.769C1732.72 105.592 1733.43 105.451 1733.96 105.345L1736.5 116.576C1735.66 116.894 1734.47 117.212 1732.95 117.53C1731.44 117.883 1729.51 118.06 1727.18 118.06C1723.65 118.06 1720.19 117.3 1716.8 115.782C1713.44 114.263 1710.65 111.949 1708.43 108.841C1706.24 105.733 1705.14 101.813 1705.14 97.0805V16.1312ZM1747.86 117V35.6268H1759.94V47.9176H1760.79C1762.27 43.8913 1764.95 40.6244 1768.84 38.1168C1772.72 35.6092 1777.1 34.3554 1781.98 34.3554C1782.9 34.3554 1784.04 34.373 1785.42 34.4083C1786.8 34.4437 1787.84 34.4966 1788.55 34.5673V47.2818C1788.12 47.1759 1787.15 47.017 1785.63 46.805C1784.15 46.5578 1782.58 46.4342 1780.92 46.4342C1776.96 46.4342 1773.43 47.2642 1770.32 48.9241C1767.25 50.5488 1764.81 52.8091 1763.01 55.7052C1761.25 58.566 1760.36 61.8329 1760.36 65.506V117H1747.86ZM1827.98 118.695C1820.63 118.695 1814.19 116.947 1808.64 113.451C1803.13 109.954 1798.83 105.062 1795.72 98.7758C1792.65 92.4892 1791.11 85.143 1791.11 76.7372C1791.11 68.2609 1792.65 60.8617 1795.72 54.5397C1798.83 48.2178 1803.13 43.3085 1808.64 39.812C1814.19 36.3155 1820.63 34.5673 1827.98 34.5673C1835.33 34.5673 1841.76 36.3155 1847.26 39.812C1852.81 43.3085 1857.12 48.2178 1860.19 54.5397C1863.3 60.8617 1864.85 68.2609 1864.85 76.7372C1864.85 85.143 1863.3 92.4892 1860.19 98.7758C1857.12 105.062 1852.81 109.954 1847.26 113.451C1841.76 116.947 1835.33 118.695 1827.98 118.695ZM1827.98 107.464C1833.56 107.464 1838.15 106.034 1841.76 103.173C1845.36 100.312 1848.02 96.5508 1849.75 91.8887C1851.49 87.2267 1852.35 82.1762 1852.35 76.7372C1852.35 71.2982 1851.49 66.2301 1849.75 61.5327C1848.02 56.8354 1845.36 53.0387 1841.76 50.1426C1838.15 47.2465 1833.56 45.7985 1827.98 45.7985C1822.4 45.7985 1817.81 47.2465 1814.21 50.1426C1810.6 53.0387 1807.94 56.8354 1806.21 61.5327C1804.48 66.2301 1803.61 71.2982 1803.61 76.7372C1803.61 82.1762 1804.48 87.2267 1806.21 91.8887C1807.94 96.5508 1810.6 100.312 1814.21 103.173C1817.81 106.034 1822.4 107.464 1827.98 107.464ZM1935.61 53.851L1924.38 57.0297C1923.67 55.1578 1922.63 53.3389 1921.25 51.573C1919.91 49.7718 1918.07 48.2884 1915.74 47.1229C1913.41 45.9574 1910.43 45.3747 1906.79 45.3747C1901.81 45.3747 1897.66 46.5225 1894.34 48.8182C1891.06 51.0785 1889.41 53.957 1889.41 57.4535C1889.41 60.5615 1890.54 63.0161 1892.8 64.8173C1895.06 66.6186 1898.6 68.1196 1903.4 69.3204L1915.48 72.2871C1922.75 74.053 1928.18 76.7549 1931.74 80.3927C1935.31 83.9951 1937.09 88.6395 1937.09 94.3257C1937.09 98.9877 1935.75 103.155 1933.07 106.828C1930.42 110.501 1926.71 113.398 1921.94 115.517C1917.17 117.636 1911.63 118.695 1905.31 118.695C1897.01 118.695 1890.14 116.894 1884.7 113.292C1879.26 109.689 1875.82 104.427 1874.37 97.5043L1886.24 94.5376C1887.37 98.9171 1889.5 102.202 1892.65 104.391C1895.82 106.581 1899.97 107.676 1905.1 107.676C1910.92 107.676 1915.55 106.44 1918.98 103.968C1922.44 101.46 1924.17 98.4579 1924.17 94.9614C1924.17 92.136 1923.18 89.7697 1921.2 87.8625C1919.22 85.92 1916.19 84.4719 1912.09 83.5183L1898.53 80.3397C1891.07 78.5738 1885.6 75.8366 1882.1 72.1282C1878.64 68.3845 1876.91 63.7048 1876.91 58.0892C1876.91 53.4978 1878.2 49.4363 1880.78 45.9044C1883.39 42.3726 1886.94 39.6001 1891.43 37.587C1895.95 35.5739 1901.07 34.5673 1906.79 34.5673C1914.84 34.5673 1921.17 36.3332 1925.76 39.865C1930.38 43.3968 1933.67 48.0588 1935.61 53.851ZM1966.26 86.4851V85.8493C1966.33 79.1036 1967.04 73.7352 1968.38 69.7442C1969.72 65.7533 1971.63 62.5217 1974.1 60.0494C1976.58 57.5771 1979.54 55.2991 1983 53.2153C1985.09 51.9438 1986.96 50.4428 1988.62 48.7122C1990.28 46.9463 1991.59 44.9155 1992.54 42.6198C1993.53 40.3242 1994.02 37.7812 1994.02 34.9911C1994.02 31.5299 1993.21 28.5279 1991.59 25.985C1989.96 23.442 1987.79 21.4819 1985.07 20.1045C1982.35 18.7271 1979.33 18.0384 1976.01 18.0384C1973.12 18.0384 1970.33 18.6388 1967.64 19.8396C1964.96 21.0404 1962.71 22.9299 1960.91 25.5082C1959.11 28.0864 1958.07 31.4593 1957.79 35.6268H1944.44C1944.72 29.6227 1946.27 24.4839 1949.1 20.2104C1951.96 15.9369 1955.72 12.67 1960.38 10.4096C1965.08 8.14925 1970.29 7.01907 1976.01 7.01907C1982.23 7.01907 1987.63 8.25521 1992.22 10.7275C1996.85 13.1998 2000.42 16.5903 2002.92 20.8991C2005.47 25.208 2006.74 30.1172 2006.74 35.6268C2006.74 39.5118 2006.14 43.026 2004.94 46.1693C2003.77 49.3126 2002.08 52.1204 1999.85 54.5927C1997.66 57.065 1995.01 59.2547 1991.9 61.1619C1988.8 63.1044 1986.31 65.1529 1984.43 67.3073C1982.56 69.4264 1981.2 71.9516 1980.36 74.883C1979.51 77.8144 1979.05 81.4699 1978.98 85.8493V86.4851H1966.26ZM1973.04 117.848C1970.43 117.848 1968.19 116.912 1966.32 115.04C1964.44 113.168 1963.51 110.925 1963.51 108.312C1963.51 105.698 1964.44 103.455 1966.32 101.584C1968.19 99.7117 1970.43 98.7758 1973.04 98.7758C1975.66 98.7758 1977.9 99.7117 1979.77 101.584C1981.64 103.455 1982.58 105.698 1982.58 108.312C1982.58 110.042 1982.14 111.632 1981.26 113.08C1980.41 114.528 1979.26 115.693 1977.81 116.576C1976.4 117.424 1974.81 117.848 1973.04 117.848Z" fill="url(#paint0_linear_2480_1238)"/>
<defs>
<linearGradient id="paint0_linear_2480_1238" x1="-13" y1="-132.656" x2="2158.18" y2="1046.55" gradientUnits="userSpaceOnUse">
<stop stop-color="#0052B4"/>
<stop offset="1" stop-color="#45D1FF"/>
</linearGradient>
</defs>
</svg>
