<svg width="3886" height="428" viewBox="0 0 3886 428" fill="none" xmlns="http://www.w3.org/2000/svg">
<path d="M89.5378 336L0.535918 10.5073H40.5868L108.61 275.606H111.788L181.083 10.5073H225.584L294.878 275.606H298.057L366.079 10.5073H406.13L317.128 336H276.442L204.605 76.623H202.062L130.224 336H89.5378ZM469.76 189.147V336H432.252V10.5073H469.76V130.024H472.939C478.661 117.416 487.243 107.403 498.686 99.986C510.235 92.4632 525.598 88.7019 544.776 88.7019C561.411 88.7019 575.98 92.0394 588.482 98.7146C600.985 105.284 610.68 115.402 617.567 129.071C624.56 142.633 628.057 159.903 628.057 180.882V336H590.549V183.425C590.549 164.036 585.516 149.043 575.45 138.448C565.49 127.746 551.663 122.395 533.969 122.395C521.678 122.395 510.659 124.991 500.911 130.183C491.269 135.375 483.64 142.951 478.025 152.91C472.515 162.87 469.76 174.949 469.76 189.147ZM694.19 427.545C687.832 427.545 682.164 427.015 677.184 425.955C672.204 425.002 668.761 424.048 666.853 423.095L676.389 390.037C685.501 392.368 693.554 393.216 700.547 392.58C707.54 391.944 713.738 388.818 719.142 383.203C724.652 377.693 729.685 368.74 734.241 356.343L741.234 337.271L650.96 91.8805H691.647L759.034 286.413H761.577L828.964 91.8805H869.651L766.027 371.601C761.365 384.209 755.59 394.646 748.703 402.91C741.816 411.281 733.817 417.479 724.705 421.505C715.699 425.532 705.527 427.545 694.19 427.545ZM996.513 45.4723V10.5073H1240.63V45.4723H1138.28V336H1098.87V45.4723H996.513ZM1253.13 336V91.8805H1289.36V128.753H1291.91C1296.36 116.674 1304.41 106.873 1316.06 99.3503C1327.72 91.8275 1340.86 88.0661 1355.48 88.0661C1358.23 88.0661 1361.68 88.1191 1365.81 88.225C1369.94 88.331 1373.07 88.4899 1375.19 88.7019V126.846C1373.91 126.528 1371 126.051 1366.44 125.415C1361.99 124.673 1357.28 124.303 1352.3 124.303C1340.43 124.303 1329.84 126.793 1320.51 131.772C1311.3 136.646 1303.98 143.427 1298.58 152.116C1293.28 160.698 1290.63 170.499 1290.63 181.518V336H1253.13ZM1473.58 341.722C1458.11 341.722 1444.07 338.808 1431.47 332.98C1418.86 327.047 1408.84 318.517 1401.43 307.392C1394.01 296.161 1390.3 282.599 1390.3 266.706C1390.3 252.72 1393.06 241.382 1398.57 232.694C1404.08 223.9 1411.44 217.013 1420.66 212.033C1429.88 207.053 1440.05 203.345 1451.17 200.908C1462.4 198.365 1473.69 196.352 1485.03 194.868C1499.86 192.961 1511.89 191.531 1521.1 190.577C1530.43 189.518 1537.21 187.769 1541.45 185.332C1545.79 182.896 1547.96 178.657 1547.96 172.618V171.346C1547.96 155.665 1543.67 143.48 1535.09 134.792C1526.61 126.104 1513.74 121.76 1496.47 121.76C1478.56 121.76 1464.52 125.68 1454.35 133.521C1444.18 141.361 1437.03 149.732 1432.9 158.632L1397.3 145.917C1403.65 131.084 1412.13 119.535 1422.72 111.27C1433.43 102.9 1445.08 97.0723 1457.69 93.7877C1470.4 90.3971 1482.91 88.7019 1495.2 88.7019C1503.04 88.7019 1512.04 89.6554 1522.22 91.5626C1532.49 93.3638 1542.4 97.1252 1551.94 102.847C1561.58 108.568 1569.58 117.204 1575.93 128.753C1582.29 140.302 1585.47 155.771 1585.47 175.161V336H1547.96V302.942H1546.06C1543.51 308.24 1539.27 313.908 1533.34 319.948C1527.41 325.987 1519.51 331.126 1509.66 335.364C1499.81 339.602 1487.78 341.722 1473.58 341.722ZM1479.3 308.028C1494.14 308.028 1506.64 305.114 1516.81 299.287C1527.09 293.459 1534.82 285.936 1540.02 276.718C1545.31 267.5 1547.96 257.805 1547.96 247.634V213.305C1546.37 215.212 1542.88 216.96 1537.47 218.549C1532.18 220.033 1526.03 221.357 1519.04 222.523C1512.15 223.582 1505.42 224.536 1498.85 225.383C1492.39 226.125 1487.14 226.761 1483.12 227.291C1473.37 228.562 1464.26 230.628 1455.78 233.489C1447.41 236.244 1440.63 240.429 1435.44 246.045C1430.35 251.554 1427.81 259.077 1427.81 268.613C1427.81 281.645 1432.63 291.499 1442.27 298.174C1452.02 304.743 1464.36 308.028 1479.3 308.028ZM1728.21 341.086C1707.87 341.086 1689.91 335.947 1674.33 325.669C1658.76 315.286 1646.57 300.664 1637.78 281.804C1628.98 262.838 1624.59 240.429 1624.59 214.576C1624.59 188.935 1628.98 166.684 1637.78 147.825C1646.57 128.965 1658.81 114.396 1674.49 104.118C1690.17 93.8407 1708.29 88.7019 1728.84 88.7019C1744.74 88.7019 1757.29 91.3507 1766.51 96.6485C1775.84 101.84 1782.93 107.774 1787.81 114.449C1792.79 121.018 1796.66 126.422 1799.41 130.66H1802.59V10.5073H1840.1V336H1803.86V298.492H1799.41C1796.66 302.942 1792.74 308.558 1787.65 315.339C1782.56 322.014 1775.31 328 1765.88 333.298C1756.45 338.49 1743.89 341.086 1728.21 341.086ZM1733.29 307.392C1748.34 307.392 1761.06 303.472 1771.44 295.631C1781.82 287.685 1789.72 276.718 1795.12 262.732C1800.52 248.64 1803.22 232.376 1803.22 213.94C1803.22 195.716 1800.58 179.77 1795.28 166.102C1789.98 152.328 1782.14 141.626 1771.76 133.997C1761.37 126.263 1748.55 122.395 1733.29 122.395C1717.4 122.395 1704.16 126.475 1693.56 134.633C1683.07 142.686 1675.18 153.652 1669.88 167.532C1664.69 181.306 1662.09 196.776 1662.09 213.94C1662.09 231.317 1664.74 247.104 1670.04 261.302C1675.44 275.394 1683.39 286.625 1693.88 294.996C1704.48 303.26 1717.61 307.392 1733.29 307.392ZM1998.45 341.086C1974.93 341.086 1954.64 335.894 1937.58 325.51C1920.63 315.021 1907.54 300.399 1898.32 281.645C1889.21 262.785 1884.66 240.853 1884.66 215.847C1884.66 190.842 1889.21 168.804 1898.32 149.732C1907.54 130.554 1920.36 115.614 1936.79 104.913C1953.31 94.1055 1972.6 88.7019 1994.64 88.7019C2007.35 88.7019 2019.91 90.8209 2032.3 95.0591C2044.7 99.2973 2055.98 106.184 2066.16 115.72C2076.33 125.15 2084.43 137.653 2090.47 153.228C2096.51 168.804 2099.53 187.981 2099.53 210.762V226.655H1911.36V194.233H2061.39C2061.39 180.459 2058.63 168.168 2053.12 157.36C2047.72 146.553 2039.98 138.024 2029.92 131.772C2019.96 125.521 2008.2 122.395 1994.64 122.395C1979.7 122.395 1966.77 126.104 1955.86 133.521C1945.05 140.832 1936.73 150.367 1930.9 162.128C1925.08 173.889 1922.16 186.498 1922.16 199.954V221.569C1922.16 240.005 1925.34 255.633 1931.7 268.454C1938.16 281.168 1947.12 290.863 1958.56 297.538C1970 304.108 1983.3 307.392 1998.45 307.392C2008.3 307.392 2017.2 306.015 2025.15 303.26C2033.2 300.399 2040.14 296.161 2045.97 290.545C2051.8 284.824 2056.3 277.725 2059.48 269.249L2095.72 279.42C2091.9 291.711 2085.49 302.518 2076.49 311.842C2067.48 321.06 2056.35 328.265 2043.11 333.457C2029.87 338.543 2014.98 341.086 1998.45 341.086ZM2301.97 336L2227.59 91.8805H2267L2319.77 278.784H2322.31L2374.44 91.8805H2414.49L2465.98 278.149H2468.53L2521.29 91.8805H2560.71L2486.33 336H2449.46L2396.05 148.46H2392.24L2338.84 336H2301.97ZM2592.39 336V91.8805H2629.9V336H2592.39ZM2611.46 51.1939C2604.15 51.1939 2597.85 48.704 2592.55 43.7241C2587.36 38.7442 2584.76 32.7578 2584.76 25.7648C2584.76 18.7718 2587.36 12.7853 2592.55 7.80547C2597.85 2.82561 2604.15 0.335678 2611.46 0.335678C2618.77 0.335678 2625.03 2.82561 2630.22 7.80547C2635.52 12.7853 2638.16 18.7718 2638.16 25.7648C2638.16 32.7578 2635.52 38.7442 2630.22 43.7241C2625.03 48.704 2618.77 51.1939 2611.46 51.1939ZM2786.86 91.8805V123.667H2660.35V91.8805H2786.86ZM2697.23 33.3935H2734.73V266.07C2734.73 276.665 2736.27 284.612 2739.34 289.91C2742.52 295.102 2746.55 298.598 2751.42 300.399C2756.4 302.095 2761.65 302.942 2767.16 302.942C2771.29 302.942 2774.68 302.73 2777.33 302.306C2779.98 301.777 2782.09 301.353 2783.68 301.035L2791.31 334.729C2788.77 335.682 2785.22 336.636 2780.66 337.589C2776.11 338.649 2770.33 339.179 2763.34 339.179C2752.75 339.179 2742.36 336.901 2732.19 332.345C2722.12 327.789 2713.75 320.848 2707.08 311.524C2700.51 302.2 2697.23 290.44 2697.23 276.242V33.3935ZM2868.13 189.147V336H2830.63V10.5073H2868.13V130.024H2871.31C2877.03 117.416 2885.62 107.403 2897.06 99.986C2908.61 92.4632 2923.97 88.7019 2943.15 88.7019C2959.79 88.7019 2974.35 92.0394 2986.86 98.7146C2999.36 105.284 3009.05 115.402 3015.94 129.071C3022.93 142.633 3026.43 159.903 3026.43 180.882V336H2988.92V183.425C2988.92 164.036 2983.89 149.043 2973.82 138.448C2963.86 127.746 2950.04 122.395 2932.34 122.395C2920.05 122.395 2909.03 124.991 2899.29 130.183C2889.64 135.375 2882.01 142.951 2876.4 152.91C2870.89 162.87 2868.13 174.949 2868.13 189.147ZM3403.81 10.5073H3443.22V226.019C3443.22 248.27 3437.98 268.136 3427.49 285.619C3417.11 302.995 3402.43 316.716 3383.47 326.782C3364.5 336.742 3342.25 341.722 3316.72 341.722C3291.18 341.722 3268.93 336.742 3249.96 326.782C3231 316.716 3216.27 302.995 3205.78 285.619C3195.4 268.136 3190.21 248.27 3190.21 226.019V10.5073H3229.62V222.84C3229.62 238.734 3233.12 252.879 3240.11 265.275C3247.1 277.566 3257.06 287.261 3269.99 294.36C3283.02 301.353 3298.6 304.849 3316.72 304.849C3334.83 304.849 3350.41 301.353 3363.44 294.36C3376.47 287.261 3386.43 277.566 3393.32 265.275C3400.31 252.879 3403.81 238.734 3403.81 222.84V10.5073ZM3671.87 146.553L3638.17 156.089C3636.05 150.473 3632.93 145.017 3628.8 139.719C3624.77 134.315 3619.26 129.865 3612.27 126.369C3605.27 122.872 3596.32 121.124 3585.41 121.124C3570.47 121.124 3558.02 124.567 3548.06 131.455C3538.2 138.236 3533.28 146.871 3533.28 157.36C3533.28 166.684 3536.67 174.048 3543.45 179.452C3550.23 184.856 3560.83 189.359 3575.24 192.961L3611.47 201.861C3633.3 207.159 3649.56 215.265 3660.26 226.178C3670.97 236.985 3676.32 250.918 3676.32 267.977C3676.32 281.963 3672.29 294.466 3664.24 305.485C3656.29 316.504 3645.17 325.193 3630.86 331.55C3616.56 337.907 3599.92 341.086 3580.96 341.086C3556.06 341.086 3535.45 335.682 3519.13 324.875C3502.82 314.067 3492.48 298.28 3488.14 277.513L3523.74 268.613C3527.13 281.751 3533.54 291.605 3542.97 298.174C3552.51 304.743 3564.96 308.028 3580.32 308.028C3597.8 308.028 3611.68 304.32 3621.96 296.903C3632.34 289.38 3637.54 280.374 3637.54 269.884C3637.54 261.408 3634.57 254.309 3628.64 248.587C3622.7 242.76 3613.59 238.416 3601.3 235.555L3560.61 226.019C3538.26 220.721 3521.83 212.51 3511.34 201.385C3500.96 190.153 3495.77 176.114 3495.77 159.268C3495.77 145.494 3499.64 133.309 3507.37 122.713C3515.21 112.118 3525.86 103.8 3539.32 97.761C3552.88 91.7216 3568.24 88.7019 3585.41 88.7019C3609.56 88.7019 3628.53 93.9996 3642.3 104.595C3656.18 115.191 3666.04 129.177 3671.87 146.553ZM3763.83 244.455V242.548C3764.04 222.311 3766.16 206.206 3770.18 194.233C3774.21 182.26 3779.93 172.565 3787.35 165.148C3794.76 157.731 3803.66 150.897 3814.05 144.646C3820.3 140.832 3825.92 136.328 3830.9 131.137C3835.87 125.839 3839.8 119.747 3842.66 112.86C3845.62 105.972 3847.11 98.3437 3847.11 89.9733C3847.11 79.5897 3844.67 70.5836 3839.8 62.9549C3834.92 55.3261 3828.41 49.4456 3820.25 45.3134C3812.09 41.1812 3803.03 39.1151 3793.07 39.1151C3784.38 39.1151 3776.01 40.9163 3767.96 44.5188C3759.91 48.1212 3753.18 53.7898 3747.77 61.5245C3742.37 69.2592 3739.24 79.3778 3738.4 91.8805H3698.35C3699.19 73.8682 3703.86 58.4518 3712.33 45.6313C3720.91 32.8108 3732.2 23.01 3746.18 16.2289C3760.28 9.44776 3775.9 6.05722 3793.07 6.05722C3811.72 6.05722 3827.93 9.76563 3841.7 17.1824C3855.58 24.5993 3866.28 34.7709 3873.81 47.6974C3881.44 60.6239 3885.25 75.3516 3885.25 91.8805C3885.25 103.535 3883.45 114.078 3879.85 123.508C3876.35 132.938 3871.26 141.361 3864.59 148.778C3858.02 156.195 3850.07 162.764 3840.75 168.486C3831.42 174.313 3823.96 180.459 3818.34 186.922C3812.72 193.279 3808.64 200.855 3806.1 209.649C3803.56 218.443 3802.18 229.41 3801.97 242.548V244.455H3763.83ZM3784.17 338.543C3776.33 338.543 3769.6 335.735 3763.98 330.12C3758.37 324.504 3755.56 317.776 3755.56 309.935C3755.56 302.095 3758.37 295.366 3763.98 289.751C3769.6 284.135 3776.33 281.327 3784.17 281.327C3792.01 281.327 3798.74 284.135 3804.35 289.751C3809.97 295.366 3812.78 302.095 3812.78 309.935C3812.78 315.127 3811.45 319.895 3808.8 324.239C3806.26 328.583 3802.82 332.08 3798.47 334.729C3794.23 337.271 3789.47 338.543 3784.17 338.543Z" fill="url(#paint0_linear_2480_1236)"/>
<defs>
<linearGradient id="paint0_linear_2480_1236" x1="-8.99999" y1="-411.391" x2="4827.95" y2="1283.07" gradientUnits="userSpaceOnUse">
<stop stop-color="#0052B4"/>
<stop offset="1" stop-color="#45D1FF"/>
</linearGradient>
</defs>
</svg>
