<svg width="3886" height="428" viewBox="0 0 3886 428" fill="none" xmlns="http://www.w3.org/2000/svg">
<mask id="path-1-outside-1_2480_1237" maskUnits="userSpaceOnUse" x="-6" y="-5" width="3896" height="438" fill="black">
<rect fill="white" x="-6" y="-5" width="3896" height="438"/>
<path d="M89.5378 336L0.535918 10.5073H40.5868L108.61 275.606H111.788L181.083 10.5073H225.584L294.878 275.606H298.057L366.079 10.5073H406.13L317.128 336H276.442L204.605 76.623H202.062L130.224 336H89.5378ZM469.76 189.147V336H432.252V10.5073H469.76V130.024H472.939C478.661 117.416 487.243 107.403 498.686 99.986C510.235 92.4632 525.598 88.7019 544.776 88.7019C561.411 88.7019 575.98 92.0394 588.482 98.7146C600.985 105.284 610.68 115.402 617.567 129.071C624.56 142.633 628.057 159.903 628.057 180.882V336H590.549V183.425C590.549 164.036 585.516 149.043 575.45 138.448C565.49 127.746 551.663 122.395 533.969 122.395C521.678 122.395 510.659 124.991 500.911 130.183C491.269 135.375 483.64 142.951 478.025 152.91C472.515 162.87 469.76 174.949 469.76 189.147ZM694.19 427.545C687.832 427.545 682.164 427.015 677.184 425.955C672.204 425.002 668.761 424.048 666.853 423.095L676.389 390.037C685.501 392.368 693.554 393.216 700.547 392.58C707.54 391.944 713.738 388.818 719.142 383.203C724.652 377.693 729.685 368.74 734.241 356.343L741.234 337.271L650.96 91.8805H691.647L759.034 286.413H761.577L828.964 91.8805H869.651L766.027 371.601C761.365 384.209 755.59 394.646 748.703 402.91C741.816 411.281 733.817 417.479 724.705 421.505C715.699 425.532 705.527 427.545 694.19 427.545ZM996.513 45.4723V10.5073H1240.63V45.4723H1138.28V336H1098.87V45.4723H996.513ZM1253.13 336V91.8805H1289.36V128.753H1291.91C1296.36 116.674 1304.41 106.873 1316.06 99.3503C1327.72 91.8275 1340.86 88.0661 1355.48 88.0661C1358.23 88.0661 1361.68 88.1191 1365.81 88.225C1369.94 88.331 1373.07 88.4899 1375.19 88.7019V126.846C1373.91 126.528 1371 126.051 1366.44 125.415C1361.99 124.673 1357.28 124.303 1352.3 124.303C1340.43 124.303 1329.84 126.793 1320.51 131.772C1311.3 136.646 1303.98 143.427 1298.58 152.116C1293.28 160.698 1290.63 170.499 1290.63 181.518V336H1253.13ZM1473.58 341.722C1458.11 341.722 1444.07 338.808 1431.47 332.98C1418.86 327.047 1408.84 318.517 1401.43 307.392C1394.01 296.161 1390.3 282.599 1390.3 266.706C1390.3 252.72 1393.06 241.382 1398.57 232.694C1404.08 223.9 1411.44 217.013 1420.66 212.033C1429.88 207.053 1440.05 203.345 1451.17 200.908C1462.4 198.365 1473.69 196.352 1485.03 194.868C1499.86 192.961 1511.89 191.531 1521.1 190.577C1530.43 189.518 1537.21 187.769 1541.45 185.332C1545.79 182.896 1547.96 178.657 1547.96 172.618V171.346C1547.96 155.665 1543.67 143.48 1535.09 134.792C1526.61 126.104 1513.74 121.76 1496.47 121.76C1478.56 121.76 1464.52 125.68 1454.35 133.521C1444.18 141.361 1437.03 149.732 1432.9 158.632L1397.3 145.917C1403.65 131.084 1412.13 119.535 1422.72 111.27C1433.43 102.9 1445.08 97.0723 1457.69 93.7877C1470.4 90.3971 1482.91 88.7019 1495.2 88.7019C1503.04 88.7019 1512.04 89.6554 1522.22 91.5626C1532.49 93.3638 1542.4 97.1252 1551.94 102.847C1561.58 108.568 1569.58 117.204 1575.93 128.753C1582.29 140.302 1585.47 155.771 1585.47 175.161V336H1547.96V302.942H1546.06C1543.51 308.24 1539.27 313.908 1533.34 319.948C1527.41 325.987 1519.51 331.126 1509.66 335.364C1499.81 339.602 1487.78 341.722 1473.58 341.722ZM1479.3 308.028C1494.14 308.028 1506.64 305.114 1516.81 299.287C1527.09 293.459 1534.82 285.936 1540.02 276.718C1545.31 267.5 1547.96 257.805 1547.96 247.634V213.305C1546.37 215.212 1542.88 216.96 1537.47 218.549C1532.18 220.033 1526.03 221.357 1519.04 222.523C1512.15 223.582 1505.42 224.536 1498.85 225.383C1492.39 226.125 1487.14 226.761 1483.12 227.291C1473.37 228.562 1464.26 230.628 1455.78 233.489C1447.41 236.244 1440.63 240.429 1435.44 246.045C1430.35 251.554 1427.81 259.077 1427.81 268.613C1427.81 281.645 1432.63 291.499 1442.27 298.174C1452.02 304.743 1464.36 308.028 1479.3 308.028ZM1728.21 341.086C1707.87 341.086 1689.91 335.947 1674.33 325.669C1658.76 315.286 1646.57 300.664 1637.78 281.804C1628.98 262.838 1624.59 240.429 1624.59 214.576C1624.59 188.935 1628.98 166.684 1637.78 147.825C1646.57 128.965 1658.81 114.396 1674.49 104.118C1690.17 93.8407 1708.29 88.7019 1728.84 88.7019C1744.74 88.7019 1757.29 91.3507 1766.51 96.6485C1775.84 101.84 1782.93 107.774 1787.81 114.449C1792.79 121.018 1796.66 126.422 1799.41 130.66H1802.59V10.5073H1840.1V336H1803.86V298.492H1799.41C1796.66 302.942 1792.74 308.558 1787.65 315.339C1782.56 322.014 1775.31 328 1765.88 333.298C1756.45 338.49 1743.89 341.086 1728.21 341.086ZM1733.29 307.392C1748.34 307.392 1761.06 303.472 1771.44 295.631C1781.82 287.685 1789.72 276.718 1795.12 262.732C1800.52 248.64 1803.22 232.376 1803.22 213.94C1803.22 195.716 1800.58 179.77 1795.28 166.102C1789.98 152.328 1782.14 141.626 1771.76 133.997C1761.37 126.263 1748.55 122.395 1733.29 122.395C1717.4 122.395 1704.16 126.475 1693.56 134.633C1683.07 142.686 1675.18 153.652 1669.88 167.532C1664.69 181.306 1662.09 196.776 1662.09 213.94C1662.09 231.317 1664.74 247.104 1670.04 261.302C1675.44 275.394 1683.39 286.625 1693.88 294.996C1704.48 303.26 1717.61 307.392 1733.29 307.392ZM1998.45 341.086C1974.93 341.086 1954.64 335.894 1937.58 325.51C1920.63 315.021 1907.54 300.399 1898.32 281.645C1889.21 262.785 1884.66 240.853 1884.66 215.847C1884.66 190.842 1889.21 168.804 1898.32 149.732C1907.54 130.554 1920.36 115.614 1936.79 104.913C1953.31 94.1055 1972.6 88.7019 1994.64 88.7019C2007.35 88.7019 2019.91 90.8209 2032.3 95.0591C2044.7 99.2973 2055.98 106.184 2066.16 115.72C2076.33 125.15 2084.43 137.653 2090.47 153.228C2096.51 168.804 2099.53 187.981 2099.53 210.762V226.655H1911.36V194.233H2061.39C2061.39 180.459 2058.63 168.168 2053.12 157.36C2047.72 146.553 2039.98 138.024 2029.92 131.772C2019.96 125.521 2008.2 122.395 1994.64 122.395C1979.7 122.395 1966.77 126.104 1955.86 133.521C1945.05 140.832 1936.73 150.367 1930.9 162.128C1925.08 173.889 1922.16 186.498 1922.16 199.954V221.569C1922.16 240.005 1925.34 255.633 1931.7 268.454C1938.16 281.168 1947.12 290.863 1958.56 297.538C1970 304.108 1983.3 307.392 1998.45 307.392C2008.3 307.392 2017.2 306.015 2025.15 303.26C2033.2 300.399 2040.14 296.161 2045.97 290.545C2051.8 284.824 2056.3 277.725 2059.48 269.249L2095.72 279.42C2091.9 291.711 2085.49 302.518 2076.49 311.842C2067.48 321.06 2056.35 328.265 2043.11 333.457C2029.87 338.543 2014.98 341.086 1998.45 341.086ZM2301.97 336L2227.59 91.8805H2267L2319.77 278.784H2322.31L2374.44 91.8805H2414.49L2465.98 278.149H2468.53L2521.29 91.8805H2560.71L2486.33 336H2449.46L2396.05 148.46H2392.24L2338.84 336H2301.97ZM2592.39 336V91.8805H2629.9V336H2592.39ZM2611.46 51.1939C2604.15 51.1939 2597.85 48.704 2592.55 43.7241C2587.36 38.7442 2584.76 32.7578 2584.76 25.7648C2584.76 18.7718 2587.36 12.7853 2592.55 7.80547C2597.85 2.82561 2604.15 0.335678 2611.46 0.335678C2618.77 0.335678 2625.03 2.82561 2630.22 7.80547C2635.52 12.7853 2638.16 18.7718 2638.16 25.7648C2638.16 32.7578 2635.52 38.7442 2630.22 43.7241C2625.03 48.704 2618.77 51.1939 2611.46 51.1939ZM2786.86 91.8805V123.667H2660.35V91.8805H2786.86ZM2697.23 33.3935H2734.73V266.07C2734.73 276.665 2736.27 284.612 2739.34 289.91C2742.52 295.102 2746.55 298.598 2751.42 300.399C2756.4 302.095 2761.65 302.942 2767.16 302.942C2771.29 302.942 2774.68 302.73 2777.33 302.306C2779.98 301.777 2782.09 301.353 2783.68 301.035L2791.31 334.729C2788.77 335.682 2785.22 336.636 2780.66 337.589C2776.11 338.649 2770.33 339.179 2763.34 339.179C2752.75 339.179 2742.36 336.901 2732.19 332.345C2722.12 327.789 2713.75 320.848 2707.08 311.524C2700.51 302.2 2697.23 290.44 2697.23 276.242V33.3935ZM2868.13 189.147V336H2830.63V10.5073H2868.13V130.024H2871.31C2877.03 117.416 2885.62 107.403 2897.06 99.986C2908.61 92.4632 2923.97 88.7019 2943.15 88.7019C2959.79 88.7019 2974.35 92.0394 2986.86 98.7146C2999.36 105.284 3009.05 115.402 3015.94 129.071C3022.93 142.633 3026.43 159.903 3026.43 180.882V336H2988.92V183.425C2988.92 164.036 2983.89 149.043 2973.82 138.448C2963.86 127.746 2950.04 122.395 2932.34 122.395C2920.05 122.395 2909.03 124.991 2899.29 130.183C2889.64 135.375 2882.01 142.951 2876.4 152.91C2870.89 162.87 2868.13 174.949 2868.13 189.147ZM3403.81 10.5073H3443.22V226.019C3443.22 248.27 3437.98 268.136 3427.49 285.619C3417.11 302.995 3402.43 316.716 3383.47 326.782C3364.5 336.742 3342.25 341.722 3316.72 341.722C3291.18 341.722 3268.93 336.742 3249.96 326.782C3231 316.716 3216.27 302.995 3205.78 285.619C3195.4 268.136 3190.21 248.27 3190.21 226.019V10.5073H3229.62V222.84C3229.62 238.734 3233.12 252.879 3240.11 265.275C3247.1 277.566 3257.06 287.261 3269.99 294.36C3283.02 301.353 3298.6 304.849 3316.72 304.849C3334.83 304.849 3350.41 301.353 3363.44 294.36C3376.47 287.261 3386.43 277.566 3393.32 265.275C3400.31 252.879 3403.81 238.734 3403.81 222.84V10.5073ZM3671.87 146.553L3638.17 156.089C3636.05 150.473 3632.93 145.017 3628.8 139.719C3624.77 134.315 3619.26 129.865 3612.27 126.369C3605.27 122.872 3596.32 121.124 3585.41 121.124C3570.47 121.124 3558.02 124.567 3548.06 131.455C3538.2 138.236 3533.28 146.871 3533.28 157.36C3533.28 166.684 3536.67 174.048 3543.45 179.452C3550.23 184.856 3560.83 189.359 3575.24 192.961L3611.47 201.861C3633.3 207.159 3649.56 215.265 3660.26 226.178C3670.97 236.985 3676.32 250.918 3676.32 267.977C3676.32 281.963 3672.29 294.466 3664.24 305.485C3656.29 316.504 3645.17 325.193 3630.86 331.55C3616.56 337.907 3599.92 341.086 3580.96 341.086C3556.06 341.086 3535.45 335.682 3519.13 324.875C3502.82 314.067 3492.48 298.28 3488.14 277.513L3523.74 268.613C3527.13 281.751 3533.54 291.605 3542.97 298.174C3552.51 304.743 3564.96 308.028 3580.32 308.028C3597.8 308.028 3611.68 304.32 3621.96 296.903C3632.34 289.38 3637.54 280.374 3637.54 269.884C3637.54 261.408 3634.57 254.309 3628.64 248.587C3622.7 242.76 3613.59 238.416 3601.3 235.555L3560.61 226.019C3538.26 220.721 3521.83 212.51 3511.34 201.385C3500.96 190.153 3495.77 176.114 3495.77 159.268C3495.77 145.494 3499.64 133.309 3507.37 122.713C3515.21 112.118 3525.86 103.8 3539.32 97.761C3552.88 91.7216 3568.24 88.7019 3585.41 88.7019C3609.56 88.7019 3628.53 93.9996 3642.3 104.595C3656.18 115.191 3666.04 129.177 3671.87 146.553ZM3763.83 244.455V242.548C3764.04 222.311 3766.16 206.206 3770.18 194.233C3774.21 182.26 3779.93 172.565 3787.35 165.148C3794.76 157.731 3803.66 150.897 3814.05 144.646C3820.3 140.832 3825.92 136.328 3830.9 131.137C3835.87 125.839 3839.8 119.747 3842.66 112.86C3845.62 105.972 3847.11 98.3437 3847.11 89.9733C3847.11 79.5897 3844.67 70.5836 3839.8 62.9549C3834.92 55.3261 3828.41 49.4456 3820.25 45.3134C3812.09 41.1812 3803.03 39.1151 3793.07 39.1151C3784.38 39.1151 3776.01 40.9163 3767.96 44.5188C3759.91 48.1212 3753.18 53.7898 3747.77 61.5245C3742.37 69.2592 3739.24 79.3778 3738.4 91.8805H3698.35C3699.19 73.8682 3703.86 58.4518 3712.33 45.6313C3720.91 32.8108 3732.2 23.01 3746.18 16.2289C3760.28 9.44776 3775.9 6.05722 3793.07 6.05722C3811.72 6.05722 3827.93 9.76563 3841.7 17.1824C3855.58 24.5993 3866.28 34.7709 3873.81 47.6974C3881.44 60.6239 3885.25 75.3516 3885.25 91.8805C3885.25 103.535 3883.45 114.078 3879.85 123.508C3876.35 132.938 3871.26 141.361 3864.59 148.778C3858.02 156.195 3850.07 162.764 3840.75 168.486C3831.42 174.313 3823.96 180.459 3818.34 186.922C3812.72 193.279 3808.64 200.855 3806.1 209.649C3803.56 218.443 3802.18 229.41 3801.97 242.548V244.455H3763.83ZM3784.17 338.543C3776.33 338.543 3769.6 335.735 3763.98 330.12C3758.37 324.504 3755.56 317.776 3755.56 309.935C3755.56 302.095 3758.37 295.366 3763.98 289.751C3769.6 284.135 3776.33 281.327 3784.17 281.327C3792.01 281.327 3798.74 284.135 3804.35 289.751C3809.97 295.366 3812.78 302.095 3812.78 309.935C3812.78 315.127 3811.45 319.895 3808.8 324.239C3806.26 328.583 3802.82 332.08 3798.47 334.729C3794.23 337.271 3789.47 338.543 3784.17 338.543Z"/>
</mask>
<path d="M89.5378 336L85.1972 337.187L86.1031 340.5H89.5378V336ZM0.535918 10.5073V6.00732H-5.35975L-3.80474 11.6942L0.535918 10.5073ZM40.5868 10.5073L44.9456 9.38887L44.0779 6.00732H40.5868V10.5073ZM108.61 275.606L104.251 276.724L105.119 280.106H108.61V275.606ZM111.788 275.606V280.106H115.263L116.142 276.744L111.788 275.606ZM181.083 10.5073V6.00732H177.608L176.729 9.36929L181.083 10.5073ZM225.584 10.5073L229.937 9.36929L229.059 6.00732H225.584V10.5073ZM294.878 275.606L290.524 276.744L291.403 280.106H294.878V275.606ZM298.057 275.606V280.106H301.548L302.415 276.724L298.057 275.606ZM366.079 10.5073V6.00732H362.588L361.721 9.38887L366.079 10.5073ZM406.13 10.5073L410.471 11.6942L412.026 6.00732H406.13V10.5073ZM317.128 336V340.5H320.563L321.469 337.187L317.128 336ZM276.442 336L272.105 337.201L273.019 340.5H276.442V336ZM204.605 76.623L208.941 75.4219L208.028 72.123H204.605V76.623ZM202.062 76.623V72.123H198.639L197.725 75.4219L202.062 76.623ZM130.224 336V340.5H133.647L134.561 337.201L130.224 336ZM93.8785 334.813L4.87657 9.32042L-3.80474 11.6942L85.1972 337.187L93.8785 334.813ZM0.535918 15.0073H40.5868V6.00732H0.535918V15.0073ZM36.228 11.6258L104.251 276.724L112.968 274.487L44.9456 9.38887L36.228 11.6258ZM108.61 280.106H111.788V271.106H108.61V280.106ZM116.142 276.744L185.436 11.6453L176.729 9.36929L107.435 274.468L116.142 276.744ZM181.083 15.0073H225.584V6.00732H181.083V15.0073ZM221.23 11.6453L290.524 276.744L299.232 274.468L229.937 9.36929L221.23 11.6453ZM294.878 280.106H298.057V271.106H294.878V280.106ZM302.415 276.724L370.438 11.6258L361.721 9.38887L293.698 274.487L302.415 276.724ZM366.079 15.0073H406.13V6.00732H366.079V15.0073ZM401.79 9.32042L312.788 334.813L321.469 337.187L410.471 11.6942L401.79 9.32042ZM317.128 331.5H276.442V340.5H317.128V331.5ZM280.779 334.799L208.941 75.4219L200.268 77.8241L272.105 337.201L280.779 334.799ZM204.605 72.123H202.062V81.123H204.605V72.123ZM197.725 75.4219L125.888 334.799L134.561 337.201L206.398 77.8241L197.725 75.4219ZM130.224 331.5H89.5378V340.5H130.224V331.5ZM469.76 336V340.5H474.26V336H469.76ZM432.252 336H427.752V340.5H432.252V336ZM432.252 10.5073V6.00732H427.752V10.5073H432.252ZM469.76 10.5073H474.26V6.00732H469.76V10.5073ZM469.76 130.024H465.26V134.524H469.76V130.024ZM472.939 130.024V134.524H475.839L477.037 131.884L472.939 130.024ZM498.686 99.986L501.133 103.762L501.142 103.757L498.686 99.986ZM588.482 98.7146L586.363 102.684L586.376 102.691L586.389 102.698L588.482 98.7146ZM617.567 129.071L613.548 131.095L613.558 131.114L613.567 131.133L617.567 129.071ZM628.057 336V340.5H632.557V336H628.057ZM590.549 336H586.049V340.5H590.549V336ZM575.45 138.448L572.156 141.513L572.172 141.53L572.188 141.547L575.45 138.448ZM500.911 130.183L498.796 126.211L498.787 126.216L498.778 126.221L500.911 130.183ZM478.025 152.91L474.105 150.7L474.096 150.716L474.087 150.732L478.025 152.91ZM465.26 189.147V336H474.26V189.147H465.26ZM469.76 331.5H432.252V340.5H469.76V331.5ZM436.752 336V10.5073H427.752V336H436.752ZM432.252 15.0073H469.76V6.00732H432.252V15.0073ZM465.26 10.5073V130.024H474.26V10.5073H465.26ZM469.76 134.524H472.939V125.524H469.76V134.524ZM477.037 131.884C482.409 120.046 490.424 110.703 501.133 103.762L496.238 96.2098C484.062 104.102 474.912 114.785 468.841 128.165L477.037 131.884ZM501.142 103.757C511.727 96.8621 526.142 93.2019 544.776 93.2019V84.2019C525.055 84.2019 508.743 88.0644 496.23 96.2154L501.142 103.757ZM544.776 93.2019C560.8 93.2019 574.617 96.4132 586.363 102.684L590.602 94.7449C577.342 87.6657 562.022 84.2019 544.776 84.2019V93.2019ZM586.389 102.698C597.991 108.794 607.046 118.191 613.548 131.095L621.586 127.046C614.314 112.614 603.979 101.773 590.576 94.731L586.389 102.698ZM613.567 131.133C620.132 143.864 623.557 160.366 623.557 180.882H632.557C632.557 159.441 628.988 141.402 621.567 127.008L613.567 131.133ZM623.557 180.882V336H632.557V180.882H623.557ZM628.057 331.5H590.549V340.5H628.057V331.5ZM595.049 336V183.425H586.049V336H595.049ZM595.049 183.425C595.049 163.269 589.804 147.024 578.713 135.348L572.188 141.547C581.227 151.062 586.049 164.802 586.049 183.425H595.049ZM578.744 135.382C567.757 123.577 552.629 117.895 533.969 117.895V126.895C550.698 126.895 563.223 131.915 572.156 141.513L578.744 135.382ZM533.969 117.895C521.025 117.895 509.265 120.635 498.796 126.211L503.026 134.155C512.052 129.348 522.331 126.895 533.969 126.895V117.895ZM498.778 126.221C488.353 131.834 480.119 140.034 474.105 150.7L481.945 155.12C487.162 145.868 494.186 138.915 503.044 134.145L498.778 126.221ZM474.087 150.732C468.128 161.504 465.26 174.373 465.26 189.147H474.26C474.26 175.525 476.902 164.236 481.962 155.089L474.087 150.732ZM677.184 425.956L678.12 421.554L678.076 421.544L678.03 421.536L677.184 425.956ZM666.853 423.095L662.53 421.847L661.492 425.445L664.841 427.12L666.853 423.095ZM676.389 390.037L677.505 385.677L673.276 384.595L672.066 388.79L676.389 390.037ZM700.547 392.58L700.14 388.098L700.547 392.58ZM719.142 383.203L715.96 380.021L715.93 380.051L715.899 380.083L719.142 383.203ZM734.241 356.343L738.464 357.896L738.466 357.892L734.241 356.343ZM741.234 337.271L745.459 338.821L746.027 337.269L745.457 335.718L741.234 337.271ZM650.96 91.8805V87.3805H644.51L646.737 93.4341L650.96 91.8805ZM691.647 91.8805L695.899 90.4075L694.85 87.3805H691.647V91.8805ZM759.034 286.413L754.782 287.886L755.83 290.913H759.034V286.413ZM761.577 286.413V290.913H764.78L765.829 287.886L761.577 286.413ZM828.964 91.8805V87.3805H825.76L824.712 90.4075L828.964 91.8805ZM869.651 91.8805L873.87 93.4437L876.117 87.3805H869.651V91.8805ZM766.027 371.601L761.807 370.038L761.806 370.04L766.027 371.601ZM748.703 402.91L745.246 400.03L745.237 400.04L745.228 400.051L748.703 402.91ZM724.705 421.505L722.886 417.389L722.877 417.393L722.868 417.397L724.705 421.505ZM694.19 423.045C688.073 423.045 682.728 422.534 678.12 421.554L676.247 430.357C681.6 431.496 687.592 432.045 694.19 432.045V423.045ZM678.03 421.536C673.053 420.583 670.162 419.718 668.866 419.07L664.841 427.12C667.36 428.379 671.356 429.421 676.338 430.375L678.03 421.536ZM671.177 424.342L680.713 391.284L672.066 388.79L662.53 421.847L671.177 424.342ZM675.274 394.396C684.725 396.814 693.31 397.756 700.954 397.061L700.14 388.098C693.798 388.675 686.278 387.922 677.505 385.677L675.274 394.396ZM700.954 397.061C709.146 396.317 716.319 392.627 722.385 386.323L715.899 380.083C711.158 385.01 705.934 387.572 700.14 388.098L700.954 397.061ZM722.324 386.385C728.509 380.199 733.819 370.536 738.464 357.896L730.017 354.791C725.55 366.944 720.794 375.187 715.96 380.021L722.324 386.385ZM738.466 357.892L745.459 338.821L737.009 335.722L730.016 354.794L738.466 357.892ZM745.457 335.718L655.184 90.3268L646.737 93.4341L737.01 338.825L745.457 335.718ZM650.96 96.3805H691.647V87.3805H650.96V96.3805ZM687.395 93.3534L754.782 287.886L763.286 284.94L695.899 90.4075L687.395 93.3534ZM759.034 290.913H761.577V281.913H759.034V290.913ZM765.829 287.886L833.216 93.3534L824.712 90.4075L757.325 284.94L765.829 287.886ZM828.964 96.3805H869.651V87.3805H828.964V96.3805ZM865.431 90.3173L761.807 370.038L770.247 373.164L873.87 93.4437L865.431 90.3173ZM761.806 370.04C757.279 382.283 751.735 392.243 745.246 400.03L752.16 405.791C759.445 397.049 765.451 386.135 770.248 373.161L761.806 370.04ZM745.228 400.051C738.748 407.928 731.3 413.671 722.886 417.389L726.523 425.622C736.333 421.287 744.885 414.634 752.178 405.77L745.228 400.051ZM722.868 417.397C714.52 421.129 704.988 423.045 694.19 423.045V432.045C706.066 432.045 716.877 429.934 726.541 425.614L722.868 417.397ZM996.513 45.4724H992.013V49.9724H996.513V45.4724ZM996.513 10.5073V6.00732H992.013V10.5073H996.513ZM1240.63 10.5073H1245.13V6.00732H1240.63V10.5073ZM1240.63 45.4724V49.9724H1245.13V45.4724H1240.63ZM1138.28 45.4724V40.9724H1133.78V45.4724H1138.28ZM1138.28 336V340.5H1142.78V336H1138.28ZM1098.87 336H1094.37V340.5H1098.87V336ZM1098.87 45.4724H1103.37V40.9724H1098.87V45.4724ZM1001.01 45.4724V10.5073H992.013V45.4724H1001.01ZM996.513 15.0073H1240.63V6.00732H996.513V15.0073ZM1236.13 10.5073V45.4724H1245.13V10.5073H1236.13ZM1240.63 40.9724H1138.28V49.9724H1240.63V40.9724ZM1133.78 45.4724V336H1142.78V45.4724H1133.78ZM1138.28 331.5H1098.87V340.5H1138.28V331.5ZM1103.37 336V45.4724H1094.37V336H1103.37ZM1098.87 40.9724H996.513V49.9724H1098.87V40.9724ZM1253.13 336H1248.63V340.5H1253.13V336ZM1253.13 91.8805V87.3805H1248.63V91.8805H1253.13ZM1289.36 91.8805H1293.86V87.3805H1289.36V91.8805ZM1289.36 128.753H1284.86V133.253H1289.36V128.753ZM1291.91 128.753V133.253H1295.04L1296.13 130.308L1291.91 128.753ZM1316.06 99.3503L1313.62 95.5694L1316.06 99.3503ZM1375.19 88.7019H1379.69V84.6294L1375.63 84.2242L1375.19 88.7019ZM1375.19 126.846L1374.09 131.211L1379.69 132.609V126.846H1375.19ZM1366.44 125.415L1365.71 129.854L1365.76 129.864L1365.82 129.872L1366.44 125.415ZM1320.51 131.772L1322.62 135.751L1322.63 135.746L1322.63 135.742L1320.51 131.772ZM1298.58 152.116L1294.76 149.739L1294.76 149.746L1294.75 149.752L1298.58 152.116ZM1290.63 336V340.5H1295.13V336H1290.63ZM1257.63 336V91.8805H1248.63V336H1257.63ZM1253.13 96.3805H1289.36V87.3805H1253.13V96.3805ZM1284.86 91.8805V128.753H1293.86V91.8805H1284.86ZM1289.36 133.253H1291.91V124.253H1289.36V133.253ZM1296.13 130.308C1300.21 119.218 1307.6 110.169 1318.5 103.131L1313.62 95.5694C1301.22 103.578 1292.5 114.13 1287.68 127.197L1296.13 130.308ZM1318.5 103.131C1329.39 96.1037 1341.67 92.5661 1355.48 92.5661V83.5661C1340.04 83.5661 1326.05 87.5512 1313.62 95.5694L1318.5 103.131ZM1355.48 92.5661C1358.18 92.5661 1361.58 92.6182 1365.69 92.7236L1365.92 83.7265C1361.77 83.62 1358.29 83.5661 1355.48 83.5661V92.5661ZM1365.69 92.7236C1369.8 92.8288 1372.79 92.9846 1374.74 93.1795L1375.63 84.2242C1373.34 83.9953 1370.09 83.8332 1365.92 83.7265L1365.69 92.7236ZM1370.69 88.7019V126.846H1379.69V88.7019H1370.69ZM1376.28 122.48C1374.73 122.092 1371.56 121.585 1367.07 120.958L1365.82 129.872C1370.45 130.517 1373.1 130.963 1374.09 131.211L1376.28 122.48ZM1367.18 120.976C1362.47 120.19 1357.5 119.803 1352.3 119.803V128.803C1357.06 128.803 1361.52 129.157 1365.71 129.854L1367.18 120.976ZM1352.3 119.803C1339.79 119.803 1328.45 122.434 1318.39 127.803L1322.63 135.742C1331.23 131.151 1341.08 128.803 1352.3 128.803V119.803ZM1318.41 127.794C1308.5 133.033 1300.59 140.361 1294.76 149.739L1302.4 154.492C1307.38 146.494 1314.09 140.26 1322.62 135.751L1318.41 127.794ZM1294.75 149.752C1288.98 159.11 1286.13 169.744 1286.13 181.518H1295.13C1295.13 171.254 1297.59 162.286 1302.41 154.479L1294.75 149.752ZM1286.13 181.518V336H1295.13V181.518H1286.13ZM1290.63 331.5H1253.13V340.5H1290.63V331.5ZM1431.47 332.98L1429.55 337.052L1429.56 337.059L1429.58 337.065L1431.47 332.98ZM1401.43 307.392L1397.67 309.872L1397.68 309.88L1397.68 309.888L1401.43 307.392ZM1398.57 232.694L1402.37 235.104L1402.37 235.094L1402.38 235.083L1398.57 232.694ZM1420.66 212.033L1422.8 215.992L1420.66 212.033ZM1451.17 200.908L1452.14 205.304L1452.15 205.3L1452.17 205.297L1451.17 200.908ZM1485.03 194.868L1484.45 190.405L1484.44 190.406L1485.03 194.868ZM1521.1 190.577L1521.57 195.053L1521.59 195.051L1521.61 195.048L1521.1 190.577ZM1541.45 185.332L1539.24 181.408L1539.22 181.42L1539.2 181.431L1541.45 185.332ZM1535.09 134.792L1531.87 137.935L1531.88 137.945L1531.89 137.955L1535.09 134.792ZM1454.35 133.521L1457.1 137.085L1454.35 133.521ZM1432.9 158.632L1431.38 162.87L1435.25 164.251L1436.98 160.527L1432.9 158.632ZM1397.3 145.917L1393.16 144.145L1391.27 148.545L1395.78 150.155L1397.3 145.917ZM1422.72 111.27L1425.49 114.818L1425.5 114.815L1422.72 111.27ZM1457.69 93.7877L1458.82 98.1423L1458.84 98.1391L1458.85 98.1357L1457.69 93.7877ZM1522.22 91.5626L1521.39 95.9855L1521.41 95.9904L1521.44 95.9951L1522.22 91.5626ZM1551.94 102.847L1549.62 106.706L1549.63 106.711L1549.64 106.717L1551.94 102.847ZM1575.93 128.753L1571.99 130.923L1575.93 128.753ZM1585.47 336V340.5H1589.97V336H1585.47ZM1547.96 336H1543.46V340.5H1547.96V336ZM1547.96 302.942H1552.46V298.442H1547.96V302.942ZM1546.06 302.942V298.442H1543.22L1542 300.995L1546.06 302.942ZM1533.34 319.948L1536.55 323.102L1533.34 319.948ZM1509.66 335.364L1507.88 331.23L1509.66 335.364ZM1516.81 299.287L1514.59 295.372L1514.58 295.377L1514.58 295.382L1516.81 299.287ZM1540.02 276.718L1536.11 274.476L1536.1 274.493L1536.1 274.51L1540.02 276.718ZM1547.96 213.305H1552.46V200.875L1544.51 210.424L1547.96 213.305ZM1537.47 218.549L1538.69 222.883L1538.71 222.875L1538.74 222.866L1537.47 218.549ZM1519.04 222.523L1519.72 226.97L1519.75 226.966L1519.78 226.961L1519.04 222.523ZM1498.85 225.383L1499.37 229.854L1499.4 229.85L1499.43 229.846L1498.85 225.383ZM1483.12 227.291L1483.7 231.753L1483.71 231.752L1483.12 227.291ZM1455.78 233.489L1457.19 237.763L1457.21 237.758L1457.22 237.753L1455.78 233.489ZM1435.44 246.044L1432.13 242.99L1432.13 242.992L1435.44 246.044ZM1442.27 298.174L1439.71 301.874L1439.73 301.89L1439.76 301.906L1442.27 298.174ZM1473.58 337.222C1458.69 337.222 1445.31 334.42 1433.35 328.895L1429.58 337.065C1442.84 343.196 1457.54 346.222 1473.58 346.222V337.222ZM1433.38 328.909C1421.48 323.309 1412.11 315.31 1405.17 304.896L1397.68 309.888C1405.57 321.725 1416.23 330.785 1429.55 337.052L1433.38 328.909ZM1405.18 304.912C1398.33 294.542 1394.8 281.88 1394.8 266.706H1385.8C1385.8 283.318 1389.69 297.78 1397.67 309.872L1405.18 304.912ZM1394.8 266.706C1394.8 253.276 1397.45 242.856 1402.37 235.104L1394.77 230.284C1388.66 239.909 1385.8 252.163 1385.8 266.706H1394.8ZM1402.38 235.083C1407.47 226.955 1414.26 220.606 1422.8 215.992L1418.52 208.074C1408.62 213.42 1400.68 220.845 1394.75 230.305L1402.38 235.083ZM1422.8 215.992C1431.61 211.229 1441.39 207.658 1452.14 205.304L1450.21 196.512C1438.71 199.031 1428.14 202.878 1418.52 208.074L1422.8 215.992ZM1452.17 205.297C1463.26 202.784 1474.41 200.796 1485.61 199.33L1484.44 190.406C1472.97 191.908 1461.55 193.946 1450.18 196.519L1452.17 205.297ZM1485.6 199.332C1500.42 197.427 1512.4 196.002 1521.57 195.053L1520.64 186.101C1511.37 187.06 1499.3 188.496 1484.45 190.405L1485.6 199.332ZM1521.61 195.048C1531.09 193.972 1538.63 192.145 1543.69 189.234L1539.2 181.431C1535.79 183.394 1529.77 185.064 1520.6 186.106L1521.61 195.048ZM1543.65 189.257C1549.74 185.842 1552.46 179.876 1552.46 172.618H1543.46C1543.46 177.439 1541.85 179.949 1539.24 181.408L1543.65 189.257ZM1552.46 172.618V171.346H1543.46V172.618H1552.46ZM1552.46 171.346C1552.46 154.833 1547.92 141.381 1538.29 131.63L1531.89 137.955C1539.42 145.58 1543.46 156.498 1543.46 171.346H1552.46ZM1538.31 131.65C1528.68 121.781 1514.43 117.26 1496.47 117.26V126.26C1513.05 126.26 1524.54 130.426 1531.87 137.935L1538.31 131.65ZM1496.47 117.26C1477.95 117.26 1462.82 121.31 1451.6 129.957L1457.1 137.085C1466.23 130.05 1479.17 126.26 1496.47 126.26V117.26ZM1451.6 129.957C1441.03 138.107 1433.33 147.011 1428.81 156.737L1436.98 160.527C1440.73 152.453 1447.33 144.616 1457.1 137.085L1451.6 129.957ZM1434.41 154.394L1398.81 141.68L1395.78 150.155L1431.38 162.87L1434.41 154.394ZM1401.43 147.69C1407.55 133.414 1415.6 122.531 1425.49 114.818L1419.96 107.722C1408.65 116.539 1399.76 128.753 1393.16 144.145L1401.43 147.69ZM1425.5 114.815C1435.73 106.807 1446.84 101.265 1458.82 98.1423L1456.55 89.433C1443.33 92.8794 1431.12 98.9926 1419.95 107.726L1425.5 114.815ZM1458.85 98.1357C1471.21 94.839 1483.32 93.2019 1495.2 93.2019V84.2019C1482.49 84.2019 1469.6 85.9553 1456.53 89.4396L1458.85 98.1357ZM1495.2 93.2019C1502.69 93.2019 1511.41 94.1144 1521.39 95.9855L1523.05 87.1397C1512.68 85.1965 1503.39 84.2019 1495.2 84.2019V93.2019ZM1521.44 95.9951C1531.14 97.6949 1540.53 101.249 1549.62 106.706L1554.25 98.9881C1544.27 93.0014 1533.85 89.0328 1522.99 87.1302L1521.44 95.9951ZM1549.64 106.717C1558.48 111.962 1565.95 119.952 1571.99 130.923L1579.88 126.583C1573.2 114.455 1564.68 105.175 1554.23 98.9769L1549.64 106.717ZM1571.99 130.923C1577.85 141.567 1580.97 156.198 1580.97 175.161H1589.97C1589.97 155.344 1586.73 139.037 1579.88 126.583L1571.99 130.923ZM1580.97 175.161V336H1589.97V175.161H1580.97ZM1585.47 331.5H1547.96V340.5H1585.47V331.5ZM1552.46 336V302.942H1543.46V336H1552.46ZM1547.96 298.442H1546.06V307.442H1547.96V298.442ZM1542 300.995C1539.74 305.697 1535.86 310.966 1530.13 316.794L1536.55 323.102C1542.69 316.851 1547.28 310.783 1550.11 304.889L1542 300.995ZM1530.13 316.794C1524.7 322.322 1517.34 327.164 1507.88 331.23L1511.44 339.498C1521.69 335.088 1530.11 329.652 1536.55 323.102L1530.13 316.794ZM1507.88 331.23C1498.74 335.162 1487.36 337.222 1473.58 337.222V346.222C1488.2 346.222 1500.87 344.042 1511.44 339.498L1507.88 331.23ZM1479.3 312.528C1494.72 312.528 1508.04 309.5 1519.05 303.191L1514.58 295.382C1505.24 300.729 1493.56 303.528 1479.3 303.528V312.528ZM1519.03 303.201C1529.94 297.019 1538.3 288.938 1543.94 278.927L1536.1 274.51C1531.35 282.934 1524.24 289.9 1514.59 295.372L1519.03 303.201ZM1543.92 278.961C1549.59 269.092 1552.46 258.629 1552.46 247.634H1543.46C1543.46 256.982 1541.04 265.908 1536.11 274.476L1543.92 278.961ZM1552.46 247.634V213.305H1543.46V247.634H1552.46ZM1544.51 210.424C1544.27 210.705 1543.61 211.283 1542.14 212.021C1540.7 212.737 1538.75 213.483 1536.2 214.232L1538.74 222.866C1541.6 222.026 1544.1 221.104 1546.16 220.071C1548.18 219.061 1550.07 217.811 1551.42 216.185L1544.51 210.424ZM1536.26 214.216C1531.15 215.645 1525.17 216.938 1518.3 218.084L1519.78 226.961C1526.89 225.776 1533.2 224.42 1538.69 222.883L1536.26 214.216ZM1518.35 218.075C1511.5 219.129 1504.81 220.078 1498.28 220.92L1499.43 229.846C1506.04 228.994 1512.8 228.035 1519.72 226.97L1518.35 218.075ZM1498.34 220.913C1491.86 221.656 1486.59 222.295 1482.53 222.829L1483.71 231.752C1487.7 231.227 1492.91 230.594 1499.37 229.854L1498.34 220.913ZM1482.54 222.828C1472.53 224.134 1463.12 226.262 1454.34 229.225L1457.22 237.753C1465.39 234.995 1474.22 232.99 1483.7 231.753L1482.54 222.828ZM1454.38 229.214C1445.39 232.171 1437.92 236.733 1432.13 242.99L1438.74 249.099C1443.34 244.125 1449.43 240.316 1457.19 237.763L1454.38 229.214ZM1432.13 242.992C1426.09 249.541 1423.31 258.265 1423.31 268.613H1432.31C1432.31 259.889 1434.62 253.567 1438.75 249.097L1432.13 242.992ZM1423.31 268.613C1423.31 282.93 1428.71 294.255 1439.71 301.874L1444.83 294.474C1436.56 288.743 1432.31 280.361 1432.31 268.613H1423.31ZM1439.76 301.906C1450.43 309.096 1463.71 312.528 1479.3 312.528V303.528C1465.02 303.528 1453.61 300.391 1444.79 294.443L1439.76 301.906ZM1674.33 325.669L1671.83 329.414L1671.84 329.42L1671.85 329.425L1674.33 325.669ZM1637.78 281.804L1633.69 283.697L1633.7 283.706L1637.78 281.804ZM1637.78 147.825L1633.7 145.923L1637.78 147.825ZM1674.49 104.118L1672.02 100.355L1674.49 104.118ZM1766.51 96.6485L1764.27 100.55L1764.3 100.565L1764.32 100.58L1766.51 96.6485ZM1787.81 114.449L1784.17 117.102L1784.2 117.135L1784.22 117.167L1787.81 114.449ZM1799.41 130.66L1795.64 133.112L1796.97 135.16H1799.41V130.66ZM1802.59 130.66V135.16H1807.09V130.66H1802.59ZM1802.59 10.5073V6.00732H1798.09V10.5073H1802.59ZM1840.1 10.5073H1844.6V6.00732H1840.1V10.5073ZM1840.1 336V340.5H1844.6V336H1840.1ZM1803.86 336H1799.36V340.5H1803.86V336ZM1803.86 298.492H1808.36V293.992H1803.86V298.492ZM1799.41 298.492V293.992H1796.9L1795.58 296.123L1799.41 298.492ZM1787.65 315.339L1791.23 318.066L1791.24 318.052L1791.25 318.039L1787.65 315.339ZM1765.88 333.298L1768.05 337.24L1768.06 337.231L1768.08 337.221L1765.88 333.298ZM1771.44 295.631L1774.15 299.222L1774.16 299.214L1774.17 299.205L1771.44 295.631ZM1795.12 262.732L1799.32 264.354L1799.32 264.344L1795.12 262.732ZM1795.28 166.102L1791.08 167.717L1791.08 167.728L1795.28 166.102ZM1771.76 133.997L1769.07 137.606L1769.08 137.615L1769.09 137.624L1771.76 133.997ZM1693.56 134.633L1696.3 138.203L1696.31 138.199L1693.56 134.633ZM1669.88 167.532L1665.68 165.927L1665.67 165.936L1665.67 165.945L1669.88 167.532ZM1670.04 261.302L1665.82 262.875L1665.83 262.894L1665.84 262.913L1670.04 261.302ZM1693.88 294.996L1691.07 298.513L1691.09 298.528L1691.11 298.544L1693.88 294.996ZM1728.21 336.586C1708.66 336.586 1691.58 331.662 1676.81 321.913L1671.85 329.425C1688.23 340.232 1707.07 345.586 1728.21 345.586V336.586ZM1676.83 321.925C1662.01 312.049 1650.34 298.101 1641.86 279.902L1633.7 283.706C1642.8 303.228 1655.5 318.523 1671.83 329.414L1676.83 321.925ZM1641.86 279.911C1633.4 261.662 1629.09 239.926 1629.09 214.576H1620.09C1620.09 240.932 1624.57 264.015 1633.69 283.697L1641.86 279.911ZM1629.09 214.576C1629.09 189.443 1633.4 167.869 1641.86 149.726L1633.7 145.923C1624.57 165.5 1620.09 188.427 1620.09 214.576H1629.09ZM1641.86 149.726C1650.34 131.539 1662.05 117.651 1676.96 107.882L1672.02 100.355C1655.57 111.14 1642.81 126.39 1633.7 145.923L1641.86 149.726ZM1676.96 107.882C1691.83 98.1307 1709.08 93.2019 1728.84 93.2019V84.2019C1707.5 84.2019 1688.51 89.5506 1672.02 100.355L1676.96 107.882ZM1728.84 93.2019C1744.31 93.2019 1755.99 95.7917 1764.27 100.55L1768.75 92.7469C1758.6 86.9097 1745.16 84.2019 1728.84 84.2019V93.2019ZM1764.32 100.58C1773.24 105.544 1779.78 111.082 1784.17 117.102L1791.44 111.795C1786.09 104.465 1778.43 98.1365 1768.7 92.7169L1764.32 100.58ZM1784.22 117.167C1789.17 123.697 1792.97 129.003 1795.64 133.112L1803.18 128.207C1800.34 123.84 1796.4 118.339 1791.39 111.73L1784.22 117.167ZM1799.41 135.16H1802.59V126.16H1799.41V135.16ZM1807.09 130.66V10.5073H1798.09V130.66H1807.09ZM1802.59 15.0073H1840.1V6.00732H1802.59V15.0073ZM1835.6 10.5073V336H1844.6V10.5073H1835.6ZM1840.1 331.5H1803.86V340.5H1840.1V331.5ZM1808.36 336V298.492H1799.36V336H1808.36ZM1803.86 293.992H1799.41V302.992H1803.86V293.992ZM1795.58 296.123C1792.93 300.412 1789.1 305.908 1784.05 312.639L1791.25 318.039C1796.37 311.207 1800.38 305.472 1803.24 300.861L1795.58 296.123ZM1784.07 312.612C1779.45 318.679 1772.71 324.295 1763.67 329.375L1768.08 337.221C1777.9 331.706 1785.68 325.349 1791.23 318.066L1784.07 312.612ZM1763.71 329.356C1755.18 334.052 1743.45 336.586 1728.21 336.586V345.586C1744.33 345.586 1757.72 342.927 1768.05 337.24L1763.71 329.356ZM1733.29 311.892C1749.16 311.892 1762.87 307.742 1774.15 299.222L1768.73 292.04C1759.24 299.202 1747.52 302.892 1733.29 302.892V311.892ZM1774.17 299.205C1785.31 290.684 1793.66 278.997 1799.32 264.354L1790.92 261.111C1785.77 274.439 1778.34 284.685 1768.7 292.058L1774.17 299.205ZM1799.32 264.344C1804.96 249.637 1807.72 232.809 1807.72 213.94H1798.72C1798.72 231.944 1796.09 247.643 1790.92 261.121L1799.32 264.344ZM1807.72 213.94C1807.72 195.29 1805.02 178.771 1799.47 164.475L1791.08 167.728C1796.14 180.768 1798.72 196.142 1798.72 213.94H1807.72ZM1799.48 164.486C1793.92 150.029 1785.59 138.58 1774.42 130.371L1769.09 137.624C1778.69 144.672 1786.04 154.627 1791.08 167.717L1799.48 164.486ZM1774.44 130.389C1763.15 121.977 1749.34 117.895 1733.29 117.895V126.895C1747.76 126.895 1759.59 130.549 1769.07 137.606L1774.44 130.389ZM1733.29 117.895C1716.6 117.895 1702.34 122.195 1690.82 131.068L1696.31 138.199C1705.97 130.755 1718.2 126.895 1733.29 126.895V117.895ZM1690.82 131.064C1679.59 139.684 1671.23 151.368 1665.68 165.927L1674.09 169.137C1679.12 155.936 1686.55 145.688 1696.3 138.203L1690.82 131.064ZM1665.67 165.945C1660.26 180.303 1657.59 196.322 1657.59 213.94H1666.59C1666.59 197.229 1669.12 182.309 1674.09 169.119L1665.67 165.945ZM1657.59 213.94C1657.59 231.776 1660.31 248.106 1665.82 262.875L1674.26 259.729C1669.17 246.102 1666.59 230.857 1666.59 213.94H1657.59ZM1665.84 262.913C1671.49 277.658 1679.88 289.583 1691.07 298.513L1696.69 291.478C1686.9 283.668 1679.4 273.13 1674.24 259.691L1665.84 262.913ZM1691.11 298.544C1702.63 307.524 1716.79 311.892 1733.29 311.892V302.892C1718.44 302.892 1706.32 298.996 1696.65 291.447L1691.11 298.544ZM1937.58 325.51L1935.21 329.337L1935.23 329.346L1935.24 329.354L1937.58 325.51ZM1898.32 281.645L1894.27 283.603L1894.28 283.617L1894.29 283.63L1898.32 281.645ZM1898.32 149.732L1894.27 147.782L1894.26 147.792L1898.32 149.732ZM1936.79 104.913L1939.24 108.683L1939.25 108.679L1936.79 104.913ZM2032.3 95.0591L2033.76 90.8011L2032.3 95.0591ZM2066.16 115.72L2063.08 119.003L2063.09 119.012L2063.1 119.02L2066.16 115.72ZM2090.47 153.228L2094.67 151.601V151.601L2090.47 153.228ZM2099.53 226.655V231.155H2104.03V226.655H2099.53ZM1911.36 226.655H1906.86V231.155H1911.36V226.655ZM1911.36 194.233V189.733H1906.86V194.233H1911.36ZM2061.39 194.233V198.733H2065.89V194.233H2061.39ZM2053.12 157.36L2049.1 159.373L2049.11 159.389L2049.11 159.404L2053.12 157.36ZM2029.92 131.772L2027.53 135.584L2027.54 135.59L2027.55 135.595L2029.92 131.772ZM1955.86 133.521L1958.38 137.248L1958.39 137.243L1955.86 133.521ZM1930.9 162.128L1926.87 160.13L1930.9 162.128ZM1931.7 268.454L1927.67 270.453L1927.68 270.473L1927.69 270.493L1931.7 268.454ZM1958.56 297.538L1956.29 301.425L1956.3 301.433L1956.32 301.441L1958.56 297.538ZM2025.15 303.26L2026.63 307.512L2026.64 307.506L2026.66 307.5L2025.15 303.26ZM2045.97 290.545L2049.09 293.786L2049.11 293.771L2049.12 293.757L2045.97 290.545ZM2059.48 269.249L2060.7 264.916L2056.72 263.799L2055.27 267.669L2059.48 269.249ZM2095.72 279.42L2100.01 280.754L2101.39 276.337L2096.93 275.088L2095.72 279.42ZM2076.49 311.842L2079.71 314.987L2079.71 314.978L2079.72 314.969L2076.49 311.842ZM2043.11 333.457L2044.72 337.658L2044.74 337.652L2044.75 337.647L2043.11 333.457ZM1998.45 336.586C1975.61 336.586 1956.16 331.55 1939.92 321.667L1935.24 329.354C1953.12 340.238 1974.25 345.586 1998.45 345.586V336.586ZM1939.95 321.684C1923.75 311.661 1911.23 297.694 1902.36 279.66L1894.29 283.63C1903.86 303.105 1917.5 318.381 1935.21 329.337L1939.95 321.684ZM1902.38 279.688C1893.61 261.545 1889.16 240.305 1889.16 215.847H1880.16C1880.16 241.401 1884.81 264.025 1894.27 283.603L1902.38 279.688ZM1889.16 215.847C1889.16 191.392 1893.61 170.037 1902.38 151.672L1894.26 147.792C1884.81 167.57 1880.16 190.293 1880.16 215.847H1889.16ZM1902.38 151.681C1911.27 133.179 1923.57 118.897 1939.24 108.683L1934.33 101.143C1917.16 112.332 1903.81 127.928 1894.27 147.782L1902.38 151.681ZM1939.25 108.679C1954.96 98.405 1973.37 93.2019 1994.64 93.2019V84.2019C1971.83 84.2019 1951.67 89.8061 1934.32 101.147L1939.25 108.679ZM1994.64 93.2019C2006.84 93.2019 2018.9 95.2343 2030.85 99.3172L2033.76 90.8011C2020.91 86.4076 2007.86 84.2019 1994.64 84.2019V93.2019ZM2030.85 99.3172C2042.6 103.336 2053.34 109.875 2063.08 119.003L2069.23 112.437C2058.63 102.494 2046.8 95.2587 2033.76 90.8011L2030.85 99.3172ZM2063.1 119.02C2072.68 127.901 2080.43 139.788 2086.28 154.855L2094.67 151.601C2088.43 135.518 2079.98 122.4 2069.22 112.42L2063.1 119.02ZM2086.28 154.855C2092.06 169.76 2095.03 188.349 2095.03 210.762H2104.03C2104.03 187.614 2100.97 167.847 2094.67 151.601L2086.28 154.855ZM2095.03 210.762V226.655H2104.03V210.762H2095.03ZM2099.53 222.155H1911.36V231.155H2099.53V222.155ZM1915.86 226.655V194.233H1906.86V226.655H1915.86ZM1911.36 198.733H2061.39V189.733H1911.36V198.733ZM2065.89 194.233C2065.89 179.845 2063.01 166.838 2057.13 155.317L2049.11 159.404C2054.26 169.498 2056.89 181.072 2056.89 194.233H2065.89ZM2057.15 155.348C2051.38 143.812 2043.08 134.649 2032.29 127.95L2027.55 135.595C2036.89 141.398 2044.06 149.295 2049.1 159.373L2057.15 155.348ZM2032.31 127.961C2021.53 121.194 2008.91 117.895 1994.64 117.895V126.895C2007.48 126.895 2018.39 129.848 2027.53 135.584L2032.31 127.961ZM1994.64 117.895C1978.92 117.895 1965.08 121.81 1953.33 129.799L1958.39 137.243C1968.46 130.398 1980.48 126.895 1994.64 126.895V117.895ZM1953.34 129.793C1941.88 137.543 1933.04 147.676 1926.87 160.13L1934.94 164.126C1940.42 153.058 1948.22 144.12 1958.38 137.248L1953.34 129.793ZM1926.87 160.13C1920.73 172.529 1917.66 185.823 1917.66 199.954H1926.66C1926.66 187.173 1929.42 175.25 1934.94 164.126L1926.87 160.13ZM1917.66 199.954V221.569H1926.66V199.954H1917.66ZM1917.66 221.569C1917.66 240.505 1920.93 256.858 1927.67 270.453L1935.73 266.455C1929.76 254.408 1926.66 239.505 1926.66 221.569H1917.66ZM1927.69 270.493C1934.51 283.917 1944.04 294.281 1956.29 301.425L1960.83 293.651C1950.19 287.446 1941.81 278.42 1935.71 266.415L1927.69 270.493ZM1956.32 301.441C1968.54 308.457 1982.63 311.892 1998.45 311.892V302.892C1983.97 302.892 1971.46 299.759 1960.8 293.636L1956.32 301.441ZM1998.45 311.892C2008.72 311.892 2018.13 310.456 2026.63 307.512L2023.68 299.008C2016.28 301.573 2007.89 302.892 1998.45 302.892V311.892ZM2026.66 307.5C2035.28 304.437 2042.78 299.871 2049.09 293.786L2042.85 287.305C2037.51 292.451 2031.13 296.361 2023.64 299.02L2026.66 307.5ZM2049.12 293.757C2055.47 287.527 2060.31 279.852 2063.69 270.829L2055.27 267.669C2052.29 275.598 2048.13 282.12 2042.82 287.334L2049.12 293.757ZM2058.26 273.581L2094.5 283.753L2096.93 275.088L2060.7 264.916L2058.26 273.581ZM2091.42 278.086C2087.82 289.7 2081.77 299.894 2073.25 308.716L2079.72 314.969C2089.21 305.142 2095.99 293.722 2100.01 280.754L2091.42 278.086ZM2073.27 308.698C2064.75 317.414 2054.18 324.284 2041.47 329.267L2044.75 337.647C2058.53 332.247 2070.21 324.707 2079.71 314.987L2073.27 308.698ZM2041.5 329.256C2028.85 334.115 2014.52 336.586 1998.45 336.586V345.586C2015.44 345.586 2030.89 342.971 2044.72 337.658L2041.5 329.256ZM2301.97 336L2297.66 337.312L2298.63 340.5H2301.97V336ZM2227.59 91.8805V87.3805H2221.51L2223.28 93.192L2227.59 91.8805ZM2267 91.8805L2271.33 90.6579L2270.41 87.3805H2267V91.8805ZM2319.77 278.784L2315.44 280.007L2316.36 283.284H2319.77V278.784ZM2322.31 278.784V283.284H2325.73L2326.64 279.993L2322.31 278.784ZM2374.44 91.8805V87.3805H2371.02L2370.1 90.6715L2374.44 91.8805ZM2414.49 91.8805L2418.83 90.6814L2417.91 87.3805H2414.49V91.8805ZM2465.98 278.149L2461.65 279.348L2462.56 282.649H2465.98V278.149ZM2468.53 278.149V282.649H2471.93L2472.86 279.375L2468.53 278.149ZM2521.29 91.8805V87.3805H2517.89L2516.96 90.654L2521.29 91.8805ZM2560.71 91.8805L2565.01 93.192L2566.78 87.3805H2560.71V91.8805ZM2486.33 336V340.5H2489.66L2490.63 337.312L2486.33 336ZM2449.46 336L2445.13 337.232L2446.06 340.5H2449.46V336ZM2396.05 148.46L2400.38 147.228L2399.45 143.96H2396.05V148.46ZM2392.24 148.46V143.96H2388.84L2387.91 147.228L2392.24 148.46ZM2338.84 336V340.5H2342.24L2343.17 337.232L2338.84 336ZM2306.27 334.688L2231.89 90.5689L2223.28 93.192L2297.66 337.312L2306.27 334.688ZM2227.59 96.3805H2267V87.3805H2227.59V96.3805ZM2262.67 93.1031L2315.44 280.007L2324.1 277.562L2271.33 90.6579L2262.67 93.1031ZM2319.77 283.284H2322.31V274.284H2319.77V283.284ZM2326.64 279.993L2378.77 93.0894L2370.1 90.6715L2317.98 277.576L2326.64 279.993ZM2374.44 96.3805H2414.49V87.3805H2374.44V96.3805ZM2410.15 93.0795L2461.65 279.348L2470.32 276.95L2418.83 90.6814L2410.15 93.0795ZM2465.98 282.649H2468.53V273.649H2465.98V282.649ZM2472.86 279.375L2525.62 93.107L2516.96 90.654L2464.2 276.922L2472.86 279.375ZM2521.29 96.3805H2560.71V87.3805H2521.29V96.3805ZM2556.4 90.5689L2482.02 334.688L2490.63 337.312L2565.01 93.192L2556.4 90.5689ZM2486.33 331.5H2449.46V340.5H2486.33V331.5ZM2453.78 334.768L2400.38 147.228L2391.73 149.693L2445.13 337.232L2453.78 334.768ZM2396.05 143.96H2392.24V152.96H2396.05V143.96ZM2387.91 147.228L2334.51 334.768L2343.17 337.232L2396.57 149.693L2387.91 147.228ZM2338.84 331.5H2301.97V340.5H2338.84V331.5ZM2592.39 336H2587.89V340.5H2592.39V336ZM2592.39 91.8805V87.3805H2587.89V91.8805H2592.39ZM2629.9 91.8805H2634.4V87.3805H2629.9V91.8805ZM2629.9 336V340.5H2634.4V336H2629.9ZM2592.55 43.7241L2589.44 46.9717L2589.45 46.9874L2589.47 47.0029L2592.55 43.7241ZM2592.55 7.80547L2589.47 4.52664L2589.45 4.54219L2589.44 4.55791L2592.55 7.80547ZM2630.22 7.80547L2627.1 11.053L2627.12 11.0687L2627.14 11.0843L2630.22 7.80547ZM2630.22 43.7241L2627.14 40.4453L2627.12 40.4608L2627.1 40.4765L2630.22 43.7241ZM2596.89 336V91.8805H2587.89V336H2596.89ZM2592.39 96.3805H2629.9V87.3805H2592.39V96.3805ZM2625.4 91.8805V336H2634.4V91.8805H2625.4ZM2629.9 331.5H2592.39V340.5H2629.9V331.5ZM2611.46 46.6939C2605.29 46.6939 2600.09 44.6359 2595.63 40.4453L2589.47 47.0029C2595.61 52.772 2603.01 55.6939 2611.46 55.6939V46.6939ZM2595.67 40.4765C2591.33 36.3179 2589.26 31.4927 2589.26 25.7648H2580.26C2580.26 34.0229 2583.39 41.1706 2589.44 46.9717L2595.67 40.4765ZM2589.26 25.7648C2589.26 20.0369 2591.33 15.2117 2595.67 11.053L2589.44 4.55791C2583.39 10.359 2580.26 17.5067 2580.26 25.7648H2589.26ZM2595.63 11.0843C2600.09 6.89368 2605.29 4.83568 2611.46 4.83568V-4.16432C2603.01 -4.16432 2595.61 -1.24247 2589.47 4.52664L2595.63 11.0843ZM2611.46 4.83568C2617.63 4.83568 2622.76 6.89131 2627.1 11.053L2633.33 4.5579C2627.29 -1.2401 2619.91 -4.16432 2611.46 -4.16432V4.83568ZM2627.14 11.0843C2631.57 15.2518 2633.66 20.0681 2633.66 25.7648H2642.66C2642.66 17.4755 2639.46 10.3189 2633.3 4.52665L2627.14 11.0843ZM2633.66 25.7648C2633.66 31.4615 2631.57 36.2778 2627.14 40.4453L2633.3 47.0029C2639.46 41.2106 2642.66 34.0541 2642.66 25.7648H2633.66ZM2627.1 40.4765C2622.76 44.6383 2617.63 46.6939 2611.46 46.6939V55.6939C2619.91 55.6939 2627.29 52.7697 2633.33 46.9717L2627.1 40.4765ZM2786.86 91.8805H2791.36V87.3805H2786.86V91.8805ZM2786.86 123.667V128.167H2791.36V123.667H2786.86ZM2660.35 123.667H2655.85V128.167H2660.35V123.667ZM2660.35 91.8805V87.3805H2655.85V91.8805H2660.35ZM2697.23 33.3935V28.8935H2692.73V33.3935H2697.23ZM2734.73 33.3935H2739.23V28.8935H2734.73V33.3935ZM2739.34 289.91L2735.45 292.167L2735.48 292.214L2735.5 292.259L2739.34 289.91ZM2751.42 300.399L2749.86 304.62L2749.92 304.64L2749.97 304.659L2751.42 300.399ZM2777.33 302.306L2778.04 306.75L2778.12 306.736L2778.21 306.719L2777.33 302.306ZM2783.68 301.035L2788.07 300.041L2787.1 295.762L2782.8 296.622L2783.68 301.035ZM2791.31 334.729L2792.89 338.942L2796.57 337.564L2795.7 333.735L2791.31 334.729ZM2780.66 337.589L2779.74 333.185L2779.69 333.195L2779.65 333.206L2780.66 337.589ZM2732.19 332.345L2730.33 336.444L2730.34 336.448L2730.35 336.451L2732.19 332.345ZM2707.08 311.524L2703.4 314.116L2703.41 314.13L2703.42 314.144L2707.08 311.524ZM2782.36 91.8805V123.667H2791.36V91.8805H2782.36ZM2786.86 119.167H2660.35V128.167H2786.86V119.167ZM2664.85 123.667V91.8805H2655.85V123.667H2664.85ZM2660.35 96.3805H2786.86V87.3805H2660.35V96.3805ZM2697.23 37.8935H2734.73V28.8935H2697.23V37.8935ZM2730.23 33.3935V266.07H2739.23V33.3935H2730.23ZM2730.23 266.07C2730.23 276.953 2731.79 285.85 2735.45 292.167L2743.23 287.652C2740.75 283.374 2739.23 276.378 2739.23 266.07H2730.23ZM2735.5 292.259C2739.12 298.159 2743.88 302.411 2749.86 304.62L2752.98 296.178C2749.21 294.785 2745.93 292.044 2743.18 287.56L2735.5 292.259ZM2749.97 304.659C2755.44 306.521 2761.18 307.442 2767.16 307.442V298.442C2762.12 298.442 2757.36 297.668 2752.87 296.139L2749.97 304.659ZM2767.16 307.442C2771.41 307.442 2775.06 307.226 2778.04 306.75L2776.62 297.863C2774.29 298.235 2771.16 298.442 2767.16 298.442V307.442ZM2778.21 306.719C2780.86 306.189 2782.98 305.765 2784.57 305.448L2782.8 296.622C2781.21 296.94 2779.09 297.364 2776.44 297.894L2778.21 306.719ZM2779.3 302.029L2786.92 335.722L2795.7 333.735L2788.07 300.041L2779.3 302.029ZM2789.73 330.515C2787.5 331.351 2784.21 332.25 2779.74 333.185L2781.59 341.994C2786.23 341.021 2790.04 340.013 2792.89 338.942L2789.73 330.515ZM2779.65 333.206C2775.54 334.16 2770.14 334.679 2763.34 334.679V343.679C2770.53 343.679 2776.67 343.138 2781.68 341.972L2779.65 333.206ZM2763.34 334.679C2753.41 334.679 2743.65 332.548 2734.03 328.238L2730.35 336.451C2741.07 341.253 2752.08 343.679 2763.34 343.679V334.679ZM2734.05 328.245C2724.73 324.028 2716.97 317.611 2710.74 308.905L2703.42 314.144C2710.54 324.086 2719.52 331.549 2730.33 336.444L2734.05 328.245ZM2710.76 308.933C2704.84 300.535 2701.73 289.741 2701.73 276.242H2692.73C2692.73 291.138 2696.18 303.866 2703.4 314.116L2710.76 308.933ZM2701.73 276.242V33.3935H2692.73V276.242H2701.73ZM2868.13 336V340.5H2872.63V336H2868.13ZM2830.63 336H2826.13V340.5H2830.63V336ZM2830.63 10.5073V6.00732H2826.13V10.5073H2830.63ZM2868.13 10.5073H2872.63V6.00732H2868.13V10.5073ZM2868.13 130.024H2863.63V134.524H2868.13V130.024ZM2871.31 130.024V134.524H2874.21L2875.41 131.884L2871.31 130.024ZM2897.06 99.986L2899.51 103.762L2899.52 103.757L2897.06 99.986ZM2986.86 98.7146L2984.74 102.684L2984.75 102.691L2984.76 102.698L2986.86 98.7146ZM3015.94 129.071L3011.92 131.095L3011.93 131.114L3011.94 131.133L3015.94 129.071ZM3026.43 336V340.5H3030.93V336H3026.43ZM2988.92 336H2984.42V340.5H2988.92V336ZM2973.82 138.448L2970.53 141.513L2970.55 141.53L2970.56 141.547L2973.82 138.448ZM2899.29 130.183L2897.17 126.211L2897.16 126.216L2897.15 126.221L2899.29 130.183ZM2876.4 152.91L2872.48 150.7L2872.47 150.716L2872.46 150.732L2876.4 152.91ZM2863.63 189.147V336H2872.63V189.147H2863.63ZM2868.13 331.5H2830.63V340.5H2868.13V331.5ZM2835.13 336V10.5073H2826.13V336H2835.13ZM2830.63 15.0073H2868.13V6.00732H2830.63V15.0073ZM2863.63 10.5073V130.024H2872.63V10.5073H2863.63ZM2868.13 134.524H2871.31V125.524H2868.13V134.524ZM2875.41 131.884C2880.78 120.046 2888.8 110.703 2899.51 103.762L2894.61 96.2098C2882.44 104.102 2873.29 114.785 2867.22 128.165L2875.41 131.884ZM2899.52 103.757C2910.1 96.8621 2924.52 93.2019 2943.15 93.2019V84.2019C2923.43 84.2019 2907.12 88.0644 2894.6 96.2154L2899.52 103.757ZM2943.15 93.2019C2959.17 93.2019 2972.99 96.4132 2984.74 102.684L2988.98 94.7449C2975.72 87.6657 2960.4 84.2019 2943.15 84.2019V93.2019ZM2984.76 102.698C2996.37 108.794 3005.42 118.191 3011.92 131.095L3019.96 127.046C3012.69 112.614 3002.35 101.773 2988.95 94.731L2984.76 102.698ZM3011.94 131.133C3018.51 143.864 3021.93 160.366 3021.93 180.882H3030.93C3030.93 159.441 3027.36 141.402 3019.94 127.008L3011.94 131.133ZM3021.93 180.882V336H3030.93V180.882H3021.93ZM3026.43 331.5H2988.92V340.5H3026.43V331.5ZM2993.42 336V183.425H2984.42V336H2993.42ZM2993.42 183.425C2993.42 163.269 2988.18 147.024 2977.09 135.348L2970.56 141.547C2979.6 151.062 2984.42 164.802 2984.42 183.425H2993.42ZM2977.12 135.382C2966.13 123.577 2951 117.895 2932.34 117.895V126.895C2949.07 126.895 2961.6 131.915 2970.53 141.513L2977.12 135.382ZM2932.34 117.895C2919.4 117.895 2907.64 120.635 2897.17 126.211L2901.4 134.155C2910.43 129.348 2920.71 126.895 2932.34 126.895V117.895ZM2897.15 126.221C2886.73 131.834 2878.49 140.034 2872.48 150.7L2880.32 155.12C2885.54 145.868 2892.56 138.915 2901.42 134.145L2897.15 126.221ZM2872.46 150.732C2866.5 161.504 2863.63 174.373 2863.63 189.147H2872.63C2872.63 175.525 2875.28 164.236 2880.34 155.089L2872.46 150.732ZM3403.81 10.5073V6.00732H3399.31V10.5073H3403.81ZM3443.22 10.5073H3447.72V6.00732H3443.22V10.5073ZM3427.49 285.619L3423.63 283.303L3423.63 283.31L3427.49 285.619ZM3383.47 326.782L3385.56 330.766L3385.57 330.761L3385.58 330.757L3383.47 326.782ZM3249.96 326.782L3247.85 330.757L3247.86 330.761L3247.87 330.766L3249.96 326.782ZM3205.78 285.619L3201.91 287.917L3201.92 287.93L3201.93 287.944L3205.78 285.619ZM3190.21 10.5073V6.00732H3185.71V10.5073H3190.21ZM3229.62 10.5073H3234.12V6.00732H3229.62V10.5073ZM3240.11 265.275L3236.19 267.486L3236.19 267.493L3236.2 267.501L3240.11 265.275ZM3269.99 294.36L3267.82 298.304L3267.84 298.315L3267.86 298.325L3269.99 294.36ZM3363.44 294.36L3365.57 298.325L3365.58 298.318L3365.59 298.312L3363.44 294.36ZM3393.32 265.275L3389.4 263.064L3389.39 263.076L3393.32 265.275ZM3403.81 15.0073H3443.22V6.00732H3403.81V15.0073ZM3438.72 10.5073V226.019H3447.72V10.5073H3438.72ZM3438.72 226.019C3438.72 247.531 3433.66 266.583 3423.63 283.303L3431.35 287.934C3442.3 269.689 3447.72 249.008 3447.72 226.019H3438.72ZM3423.63 283.31C3413.69 299.938 3399.64 313.102 3381.36 322.807L3385.58 330.757C3405.22 320.33 3420.52 306.052 3431.35 287.927L3423.63 283.31ZM3381.37 322.798C3363.17 332.359 3341.66 337.222 3316.72 337.222V346.222C3342.84 346.222 3365.83 341.124 3385.56 330.766L3381.37 322.798ZM3316.72 337.222C3291.77 337.222 3270.26 332.359 3252.06 322.798L3247.87 330.766C3267.6 341.124 3290.59 346.222 3316.72 346.222V337.222ZM3252.07 322.807C3233.78 313.1 3219.68 299.931 3209.63 283.293L3201.93 287.944C3212.86 306.059 3228.21 320.332 3247.85 330.757L3252.07 322.807ZM3209.65 283.321C3199.72 266.598 3194.71 247.539 3194.71 226.019H3185.71C3185.71 249 3191.08 269.674 3201.91 287.917L3209.65 283.321ZM3194.71 226.019V10.5073H3185.71V226.019H3194.71ZM3190.21 15.0073H3229.62V6.00732H3190.21V15.0073ZM3225.12 10.5073V222.84H3234.12V10.5073H3225.12ZM3225.12 222.84C3225.12 239.416 3228.77 254.339 3236.19 267.486L3244.03 263.064C3237.46 251.418 3234.12 238.051 3234.12 222.84H3225.12ZM3236.2 267.501C3243.62 280.547 3254.2 290.823 3267.82 298.304L3272.16 290.415C3259.93 283.699 3250.58 274.585 3244.02 263.05L3236.2 267.501ZM3267.86 298.325C3281.68 305.74 3298.02 309.349 3316.72 309.349V300.349C3299.17 300.349 3284.36 296.966 3272.12 290.395L3267.86 298.325ZM3316.72 309.349C3335.41 309.349 3351.75 305.74 3365.57 298.325L3361.31 290.395C3349.07 296.966 3334.26 300.349 3316.72 300.349V309.349ZM3365.59 298.312C3379.33 290.83 3389.92 280.545 3397.25 267.475L3389.39 263.076C3382.94 274.587 3373.62 283.692 3361.29 290.408L3365.59 298.312ZM3397.24 267.486C3404.66 254.339 3408.31 239.416 3408.31 222.84H3399.31C3399.31 238.051 3395.97 251.418 3389.4 263.064L3397.24 267.486ZM3408.31 222.84V10.5073H3399.31V222.84H3408.31ZM3671.87 146.553L3673.09 150.883L3677.63 149.598L3676.13 145.122L3671.87 146.553ZM3638.17 156.089L3633.96 157.678L3635.42 161.544L3639.4 160.419L3638.17 156.089ZM3628.8 139.719L3625.19 142.408L3625.22 142.448L3625.25 142.487L3628.8 139.719ZM3612.27 126.369L3614.28 122.344L3612.27 126.369ZM3548.06 131.455L3550.61 135.162L3550.62 135.156L3548.06 131.455ZM3543.45 179.452L3540.64 182.971L3543.45 179.452ZM3575.24 192.961L3574.14 197.327L3574.15 197.329L3574.16 197.331L3575.24 192.961ZM3611.47 201.861L3610.4 206.232L3610.41 206.234L3611.47 201.861ZM3660.26 226.178L3657.05 229.329L3657.06 229.336L3657.07 229.344L3660.26 226.178ZM3664.24 305.485L3660.6 302.83L3660.6 302.841L3660.59 302.853L3664.24 305.485ZM3519.13 324.875L3521.62 321.123L3519.13 324.875ZM3488.14 277.513L3487.05 273.147L3482.85 274.197L3483.74 278.434L3488.14 277.513ZM3523.74 268.613L3528.1 267.488L3526.98 263.164L3522.65 264.247L3523.74 268.613ZM3542.97 298.174L3540.4 301.867L3540.41 301.873L3540.42 301.88L3542.97 298.174ZM3621.96 296.903L3624.59 300.552L3624.6 300.547L3621.96 296.903ZM3628.64 248.587L3625.48 251.798L3625.5 251.812L3625.51 251.827L3628.64 248.587ZM3601.3 235.555L3600.27 239.936L3600.28 239.938L3601.3 235.555ZM3560.61 226.019L3559.58 230.398L3559.59 230.4L3560.61 226.019ZM3511.34 201.385L3508.04 204.439L3508.06 204.456L3508.07 204.472L3511.34 201.385ZM3507.37 122.713L3503.75 120.036L3503.75 120.048L3503.74 120.06L3507.37 122.713ZM3539.32 97.761L3537.49 93.6501L3537.47 93.6555L3539.32 97.761ZM3642.3 104.595L3639.56 108.162L3639.57 108.167L3639.57 108.172L3642.3 104.595ZM3670.64 142.223L3636.95 151.759L3639.4 160.419L3673.09 150.883L3670.64 142.223ZM3642.38 154.5C3640.09 148.413 3636.72 142.564 3632.34 136.951L3625.25 142.487C3629.13 147.469 3632.02 152.533 3633.96 157.678L3642.38 154.5ZM3632.4 137.03C3627.89 130.979 3621.8 126.104 3614.28 122.344L3610.25 130.394C3616.72 133.626 3621.64 137.652 3625.19 142.408L3632.4 137.03ZM3614.28 122.344C3606.46 118.436 3596.76 116.624 3585.41 116.624V125.624C3595.88 125.624 3604.08 127.308 3610.25 130.394L3614.28 122.344ZM3585.41 116.624C3569.77 116.624 3556.37 120.236 3545.5 127.753L3550.62 135.156C3559.67 128.899 3571.17 125.624 3585.41 125.624V116.624ZM3545.51 127.748C3534.63 135.232 3528.78 145.164 3528.78 157.36H3537.78C3537.78 148.578 3541.78 141.24 3550.61 135.162L3545.51 127.748ZM3528.78 157.36C3528.78 167.936 3532.7 176.643 3540.64 182.971L3546.25 175.933C3540.63 171.454 3537.78 165.433 3537.78 157.36H3528.78ZM3540.64 182.971C3548.17 188.966 3559.49 193.664 3574.14 197.327L3576.33 188.596C3562.16 185.053 3552.29 180.745 3546.25 175.933L3540.64 182.971ZM3574.16 197.331L3610.4 206.232L3612.55 197.491L3576.31 188.591L3574.16 197.331ZM3610.41 206.234C3631.78 211.421 3647.15 219.235 3657.05 229.329L3663.48 223.027C3651.97 211.295 3634.82 202.897 3612.53 197.488L3610.41 206.234ZM3657.07 229.344C3666.83 239.203 3671.82 251.947 3671.82 267.977H3680.82C3680.82 249.89 3675.1 234.767 3663.46 223.012L3657.07 229.344ZM3671.82 267.977C3671.82 281.034 3668.08 292.602 3660.6 302.83L3667.87 308.14C3676.5 296.33 3680.82 282.892 3680.82 267.977H3671.82ZM3660.59 302.853C3653.17 313.133 3642.72 321.354 3629.03 327.438L3632.69 335.662C3647.61 329.031 3659.41 319.875 3667.89 308.117L3660.59 302.853ZM3629.03 327.438C3615.41 333.491 3599.42 336.586 3580.96 336.586V345.586C3600.42 345.586 3617.7 342.323 3632.69 335.662L3629.03 327.438ZM3580.96 336.586C3556.7 336.586 3537.02 331.325 3521.62 321.123L3516.65 328.626C3533.88 340.039 3555.41 345.586 3580.96 345.586V336.586ZM3521.62 321.123C3506.38 311.028 3496.67 296.307 3492.55 276.592L3483.74 278.434C3488.3 300.254 3499.26 317.107 3516.65 328.626L3521.62 321.123ZM3489.23 281.879L3524.83 272.978L3522.65 264.247L3487.05 273.147L3489.23 281.879ZM3519.38 269.737C3522.99 283.72 3529.93 294.575 3540.4 301.867L3545.54 294.482C3537.15 288.635 3531.27 279.783 3528.1 267.488L3519.38 269.737ZM3540.42 301.88C3550.92 309.111 3564.34 312.528 3580.32 312.528V303.528C3565.58 303.528 3554.1 300.376 3545.52 294.468L3540.42 301.88ZM3580.32 312.528C3598.4 312.528 3613.31 308.697 3624.59 300.552L3619.33 293.254C3610.06 299.943 3597.21 303.528 3580.32 303.528V312.528ZM3624.6 300.547C3635.86 292.389 3642.04 282.143 3642.04 269.884H3633.04C3633.04 278.605 3628.83 286.371 3619.32 293.259L3624.6 300.547ZM3642.04 269.884C3642.04 260.225 3638.6 251.944 3631.76 245.348L3625.51 251.827C3630.54 256.673 3633.04 262.591 3633.04 269.884H3642.04ZM3631.79 245.377C3625.04 238.744 3615.03 234.131 3602.32 231.172L3600.28 239.938C3612.15 242.701 3620.37 246.776 3625.48 251.798L3631.79 245.377ZM3602.33 231.174L3561.64 221.638L3559.59 230.4L3600.27 239.936L3602.33 231.174ZM3561.65 221.64C3539.75 216.45 3524.27 208.537 3514.62 198.298L3508.07 204.472C3519.4 216.483 3536.77 224.993 3559.58 230.398L3561.65 221.64ZM3514.65 198.33C3505.11 188.017 3500.27 175.107 3500.27 159.268H3491.27C3491.27 177.122 3496.81 192.29 3508.04 204.439L3514.65 198.33ZM3500.27 159.268C3500.27 146.397 3503.86 135.152 3511.01 125.367L3503.74 120.06C3495.41 131.466 3491.27 144.591 3491.27 159.268H3500.27ZM3510.99 125.39C3518.32 115.486 3528.32 107.628 3541.16 101.866L3537.47 93.6555C3523.4 99.9727 3512.11 108.749 3503.75 120.036L3510.99 125.39ZM3541.15 101.872C3554.05 96.126 3568.78 93.2019 3585.41 93.2019V84.2019C3567.71 84.2019 3551.71 87.3171 3537.49 93.6501L3541.15 101.872ZM3585.41 93.2019C3608.95 93.2019 3626.83 98.3682 3639.56 108.162L3645.05 101.028C3630.23 89.6309 3610.18 84.2019 3585.41 84.2019V93.2019ZM3639.57 108.172C3652.7 118.194 3662.04 131.415 3667.6 147.984L3676.13 145.122C3670.03 126.938 3659.67 112.187 3645.04 101.018L3639.57 108.172ZM3763.83 244.455H3759.33V248.955H3763.83V244.455ZM3763.83 242.548L3759.33 242.501L3759.33 242.524V242.548H3763.83ZM3770.18 194.233L3765.92 192.798L3770.18 194.233ZM3787.35 165.148L3790.53 168.33L3787.35 165.148ZM3814.05 144.646L3816.37 148.501L3816.38 148.494L3816.39 148.487L3814.05 144.646ZM3830.9 131.137L3834.14 134.252L3834.16 134.235L3834.17 134.219L3830.9 131.137ZM3842.66 112.86L3838.52 111.079L3838.51 111.106L3838.5 111.133L3842.66 112.86ZM3767.96 44.5188L3766.12 40.4111L3767.96 44.5188ZM3747.77 61.5245L3751.46 64.1017V64.1017L3747.77 61.5245ZM3738.4 91.8805V96.3805H3742.6L3742.89 92.1849L3738.4 91.8805ZM3698.35 91.8805L3693.85 91.669L3693.63 96.3805H3698.35V91.8805ZM3712.33 45.6313L3708.59 43.128L3708.59 43.1387L3708.58 43.1495L3712.33 45.6313ZM3746.18 16.2289L3744.23 12.1739L3744.22 12.1797L3746.18 16.2289ZM3841.7 17.1824L3839.57 21.1446L3839.58 21.148L3839.58 21.1514L3841.7 17.1824ZM3873.81 47.6974L3869.92 49.9608L3869.92 49.9727L3869.93 49.9845L3873.81 47.6974ZM3879.85 123.508L3875.64 121.902L3875.63 121.923L3875.63 121.943L3879.85 123.508ZM3864.59 148.778L3861.24 145.768L3861.23 145.781L3861.22 145.794L3864.59 148.778ZM3840.75 168.486L3838.4 164.65L3838.38 164.66L3838.36 164.67L3840.75 168.486ZM3818.34 186.922L3821.71 189.901L3821.72 189.887L3821.74 189.873L3818.34 186.922ZM3801.97 242.548L3797.47 242.475L3797.47 242.512V242.548H3801.97ZM3801.97 244.455V248.955H3806.47V244.455H3801.97ZM3763.98 330.12L3767.17 326.938L3763.98 330.12ZM3763.98 289.751L3767.17 292.933L3763.98 289.751ZM3804.35 289.751L3807.54 286.569L3804.35 289.751ZM3808.8 324.239L3804.96 321.896L3804.94 321.931L3804.92 321.966L3808.8 324.239ZM3798.47 334.729L3800.79 338.587L3800.8 338.579L3800.82 338.571L3798.47 334.729ZM3768.33 244.455V242.548H3759.33V244.455H3768.33ZM3768.33 242.595C3768.54 222.582 3770.64 207.006 3774.45 195.667L3765.92 192.798C3761.68 205.405 3759.54 222.04 3759.33 242.501L3768.33 242.595ZM3774.45 195.667C3778.3 184.22 3783.69 175.165 3790.53 168.33L3784.17 161.966C3776.17 169.964 3770.12 180.3 3765.92 192.798L3774.45 195.667ZM3790.53 168.33C3797.65 161.208 3806.25 154.592 3816.37 148.501L3811.73 140.791C3801.08 147.202 3791.88 154.254 3784.17 161.966L3790.53 168.33ZM3816.39 148.487C3822.97 144.474 3828.89 139.729 3834.14 134.252L3827.65 128.022C3822.94 132.928 3817.63 137.189 3811.7 140.805L3816.39 148.487ZM3834.17 134.219C3839.53 128.515 3843.75 121.961 3846.81 114.586L3838.5 111.133C3835.84 117.532 3832.21 123.162 3827.62 128.055L3834.17 134.219ZM3846.79 114.64C3850.02 107.129 3851.61 98.8847 3851.61 89.9733H3842.61C3842.61 97.8028 3841.22 104.816 3838.52 111.079L3846.79 114.64ZM3851.61 89.9733C3851.61 78.8605 3848.99 68.9861 3843.59 60.5321L3836 65.3776C3840.35 72.1811 3842.61 80.319 3842.61 89.9733H3851.61ZM3843.59 60.5321C3838.28 52.2178 3831.15 45.791 3822.28 41.299L3818.21 49.3279C3825.66 53.1003 3831.57 58.4345 3836 65.3776L3843.59 60.5321ZM3822.28 41.299C3813.44 36.8197 3803.67 34.6151 3793.07 34.6151V43.6151C3802.39 43.6151 3810.74 45.5426 3818.21 49.3279L3822.28 41.299ZM3793.07 34.6151C3783.74 34.6151 3774.74 36.5541 3766.12 40.4111L3769.8 48.6264C3777.28 45.2785 3785.02 43.6151 3793.07 43.6151V34.6151ZM3766.12 40.4111C3757.27 44.3698 3749.92 50.5924 3744.08 58.9473L3751.46 64.1017C3756.43 56.9872 3762.54 51.8726 3769.8 48.6264L3766.12 40.4111ZM3744.08 58.9473C3738.08 67.5384 3734.79 78.5174 3733.91 91.5761L3742.89 92.1849C3743.7 80.2382 3746.66 70.9799 3751.46 64.1017L3744.08 58.9473ZM3738.4 87.3805H3698.35V96.3805H3738.4V87.3805ZM3702.84 92.092C3703.66 74.7476 3708.13 60.1481 3716.09 48.1131L3708.58 43.1495C3699.58 56.7555 3694.73 72.9888 3693.85 91.669L3702.84 92.092ZM3716.07 48.1346C3724.21 35.9831 3734.87 26.7134 3748.15 20.278L3744.22 12.1797C3729.52 19.3066 3717.62 29.6385 3708.59 43.128L3716.07 48.1346ZM3748.14 20.2838C3761.56 13.8233 3776.51 10.5572 3793.07 10.5572V1.55722C3775.3 1.55722 3758.99 5.07222 3744.23 12.1739L3748.14 20.2838ZM3793.07 10.5572C3811.12 10.5572 3826.57 14.1427 3839.57 21.1446L3843.84 13.2203C3829.29 5.3885 3812.32 1.55722 3793.07 1.55722V10.5572ZM3839.58 21.1514C3852.77 28.1963 3862.84 37.7943 3869.92 49.9608L3877.7 45.4339C3869.73 31.7475 3858.4 21.0023 3843.82 13.2135L3839.58 21.1514ZM3869.93 49.9845C3877.11 62.1494 3880.75 76.0723 3880.75 91.8805H3889.75C3889.75 74.6308 3885.76 59.0983 3877.68 45.4102L3869.93 49.9845ZM3880.75 91.8805C3880.75 103.07 3879.02 113.058 3875.64 121.902L3884.05 125.114C3887.88 115.098 3889.75 104.001 3889.75 91.8805H3880.75ZM3875.63 121.943C3872.33 130.845 3867.54 138.777 3861.24 145.768L3867.93 151.788C3874.99 143.946 3880.37 135.031 3884.07 125.072L3875.63 121.943ZM3861.22 145.794C3854.97 152.846 3847.38 159.137 3838.4 164.65L3843.1 172.321C3852.77 166.391 3861.06 159.544 3867.96 151.762L3861.22 145.794ZM3838.36 164.67C3828.76 170.67 3820.92 177.091 3814.94 183.97L3821.74 189.873C3826.99 183.827 3834.09 177.956 3843.13 172.302L3838.36 164.67ZM3814.97 183.943C3808.88 190.838 3804.49 199.017 3801.78 208.399L3810.42 210.899C3812.8 202.693 3816.57 195.721 3821.71 189.901L3814.97 183.943ZM3801.78 208.399C3799.09 217.703 3797.69 229.096 3797.47 242.475L3806.47 242.621C3806.68 229.724 3808.03 219.184 3810.42 210.899L3801.78 208.399ZM3797.47 242.548V244.455H3806.47V242.548H3797.47ZM3801.97 239.955H3763.83V248.955H3801.97V239.955ZM3784.17 334.043C3777.54 334.043 3771.95 331.721 3767.17 326.938L3760.8 333.301C3767.25 339.749 3775.12 343.043 3784.17 343.043V334.043ZM3767.17 326.938C3762.38 322.154 3760.06 316.565 3760.06 309.935H3751.06C3751.06 318.986 3754.36 326.854 3760.8 333.301L3767.17 326.938ZM3760.06 309.935C3760.06 303.305 3762.38 297.717 3767.17 292.933L3760.8 286.569C3754.36 293.016 3751.06 300.884 3751.06 309.935H3760.06ZM3767.17 292.933C3771.95 288.149 3777.54 285.827 3784.17 285.827V276.827C3775.12 276.827 3767.25 280.122 3760.8 286.569L3767.17 292.933ZM3784.17 285.827C3790.8 285.827 3796.39 288.149 3801.17 292.933L3807.54 286.569C3801.09 280.122 3793.22 276.827 3784.17 276.827V285.827ZM3801.17 292.933C3805.96 297.717 3808.28 303.305 3808.28 309.935H3817.28C3817.28 300.884 3813.98 293.016 3807.54 286.569L3801.17 292.933ZM3808.28 309.935C3808.28 314.318 3807.17 318.273 3804.96 321.896L3812.65 326.582C3815.73 321.517 3817.28 315.936 3817.28 309.935H3808.28ZM3804.92 321.966C3802.76 325.66 3799.85 328.621 3796.13 330.886L3800.82 338.571C3805.79 335.539 3809.76 331.506 3812.69 326.512L3804.92 321.966ZM3796.16 330.87C3792.67 332.963 3788.71 334.043 3784.17 334.043V343.043C3790.22 343.043 3795.8 341.58 3800.79 338.587L3796.16 330.87Z" fill="url(#paint0_linear_2480_1237)" mask="url(#path-1-outside-1_2480_1237)"/>
<defs>
<linearGradient id="paint0_linear_2480_1237" x1="-69.1429" y1="-98" x2="3660.19" y2="884.584" gradientUnits="userSpaceOnUse">
<stop stop-color="#0052B4"/>
<stop offset="1" stop-color="#45D1FF"/>
</linearGradient>
</defs>
</svg>
