<svg width="165" height="30" viewBox="0 0 165 30" fill="none" xmlns="http://www.w3.org/2000/svg">
<path d="M23.1797 0.00176526L22.1576 1.02738L21.132 2.04947L19.0825 4.1007L18.6112 4.57026L16.5123 6.66916H16.5193C17.6491 6.66916 18.5653 7.58357 18.5688 8.71333L18.6129 29.0492H27.7835L27.7993 8.71686C27.7993 7.58533 28.7173 6.66916 29.8488 6.66916L25.2327 2.053L24.207 1.02738L23.1797 0V0.00176526ZM15.7126 9.52006L15.266 9.96667L12.8123 12.4204L2.10949 23.1232L0 25.2327H4.2684C5.39994 25.2327 6.31787 26.1506 6.31787 27.2821V29.0474H15.7144V9.51829L15.7126 9.52006ZM30.6644 9.53418V29.0633H40.0609V27.298C40.0609 26.1665 40.9788 25.2485 42.1103 25.2485H46.3787L44.2692 23.1391L33.5665 12.4363L31.1127 9.98256L30.6661 9.53594L30.6644 9.53418Z" fill="white"/>
<path d="M59.1079 8.67114H56.52V29.2047H70.4956V26.7916H59.1079V8.67114Z" fill="white"/>
<path d="M76.5347 20.0447H87.5746V17.6881H76.5347V11.0278H88.8756V8.67114H73.9468V29.2047H89.0186V26.848H76.5347V20.0447Z" fill="white"/>
<path d="M101.005 25.8507L93.9103 8.67114H91.0347L99.8645 29.3494H102.089L110.917 8.67114H108.128L101.005 25.8507Z" fill="white"/>
<path d="M116.647 20.0447H127.687V17.6881H116.647V11.0278H128.988V8.67114H114.059V29.2047H129.132V26.848H116.647V20.0447Z" fill="white"/>
<path d="M135.547 8.67114H132.959V29.2047H146.935V26.7916H135.547V8.67114Z" fill="white"/>
<path d="M162.875 19.8028C161.791 18.9061 160.093 18.1947 157.823 17.6898C156.718 17.4603 155.802 17.215 155.099 16.959C154.406 16.7066 153.855 16.4224 153.465 16.1152C153.083 15.8151 152.817 15.4868 152.674 15.1372C152.527 14.7824 152.453 14.3694 152.453 13.9086V13.8504C152.453 12.966 152.813 12.244 153.553 11.642C154.293 11.0418 155.32 10.7365 156.607 10.7365C157.624 10.7365 158.614 10.9077 159.546 11.2466C160.478 11.5855 161.421 12.1416 162.349 12.8971L162.471 12.9978L163.986 10.9906L163.869 10.8989C162.821 10.0639 161.723 9.43016 160.605 9.01179C159.484 8.59342 158.159 8.38159 156.665 8.38159C155.691 8.38159 154.78 8.52458 153.957 8.80878C153.133 9.09299 152.407 9.49194 151.8 9.99151C151.189 10.4946 150.707 11.1001 150.372 11.7903C150.037 12.4823 149.865 13.2431 149.865 14.0534V14.1116C149.865 14.9572 150.007 15.7074 150.284 16.3394C150.563 16.9749 150.995 17.538 151.572 18.0146C152.143 18.486 152.873 18.892 153.745 19.2238C154.607 19.5522 155.634 19.847 156.794 20.0976C157.844 20.3254 158.718 20.5672 159.396 20.8143C160.062 21.0579 160.589 21.3316 160.96 21.6281C161.324 21.9194 161.581 22.2442 161.726 22.5937C161.873 22.9485 161.947 23.3528 161.947 23.7923V23.8506C161.947 24.8127 161.564 25.5805 160.776 26.2019C159.989 26.8233 158.918 27.1375 157.59 27.1375C156.263 27.1375 154.978 26.9045 153.924 26.442C152.865 25.9795 151.798 25.2628 150.757 24.3166L150.64 24.2107L149.027 26.1207L149.136 26.2196C150.358 27.3246 151.662 28.1561 153.011 28.6909C154.361 29.2258 155.873 29.4959 157.504 29.4959C158.515 29.4959 159.465 29.3582 160.325 29.0846C161.188 28.811 161.936 28.412 162.551 27.9001C163.167 27.3864 163.656 26.7633 164.007 26.043C164.358 25.321 164.536 24.5073 164.536 23.6211V23.5628C164.536 21.9812 163.979 20.7172 162.877 19.8046L162.875 19.8028Z" fill="white"/>
</svg>
