<svg width="72" height="72" viewBox="0 0 72 72" fill="none" xmlns="http://www.w3.org/2000/svg">
<path d="M11.9998 51.0003C13.6566 51.0003 14.9998 52.3434 14.9998 54.0003V63.0003C14.9996 64.657 13.6565 66.0003 11.9998 66.0003C10.3431 66.0002 8.99994 64.657 8.99979 63.0003V54.0003C8.99979 52.3435 10.343 51.0004 11.9998 51.0003ZM23.9998 39.0003C25.6566 39.0003 26.9998 40.3434 26.9998 42.0003V63.0003C26.9996 64.657 25.6565 66.0003 23.9998 66.0003C22.3431 66.0002 20.9999 64.657 20.9998 63.0003V42.0003C20.9998 40.3435 22.343 39.0004 23.9998 39.0003ZM35.9998 45.0003C37.6566 45.0003 38.9998 46.3434 38.9998 48.0003V63.0003C38.9996 64.657 37.6566 66.0003 35.9998 66.0003C34.3431 66.0002 32.9999 64.657 32.9998 63.0003V48.0003C32.9998 46.3435 34.343 45.0004 35.9998 45.0003ZM47.9998 39.0003C49.6566 39.0003 50.9998 40.3434 50.9998 42.0003V63.0003C50.9996 64.657 49.6566 66.0003 47.9998 66.0003C46.3431 66.0002 44.9999 64.657 44.9998 63.0003V42.0003C44.9998 40.3435 46.343 39.0004 47.9998 39.0003ZM59.9998 27.0003C61.6566 27.0003 62.9998 28.3434 62.9998 30.0003V63.0003C62.9996 64.657 61.6565 66.0003 59.9998 66.0003C58.3431 66.0002 56.9999 64.657 56.9998 63.0003V30.0003C56.9998 28.3435 58.343 27.0004 59.9998 27.0003ZM63.99 6.77276C65.1677 5.70846 66.9858 5.74415 68.1209 6.87921C69.2558 8.01428 69.2916 9.83248 68.2273 11.0101L68.1209 11.1214L42.1834 37.0599L42.1824 37.0589C41.765 37.4767 41.2699 37.8091 40.7244 38.0355C40.1778 38.2623 39.5916 38.3792 38.9998 38.3792C38.408 38.3792 37.8218 38.2622 37.2752 38.0355C36.7295 37.809 36.2337 37.4769 35.8162 37.0589V37.0599L27.0008 28.2444L8.12088 47.1214C6.94933 48.2927 5.05019 48.2927 3.8787 47.1214C2.70728 45.9498 2.70725 44.0507 3.8787 42.8792L23.8201 22.9407L23.9812 22.7864C24.8066 22.0393 25.8831 21.6233 27.0017 21.6233L27.2244 21.6282C28.3363 21.6834 29.3913 22.15 30.1824 22.9407H30.1834L38.9998 31.7571L63.8787 6.87921L63.99 6.77276Z" fill="url(#paint0_linear_4346_988)"/>
<defs>
<linearGradient id="paint0_linear_4346_988" x1="3.27061" y1="13.3337" x2="62.2408" y2="53.7653" gradientUnits="userSpaceOnUse">
<stop stop-color="#0052B4"/>
<stop offset="1" stop-color="#45D1FF"/>
</linearGradient>
</defs>
</svg>
