<svg width="72" height="72" viewBox="0 0 72 72" fill="none" xmlns="http://www.w3.org/2000/svg">
<path d="M8.26758 54.0049C23.9629 54.1228 39.5796 56.2659 54.7305 60.3818H54.7324L54.8799 60.4131C55.6108 60.5221 56.25 59.9557 56.25 59.2646V56.25C56.25 55.0074 57.2574 54 58.5 54C59.7426 54 60.75 55.0074 60.75 56.25V59.2646C60.75 63.0511 57.1223 65.6957 53.5508 64.7236V64.7246C38.7734 60.7102 23.5418 58.6199 8.2334 58.5049L6.75195 58.5L6.52149 58.4883C5.38701 58.3738 4.50101 57.4168 4.5 56.252C4.49899 55.0094 5.50546 54.0011 6.74805 54L8.26758 54.0049ZM61.875 11.25C64.9806 11.25 67.5 13.7694 67.5 16.875V46.125C67.5 49.2306 64.9806 51.75 61.875 51.75H10.125C8.63317 51.75 7.20236 51.1574 6.14746 50.1025C5.09257 49.0476 4.5 47.6168 4.5 46.125V16.875C4.5 13.7694 7.01936 11.25 10.125 11.25H61.875ZM13.5 15.75C13.5 16.9435 13.0256 18.0877 12.1816 18.9316C11.3377 19.7756 10.1935 20.25 9 20.25V42.75C10.1935 42.75 11.3377 43.2244 12.1816 44.0684C13.0256 44.9123 13.5 46.0565 13.5 47.25H58.5C58.5 46.0565 58.9744 44.9123 59.8184 44.0684C60.6623 43.2244 61.8065 42.75 63 42.75V20.25C60.5154 20.25 58.5 18.2346 58.5 15.75H13.5ZM42.7422 31.165C42.6594 29.4968 41.9601 27.9133 40.7734 26.7266C39.5076 25.4607 37.7902 24.75 36 24.75C34.2098 24.75 32.4924 25.4607 31.2266 26.7266C29.9607 27.9924 29.25 29.7098 29.25 31.5C29.25 33.2902 29.9607 35.0076 31.2266 36.2734C32.4924 37.5393 34.2098 38.25 36 38.25C37.7902 38.25 39.5076 37.5393 40.7734 36.2734C42.0393 35.0076 42.75 33.2902 42.75 31.5L42.7422 31.165ZM18.0244 29.25C19.2669 29.2502 20.2744 30.2575 20.2744 31.5V31.5244C20.2742 32.7667 19.2667 33.7742 18.0244 33.7744H18C16.7575 33.7744 15.7502 32.7669 15.75 31.5244V31.5C15.75 30.2574 16.7574 29.25 18 29.25H18.0244ZM54.0244 29.25C55.2669 29.2502 56.2744 30.2575 56.2744 31.5V31.5244C56.2742 32.7667 55.2667 33.7742 54.0244 33.7744H54C52.7575 33.7744 51.7502 32.7669 51.75 31.5244V31.5C51.75 30.2574 52.7574 29.25 54 29.25H54.0244ZM47.25 31.5C47.25 34.4837 46.0649 37.3453 43.9551 39.4551C41.8453 41.5649 38.9837 42.75 36 42.75C33.0163 42.75 30.1547 41.5649 28.0449 39.4551C25.9351 37.3453 24.75 34.4837 24.75 31.5C24.75 28.5163 25.9351 25.6547 28.0449 23.5449C30.1547 21.4351 33.0163 20.25 36 20.25C38.9837 20.25 41.8453 21.4351 43.9551 23.5449C46.0649 25.6547 47.25 28.5163 47.25 31.5Z" fill="url(#paint0_linear_4346_975)"/>
<defs>
<linearGradient id="paint0_linear_4346_975" x1="4.7582" y1="17.8104" x2="58.6609" y2="57.2442" gradientUnits="userSpaceOnUse">
<stop stop-color="#0052B4"/>
<stop offset="1" stop-color="#45D1FF"/>
</linearGradient>
</defs>
</svg>
