<svg width="73" height="72" viewBox="0 0 73 72" fill="none" xmlns="http://www.w3.org/2000/svg">
<path d="M54.6543 6.00391C56.2394 6.08421 57.5 7.39489 57.5 9V16.584C59.1893 18.095 60.5818 19.9146 61.5996 21.9502C62.3983 23.5476 62.9512 25.2499 63.2471 27H63.5C65.0913 27 66.617 27.6326 67.7422 28.7578C68.8674 29.883 69.5 31.4087 69.5 33V39C69.5 40.5913 68.8674 42.117 67.7422 43.2422C66.617 44.3674 65.0913 45 63.5 45H62.4502C61.8829 46.0358 61.1705 46.9897 60.3301 47.8301C59.4897 48.6705 58.5358 49.3829 57.5 49.9502V57C57.5 58.5913 56.8674 60.117 55.7422 61.2422C54.617 62.3674 53.0913 63 51.5 63H45.5C43.9087 63 42.383 62.3674 41.2578 61.2422C40.1326 60.117 39.5 58.5913 39.5 57V54H36.5V57C36.5 58.5913 35.8674 60.117 34.7422 61.2422C33.617 62.3674 32.0913 63 30.5 63H24.5C22.9087 63 21.383 62.3674 20.2578 61.2422C19.1326 60.117 18.5 58.5913 18.5 57V49.415C16.8109 47.9041 15.4181 46.0852 14.4004 44.0498C13.1507 41.5504 12.5 38.7944 12.5 36C10.1131 36 7.82357 35.0521 6.13574 33.3643C4.5534 31.7819 3.62109 29.6708 3.51074 27.4463L3.5 27V24C3.5 22.3431 4.84315 21 6.5 21C8.15685 21 9.5 22.3431 9.5 24V27L9.51465 27.2969C9.58291 27.9835 9.88671 28.6289 10.3789 29.1211C10.9415 29.6837 11.7044 30 12.5 30H12.7168C13.3605 25.5396 15.4262 21.3745 18.6504 18.1504C22.5887 14.2121 27.9305 12 33.5 12H42.5C43.8972 10.1371 45.7092 8.6254 47.792 7.58398C49.8748 6.54257 52.1713 6 54.5 6L54.6543 6.00391ZM51.5 12.5146C51.1506 12.6382 50.8078 12.7836 50.4746 12.9502C49.3032 13.536 48.2746 14.3698 47.46 15.3926L47.2998 15.5996L46.4004 16.7998C45.8338 17.5552 44.9443 18 44 18H33.5C29.5218 18 25.7066 19.5805 22.8936 22.3936C20.0805 25.2066 18.5 29.0218 18.5 33V36C18.5 37.8628 18.9336 39.7001 19.7666 41.3662C20.5997 43.0324 21.8096 44.4819 23.2998 45.5996L23.4375 45.71C24.1089 46.2779 24.5 47.1146 24.5 48V57H30.5V51C30.5 49.3431 31.8431 48 33.5 48H42.5C44.1569 48 45.5 49.3431 45.5 51V57H51.5V48C51.5 46.7083 52.3272 45.5613 53.5527 45.1533C54.5078 44.8353 55.3761 44.2997 56.0879 43.5879C56.7997 42.8761 57.3353 42.0078 57.6533 41.0527L57.7383 40.8271C58.2052 39.7265 59.2891 39 60.5 39H63.5V33H60.5C58.8431 33 57.5 31.6569 57.5 30C57.5 28.1372 57.0664 26.3 56.2334 24.6338C55.4003 22.9676 54.1904 21.5181 52.7002 20.4004C51.9448 19.8338 51.5 18.9443 51.5 18V12.5146ZM48.6846 27.0039C50.2696 27.0844 51.5303 28.395 51.5303 30C51.5303 31.605 50.2696 32.9156 48.6846 32.9961L48.5303 33H48.5C46.8431 33 45.5 31.6569 45.5 30C45.5 28.3431 46.8431 27 48.5 27H48.5303L48.6846 27.0039Z" fill="url(#paint0_linear_4346_980)"/>
<defs>
<linearGradient id="paint0_linear_4346_980" x1="3.77049" y1="12.9667" x2="60.7718" y2="54.1055" gradientUnits="userSpaceOnUse">
<stop stop-color="#0052B4"/>
<stop offset="1" stop-color="#45D1FF"/>
</linearGradient>
</defs>
</svg>
