<svg width="100" height="100" viewBox="0 0 100 100" fill="none" xmlns="http://www.w3.org/2000/svg">
<g clip-path="url(#clip0_22483_2)">
<mask id="mask0_22483_2" style="mask-type:luminance" maskUnits="userSpaceOnUse" x="0" y="0" width="100" height="100">
<path d="M100 0H0V100H100V0Z" fill="white"/>
</mask>
<g mask="url(#mask0_22483_2)">
<mask id="mask1_22483_2" style="mask-type:luminance" maskUnits="userSpaceOnUse" x="0" y="0" width="100" height="100">
<path d="M99.4832 0H0V100H99.4832V0Z" fill="white"/>
</mask>
<g mask="url(#mask1_22483_2)">
<path d="M49.65 -0.00512695L47.8133 1.79877L45.9691 3.59537L42.2881 7.20316L41.4445 8.02846L37.6738 11.7165H37.6889C39.7197 11.7165 41.3698 13.3233 41.3698 15.3097L41.4445 51.0591H57.9302L57.9601 15.3171C57.9601 13.3305 59.6101 11.7165 61.6411 11.7165L53.3458 3.60267L51.5017 1.79877L49.6575 -0.00512695H49.65Z" fill="#0B111D"/>
<path d="M36.2366 16.725L35.4303 17.5137L31.0176 21.8299L11.7842 40.6431L7.99121 44.3531H15.6667C17.6975 44.3531 19.3476 45.9671 19.3476 47.9536V51.0575H36.2366V16.725Z" fill="#0B111D"/>
<path d="M63.1143 16.7532V51.0857H80.0034V47.9818C80.0034 45.9954 81.6531 44.3813 83.6843 44.3813H91.3594L87.5667 40.6713L68.3332 21.8581L63.9206 17.5419L63.1143 16.7532Z" fill="#0B111D"/>
<path d="M99.3428 56.1592L95.8564 59.5772L87.5835 67.6618L73.7109 81.2309V78.8064C73.7109 75.3521 70.8513 72.5477 67.3122 72.5477H61.7423V100.139L61.6751 100.205L57.9867 96.5971H57.9792L57.9942 96.575L49.6766 88.4395H49.6691L49.6542 88.4467L41.4635 96.4584L41.344 96.575H41.3515L41.344 96.5899L37.6631 100.191L37.6258 100.154V72.5331H32.0558C28.5243 72.5331 25.6571 75.3302 25.6571 78.7923V81.2458L11.7995 67.6911L3.49687 59.5698L-0.00488281 56.1447H99.3355L99.3428 56.1592Z" fill="#0B111D"/>
</g>
</g>
</g>
<defs>
<clipPath id="clip0_22483_2">
<rect width="100" height="100" fill="white"/>
</clipPath>
</defs>
</svg>
