<svg width="669" height="194" viewBox="0 0 669 194" fill="none" xmlns="http://www.w3.org/2000/svg">
<g clip-path="url(#clip0_3451_3435)">
<rect width="669" height="194" rx="10" fill="#0B111D"/>
<g filter="url(#filter0_f_3451_3435)">
<circle cx="334.5" cy="269.5" r="128.5" fill="#45D1FF" fill-opacity="0.59"/>
</g>
<g filter="url(#filter1_f_3451_3435)">
<circle cx="334.5" cy="-137.5" r="128.5" fill="#45D1FF" fill-opacity="0.59"/>
</g>
<path d="M258.94 33.0023L257.632 34.3153L256.319 35.6238L253.695 38.2498L253.092 38.8509L250.405 41.5379H250.414C251.86 41.5379 253.033 42.7086 253.038 44.1549L253.094 70.1891H264.834L264.855 44.1594C264.855 42.7108 266.03 41.5379 267.478 41.5379L261.569 35.6283L260.256 34.3153L258.94 33V33.0023ZM249.381 45.1877L248.809 45.7594L245.668 48.9007L231.966 62.6025L229.266 65.3031H234.73C236.179 65.3031 237.354 66.4783 237.354 67.9269V70.1868H249.383V45.1854L249.381 45.1877ZM268.522 45.2058V70.2071H280.552V67.9472C280.552 66.4986 281.727 65.3235 283.176 65.3235H288.64L285.94 62.6229L272.238 48.9211L269.097 45.7798L268.525 45.208L268.522 45.2058Z" fill="white"/>
<path d="M304.936 44.1008H301.623V70.3881H319.515V67.2988H304.936V44.1008Z" fill="white"/>
<path d="M327.245 58.6614H341.378V55.6444H327.245V47.1178H343.044V44.1008H323.932V70.3881H343.227V67.3711H327.245V58.6614Z" fill="white"/>
<path d="M358.575 66.0943L349.492 44.1008H345.811L357.115 70.5734H359.962L371.264 44.1008H367.693L358.575 66.0943Z" fill="white"/>
<path d="M378.6 58.6614H392.734V55.6444H378.6V47.1178H394.399V44.1008H375.287V70.3881H394.584V67.3711H378.6V58.6614Z" fill="white"/>
<path d="M402.793 44.1008H399.48V70.3881H417.372V67.2988H402.793V44.1008Z" fill="white"/>
<path d="M437.782 58.3518C436.394 57.2038 434.22 56.2931 431.314 55.6467C429.899 55.3529 428.726 55.0388 427.827 54.7111C426.939 54.388 426.234 54.0241 425.734 53.6309C425.246 53.2467 424.905 52.8264 424.722 52.3789C424.534 51.9247 424.439 51.3958 424.439 50.806V50.7314C424.439 49.5992 424.9 48.6749 425.847 47.9043C426.794 47.1359 428.109 46.7449 429.757 46.7449C431.058 46.7449 432.326 46.9642 433.52 47.3981C434.713 47.832 435.92 48.5438 437.108 49.5111L437.264 49.6399L439.203 47.0704L439.054 46.9529C437.712 45.8839 436.306 45.0726 434.875 44.537C433.44 44.0014 431.743 43.7302 429.831 43.7302C428.584 43.7302 427.418 43.9133 426.365 44.2771C425.309 44.641 424.38 45.1517 423.603 45.7913C422.821 46.4353 422.204 47.2105 421.775 48.0941C421.345 48.98 421.126 49.954 421.126 50.9913V51.0659C421.126 52.1484 421.307 53.1088 421.662 53.9179C422.019 54.7315 422.573 55.4524 423.312 56.0625C424.041 56.6659 424.977 57.1857 426.093 57.6106C427.196 58.0309 428.512 58.4083 429.996 58.7292C431.341 59.0208 432.46 59.3304 433.327 59.6468C434.179 59.9586 434.855 60.3089 435.33 60.6886C435.795 61.0615 436.125 61.4773 436.311 61.9248C436.498 62.379 436.593 62.8965 436.593 63.4592V63.5338C436.593 64.7655 436.103 65.7485 435.095 66.544C434.087 67.3395 432.715 67.7418 431.016 67.7418C429.316 67.7418 427.671 67.4434 426.322 66.8514C424.966 66.2593 423.601 65.3417 422.267 64.1304L422.118 63.9948L420.053 66.44L420.193 66.5666C421.757 67.9813 423.427 69.0457 425.153 69.7305C426.882 70.4152 428.817 70.761 430.905 70.761C432.2 70.761 433.416 70.5847 434.516 70.2344C435.621 69.8841 436.579 69.3734 437.366 68.718C438.155 68.0604 438.781 67.2627 439.23 66.3406C439.68 65.4163 439.908 64.3745 439.908 63.24V63.1654C439.908 61.1406 439.194 59.5225 437.784 58.3541L437.782 58.3518Z" fill="white"/>
<path d="M114.139 102.455H115.9V112.085C115.9 113.08 115.666 113.967 115.197 114.749C114.733 115.525 114.077 116.138 113.23 116.588C112.382 117.033 111.388 117.256 110.247 117.256C109.106 117.256 108.111 117.033 107.264 116.588C106.416 116.138 105.758 115.525 105.289 114.749C104.825 113.967 104.593 113.08 104.593 112.085V102.455H106.355V111.943C106.355 112.653 106.511 113.286 106.824 113.839C107.136 114.389 107.581 114.822 108.159 115.139C108.741 115.452 109.437 115.608 110.247 115.608C111.056 115.608 111.752 115.452 112.335 115.139C112.917 114.822 113.362 114.389 113.67 113.839C113.983 113.286 114.139 112.653 114.139 111.943V102.455ZM120.866 110.438V117H119.19V106.091H120.81V107.795H120.952C121.207 107.241 121.596 106.796 122.116 106.46C122.637 106.119 123.31 105.949 124.134 105.949C124.872 105.949 125.518 106.1 126.072 106.403C126.626 106.702 127.057 107.156 127.365 107.767C127.673 108.373 127.827 109.14 127.827 110.068V117H126.151V110.182C126.151 109.325 125.928 108.657 125.483 108.179C125.038 107.696 124.427 107.455 123.651 107.455C123.116 107.455 122.637 107.571 122.216 107.803C121.799 108.035 121.47 108.373 121.229 108.818C120.987 109.263 120.866 109.803 120.866 110.438ZM132.566 102.455V117H130.89V102.455H132.566ZM135.636 117V106.091H137.312V117H135.636ZM136.488 104.273C136.161 104.273 135.879 104.161 135.643 103.939C135.411 103.716 135.295 103.449 135.295 103.136C135.295 102.824 135.411 102.556 135.643 102.334C135.879 102.111 136.161 102 136.488 102C136.815 102 137.094 102.111 137.326 102.334C137.563 102.556 137.681 102.824 137.681 103.136C137.681 103.449 137.563 103.716 137.326 103.939C137.094 104.161 136.815 104.273 136.488 104.273ZM141.944 113.023L141.916 110.949H142.257L147.029 106.091H149.103L144.018 111.233H143.876L141.944 113.023ZM140.382 117V102.455H142.058V117H140.382ZM147.314 117L143.052 111.602L144.245 110.438L149.444 117H147.314ZM155.385 117.227C154.334 117.227 153.427 116.995 152.665 116.531C151.908 116.062 151.323 115.409 150.911 114.571C150.504 113.728 150.3 112.748 150.3 111.631C150.3 110.513 150.504 109.528 150.911 108.676C151.323 107.819 151.896 107.152 152.63 106.673C153.368 106.19 154.23 105.949 155.215 105.949C155.783 105.949 156.344 106.044 156.898 106.233C157.452 106.422 157.956 106.73 158.411 107.156C158.865 107.578 159.228 108.136 159.498 108.832C159.767 109.528 159.902 110.385 159.902 111.403V112.114H151.493V110.665H158.198C158.198 110.049 158.075 109.5 157.828 109.017C157.587 108.534 157.241 108.153 156.792 107.874C156.346 107.594 155.821 107.455 155.215 107.455C154.547 107.455 153.97 107.62 153.482 107.952C152.999 108.278 152.627 108.705 152.367 109.23C152.106 109.756 151.976 110.319 151.976 110.92V111.886C151.976 112.71 152.118 113.409 152.402 113.982C152.691 114.55 153.091 114.983 153.603 115.281C154.114 115.575 154.708 115.722 155.385 115.722C155.826 115.722 156.223 115.66 156.578 115.537C156.938 115.409 157.248 115.22 157.509 114.969C157.769 114.713 157.971 114.396 158.113 114.017L159.732 114.472C159.561 115.021 159.275 115.504 158.873 115.92C158.47 116.332 157.973 116.654 157.381 116.886C156.789 117.114 156.124 117.227 155.385 117.227ZM168.901 117H167.054L172.395 102.455H174.213L179.554 117H177.708L173.361 104.756H173.248L168.901 117ZM169.583 111.318H177.026V112.881H169.583V111.318ZM183.269 110.438V117H181.593V106.091H183.212V107.795H183.354C183.61 107.241 183.998 106.796 184.519 106.46C185.04 106.119 185.712 105.949 186.536 105.949C187.275 105.949 187.921 106.1 188.475 106.403C189.029 106.702 189.46 107.156 189.767 107.767C190.075 108.373 190.229 109.14 190.229 110.068V117H188.553V110.182C188.553 109.325 188.33 108.657 187.885 108.179C187.44 107.696 186.829 107.455 186.053 107.455C185.518 107.455 185.04 107.571 184.618 107.803C184.202 108.035 183.873 108.373 183.631 108.818C183.39 109.263 183.269 109.803 183.269 110.438ZM193.981 121.091C193.697 121.091 193.443 121.067 193.221 121.02C192.998 120.977 192.844 120.935 192.759 120.892L193.185 119.415C193.593 119.519 193.952 119.557 194.265 119.528C194.577 119.5 194.854 119.36 195.096 119.109C195.342 118.863 195.567 118.463 195.771 117.909L196.083 117.057L192.049 106.091H193.867L196.879 114.784H196.992L200.004 106.091H201.822L197.191 118.591C196.983 119.154 196.725 119.621 196.417 119.99C196.109 120.364 195.752 120.641 195.344 120.821C194.942 121.001 194.487 121.091 193.981 121.091ZM208.778 106.091V107.511H203.125V106.091H208.778ZM204.773 103.477H206.449V113.875C206.449 114.348 206.518 114.704 206.655 114.94C206.797 115.172 206.977 115.329 207.195 115.409C207.417 115.485 207.652 115.523 207.898 115.523C208.082 115.523 208.234 115.513 208.352 115.494C208.471 115.471 208.565 115.452 208.636 115.438L208.977 116.943C208.864 116.986 208.705 117.028 208.501 117.071C208.298 117.118 208.04 117.142 207.727 117.142C207.254 117.142 206.79 117.04 206.335 116.837C205.885 116.633 205.511 116.323 205.213 115.906C204.92 115.49 204.773 114.964 204.773 114.33V103.477ZM213.21 110.438V117H211.534V102.455H213.21V107.795H213.352C213.608 107.232 213.991 106.785 214.503 106.453C215.019 106.117 215.705 105.949 216.562 105.949C217.306 105.949 217.957 106.098 218.516 106.396C219.074 106.69 219.508 107.142 219.815 107.753C220.128 108.359 220.284 109.131 220.284 110.068V117H218.608V110.182C218.608 109.315 218.383 108.645 217.933 108.172C217.488 107.694 216.87 107.455 216.08 107.455C215.53 107.455 215.038 107.571 214.602 107.803C214.171 108.035 213.83 108.373 213.58 108.818C213.333 109.263 213.21 109.803 213.21 110.438ZM223.35 117V106.091H225.027V117H223.35ZM224.203 104.273C223.876 104.273 223.594 104.161 223.358 103.939C223.126 103.716 223.01 103.449 223.01 103.136C223.01 102.824 223.126 102.556 223.358 102.334C223.594 102.111 223.876 102 224.203 102C224.529 102 224.809 102.111 225.041 102.334C225.278 102.556 225.396 102.824 225.396 103.136C225.396 103.449 225.278 103.716 225.041 103.939C224.809 104.161 224.529 104.273 224.203 104.273ZM229.773 110.438V117H228.097V106.091H229.716V107.795H229.858C230.114 107.241 230.502 106.796 231.023 106.46C231.544 106.119 232.216 105.949 233.04 105.949C233.778 105.949 234.425 106.1 234.979 106.403C235.533 106.702 235.964 107.156 236.271 107.767C236.579 108.373 236.733 109.14 236.733 110.068V117H235.057V110.182C235.057 109.325 234.834 108.657 234.389 108.179C233.944 107.696 233.333 107.455 232.557 107.455C232.022 107.455 231.544 107.571 231.122 107.803C230.705 108.035 230.376 108.373 230.135 108.818C229.893 109.263 229.773 109.803 229.773 110.438ZM244.199 121.318C243.39 121.318 242.694 121.214 242.111 121.006C241.529 120.802 241.043 120.532 240.655 120.196C240.272 119.865 239.966 119.509 239.739 119.131L241.074 118.193C241.226 118.392 241.417 118.619 241.65 118.875C241.882 119.135 242.199 119.36 242.601 119.55C243.008 119.744 243.541 119.841 244.199 119.841C245.08 119.841 245.807 119.628 246.38 119.202C246.953 118.776 247.239 118.108 247.239 117.199V114.983H247.097C246.974 115.182 246.799 115.428 246.571 115.722C246.349 116.01 246.027 116.268 245.605 116.496C245.189 116.718 244.625 116.83 243.915 116.83C243.034 116.83 242.244 116.621 241.543 116.205C240.847 115.788 240.295 115.182 239.888 114.386C239.486 113.591 239.284 112.625 239.284 111.489C239.284 110.371 239.481 109.398 239.874 108.57C240.267 107.736 240.814 107.092 241.515 106.638C242.215 106.179 243.025 105.949 243.944 105.949C244.654 105.949 245.217 106.067 245.634 106.304C246.055 106.536 246.377 106.801 246.6 107.099C246.827 107.393 247.002 107.634 247.125 107.824H247.296V106.091H248.915V117.312C248.915 118.25 248.702 119.012 248.276 119.599C247.855 120.191 247.286 120.625 246.571 120.899C245.861 121.179 245.07 121.318 244.199 121.318ZM244.142 115.324C244.815 115.324 245.383 115.17 245.847 114.862C246.311 114.554 246.664 114.112 246.905 113.534C247.147 112.956 247.267 112.265 247.267 111.46C247.267 110.674 247.149 109.981 246.912 109.379C246.676 108.778 246.325 108.307 245.861 107.966C245.397 107.625 244.824 107.455 244.142 107.455C243.432 107.455 242.84 107.634 242.367 107.994C241.898 108.354 241.545 108.837 241.309 109.443C241.077 110.049 240.961 110.722 240.961 111.46C240.961 112.218 241.079 112.888 241.316 113.47C241.557 114.048 241.912 114.502 242.381 114.834C242.855 115.161 243.442 115.324 244.142 115.324ZM262.353 106.091V107.511H256.699V106.091H262.353ZM258.347 103.477H260.023V113.875C260.023 114.348 260.092 114.704 260.229 114.94C260.371 115.172 260.551 115.329 260.769 115.409C260.991 115.485 261.226 115.523 261.472 115.523C261.657 115.523 261.808 115.513 261.926 115.494C262.045 115.471 262.14 115.452 262.211 115.438L262.551 116.943C262.438 116.986 262.279 117.028 262.076 117.071C261.872 117.118 261.614 117.142 261.301 117.142C260.828 117.142 260.364 117.04 259.909 116.837C259.46 116.633 259.086 116.323 258.787 115.906C258.494 115.49 258.347 114.964 258.347 114.33V103.477ZM266.784 110.438V117H265.108V102.455H266.784V107.795H266.926C267.182 107.232 267.566 106.785 268.077 106.453C268.593 106.117 269.28 105.949 270.137 105.949C270.88 105.949 271.531 106.098 272.09 106.396C272.649 106.69 273.082 107.142 273.39 107.753C273.702 108.359 273.858 109.131 273.858 110.068V117H272.182V110.182C272.182 109.315 271.957 108.645 271.507 108.172C271.062 107.694 270.444 107.455 269.654 107.455C269.105 107.455 268.612 107.571 268.176 107.803C267.746 108.035 267.405 108.373 267.154 108.818C266.908 109.263 266.784 109.803 266.784 110.438ZM281.499 117.227C280.447 117.227 279.541 116.995 278.778 116.531C278.021 116.062 277.436 115.409 277.024 114.571C276.617 113.728 276.413 112.748 276.413 111.631C276.413 110.513 276.617 109.528 277.024 108.676C277.436 107.819 278.009 107.152 278.743 106.673C279.482 106.19 280.343 105.949 281.328 105.949C281.896 105.949 282.457 106.044 283.011 106.233C283.565 106.422 284.07 106.73 284.524 107.156C284.979 107.578 285.341 108.136 285.611 108.832C285.881 109.528 286.016 110.385 286.016 111.403V112.114H277.607V110.665H284.311C284.311 110.049 284.188 109.5 283.942 109.017C283.7 108.534 283.355 108.153 282.905 107.874C282.46 107.594 281.934 107.455 281.328 107.455C280.661 107.455 280.083 107.62 279.595 107.952C279.112 108.278 278.741 108.705 278.48 109.23C278.22 109.756 278.089 110.319 278.089 110.92V111.886C278.089 112.71 278.232 113.409 278.516 113.982C278.804 114.55 279.205 114.983 279.716 115.281C280.227 115.575 280.821 115.722 281.499 115.722C281.939 115.722 282.337 115.66 282.692 115.537C283.052 115.409 283.362 115.22 283.622 114.969C283.883 114.713 284.084 114.396 284.226 114.017L285.845 114.472C285.675 115.021 285.388 115.504 284.986 115.92C284.583 116.332 284.086 116.654 283.494 116.886C282.902 117.114 282.237 117.227 281.499 117.227ZM293.622 104.017V102.455H304.531V104.017H299.957V117H298.196V104.017H293.622ZM305.89 117V106.091H307.509V107.739H307.623C307.821 107.199 308.181 106.761 308.702 106.425C309.223 106.089 309.81 105.92 310.463 105.92C310.587 105.92 310.74 105.923 310.925 105.928C311.11 105.932 311.249 105.939 311.344 105.949V107.653C311.287 107.639 311.157 107.618 310.953 107.589C310.755 107.556 310.544 107.54 310.321 107.54C309.791 107.54 309.318 107.651 308.901 107.874C308.489 108.091 308.162 108.394 307.921 108.783C307.684 109.166 307.566 109.604 307.566 110.097V117H305.89ZM316.541 117.256C315.85 117.256 315.223 117.125 314.659 116.865C314.096 116.6 313.648 116.219 313.317 115.722C312.985 115.22 312.82 114.614 312.82 113.903C312.82 113.278 312.943 112.772 313.189 112.384C313.435 111.991 313.764 111.683 314.176 111.46C314.588 111.238 315.043 111.072 315.54 110.963C316.042 110.849 316.546 110.759 317.053 110.693C317.715 110.608 318.253 110.544 318.665 110.501C319.081 110.454 319.384 110.376 319.574 110.267C319.768 110.158 319.865 109.969 319.865 109.699V109.642C319.865 108.941 319.673 108.397 319.29 108.009C318.911 107.62 318.336 107.426 317.564 107.426C316.764 107.426 316.136 107.601 315.682 107.952C315.227 108.302 314.908 108.676 314.723 109.074L313.132 108.506C313.416 107.843 313.795 107.327 314.268 106.957C314.747 106.583 315.268 106.323 315.831 106.176C316.399 106.025 316.958 105.949 317.507 105.949C317.857 105.949 318.26 105.991 318.714 106.077C319.174 106.157 319.616 106.325 320.043 106.581C320.473 106.837 320.831 107.223 321.115 107.739C321.399 108.255 321.541 108.946 321.541 109.812V117H319.865V115.523H319.78C319.666 115.759 319.477 116.013 319.212 116.283C318.946 116.553 318.594 116.782 318.153 116.972C317.713 117.161 317.176 117.256 316.541 117.256ZM316.797 115.75C317.46 115.75 318.018 115.62 318.473 115.359C318.932 115.099 319.278 114.763 319.51 114.351C319.747 113.939 319.865 113.506 319.865 113.051V111.517C319.794 111.602 319.638 111.68 319.396 111.751C319.16 111.818 318.885 111.877 318.572 111.929C318.265 111.976 317.964 112.019 317.67 112.057C317.382 112.09 317.147 112.118 316.967 112.142C316.532 112.199 316.125 112.291 315.746 112.419C315.372 112.542 315.069 112.729 314.837 112.98C314.609 113.226 314.496 113.562 314.496 113.989C314.496 114.571 314.711 115.011 315.142 115.31C315.578 115.603 316.129 115.75 316.797 115.75ZM328.72 117.227C327.811 117.227 327.008 116.998 326.312 116.538C325.616 116.074 325.072 115.421 324.679 114.578C324.286 113.731 324.089 112.729 324.089 111.574C324.089 110.428 324.286 109.434 324.679 108.591C325.072 107.748 325.618 107.097 326.319 106.638C327.02 106.179 327.83 105.949 328.748 105.949C329.458 105.949 330.02 106.067 330.431 106.304C330.848 106.536 331.165 106.801 331.383 107.099C331.606 107.393 331.779 107.634 331.902 107.824H332.044V102.455H333.72V117H332.1V115.324H331.902C331.779 115.523 331.603 115.774 331.376 116.077C331.149 116.375 330.824 116.643 330.403 116.879C329.982 117.111 329.421 117.227 328.72 117.227ZM328.947 115.722C329.619 115.722 330.188 115.546 330.652 115.196C331.116 114.841 331.468 114.351 331.71 113.726C331.951 113.096 332.072 112.369 332.072 111.545C332.072 110.731 331.954 110.018 331.717 109.408C331.48 108.792 331.13 108.314 330.666 107.973C330.202 107.627 329.629 107.455 328.947 107.455C328.237 107.455 327.645 107.637 327.172 108.001C326.703 108.361 326.35 108.851 326.113 109.472C325.881 110.087 325.765 110.778 325.765 111.545C325.765 112.322 325.884 113.027 326.12 113.662C326.362 114.292 326.717 114.794 327.186 115.168C327.659 115.537 328.246 115.722 328.947 115.722ZM337.022 117V106.091H338.699V117H337.022ZM337.875 104.273C337.548 104.273 337.266 104.161 337.029 103.939C336.797 103.716 336.681 103.449 336.681 103.136C336.681 102.824 336.797 102.556 337.029 102.334C337.266 102.111 337.548 102 337.875 102C338.201 102 338.481 102.111 338.713 102.334C338.949 102.556 339.068 102.824 339.068 103.136C339.068 103.449 338.949 103.716 338.713 103.939C338.481 104.161 338.201 104.273 337.875 104.273ZM343.445 110.438V117H341.768V106.091H343.388V107.795H343.53C343.786 107.241 344.174 106.796 344.695 106.46C345.215 106.119 345.888 105.949 346.712 105.949C347.45 105.949 348.097 106.1 348.651 106.403C349.205 106.702 349.635 107.156 349.943 107.767C350.251 108.373 350.405 109.14 350.405 110.068V117H348.729V110.182C348.729 109.325 348.506 108.657 348.061 108.179C347.616 107.696 347.005 107.455 346.229 107.455C345.694 107.455 345.215 107.571 344.794 107.803C344.377 108.035 344.048 108.373 343.807 108.818C343.565 109.263 343.445 109.803 343.445 110.438ZM357.871 121.318C357.061 121.318 356.365 121.214 355.783 121.006C355.201 120.802 354.715 120.532 354.327 120.196C353.944 119.865 353.638 119.509 353.411 119.131L354.746 118.193C354.898 118.392 355.089 118.619 355.321 118.875C355.553 119.135 355.871 119.36 356.273 119.55C356.68 119.744 357.213 119.841 357.871 119.841C358.752 119.841 359.479 119.628 360.051 119.202C360.624 118.776 360.911 118.108 360.911 117.199V114.983H360.769C360.646 115.182 360.471 115.428 360.243 115.722C360.021 116.01 359.699 116.268 359.277 116.496C358.861 116.718 358.297 116.83 357.587 116.83C356.706 116.83 355.916 116.621 355.215 116.205C354.519 115.788 353.967 115.182 353.56 114.386C353.158 113.591 352.956 112.625 352.956 111.489C352.956 110.371 353.153 109.398 353.546 108.57C353.939 107.736 354.486 107.092 355.186 106.638C355.887 106.179 356.697 105.949 357.615 105.949C358.326 105.949 358.889 106.067 359.306 106.304C359.727 106.536 360.049 106.801 360.272 107.099C360.499 107.393 360.674 107.634 360.797 107.824H360.968V106.091H362.587V117.312C362.587 118.25 362.374 119.012 361.948 119.599C361.526 120.191 360.958 120.625 360.243 120.899C359.533 121.179 358.742 121.318 357.871 121.318ZM357.814 115.324C358.487 115.324 359.055 115.17 359.519 114.862C359.983 114.554 360.336 114.112 360.577 113.534C360.819 112.956 360.939 112.265 360.939 111.46C360.939 110.674 360.821 109.981 360.584 109.379C360.347 108.778 359.997 108.307 359.533 107.966C359.069 107.625 358.496 107.455 357.814 107.455C357.104 107.455 356.512 107.634 356.039 107.994C355.57 108.354 355.217 108.837 354.98 109.443C354.748 110.049 354.632 110.722 354.632 111.46C354.632 112.218 354.751 112.888 354.988 113.47C355.229 114.048 355.584 114.502 356.053 114.834C356.526 115.161 357.114 115.324 357.814 115.324ZM374.15 117L370.172 102.455H371.962L375.002 114.301H375.144L378.24 102.455H380.229L383.326 114.301H383.468L386.507 102.455H388.297L384.32 117H382.502L379.292 105.409H379.178L375.968 117H374.15ZM393.681 117.227C392.696 117.227 391.832 116.993 391.088 116.524C390.35 116.055 389.772 115.4 389.355 114.557C388.944 113.714 388.738 112.729 388.738 111.602C388.738 110.466 388.944 109.474 389.355 108.626C389.772 107.779 390.35 107.121 391.088 106.652C391.832 106.183 392.696 105.949 393.681 105.949C394.666 105.949 395.527 106.183 396.266 106.652C397.009 107.121 397.587 107.779 397.999 108.626C398.416 109.474 398.624 110.466 398.624 111.602C398.624 112.729 398.416 113.714 397.999 114.557C397.587 115.4 397.009 116.055 396.266 116.524C395.527 116.993 394.666 117.227 393.681 117.227ZM393.681 115.722C394.429 115.722 395.044 115.53 395.527 115.146C396.01 114.763 396.368 114.259 396.6 113.634C396.832 113.009 396.948 112.331 396.948 111.602C396.948 110.873 396.832 110.194 396.6 109.564C396.368 108.934 396.01 108.425 395.527 108.037C395.044 107.649 394.429 107.455 393.681 107.455C392.933 107.455 392.317 107.649 391.834 108.037C391.351 108.425 390.994 108.934 390.762 109.564C390.53 110.194 390.414 110.873 390.414 111.602C390.414 112.331 390.53 113.009 390.762 113.634C390.994 114.259 391.351 114.763 391.834 115.146C392.317 115.53 392.933 115.722 393.681 115.722ZM401.183 117V106.091H402.802V107.739H402.915C403.114 107.199 403.474 106.761 403.995 106.425C404.516 106.089 405.103 105.92 405.756 105.92C405.879 105.92 406.033 105.923 406.218 105.928C406.403 105.932 406.542 105.939 406.637 105.949V107.653C406.58 107.639 406.45 107.618 406.246 107.589C406.048 107.556 405.837 107.54 405.614 107.54C405.084 107.54 404.611 107.651 404.194 107.874C403.782 108.091 403.455 108.394 403.214 108.783C402.977 109.166 402.859 109.604 402.859 110.097V117H401.183ZM410.3 102.455V117H408.624V102.455H410.3ZM417.489 117.227C416.58 117.227 415.778 116.998 415.082 116.538C414.386 116.074 413.841 115.421 413.448 114.578C413.055 113.731 412.859 112.729 412.859 111.574C412.859 110.428 413.055 109.434 413.448 108.591C413.841 107.748 414.388 107.097 415.089 106.638C415.79 106.179 416.599 105.949 417.518 105.949C418.228 105.949 418.789 106.067 419.201 106.304C419.618 106.536 419.935 106.801 420.153 107.099C420.375 107.393 420.548 107.634 420.671 107.824H420.813V102.455H422.489V117H420.87V115.324H420.671C420.548 115.523 420.373 115.774 420.146 116.077C419.918 116.375 419.594 116.643 419.173 116.879C418.751 117.111 418.19 117.227 417.489 117.227ZM417.717 115.722C418.389 115.722 418.957 115.546 419.421 115.196C419.885 114.841 420.238 114.351 420.479 113.726C420.721 113.096 420.842 112.369 420.842 111.545C420.842 110.731 420.723 110.018 420.487 109.408C420.25 108.792 419.899 108.314 419.435 107.973C418.971 107.627 418.398 107.455 417.717 107.455C417.006 107.455 416.415 107.637 415.941 108.001C415.472 108.361 415.12 108.851 414.883 109.472C414.651 110.087 414.535 110.778 414.535 111.545C414.535 112.322 414.653 113.027 414.89 113.662C415.131 114.292 415.487 114.794 415.955 115.168C416.429 115.537 417.016 115.722 417.717 115.722ZM431.644 117V102.455H433.406V108.932H441.161V102.455H442.923V117H441.161V110.494H433.406V117H431.644ZM449.432 117.256C448.741 117.256 448.113 117.125 447.55 116.865C446.986 116.6 446.539 116.219 446.207 115.722C445.876 115.22 445.71 114.614 445.71 113.903C445.71 113.278 445.833 112.772 446.08 112.384C446.326 111.991 446.655 111.683 447.067 111.46C447.479 111.238 447.933 111.072 448.43 110.963C448.932 110.849 449.437 110.759 449.943 110.693C450.606 110.608 451.143 110.544 451.555 110.501C451.972 110.454 452.275 110.376 452.464 110.267C452.659 110.158 452.756 109.969 452.756 109.699V109.642C452.756 108.941 452.564 108.397 452.18 108.009C451.802 107.62 451.226 107.426 450.455 107.426C449.654 107.426 449.027 107.601 448.572 107.952C448.118 108.302 447.798 108.676 447.614 109.074L446.023 108.506C446.307 107.843 446.686 107.327 447.159 106.957C447.637 106.583 448.158 106.323 448.722 106.176C449.29 106.025 449.848 105.949 450.398 105.949C450.748 105.949 451.151 105.991 451.605 106.077C452.064 106.157 452.507 106.325 452.933 106.581C453.364 106.837 453.722 107.223 454.006 107.739C454.29 108.255 454.432 108.946 454.432 109.812V117H452.756V115.523H452.67C452.557 115.759 452.367 116.013 452.102 116.283C451.837 116.553 451.484 116.782 451.044 116.972C450.604 117.161 450.066 117.256 449.432 117.256ZM449.688 115.75C450.35 115.75 450.909 115.62 451.364 115.359C451.823 115.099 452.169 114.763 452.401 114.351C452.637 113.939 452.756 113.506 452.756 113.051V111.517C452.685 111.602 452.528 111.68 452.287 111.751C452.05 111.818 451.776 111.877 451.463 111.929C451.155 111.976 450.855 112.019 450.561 112.057C450.272 112.09 450.038 112.118 449.858 112.142C449.422 112.199 449.015 112.291 448.636 112.419C448.262 112.542 447.959 112.729 447.727 112.98C447.5 113.226 447.386 113.562 447.386 113.989C447.386 114.571 447.602 115.011 448.033 115.31C448.468 115.603 449.02 115.75 449.688 115.75ZM465.218 108.534L463.713 108.96C463.618 108.709 463.478 108.465 463.294 108.229C463.114 107.987 462.868 107.788 462.555 107.632C462.243 107.476 461.842 107.398 461.355 107.398C460.687 107.398 460.131 107.552 459.686 107.859C459.245 108.162 459.025 108.548 459.025 109.017C459.025 109.434 459.177 109.763 459.48 110.004C459.783 110.246 460.256 110.447 460.9 110.608L462.52 111.006C463.495 111.242 464.222 111.605 464.7 112.092C465.178 112.575 465.417 113.198 465.417 113.96C465.417 114.585 465.237 115.144 464.877 115.636C464.522 116.129 464.025 116.517 463.386 116.801C462.747 117.085 462.003 117.227 461.156 117.227C460.043 117.227 459.122 116.986 458.393 116.503C457.664 116.02 457.202 115.314 457.008 114.386L458.599 113.989C458.751 114.576 459.037 115.016 459.458 115.31C459.885 115.603 460.441 115.75 461.127 115.75C461.909 115.75 462.529 115.584 462.988 115.253C463.452 114.917 463.684 114.514 463.684 114.045C463.684 113.667 463.552 113.349 463.287 113.094C463.021 112.833 462.614 112.639 462.065 112.511L460.247 112.085C459.248 111.848 458.514 111.482 458.045 110.984C457.581 110.482 457.349 109.855 457.349 109.102C457.349 108.487 457.522 107.942 457.868 107.469C458.218 106.995 458.694 106.624 459.295 106.354C459.901 106.084 460.588 105.949 461.355 105.949C462.434 105.949 463.282 106.186 463.897 106.659C464.518 107.133 464.958 107.758 465.218 108.534ZM473.793 117V102.455H482.571V104.017H475.554V108.932H482.116V110.494H475.554V115.438H482.685V117H473.793ZM494.439 106.091L490.405 117H488.7L484.666 106.091H486.484L489.496 114.784H489.609L492.621 106.091H494.439ZM500.835 117.227C499.783 117.227 498.877 116.995 498.114 116.531C497.357 116.062 496.772 115.409 496.36 114.571C495.953 113.728 495.749 112.748 495.749 111.631C495.749 110.513 495.953 109.528 496.36 108.676C496.772 107.819 497.345 107.152 498.079 106.673C498.817 106.19 499.679 105.949 500.664 105.949C501.232 105.949 501.793 106.044 502.347 106.233C502.901 106.422 503.406 106.73 503.86 107.156C504.315 107.578 504.677 108.136 504.947 108.832C505.217 109.528 505.352 110.385 505.352 111.403V112.114H496.942V110.665H503.647C503.647 110.049 503.524 109.5 503.278 109.017C503.036 108.534 502.691 108.153 502.241 107.874C501.796 107.594 501.27 107.455 500.664 107.455C499.996 107.455 499.419 107.62 498.931 107.952C498.448 108.278 498.076 108.705 497.816 109.23C497.556 109.756 497.425 110.319 497.425 110.92V111.886C497.425 112.71 497.567 113.409 497.852 113.982C498.14 114.55 498.54 114.983 499.052 115.281C499.563 115.575 500.157 115.722 500.835 115.722C501.275 115.722 501.673 115.66 502.028 115.537C502.388 115.409 502.698 115.22 502.958 114.969C503.219 114.713 503.42 114.396 503.562 114.017L505.181 114.472C505.011 115.021 504.724 115.504 504.322 115.92C503.919 116.332 503.422 116.654 502.83 116.886C502.238 117.114 501.573 117.227 500.835 117.227ZM507.901 117V106.091H509.521V107.739H509.634C509.833 107.199 510.193 106.761 510.714 106.425C511.235 106.089 511.822 105.92 512.475 105.92C512.598 105.92 512.752 105.923 512.937 105.928C513.121 105.932 513.261 105.939 513.356 105.949V107.653C513.299 107.639 513.169 107.618 512.965 107.589C512.766 107.556 512.556 107.54 512.333 107.54C511.803 107.54 511.329 107.651 510.913 107.874C510.501 108.091 510.174 108.394 509.933 108.783C509.696 109.166 509.577 109.604 509.577 110.097V117H507.901ZM529.15 106.091C529.064 105.371 528.719 104.812 528.113 104.415C527.507 104.017 526.763 103.818 525.882 103.818C525.239 103.818 524.675 103.922 524.192 104.131C523.714 104.339 523.34 104.625 523.07 104.99C522.805 105.355 522.672 105.769 522.672 106.233C522.672 106.621 522.765 106.955 522.949 107.234C523.139 107.509 523.38 107.739 523.674 107.923C523.967 108.103 524.275 108.252 524.597 108.371C524.919 108.484 525.215 108.577 525.485 108.648L526.962 109.045C527.341 109.145 527.762 109.282 528.226 109.457C528.695 109.633 529.142 109.872 529.569 110.175C529.999 110.473 530.355 110.857 530.634 111.325C530.913 111.794 531.053 112.369 531.053 113.051C531.053 113.837 530.847 114.547 530.435 115.182C530.028 115.816 529.431 116.321 528.645 116.695C527.864 117.069 526.915 117.256 525.797 117.256C524.756 117.256 523.854 117.088 523.091 116.751C522.334 116.415 521.737 115.946 521.301 115.345C520.871 114.744 520.627 114.045 520.57 113.25H522.388C522.435 113.799 522.62 114.254 522.942 114.614C523.269 114.969 523.681 115.234 524.178 115.409C524.68 115.58 525.22 115.665 525.797 115.665C526.47 115.665 527.073 115.556 527.608 115.338C528.143 115.116 528.567 114.808 528.88 114.415C529.192 114.017 529.348 113.553 529.348 113.023C529.348 112.54 529.213 112.147 528.944 111.844C528.674 111.541 528.319 111.295 527.878 111.105C527.438 110.916 526.962 110.75 526.451 110.608L524.661 110.097C523.525 109.77 522.625 109.304 521.962 108.697C521.299 108.091 520.968 107.298 520.968 106.318C520.968 105.504 521.188 104.794 521.628 104.188C522.073 103.577 522.67 103.103 523.418 102.767C524.171 102.426 525.011 102.256 525.939 102.256C526.877 102.256 527.71 102.424 528.439 102.76C529.168 103.091 529.746 103.546 530.172 104.124C530.603 104.701 530.83 105.357 530.854 106.091H529.15ZM538.295 117.227C537.244 117.227 536.338 116.995 535.575 116.531C534.818 116.062 534.233 115.409 533.821 114.571C533.414 113.728 533.21 112.748 533.21 111.631C533.21 110.513 533.414 109.528 533.821 108.676C534.233 107.819 534.806 107.152 535.54 106.673C536.278 106.19 537.14 105.949 538.125 105.949C538.693 105.949 539.254 106.044 539.808 106.233C540.362 106.422 540.866 106.73 541.321 107.156C541.776 107.578 542.138 108.136 542.408 108.832C542.678 109.528 542.812 110.385 542.812 111.403V112.114H534.403V110.665H541.108C541.108 110.049 540.985 109.5 540.739 109.017C540.497 108.534 540.152 108.153 539.702 107.874C539.257 107.594 538.731 107.455 538.125 107.455C537.457 107.455 536.88 107.62 536.392 107.952C535.909 108.278 535.537 108.705 535.277 109.23C535.017 109.756 534.886 110.319 534.886 110.92V111.886C534.886 112.71 535.028 113.409 535.312 113.982C535.601 114.55 536.001 114.983 536.513 115.281C537.024 115.575 537.618 115.722 538.295 115.722C538.736 115.722 539.134 115.66 539.489 115.537C539.848 115.409 540.159 115.22 540.419 114.969C540.679 114.713 540.881 114.396 541.023 114.017L542.642 114.472C542.472 115.021 542.185 115.504 541.783 115.92C541.38 116.332 540.883 116.654 540.291 116.886C539.699 117.114 539.034 117.227 538.295 117.227ZM549.936 117.227C548.885 117.227 547.978 116.995 547.216 116.531C546.458 116.062 545.874 115.409 545.462 114.571C545.054 113.728 544.851 112.748 544.851 111.631C544.851 110.513 545.054 109.528 545.462 108.676C545.874 107.819 546.446 107.152 547.18 106.673C547.919 106.19 548.781 105.949 549.766 105.949C550.334 105.949 550.895 106.044 551.449 106.233C552.003 106.422 552.507 106.73 552.962 107.156C553.416 107.578 553.778 108.136 554.048 108.832C554.318 109.528 554.453 110.385 554.453 111.403V112.114H546.044V110.665H552.749C552.749 110.049 552.625 109.5 552.379 109.017C552.138 108.534 551.792 108.153 551.342 107.874C550.897 107.594 550.372 107.455 549.766 107.455C549.098 107.455 548.52 107.62 548.033 107.952C547.55 108.278 547.178 108.705 546.918 109.23C546.657 109.756 546.527 110.319 546.527 110.92V111.886C546.527 112.71 546.669 113.409 546.953 113.982C547.242 114.55 547.642 114.983 548.153 115.281C548.665 115.575 549.259 115.722 549.936 115.722C550.376 115.722 550.774 115.66 551.129 115.537C551.489 115.409 551.799 115.22 552.06 114.969C552.32 114.713 552.521 114.396 552.663 114.017L554.283 114.472C554.112 115.021 553.826 115.504 553.423 115.92C553.021 116.332 552.524 116.654 551.932 116.886C551.34 117.114 550.675 117.227 549.936 117.227ZM558.679 110.438V117H557.003V106.091H558.622V107.795H558.764C559.02 107.241 559.408 106.796 559.929 106.46C560.45 106.119 561.122 105.949 561.946 105.949C562.685 105.949 563.331 106.1 563.885 106.403C564.439 106.702 564.87 107.156 565.178 107.767C565.485 108.373 565.639 109.14 565.639 110.068V117H563.963V110.182C563.963 109.325 563.741 108.657 563.295 108.179C562.85 107.696 562.24 107.455 561.463 107.455C560.928 107.455 560.45 107.571 560.028 107.803C559.612 108.035 559.283 108.373 559.041 108.818C558.8 109.263 558.679 109.803 558.679 110.438Z" fill="white"/>
<rect x="9" y="148" width="651" height="36" rx="6.55172" fill="#45D1FF"/>
<rect x="584" y="9" width="76" height="30.4" rx="5" fill="#45D1FF"/>
<path d="M614.056 17.6188V30.7173H611.945L605.773 21.7952H605.665V30.7173H603.292V17.6188H605.415L611.581 26.5473H611.696V17.6188H614.056ZM620.888 30.9092C619.903 30.9092 619.053 30.7045 618.336 30.2952C617.624 29.8816 617.076 29.2974 616.693 28.5427C616.309 27.7838 616.117 26.8905 616.117 25.8629C616.117 24.8524 616.309 23.9655 616.693 23.2023C617.081 22.4348 617.622 21.8379 618.317 21.4115C619.012 20.9809 619.829 20.7655 620.767 20.7655C621.372 20.7655 621.943 20.8636 622.481 21.0597C623.022 21.2516 623.5 21.5501 623.913 21.9551C624.331 22.3602 624.66 22.8761 624.898 23.5029C625.137 24.1254 625.256 24.8673 625.256 25.7286V26.4385H617.204V24.878H623.037C623.033 24.4346 622.937 24.0401 622.749 23.6948C622.562 23.3451 622.299 23.0701 621.963 22.8697C621.63 22.6693 621.242 22.5691 620.799 22.5691C620.325 22.5691 619.91 22.6843 619.551 22.9145C619.193 23.1405 618.914 23.439 618.714 23.8099C618.517 24.1766 618.417 24.5795 618.413 25.0187V26.381C618.413 26.9523 618.517 27.4427 618.726 27.852C618.935 28.2571 619.227 28.5683 619.603 28.7858C619.978 28.999 620.417 29.1056 620.92 29.1056C621.257 29.1056 621.562 29.0587 621.835 28.9649C622.108 28.8668 622.344 28.724 622.545 28.5363C622.745 28.3487 622.896 28.1164 622.999 27.8392L625.161 28.0822C625.024 28.6536 624.764 29.1525 624.38 29.5788C624.001 30.001 623.515 30.3293 622.922 30.5638C622.329 30.794 621.651 30.9092 620.888 30.9092ZM629.19 30.7173L626.414 20.8935H628.774L630.501 27.8008H630.59L632.356 20.8935H634.69L636.455 27.7625H636.551L638.253 20.8935H640.619L637.837 30.7173H635.426L633.584 24.0785H633.449L631.607 30.7173H629.19Z" fill="#0B111D"/>
<path d="M43.2219 159.909V173H41.1125L34.9442 164.083H34.8355V173H32.464V159.909H34.5862L40.7481 168.832H40.8632V159.909H43.2219ZM49.9862 173.192C49.0274 173.192 48.1965 172.981 47.4933 172.559C46.7902 172.137 46.2448 171.547 45.857 170.788C45.4735 170.03 45.2817 169.143 45.2817 168.129C45.2817 167.115 45.4735 166.227 45.857 165.464C46.2448 164.701 46.7902 164.109 47.4933 163.687C48.1965 163.265 49.0274 163.054 49.9862 163.054C50.945 163.054 51.776 163.265 52.4791 163.687C53.1823 164.109 53.7256 164.701 54.1091 165.464C54.4969 166.227 54.6908 167.115 54.6908 168.129C54.6908 169.143 54.4969 170.03 54.1091 170.788C53.7256 171.547 53.1823 172.137 52.4791 172.559C51.776 172.981 50.945 173.192 49.9862 173.192ZM49.999 171.338C50.5189 171.338 50.9536 171.195 51.303 170.91C51.6524 170.62 51.9124 170.232 52.0828 169.746C52.2575 169.261 52.3449 168.719 52.3449 168.123C52.3449 167.522 52.2575 166.979 52.0828 166.493C51.9124 166.003 51.6524 165.613 51.303 165.323C50.9536 165.033 50.5189 164.888 49.999 164.888C49.4664 164.888 49.0232 165.033 48.6695 165.323C48.32 165.613 48.058 166.003 47.8833 166.493C47.7128 166.979 47.6276 167.522 47.6276 168.123C47.6276 168.719 47.7128 169.261 47.8833 169.746C48.058 170.232 48.32 170.62 48.6695 170.91C49.0232 171.195 49.4664 171.338 49.999 171.338ZM66.1533 173H62.1135V159.909H66.3323C67.6022 159.909 68.6888 160.171 69.5922 160.695C70.4957 161.215 71.1881 161.963 71.6697 162.939C72.1512 163.911 72.392 165.074 72.392 166.429C72.392 167.793 72.1491 168.967 71.6633 169.951C71.1775 170.931 70.4701 171.685 69.5411 172.214C68.6121 172.738 67.4829 173 66.1533 173ZM63.6988 171.594H66.051C67.1334 171.594 68.0305 171.385 68.7421 170.967C69.4537 170.55 69.9843 169.955 70.3337 169.184C70.6831 168.413 70.8579 167.494 70.8579 166.429C70.8579 165.372 70.6853 164.462 70.3401 163.7C69.9949 162.933 69.4793 162.344 68.7932 161.935C68.1072 161.522 67.2528 161.315 66.23 161.315H63.6988V171.594ZM77.7357 173.23C77.1135 173.23 76.5489 173.113 76.0418 172.879C75.5347 172.64 75.132 172.297 74.8337 171.849C74.5354 171.398 74.3863 170.852 74.3863 170.213C74.3863 169.651 74.4971 169.195 74.7187 168.845C74.9403 168.491 75.2364 168.214 75.6072 168.014C75.9779 167.814 76.387 167.665 76.8344 167.567C77.2861 167.464 77.74 167.384 78.1959 167.324C78.7925 167.247 79.2762 167.19 79.6469 167.151C80.0219 167.109 80.2947 167.038 80.4651 166.94C80.6398 166.842 80.7272 166.672 80.7272 166.429V166.378C80.7272 165.747 80.5546 165.257 80.2094 164.908C79.8685 164.558 79.3508 164.384 78.6562 164.384C77.936 164.384 77.3714 164.541 76.9623 164.857C76.5532 165.172 76.2655 165.509 76.0993 165.866L74.6675 165.355C74.9232 164.759 75.2641 164.294 75.6903 163.962C76.1206 163.625 76.5894 163.391 77.0965 163.259C77.6079 163.122 78.1107 163.054 78.605 163.054C78.9204 163.054 79.2826 163.092 79.6917 163.169C80.105 163.241 80.5035 163.393 80.887 163.623C81.2748 163.853 81.5965 164.2 81.8522 164.665C82.1079 165.129 82.2357 165.751 82.2357 166.531V173H80.7272V171.67H80.6505C80.5482 171.884 80.3778 172.112 80.1391 172.354C79.9005 172.597 79.583 172.804 79.1867 172.974C78.7904 173.145 78.3067 173.23 77.7357 173.23ZM77.9658 171.875C78.5624 171.875 79.0653 171.758 79.4743 171.523C79.8877 171.289 80.1988 170.987 80.4076 170.616C80.6206 170.245 80.7272 169.855 80.7272 169.446V168.065C80.6633 168.142 80.5226 168.212 80.3053 168.276C80.0922 168.336 79.8451 168.389 79.5638 168.436C79.2868 168.479 79.0162 168.517 78.752 168.551C78.4921 168.581 78.2812 168.607 78.1192 168.628C77.7272 168.679 77.3607 168.762 77.0198 168.877C76.6831 168.988 76.4104 169.156 76.2016 169.382C75.9971 169.604 75.8948 169.906 75.8948 170.29C75.8948 170.814 76.0887 171.21 76.4765 171.479C76.8685 171.743 77.365 171.875 77.9658 171.875ZM84.9891 173V163.182H86.4976V173H84.9891ZM85.7561 161.545C85.4621 161.545 85.2085 161.445 84.9955 161.245C84.7867 161.045 84.6823 160.804 84.6823 160.523C84.6823 160.241 84.7867 160.001 84.9955 159.8C85.2085 159.6 85.4621 159.5 85.7561 159.5C86.0502 159.5 86.3016 159.6 86.5104 159.8C86.7235 160.001 86.83 160.241 86.83 160.523C86.83 160.804 86.7235 161.045 86.5104 161.245C86.3016 161.445 86.0502 161.545 85.7561 161.545ZM90.7691 159.909V173H89.2606V159.909H90.7691ZM94.5036 176.682C94.248 176.682 94.02 176.661 93.8197 176.618C93.6194 176.58 93.4809 176.541 93.4042 176.503L93.7877 175.173C94.1542 175.267 94.4781 175.301 94.7593 175.276C95.0406 175.25 95.2899 175.124 95.5072 174.898C95.7288 174.677 95.9312 174.317 96.1144 173.818L96.3957 173.051L92.765 163.182H94.4014L97.1116 171.006H97.2139L99.9241 163.182H101.56L97.3928 174.432C97.2053 174.939 96.9731 175.359 96.6961 175.691C96.4191 176.028 96.0974 176.277 95.7309 176.439C95.3687 176.601 94.9596 176.682 94.5036 176.682ZM112.858 173H108.819V159.909H113.037C114.307 159.909 115.394 160.171 116.297 160.695C117.201 161.215 117.893 161.963 118.375 162.939C118.856 163.911 119.097 165.074 119.097 166.429C119.097 167.793 118.854 168.967 118.368 169.951C117.883 170.931 117.175 171.685 116.246 172.214C115.317 172.738 114.188 173 112.858 173ZM110.404 171.594H112.756C113.839 171.594 114.736 171.385 115.447 170.967C116.159 170.55 116.689 169.955 117.039 169.184C117.388 168.413 117.563 167.494 117.563 166.429C117.563 165.372 117.39 164.462 117.045 163.7C116.7 162.933 116.184 162.344 115.498 161.935C114.812 161.522 113.958 161.315 112.935 161.315H110.404V171.594ZM121.552 173V163.182H123.009V164.665H123.111C123.29 164.179 123.614 163.785 124.083 163.482C124.552 163.18 125.08 163.028 125.668 163.028C125.779 163.028 125.917 163.031 126.084 163.035C126.25 163.039 126.375 163.045 126.461 163.054V164.588C126.41 164.575 126.292 164.556 126.109 164.531C125.93 164.501 125.741 164.486 125.54 164.486C125.063 164.486 124.637 164.586 124.262 164.786C123.891 164.982 123.597 165.255 123.38 165.604C123.167 165.95 123.06 166.344 123.06 166.787V173H121.552ZM131.138 173.23C130.516 173.23 129.951 173.113 129.444 172.879C128.937 172.64 128.534 172.297 128.236 171.849C127.938 171.398 127.789 170.852 127.789 170.213C127.789 169.651 127.899 169.195 128.121 168.845C128.343 168.491 128.639 168.214 129.009 168.014C129.38 167.814 129.789 167.665 130.237 167.567C130.688 167.464 131.142 167.384 131.598 167.324C132.195 167.247 132.679 167.19 133.049 167.151C133.424 167.109 133.697 167.038 133.867 166.94C134.042 166.842 134.13 166.672 134.13 166.429V166.378C134.13 165.747 133.957 165.257 133.612 164.908C133.271 164.558 132.753 164.384 132.059 164.384C131.338 164.384 130.774 164.541 130.365 164.857C129.956 165.172 129.668 165.509 129.502 165.866L128.07 165.355C128.326 164.759 128.666 164.294 129.093 163.962C129.523 163.625 129.992 163.391 130.499 163.259C131.01 163.122 131.513 163.054 132.007 163.054C132.323 163.054 132.685 163.092 133.094 163.169C133.507 163.241 133.906 163.393 134.289 163.623C134.677 163.853 134.999 164.2 135.255 164.665C135.51 165.129 135.638 165.751 135.638 166.531V173H134.13V171.67H134.053C133.951 171.884 133.78 172.112 133.541 172.354C133.303 172.597 132.985 172.804 132.589 172.974C132.193 173.145 131.709 173.23 131.138 173.23ZM131.368 171.875C131.965 171.875 132.468 171.758 132.877 171.523C133.29 171.289 133.601 170.987 133.81 170.616C134.023 170.245 134.13 169.855 134.13 169.446V168.065C134.066 168.142 133.925 168.212 133.708 168.276C133.495 168.336 133.247 168.389 132.966 168.436C132.689 168.479 132.419 168.517 132.154 168.551C131.894 168.581 131.684 168.607 131.522 168.628C131.13 168.679 130.763 168.762 130.422 168.877C130.085 168.988 129.813 169.156 129.604 169.382C129.399 169.604 129.297 169.906 129.297 170.29C129.297 170.814 129.491 171.21 129.879 171.479C130.271 171.743 130.767 171.875 131.368 171.875ZM140.616 173L137.624 163.182H139.21L141.332 170.699H141.434L143.531 163.182H145.141L147.212 170.673H147.315L149.437 163.182H151.022L148.031 173H146.548L144.4 165.457H144.247L142.099 173H140.616ZM156.39 173.205C155.572 173.205 154.849 172.998 154.223 172.585C153.597 172.167 153.106 171.579 152.753 170.82C152.399 170.058 152.222 169.156 152.222 168.116C152.222 167.085 152.399 166.19 152.753 165.432C153.106 164.673 153.599 164.087 154.229 163.674C154.86 163.261 155.589 163.054 156.415 163.054C157.055 163.054 157.56 163.161 157.93 163.374C158.305 163.582 158.591 163.821 158.787 164.089C158.987 164.354 159.143 164.571 159.253 164.741H159.381V159.909H160.89V173H159.432V171.491H159.253C159.143 171.67 158.985 171.896 158.78 172.169C158.576 172.437 158.284 172.678 157.905 172.891C157.525 173.1 157.021 173.205 156.39 173.205ZM156.594 171.849C157.199 171.849 157.711 171.692 158.128 171.376C158.546 171.057 158.864 170.616 159.081 170.053C159.298 169.487 159.407 168.832 159.407 168.091C159.407 167.358 159.3 166.717 159.087 166.167C158.874 165.613 158.559 165.183 158.141 164.876C157.724 164.565 157.208 164.409 156.594 164.409C155.955 164.409 155.422 164.573 154.996 164.901C154.574 165.225 154.257 165.666 154.044 166.224C153.835 166.778 153.731 167.401 153.731 168.091C153.731 168.79 153.837 169.425 154.05 169.996C154.268 170.562 154.587 171.014 155.009 171.351C155.435 171.683 155.964 171.849 156.594 171.849ZM167.851 173.205C166.964 173.205 166.187 172.994 165.518 172.572C164.853 172.15 164.333 171.56 163.958 170.801C163.587 170.043 163.402 169.156 163.402 168.142C163.402 167.119 163.587 166.227 163.958 165.464C164.333 164.701 164.853 164.109 165.518 163.687C166.187 163.265 166.964 163.054 167.851 163.054C168.737 163.054 169.513 163.265 170.177 163.687C170.847 164.109 171.366 164.701 171.737 165.464C172.112 166.227 172.3 167.119 172.3 168.142C172.3 169.156 172.112 170.043 171.737 170.801C171.366 171.56 170.847 172.15 170.177 172.572C169.513 172.994 168.737 173.205 167.851 173.205ZM167.851 171.849C168.524 171.849 169.078 171.677 169.513 171.332C169.947 170.987 170.269 170.533 170.478 169.97C170.687 169.408 170.791 168.798 170.791 168.142C170.791 167.486 170.687 166.874 170.478 166.308C170.269 165.741 169.947 165.283 169.513 164.933C169.078 164.584 168.524 164.409 167.851 164.409C167.177 164.409 166.623 164.584 166.189 164.933C165.754 165.283 165.432 165.741 165.224 166.308C165.015 166.874 164.91 167.486 164.91 168.142C164.91 168.798 165.015 169.408 165.224 169.97C165.432 170.533 165.754 170.987 166.189 171.332C166.623 171.677 167.177 171.849 167.851 171.849ZM176.493 173L173.501 163.182H175.087L177.209 170.699H177.311L179.408 163.182H181.018L183.089 170.673H183.192L185.314 163.182H186.899L183.908 173H182.425L180.277 165.457H180.123L177.976 173H176.493ZM190.402 167.094V173H188.893V163.182H190.351V164.716H190.479C190.709 164.217 191.058 163.817 191.527 163.514C191.996 163.207 192.601 163.054 193.342 163.054C194.007 163.054 194.589 163.19 195.087 163.463C195.586 163.732 195.974 164.141 196.251 164.69C196.528 165.236 196.666 165.926 196.666 166.761V173H195.158V166.864C195.158 166.092 194.957 165.491 194.557 165.061C194.156 164.626 193.606 164.409 192.908 164.409C192.426 164.409 191.996 164.513 191.616 164.722C191.241 164.931 190.945 165.236 190.728 165.636C190.511 166.037 190.402 166.523 190.402 167.094ZM216.809 155.69V177.219H215.531V155.69H216.809ZM246.393 159.909V173H244.002L238.307 164.761H238.211V173H235.443V159.909H237.872L243.523 168.142H243.638V159.909H246.393ZM253.065 173.192C252.072 173.192 251.213 172.981 250.489 172.559C249.769 172.133 249.212 171.54 248.82 170.782C248.428 170.019 248.232 169.135 248.232 168.129C248.232 167.115 248.428 166.229 248.82 165.47C249.212 164.707 249.769 164.115 250.489 163.693C251.213 163.267 252.072 163.054 253.065 163.054C254.058 163.054 254.914 163.267 255.634 163.693C256.359 164.115 256.917 164.707 257.309 165.47C257.701 166.229 257.897 167.115 257.897 168.129C257.897 169.135 257.701 170.019 257.309 170.782C256.917 171.54 256.359 172.133 255.634 172.559C254.914 172.981 254.058 173.192 253.065 173.192ZM253.078 171.082C253.529 171.082 253.906 170.955 254.209 170.699C254.511 170.439 254.739 170.085 254.893 169.638C255.051 169.19 255.129 168.681 255.129 168.11C255.129 167.539 255.051 167.03 254.893 166.582C254.739 166.135 254.511 165.781 254.209 165.521C253.906 165.261 253.529 165.131 253.078 165.131C252.622 165.131 252.238 165.261 251.927 165.521C251.62 165.781 251.388 166.135 251.23 166.582C251.077 167.03 251 167.539 251 168.11C251 168.681 251.077 169.19 251.23 169.638C251.388 170.085 251.62 170.439 251.927 170.699C252.238 170.955 252.622 171.082 253.078 171.082ZM272.388 163.182C272.311 162.534 272 162.031 271.455 161.673C270.909 161.315 270.24 161.136 269.448 161.136C268.868 161.136 268.361 161.23 267.926 161.418C267.496 161.605 267.159 161.863 266.916 162.191C266.678 162.519 266.558 162.892 266.558 163.31C266.558 163.659 266.641 163.96 266.808 164.211C266.978 164.458 267.195 164.665 267.46 164.831C267.724 164.993 268.001 165.127 268.291 165.234C268.58 165.336 268.847 165.419 269.09 165.483L270.419 165.841C270.76 165.93 271.139 166.054 271.557 166.212C271.979 166.369 272.381 166.585 272.765 166.857C273.153 167.126 273.472 167.471 273.724 167.893C273.975 168.315 274.101 168.832 274.101 169.446C274.101 170.153 273.916 170.793 273.545 171.364C273.178 171.935 272.641 172.388 271.934 172.725C271.231 173.062 270.377 173.23 269.371 173.23C268.433 173.23 267.622 173.079 266.935 172.776C266.254 172.474 265.717 172.052 265.325 171.511C264.937 170.969 264.717 170.341 264.666 169.625H266.303C266.345 170.119 266.511 170.528 266.801 170.852C267.095 171.172 267.466 171.411 267.913 171.568C268.365 171.722 268.851 171.798 269.371 171.798C269.976 171.798 270.519 171.7 271.001 171.504C271.482 171.304 271.864 171.027 272.145 170.673C272.426 170.315 272.567 169.898 272.567 169.42C272.567 168.986 272.445 168.632 272.203 168.359C271.96 168.087 271.64 167.865 271.244 167.695C270.847 167.524 270.419 167.375 269.959 167.247L268.348 166.787C267.325 166.493 266.516 166.073 265.919 165.528C265.323 164.982 265.024 164.268 265.024 163.386C265.024 162.653 265.222 162.014 265.619 161.469C266.019 160.919 266.556 160.493 267.229 160.19C267.907 159.884 268.663 159.73 269.499 159.73C270.342 159.73 271.092 159.881 271.749 160.184C272.405 160.482 272.925 160.891 273.308 161.411C273.696 161.931 273.901 162.521 273.922 163.182H272.388ZM278.727 173L275.736 163.182H277.321L279.443 170.699H279.545L281.642 163.182H283.253L285.324 170.673H285.426L287.548 163.182H289.133L286.142 173H284.659L282.511 165.457H282.358L280.21 173H278.727ZM294.017 173.23C293.395 173.23 292.83 173.113 292.323 172.879C291.816 172.64 291.413 172.297 291.115 171.849C290.817 171.398 290.668 170.852 290.668 170.213C290.668 169.651 290.778 169.195 291 168.845C291.222 168.491 291.518 168.214 291.888 168.014C292.259 167.814 292.668 167.665 293.116 167.567C293.567 167.464 294.021 167.384 294.477 167.324C295.074 167.247 295.557 167.19 295.928 167.151C296.303 167.109 296.576 167.038 296.746 166.94C296.921 166.842 297.008 166.672 297.008 166.429V166.378C297.008 165.747 296.836 165.257 296.491 164.908C296.15 164.558 295.632 164.384 294.937 164.384C294.217 164.384 293.653 164.541 293.244 164.857C292.834 165.172 292.547 165.509 292.381 165.866L290.949 165.355C291.204 164.759 291.545 164.294 291.972 163.962C292.402 163.625 292.871 163.391 293.378 163.259C293.889 163.122 294.392 163.054 294.886 163.054C295.202 163.054 295.564 163.092 295.973 163.169C296.386 163.241 296.785 163.393 297.168 163.623C297.556 163.853 297.878 164.2 298.133 164.665C298.389 165.129 298.517 165.751 298.517 166.531V173H297.008V171.67H296.932C296.829 171.884 296.659 172.112 296.42 172.354C296.182 172.597 295.864 172.804 295.468 172.974C295.072 173.145 294.588 173.23 294.017 173.23ZM294.247 171.875C294.844 171.875 295.347 171.758 295.756 171.523C296.169 171.289 296.48 170.987 296.689 170.616C296.902 170.245 297.008 169.855 297.008 169.446V168.065C296.945 168.142 296.804 168.212 296.587 168.276C296.373 168.336 296.126 168.389 295.845 168.436C295.568 168.479 295.297 168.517 295.033 168.551C294.773 168.581 294.562 168.607 294.4 168.628C294.008 168.679 293.642 168.762 293.301 168.877C292.964 168.988 292.692 169.156 292.483 169.382C292.278 169.604 292.176 169.906 292.176 170.29C292.176 170.814 292.37 171.21 292.758 171.479C293.15 171.743 293.646 171.875 294.247 171.875ZM301.27 176.682V163.182H302.728V164.741H302.907C303.017 164.571 303.171 164.354 303.367 164.089C303.567 163.821 303.853 163.582 304.223 163.374C304.598 163.161 305.106 163.054 305.745 163.054C306.571 163.054 307.3 163.261 307.931 163.674C308.562 164.087 309.054 164.673 309.407 165.432C309.761 166.19 309.938 167.085 309.938 168.116C309.938 169.156 309.761 170.058 309.407 170.82C309.054 171.579 308.564 172.167 307.937 172.585C307.311 172.998 306.589 173.205 305.77 173.205C305.14 173.205 304.635 173.1 304.255 172.891C303.876 172.678 303.584 172.437 303.38 172.169C303.175 171.896 303.017 171.67 302.907 171.491H302.779V176.682H301.27ZM302.753 168.091C302.753 168.832 302.862 169.487 303.079 170.053C303.297 170.616 303.614 171.057 304.032 171.376C304.449 171.692 304.961 171.849 305.566 171.849C306.196 171.849 306.723 171.683 307.145 171.351C307.571 171.014 307.89 170.562 308.103 169.996C308.321 169.425 308.429 168.79 308.429 168.091C308.429 167.401 308.323 166.778 308.11 166.224C307.901 165.666 307.584 165.225 307.157 164.901C306.736 164.573 306.205 164.409 305.566 164.409C304.952 164.409 304.437 164.565 304.019 164.876C303.601 165.183 303.286 165.613 303.073 166.167C302.86 166.717 302.753 167.358 302.753 168.091ZM319.194 165.381L317.839 165.764C317.753 165.538 317.628 165.319 317.461 165.106C317.299 164.888 317.078 164.71 316.797 164.569C316.515 164.428 316.155 164.358 315.716 164.358C315.116 164.358 314.615 164.496 314.214 164.773C313.818 165.046 313.62 165.393 313.62 165.815C313.62 166.19 313.756 166.487 314.029 166.704C314.302 166.921 314.728 167.102 315.307 167.247L316.765 167.605C317.642 167.818 318.297 168.144 318.727 168.583C319.157 169.018 319.373 169.578 319.373 170.264C319.373 170.827 319.211 171.33 318.887 171.773C318.567 172.216 318.12 172.565 317.544 172.821C316.969 173.077 316.3 173.205 315.537 173.205C314.536 173.205 313.707 172.987 313.051 172.553C312.395 172.118 311.979 171.483 311.804 170.648L313.236 170.29C313.373 170.818 313.63 171.214 314.01 171.479C314.393 171.743 314.894 171.875 315.512 171.875C316.215 171.875 316.773 171.726 317.187 171.428C317.604 171.125 317.813 170.763 317.813 170.341C317.813 170 317.694 169.714 317.455 169.484C317.216 169.25 316.85 169.075 316.356 168.96L314.719 168.577C313.82 168.364 313.16 168.033 312.738 167.586C312.32 167.134 312.111 166.57 312.111 165.892C312.111 165.338 312.267 164.848 312.578 164.422C312.893 163.996 313.321 163.661 313.863 163.418C314.408 163.175 315.026 163.054 315.716 163.054C316.688 163.054 317.451 163.267 318.005 163.693C318.563 164.119 318.959 164.682 319.194 165.381ZM339.03 155.69V177.219H337.751V155.69H339.03ZM368.614 159.909V173H366.223L360.528 164.761H360.432V173H357.664V159.909H360.093L365.744 168.142H365.859V159.909H368.614ZM375.285 173.192C374.293 173.192 373.434 172.981 372.709 172.559C371.989 172.133 371.433 171.54 371.041 170.782C370.649 170.019 370.453 169.135 370.453 168.129C370.453 167.115 370.649 166.229 371.041 165.47C371.433 164.707 371.989 164.115 372.709 163.693C373.434 163.267 374.293 163.054 375.285 163.054C376.278 163.054 377.135 163.267 377.855 163.693C378.579 164.115 379.138 164.707 379.53 165.47C379.922 166.229 380.118 167.115 380.118 168.129C380.118 169.135 379.922 170.019 379.53 170.782C379.138 171.54 378.579 172.133 377.855 172.559C377.135 172.981 376.278 173.192 375.285 173.192ZM375.298 171.082C375.75 171.082 376.127 170.955 376.43 170.699C376.732 170.439 376.96 170.085 377.114 169.638C377.271 169.19 377.35 168.681 377.35 168.11C377.35 167.539 377.271 167.03 377.114 166.582C376.96 166.135 376.732 165.781 376.43 165.521C376.127 165.261 375.75 165.131 375.298 165.131C374.842 165.131 374.459 165.261 374.148 165.521C373.841 165.781 373.609 166.135 373.451 166.582C373.297 167.03 373.221 167.539 373.221 168.11C373.221 168.681 373.297 169.19 373.451 169.638C373.609 170.085 373.841 170.439 374.148 170.699C374.459 170.955 374.842 171.082 375.298 171.082ZM386.734 161.315V159.909H396.552V161.315H392.435V173H390.85V161.315H386.734ZM398.794 173V163.182H400.302V173H398.794ZM399.561 161.545C399.267 161.545 399.013 161.445 398.8 161.245C398.591 161.045 398.487 160.804 398.487 160.523C398.487 160.241 398.591 160.001 398.8 159.8C399.013 159.6 399.267 159.5 399.561 159.5C399.855 159.5 400.106 159.6 400.315 159.8C400.528 160.001 400.635 160.241 400.635 160.523C400.635 160.804 400.528 161.045 400.315 161.245C400.106 161.445 399.855 161.545 399.561 161.545ZM403.065 173V163.182H404.523V164.716H404.65C404.855 164.192 405.185 163.785 405.641 163.495C406.097 163.201 406.645 163.054 407.284 163.054C407.932 163.054 408.471 163.201 408.901 163.495C409.336 163.785 409.675 164.192 409.918 164.716H410.02C410.271 164.209 410.648 163.806 411.151 163.508C411.654 163.205 412.257 163.054 412.96 163.054C413.838 163.054 414.556 163.329 415.114 163.879C415.672 164.424 415.952 165.274 415.952 166.429V173H414.443V166.429C414.443 165.705 414.245 165.187 413.849 164.876C413.452 164.565 412.986 164.409 412.449 164.409C411.758 164.409 411.224 164.618 410.844 165.036C410.465 165.449 410.275 165.973 410.275 166.608V173H408.741V166.276C408.741 165.717 408.56 165.268 408.198 164.927C407.836 164.582 407.369 164.409 406.798 164.409C406.406 164.409 406.04 164.513 405.699 164.722C405.362 164.931 405.089 165.221 404.881 165.592C404.676 165.958 404.574 166.382 404.574 166.864V173H403.065ZM422.826 173.205C421.88 173.205 421.064 172.996 420.378 172.578C419.696 172.156 419.17 171.568 418.799 170.814C418.433 170.055 418.25 169.173 418.25 168.168C418.25 167.162 418.433 166.276 418.799 165.509C419.17 164.737 419.686 164.136 420.346 163.706C421.011 163.271 421.786 163.054 422.673 163.054C423.184 163.054 423.689 163.139 424.188 163.31C424.686 163.48 425.14 163.757 425.549 164.141C425.958 164.52 426.284 165.023 426.527 165.649C426.77 166.276 426.892 167.047 426.892 167.963V168.602H419.323V167.298H425.358C425.358 166.744 425.247 166.25 425.025 165.815C424.808 165.381 424.497 165.038 424.092 164.786C423.691 164.535 423.218 164.409 422.673 164.409C422.072 164.409 421.552 164.558 421.113 164.857C420.679 165.151 420.344 165.534 420.11 166.007C419.875 166.48 419.758 166.987 419.758 167.528V168.398C419.758 169.139 419.886 169.768 420.142 170.283C420.402 170.795 420.762 171.185 421.222 171.453C421.682 171.717 422.217 171.849 422.826 171.849C423.223 171.849 423.581 171.794 423.9 171.683C424.224 171.568 424.503 171.398 424.737 171.172C424.972 170.942 425.153 170.656 425.281 170.315L426.738 170.724C426.585 171.219 426.327 171.653 425.965 172.028C425.603 172.399 425.155 172.689 424.622 172.898C424.09 173.102 423.491 173.205 422.826 173.205ZM434.453 173V159.909H436.039V171.594H442.124V173H434.453ZM444.374 173V163.182H445.882V173H444.374ZM445.141 161.545C444.847 161.545 444.593 161.445 444.38 161.245C444.171 161.045 444.067 160.804 444.067 160.523C444.067 160.241 444.171 160.001 444.38 159.8C444.593 159.6 444.847 159.5 445.141 159.5C445.435 159.5 445.686 159.6 445.895 159.8C446.108 160.001 446.215 160.241 446.215 160.523C446.215 160.804 446.108 161.045 445.895 161.245C445.686 161.445 445.435 161.545 445.141 161.545ZM448.645 173V163.182H450.103V164.716H450.231C450.435 164.192 450.765 163.785 451.221 163.495C451.677 163.201 452.225 163.054 452.864 163.054C453.512 163.054 454.051 163.201 454.481 163.495C454.916 163.785 455.255 164.192 455.498 164.716H455.6C455.851 164.209 456.228 163.806 456.731 163.508C457.234 163.205 457.837 163.054 458.54 163.054C459.418 163.054 460.136 163.329 460.694 163.879C461.253 164.424 461.532 165.274 461.532 166.429V173H460.023V166.429C460.023 165.705 459.825 165.187 459.429 164.876C459.032 164.565 458.566 164.409 458.029 164.409C457.339 164.409 456.804 164.618 456.424 165.036C456.045 165.449 455.856 165.973 455.856 166.608V173H454.321V166.276C454.321 165.717 454.14 165.268 453.778 164.927C453.416 164.582 452.949 164.409 452.378 164.409C451.986 164.409 451.62 164.513 451.279 164.722C450.942 164.931 450.669 165.221 450.461 165.592C450.256 165.958 450.154 166.382 450.154 166.864V173H448.645ZM464.29 173V163.182H465.798V173H464.29ZM465.057 161.545C464.763 161.545 464.509 161.445 464.296 161.245C464.087 161.045 463.983 160.804 463.983 160.523C463.983 160.241 464.087 160.001 464.296 159.8C464.509 159.6 464.763 159.5 465.057 159.5C465.351 159.5 465.602 159.6 465.811 159.8C466.024 160.001 466.131 160.241 466.131 160.523C466.131 160.804 466.024 161.045 465.811 161.245C465.602 161.445 465.351 161.545 465.057 161.545ZM472.831 163.182V164.46H467.743V163.182H472.831ZM469.226 160.83H470.735V170.188C470.735 170.614 470.796 170.933 470.92 171.146C471.048 171.355 471.21 171.496 471.406 171.568C471.606 171.636 471.817 171.67 472.039 171.67C472.205 171.67 472.341 171.662 472.448 171.645C472.554 171.624 472.639 171.607 472.703 171.594L473.01 172.949C472.908 172.987 472.765 173.026 472.582 173.064C472.399 173.107 472.166 173.128 471.885 173.128C471.459 173.128 471.041 173.036 470.632 172.853C470.228 172.67 469.891 172.391 469.622 172.016C469.358 171.641 469.226 171.168 469.226 170.597V160.83ZM492.487 155.69V177.219H491.208V155.69H492.487ZM522.071 159.909V173H519.68L513.985 164.761H513.889V173H511.121V159.909H513.55L519.201 168.142H519.316V159.909H522.071ZM528.742 173.192C527.75 173.192 526.891 172.981 526.166 172.559C525.446 172.133 524.89 171.54 524.498 170.782C524.106 170.019 523.91 169.135 523.91 168.129C523.91 167.115 524.106 166.229 524.498 165.47C524.89 164.707 525.446 164.115 526.166 163.693C526.891 163.267 527.75 163.054 528.742 163.054C529.735 163.054 530.592 163.267 531.312 163.693C532.036 164.115 532.595 164.707 532.987 165.47C533.379 166.229 533.575 167.115 533.575 168.129C533.575 169.135 533.379 170.019 532.987 170.782C532.595 171.54 532.036 172.133 531.312 172.559C530.592 172.981 529.735 173.192 528.742 173.192ZM528.755 171.082C529.207 171.082 529.584 170.955 529.887 170.699C530.189 170.439 530.417 170.085 530.571 169.638C530.728 169.19 530.807 168.681 530.807 168.11C530.807 167.539 530.728 167.03 530.571 166.582C530.417 166.135 530.189 165.781 529.887 165.521C529.584 165.261 529.207 165.131 528.755 165.131C528.299 165.131 527.916 165.261 527.605 165.521C527.298 165.781 527.066 166.135 526.908 166.582C526.755 167.03 526.678 167.539 526.678 168.11C526.678 168.681 526.755 169.19 526.908 169.638C527.066 170.085 527.298 170.439 527.605 170.699C527.916 170.955 528.299 171.082 528.755 171.082ZM551.441 164H549.855C549.762 163.544 549.598 163.143 549.363 162.798C549.133 162.453 548.852 162.163 548.519 161.929C548.191 161.69 547.827 161.511 547.426 161.392C547.026 161.273 546.608 161.213 546.174 161.213C545.381 161.213 544.663 161.413 544.019 161.814C543.38 162.214 542.871 162.805 542.492 163.585C542.117 164.364 541.929 165.321 541.929 166.455C541.929 167.588 542.117 168.545 542.492 169.325C542.871 170.104 543.38 170.695 544.019 171.095C544.663 171.496 545.381 171.696 546.174 171.696C546.608 171.696 547.026 171.636 547.426 171.517C547.827 171.398 548.191 171.221 548.519 170.987C548.852 170.748 549.133 170.456 549.363 170.111C549.598 169.761 549.762 169.361 549.855 168.909H551.441C551.321 169.578 551.104 170.177 550.789 170.705C550.473 171.234 550.081 171.683 549.612 172.054C549.144 172.42 548.617 172.7 548.034 172.891C547.454 173.083 546.834 173.179 546.174 173.179C545.057 173.179 544.064 172.906 543.195 172.361C542.326 171.815 541.642 171.04 541.143 170.034C540.644 169.028 540.395 167.835 540.395 166.455C540.395 165.074 540.644 163.881 541.143 162.875C541.642 161.869 542.326 161.094 543.195 160.548C544.064 160.003 545.057 159.73 546.174 159.73C546.834 159.73 547.454 159.826 548.034 160.018C548.617 160.21 549.144 160.491 549.612 160.862C550.081 161.228 550.473 161.675 550.789 162.204C551.104 162.728 551.321 163.327 551.441 164ZM557.786 173.205C556.9 173.205 556.122 172.994 555.453 172.572C554.788 172.15 554.269 171.56 553.894 170.801C553.523 170.043 553.337 169.156 553.337 168.142C553.337 167.119 553.523 166.227 553.894 165.464C554.269 164.701 554.788 164.109 555.453 163.687C556.122 163.265 556.9 163.054 557.786 163.054C558.673 163.054 559.448 163.265 560.113 163.687C560.782 164.109 561.302 164.701 561.673 165.464C562.048 166.227 562.235 167.119 562.235 168.142C562.235 169.156 562.048 170.043 561.673 170.801C561.302 171.56 560.782 172.15 560.113 172.572C559.448 172.994 558.673 173.205 557.786 173.205ZM557.786 171.849C558.46 171.849 559.014 171.677 559.448 171.332C559.883 170.987 560.205 170.533 560.413 169.97C560.622 169.408 560.727 168.798 560.727 168.142C560.727 167.486 560.622 166.874 560.413 166.308C560.205 165.741 559.883 165.283 559.448 164.933C559.014 164.584 558.46 164.409 557.786 164.409C557.113 164.409 556.559 164.584 556.124 164.933C555.69 165.283 555.368 165.741 555.159 166.308C554.95 166.874 554.846 167.486 554.846 168.142C554.846 168.798 554.95 169.408 555.159 169.97C555.368 170.533 555.69 170.987 556.124 171.332C556.559 171.677 557.113 171.849 557.786 171.849ZM564.538 173V163.182H565.995V164.716H566.123C566.328 164.192 566.658 163.785 567.114 163.495C567.57 163.201 568.117 163.054 568.757 163.054C569.404 163.054 569.943 163.201 570.374 163.495C570.809 163.785 571.147 164.192 571.39 164.716H571.492C571.744 164.209 572.121 163.806 572.624 163.508C573.127 163.205 573.73 163.054 574.433 163.054C575.311 163.054 576.029 163.329 576.587 163.879C577.145 164.424 577.424 165.274 577.424 166.429V173H575.916V166.429C575.916 165.705 575.718 165.187 575.321 164.876C574.925 164.565 574.458 164.409 573.921 164.409C573.231 164.409 572.696 164.618 572.317 165.036C571.938 165.449 571.748 165.973 571.748 166.608V173H570.214V166.276C570.214 165.717 570.033 165.268 569.671 164.927C569.309 164.582 568.842 164.409 568.271 164.409C567.879 164.409 567.512 164.513 567.171 164.722C566.835 164.931 566.562 165.221 566.353 165.592C566.149 165.958 566.046 166.382 566.046 166.864V173H564.538ZM580.182 173V163.182H581.691V173H580.182ZM580.949 161.545C580.655 161.545 580.402 161.445 580.189 161.245C579.98 161.045 579.876 160.804 579.876 160.523C579.876 160.241 579.98 160.001 580.189 159.8C580.402 159.6 580.655 159.5 580.949 159.5C581.244 159.5 581.495 159.6 581.704 159.8C581.917 160.001 582.023 160.241 582.023 160.523C582.023 160.804 581.917 161.045 581.704 161.245C581.495 161.445 581.244 161.545 580.949 161.545ZM591.408 165.381L590.053 165.764C589.968 165.538 589.842 165.319 589.676 165.106C589.514 164.888 589.293 164.71 589.011 164.569C588.73 164.428 588.37 164.358 587.931 164.358C587.33 164.358 586.83 164.496 586.429 164.773C586.033 165.046 585.835 165.393 585.835 165.815C585.835 166.19 585.971 166.487 586.244 166.704C586.516 166.921 586.943 167.102 587.522 167.247L588.979 167.605C589.857 167.818 590.511 168.144 590.942 168.583C591.372 169.018 591.587 169.578 591.587 170.264C591.587 170.827 591.426 171.33 591.102 171.773C590.782 172.216 590.335 172.565 589.759 172.821C589.184 173.077 588.515 173.205 587.752 173.205C586.751 173.205 585.922 172.987 585.266 172.553C584.609 172.118 584.194 171.483 584.019 170.648L585.451 170.29C585.587 170.818 585.845 171.214 586.225 171.479C586.608 171.743 587.109 171.875 587.727 171.875C588.43 171.875 588.988 171.726 589.401 171.428C589.819 171.125 590.028 170.763 590.028 170.341C590.028 170 589.908 169.714 589.67 169.484C589.431 169.25 589.065 169.075 588.57 168.96L586.934 168.577C586.035 168.364 585.374 168.033 584.953 167.586C584.535 167.134 584.326 166.57 584.326 165.892C584.326 165.338 584.482 164.848 584.793 164.422C585.108 163.996 585.536 163.661 586.078 163.418C586.623 163.175 587.241 163.054 587.931 163.054C588.903 163.054 589.666 163.267 590.22 163.693C590.778 164.119 591.174 164.682 591.408 165.381ZM600.813 165.381L599.458 165.764C599.372 165.538 599.247 165.319 599.081 165.106C598.919 164.888 598.697 164.71 598.416 164.569C598.134 164.428 597.774 164.358 597.335 164.358C596.735 164.358 596.234 164.496 595.833 164.773C595.437 165.046 595.239 165.393 595.239 165.815C595.239 166.19 595.375 166.487 595.648 166.704C595.921 166.921 596.347 167.102 596.926 167.247L598.384 167.605C599.262 167.818 599.916 168.144 600.346 168.583C600.777 169.018 600.992 169.578 600.992 170.264C600.992 170.827 600.83 171.33 600.506 171.773C600.186 172.216 599.739 172.565 599.164 172.821C598.588 173.077 597.919 173.205 597.157 173.205C596.155 173.205 595.326 172.987 594.67 172.553C594.014 172.118 593.598 171.483 593.424 170.648L594.855 170.29C594.992 170.818 595.25 171.214 595.629 171.479C596.012 171.743 596.513 171.875 597.131 171.875C597.834 171.875 598.392 171.726 598.806 171.428C599.223 171.125 599.432 170.763 599.432 170.341C599.432 170 599.313 169.714 599.074 169.484C598.835 169.25 598.469 169.075 597.975 168.96L596.338 168.577C595.439 168.364 594.779 168.033 594.357 167.586C593.939 167.134 593.73 166.57 593.73 165.892C593.73 165.338 593.886 164.848 594.197 164.422C594.512 163.996 594.941 163.661 595.482 163.418C596.027 163.175 596.645 163.054 597.335 163.054C598.307 163.054 599.07 163.267 599.624 163.693C600.182 164.119 600.578 164.682 600.813 165.381ZM603.263 173V163.182H604.771V173H603.263ZM604.03 161.545C603.736 161.545 603.482 161.445 603.269 161.245C603.06 161.045 602.956 160.804 602.956 160.523C602.956 160.241 603.06 160.001 603.269 159.8C603.482 159.6 603.736 159.5 604.03 159.5C604.324 159.5 604.575 159.6 604.784 159.8C604.997 160.001 605.103 160.241 605.103 160.523C605.103 160.804 604.997 161.045 604.784 161.245C604.575 161.445 604.324 161.545 604.03 161.545ZM611.523 173.205C610.636 173.205 609.859 172.994 609.19 172.572C608.525 172.15 608.005 171.56 607.63 170.801C607.259 170.043 607.074 169.156 607.074 168.142C607.074 167.119 607.259 166.227 607.63 165.464C608.005 164.701 608.525 164.109 609.19 163.687C609.859 163.265 610.636 163.054 611.523 163.054C612.409 163.054 613.185 163.265 613.849 163.687C614.518 164.109 615.038 164.701 615.409 165.464C615.784 166.227 615.972 167.119 615.972 168.142C615.972 169.156 615.784 170.043 615.409 170.801C615.038 171.56 614.518 172.15 613.849 172.572C613.185 172.994 612.409 173.205 611.523 173.205ZM611.523 171.849C612.196 171.849 612.75 171.677 613.185 171.332C613.619 170.987 613.941 170.533 614.15 169.97C614.359 169.408 614.463 168.798 614.463 168.142C614.463 167.486 614.359 166.874 614.15 166.308C613.941 165.741 613.619 165.283 613.185 164.933C612.75 164.584 612.196 164.409 611.523 164.409C610.849 164.409 610.295 164.584 609.861 164.933C609.426 165.283 609.104 165.741 608.896 166.308C608.687 166.874 608.582 167.486 608.582 168.142C608.582 168.798 608.687 169.408 608.896 169.97C609.104 170.533 609.426 170.987 609.861 171.332C610.295 171.677 610.849 171.849 611.523 171.849ZM619.783 167.094V173H618.274V163.182H619.732V164.716H619.859C620.09 164.217 620.439 163.817 620.908 163.514C621.377 163.207 621.982 163.054 622.723 163.054C623.388 163.054 623.97 163.19 624.468 163.463C624.967 163.732 625.354 164.141 625.631 164.69C625.908 165.236 626.047 165.926 626.047 166.761V173H624.538V166.864C624.538 166.092 624.338 165.491 623.938 165.061C623.537 164.626 622.987 164.409 622.288 164.409C621.807 164.409 621.377 164.513 620.997 164.722C620.622 164.931 620.326 165.236 620.109 165.636C619.891 166.037 619.783 166.523 619.783 167.094ZM635.758 165.381L634.403 165.764C634.318 165.538 634.192 165.319 634.026 165.106C633.864 164.888 633.642 164.71 633.361 164.569C633.08 164.428 632.72 164.358 632.281 164.358C631.68 164.358 631.179 164.496 630.779 164.773C630.382 165.046 630.184 165.393 630.184 165.815C630.184 166.19 630.321 166.487 630.593 166.704C630.866 166.921 631.292 167.102 631.872 167.247L633.329 167.605C634.207 167.818 634.861 168.144 635.291 168.583C635.722 169.018 635.937 169.578 635.937 170.264C635.937 170.827 635.775 171.33 635.451 171.773C635.132 172.216 634.684 172.565 634.109 172.821C633.534 173.077 632.865 173.205 632.102 173.205C631.1 173.205 630.272 172.987 629.615 172.553C628.959 172.118 628.544 171.483 628.369 170.648L629.801 170.29C629.937 170.818 630.195 171.214 630.574 171.479C630.958 171.743 631.458 171.875 632.076 171.875C632.779 171.875 633.338 171.726 633.751 171.428C634.169 171.125 634.377 170.763 634.377 170.341C634.377 170 634.258 169.714 634.019 169.484C633.781 169.25 633.414 169.075 632.92 168.96L631.284 168.577C630.384 168.364 629.724 168.033 629.302 167.586C628.884 167.134 628.676 166.57 628.676 165.892C628.676 165.338 628.831 164.848 629.142 164.422C629.458 163.996 629.886 163.661 630.427 163.418C630.973 163.175 631.59 163.054 632.281 163.054C633.252 163.054 634.015 163.267 634.569 163.693C635.127 164.119 635.524 164.682 635.758 165.381Z" fill="#0B111D"/>
</g>
<rect x="0.5" y="0.5" width="668" height="193" rx="9.5" stroke="url(#paint0_linear_3451_3435)"/>
<defs>
<filter id="filter0_f_3451_3435" x="106" y="41" width="457" height="457" filterUnits="userSpaceOnUse" color-interpolation-filters="sRGB">
<feFlood flood-opacity="0" result="BackgroundImageFix"/>
<feBlend mode="normal" in="SourceGraphic" in2="BackgroundImageFix" result="shape"/>
<feGaussianBlur stdDeviation="50" result="effect1_foregroundBlur_3451_3435"/>
</filter>
<filter id="filter1_f_3451_3435" x="106" y="-366" width="457" height="457" filterUnits="userSpaceOnUse" color-interpolation-filters="sRGB">
<feFlood flood-opacity="0" result="BackgroundImageFix"/>
<feBlend mode="normal" in="SourceGraphic" in2="BackgroundImageFix" result="shape"/>
<feGaussianBlur stdDeviation="50" result="effect1_foregroundBlur_3451_3435"/>
</filter>
<linearGradient id="paint0_linear_3451_3435" x1="-12.5" y1="-14" x2="684" y2="234.5" gradientUnits="userSpaceOnUse">
<stop stop-color="#0052B4"/>
<stop offset="1" stop-color="#45D1FF"/>
</linearGradient>
<clipPath id="clip0_3451_3435">
<rect width="669" height="194" rx="10" fill="white"/>
</clipPath>
</defs>
</svg>
