<svg width="669" height="194" viewBox="0 0 669 194" fill="none" xmlns="http://www.w3.org/2000/svg">
<g clip-path="url(#clip0_3489_1888)">
<rect width="669" height="194" rx="10" fill="#0B111D"/>
<g filter="url(#filter0_f_3489_1888)">
<circle cx="334.5" cy="269.5" r="128.5" fill="#45D1FF" fill-opacity="0.59"/>
</g>
<g filter="url(#filter1_f_3489_1888)">
<circle cx="334.5" cy="-137.5" r="128.5" fill="#45D1FF" fill-opacity="0.59"/>
</g>
<path d="M258.94 33.0023L257.632 34.3153L256.319 35.6238L253.695 38.2498L253.092 38.8509L250.405 41.5379H250.414C251.86 41.5379 253.033 42.7086 253.038 44.1549L253.094 70.1891H264.834L264.855 44.1594C264.855 42.7108 266.03 41.5379 267.478 41.5379L261.569 35.6283L260.256 34.3153L258.94 33V33.0023ZM249.381 45.1877L248.809 45.7594L245.668 48.9007L231.966 62.6025L229.266 65.3031H234.73C236.179 65.3031 237.354 66.4783 237.354 67.9269V70.1868H249.383V45.1854L249.381 45.1877ZM268.522 45.2058V70.2071H280.552V67.9472C280.552 66.4986 281.727 65.3235 283.176 65.3235H288.64L285.94 62.6229L272.238 48.9211L269.097 45.7798L268.525 45.208L268.522 45.2058Z" fill="white"/>
<path d="M304.936 44.101H301.623V70.3882H319.515V67.2989H304.936V44.101Z" fill="white"/>
<path d="M327.245 58.6615H341.378V55.6446H327.245V47.1179H343.044V44.101H323.932V70.3882H343.227V67.3712H327.245V58.6615Z" fill="white"/>
<path d="M358.575 66.0944L349.492 44.101H345.811L357.115 70.5735H359.962L371.264 44.101H367.693L358.575 66.0944Z" fill="white"/>
<path d="M378.6 58.6615H392.734V55.6446H378.6V47.1179H394.399V44.101H375.287V70.3882H394.584V67.3712H378.6V58.6615Z" fill="white"/>
<path d="M402.793 44.101H399.48V70.3882H417.372V67.2989H402.793V44.101Z" fill="white"/>
<path d="M437.782 58.352C436.394 57.2039 434.22 56.2932 431.314 55.6468C429.899 55.3531 428.726 55.0389 427.827 54.7112C426.939 54.3881 426.234 54.0242 425.734 53.631C425.246 53.2468 424.905 52.8265 424.722 52.379C424.534 51.9248 424.439 51.396 424.439 50.8061V50.7315C424.439 49.5993 424.9 48.675 425.847 47.9044C426.794 47.136 428.109 46.7451 429.757 46.7451C431.058 46.7451 432.326 46.9643 433.52 47.3982C434.713 47.8321 435.92 48.544 437.108 49.5112L437.264 49.64L439.203 47.0705L439.054 46.953C437.712 45.884 436.306 45.0727 434.875 44.5371C433.44 44.0015 431.743 43.7303 429.831 43.7303C428.584 43.7303 427.418 43.9134 426.365 44.2772C425.309 44.6411 424.38 45.1518 423.603 45.7914C422.821 46.4355 422.204 47.2106 421.775 48.0942C421.345 48.9801 421.126 49.9541 421.126 50.9914V51.066C421.126 52.1485 421.307 53.109 421.662 53.918C422.019 54.7316 422.573 55.4525 423.312 56.0627C424.041 56.6661 424.977 57.1858 426.093 57.6107C427.196 58.031 428.512 58.4085 429.996 58.7294C431.341 59.0209 432.46 59.3305 433.327 59.6469C434.179 59.9588 434.855 60.309 435.33 60.6887C435.795 61.0616 436.125 61.4774 436.311 61.9249C436.498 62.3791 436.593 62.8966 436.593 63.4594V63.5339C436.593 64.7656 436.103 65.7486 435.095 66.5441C434.087 67.3396 432.715 67.7419 431.016 67.7419C429.316 67.7419 427.671 67.4436 426.322 66.8515C424.966 66.2594 423.601 65.3419 422.267 64.1305L422.118 63.9949L420.053 66.4402L420.193 66.5667C421.757 67.9814 423.427 69.0458 425.153 69.7306C426.882 70.4154 428.817 70.7611 430.905 70.7611C432.2 70.7611 433.416 70.5848 434.516 70.2346C435.621 69.8843 436.579 69.3735 437.366 68.7182C438.155 68.0605 438.781 67.2628 439.23 66.3407C439.68 65.4164 439.908 64.3746 439.908 63.2401V63.1656C439.908 61.1407 439.194 59.5226 437.784 58.3542L437.782 58.352Z" fill="white"/>
<path d="M61.6426 117H57.1539V102.455H61.8414C63.2524 102.455 64.4598 102.746 65.4636 103.328C66.4674 103.906 67.2368 104.737 67.7718 105.821C68.3069 106.901 68.5744 108.193 68.5744 109.699C68.5744 111.214 68.3045 112.518 67.7647 113.612C67.225 114.701 66.439 115.539 65.4068 116.126C64.3746 116.709 63.1199 117 61.6426 117ZM58.9153 115.438H61.5289C62.7316 115.438 63.7283 115.205 64.519 114.741C65.3097 114.277 65.8992 113.617 66.2875 112.76C66.6757 111.903 66.8699 110.883 66.8699 109.699C66.8699 108.525 66.6781 107.514 66.2946 106.666C65.911 105.814 65.3381 105.161 64.5758 104.706C63.8135 104.247 62.8642 104.017 61.7278 104.017H58.9153V115.438ZM71.3017 117V106.091H72.9778V117H71.3017ZM72.1539 104.273C71.8272 104.273 71.5455 104.161 71.3088 103.939C71.0768 103.716 70.9608 103.449 70.9608 103.136C70.9608 102.824 71.0768 102.556 71.3088 102.334C71.5455 102.111 71.8272 102 72.1539 102C72.4806 102 72.76 102.111 72.992 102.334C73.2288 102.556 73.3471 102.824 73.3471 103.136C73.3471 103.449 73.2288 103.716 72.992 103.939C72.76 104.161 72.4806 104.273 72.1539 104.273ZM80.9057 106.091V107.511H75.025V106.091H80.9057ZM76.7864 117V104.585C76.7864 103.96 76.9332 103.439 77.2267 103.023C77.5203 102.606 77.9015 102.294 78.3702 102.085C78.839 101.877 79.3337 101.773 79.8546 101.773C80.2665 101.773 80.6027 101.806 80.8631 101.872C81.1235 101.938 81.3176 102 81.4455 102.057L80.9625 103.506C80.8773 103.477 80.7589 103.442 80.6074 103.399C80.4606 103.357 80.2665 103.335 80.025 103.335C79.4711 103.335 79.071 103.475 78.8248 103.754C78.5833 104.034 78.4625 104.443 78.4625 104.983V117H76.7864ZM87.3794 117.227C86.3283 117.227 85.4216 116.995 84.6593 116.531C83.9017 116.062 83.3169 115.409 82.905 114.571C82.4978 113.728 82.2942 112.748 82.2942 111.631C82.2942 110.513 82.4978 109.528 82.905 108.676C83.3169 107.819 83.8899 107.152 84.6238 106.673C85.3624 106.19 86.2241 105.949 87.209 105.949C87.7772 105.949 88.3382 106.044 88.8922 106.233C89.4462 106.422 89.9505 106.73 90.405 107.156C90.8596 107.578 91.2218 108.136 91.4917 108.832C91.7615 109.528 91.8965 110.385 91.8965 111.403V112.114H83.4874V110.665H90.1919C90.1919 110.049 90.0688 109.5 89.8226 109.017C89.5811 108.534 89.2355 108.153 88.7857 107.874C88.3406 107.594 87.815 107.455 87.209 107.455C86.5414 107.455 85.9637 107.62 85.476 107.952C84.9931 108.278 84.6214 108.705 84.361 109.23C84.1006 109.756 83.9703 110.319 83.9703 110.92V111.886C83.9703 112.71 84.1124 113.409 84.3965 113.982C84.6853 114.55 85.0854 114.983 85.5968 115.281C86.1081 115.575 86.7024 115.722 87.3794 115.722C87.8198 115.722 88.2175 115.66 88.5726 115.537C88.9325 115.409 89.2426 115.22 89.503 114.969C89.7634 114.713 89.9647 114.396 90.1067 114.017L91.726 114.472C91.5556 115.021 91.2691 115.504 90.8667 115.92C90.4642 116.332 89.967 116.654 89.3752 116.886C88.7833 117.114 88.1181 117.227 87.3794 117.227ZM94.4462 117V106.091H96.0655V107.739H96.1792C96.378 107.199 96.7379 106.761 97.2587 106.425C97.7795 106.089 98.3667 105.92 99.0201 105.92C99.1432 105.92 99.2971 105.923 99.4817 105.928C99.6664 105.932 99.806 105.939 99.9007 105.949V107.653C99.8439 107.639 99.7137 107.618 99.5101 107.589C99.3113 107.556 99.1006 107.54 98.878 107.54C98.3477 107.54 97.8742 107.651 97.4576 107.874C97.0456 108.091 96.7189 108.394 96.4775 108.783C96.2407 109.166 96.1223 109.604 96.1223 110.097V117H94.4462ZM106.129 117.227C105.078 117.227 104.172 116.995 103.409 116.531C102.652 116.062 102.067 115.409 101.655 114.571C101.248 113.728 101.044 112.748 101.044 111.631C101.044 110.513 101.248 109.528 101.655 108.676C102.067 107.819 102.64 107.152 103.374 106.673C104.112 106.19 104.974 105.949 105.959 105.949C106.527 105.949 107.088 106.044 107.642 106.233C108.196 106.422 108.7 106.73 109.155 107.156C109.61 107.578 109.972 108.136 110.242 108.832C110.512 109.528 110.646 110.385 110.646 111.403V112.114H102.237V110.665H108.942C108.942 110.049 108.819 109.5 108.573 109.017C108.331 108.534 107.985 108.153 107.536 107.874C107.091 107.594 106.565 107.455 105.959 107.455C105.291 107.455 104.714 107.62 104.226 107.952C103.743 108.278 103.371 108.705 103.111 109.23C102.851 109.756 102.72 110.319 102.72 110.92V111.886C102.72 112.71 102.862 113.409 103.146 113.982C103.435 114.55 103.835 114.983 104.347 115.281C104.858 115.575 105.452 115.722 106.129 115.722C106.57 115.722 106.968 115.66 107.323 115.537C107.682 115.409 107.993 115.22 108.253 114.969C108.513 114.713 108.715 114.396 108.857 114.017L110.476 114.472C110.306 115.021 110.019 115.504 109.617 115.92C109.214 116.332 108.717 116.654 108.125 116.886C107.533 117.114 106.868 117.227 106.129 117.227ZM114.872 110.438V117H113.196V106.091H114.816V107.795H114.958C115.213 107.241 115.602 106.796 116.122 106.46C116.643 106.119 117.316 105.949 118.139 105.949C118.878 105.949 119.524 106.1 120.078 106.403C120.632 106.702 121.063 107.156 121.371 107.767C121.679 108.373 121.833 109.14 121.833 110.068V117H120.156V110.182C120.156 109.325 119.934 108.657 119.489 108.179C119.044 107.696 118.433 107.455 117.656 107.455C117.121 107.455 116.643 107.571 116.222 107.803C115.805 108.035 115.476 108.373 115.235 108.818C114.993 109.263 114.872 109.803 114.872 110.438ZM129.64 106.091V107.511H123.986V106.091H129.64ZM125.634 103.477H127.31V113.875C127.31 114.348 127.379 114.704 127.516 114.94C127.658 115.172 127.838 115.329 128.056 115.409C128.278 115.485 128.513 115.523 128.759 115.523C128.944 115.523 129.095 115.513 129.214 115.494C129.332 115.471 129.427 115.452 129.498 115.438L129.839 116.943C129.725 116.986 129.566 117.028 129.363 117.071C129.159 117.118 128.901 117.142 128.589 117.142C128.115 117.142 127.651 117.04 127.197 116.837C126.747 116.633 126.373 116.323 126.074 115.906C125.781 115.49 125.634 114.964 125.634 114.33V103.477ZM136.618 117.227C135.567 117.227 134.66 116.995 133.898 116.531C133.14 116.062 132.555 115.409 132.143 114.571C131.736 113.728 131.532 112.748 131.532 111.631C131.532 110.513 131.736 109.528 132.143 108.676C132.555 107.819 133.128 107.152 133.862 106.673C134.601 106.19 135.462 105.949 136.447 105.949C137.015 105.949 137.577 106.044 138.131 106.233C138.684 106.422 139.189 106.73 139.643 107.156C140.098 107.578 140.46 108.136 140.73 108.832C141 109.528 141.135 110.385 141.135 111.403V112.114H132.726V110.665H139.43C139.43 110.049 139.307 109.5 139.061 109.017C138.819 108.534 138.474 108.153 138.024 107.874C137.579 107.594 137.053 107.455 136.447 107.455C135.78 107.455 135.202 107.62 134.714 107.952C134.231 108.278 133.86 108.705 133.599 109.23C133.339 109.756 133.209 110.319 133.209 110.92V111.886C133.209 112.71 133.351 113.409 133.635 113.982C133.924 114.55 134.324 114.983 134.835 115.281C135.346 115.575 135.941 115.722 136.618 115.722C137.058 115.722 137.456 115.66 137.811 115.537C138.171 115.409 138.481 115.22 138.741 114.969C139.002 114.713 139.203 114.396 139.345 114.017L140.964 114.472C140.794 115.021 140.507 115.504 140.105 115.92C139.702 116.332 139.205 116.654 138.613 116.886C138.022 117.114 137.356 117.227 136.618 117.227ZM152.52 117.256C151.828 117.256 151.201 117.125 150.638 116.865C150.074 116.6 149.627 116.219 149.295 115.722C148.964 115.22 148.798 114.614 148.798 113.903C148.798 113.278 148.921 112.772 149.167 112.384C149.414 111.991 149.743 111.683 150.155 111.46C150.567 111.238 151.021 111.072 151.518 110.963C152.02 110.849 152.524 110.759 153.031 110.693C153.694 110.608 154.231 110.544 154.643 110.501C155.06 110.454 155.363 110.376 155.552 110.267C155.747 110.158 155.844 109.969 155.844 109.699V109.642C155.844 108.941 155.652 108.397 155.268 108.009C154.89 107.62 154.314 107.426 153.542 107.426C152.742 107.426 152.115 107.601 151.66 107.952C151.206 108.302 150.886 108.676 150.702 109.074L149.111 108.506C149.395 107.843 149.773 107.327 150.247 106.957C150.725 106.583 151.246 106.323 151.809 106.176C152.378 106.025 152.936 105.949 153.486 105.949C153.836 105.949 154.238 105.991 154.693 106.077C155.152 106.157 155.595 106.325 156.021 106.581C156.452 106.837 156.809 107.223 157.094 107.739C157.378 108.255 157.52 108.946 157.52 109.812V117H155.844V115.523H155.758C155.645 115.759 155.455 116.013 155.19 116.283C154.925 116.553 154.572 116.782 154.132 116.972C153.692 117.161 153.154 117.256 152.52 117.256ZM152.775 115.75C153.438 115.75 153.997 115.62 154.452 115.359C154.911 115.099 155.256 114.763 155.488 114.351C155.725 113.939 155.844 113.506 155.844 113.051V111.517C155.773 111.602 155.616 111.68 155.375 111.751C155.138 111.818 154.863 111.877 154.551 111.929C154.243 111.976 153.943 112.019 153.649 112.057C153.36 112.09 153.126 112.118 152.946 112.142C152.51 112.199 152.103 112.291 151.724 112.419C151.35 112.542 151.047 112.729 150.815 112.98C150.588 113.226 150.474 113.562 150.474 113.989C150.474 114.571 150.69 115.011 151.121 115.31C151.556 115.603 152.108 115.75 152.775 115.75ZM165.636 104.017V102.455H176.545V104.017H171.971V117H170.21V104.017H165.636ZM181.886 117.227C180.901 117.227 180.037 116.993 179.294 116.524C178.555 116.055 177.977 115.4 177.561 114.557C177.149 113.714 176.943 112.729 176.943 111.602C176.943 110.466 177.149 109.474 177.561 108.626C177.977 107.779 178.555 107.121 179.294 106.652C180.037 106.183 180.901 105.949 181.886 105.949C182.871 105.949 183.732 106.183 184.471 106.652C185.214 107.121 185.792 107.779 186.204 108.626C186.621 109.474 186.829 110.466 186.829 111.602C186.829 112.729 186.621 113.714 186.204 114.557C185.792 115.4 185.214 116.055 184.471 116.524C183.732 116.993 182.871 117.227 181.886 117.227ZM181.886 115.722C182.634 115.722 183.249 115.53 183.732 115.146C184.215 114.763 184.573 114.259 184.805 113.634C185.037 113.009 185.153 112.331 185.153 111.602C185.153 110.873 185.037 110.194 184.805 109.564C184.573 108.934 184.215 108.425 183.732 108.037C183.249 107.649 182.634 107.455 181.886 107.455C181.138 107.455 180.522 107.649 180.039 108.037C179.556 108.425 179.199 108.934 178.967 109.564C178.735 110.194 178.619 110.873 178.619 111.602C178.619 112.331 178.735 113.009 178.967 113.634C179.199 114.259 179.556 114.763 180.039 115.146C180.522 115.53 181.138 115.722 181.886 115.722ZM193.507 117.227C192.598 117.227 191.795 116.998 191.099 116.538C190.403 116.074 189.859 115.421 189.466 114.578C189.073 113.731 188.876 112.729 188.876 111.574C188.876 110.428 189.073 109.434 189.466 108.591C189.859 107.748 190.406 107.097 191.106 106.638C191.807 106.179 192.617 105.949 193.535 105.949C194.246 105.949 194.807 106.067 195.219 106.304C195.635 106.536 195.952 106.801 196.17 107.099C196.393 107.393 196.566 107.634 196.689 107.824H196.831V102.455H198.507V117H196.888V115.324H196.689C196.566 115.523 196.39 115.774 196.163 116.077C195.936 116.375 195.612 116.643 195.19 116.879C194.769 117.111 194.208 117.227 193.507 117.227ZM193.734 115.722C194.407 115.722 194.975 115.546 195.439 115.196C195.903 114.841 196.256 114.351 196.497 113.726C196.738 113.096 196.859 112.369 196.859 111.545C196.859 110.731 196.741 110.018 196.504 109.408C196.267 108.792 195.917 108.314 195.453 107.973C194.989 107.627 194.416 107.455 193.734 107.455C193.024 107.455 192.432 107.637 191.959 108.001C191.49 108.361 191.137 108.851 190.9 109.472C190.668 110.087 190.552 110.778 190.552 111.545C190.552 112.322 190.671 113.027 190.907 113.662C191.149 114.292 191.504 114.794 191.973 115.168C192.446 115.537 193.033 115.722 193.734 115.722ZM206.241 117.227C205.256 117.227 204.392 116.993 203.649 116.524C202.91 116.055 202.333 115.4 201.916 114.557C201.504 113.714 201.298 112.729 201.298 111.602C201.298 110.466 201.504 109.474 201.916 108.626C202.333 107.779 202.91 107.121 203.649 106.652C204.392 106.183 205.256 105.949 206.241 105.949C207.226 105.949 208.088 106.183 208.827 106.652C209.57 107.121 210.148 107.779 210.559 108.626C210.976 109.474 211.184 110.466 211.184 111.602C211.184 112.729 210.976 113.714 210.559 114.557C210.148 115.4 209.57 116.055 208.827 116.524C208.088 116.993 207.226 117.227 206.241 117.227ZM206.241 115.722C206.989 115.722 207.605 115.53 208.088 115.146C208.571 114.763 208.928 114.259 209.16 113.634C209.392 113.009 209.508 112.331 209.508 111.602C209.508 110.873 209.392 110.194 209.16 109.564C208.928 108.934 208.571 108.425 208.088 108.037C207.605 107.649 206.989 107.455 206.241 107.455C205.493 107.455 204.878 107.649 204.395 108.037C203.912 108.425 203.554 108.934 203.322 109.564C203.09 110.194 202.974 110.873 202.974 111.602C202.974 112.331 203.09 113.009 203.322 113.634C203.554 114.259 203.912 114.763 204.395 115.146C204.878 115.53 205.493 115.722 206.241 115.722ZM221.044 102.455V117H219.368V102.455H221.044ZM228.546 117.227C227.561 117.227 226.697 116.993 225.954 116.524C225.215 116.055 224.637 115.4 224.221 114.557C223.809 113.714 223.603 112.729 223.603 111.602C223.603 110.466 223.809 109.474 224.221 108.626C224.637 107.779 225.215 107.121 225.954 106.652C226.697 106.183 227.561 105.949 228.546 105.949C229.531 105.949 230.393 106.183 231.131 106.652C231.875 107.121 232.452 107.779 232.864 108.626C233.281 109.474 233.489 110.466 233.489 111.602C233.489 112.729 233.281 113.714 232.864 114.557C232.452 115.4 231.875 116.055 231.131 116.524C230.393 116.993 229.531 117.227 228.546 117.227ZM228.546 115.722C229.294 115.722 229.91 115.53 230.393 115.146C230.876 114.763 231.233 114.259 231.465 113.634C231.697 113.009 231.813 112.331 231.813 111.602C231.813 110.873 231.697 110.194 231.465 109.564C231.233 108.934 230.876 108.425 230.393 108.037C229.91 107.649 229.294 107.455 228.546 107.455C227.798 107.455 227.182 107.649 226.699 108.037C226.216 108.425 225.859 108.934 225.627 109.564C225.395 110.194 225.279 110.873 225.279 111.602C225.279 112.331 225.395 113.009 225.627 113.634C225.859 114.259 226.216 114.763 226.699 115.146C227.182 115.53 227.798 115.722 228.546 115.722ZM249.116 121.091V115.324H248.974C248.851 115.523 248.676 115.774 248.448 116.077C248.221 116.375 247.897 116.643 247.475 116.879C247.054 117.111 246.493 117.227 245.792 117.227C244.883 117.227 244.08 116.998 243.384 116.538C242.688 116.074 242.144 115.421 241.751 114.578C241.358 113.731 241.161 112.729 241.161 111.574C241.161 110.428 241.358 109.434 241.751 108.591C242.144 107.748 242.691 107.097 243.392 106.638C244.092 106.179 244.902 105.949 245.82 105.949C246.531 105.949 247.092 106.067 247.504 106.304C247.92 106.536 248.238 106.801 248.455 107.099C248.678 107.393 248.851 107.634 248.974 107.824H249.173V106.091H250.792V121.091H249.116ZM246.019 115.722C246.692 115.722 247.26 115.546 247.724 115.196C248.188 114.841 248.541 114.351 248.782 113.726C249.024 113.096 249.144 112.369 249.144 111.545C249.144 110.731 249.026 110.018 248.789 109.408C248.552 108.792 248.202 108.314 247.738 107.973C247.274 107.627 246.701 107.455 246.019 107.455C245.309 107.455 244.717 107.637 244.244 108.001C243.775 108.361 243.422 108.851 243.186 109.472C242.954 110.087 242.838 110.778 242.838 111.545C242.838 112.322 242.956 113.027 243.193 113.662C243.434 114.292 243.789 114.794 244.258 115.168C244.731 115.537 245.319 115.722 246.019 115.722ZM260.735 112.54V106.091H262.411V117H260.735V115.153H260.622C260.366 115.707 259.968 116.179 259.428 116.567C258.889 116.95 258.207 117.142 257.383 117.142C256.701 117.142 256.095 116.993 255.565 116.695C255.035 116.392 254.618 115.937 254.315 115.331C254.012 114.72 253.86 113.951 253.86 113.023V106.091H255.536V112.909C255.536 113.705 255.759 114.339 256.204 114.812C256.654 115.286 257.227 115.523 257.923 115.523C258.339 115.523 258.763 115.416 259.194 115.203C259.63 114.99 259.994 114.663 260.288 114.223C260.586 113.783 260.735 113.222 260.735 112.54ZM270.055 117.227C269.004 117.227 268.097 116.995 267.335 116.531C266.577 116.062 265.993 115.409 265.581 114.571C265.174 113.728 264.97 112.748 264.97 111.631C264.97 110.513 265.174 109.528 265.581 108.676C265.993 107.819 266.566 107.152 267.3 106.673C268.038 106.19 268.9 105.949 269.885 105.949C270.453 105.949 271.014 106.044 271.568 106.233C272.122 106.422 272.626 106.73 273.081 107.156C273.535 107.578 273.898 108.136 274.167 108.832C274.437 109.528 274.572 110.385 274.572 111.403V112.114H266.163V110.665H272.868C272.868 110.049 272.745 109.5 272.498 109.017C272.257 108.534 271.911 108.153 271.461 107.874C271.016 107.594 270.491 107.455 269.885 107.455C269.217 107.455 268.64 107.62 268.152 107.952C267.669 108.278 267.297 108.705 267.037 109.23C266.776 109.756 266.646 110.319 266.646 110.92V111.886C266.646 112.71 266.788 113.409 267.072 113.982C267.361 114.55 267.761 114.983 268.273 115.281C268.784 115.575 269.378 115.722 270.055 115.722C270.496 115.722 270.893 115.66 271.248 115.537C271.608 115.409 271.918 115.22 272.179 114.969C272.439 114.713 272.64 114.396 272.782 114.017L274.402 114.472C274.231 115.021 273.945 115.504 273.542 115.92C273.14 116.332 272.643 116.654 272.051 116.886C271.459 117.114 270.794 117.227 270.055 117.227ZM287.321 117.227C286.27 117.227 285.363 116.995 284.601 116.531C283.843 116.062 283.258 115.409 282.846 114.571C282.439 113.728 282.236 112.748 282.236 111.631C282.236 110.513 282.439 109.528 282.846 108.676C283.258 107.819 283.831 107.152 284.565 106.673C285.304 106.19 286.166 105.949 287.15 105.949C287.719 105.949 288.28 106.044 288.834 106.233C289.388 106.422 289.892 106.73 290.346 107.156C290.801 107.578 291.163 108.136 291.433 108.832C291.703 109.528 291.838 110.385 291.838 111.403V112.114H283.429V110.665H290.133C290.133 110.049 290.01 109.5 289.764 109.017C289.523 108.534 289.177 108.153 288.727 107.874C288.282 107.594 287.756 107.455 287.15 107.455C286.483 107.455 285.905 107.62 285.417 107.952C284.934 108.278 284.563 108.705 284.302 109.23C284.042 109.756 283.912 110.319 283.912 110.92V111.886C283.912 112.71 284.054 113.409 284.338 113.982C284.627 114.55 285.027 114.983 285.538 115.281C286.05 115.575 286.644 115.722 287.321 115.722C287.761 115.722 288.159 115.66 288.514 115.537C288.874 115.409 289.184 115.22 289.444 114.969C289.705 114.713 289.906 114.396 290.048 114.017L291.667 114.472C291.497 115.021 291.211 115.504 290.808 115.92C290.406 116.332 289.908 116.654 289.317 116.886C288.725 117.114 288.059 117.227 287.321 117.227ZM296.064 102.455V117H294.388V102.455H296.064ZM304.986 102.455H307.088L312.031 114.528H312.202L317.145 102.455H319.247V117H317.6V105.949H317.458L312.912 117H311.321L306.776 105.949H306.634V117H304.986V102.455ZM329.427 112.54V106.091H331.103V117H329.427V115.153H329.313C329.057 115.707 328.66 116.179 328.12 116.567C327.58 116.95 326.898 117.142 326.074 117.142C325.393 117.142 324.787 116.993 324.256 116.695C323.726 116.392 323.309 115.937 323.006 115.331C322.703 114.72 322.552 113.951 322.552 113.023V106.091H324.228V112.909C324.228 113.705 324.45 114.339 324.895 114.812C325.345 115.286 325.918 115.523 326.614 115.523C327.031 115.523 327.455 115.416 327.885 115.203C328.321 114.99 328.686 114.663 328.979 114.223C329.278 113.783 329.427 113.222 329.427 112.54ZM335.849 110.438V117H334.173V106.091H335.792V107.795H335.934C336.19 107.241 336.578 106.796 337.099 106.46C337.62 106.119 338.292 105.949 339.116 105.949C339.855 105.949 340.501 106.1 341.055 106.403C341.609 106.702 342.04 107.156 342.347 107.767C342.655 108.373 342.809 109.14 342.809 110.068V117H341.133V110.182C341.133 109.325 340.91 108.657 340.465 108.179C340.02 107.696 339.41 107.455 338.633 107.455C338.098 107.455 337.62 107.571 337.198 107.803C336.782 108.035 336.453 108.373 336.211 108.818C335.97 109.263 335.849 109.803 335.849 110.438ZM349.991 117.227C349.082 117.227 348.28 116.998 347.584 116.538C346.888 116.074 346.343 115.421 345.95 114.578C345.557 113.731 345.361 112.729 345.361 111.574C345.361 110.428 345.557 109.434 345.95 108.591C346.343 107.748 346.89 107.097 347.591 106.638C348.291 106.179 349.101 105.949 350.02 105.949C350.73 105.949 351.291 106.067 351.703 106.304C352.12 106.536 352.437 106.801 352.655 107.099C352.877 107.393 353.05 107.634 353.173 107.824H353.315V102.455H354.991V117H353.372V115.324H353.173C353.05 115.523 352.875 115.774 352.648 116.077C352.42 116.375 352.096 116.643 351.675 116.879C351.253 117.111 350.692 117.227 349.991 117.227ZM350.219 115.722C350.891 115.722 351.459 115.546 351.923 115.196C352.387 114.841 352.74 114.351 352.981 113.726C353.223 113.096 353.344 112.369 353.344 111.545C353.344 110.731 353.225 110.018 352.988 109.408C352.752 108.792 352.401 108.314 351.937 107.973C351.473 107.627 350.9 107.455 350.219 107.455C349.508 107.455 348.916 107.637 348.443 108.001C347.974 108.361 347.622 108.851 347.385 109.472C347.153 110.087 347.037 110.778 347.037 111.545C347.037 112.322 347.155 113.027 347.392 113.662C347.633 114.292 347.988 114.794 348.457 115.168C348.931 115.537 349.518 115.722 350.219 115.722ZM362.726 117.227C361.741 117.227 360.877 116.993 360.133 116.524C359.395 116.055 358.817 115.4 358.4 114.557C357.988 113.714 357.782 112.729 357.782 111.602C357.782 110.466 357.988 109.474 358.4 108.626C358.817 107.779 359.395 107.121 360.133 106.652C360.877 106.183 361.741 105.949 362.726 105.949C363.711 105.949 364.572 106.183 365.311 106.652C366.054 107.121 366.632 107.779 367.044 108.626C367.461 109.474 367.669 110.466 367.669 111.602C367.669 112.729 367.461 113.714 367.044 114.557C366.632 115.4 366.054 116.055 365.311 116.524C364.572 116.993 363.711 117.227 362.726 117.227ZM362.726 115.722C363.474 115.722 364.089 115.53 364.572 115.146C365.055 114.763 365.413 114.259 365.645 113.634C365.877 113.009 365.993 112.331 365.993 111.602C365.993 110.873 365.877 110.194 365.645 109.564C365.413 108.934 365.055 108.425 364.572 108.037C364.089 107.649 363.474 107.455 362.726 107.455C361.978 107.455 361.362 107.649 360.879 108.037C360.396 108.425 360.039 108.934 359.807 109.564C359.575 110.194 359.459 110.873 359.459 111.602C359.459 112.331 359.575 113.009 359.807 113.634C360.039 114.259 360.396 114.763 360.879 115.146C361.362 115.53 361.978 115.722 362.726 115.722ZM379.972 117.227C379.063 117.227 378.26 116.998 377.564 116.538C376.868 116.074 376.324 115.421 375.931 114.578C375.538 113.731 375.341 112.729 375.341 111.574C375.341 110.428 375.538 109.434 375.931 108.591C376.324 107.748 376.87 107.097 377.571 106.638C378.272 106.179 379.082 105.949 380 105.949C380.71 105.949 381.271 106.067 381.683 106.304C382.1 106.536 382.417 106.801 382.635 107.099C382.858 107.393 383.03 107.634 383.154 107.824H383.296V102.455H384.972V117H383.352V115.324H383.154C383.03 115.523 382.855 115.774 382.628 116.077C382.401 116.375 382.076 116.643 381.655 116.879C381.234 117.111 380.673 117.227 379.972 117.227ZM380.199 115.722C380.871 115.722 381.44 115.546 381.904 115.196C382.368 114.841 382.72 114.351 382.962 113.726C383.203 113.096 383.324 112.369 383.324 111.545C383.324 110.731 383.206 110.018 382.969 109.408C382.732 108.792 382.382 108.314 381.918 107.973C381.454 107.627 380.881 107.455 380.199 107.455C379.489 107.455 378.897 107.637 378.423 108.001C377.955 108.361 377.602 108.851 377.365 109.472C377.133 110.087 377.017 110.778 377.017 111.545C377.017 112.322 377.136 113.027 377.372 113.662C377.614 114.292 377.969 114.794 378.438 115.168C378.911 115.537 379.498 115.722 380.199 115.722ZM392.848 117.227C391.797 117.227 390.89 116.995 390.128 116.531C389.37 116.062 388.786 115.409 388.374 114.571C387.967 113.728 387.763 112.748 387.763 111.631C387.763 110.513 387.967 109.528 388.374 108.676C388.786 107.819 389.359 107.152 390.093 106.673C390.831 106.19 391.693 105.949 392.678 105.949C393.246 105.949 393.807 106.044 394.361 106.233C394.915 106.422 395.419 106.73 395.874 107.156C396.328 107.578 396.691 108.136 396.96 108.832C397.23 109.528 397.365 110.385 397.365 111.403V112.114H388.956V110.665H395.661C395.661 110.049 395.538 109.5 395.291 109.017C395.05 108.534 394.704 108.153 394.254 107.874C393.809 107.594 393.284 107.455 392.678 107.455C392.01 107.455 391.432 107.62 390.945 107.952C390.462 108.278 390.09 108.705 389.83 109.23C389.569 109.756 389.439 110.319 389.439 110.92V111.886C389.439 112.71 389.581 113.409 389.865 113.982C390.154 114.55 390.554 114.983 391.066 115.281C391.577 115.575 392.171 115.722 392.848 115.722C393.289 115.722 393.686 115.66 394.041 115.537C394.401 115.409 394.711 115.22 394.972 114.969C395.232 114.713 395.433 114.396 395.575 114.017L397.195 114.472C397.024 115.021 396.738 115.504 396.335 115.92C395.933 116.332 395.436 116.654 394.844 116.886C394.252 117.114 393.587 117.227 392.848 117.227ZM401.591 102.455V117H399.915V102.455H401.591ZM409.718 104.017V102.455H420.627V104.017H416.053V117H414.292V104.017H409.718ZM421.985 117V106.091H423.605V107.739H423.718C423.917 107.199 424.277 106.761 424.798 106.425C425.319 106.089 425.906 105.92 426.559 105.92C426.682 105.92 426.836 105.923 427.021 105.928C427.205 105.932 427.345 105.939 427.44 105.949V107.653C427.383 107.639 427.253 107.618 427.049 107.589C426.85 107.556 426.64 107.54 426.417 107.54C425.887 107.54 425.413 107.651 424.997 107.874C424.585 108.091 424.258 108.394 424.017 108.783C423.78 109.166 423.661 109.604 423.661 110.097V117H421.985ZM432.637 117.256C431.946 117.256 431.318 117.125 430.755 116.865C430.191 116.6 429.744 116.219 429.412 115.722C429.081 115.22 428.915 114.614 428.915 113.903C428.915 113.278 429.038 112.772 429.285 112.384C429.531 111.991 429.86 111.683 430.272 111.46C430.684 111.238 431.138 111.072 431.635 110.963C432.137 110.849 432.642 110.759 433.148 110.693C433.811 110.608 434.349 110.544 434.76 110.501C435.177 110.454 435.48 110.376 435.67 110.267C435.864 110.158 435.961 109.969 435.961 109.699V109.642C435.961 108.941 435.769 108.397 435.385 108.009C435.007 107.62 434.431 107.426 433.66 107.426C432.859 107.426 432.232 107.601 431.778 107.952C431.323 108.302 431.003 108.676 430.819 109.074L429.228 108.506C429.512 107.843 429.891 107.327 430.364 106.957C430.842 106.583 431.363 106.323 431.927 106.176C432.495 106.025 433.054 105.949 433.603 105.949C433.953 105.949 434.356 105.991 434.81 106.077C435.269 106.157 435.712 106.325 436.138 106.581C436.569 106.837 436.927 107.223 437.211 107.739C437.495 108.255 437.637 108.946 437.637 109.812V117H435.961V115.523H435.876C435.762 115.759 435.573 116.013 435.307 116.283C435.042 116.553 434.689 116.782 434.249 116.972C433.809 117.161 433.271 117.256 432.637 117.256ZM432.893 115.75C433.555 115.75 434.114 115.62 434.569 115.359C435.028 115.099 435.374 114.763 435.606 114.351C435.842 113.939 435.961 113.506 435.961 113.051V111.517C435.89 111.602 435.733 111.68 435.492 111.751C435.255 111.818 434.981 111.877 434.668 111.929C434.36 111.976 434.06 112.019 433.766 112.057C433.477 112.09 433.243 112.118 433.063 112.142C432.627 112.199 432.22 112.291 431.841 112.419C431.467 112.542 431.164 112.729 430.932 112.98C430.705 113.226 430.591 113.562 430.591 113.989C430.591 114.571 430.807 115.011 431.238 115.31C431.673 115.603 432.225 115.75 432.893 115.75ZM444.816 117.227C443.906 117.227 443.104 116.998 442.408 116.538C441.712 116.074 441.167 115.421 440.774 114.578C440.381 113.731 440.185 112.729 440.185 111.574C440.185 110.428 440.381 109.434 440.774 108.591C441.167 107.748 441.714 107.097 442.415 106.638C443.116 106.179 443.925 105.949 444.844 105.949C445.554 105.949 446.115 106.067 446.527 106.304C446.944 106.536 447.261 106.801 447.479 107.099C447.701 107.393 447.874 107.634 447.997 107.824H448.139V102.455H449.816V117H448.196V115.324H447.997C447.874 115.523 447.699 115.774 447.472 116.077C447.244 116.375 446.92 116.643 446.499 116.879C446.077 117.111 445.516 117.227 444.816 117.227ZM445.043 115.722C445.715 115.722 446.283 115.546 446.747 115.196C447.211 114.841 447.564 114.351 447.806 113.726C448.047 113.096 448.168 112.369 448.168 111.545C448.168 110.731 448.049 110.018 447.813 109.408C447.576 108.792 447.226 108.314 446.762 107.973C446.298 107.627 445.725 107.455 445.043 107.455C444.333 107.455 443.741 107.637 443.267 108.001C442.798 108.361 442.446 108.851 442.209 109.472C441.977 110.087 441.861 110.778 441.861 111.545C441.861 112.322 441.979 113.027 442.216 113.662C442.458 114.292 442.813 114.794 443.281 115.168C443.755 115.537 444.342 115.722 445.043 115.722ZM453.118 117V106.091H454.794V117H453.118ZM453.97 104.273C453.644 104.273 453.362 104.161 453.125 103.939C452.893 103.716 452.777 103.449 452.777 103.136C452.777 102.824 452.893 102.556 453.125 102.334C453.362 102.111 453.644 102 453.97 102C454.297 102 454.576 102.111 454.808 102.334C455.045 102.556 455.164 102.824 455.164 103.136C455.164 103.449 455.045 103.716 454.808 103.939C454.576 104.161 454.297 104.273 453.97 104.273ZM459.54 110.438V117H457.864V106.091H459.483V107.795H459.626C459.881 107.241 460.269 106.796 460.79 106.46C461.311 106.119 461.983 105.949 462.807 105.949C463.546 105.949 464.192 106.1 464.746 106.403C465.3 106.702 465.731 107.156 466.039 107.767C466.347 108.373 466.501 109.14 466.501 110.068V117H464.824V110.182C464.824 109.325 464.602 108.657 464.157 108.179C463.712 107.696 463.101 107.455 462.324 107.455C461.789 107.455 461.311 107.571 460.89 107.803C460.473 108.035 460.144 108.373 459.903 108.818C459.661 109.263 459.54 109.803 459.54 110.438ZM473.967 121.318C473.157 121.318 472.461 121.214 471.879 121.006C471.296 120.802 470.811 120.532 470.423 120.196C470.039 119.865 469.734 119.509 469.507 119.131L470.842 118.193C470.993 118.392 471.185 118.619 471.417 118.875C471.649 119.135 471.966 119.36 472.369 119.55C472.776 119.744 473.309 119.841 473.967 119.841C474.847 119.841 475.574 119.628 476.147 119.202C476.72 118.776 477.007 118.108 477.007 117.199V114.983H476.865C476.741 115.182 476.566 115.428 476.339 115.722C476.116 116.01 475.794 116.268 475.373 116.496C474.956 116.718 474.393 116.83 473.683 116.83C472.802 116.83 472.011 116.621 471.311 116.205C470.615 115.788 470.063 115.182 469.656 114.386C469.253 113.591 469.052 112.625 469.052 111.489C469.052 110.371 469.249 109.398 469.642 108.57C470.035 107.736 470.581 107.092 471.282 106.638C471.983 106.179 472.793 105.949 473.711 105.949C474.421 105.949 474.985 106.067 475.401 106.304C475.823 106.536 476.145 106.801 476.367 107.099C476.595 107.393 476.77 107.634 476.893 107.824H477.063V106.091H478.683V117.312C478.683 118.25 478.47 119.012 478.044 119.599C477.622 120.191 477.054 120.625 476.339 120.899C475.629 121.179 474.838 121.318 473.967 121.318ZM473.91 115.324C474.582 115.324 475.151 115.17 475.615 114.862C476.079 114.554 476.431 114.112 476.673 113.534C476.914 112.956 477.035 112.265 477.035 111.46C477.035 110.674 476.917 109.981 476.68 109.379C476.443 108.778 476.093 108.307 475.629 107.966C475.165 107.625 474.592 107.455 473.91 107.455C473.2 107.455 472.608 107.634 472.134 107.994C471.666 108.354 471.313 108.837 471.076 109.443C470.844 110.049 470.728 110.722 470.728 111.46C470.728 112.218 470.847 112.888 471.083 113.47C471.325 114.048 471.68 114.502 472.149 114.834C472.622 115.161 473.209 115.324 473.91 115.324ZM487.603 117V102.455H489.365V108.932H497.12V102.455H498.882V117H497.12V110.494H489.365V117H487.603ZM505.391 117.256C504.7 117.256 504.072 117.125 503.509 116.865C502.945 116.6 502.498 116.219 502.166 115.722C501.835 115.22 501.669 114.614 501.669 113.903C501.669 113.278 501.792 112.772 502.039 112.384C502.285 111.991 502.614 111.683 503.026 111.46C503.438 111.238 503.892 111.072 504.389 110.963C504.891 110.849 505.396 110.759 505.902 110.693C506.565 110.608 507.102 110.544 507.514 110.501C507.931 110.454 508.234 110.376 508.423 110.267C508.618 110.158 508.715 109.969 508.715 109.699V109.642C508.715 108.941 508.523 108.397 508.139 108.009C507.761 107.62 507.185 107.426 506.414 107.426C505.613 107.426 504.986 107.601 504.531 107.952C504.077 108.302 503.757 108.676 503.573 109.074L501.982 108.506C502.266 107.843 502.645 107.327 503.118 106.957C503.596 106.583 504.117 106.323 504.681 106.176C505.249 106.025 505.807 105.949 506.357 105.949C506.707 105.949 507.11 105.991 507.564 106.077C508.023 106.157 508.466 106.325 508.892 106.581C509.323 106.837 509.681 107.223 509.965 107.739C510.249 108.255 510.391 108.946 510.391 109.812V117H508.715V115.523H508.629C508.516 115.759 508.326 116.013 508.061 116.283C507.796 116.553 507.443 116.782 507.003 116.972C506.563 117.161 506.025 117.256 505.391 117.256ZM505.646 115.75C506.309 115.75 506.868 115.62 507.323 115.359C507.782 115.099 508.128 114.763 508.36 114.351C508.596 113.939 508.715 113.506 508.715 113.051V111.517C508.644 111.602 508.487 111.68 508.246 111.751C508.009 111.818 507.735 111.877 507.422 111.929C507.114 111.976 506.814 112.019 506.52 112.057C506.231 112.09 505.997 112.118 505.817 112.142C505.381 112.199 504.974 112.291 504.595 112.419C504.221 112.542 503.918 112.729 503.686 112.98C503.459 113.226 503.345 113.562 503.345 113.989C503.345 114.571 503.561 115.011 503.992 115.31C504.427 115.603 504.979 115.75 505.646 115.75ZM519.899 102.455L524.217 114.699H524.388L528.706 102.455H530.552L525.211 117H523.393L518.052 102.455H519.899ZM532.591 117V106.091H534.267V117H532.591ZM533.443 104.273C533.116 104.273 532.835 104.161 532.598 103.939C532.366 103.716 532.25 103.449 532.25 103.136C532.25 102.824 532.366 102.556 532.598 102.334C532.835 102.111 533.116 102 533.443 102C533.77 102 534.049 102.111 534.281 102.334C534.518 102.556 534.636 102.824 534.636 103.136C534.636 103.449 534.518 103.716 534.281 103.939C534.049 104.161 533.77 104.273 533.443 104.273ZM545.064 108.534L543.558 108.96C543.464 108.709 543.324 108.465 543.139 108.229C542.959 107.987 542.713 107.788 542.401 107.632C542.088 107.476 541.688 107.398 541.2 107.398C540.533 107.398 539.977 107.552 539.531 107.859C539.091 108.162 538.871 108.548 538.871 109.017C538.871 109.434 539.022 109.763 539.325 110.004C539.628 110.246 540.102 110.447 540.746 110.608L542.365 111.006C543.341 111.242 544.067 111.605 544.546 112.092C545.024 112.575 545.263 113.198 545.263 113.96C545.263 114.585 545.083 115.144 544.723 115.636C544.368 116.129 543.871 116.517 543.232 116.801C542.593 117.085 541.849 117.227 541.002 117.227C539.889 117.227 538.968 116.986 538.239 116.503C537.51 116.02 537.048 115.314 536.854 114.386L538.445 113.989C538.596 114.576 538.883 115.016 539.304 115.31C539.73 115.603 540.287 115.75 540.973 115.75C541.754 115.75 542.375 115.584 542.834 115.253C543.298 114.917 543.53 114.514 543.53 114.045C543.53 113.667 543.397 113.349 543.132 113.094C542.867 112.833 542.46 112.639 541.911 112.511L540.093 112.085C539.093 111.848 538.36 111.482 537.891 110.984C537.427 110.482 537.195 109.855 537.195 109.102C537.195 108.487 537.368 107.942 537.713 107.469C538.064 106.995 538.539 106.624 539.141 106.354C539.747 106.084 540.433 105.949 541.2 105.949C542.28 105.949 543.128 106.186 543.743 106.659C544.363 107.133 544.804 107.758 545.064 108.534ZM552.53 106.091V107.511H546.877V106.091H552.53ZM548.525 103.477H550.201V113.875C550.201 114.348 550.269 114.704 550.407 114.94C550.549 115.172 550.729 115.329 550.947 115.409C551.169 115.485 551.403 115.523 551.65 115.523C551.834 115.523 551.986 115.513 552.104 115.494C552.223 115.471 552.317 115.452 552.388 115.438L552.729 116.943C552.616 116.986 552.457 117.028 552.253 117.071C552.05 117.118 551.792 117.142 551.479 117.142C551.006 117.142 550.542 117.04 550.087 116.837C549.637 116.633 549.263 116.323 548.965 115.906C548.671 115.49 548.525 114.964 548.525 114.33V103.477ZM559.366 117.227C558.381 117.227 557.517 116.993 556.774 116.524C556.035 116.055 555.458 115.4 555.041 114.557C554.629 113.714 554.423 112.729 554.423 111.602C554.423 110.466 554.629 109.474 555.041 108.626C555.458 107.779 556.035 107.121 556.774 106.652C557.517 106.183 558.381 105.949 559.366 105.949C560.351 105.949 561.213 106.183 561.952 106.652C562.695 107.121 563.273 107.779 563.684 108.626C564.101 109.474 564.309 110.466 564.309 111.602C564.309 112.729 564.101 113.714 563.684 114.557C563.273 115.4 562.695 116.055 561.952 116.524C561.213 116.993 560.351 117.227 559.366 117.227ZM559.366 115.722C560.114 115.722 560.73 115.53 561.213 115.146C561.696 114.763 562.053 114.259 562.285 113.634C562.517 113.009 562.633 112.331 562.633 111.602C562.633 110.873 562.517 110.194 562.285 109.564C562.053 108.934 561.696 108.425 561.213 108.037C560.73 107.649 560.114 107.455 559.366 107.455C558.618 107.455 558.003 107.649 557.52 108.037C557.037 108.425 556.679 108.934 556.447 109.564C556.215 110.194 556.099 110.873 556.099 111.602C556.099 112.331 556.215 113.009 556.447 113.634C556.679 114.259 557.037 114.763 557.52 115.146C558.003 115.53 558.618 115.722 559.366 115.722ZM573.317 117H571.47L576.811 102.455H578.629L583.97 117H582.124L577.777 104.756H577.664L573.317 117ZM573.999 111.318H581.442V112.881H573.999V111.318ZM587.685 110.438V117H586.009V106.091H587.628V107.795H587.77C588.026 107.241 588.414 106.796 588.935 106.46C589.456 106.119 590.128 105.949 590.952 105.949C591.691 105.949 592.337 106.1 592.891 106.403C593.445 106.702 593.876 107.156 594.183 107.767C594.491 108.373 594.645 109.14 594.645 110.068V117H592.969V110.182C592.969 109.325 592.746 108.657 592.301 108.179C591.856 107.696 591.245 107.455 590.469 107.455C589.934 107.455 589.456 107.571 589.034 107.803C588.618 108.035 588.289 108.373 588.047 108.818C587.806 109.263 587.685 109.803 587.685 110.438ZM602.452 106.091V107.511H596.799V106.091H602.452ZM598.447 103.477H600.123V113.875C600.123 114.348 600.191 114.704 600.329 114.94C600.471 115.172 600.651 115.329 600.868 115.409C601.091 115.485 601.325 115.523 601.572 115.523C601.756 115.523 601.908 115.513 602.026 115.494C602.144 115.471 602.239 115.452 602.31 115.438L602.651 116.943C602.537 116.986 602.379 117.028 602.175 117.071C601.972 117.118 601.714 117.142 601.401 117.142C600.928 117.142 600.464 117.04 600.009 116.837C599.559 116.633 599.185 116.323 598.887 115.906C598.593 115.49 598.447 114.964 598.447 114.33V103.477ZM609.43 117.227C608.379 117.227 607.472 116.995 606.71 116.531C605.952 116.062 605.368 115.409 604.956 114.571C604.549 113.728 604.345 112.748 604.345 111.631C604.345 110.513 604.549 109.528 604.956 108.676C605.368 107.819 605.941 107.152 606.675 106.673C607.413 106.19 608.275 105.949 609.26 105.949C609.828 105.949 610.389 106.044 610.943 106.233C611.497 106.422 612.001 106.73 612.456 107.156C612.91 107.578 613.273 108.136 613.542 108.832C613.812 109.528 613.947 110.385 613.947 111.403V112.114H605.538V110.665H612.243C612.243 110.049 612.12 109.5 611.873 109.017C611.632 108.534 611.286 108.153 610.836 107.874C610.391 107.594 609.866 107.455 609.26 107.455C608.592 107.455 608.015 107.62 607.527 107.952C607.044 108.278 606.672 108.705 606.412 109.23C606.151 109.756 606.021 110.319 606.021 110.92V111.886C606.021 112.71 606.163 113.409 606.447 113.982C606.736 114.55 607.136 114.983 607.648 115.281C608.159 115.575 608.753 115.722 609.43 115.722C609.871 115.722 610.268 115.66 610.623 115.537C610.983 115.409 611.293 115.22 611.554 114.969C611.814 114.713 612.015 114.396 612.157 114.017L613.777 114.472C613.606 115.021 613.32 115.504 612.917 115.92C612.515 116.332 612.018 116.654 611.426 116.886C610.834 117.114 610.169 117.227 609.43 117.227ZM624.224 108.534L622.719 108.96C622.624 108.709 622.484 108.465 622.3 108.229C622.12 107.987 621.873 107.788 621.561 107.632C621.248 107.476 620.848 107.398 620.361 107.398C619.693 107.398 619.137 107.552 618.692 107.859C618.251 108.162 618.031 108.548 618.031 109.017C618.031 109.434 618.183 109.763 618.486 110.004C618.789 110.246 619.262 110.447 619.906 110.608L621.525 111.006C622.501 111.242 623.228 111.605 623.706 112.092C624.184 112.575 624.423 113.198 624.423 113.96C624.423 114.585 624.243 115.144 623.883 115.636C623.528 116.129 623.031 116.517 622.392 116.801C621.753 117.085 621.009 117.227 620.162 117.227C619.049 117.227 618.128 116.986 617.399 116.503C616.67 116.02 616.208 115.314 616.014 114.386L617.605 113.989C617.756 114.576 618.043 115.016 618.464 115.31C618.89 115.603 619.447 115.75 620.133 115.75C620.915 115.75 621.535 115.584 621.994 115.253C622.458 114.917 622.69 114.514 622.69 114.045C622.69 113.667 622.558 113.349 622.292 113.094C622.027 112.833 621.62 112.639 621.071 112.511L619.253 112.085C618.254 111.848 617.52 111.482 617.051 110.984C616.587 110.482 616.355 109.855 616.355 109.102C616.355 108.487 616.528 107.942 616.873 107.469C617.224 106.995 617.7 106.624 618.301 106.354C618.907 106.084 619.594 105.949 620.361 105.949C621.44 105.949 622.288 106.186 622.903 106.659C623.523 107.133 623.964 107.758 624.224 108.534Z" fill="white"/>
<rect x="9" y="148" width="651" height="36" rx="6.55172" fill="#45D1FF"/>
<rect x="584" y="9" width="76" height="30.4" rx="5" fill="#45D1FF"/>
<path d="M607.056 17.6188V30.7173H604.945L598.773 21.7952H598.665V30.7173H596.292V17.6188H598.415L604.581 26.5473H604.696V17.6188H607.056ZM615.8 26.5856V20.8935H618.116V30.7173H615.871V28.9713H615.769C615.547 29.5213 615.182 29.9711 614.675 30.3208C614.172 30.6704 613.551 30.8452 612.814 30.8452C612.17 30.8452 611.601 30.7024 611.106 30.4167C610.616 30.1267 610.232 29.7068 609.955 29.1567C609.678 28.6024 609.539 27.933 609.539 27.1485V20.8935H611.854V26.7903C611.854 27.4128 612.025 27.9074 612.366 28.2741C612.707 28.6408 613.155 28.8242 613.709 28.8242C614.05 28.8242 614.381 28.741 614.7 28.5747C615.02 28.4084 615.282 28.1611 615.487 27.8328C615.696 27.5002 615.8 27.0845 615.8 26.5856ZM624.846 30.9092C623.861 30.9092 623.01 30.7045 622.294 30.2952C621.582 29.8816 621.034 29.2974 620.65 28.5427C620.266 27.7838 620.074 26.8905 620.074 25.8629C620.074 24.8524 620.266 23.9655 620.65 23.2023C621.038 22.4348 621.58 21.8379 622.275 21.4115C622.97 20.9809 623.786 20.7655 624.724 20.7655C625.33 20.7655 625.901 20.8636 626.438 21.0597C626.98 21.2516 627.457 21.5501 627.871 21.9551C628.289 22.3602 628.617 22.8761 628.856 23.5029C629.095 24.1254 629.214 24.8673 629.214 25.7286V26.4385H621.162V24.878H626.995C626.99 24.4346 626.894 24.0401 626.707 23.6948C626.519 23.3451 626.257 23.0701 625.92 22.8697C625.588 22.6693 625.2 22.5691 624.756 22.5691C624.283 22.5691 623.867 22.6843 623.509 22.9145C623.151 23.1405 622.872 23.439 622.671 23.8099C622.475 24.1766 622.375 24.5795 622.371 25.0187V26.381C622.371 26.9523 622.475 27.4427 622.684 27.852C622.893 28.2571 623.185 28.5683 623.56 28.7858C623.935 28.999 624.374 29.1056 624.878 29.1056C625.214 29.1056 625.519 29.0587 625.792 28.9649C626.065 28.8668 626.302 28.724 626.502 28.5363C626.703 28.3487 626.854 28.1164 626.956 27.8392L629.118 28.0822C628.982 28.6536 628.721 29.1525 628.338 29.5788C627.958 30.001 627.472 30.3293 626.879 30.5638C626.287 30.794 625.609 30.9092 624.846 30.9092ZM639.666 20.8935L636.168 30.7173H633.609L630.111 20.8935H632.58L634.837 28.191H634.94L637.204 20.8935H639.666ZM645.219 30.9092C644.26 30.9092 643.428 30.6981 642.725 30.276C642.021 29.8539 641.476 29.2633 641.088 28.5044C640.704 27.7454 640.512 26.8585 640.512 25.8437C640.512 24.829 640.704 23.9399 641.088 23.1767C641.476 22.4135 642.021 21.8208 642.725 21.3987C643.428 20.9766 644.26 20.7655 645.219 20.7655C646.179 20.7655 647.01 20.9766 647.714 21.3987C648.417 21.8208 648.961 22.4135 649.344 23.1767C649.732 23.9399 649.926 24.829 649.926 25.8437C649.926 26.8585 649.732 27.7454 649.344 28.5044C648.961 29.2633 648.417 29.8539 647.714 30.276C647.01 30.6981 646.179 30.9092 645.219 30.9092ZM645.232 29.0544C645.752 29.0544 646.187 28.9116 646.537 28.6259C646.886 28.3359 647.146 27.9479 647.317 27.4619C647.492 26.9758 647.579 26.4343 647.579 25.8373C647.579 25.2361 647.492 24.6925 647.317 24.2064C647.146 23.7161 646.886 23.326 646.537 23.036C646.187 22.7461 645.752 22.6011 645.232 22.6011C644.699 22.6011 644.256 22.7461 643.902 23.036C643.552 23.326 643.29 23.7161 643.115 24.2064C642.944 24.6925 642.859 25.2361 642.859 25.8373C642.859 26.4343 642.944 26.9758 643.115 27.4619C643.29 27.9479 643.552 28.3359 643.902 28.6259C644.256 28.9116 644.699 29.0544 645.232 29.0544Z" fill="#0B111D"/>
<path d="M28.2179 163.245C28.1627 162.729 27.9301 162.326 27.52 162.039C27.1139 161.751 26.5856 161.607 25.9351 161.607C25.4777 161.607 25.0854 161.676 24.7582 161.814C24.4309 161.952 24.1806 162.139 24.0071 162.376C23.8336 162.612 23.7449 162.882 23.741 163.186C23.741 163.438 23.7981 163.657 23.9125 163.842C24.0307 164.028 24.1904 164.185 24.3915 164.316C24.5926 164.442 24.8153 164.548 25.0598 164.635C25.3042 164.722 25.5507 164.795 25.799 164.854L26.9345 165.138C27.3919 165.244 27.8315 165.388 28.2534 165.569C28.6792 165.751 29.0597 165.979 29.3948 166.255C29.7339 166.531 30.002 166.865 30.1991 167.255C30.3962 167.645 30.4948 168.103 30.4948 168.627C30.4948 169.337 30.3134 169.961 29.9507 170.502C29.588 171.038 29.0636 171.458 28.3776 171.761C27.6955 172.061 26.8695 172.211 25.8996 172.211C24.9573 172.211 24.1392 172.065 23.4453 171.773C22.7553 171.481 22.2151 171.056 21.8248 170.496C21.4384 169.936 21.2295 169.254 21.1979 168.449H23.3565C23.3881 168.871 23.5182 169.222 23.7469 169.502C23.9755 169.782 24.2732 169.991 24.6399 170.129C25.0105 170.267 25.4245 170.336 25.8818 170.336C26.3589 170.336 26.7768 170.265 27.1356 170.123C27.4983 169.977 27.7822 169.776 27.9872 169.52C28.1923 169.26 28.2967 168.956 28.3007 168.609C28.2967 168.294 28.2041 168.034 28.0227 167.828C27.8414 167.62 27.5871 167.446 27.2598 167.308C26.9365 167.166 26.558 167.04 26.1243 166.93L24.7463 166.575C23.7488 166.318 22.9603 165.93 22.3807 165.41C21.8051 164.885 21.5173 164.189 21.5173 163.322C21.5173 162.608 21.7105 161.983 22.0969 161.447C22.4872 160.911 23.0175 160.495 23.6877 160.199C24.358 159.9 25.117 159.75 25.9646 159.75C26.8241 159.75 27.5772 159.9 28.2238 160.199C28.8744 160.495 29.3849 160.907 29.7555 161.435C30.1262 161.96 30.3174 162.563 30.3292 163.245H28.2179ZM32.3562 172.027V162.943H34.4971V172.027H32.3562ZM33.4326 161.654C33.0935 161.654 32.8018 161.542 32.5573 161.317C32.3129 161.088 32.1907 160.814 32.1907 160.495C32.1907 160.172 32.3129 159.898 32.5573 159.673C32.8018 159.444 33.0935 159.33 33.4326 159.33C33.7756 159.33 34.0674 159.444 34.3079 159.673C34.5523 159.898 34.6746 160.172 34.6746 160.495C34.6746 160.814 34.5523 161.088 34.3079 161.317C34.0674 161.542 33.7756 161.654 33.4326 161.654ZM38.8395 166.705V172.027H36.6986V162.943H38.7449V164.487H38.8513C39.0603 163.978 39.3935 163.574 39.8508 163.275C40.3121 162.975 40.8818 162.825 41.56 162.825C42.1869 162.825 42.7329 162.959 43.1982 163.227C43.6674 163.495 44.0301 163.884 44.2864 164.392C44.5466 164.901 44.6747 165.518 44.6708 166.244V172.027H42.5299V166.575C42.5299 165.968 42.3722 165.492 42.0568 165.149C41.7453 164.806 41.3136 164.635 40.7616 164.635C40.387 164.635 40.0539 164.718 39.7621 164.883C39.4743 165.045 39.2476 165.28 39.082 165.587C38.9203 165.895 38.8395 166.267 38.8395 166.705ZM55.6354 172.027H51.8977V159.915H55.801C56.9759 159.915 57.9813 160.158 58.8172 160.643C59.653 161.124 60.2937 161.816 60.7392 162.719C61.1848 163.618 61.4075 164.694 61.4075 165.948C61.4075 167.209 61.1828 168.296 60.7333 169.206C60.2839 170.113 59.6294 170.811 58.7699 171.3C57.9104 171.785 56.8655 172.027 55.6354 172.027ZM53.3644 170.726H55.5408C56.5422 170.726 57.3722 170.533 58.0306 170.147C58.689 169.76 59.1799 169.21 59.5032 168.497C59.8265 167.783 59.9882 166.933 59.9882 165.948C59.9882 164.97 59.8285 164.128 59.5091 163.423C59.1898 162.713 58.7127 162.169 58.0779 161.79C57.4431 161.408 56.6526 161.217 55.7064 161.217H53.3644V170.726ZM66.3517 172.24C65.776 172.24 65.2536 172.132 64.7845 171.915C64.3153 171.694 63.9427 171.377 63.6667 170.963C63.3907 170.545 63.2527 170.04 63.2527 169.449C63.2527 168.929 63.3552 168.507 63.5602 168.183C63.7653 167.856 64.0393 167.6 64.3823 167.415C64.7253 167.229 65.1038 167.091 65.5178 167.001C65.9357 166.906 66.3556 166.831 66.7775 166.776C67.3295 166.705 67.777 166.652 68.12 166.616C68.4669 166.577 68.7193 166.512 68.877 166.421C69.0386 166.33 69.1194 166.173 69.1194 165.948V165.901C69.1194 165.317 68.9598 164.864 68.6404 164.54C68.325 164.217 67.846 164.055 67.2033 164.055C66.537 164.055 66.0146 164.201 65.6361 164.493C65.2576 164.785 64.9914 165.096 64.8377 165.427L63.5129 164.954C63.7495 164.402 64.0649 163.973 64.4592 163.665C64.8574 163.354 65.2911 163.137 65.7603 163.014C66.2334 162.888 66.6986 162.825 67.156 162.825C67.4477 162.825 67.7829 162.861 68.1614 162.932C68.5438 162.999 68.9125 163.139 69.2673 163.352C69.6261 163.564 69.9238 163.886 70.1603 164.316C70.3969 164.745 70.5152 165.321 70.5152 166.042V172.027H69.1194V170.797H69.0485C68.9539 170.994 68.7961 171.205 68.5754 171.43C68.3546 171.655 68.0608 171.846 67.6942 172.004C67.3275 172.162 66.88 172.24 66.3517 172.24ZM66.5646 170.987C67.1166 170.987 67.5818 170.878 67.9603 170.661C68.3427 170.444 68.6306 170.165 68.8237 169.822C69.0209 169.479 69.1194 169.118 69.1194 168.739V167.462C69.0603 167.533 68.9302 167.598 68.7291 167.657C68.532 167.712 68.3033 167.761 68.0431 167.805C67.7868 167.844 67.5365 167.88 67.292 167.911C67.0515 167.939 66.8563 167.963 66.7065 167.982C66.3438 168.03 66.0047 168.106 65.6893 168.213C65.3778 168.315 65.1255 168.471 64.9323 168.68C64.7431 168.885 64.6484 169.165 64.6484 169.52C64.6484 170.005 64.8278 170.372 65.1866 170.62C65.5493 170.864 66.0087 170.987 66.5646 170.987ZM73.0626 172.027V162.943H74.4584V172.027H73.0626ZM73.7723 161.429C73.5003 161.429 73.2657 161.337 73.0686 161.152C72.8754 160.966 72.7788 160.743 72.7788 160.483C72.7788 160.223 72.8754 160 73.0686 159.815C73.2657 159.63 73.5003 159.537 73.7723 159.537C74.0444 159.537 74.277 159.63 74.4702 159.815C74.6673 160 74.7659 160.223 74.7659 160.483C74.7659 160.743 74.6673 160.966 74.4702 161.152C74.277 161.337 74.0444 161.429 73.7723 161.429ZM78.4104 159.915V172.027H77.0147V159.915H78.4104ZM81.8657 175.434C81.6291 175.434 81.4182 175.414 81.2329 175.375C81.0476 175.339 80.9195 175.304 80.8485 175.268L81.2033 174.038C81.5424 174.125 81.842 174.157 82.1023 174.133C82.3625 174.109 82.5931 173.993 82.7942 173.784C82.9992 173.579 83.1865 173.246 83.356 172.784L83.6163 172.075L80.2571 162.943H81.7711L84.2786 170.182H84.3733L86.8808 162.943H88.3948L84.5389 173.352C84.3654 173.821 84.1505 174.21 83.8942 174.517C83.6379 174.829 83.3403 175.059 83.0012 175.209C82.6661 175.359 82.2876 175.434 81.8657 175.434ZM98.8479 172.027H95.1102V159.915H99.0135C100.188 159.915 101.194 160.158 102.03 160.643C102.865 161.124 103.506 161.816 103.952 162.719C104.397 163.618 104.62 164.694 104.62 165.948C104.62 167.209 104.395 168.296 103.946 169.206C103.496 170.113 102.842 170.811 101.982 171.3C101.123 171.785 100.078 172.027 98.8479 172.027ZM96.5769 170.726H98.7533C99.7547 170.726 100.585 170.533 101.243 170.147C101.902 169.76 102.392 169.21 102.716 168.497C103.039 167.783 103.201 166.933 103.201 165.948C103.201 164.97 103.041 164.128 102.722 163.423C102.402 162.713 101.925 162.169 101.29 161.79C100.656 161.408 99.8651 161.217 98.9189 161.217H96.5769V170.726ZM106.891 172.027V162.943H108.239V164.316H108.334C108.5 163.866 108.799 163.501 109.233 163.221C109.667 162.942 110.156 162.802 110.7 162.802C110.802 162.802 110.93 162.804 111.084 162.807C111.238 162.811 111.354 162.817 111.433 162.825V164.245C111.386 164.233 111.277 164.215 111.108 164.191C110.942 164.164 110.767 164.15 110.581 164.15C110.14 164.15 109.746 164.243 109.399 164.428C109.056 164.609 108.783 164.862 108.582 165.185C108.385 165.504 108.287 165.869 108.287 166.279V172.027H106.891ZM115.761 172.24C115.185 172.24 114.663 172.132 114.193 171.915C113.724 171.694 113.352 171.377 113.076 170.963C112.8 170.545 112.662 170.04 112.662 169.449C112.662 168.929 112.764 168.507 112.969 168.183C113.174 167.856 113.448 167.6 113.791 167.415C114.134 167.229 114.513 167.091 114.927 167.001C115.345 166.906 115.765 166.831 116.186 166.776C116.738 166.705 117.186 166.652 117.529 166.616C117.876 166.577 118.128 166.512 118.286 166.421C118.448 166.33 118.528 166.173 118.528 165.948V165.901C118.528 165.317 118.369 164.864 118.049 164.54C117.734 164.217 117.255 164.055 116.612 164.055C115.946 164.055 115.423 164.201 115.045 164.493C114.666 164.785 114.4 165.096 114.247 165.427L112.922 164.954C113.158 164.402 113.474 163.973 113.868 163.665C114.266 163.354 114.7 163.137 115.169 163.014C115.642 162.888 116.108 162.825 116.565 162.825C116.857 162.825 117.192 162.861 117.57 162.932C117.953 162.999 118.321 163.139 118.676 163.352C119.035 163.564 119.333 163.886 119.569 164.316C119.806 164.745 119.924 165.321 119.924 166.042V172.027H118.528V170.797H118.457C118.363 170.994 118.205 171.205 117.984 171.43C117.763 171.655 117.47 171.846 117.103 172.004C116.736 172.162 116.289 172.24 115.761 172.24ZM115.973 170.987C116.525 170.987 116.991 170.878 117.369 170.661C117.752 170.444 118.039 170.165 118.233 169.822C118.43 169.479 118.528 169.118 118.528 168.739V167.462C118.469 167.533 118.339 167.598 118.138 167.657C117.941 167.712 117.712 167.761 117.452 167.805C117.196 167.844 116.945 167.88 116.701 167.911C116.46 167.939 116.265 167.963 116.115 167.982C115.753 168.03 115.414 168.106 115.098 168.213C114.787 168.315 114.534 168.471 114.341 168.68C114.152 168.885 114.057 169.165 114.057 169.52C114.057 170.005 114.237 170.372 114.596 170.62C114.958 170.864 115.418 170.987 115.973 170.987ZM124.53 172.027L121.762 162.943H123.229L125.192 169.898H125.287L127.226 162.943H128.717L130.633 169.875H130.728L132.691 162.943H134.158L131.39 172.027H130.018L128.031 165.049H127.889L125.902 172.027H124.53ZM139.124 172.217C138.367 172.217 137.699 172.025 137.119 171.643C136.54 171.257 136.086 170.713 135.759 170.011C135.432 169.305 135.268 168.471 135.268 167.509C135.268 166.555 135.432 165.727 135.759 165.025C136.086 164.323 136.542 163.781 137.125 163.399C137.709 163.016 138.383 162.825 139.148 162.825C139.739 162.825 140.206 162.924 140.549 163.121C140.896 163.314 141.16 163.535 141.342 163.783C141.527 164.028 141.671 164.229 141.774 164.387H141.892V159.915H143.288V172.027H141.939V170.632H141.774C141.671 170.797 141.525 171.006 141.336 171.259C141.147 171.507 140.877 171.73 140.526 171.927C140.175 172.12 139.708 172.217 139.124 172.217ZM139.313 170.963C139.873 170.963 140.346 170.817 140.733 170.525C141.119 170.23 141.413 169.822 141.614 169.301C141.815 168.777 141.915 168.172 141.915 167.485C141.915 166.807 141.817 166.214 141.62 165.705C141.423 165.193 141.131 164.795 140.744 164.511C140.358 164.223 139.881 164.079 139.313 164.079C138.722 164.079 138.229 164.231 137.835 164.534C137.444 164.834 137.151 165.242 136.954 165.759C136.76 166.271 136.664 166.847 136.664 167.485C136.664 168.132 136.762 168.72 136.959 169.248C137.161 169.772 137.456 170.19 137.847 170.502C138.241 170.809 138.73 170.963 139.313 170.963ZM149.728 172.217C148.908 172.217 148.188 172.022 147.569 171.631C146.954 171.241 146.473 170.695 146.126 169.993C145.783 169.291 145.612 168.471 145.612 167.533C145.612 166.587 145.783 165.761 146.126 165.055C146.473 164.349 146.954 163.801 147.569 163.411C148.188 163.02 148.908 162.825 149.728 162.825C150.548 162.825 151.266 163.02 151.881 163.411C152.5 163.801 152.981 164.349 153.324 165.055C153.671 165.761 153.844 166.587 153.844 167.533C153.844 168.471 153.671 169.291 153.324 169.993C152.981 170.695 152.5 171.241 151.881 171.631C151.266 172.022 150.548 172.217 149.728 172.217ZM149.728 170.963C150.351 170.963 150.863 170.803 151.266 170.484C151.668 170.165 151.965 169.745 152.159 169.224C152.352 168.704 152.448 168.14 152.448 167.533C152.448 166.926 152.352 166.36 152.159 165.835C151.965 165.311 151.668 164.887 151.266 164.564C150.863 164.241 150.351 164.079 149.728 164.079C149.105 164.079 148.592 164.241 148.19 164.564C147.788 164.887 147.49 165.311 147.297 165.835C147.104 166.36 147.007 166.926 147.007 167.533C147.007 168.14 147.104 168.704 147.297 169.224C147.49 169.745 147.788 170.165 148.19 170.484C148.592 170.803 149.105 170.963 149.728 170.963ZM157.724 172.027L154.956 162.943H156.423L158.386 169.898H158.481L160.421 162.943H161.911L163.827 169.875H163.922L165.885 162.943H167.352L164.584 172.027H163.212L161.225 165.049H161.083L159.096 172.027H157.724ZM170.593 166.563V172.027H169.197V162.943H170.545V164.363H170.664C170.877 163.902 171.2 163.531 171.634 163.251C172.067 162.967 172.627 162.825 173.313 162.825C173.928 162.825 174.466 162.951 174.928 163.204C175.389 163.452 175.748 163.831 176.004 164.339C176.26 164.844 176.388 165.483 176.388 166.255V172.027H174.993V166.35C174.993 165.636 174.807 165.08 174.437 164.682C174.066 164.28 173.558 164.079 172.911 164.079C172.465 164.079 172.067 164.176 171.716 164.369C171.369 164.562 171.095 164.844 170.894 165.214C170.693 165.585 170.593 166.035 170.593 166.563ZM195.025 156.012V175.931H193.842V156.012H195.025ZM218.837 163.399C218.789 162.922 218.586 162.551 218.227 162.287C217.869 162.023 217.382 161.891 216.767 161.891C216.349 161.891 215.996 161.95 215.708 162.068C215.42 162.183 215.199 162.342 215.046 162.547C214.896 162.752 214.821 162.985 214.821 163.245C214.813 163.462 214.858 163.651 214.957 163.813C215.059 163.975 215.199 164.114 215.377 164.233C215.554 164.347 215.759 164.448 215.992 164.534C216.224 164.617 216.473 164.688 216.737 164.747L217.825 165.007C218.354 165.126 218.838 165.283 219.28 165.481C219.722 165.678 220.104 165.92 220.427 166.208C220.751 166.496 221.001 166.835 221.178 167.225C221.36 167.616 221.453 168.063 221.456 168.568C221.453 169.309 221.263 169.952 220.889 170.496C220.518 171.036 219.982 171.456 219.28 171.755C218.582 172.051 217.74 172.199 216.755 172.199C215.777 172.199 214.925 172.049 214.2 171.75C213.478 171.45 212.915 171.006 212.508 170.419C212.106 169.827 211.895 169.096 211.876 168.225H214.354C214.381 168.631 214.498 168.97 214.703 169.242C214.912 169.51 215.19 169.713 215.536 169.851C215.887 169.985 216.284 170.052 216.725 170.052C217.159 170.052 217.535 169.989 217.855 169.863C218.178 169.737 218.428 169.561 218.606 169.337C218.783 169.112 218.872 168.854 218.872 168.562C218.872 168.29 218.791 168.061 218.63 167.876C218.472 167.69 218.239 167.533 217.932 167.403C217.628 167.273 217.256 167.154 216.814 167.048L215.495 166.717C214.474 166.468 213.668 166.08 213.076 165.552C212.485 165.023 212.191 164.312 212.195 163.417C212.191 162.683 212.386 162.043 212.781 161.495C213.179 160.947 213.725 160.519 214.419 160.211C215.113 159.904 215.901 159.75 216.784 159.75C217.683 159.75 218.468 159.904 219.138 160.211C219.812 160.519 220.337 160.947 220.711 161.495C221.086 162.043 221.279 162.677 221.291 163.399H218.837ZM223.132 172.027V162.943H225.651V172.027H223.132ZM224.397 161.773C224.023 161.773 223.701 161.648 223.433 161.4C223.169 161.148 223.037 160.846 223.037 160.495C223.037 160.148 223.169 159.85 223.433 159.602C223.701 159.35 224.023 159.224 224.397 159.224C224.772 159.224 225.091 159.35 225.355 159.602C225.623 159.85 225.757 160.148 225.757 160.495C225.757 160.846 225.623 161.148 225.355 161.4C225.091 161.648 224.772 161.773 224.397 161.773ZM230.189 166.776V172.027H227.669V162.943H230.07V164.546H230.177C230.378 164.018 230.715 163.6 231.188 163.292C231.661 162.981 232.235 162.825 232.909 162.825C233.54 162.825 234.09 162.963 234.559 163.239C235.028 163.515 235.393 163.909 235.653 164.422C235.913 164.931 236.043 165.538 236.043 166.244V172.027H233.524V166.693C233.528 166.137 233.386 165.703 233.098 165.392C232.81 165.076 232.414 164.919 231.91 164.919C231.57 164.919 231.271 164.992 231.011 165.138C230.754 165.283 230.553 165.496 230.407 165.776C230.265 166.052 230.192 166.385 230.189 166.776ZM249.798 162.943C249.727 162.344 249.439 161.879 248.935 161.548C248.43 161.217 247.811 161.051 247.078 161.051C246.541 161.051 246.072 161.138 245.67 161.311C245.272 161.485 244.96 161.723 244.736 162.027C244.515 162.33 244.404 162.675 244.404 163.062C244.404 163.385 244.481 163.663 244.635 163.896C244.793 164.124 244.994 164.316 245.238 164.469C245.483 164.619 245.739 164.743 246.007 164.842C246.275 164.937 246.522 165.013 246.746 165.073L247.977 165.404C248.292 165.487 248.643 165.601 249.029 165.747C249.42 165.893 249.792 166.092 250.147 166.344C250.506 166.592 250.801 166.912 251.034 167.302C251.267 167.692 251.383 168.172 251.383 168.739C251.383 169.394 251.212 169.985 250.869 170.513C250.529 171.042 250.033 171.462 249.378 171.773C248.728 172.085 247.937 172.24 247.007 172.24C246.139 172.24 245.388 172.1 244.753 171.82C244.123 171.541 243.626 171.15 243.263 170.649C242.904 170.149 242.701 169.567 242.654 168.905H244.168C244.207 169.362 244.361 169.741 244.629 170.04C244.901 170.336 245.244 170.557 245.658 170.703C246.076 170.845 246.526 170.916 247.007 170.916C247.566 170.916 248.069 170.825 248.515 170.644C248.96 170.458 249.313 170.202 249.573 169.875C249.834 169.544 249.964 169.157 249.964 168.716C249.964 168.313 249.851 167.986 249.627 167.734C249.402 167.482 249.106 167.277 248.739 167.119C248.373 166.961 247.977 166.823 247.551 166.705L246.06 166.279C245.114 166.007 244.365 165.619 243.813 165.114C243.261 164.609 242.985 163.949 242.985 163.133C242.985 162.455 243.168 161.863 243.535 161.359C243.906 160.85 244.402 160.456 245.025 160.176C245.652 159.892 246.352 159.75 247.125 159.75C247.906 159.75 248.599 159.89 249.207 160.17C249.814 160.446 250.295 160.824 250.65 161.305C251.008 161.786 251.198 162.332 251.217 162.943H249.798ZM255.663 172.027L252.896 162.943H254.362L256.326 169.898H256.42L258.36 162.943H259.85L261.767 169.875H261.861L263.825 162.943H265.291L262.524 172.027H261.152L259.164 165.049H259.022L257.035 172.027H255.663ZM269.81 172.24C269.234 172.24 268.712 172.132 268.242 171.915C267.773 171.694 267.401 171.377 267.125 170.963C266.849 170.545 266.711 170.04 266.711 169.449C266.711 168.929 266.813 168.507 267.018 168.183C267.223 167.856 267.497 167.6 267.84 167.415C268.183 167.229 268.562 167.091 268.976 167.001C269.394 166.906 269.814 166.831 270.236 166.776C270.788 166.705 271.235 166.652 271.578 166.616C271.925 166.577 272.177 166.512 272.335 166.421C272.497 166.33 272.577 166.173 272.577 165.948V165.901C272.577 165.317 272.418 164.864 272.098 164.54C271.783 164.217 271.304 164.055 270.661 164.055C269.995 164.055 269.473 164.201 269.094 164.493C268.716 164.785 268.449 165.096 268.296 165.427L266.971 164.954C267.208 164.402 267.523 163.973 267.917 163.665C268.315 163.354 268.749 163.137 269.218 163.014C269.691 162.888 270.157 162.825 270.614 162.825C270.906 162.825 271.241 162.861 271.619 162.932C272.002 162.999 272.37 163.139 272.725 163.352C273.084 163.564 273.382 163.886 273.618 164.316C273.855 164.745 273.973 165.321 273.973 166.042V172.027H272.577V170.797H272.507C272.412 170.994 272.254 171.205 272.033 171.43C271.813 171.655 271.519 171.846 271.152 172.004C270.786 172.162 270.338 172.24 269.81 172.24ZM270.023 170.987C270.575 170.987 271.04 170.878 271.418 170.661C271.801 170.444 272.089 170.165 272.282 169.822C272.479 169.479 272.577 169.118 272.577 168.739V167.462C272.518 167.533 272.388 167.598 272.187 167.657C271.99 167.712 271.761 167.761 271.501 167.805C271.245 167.844 270.994 167.88 270.75 167.911C270.51 167.939 270.314 167.963 270.165 167.982C269.802 168.03 269.463 168.106 269.147 168.213C268.836 168.315 268.584 168.471 268.39 168.68C268.201 168.885 268.106 169.165 268.106 169.52C268.106 170.005 268.286 170.372 268.645 170.62C269.007 170.864 269.467 170.987 270.023 170.987ZM276.521 175.434V162.943H277.869V164.387H278.035C278.137 164.229 278.279 164.028 278.46 163.783C278.646 163.535 278.91 163.314 279.253 163.121C279.6 162.924 280.069 162.825 280.661 162.825C281.425 162.825 282.1 163.016 282.683 163.399C283.267 163.781 283.722 164.323 284.049 165.025C284.377 165.727 284.54 166.555 284.54 167.509C284.54 168.471 284.377 169.305 284.049 170.011C283.722 170.713 283.269 171.257 282.689 171.643C282.109 172.025 281.441 172.217 280.684 172.217C280.101 172.217 279.633 172.12 279.283 171.927C278.932 171.73 278.662 171.507 278.472 171.259C278.283 171.006 278.137 170.797 278.035 170.632H277.916V175.434H276.521ZM277.893 167.485C277.893 168.172 277.993 168.777 278.194 169.301C278.395 169.822 278.689 170.23 279.076 170.525C279.462 170.817 279.935 170.963 280.495 170.963C281.078 170.963 281.565 170.809 281.956 170.502C282.35 170.19 282.646 169.772 282.843 169.248C283.044 168.72 283.144 168.132 283.144 167.485C283.144 166.847 283.046 166.271 282.849 165.759C282.656 165.242 282.362 164.834 281.968 164.534C281.577 164.231 281.086 164.079 280.495 164.079C279.927 164.079 279.45 164.223 279.064 164.511C278.677 164.795 278.386 165.193 278.188 165.705C277.991 166.214 277.893 166.807 277.893 167.485ZM293.104 164.978L291.85 165.333C291.771 165.124 291.655 164.921 291.501 164.724C291.351 164.523 291.146 164.357 290.886 164.227C290.626 164.097 290.293 164.032 289.886 164.032C289.331 164.032 288.867 164.16 288.497 164.416C288.13 164.668 287.947 164.99 287.947 165.38C287.947 165.727 288.073 166.001 288.325 166.202C288.577 166.403 288.972 166.571 289.508 166.705L290.856 167.036C291.669 167.233 292.274 167.535 292.672 167.941C293.07 168.343 293.269 168.861 293.269 169.496C293.269 170.017 293.119 170.482 292.82 170.892C292.524 171.302 292.11 171.625 291.578 171.862C291.046 172.098 290.427 172.217 289.721 172.217C288.794 172.217 288.027 172.016 287.42 171.613C286.813 171.211 286.429 170.624 286.267 169.851L287.592 169.52C287.718 170.009 287.956 170.375 288.307 170.62C288.662 170.864 289.125 170.987 289.697 170.987C290.348 170.987 290.864 170.849 291.247 170.573C291.633 170.293 291.826 169.958 291.826 169.567C291.826 169.252 291.716 168.988 291.495 168.775C291.274 168.558 290.935 168.396 290.478 168.29L288.964 167.935C288.132 167.738 287.521 167.432 287.13 167.018C286.744 166.6 286.551 166.078 286.551 165.451C286.551 164.938 286.695 164.485 286.983 164.091C287.274 163.697 287.671 163.387 288.171 163.162C288.676 162.938 289.248 162.825 289.886 162.825C290.785 162.825 291.491 163.022 292.004 163.417C292.52 163.811 292.887 164.331 293.104 164.978ZM311.456 156.012V175.931H310.274V156.012H311.456ZM335.268 163.399C335.221 162.922 335.018 162.551 334.659 162.287C334.3 162.023 333.813 161.891 333.198 161.891C332.78 161.891 332.427 161.95 332.139 162.068C331.852 162.183 331.631 162.342 331.477 162.547C331.327 162.752 331.252 162.985 331.252 163.245C331.244 163.462 331.29 163.651 331.388 163.813C331.491 163.975 331.631 164.114 331.808 164.233C331.986 164.347 332.191 164.448 332.423 164.534C332.656 164.617 332.904 164.688 333.168 164.747L334.257 165.007C334.785 165.126 335.27 165.283 335.711 165.481C336.153 165.678 336.535 165.92 336.859 166.208C337.182 166.496 337.432 166.835 337.61 167.225C337.791 167.616 337.884 168.063 337.888 168.568C337.884 169.309 337.695 169.952 337.32 170.496C336.949 171.036 336.413 171.456 335.711 171.755C335.014 172.051 334.172 172.199 333.186 172.199C332.208 172.199 331.357 172.049 330.631 171.75C329.91 171.45 329.346 171.006 328.94 170.419C328.538 169.827 328.327 169.096 328.307 168.225H330.785C330.813 168.631 330.929 168.97 331.134 169.242C331.343 169.51 331.621 169.713 331.968 169.851C332.319 169.985 332.715 170.052 333.157 170.052C333.59 170.052 333.967 169.989 334.286 169.863C334.609 169.737 334.86 169.561 335.037 169.337C335.215 169.112 335.303 168.854 335.303 168.562C335.303 168.29 335.223 168.061 335.061 167.876C334.903 167.69 334.671 167.533 334.363 167.403C334.059 167.273 333.687 167.154 333.245 167.048L331.926 166.717C330.905 166.468 330.099 166.08 329.508 165.552C328.916 165.023 328.622 164.312 328.626 163.417C328.622 162.683 328.818 162.043 329.212 161.495C329.61 160.947 330.156 160.519 330.85 160.211C331.544 159.904 332.333 159.75 333.216 159.75C334.115 159.75 334.899 159.904 335.569 160.211C336.244 160.519 336.768 160.947 337.143 161.495C337.517 162.043 337.71 162.677 337.722 163.399H335.268ZM339.563 172.027V162.943H342.082V172.027H339.563ZM340.829 161.773C340.454 161.773 340.133 161.648 339.865 161.4C339.6 161.148 339.468 160.846 339.468 160.495C339.468 160.148 339.6 159.85 339.865 159.602C340.133 159.35 340.454 159.224 340.829 159.224C341.203 159.224 341.522 159.35 341.787 159.602C342.055 159.85 342.189 160.148 342.189 160.495C342.189 160.846 342.055 161.148 341.787 161.4C341.522 161.648 341.203 161.773 340.829 161.773ZM344.101 172.027V162.943H346.502V164.546H346.608C346.797 164.014 347.113 163.594 347.554 163.287C347.996 162.979 348.524 162.825 349.139 162.825C349.762 162.825 350.293 162.981 350.73 163.292C351.168 163.6 351.46 164.018 351.605 164.546H351.7C351.885 164.026 352.22 163.61 352.705 163.298C353.194 162.983 353.772 162.825 354.438 162.825C355.286 162.825 355.974 163.095 356.502 163.635C357.035 164.172 357.301 164.933 357.301 165.918V172.027H354.787V166.415C354.787 165.91 354.653 165.532 354.385 165.28C354.117 165.027 353.782 164.901 353.38 164.901C352.922 164.901 352.565 165.047 352.309 165.339C352.053 165.626 351.925 166.007 351.925 166.48V172.027H349.482V166.362C349.482 165.916 349.354 165.561 349.098 165.297C348.846 165.033 348.512 164.901 348.098 164.901C347.818 164.901 347.566 164.972 347.341 165.114C347.121 165.252 346.945 165.447 346.815 165.699C346.685 165.948 346.62 166.24 346.62 166.575V172.027H344.101ZM364.436 172.027V159.915H365.903V170.726H371.533V172.027H364.436ZM373.615 172.027V162.943H375.01V172.027H373.615ZM374.324 161.429C374.052 161.429 373.818 161.337 373.62 161.152C373.427 160.966 373.331 160.743 373.331 160.483C373.331 160.223 373.427 160 373.62 159.815C373.818 159.63 374.052 159.537 374.324 159.537C374.596 159.537 374.829 159.63 375.022 159.815C375.219 160 375.318 160.223 375.318 160.483C375.318 160.743 375.219 160.966 375.022 161.152C374.829 161.337 374.596 161.429 374.324 161.429ZM377.567 172.027V162.943H378.915V164.363H379.033C379.223 163.878 379.528 163.501 379.95 163.233C380.372 162.961 380.878 162.825 381.47 162.825C382.069 162.825 382.568 162.961 382.966 163.233C383.368 163.501 383.682 163.878 383.906 164.363H384.001C384.234 163.894 384.583 163.521 385.048 163.245C385.513 162.965 386.071 162.825 386.722 162.825C387.534 162.825 388.198 163.08 388.715 163.588C389.231 164.093 389.489 164.879 389.489 165.948V172.027H388.094V165.948C388.094 165.278 387.91 164.799 387.544 164.511C387.177 164.223 386.745 164.079 386.248 164.079C385.61 164.079 385.115 164.272 384.764 164.659C384.413 165.041 384.238 165.526 384.238 166.113V172.027H382.818V165.806C382.818 165.289 382.651 164.873 382.316 164.558C381.98 164.239 381.549 164.079 381.02 164.079C380.658 164.079 380.319 164.176 380.003 164.369C379.692 164.562 379.439 164.83 379.246 165.173C379.057 165.512 378.962 165.904 378.962 166.35V172.027H377.567ZM392.041 172.027V162.943H393.437V172.027H392.041ZM392.751 161.429C392.479 161.429 392.244 161.337 392.047 161.152C391.854 160.966 391.757 160.743 391.757 160.483C391.757 160.223 391.854 160 392.047 159.815C392.244 159.63 392.479 159.537 392.751 159.537C393.023 159.537 393.256 159.63 393.449 159.815C393.646 160 393.745 160.223 393.745 160.483C393.745 160.743 393.646 160.966 393.449 161.152C393.256 161.337 393.023 161.429 392.751 161.429ZM399.944 162.943V164.126H395.236V162.943H399.944ZM396.608 160.767H398.004V169.425C398.004 169.82 398.061 170.115 398.176 170.312C398.294 170.506 398.444 170.636 398.625 170.703C398.81 170.766 399.006 170.797 399.211 170.797C399.364 170.797 399.49 170.789 399.589 170.774C399.688 170.754 399.766 170.738 399.826 170.726L400.109 171.98C400.015 172.016 399.883 172.051 399.713 172.087C399.544 172.126 399.329 172.146 399.069 172.146C398.674 172.146 398.288 172.061 397.909 171.891C397.535 171.722 397.223 171.464 396.975 171.117C396.731 170.77 396.608 170.332 396.608 169.804V160.767ZM405.754 172.217C404.879 172.217 404.124 172.024 403.489 171.637C402.859 171.247 402.372 170.703 402.029 170.005C401.69 169.303 401.52 168.487 401.52 167.556C401.52 166.626 401.69 165.806 402.029 165.096C402.372 164.383 402.849 163.827 403.46 163.428C404.075 163.026 404.792 162.825 405.613 162.825C406.086 162.825 406.553 162.904 407.014 163.062C407.475 163.219 407.895 163.476 408.274 163.831C408.652 164.181 408.954 164.647 409.179 165.226C409.403 165.806 409.516 166.52 409.516 167.367V167.959H402.514V166.752H408.096C408.096 166.24 407.994 165.782 407.789 165.38C407.588 164.978 407.3 164.661 406.925 164.428C406.555 164.195 406.117 164.079 405.613 164.079C405.057 164.079 404.576 164.217 404.169 164.493C403.767 164.765 403.458 165.12 403.241 165.557C403.024 165.995 402.916 166.464 402.916 166.965V167.769C402.916 168.455 403.034 169.037 403.271 169.514C403.511 169.987 403.844 170.348 404.27 170.596C404.696 170.841 405.191 170.963 405.754 170.963C406.121 170.963 406.452 170.912 406.748 170.809C407.048 170.703 407.306 170.545 407.523 170.336C407.74 170.123 407.907 169.859 408.025 169.544L409.374 169.922C409.232 170.379 408.993 170.782 408.658 171.129C408.323 171.472 407.909 171.74 407.416 171.933C406.923 172.122 406.37 172.217 405.754 172.217ZM419.753 172.217C418.996 172.217 418.328 172.025 417.748 171.643C417.169 171.257 416.715 170.713 416.388 170.011C416.061 169.305 415.897 168.471 415.897 167.509C415.897 166.555 416.061 165.727 416.388 165.025C416.715 164.323 417.171 163.781 417.754 163.399C418.338 163.016 419.012 162.825 419.777 162.825C420.368 162.825 420.835 162.924 421.178 163.121C421.525 163.314 421.789 163.535 421.971 163.783C422.156 164.028 422.3 164.229 422.402 164.387H422.521V159.915H423.916V172.027H422.568V170.632H422.402C422.3 170.797 422.154 171.006 421.965 171.259C421.776 171.507 421.506 171.73 421.155 171.927C420.804 172.12 420.337 172.217 419.753 172.217ZM419.942 170.963C420.502 170.963 420.975 170.817 421.362 170.525C421.748 170.23 422.042 169.822 422.243 169.301C422.444 168.777 422.544 168.172 422.544 167.485C422.544 166.807 422.446 166.214 422.249 165.705C422.052 165.193 421.76 164.795 421.373 164.511C420.987 164.223 420.51 164.079 419.942 164.079C419.351 164.079 418.858 164.231 418.464 164.534C418.073 164.834 417.78 165.242 417.583 165.759C417.389 166.271 417.293 166.847 417.293 167.485C417.293 168.132 417.391 168.72 417.588 169.248C417.79 169.772 418.085 170.19 418.476 170.502C418.87 170.809 419.359 170.963 419.942 170.963ZM430.475 172.217C429.6 172.217 428.845 172.024 428.21 171.637C427.579 171.247 427.092 170.703 426.749 170.005C426.41 169.303 426.241 168.487 426.241 167.556C426.241 166.626 426.41 165.806 426.749 165.096C427.092 164.383 427.569 163.827 428.181 163.428C428.796 163.026 429.513 162.825 430.333 162.825C430.806 162.825 431.274 162.904 431.735 163.062C432.196 163.219 432.616 163.476 432.995 163.831C433.373 164.181 433.675 164.647 433.899 165.226C434.124 165.806 434.237 166.52 434.237 167.367V167.959H427.234V166.752H432.817C432.817 166.24 432.715 165.782 432.51 165.38C432.309 164.978 432.021 164.661 431.646 164.428C431.276 164.195 430.838 164.079 430.333 164.079C429.777 164.079 429.296 164.217 428.89 164.493C428.488 164.765 428.179 165.12 427.962 165.557C427.745 165.995 427.636 166.464 427.636 166.965V167.769C427.636 168.455 427.755 169.037 427.991 169.514C428.232 169.987 428.565 170.348 428.991 170.596C429.417 170.841 429.911 170.963 430.475 170.963C430.842 170.963 431.173 170.912 431.469 170.809C431.768 170.703 432.027 170.545 432.243 170.336C432.46 170.123 432.628 169.859 432.746 169.544L434.095 169.922C433.953 170.379 433.714 170.782 433.379 171.129C433.044 171.472 432.63 171.74 432.137 171.933C431.644 172.122 431.09 172.217 430.475 172.217ZM440.57 161.217V159.915H449.654V161.217H445.846V172.027H444.379V161.217H440.57ZM451.729 172.027V162.943H453.125V172.027H451.729ZM452.438 161.429C452.166 161.429 451.932 161.337 451.735 161.152C451.542 160.966 451.445 160.743 451.445 160.483C451.445 160.223 451.542 160 451.735 159.815C451.932 159.63 452.166 159.537 452.438 159.537C452.711 159.537 452.943 159.63 453.136 159.815C453.333 160 453.432 160.223 453.432 160.483C453.432 160.743 453.333 160.966 453.136 161.152C452.943 161.337 452.711 161.429 452.438 161.429ZM459.489 172.217C458.614 172.217 457.859 172.024 457.224 171.637C456.594 171.247 456.107 170.703 455.764 170.005C455.425 169.303 455.255 168.487 455.255 167.556C455.255 166.626 455.425 165.806 455.764 165.096C456.107 164.383 456.584 163.827 457.195 163.428C457.81 163.026 458.527 162.825 459.348 162.825C459.821 162.825 460.288 162.904 460.749 163.062C461.21 163.219 461.63 163.476 462.009 163.831C462.387 164.181 462.689 164.647 462.914 165.226C463.138 165.806 463.251 166.52 463.251 167.367V167.959H456.249V166.752H461.831C461.831 166.24 461.729 165.782 461.524 165.38C461.323 164.978 461.035 164.661 460.66 164.428C460.29 164.195 459.852 164.079 459.348 164.079C458.792 164.079 458.311 164.217 457.905 164.493C457.502 164.765 457.193 165.12 456.976 165.557C456.759 165.995 456.651 166.464 456.651 166.965V167.769C456.651 168.455 456.769 169.037 457.006 169.514C457.246 169.987 457.579 170.348 458.005 170.596C458.431 170.841 458.926 170.963 459.489 170.963C459.856 170.963 460.187 170.912 460.483 170.809C460.783 170.703 461.041 170.545 461.258 170.336C461.475 170.123 461.642 169.859 461.76 169.544L463.109 169.922C462.967 170.379 462.728 170.782 462.393 171.129C462.058 171.472 461.644 171.74 461.151 171.933C460.659 172.122 460.105 172.217 459.489 172.217ZM465.374 172.027V162.943H466.722V164.363H466.841C467.03 163.878 467.335 163.501 467.757 163.233C468.179 162.961 468.686 162.825 469.277 162.825C469.877 162.825 470.375 162.961 470.773 163.233C471.176 163.501 471.489 163.878 471.714 164.363H471.808C472.041 163.894 472.39 163.521 472.855 163.245C473.32 162.965 473.878 162.825 474.529 162.825C475.341 162.825 476.005 163.08 476.522 163.588C477.038 164.093 477.297 164.879 477.297 165.948V172.027H475.901V165.948C475.901 165.278 475.718 164.799 475.351 164.511C474.984 164.223 474.553 164.079 474.056 164.079C473.417 164.079 472.922 164.272 472.571 164.659C472.22 165.041 472.045 165.526 472.045 166.113V172.027H470.626V165.806C470.626 165.289 470.458 164.873 470.123 164.558C469.788 164.239 469.356 164.079 468.828 164.079C468.465 164.079 468.126 164.176 467.811 164.369C467.499 164.562 467.247 164.83 467.054 165.173C466.864 165.512 466.77 165.904 466.77 166.35V172.027H465.374ZM479.849 175.434V162.943H481.197V164.387H481.363C481.465 164.229 481.607 164.028 481.788 163.783C481.974 163.535 482.238 163.314 482.581 163.121C482.928 162.924 483.397 162.825 483.988 162.825C484.753 162.825 485.428 163.016 486.011 163.399C486.595 163.781 487.05 164.323 487.377 165.025C487.704 165.727 487.868 166.555 487.868 167.509C487.868 168.471 487.704 169.305 487.377 170.011C487.05 170.713 486.597 171.257 486.017 171.643C485.437 172.025 484.769 172.217 484.012 172.217C483.429 172.217 482.961 172.12 482.61 171.927C482.26 171.73 481.989 171.507 481.8 171.259C481.611 171.006 481.465 170.797 481.363 170.632H481.244V175.434H479.849ZM481.221 167.485C481.221 168.172 481.321 168.777 481.522 169.301C481.723 169.822 482.017 170.23 482.403 170.525C482.79 170.817 483.263 170.963 483.823 170.963C484.406 170.963 484.893 170.809 485.284 170.502C485.678 170.19 485.974 169.772 486.171 169.248C486.372 168.72 486.472 168.132 486.472 167.485C486.472 166.847 486.374 166.271 486.177 165.759C485.983 165.242 485.69 164.834 485.295 164.534C484.905 164.231 484.414 164.079 483.823 164.079C483.255 164.079 482.778 164.223 482.392 164.511C482.005 164.795 481.713 165.193 481.516 165.705C481.319 166.214 481.221 166.807 481.221 167.485ZM493.687 172.217C492.867 172.217 492.148 172.022 491.529 171.631C490.914 171.241 490.433 170.695 490.086 169.993C489.743 169.291 489.571 168.471 489.571 167.533C489.571 166.587 489.743 165.761 490.086 165.055C490.433 164.349 490.914 163.801 491.529 163.411C492.148 163.02 492.867 162.825 493.687 162.825C494.508 162.825 495.225 163.02 495.84 163.411C496.459 163.801 496.94 164.349 497.283 165.055C497.63 165.761 497.804 166.587 497.804 167.533C497.804 168.471 497.63 169.291 497.283 169.993C496.94 170.695 496.459 171.241 495.84 171.631C495.225 172.022 494.508 172.217 493.687 172.217ZM493.687 170.963C494.31 170.963 494.823 170.803 495.225 170.484C495.627 170.165 495.925 169.745 496.118 169.224C496.311 168.704 496.408 168.14 496.408 167.533C496.408 166.926 496.311 166.36 496.118 165.835C495.925 165.311 495.627 164.887 495.225 164.564C494.823 164.241 494.31 164.079 493.687 164.079C493.065 164.079 492.552 164.241 492.15 164.564C491.748 164.887 491.45 165.311 491.257 165.835C491.064 166.36 490.967 166.926 490.967 167.533C490.967 168.14 491.064 168.704 491.257 169.224C491.45 169.745 491.748 170.165 492.15 170.484C492.552 170.803 493.065 170.963 493.687 170.963ZM516.02 156.012V175.931H514.838V156.012H516.02ZM543.392 159.915V172.027H541.18L535.911 164.404H535.822V172.027H533.261V159.915H535.509L540.737 167.533H540.843V159.915H543.392ZM549.565 172.205C548.646 172.205 547.852 172.01 547.182 171.619C546.515 171.225 546.001 170.677 545.638 169.975C545.275 169.27 545.094 168.451 545.094 167.521C545.094 166.583 545.275 165.763 545.638 165.061C546.001 164.355 546.515 163.807 547.182 163.417C547.852 163.022 548.646 162.825 549.565 162.825C550.484 162.825 551.276 163.022 551.942 163.417C552.613 163.807 553.129 164.355 553.492 165.061C553.855 165.763 554.036 166.583 554.036 167.521C554.036 168.451 553.855 169.27 553.492 169.975C553.129 170.677 552.613 171.225 551.942 171.619C551.276 172.01 550.484 172.205 549.565 172.205ZM549.577 170.253C549.995 170.253 550.344 170.135 550.623 169.898C550.903 169.658 551.114 169.331 551.256 168.917C551.402 168.503 551.475 168.032 551.475 167.503C551.475 166.975 551.402 166.504 551.256 166.09C551.114 165.676 550.903 165.349 550.623 165.108C550.344 164.868 549.995 164.747 549.577 164.747C549.155 164.747 548.8 164.868 548.512 165.108C548.228 165.349 548.013 165.676 547.868 166.09C547.726 166.504 547.655 166.975 547.655 167.503C547.655 168.032 547.726 168.503 547.868 168.917C548.013 169.331 548.228 169.658 548.512 169.898C548.8 170.135 549.155 170.253 549.577 170.253ZM570.566 163.7H569.099C569.012 163.279 568.86 162.908 568.644 162.589C568.431 162.269 568.171 162.001 567.863 161.784C567.559 161.564 567.222 161.398 566.852 161.288C566.481 161.177 566.095 161.122 565.693 161.122C564.959 161.122 564.295 161.307 563.699 161.678C563.108 162.048 562.637 162.595 562.286 163.316C561.939 164.038 561.766 164.923 561.766 165.971C561.766 167.02 561.939 167.905 562.286 168.627C562.637 169.348 563.108 169.894 563.699 170.265C564.295 170.636 564.959 170.821 565.693 170.821C566.095 170.821 566.481 170.766 566.852 170.655C567.222 170.545 567.559 170.381 567.863 170.165C568.171 169.944 568.431 169.674 568.644 169.354C568.86 169.031 569.012 168.66 569.099 168.242H570.566C570.455 168.861 570.254 169.415 569.962 169.904C569.671 170.393 569.308 170.809 568.874 171.152C568.441 171.491 567.954 171.75 567.414 171.927C566.877 172.104 566.304 172.193 565.693 172.193C564.66 172.193 563.741 171.941 562.937 171.436C562.132 170.931 561.499 170.214 561.038 169.283C560.577 168.353 560.346 167.249 560.346 165.971C560.346 164.694 560.577 163.59 561.038 162.66C561.499 161.729 562.132 161.012 562.937 160.507C563.741 160.002 564.66 159.75 565.693 159.75C566.304 159.75 566.877 159.839 567.414 160.016C567.954 160.193 568.441 160.454 568.874 160.797C569.308 161.136 569.671 161.55 569.962 162.039C570.254 162.524 570.455 163.078 570.566 163.7ZM576.437 172.217C575.617 172.217 574.897 172.022 574.278 171.631C573.663 171.241 573.182 170.695 572.835 169.993C572.492 169.291 572.321 168.471 572.321 167.533C572.321 166.587 572.492 165.761 572.835 165.055C573.182 164.349 573.663 163.801 574.278 163.411C574.897 163.02 575.617 162.825 576.437 162.825C577.257 162.825 577.975 163.02 578.59 163.411C579.209 163.801 579.69 164.349 580.033 165.055C580.38 165.761 580.553 166.587 580.553 167.533C580.553 168.471 580.38 169.291 580.033 169.993C579.69 170.695 579.209 171.241 578.59 171.631C577.975 172.022 577.257 172.217 576.437 172.217ZM576.437 170.963C577.06 170.963 577.572 170.803 577.975 170.484C578.377 170.165 578.674 169.745 578.868 169.224C579.061 168.704 579.157 168.14 579.157 167.533C579.157 166.926 579.061 166.36 578.868 165.835C578.674 165.311 578.377 164.887 577.975 164.564C577.572 164.241 577.06 164.079 576.437 164.079C575.814 164.079 575.301 164.241 574.899 164.564C574.497 164.887 574.199 165.311 574.006 165.835C573.813 166.36 573.716 166.926 573.716 167.533C573.716 168.14 573.813 168.704 574.006 169.224C574.199 169.745 574.497 170.165 574.899 170.484C575.301 170.803 575.814 170.963 576.437 170.963ZM582.684 172.027V162.943H584.032V164.363H584.15C584.339 163.878 584.645 163.501 585.067 163.233C585.489 162.961 585.995 162.825 586.587 162.825C587.186 162.825 587.685 162.961 588.083 163.233C588.485 163.501 588.799 163.878 589.023 164.363H589.118C589.351 163.894 589.7 163.521 590.165 163.245C590.63 162.965 591.188 162.825 591.839 162.825C592.651 162.825 593.315 163.08 593.832 163.588C594.348 164.093 594.606 164.879 594.606 165.948V172.027H593.211V165.948C593.211 165.278 593.027 164.799 592.661 164.511C592.294 164.223 591.862 164.079 591.365 164.079C590.727 164.079 590.232 164.272 589.881 164.659C589.53 165.041 589.355 165.526 589.355 166.113V172.027H587.935V165.806C587.935 165.289 587.768 164.873 587.433 164.558C587.097 164.239 586.666 164.079 586.137 164.079C585.775 164.079 585.436 164.176 585.12 164.369C584.809 164.562 584.556 164.83 584.363 165.173C584.174 165.512 584.079 165.904 584.079 166.35V172.027H582.684ZM597.158 172.027V162.943H598.554V172.027H597.158ZM597.868 161.429C597.596 161.429 597.361 161.337 597.164 161.152C596.971 160.966 596.874 160.743 596.874 160.483C596.874 160.223 596.971 160 597.164 159.815C597.361 159.63 597.596 159.537 597.868 159.537C598.14 159.537 598.373 159.63 598.566 159.815C598.763 160 598.861 160.223 598.861 160.483C598.861 160.743 598.763 160.966 598.566 161.152C598.373 161.337 598.14 161.429 597.868 161.429ZM607.545 164.978L606.291 165.333C606.212 165.124 606.096 164.921 605.942 164.724C605.792 164.523 605.587 164.357 605.327 164.227C605.067 164.097 604.734 164.032 604.328 164.032C603.772 164.032 603.308 164.16 602.938 164.416C602.571 164.668 602.388 164.99 602.388 165.38C602.388 165.727 602.514 166.001 602.766 166.202C603.019 166.403 603.413 166.571 603.949 166.705L605.297 167.036C606.11 167.233 606.715 167.535 607.113 167.941C607.511 168.343 607.71 168.861 607.71 169.496C607.71 170.017 607.561 170.482 607.261 170.892C606.965 171.302 606.551 171.625 606.019 171.862C605.487 172.098 604.868 172.217 604.162 172.217C603.235 172.217 602.469 172.016 601.861 171.613C601.254 171.211 600.87 170.624 600.708 169.851L602.033 169.52C602.159 170.009 602.398 170.375 602.748 170.62C603.103 170.864 603.567 170.987 604.138 170.987C604.789 170.987 605.305 170.849 605.688 170.573C606.074 170.293 606.267 169.958 606.267 169.567C606.267 169.252 606.157 168.988 605.936 168.775C605.715 168.558 605.376 168.396 604.919 168.29L603.405 167.935C602.573 167.738 601.962 167.432 601.572 167.018C601.185 166.6 600.992 166.078 600.992 165.451C600.992 164.938 601.136 164.485 601.424 164.091C601.715 163.697 602.112 163.387 602.612 163.162C603.117 162.938 603.689 162.825 604.328 162.825C605.226 162.825 605.932 163.022 606.445 163.417C606.961 163.811 607.328 164.331 607.545 164.978ZM609.811 172.027V162.943H611.207V172.027H609.811ZM610.521 161.429C610.249 161.429 610.014 161.337 609.817 161.152C609.624 160.966 609.527 160.743 609.527 160.483C609.527 160.223 609.624 160 609.817 159.815C610.014 159.63 610.249 159.537 610.521 159.537C610.793 159.537 611.026 159.63 611.219 159.815C611.416 160 611.515 160.223 611.515 160.483C611.515 160.743 611.416 160.966 611.219 161.152C611.026 161.337 610.793 161.429 610.521 161.429ZM617.454 172.217C616.634 172.217 615.914 172.022 615.295 171.631C614.68 171.241 614.199 170.695 613.852 169.993C613.509 169.291 613.338 168.471 613.338 167.533C613.338 166.587 613.509 165.761 613.852 165.055C614.199 164.349 614.68 163.801 615.295 163.411C615.914 163.02 616.634 162.825 617.454 162.825C618.274 162.825 618.991 163.02 619.606 163.411C620.225 163.801 620.706 164.349 621.049 165.055C621.396 165.761 621.57 166.587 621.57 167.533C621.57 168.471 621.396 169.291 621.049 169.993C620.706 170.695 620.225 171.241 619.606 171.631C618.991 172.022 618.274 172.217 617.454 172.217ZM617.454 170.963C618.077 170.963 618.589 170.803 618.991 170.484C619.394 170.165 619.691 169.745 619.884 169.224C620.078 168.704 620.174 168.14 620.174 167.533C620.174 166.926 620.078 166.36 619.884 165.835C619.691 165.311 619.394 164.887 618.991 164.564C618.589 164.241 618.077 164.079 617.454 164.079C616.831 164.079 616.318 164.241 615.916 164.564C615.514 164.887 615.216 165.311 615.023 165.835C614.83 166.36 614.733 166.926 614.733 167.533C614.733 168.14 614.83 168.704 615.023 169.224C615.216 169.745 615.514 170.165 615.916 170.484C616.318 170.803 616.831 170.963 617.454 170.963ZM625.096 166.563V172.027H623.7V162.943H625.049V164.363H625.167C625.38 163.902 625.703 163.531 626.137 163.251C626.571 162.967 627.131 162.825 627.817 162.825C628.432 162.825 628.97 162.951 629.431 163.204C629.892 163.452 630.251 163.831 630.507 164.339C630.764 164.844 630.892 165.483 630.892 166.255V172.027H629.496V166.35C629.496 165.636 629.311 165.08 628.94 164.682C628.57 164.28 628.061 164.079 627.414 164.079C626.969 164.079 626.571 164.176 626.22 164.369C625.873 164.562 625.599 164.844 625.398 165.214C625.197 165.585 625.096 166.035 625.096 166.563ZM637.251 172.217C636.376 172.217 635.621 172.024 634.986 171.637C634.355 171.247 633.868 170.703 633.525 170.005C633.186 169.303 633.017 168.487 633.017 167.556C633.017 166.626 633.186 165.806 633.525 165.096C633.868 164.383 634.345 163.827 634.956 163.428C635.571 163.026 636.289 162.825 637.109 162.825C637.582 162.825 638.049 162.904 638.511 163.062C638.972 163.219 639.392 163.476 639.77 163.831C640.149 164.181 640.45 164.647 640.675 165.226C640.9 165.806 641.012 166.52 641.012 167.367V167.959H634.01V166.752H639.593C639.593 166.24 639.49 165.782 639.285 165.38C639.084 164.978 638.797 164.661 638.422 164.428C638.051 164.195 637.614 164.079 637.109 164.079C636.553 164.079 636.072 164.217 635.666 164.493C635.264 164.765 634.954 165.12 634.738 165.557C634.521 165.995 634.412 166.464 634.412 166.965V167.769C634.412 168.455 634.531 169.037 634.767 169.514C635.008 169.987 635.341 170.348 635.767 170.596C636.192 170.841 636.687 170.963 637.251 170.963C637.618 170.963 637.949 170.912 638.245 170.809C638.544 170.703 638.802 170.545 639.019 170.336C639.236 170.123 639.404 169.859 639.522 169.544L640.87 169.922C640.728 170.379 640.49 170.782 640.155 171.129C639.82 171.472 639.406 171.74 638.913 171.933C638.42 172.122 637.866 172.217 637.251 172.217ZM649.57 164.978L648.316 165.333C648.237 165.124 648.121 164.921 647.967 164.724C647.817 164.523 647.612 164.357 647.352 164.227C647.092 164.097 646.759 164.032 646.353 164.032C645.797 164.032 645.334 164.16 644.963 164.416C644.596 164.668 644.413 164.99 644.413 165.38C644.413 165.727 644.539 166.001 644.791 166.202C645.044 166.403 645.438 166.571 645.974 166.705L647.323 167.036C648.135 167.233 648.74 167.535 649.138 167.941C649.536 168.343 649.736 168.861 649.736 169.496C649.736 170.017 649.586 170.482 649.286 170.892C648.99 171.302 648.576 171.625 648.044 171.862C647.512 172.098 646.893 172.217 646.187 172.217C645.261 172.217 644.494 172.016 643.887 171.613C643.279 171.211 642.895 170.624 642.733 169.851L644.058 169.52C644.184 170.009 644.423 170.375 644.774 170.62C645.129 170.864 645.592 170.987 646.163 170.987C646.814 170.987 647.33 170.849 647.713 170.573C648.099 170.293 648.293 169.958 648.293 169.567C648.293 169.252 648.182 168.988 647.961 168.775C647.741 168.558 647.401 168.396 646.944 168.29L645.43 167.935C644.598 167.738 643.987 167.432 643.597 167.018C643.21 166.6 643.017 166.078 643.017 165.451C643.017 164.938 643.161 164.485 643.449 164.091C643.741 163.697 644.137 163.387 644.638 163.162C645.142 162.938 645.714 162.825 646.353 162.825C647.252 162.825 647.957 163.022 648.47 163.417C648.986 163.811 649.353 164.331 649.57 164.978Z" fill="#0B111D"/>
</g>
<rect x="0.5" y="0.5" width="668" height="193" rx="9.5" stroke="url(#paint0_linear_3489_1888)"/>
<defs>
<filter id="filter0_f_3489_1888" x="106" y="41" width="457" height="457" filterUnits="userSpaceOnUse" color-interpolation-filters="sRGB">
<feFlood flood-opacity="0" result="BackgroundImageFix"/>
<feBlend mode="normal" in="SourceGraphic" in2="BackgroundImageFix" result="shape"/>
<feGaussianBlur stdDeviation="50" result="effect1_foregroundBlur_3489_1888"/>
</filter>
<filter id="filter1_f_3489_1888" x="106" y="-366" width="457" height="457" filterUnits="userSpaceOnUse" color-interpolation-filters="sRGB">
<feFlood flood-opacity="0" result="BackgroundImageFix"/>
<feBlend mode="normal" in="SourceGraphic" in2="BackgroundImageFix" result="shape"/>
<feGaussianBlur stdDeviation="50" result="effect1_foregroundBlur_3489_1888"/>
</filter>
<linearGradient id="paint0_linear_3489_1888" x1="-12.5" y1="-14" x2="684" y2="234.5" gradientUnits="userSpaceOnUse">
<stop stop-color="#0052B4"/>
<stop offset="1" stop-color="#45D1FF"/>
</linearGradient>
<clipPath id="clip0_3489_1888">
<rect width="669" height="194" rx="10" fill="white"/>
</clipPath>
</defs>
</svg>
