<svg width="190" height="94" viewBox="0 0 190 94" fill="none" xmlns="http://www.w3.org/2000/svg">
<path d="M4.57237 82.3068V81.3809H11.0368V82.3068H8.32647V90.0002H7.28273V82.3068H4.57237ZM11.4862 90.0002V83.5357H12.4457V84.5121H12.5131C12.6309 84.1923 12.8442 83.9327 13.1528 83.7335C13.4614 83.5343 13.8093 83.4347 14.1965 83.4347C14.2695 83.4347 14.3607 83.4361 14.4701 83.4389C14.5795 83.4417 14.6623 83.4459 14.7184 83.4515V84.4616C14.6847 84.4532 14.6076 84.4406 14.4869 84.4237C14.3691 84.4041 14.2442 84.3943 14.1124 84.3943C13.7981 84.3943 13.5175 84.4602 13.2706 84.5921C13.0265 84.7211 12.8329 84.9007 12.6898 85.1308C12.5496 85.358 12.4794 85.6176 12.4794 85.9094V90.0002H11.4862ZM19.6142 87.3571V83.5357H20.6074V90.0002H19.6142V88.9059H19.5468C19.3953 89.2342 19.1596 89.5134 18.8398 89.7434C18.5199 89.9707 18.1159 90.0843 17.6277 90.0843C17.2237 90.0843 16.8645 89.9959 16.5503 89.8192C16.236 89.6396 15.9891 89.3703 15.8096 89.0111C15.63 88.6492 15.5402 88.1932 15.5402 87.6433V83.5357H16.5335V87.576C16.5335 88.0474 16.6653 88.4233 16.9291 88.7039C17.1956 88.9845 17.5351 89.1248 17.9475 89.1248C18.1945 89.1248 18.4456 89.0616 18.7009 88.9354C18.959 88.8091 19.1751 88.6155 19.349 88.3546C19.5258 88.0936 19.6142 87.7612 19.6142 87.3571ZM26.65 84.9835L25.7578 85.236C25.7017 85.0873 25.6189 84.9428 25.5095 84.8025C25.4029 84.6594 25.257 84.5416 25.0718 84.449C24.8866 84.3564 24.6495 84.3101 24.3605 84.3101C23.9649 84.3101 23.6352 84.4013 23.3715 84.5837C23.1106 84.7632 22.9801 84.9919 22.9801 85.2697C22.9801 85.5166 23.0699 85.7116 23.2494 85.8547C23.429 85.9978 23.7096 86.117 24.0912 86.2124L25.0507 86.4481C25.6287 86.5884 26.0594 86.803 26.3428 87.092C26.6262 87.3782 26.7679 87.7471 26.7679 88.1989C26.7679 88.5692 26.6612 88.9003 26.448 89.1921C26.2376 89.4839 25.943 89.714 25.5642 89.8823C25.1854 90.0507 24.7449 90.1348 24.2427 90.1348C23.5833 90.1348 23.0376 89.9917 22.6055 89.7055C22.1734 89.4194 21.8999 89.0013 21.7848 88.4514L22.7276 88.2157C22.8174 88.5636 22.9871 88.8245 23.2368 88.9985C23.4893 89.1725 23.819 89.2594 24.2258 89.2594C24.6888 89.2594 25.0563 89.1612 25.3285 88.9648C25.6035 88.7656 25.741 88.5271 25.741 88.2494C25.741 88.0249 25.6624 87.8369 25.5053 87.6854C25.3481 87.5311 25.1069 87.4161 24.7814 87.3403L23.704 87.0878C23.112 86.9475 22.6771 86.7301 22.3993 86.4354C22.1243 86.138 21.9869 85.7663 21.9869 85.3202C21.9869 84.9554 22.0893 84.6328 22.2941 84.3522C22.5017 84.0716 22.7837 83.8514 23.14 83.6914C23.4992 83.5315 23.906 83.4515 24.3605 83.4515C25.0002 83.4515 25.5025 83.5918 25.8672 83.8724C26.2348 84.153 26.4957 84.5233 26.65 84.9835ZM30.7188 83.5357V84.3774H27.3687V83.5357H30.7188ZM28.3451 81.9869H29.3384V88.1484C29.3384 88.4289 29.379 88.6394 29.4604 88.7797C29.5446 88.9171 29.6512 89.0097 29.7803 89.0574C29.9121 89.1023 30.051 89.1248 30.1969 89.1248C30.3063 89.1248 30.3961 89.1191 30.4663 89.1079C30.5364 89.0939 30.5925 89.0827 30.6346 89.0743L30.8366 89.9665C30.7693 89.9917 30.6753 90.017 30.5547 90.0422C30.434 90.0703 30.2811 90.0843 30.0959 90.0843C29.8153 90.0843 29.5404 90.024 29.271 89.9034C29.0045 89.7827 28.7828 89.5989 28.6061 89.352C28.4321 89.1051 28.3451 88.7937 28.3451 88.4177V81.9869ZM36.7056 83.5357C36.6551 83.1092 36.4503 82.7782 36.0912 82.5425C35.732 82.3068 35.2915 82.1889 34.7697 82.1889C34.3881 82.1889 34.0542 82.2507 33.768 82.3741C33.4846 82.4976 33.263 82.6673 33.1031 82.8834C32.9459 83.0994 32.8674 83.3449 32.8674 83.6199C32.8674 83.8499 32.9221 84.0478 33.0315 84.2133C33.1437 84.376 33.2868 84.5121 33.4608 84.6215C33.6347 84.7281 33.8171 84.8165 34.0079 84.8867C34.1987 84.954 34.3741 85.0087 34.534 85.0508L35.4094 85.2865C35.6338 85.3454 35.8836 85.4268 36.1585 85.5306C36.4363 85.6344 36.7014 85.7761 36.9539 85.9557C37.2093 86.1324 37.4197 86.3597 37.5852 86.6375C37.7508 86.9152 37.8335 87.2561 37.8335 87.6602C37.8335 88.1259 37.7115 88.5468 37.4674 88.9227C37.2261 89.2987 36.8726 89.5975 36.4068 89.8192C35.9439 90.0408 35.3813 90.1517 34.7192 90.1517C34.1019 90.1517 33.5674 90.0521 33.1157 89.8529C32.6668 89.6536 32.3132 89.3759 32.0551 89.0195C31.7998 88.6632 31.6553 88.2494 31.6216 87.778H32.699C32.7271 88.1035 32.8365 88.3728 33.0273 88.5861C33.2209 88.7965 33.465 88.9536 33.7596 89.0574C34.057 89.1584 34.3769 89.2089 34.7192 89.2089C35.1176 89.2089 35.4753 89.1444 35.7924 89.0153C36.1094 88.8835 36.3605 88.7011 36.5457 88.4682C36.7309 88.2325 36.8235 87.9576 36.8235 87.6433C36.8235 87.3571 36.7435 87.1243 36.5836 86.9447C36.4237 86.7651 36.2132 86.6192 35.9523 86.507C35.6914 86.3948 35.4094 86.2966 35.1064 86.2124L34.0458 85.9094C33.3724 85.7158 32.8393 85.4394 32.4465 85.0803C32.0537 84.7211 31.8573 84.2512 31.8573 83.6704C31.8573 83.1878 31.9878 82.7669 32.2487 82.4078C32.5124 82.0459 32.866 81.7653 33.3093 81.5661C33.7554 81.3641 34.2534 81.263 34.8033 81.263C35.3589 81.263 35.8527 81.3627 36.2848 81.5619C36.7169 81.7583 37.0592 82.0276 37.3117 82.3699C37.567 82.7122 37.7017 83.1008 37.7157 83.5357H36.7056ZM41.6856 90.1348C41.0795 90.1348 40.5577 89.9917 40.12 89.7055C39.6823 89.4194 39.3456 89.0252 39.1099 88.5229C38.8742 88.0207 38.7564 87.4469 38.7564 86.8016C38.7564 86.1451 38.877 85.5657 39.1183 85.0634C39.3624 84.5584 39.7019 84.1642 40.1368 83.8808C40.5745 83.5946 41.0851 83.4515 41.6687 83.4515C42.1233 83.4515 42.5329 83.5357 42.8977 83.7041C43.2624 83.8724 43.5612 84.1081 43.7941 84.4111C44.027 84.7141 44.1715 85.0676 44.2276 85.4717H43.2344C43.1586 85.1771 42.9903 84.9161 42.7293 84.6889C42.4712 84.4588 42.1233 84.3438 41.6856 84.3438C41.2984 84.3438 40.9589 84.4448 40.6671 84.6468C40.3781 84.846 40.1522 85.128 39.9895 85.4927C39.8296 85.8547 39.7496 86.2797 39.7496 86.7679C39.7496 87.2674 39.8282 87.7022 39.9853 88.0726C40.1452 88.443 40.3697 88.7306 40.6587 88.9354C40.9505 89.1402 41.2928 89.2426 41.6856 89.2426C41.9437 89.2426 42.178 89.1977 42.3884 89.1079C42.5988 89.0181 42.777 88.8891 42.9229 88.7207C43.0688 88.5524 43.1726 88.3504 43.2344 88.1147H44.2276C44.1715 88.4963 44.0326 88.84 43.8109 89.1458C43.5921 89.4488 43.3017 89.6901 42.9397 89.8697C42.5806 90.0464 42.1626 90.1348 41.6856 90.1348ZM47.9502 90.1348C47.3666 90.1348 46.8546 89.9959 46.4141 89.7182C45.9764 89.4404 45.6341 89.0518 45.3871 88.5524C45.143 88.053 45.021 87.4694 45.021 86.8016C45.021 86.1282 45.143 85.5404 45.3871 85.0382C45.6341 84.536 45.9764 84.146 46.4141 83.8682C46.8546 83.5904 47.3666 83.4515 47.9502 83.4515C48.5338 83.4515 49.0444 83.5904 49.4821 83.8682C49.9226 84.146 50.2649 84.536 50.509 85.0382C50.7559 85.5404 50.8794 86.1282 50.8794 86.8016C50.8794 87.4694 50.7559 88.053 50.509 88.5524C50.2649 89.0518 49.9226 89.4404 49.4821 89.7182C49.0444 89.9959 48.5338 90.1348 47.9502 90.1348ZM47.9502 89.2426C48.3935 89.2426 48.7583 89.129 49.0444 88.9017C49.3306 88.6744 49.5425 88.3756 49.6799 88.0053C49.8174 87.6349 49.8862 87.2337 49.8862 86.8016C49.8862 86.3695 49.8174 85.9669 49.6799 85.5937C49.5425 85.2206 49.3306 84.9189 49.0444 84.6889C48.7583 84.4588 48.3935 84.3438 47.9502 84.3438C47.5069 84.3438 47.1421 84.4588 46.856 84.6889C46.5698 84.9189 46.3579 85.2206 46.2205 85.5937C46.083 85.9669 46.0142 86.3695 46.0142 86.8016C46.0142 87.2337 46.083 87.6349 46.2205 88.0053C46.3579 88.3756 46.5698 88.6744 46.856 88.9017C47.1421 89.129 47.5069 89.2426 47.9502 89.2426ZM52.04 90.0002V83.5357H52.9996V84.5121H53.0669C53.1848 84.1923 53.398 83.9327 53.7066 83.7335C54.0153 83.5343 54.3632 83.4347 54.7504 83.4347C54.8233 83.4347 54.9145 83.4361 55.0239 83.4389C55.1334 83.4417 55.2161 83.4459 55.2722 83.4515V84.4616C55.2386 84.4532 55.1614 84.4406 55.0408 84.4237C54.9229 84.4041 54.7981 84.3943 54.6662 84.3943C54.352 84.3943 54.0714 84.4602 53.8245 84.5921C53.5804 84.7211 53.3868 84.9007 53.2437 85.1308C53.1034 85.358 53.0332 85.6176 53.0332 85.9094V90.0002H52.04ZM58.6077 90.1348C57.9848 90.1348 57.4475 89.9973 56.9957 89.7224C56.5468 89.4446 56.2003 89.0574 55.9562 88.5608C55.7149 88.0614 55.5943 87.4806 55.5943 86.8184C55.5943 86.1563 55.7149 85.5727 55.9562 85.0676C56.2003 84.5598 56.5398 84.1642 56.9747 83.8808C57.4124 83.5946 57.923 83.4515 58.5066 83.4515C58.8433 83.4515 59.1758 83.5076 59.5041 83.6199C59.8324 83.7321 60.1312 83.9145 60.4005 84.167C60.6699 84.4167 60.8845 84.7478 61.0444 85.1602C61.2044 85.5727 61.2843 86.0805 61.2843 86.6838V87.1046H56.3013V86.2461H60.2743C60.2743 85.8813 60.2013 85.5558 60.0554 85.2697C59.9123 84.9835 59.7075 84.7576 59.441 84.5921C59.1772 84.4265 58.8658 84.3438 58.5066 84.3438C58.111 84.3438 57.7687 84.442 57.4797 84.6384C57.1936 84.832 56.9733 85.0845 56.819 85.3959C56.6647 85.7074 56.5875 86.0412 56.5875 86.3976V86.9699C56.5875 87.4581 56.6717 87.872 56.84 88.2115C57.0112 88.5482 57.2483 88.8049 57.5513 88.9817C57.8543 89.1556 58.2064 89.2426 58.6077 89.2426C58.8686 89.2426 59.1043 89.2061 59.3147 89.1332C59.5279 89.0574 59.7117 88.9452 59.866 88.7965C60.0203 88.645 60.1396 88.457 60.2238 88.2325L61.1833 88.5019C61.0823 88.8273 60.9126 89.1135 60.6741 89.3604C60.4356 89.6045 60.141 89.7953 59.7903 89.9328C59.4396 90.0675 59.0453 90.1348 58.6077 90.1348ZM65.1186 88.4009V87.1593L68.7759 81.3809H69.8112V83.1485H69.1799L66.7178 87.0499V87.1172H71.8229V88.4009H65.1186ZM69.2304 90.0002V88.0221L69.2472 87.4666V81.3809H70.7202V90.0002H69.2304ZM73.5243 90.0927C73.269 90.0927 73.0501 90.003 72.8678 89.8234C72.6854 89.6438 72.5956 89.425 72.5984 89.1668C72.5956 88.9143 72.6854 88.6983 72.8678 88.5187C73.0501 88.3391 73.269 88.2494 73.5243 88.2494C73.7712 88.2494 73.9859 88.3391 74.1682 88.5187C74.3534 88.6983 74.4474 88.9143 74.4502 89.1668C74.4474 89.338 74.4025 89.4937 74.3155 89.634C74.2314 89.7743 74.1191 89.8865 73.9789 89.9707C73.8414 90.0521 73.6899 90.0927 73.5243 90.0927ZM78.5011 90.1643C77.8081 90.1643 77.2133 89.9889 76.7167 89.6382C76.2228 89.2847 75.8427 88.7754 75.5761 88.1105C75.3124 87.4427 75.1805 86.6389 75.1805 85.6989C75.1833 84.759 75.3166 83.9594 75.5803 83.3C75.8469 82.6379 76.227 82.1328 76.7209 81.7849C77.2175 81.437 77.8109 81.263 78.5011 81.263C79.1913 81.263 79.7847 81.437 80.2814 81.7849C80.778 82.1328 81.1582 82.6379 81.4219 83.3C81.6884 83.9622 81.8217 84.7618 81.8217 85.6989C81.8217 86.6417 81.6884 87.4469 81.4219 88.1147C81.1582 88.7797 80.778 89.2875 80.2814 89.6382C79.7875 89.9889 79.1941 90.1643 78.5011 90.1643ZM78.5011 88.847C79.0398 88.847 79.4649 88.5818 79.7763 88.0516C80.0906 87.5185 80.2477 86.7343 80.2477 85.6989C80.2477 85.0143 80.1761 84.4392 80.033 83.9734C79.89 83.5076 79.6879 83.1569 79.427 82.9212C79.1661 82.6828 78.8574 82.5635 78.5011 82.5635C77.9652 82.5635 77.5415 82.8301 77.2301 83.3632C76.9187 83.8934 76.7615 84.672 76.7587 85.6989C76.7559 86.3863 76.8247 86.9643 76.965 87.4329C77.1081 87.9015 77.3101 88.255 77.571 88.4935C77.8319 88.7291 78.142 88.847 78.5011 88.847ZM97.5551 88.485V87.0499L101.153 81.3809H102.391V83.3674H101.659L99.3901 86.9573V87.0247H104.504V88.485H97.5551ZM101.692 90.0002V88.0474L101.726 87.4118V81.3809H103.435V90.0002H101.692ZM107.166 88.8217L107.119 89.2847C107.083 89.655 107.013 90.024 106.909 90.3916C106.808 90.7619 106.701 91.0972 106.589 91.3974C106.48 91.6976 106.391 91.9333 106.324 92.1045H105.162C105.204 91.9389 105.262 91.7075 105.335 91.41C105.408 91.1154 105.477 90.7844 105.541 90.4168C105.606 90.0493 105.646 89.6747 105.663 89.2931L105.684 88.8217H107.166ZM111.106 81.3809V90.0002H109.284V83.1106H109.233L107.259 84.348V82.7319L109.393 81.3809H111.106ZM116.549 81.3809V90.0002H114.727V83.1106H114.676L112.702 84.348V82.7319L114.836 81.3809H116.549ZM121.992 81.3809V90.0002H120.169V83.1106H120.119L118.145 84.348V82.7319L120.279 81.3809H121.992ZM127.008 90.0002V81.3809H129.92C130.593 81.3809 131.146 81.4959 131.578 81.726C132.01 81.9533 132.33 82.2661 132.538 82.6645C132.745 83.0629 132.849 83.5161 132.849 84.0239C132.849 84.5317 132.745 84.9821 132.538 85.3749C132.33 85.7677 132.012 86.0763 131.582 86.3008C131.153 86.5224 130.605 86.6333 129.937 86.6333H127.58V85.6905H129.903C130.363 85.6905 130.734 85.6232 131.014 85.4885C131.298 85.3538 131.502 85.163 131.629 84.9161C131.758 84.6664 131.822 84.369 131.822 84.0239C131.822 83.6788 131.758 83.3772 131.629 83.1191C131.5 82.8609 131.293 82.6617 131.01 82.5214C130.727 82.3783 130.352 82.3068 129.886 82.3068H128.051V90.0002H127.008ZM131.065 86.1282L133.186 90.0002H131.974L129.886 86.1282H131.065ZM136.739 90.1348C136.116 90.1348 135.579 89.9973 135.127 89.7224C134.678 89.4446 134.332 89.0574 134.088 88.5608C133.846 88.0614 133.726 87.4806 133.726 86.8184C133.726 86.1563 133.846 85.5727 134.088 85.0676C134.332 84.5598 134.671 84.1642 135.106 83.8808C135.544 83.5946 136.054 83.4515 136.638 83.4515C136.975 83.4515 137.307 83.5076 137.635 83.6199C137.964 83.7321 138.263 83.9145 138.532 84.167C138.801 84.4167 139.016 84.7478 139.176 85.1602C139.336 85.5727 139.416 86.0805 139.416 86.6838V87.1046H134.433V86.2461H138.406C138.406 85.8813 138.333 85.5558 138.187 85.2697C138.044 84.9835 137.839 84.7576 137.572 84.5921C137.309 84.4265 136.997 84.3438 136.638 84.3438C136.242 84.3438 135.9 84.442 135.611 84.6384C135.325 84.832 135.105 85.0845 134.95 85.3959C134.796 85.7074 134.719 86.0412 134.719 86.3976V86.9699C134.719 87.4581 134.803 87.872 134.971 88.2115C135.143 88.5482 135.38 88.8049 135.683 88.9817C135.986 89.1556 136.338 89.2426 136.739 89.2426C137 89.2426 137.236 89.2061 137.446 89.1332C137.659 89.0574 137.843 88.9452 137.997 88.7965C138.152 88.645 138.271 88.457 138.355 88.2325L139.315 88.5019C139.214 88.8273 139.044 89.1135 138.805 89.3604C138.567 89.6045 138.272 89.7953 137.922 89.9328C137.571 90.0675 137.177 90.1348 136.739 90.1348ZM145.66 83.5357L143.27 90.0002H142.26L139.869 83.5357H140.947L142.731 88.6871H142.798L144.583 83.5357H145.66ZM146.616 90.0002V83.5357H147.609V90.0002H146.616ZM147.121 82.4583C146.927 82.4583 146.76 82.3924 146.62 82.2605C146.483 82.1286 146.414 81.9701 146.414 81.7849C146.414 81.5997 146.483 81.4412 146.62 81.3093C146.76 81.1775 146.927 81.1115 147.121 81.1115C147.314 81.1115 147.48 81.1775 147.617 81.3093C147.758 81.4412 147.828 81.5997 147.828 81.7849C147.828 81.9701 147.758 82.1286 147.617 82.2605C147.48 82.3924 147.314 82.4583 147.121 82.4583ZM151.783 90.1348C151.16 90.1348 150.623 89.9973 150.171 89.7224C149.722 89.4446 149.376 89.0574 149.132 88.5608C148.89 88.0614 148.77 87.4806 148.77 86.8184C148.77 86.1563 148.89 85.5727 149.132 85.0676C149.376 84.5598 149.715 84.1642 150.15 83.8808C150.588 83.5946 151.098 83.4515 151.682 83.4515C152.019 83.4515 152.351 83.5076 152.679 83.6199C153.008 83.7321 153.307 83.9145 153.576 84.167C153.845 84.4167 154.06 84.7478 154.22 85.1602C154.38 85.5727 154.46 86.0805 154.46 86.6838V87.1046H149.477V86.2461H153.45C153.45 85.8813 153.377 85.5558 153.231 85.2697C153.088 84.9835 152.883 84.7576 152.616 84.5921C152.353 84.4265 152.041 84.3438 151.682 84.3438C151.286 84.3438 150.944 84.442 150.655 84.6384C150.369 84.832 150.149 85.0845 149.994 85.3959C149.84 85.7074 149.763 86.0412 149.763 86.3976V86.9699C149.763 87.4581 149.847 87.872 150.015 88.2115C150.187 88.5482 150.424 88.8049 150.727 88.9817C151.03 89.1556 151.382 89.2426 151.783 89.2426C152.044 89.2426 152.28 89.2061 152.49 89.1332C152.703 89.0574 152.887 88.9452 153.041 88.7965C153.196 88.645 153.315 88.457 153.399 88.2325L154.359 88.5019C154.258 88.8273 154.088 89.1135 153.849 89.3604C153.611 89.6045 153.316 89.7953 152.966 89.9328C152.615 90.0675 152.221 90.1348 151.783 90.1348ZM157.08 90.0002L155.11 83.5357H156.154L157.551 88.485H157.618L158.999 83.5357H160.059L161.423 88.4682H161.49L162.888 83.5357H163.931L161.962 90.0002H160.985L159.571 85.034H159.47L158.056 90.0002H157.08ZM169.468 84.9835L168.576 85.236C168.519 85.0873 168.437 84.9428 168.327 84.8025C168.221 84.6594 168.075 84.5416 167.89 84.449C167.704 84.3564 167.467 84.3101 167.178 84.3101C166.783 84.3101 166.453 84.4013 166.189 84.5837C165.928 84.7632 165.798 84.9919 165.798 85.2697C165.798 85.5166 165.888 85.7116 166.067 85.8547C166.247 85.9978 166.527 86.117 166.909 86.2124L167.869 86.4481C168.447 86.5884 168.877 86.803 169.161 87.092C169.444 87.3782 169.586 87.7471 169.586 88.1989C169.586 88.5692 169.479 88.9003 169.266 89.1921C169.055 89.4839 168.761 89.714 168.382 89.8823C168.003 90.0507 167.563 90.1348 167.06 90.1348C166.401 90.1348 165.855 89.9917 165.423 89.7055C164.991 89.4194 164.718 89.0013 164.603 88.4514L165.545 88.2157C165.635 88.5636 165.805 88.8245 166.055 88.9985C166.307 89.1725 166.637 89.2594 167.044 89.2594C167.507 89.2594 167.874 89.1612 168.146 88.9648C168.421 88.7656 168.559 88.5271 168.559 88.2494C168.559 88.0249 168.48 87.8369 168.323 87.6854C168.166 87.5311 167.925 87.4161 167.599 87.3403L166.522 87.0878C165.93 86.9475 165.495 86.7301 165.217 86.4354C164.942 86.138 164.805 85.7663 164.805 85.3202C164.805 84.9554 164.907 84.6328 165.112 84.3522C165.32 84.0716 165.601 83.8514 165.958 83.6914C166.317 83.5315 166.724 83.4515 167.178 83.4515C167.818 83.4515 168.32 83.5918 168.685 83.8724C169.053 84.153 169.313 84.5233 169.468 84.9835Z" fill="white"/>
<rect width="34" height="34" transform="translate(4 36.0002)" fill="#72C619"/>
<path d="M32.4117 50.4504H23.4716L20.7101 42.0002L17.9401 50.4504L9 50.4419L16.2401 55.6697L13.47 64.1115L20.7101 58.8922L27.9416 64.1115L25.1802 55.6697L32.4117 50.4504Z" fill="white"/>
<path d="M25.8 57.5809L25.1787 55.6697L20.7087 58.8921L25.8 57.5809Z" fill="#838383"/>
<rect width="34" height="34" transform="translate(42 36.0002)" fill="#72C619"/>
<path d="M70.4117 50.4504H61.4716L58.7101 42.0002L55.9401 50.4504L47 50.4419L54.2401 55.6697L51.47 64.1115L58.7101 58.8922L65.9416 64.1115L63.1802 55.6697L70.4117 50.4504Z" fill="white"/>
<path d="M63.8 57.5809L63.1787 55.6697L58.7087 58.8921L63.8 57.5809Z" fill="#838383"/>
<rect width="34" height="34" transform="translate(80 36.0002)" fill="#72C619"/>
<path d="M108.412 50.4504H99.4716L96.7101 42.0002L93.9401 50.4504L85 50.4419L92.2401 55.6697L89.47 64.1115L96.7101 58.8922L103.942 64.1115L101.18 55.6697L108.412 50.4504Z" fill="white"/>
<path d="M101.8 57.5809L101.179 55.6697L96.7087 58.8921L101.8 57.5809Z" fill="#838383"/>
<rect width="34" height="34" transform="translate(118 36.0002)" fill="#72C619"/>
<path d="M146.412 50.4504H137.472L134.71 42.0002L131.94 50.4504L123 50.4419L130.24 55.6697L127.47 64.1115L134.71 58.8922L141.942 64.1115L139.18 55.6697L146.412 50.4504Z" fill="white"/>
<path d="M139.8 57.5809L139.179 55.6697L134.709 58.8921L139.8 57.5809Z" fill="#838383"/>
<rect width="34" height="34" transform="translate(156 36.0002)" fill="#B7B7B7"/>
<path d="M184.412 50.4504H175.472L172.71 42.0002L169.94 50.4504L161 50.4419L168.24 55.6697L165.47 64.1115L172.71 58.8922L179.942 64.1115L177.18 55.6697L184.412 50.4504Z" fill="white"/>
<path d="M177.8 57.5809L177.179 55.6697L172.709 58.8921L177.8 57.5809Z" fill="#838383"/>
<rect x="89.5" y="78.6932" width="0.846535" height="12.698" fill="#D9D9D9"/>
<path d="M29.3323 9.41574H40.2812V11.454H35.9702V22.9441H33.6072V11.454H29.3142L29.3323 9.41574ZM39.8122 13.1496H41.8324V15.0435H41.8685C41.9407 14.7729 42.0669 14.5204 42.2473 14.2679C42.4277 14.0154 42.6441 13.7809 42.9147 13.5825C43.1672 13.366 43.4558 13.2037 43.7805 13.0774C44.0872 12.9511 44.4118 12.879 44.7365 12.879C44.989 12.879 45.1694 12.897 45.2596 12.897C45.3498 12.9151 45.458 12.9331 45.5482 12.9331V15.0074C45.4039 14.9714 45.2416 14.9533 45.0792 14.9353C44.9169 14.9172 44.7726 14.8992 44.6102 14.8992C44.2495 14.8992 43.9068 14.9714 43.5821 15.1157C43.2574 15.26 42.9869 15.4764 42.7343 15.747C42.4998 16.0356 42.3014 16.3783 42.1571 16.7932C42.0128 17.208 41.9407 17.6951 41.9407 18.2362V22.8899H39.7761L39.8122 13.1496ZM55.469 22.9441H53.3405V21.5732H53.3044C53.0339 22.0782 52.637 22.457 52.114 22.7637C51.5909 23.0703 51.0497 23.2146 50.5086 23.2146C49.2279 23.2146 48.29 22.908 47.7127 22.2586C47.1355 21.6273 46.8469 20.6533 46.8469 19.3726V13.1496H49.0115V19.1561C49.0115 20.0219 49.1738 20.6352 49.5165 20.9779C49.8412 21.3387 50.3102 21.5191 50.9054 21.5191C51.3564 21.5191 51.7352 21.4469 52.0418 21.3026C52.3484 21.1583 52.601 20.9779 52.7814 20.7434C52.9798 20.509 53.106 20.2203 53.1962 19.8957C53.2864 19.571 53.3225 19.2102 53.3225 18.8314V13.1496H55.487V22.9441H55.469ZM59.1487 19.8055C59.2208 20.4368 59.4553 20.8697 59.8702 21.1403C60.2851 21.3928 60.7901 21.5191 61.3673 21.5191C61.5657 21.5191 61.8002 21.501 62.0528 21.465C62.3053 21.4289 62.5578 21.3748 62.7743 21.2846C63.0088 21.1944 63.1891 21.0681 63.3334 20.8877C63.4777 20.7074 63.5499 20.4909 63.5318 20.2204C63.5138 19.9498 63.4236 19.7153 63.2252 19.5349C63.0268 19.3545 62.7923 19.2283 62.5037 19.102C62.2151 18.9938 61.8724 18.9036 61.4936 18.8314C61.1148 18.7593 60.736 18.6691 60.3392 18.5789C59.9423 18.4887 59.5455 18.3805 59.1667 18.2542C58.7879 18.128 58.4632 17.9656 58.1566 17.7311C57.868 17.5147 57.6155 17.2441 57.4531 16.9014C57.2727 16.5587 57.1826 16.1619 57.1826 15.6568C57.1826 15.1157 57.3088 14.6828 57.5794 14.322C57.8319 13.9613 58.1746 13.6726 58.5715 13.4562C58.9683 13.2397 59.4192 13.0774 59.9063 12.9872C60.3933 12.897 60.8623 12.8609 61.2952 12.8609C61.8002 12.8609 62.2872 12.9151 62.7382 13.0233C63.1891 13.1315 63.622 13.2939 63.9828 13.5464C64.3616 13.7809 64.6682 14.1056 64.9027 14.4843C65.1552 14.8631 65.2995 15.3321 65.3717 15.8733H63.117C63.0088 15.3502 62.7743 15.0074 62.4135 14.8271C62.0347 14.6467 61.6198 14.5565 61.1328 14.5565C60.9885 14.5565 60.7901 14.5745 60.5917 14.5926C60.3752 14.6286 60.1949 14.6647 59.9965 14.7369C59.8161 14.809 59.6537 14.9173 59.5275 15.0435C59.4012 15.1698 59.3291 15.3502 59.3291 15.5666C59.3291 15.8372 59.4192 16.0356 59.5996 16.1979C59.78 16.3603 60.0145 16.4865 60.3211 16.6128C60.6097 16.721 60.9524 16.8112 61.3312 16.8834C61.71 16.9555 62.1069 17.0457 62.5037 17.1359C62.9005 17.2261 63.2793 17.3343 63.6581 17.4606C64.0369 17.5868 64.3796 17.7492 64.6682 17.9837C64.9568 18.2001 65.2094 18.4707 65.3897 18.7954C65.5701 19.12 65.6603 19.5349 65.6603 20.0039C65.6603 20.5811 65.534 21.0681 65.2635 21.483C64.9929 21.8798 64.6502 22.2225 64.2353 22.4751C63.8205 22.7276 63.3334 22.908 62.8284 23.0342C62.3053 23.1425 61.8002 23.2146 61.2952 23.2146C60.6819 23.2146 60.1047 23.1425 59.5816 22.9982C59.0585 22.8539 58.5895 22.6374 58.2107 22.3668C57.8319 22.0782 57.5253 21.7355 57.3088 21.3026C57.0924 20.8877 56.9661 20.3827 56.9481 19.7874H59.1306V19.8055H59.1487ZM66.2736 13.1496H67.915V10.1914H70.0796V13.1315H72.0276V14.7369H70.0796V19.9678C70.0796 20.2023 70.0976 20.3827 70.1156 20.5631C70.1337 20.7254 70.1878 20.8697 70.2419 20.9779C70.314 21.0862 70.4223 21.1764 70.5485 21.2305C70.6928 21.2846 70.8732 21.3207 71.1257 21.3207C71.27 21.3207 71.4324 21.3207 71.5767 21.3026C71.721 21.2846 71.8833 21.2665 72.0276 21.2305V22.908C71.7931 22.944 71.5586 22.9621 71.3242 22.9801C71.0897 23.0162 70.8732 23.0162 70.6207 23.0162C70.0435 23.0162 69.5925 22.9621 69.2498 22.8539C68.9071 22.7456 68.6365 22.5833 68.4381 22.3849C68.2397 22.1684 68.1134 21.9159 68.0413 21.6093C67.9691 21.3026 67.9331 20.9238 67.915 20.527V14.7549H66.2736V13.1135V13.1496ZM73.5428 13.1496H75.5811V14.4843H75.6171C75.9238 13.9071 76.3386 13.5103 76.8798 13.2578C77.4209 13.0053 77.9981 12.879 78.6475 12.879C79.4231 12.879 80.0905 13.0053 80.6677 13.2939C81.2449 13.5644 81.7139 13.9252 82.0927 14.4122C82.4715 14.8812 82.7601 15.4403 82.9405 16.0717C83.1208 16.703 83.2291 17.3884 83.2291 18.0919C83.2291 18.7593 83.1389 19.3906 82.9765 20.0039C82.7962 20.6172 82.5436 21.1764 82.2009 21.6453C81.8582 22.1143 81.4253 22.4931 80.8842 22.7817C80.343 23.0703 79.7297 23.2146 79.0082 23.2146C78.7016 23.2146 78.3769 23.1785 78.0703 23.1244C77.7636 23.0703 77.457 22.9801 77.1684 22.8539C76.8798 22.7276 76.6092 22.5653 76.3747 22.3668C76.1222 22.1684 75.9238 21.9339 75.7614 21.6814H75.7254V26.5696H73.5608V13.1496H73.5428ZM81.1006 18.0558C81.1006 17.6229 81.0465 17.19 80.9202 16.7751C80.812 16.3603 80.6316 15.9995 80.3971 15.6748C80.1626 15.3502 79.874 15.0976 79.5494 14.8992C79.2066 14.7008 78.8098 14.6106 78.3769 14.6106C77.475 14.6106 76.7896 14.9173 76.3206 15.5486C75.8697 16.1799 75.6352 17.0277 75.6352 18.0739C75.6352 18.5789 75.6893 19.0299 75.8156 19.4447C75.9418 19.8596 76.1042 20.2203 76.3567 20.527C76.5912 20.8336 76.8798 21.0681 77.2225 21.2485C77.5652 21.4289 77.944 21.5191 78.395 21.5191C78.9 21.5191 79.2968 21.4108 79.6396 21.2124C79.9823 21.014 80.2528 20.7434 80.4873 20.4368C80.7038 20.1121 80.8661 19.7514 80.9563 19.3365C81.0465 18.9036 81.1006 18.4887 81.1006 18.0558ZM84.9066 9.41574H87.0711V11.454H84.9066V9.41574ZM84.9066 13.1496H87.0711V22.9441H84.9066V13.1496ZM89.0011 9.41574H91.1657V22.9441H89.0011V9.41574ZM97.7675 23.2146C96.9919 23.2146 96.2884 23.0884 95.6751 22.8178C95.0618 22.5472 94.5568 22.2045 94.1239 21.7536C93.709 21.3026 93.3843 20.7434 93.1679 20.1121C92.9514 19.4808 92.8252 18.7773 92.8252 18.0378C92.8252 17.2982 92.9334 16.6128 93.1679 15.9815C93.3843 15.3502 93.709 14.809 94.1239 14.34C94.5387 13.8891 95.0618 13.5283 95.6751 13.2758C96.2884 13.0233 96.9919 12.879 97.7675 12.879C98.5431 12.879 99.2466 13.0053 99.8599 13.2758C100.473 13.5283 100.978 13.8891 101.411 14.34C101.826 14.791 102.151 15.3502 102.367 15.9815C102.584 16.6128 102.71 17.2982 102.71 18.0378C102.71 18.7954 102.602 19.4808 102.367 20.1121C102.133 20.7434 101.826 21.2846 101.411 21.7536C100.996 22.2045 100.473 22.5653 99.8599 22.8178C99.2466 23.0703 98.5611 23.2146 97.7675 23.2146ZM97.7675 21.501C98.2365 21.501 98.6694 21.3928 99.0121 21.1944C99.3729 20.996 99.6434 20.7254 99.8779 20.4007C100.112 20.076 100.275 19.6973 100.383 19.3004C100.491 18.8856 100.545 18.4707 100.545 18.0378C100.545 17.6229 100.491 17.208 100.383 16.7932C100.275 16.3783 100.112 16.0176 99.8779 15.6929C99.6434 15.3682 99.3548 15.1157 99.0121 14.9173C98.6513 14.7188 98.2365 14.6106 97.7675 14.6106C97.2985 14.6106 96.8656 14.7188 96.5229 14.9173C96.1621 15.1157 95.8916 15.3862 95.6571 15.6929C95.4226 16.0176 95.2602 16.3783 95.152 16.7932C95.0438 17.208 94.9897 17.6229 94.9897 18.0378C94.9897 18.4707 95.0438 18.8856 95.152 19.3004C95.2602 19.7153 95.4226 20.076 95.6571 20.4007C95.8916 20.7254 96.1802 20.996 96.5229 21.1944C96.8836 21.4108 97.2985 21.501 97.7675 21.501ZM103.359 13.1496H105.001V10.1914H107.165V13.1315H109.113V14.7369H107.165V19.9678C107.165 20.2023 107.183 20.3827 107.201 20.5631C107.219 20.7254 107.273 20.8697 107.327 20.9779C107.4 21.0862 107.508 21.1764 107.634 21.2305C107.778 21.2846 107.959 21.3207 108.211 21.3207C108.356 21.3207 108.518 21.3207 108.662 21.3026C108.807 21.2846 108.969 21.2665 109.113 21.2305V22.908C108.879 22.944 108.644 22.9621 108.41 22.9801C108.175 23.0162 107.959 23.0162 107.706 23.0162C107.129 23.0162 106.678 22.9621 106.335 22.8539C105.993 22.7456 105.722 22.5833 105.524 22.3849C105.325 22.1684 105.199 21.9159 105.127 21.6093C105.055 21.3026 105.019 20.9238 105.001 20.527V14.7549H103.359V13.1135V13.1496Z" fill="white"/>
<path d="M26.807 9.41571H16.9043L13.8559 0L10.7895 9.41571L0.88678 9.39767L8.89554 15.2239L5.82912 24.6396L13.8379 18.8134L21.8466 24.6396L18.7983 15.2239L26.807 9.41571Z" fill="#00B67A"/>
<path d="M19.4837 17.3523L18.7982 15.2238L13.8559 18.8134L19.4837 17.3523Z" fill="#005128"/>
</svg>
