<svg width="190" height="94" viewBox="0 0 190 94" fill="none" xmlns="http://www.w3.org/2000/svg">
<path d="M4.57237 82.3068V81.3809H11.0368V82.3068H8.32647V90.0002H7.28273V82.3068H4.57237ZM11.4862 90.0002V83.5357H12.4457V84.5121H12.5131C12.6309 84.1923 12.8442 83.9327 13.1528 83.7335C13.4614 83.5343 13.8093 83.4347 14.1965 83.4347C14.2695 83.4347 14.3607 83.4361 14.4701 83.4389C14.5795 83.4417 14.6623 83.4459 14.7184 83.4515V84.4616C14.6847 84.4532 14.6076 84.4406 14.4869 84.4237C14.3691 84.4041 14.2442 84.3943 14.1124 84.3943C13.7981 84.3943 13.5175 84.4602 13.2706 84.5921C13.0265 84.7211 12.8329 84.9007 12.6898 85.1308C12.5496 85.358 12.4794 85.6176 12.4794 85.9094V90.0002H11.4862ZM19.6142 87.3571V83.5357H20.6074V90.0002H19.6142V88.9059H19.5468C19.3953 89.2342 19.1596 89.5134 18.8398 89.7434C18.5199 89.9707 18.1159 90.0843 17.6277 90.0843C17.2237 90.0843 16.8645 89.9959 16.5503 89.8192C16.236 89.6396 15.9891 89.3703 15.8096 89.0111C15.63 88.6492 15.5402 88.1932 15.5402 87.6433V83.5357H16.5335V87.576C16.5335 88.0474 16.6653 88.4233 16.9291 88.7039C17.1956 88.9845 17.5351 89.1248 17.9475 89.1248C18.1945 89.1248 18.4456 89.0616 18.7009 88.9354C18.959 88.8091 19.1751 88.6155 19.349 88.3546C19.5258 88.0936 19.6142 87.7612 19.6142 87.3571ZM26.65 84.9835L25.7578 85.236C25.7017 85.0873 25.6189 84.9428 25.5095 84.8025C25.4029 84.6594 25.257 84.5416 25.0718 84.449C24.8866 84.3564 24.6495 84.3101 24.3605 84.3101C23.9649 84.3101 23.6352 84.4013 23.3715 84.5837C23.1106 84.7632 22.9801 84.9919 22.9801 85.2697C22.9801 85.5166 23.0699 85.7116 23.2494 85.8547C23.429 85.9978 23.7096 86.117 24.0912 86.2124L25.0507 86.4481C25.6287 86.5884 26.0594 86.803 26.3428 87.092C26.6262 87.3782 26.7679 87.7471 26.7679 88.1989C26.7679 88.5692 26.6612 88.9003 26.448 89.1921C26.2376 89.4839 25.943 89.714 25.5642 89.8823C25.1854 90.0507 24.7449 90.1348 24.2427 90.1348C23.5833 90.1348 23.0376 89.9917 22.6055 89.7055C22.1734 89.4194 21.8999 89.0013 21.7848 88.4514L22.7276 88.2157C22.8174 88.5636 22.9871 88.8245 23.2368 88.9985C23.4893 89.1725 23.819 89.2594 24.2258 89.2594C24.6888 89.2594 25.0563 89.1612 25.3285 88.9648C25.6035 88.7656 25.741 88.5271 25.741 88.2494C25.741 88.0249 25.6624 87.8369 25.5053 87.6854C25.3481 87.5311 25.1069 87.4161 24.7814 87.3403L23.704 87.0878C23.112 86.9475 22.6771 86.7301 22.3993 86.4354C22.1243 86.138 21.9869 85.7663 21.9869 85.3202C21.9869 84.9554 22.0893 84.6328 22.2941 84.3522C22.5017 84.0716 22.7837 83.8514 23.14 83.6914C23.4992 83.5315 23.906 83.4515 24.3605 83.4515C25.0002 83.4515 25.5025 83.5918 25.8672 83.8724C26.2348 84.153 26.4957 84.5233 26.65 84.9835ZM30.7188 83.5357V84.3774H27.3687V83.5357H30.7188ZM28.3451 81.9869H29.3384V88.1484C29.3384 88.4289 29.379 88.6394 29.4604 88.7797C29.5446 88.9171 29.6512 89.0097 29.7803 89.0574C29.9121 89.1023 30.051 89.1248 30.1969 89.1248C30.3063 89.1248 30.3961 89.1191 30.4663 89.1079C30.5364 89.0939 30.5925 89.0827 30.6346 89.0743L30.8366 89.9665C30.7693 89.9917 30.6753 90.017 30.5547 90.0422C30.434 90.0703 30.2811 90.0843 30.0959 90.0843C29.8153 90.0843 29.5404 90.024 29.271 89.9034C29.0045 89.7827 28.7828 89.5989 28.6061 89.352C28.4321 89.1051 28.3451 88.7937 28.3451 88.4177V81.9869ZM36.7056 83.5357C36.6551 83.1092 36.4503 82.7782 36.0912 82.5425C35.732 82.3068 35.2915 82.1889 34.7697 82.1889C34.3881 82.1889 34.0542 82.2507 33.768 82.3741C33.4846 82.4976 33.263 82.6673 33.1031 82.8834C32.9459 83.0994 32.8674 83.3449 32.8674 83.6199C32.8674 83.8499 32.9221 84.0478 33.0315 84.2133C33.1437 84.376 33.2868 84.5121 33.4608 84.6215C33.6347 84.7281 33.8171 84.8165 34.0079 84.8867C34.1987 84.954 34.3741 85.0087 34.534 85.0508L35.4094 85.2865C35.6338 85.3454 35.8836 85.4268 36.1585 85.5306C36.4363 85.6344 36.7014 85.7761 36.9539 85.9557C37.2093 86.1324 37.4197 86.3597 37.5852 86.6375C37.7508 86.9152 37.8335 87.2561 37.8335 87.6602C37.8335 88.1259 37.7115 88.5468 37.4674 88.9227C37.2261 89.2987 36.8726 89.5975 36.4068 89.8192C35.9439 90.0408 35.3813 90.1517 34.7192 90.1517C34.1019 90.1517 33.5674 90.0521 33.1157 89.8529C32.6668 89.6536 32.3132 89.3759 32.0551 89.0195C31.7998 88.6632 31.6553 88.2494 31.6216 87.778H32.699C32.7271 88.1035 32.8365 88.3728 33.0273 88.5861C33.2209 88.7965 33.465 88.9536 33.7596 89.0574C34.057 89.1584 34.3769 89.2089 34.7192 89.2089C35.1176 89.2089 35.4753 89.1444 35.7924 89.0153C36.1094 88.8835 36.3605 88.7011 36.5457 88.4682C36.7309 88.2325 36.8235 87.9576 36.8235 87.6433C36.8235 87.3571 36.7435 87.1243 36.5836 86.9447C36.4237 86.7651 36.2132 86.6192 35.9523 86.507C35.6914 86.3948 35.4094 86.2966 35.1064 86.2124L34.0458 85.9094C33.3724 85.7158 32.8393 85.4394 32.4465 85.0803C32.0537 84.7211 31.8573 84.2512 31.8573 83.6704C31.8573 83.1878 31.9878 82.7669 32.2487 82.4078C32.5124 82.0459 32.866 81.7653 33.3093 81.5661C33.7554 81.3641 34.2534 81.263 34.8033 81.263C35.3589 81.263 35.8527 81.3627 36.2848 81.5619C36.7169 81.7583 37.0592 82.0276 37.3117 82.3699C37.567 82.7122 37.7017 83.1008 37.7157 83.5357H36.7056ZM41.6856 90.1348C41.0795 90.1348 40.5577 89.9917 40.12 89.7055C39.6823 89.4194 39.3456 89.0252 39.1099 88.5229C38.8742 88.0207 38.7564 87.4469 38.7564 86.8016C38.7564 86.1451 38.877 85.5657 39.1183 85.0634C39.3624 84.5584 39.7019 84.1642 40.1368 83.8808C40.5745 83.5946 41.0851 83.4515 41.6687 83.4515C42.1233 83.4515 42.5329 83.5357 42.8977 83.7041C43.2624 83.8724 43.5612 84.1081 43.7941 84.4111C44.027 84.7141 44.1715 85.0676 44.2276 85.4717H43.2344C43.1586 85.1771 42.9903 84.9161 42.7293 84.6889C42.4712 84.4588 42.1233 84.3438 41.6856 84.3438C41.2984 84.3438 40.9589 84.4448 40.6671 84.6468C40.3781 84.846 40.1522 85.128 39.9895 85.4927C39.8296 85.8547 39.7496 86.2797 39.7496 86.7679C39.7496 87.2674 39.8282 87.7022 39.9853 88.0726C40.1452 88.443 40.3697 88.7306 40.6587 88.9354C40.9505 89.1402 41.2928 89.2426 41.6856 89.2426C41.9437 89.2426 42.178 89.1977 42.3884 89.1079C42.5988 89.0181 42.777 88.8891 42.9229 88.7207C43.0688 88.5524 43.1726 88.3504 43.2344 88.1147H44.2276C44.1715 88.4963 44.0326 88.84 43.8109 89.1458C43.5921 89.4488 43.3017 89.6901 42.9397 89.8697C42.5806 90.0464 42.1626 90.1348 41.6856 90.1348ZM47.9502 90.1348C47.3666 90.1348 46.8546 89.9959 46.4141 89.7182C45.9764 89.4404 45.6341 89.0518 45.3871 88.5524C45.143 88.053 45.021 87.4694 45.021 86.8016C45.021 86.1282 45.143 85.5404 45.3871 85.0382C45.6341 84.536 45.9764 84.146 46.4141 83.8682C46.8546 83.5904 47.3666 83.4515 47.9502 83.4515C48.5338 83.4515 49.0444 83.5904 49.4821 83.8682C49.9226 84.146 50.2649 84.536 50.509 85.0382C50.7559 85.5404 50.8794 86.1282 50.8794 86.8016C50.8794 87.4694 50.7559 88.053 50.509 88.5524C50.2649 89.0518 49.9226 89.4404 49.4821 89.7182C49.0444 89.9959 48.5338 90.1348 47.9502 90.1348ZM47.9502 89.2426C48.3935 89.2426 48.7583 89.129 49.0444 88.9017C49.3306 88.6744 49.5425 88.3756 49.6799 88.0053C49.8174 87.6349 49.8862 87.2337 49.8862 86.8016C49.8862 86.3695 49.8174 85.9669 49.6799 85.5937C49.5425 85.2206 49.3306 84.9189 49.0444 84.6889C48.7583 84.4588 48.3935 84.3438 47.9502 84.3438C47.5069 84.3438 47.1421 84.4588 46.856 84.6889C46.5698 84.9189 46.3579 85.2206 46.2205 85.5937C46.083 85.9669 46.0142 86.3695 46.0142 86.8016C46.0142 87.2337 46.083 87.6349 46.2205 88.0053C46.3579 88.3756 46.5698 88.6744 46.856 88.9017C47.1421 89.129 47.5069 89.2426 47.9502 89.2426ZM52.04 90.0002V83.5357H52.9996V84.5121H53.0669C53.1848 84.1923 53.398 83.9327 53.7066 83.7335C54.0153 83.5343 54.3632 83.4347 54.7504 83.4347C54.8233 83.4347 54.9145 83.4361 55.0239 83.4389C55.1334 83.4417 55.2161 83.4459 55.2722 83.4515V84.4616C55.2386 84.4532 55.1614 84.4406 55.0408 84.4237C54.9229 84.4041 54.7981 84.3943 54.6662 84.3943C54.352 84.3943 54.0714 84.4602 53.8245 84.5921C53.5804 84.7211 53.3868 84.9007 53.2437 85.1308C53.1034 85.358 53.0332 85.6176 53.0332 85.9094V90.0002H52.04ZM58.6077 90.1348C57.9848 90.1348 57.4475 89.9973 56.9957 89.7224C56.5468 89.4446 56.2003 89.0574 55.9562 88.5608C55.7149 88.0614 55.5943 87.4806 55.5943 86.8184C55.5943 86.1563 55.7149 85.5727 55.9562 85.0676C56.2003 84.5598 56.5398 84.1642 56.9747 83.8808C57.4124 83.5946 57.923 83.4515 58.5066 83.4515C58.8433 83.4515 59.1758 83.5076 59.5041 83.6199C59.8324 83.7321 60.1312 83.9145 60.4005 84.167C60.6699 84.4167 60.8845 84.7478 61.0444 85.1602C61.2044 85.5727 61.2843 86.0805 61.2843 86.6838V87.1046H56.3013V86.2461H60.2743C60.2743 85.8813 60.2013 85.5558 60.0554 85.2697C59.9123 84.9835 59.7075 84.7576 59.441 84.5921C59.1772 84.4265 58.8658 84.3438 58.5066 84.3438C58.111 84.3438 57.7687 84.442 57.4797 84.6384C57.1936 84.832 56.9733 85.0845 56.819 85.3959C56.6647 85.7074 56.5875 86.0412 56.5875 86.3976V86.9699C56.5875 87.4581 56.6717 87.872 56.84 88.2115C57.0112 88.5482 57.2483 88.8049 57.5513 88.9817C57.8543 89.1556 58.2064 89.2426 58.6077 89.2426C58.8686 89.2426 59.1043 89.2061 59.3147 89.1332C59.5279 89.0574 59.7117 88.9452 59.866 88.7965C60.0203 88.645 60.1396 88.457 60.2238 88.2325L61.1833 88.5019C61.0823 88.8273 60.9126 89.1135 60.6741 89.3604C60.4356 89.6045 60.141 89.7953 59.7903 89.9328C59.4396 90.0675 59.0453 90.1348 58.6077 90.1348ZM65.1186 88.4009V87.1593L68.7759 81.3809H69.8112V83.1485H69.1799L66.7178 87.0499V87.1172H71.8229V88.4009H65.1186ZM69.2304 90.0002V88.0221L69.2472 87.4666V81.3809H70.7202V90.0002H69.2304ZM73.5243 90.0927C73.269 90.0927 73.0501 90.003 72.8678 89.8234C72.6854 89.6438 72.5956 89.425 72.5984 89.1668C72.5956 88.9143 72.6854 88.6983 72.8678 88.5187C73.0501 88.3391 73.269 88.2494 73.5243 88.2494C73.7712 88.2494 73.9859 88.3391 74.1682 88.5187C74.3534 88.6983 74.4474 88.9143 74.4502 89.1668C74.4474 89.338 74.4025 89.4937 74.3155 89.634C74.2314 89.7743 74.1191 89.8865 73.9789 89.9707C73.8414 90.0521 73.6899 90.0927 73.5243 90.0927ZM78.5011 90.1643C77.8081 90.1643 77.2133 89.9889 76.7167 89.6382C76.2228 89.2847 75.8427 88.7754 75.5761 88.1105C75.3124 87.4427 75.1805 86.6389 75.1805 85.6989C75.1833 84.759 75.3166 83.9594 75.5803 83.3C75.8469 82.6379 76.227 82.1328 76.7209 81.7849C77.2175 81.437 77.8109 81.263 78.5011 81.263C79.1913 81.263 79.7847 81.437 80.2814 81.7849C80.778 82.1328 81.1582 82.6379 81.4219 83.3C81.6884 83.9622 81.8217 84.7618 81.8217 85.6989C81.8217 86.6417 81.6884 87.4469 81.4219 88.1147C81.1582 88.7797 80.778 89.2875 80.2814 89.6382C79.7875 89.9889 79.1941 90.1643 78.5011 90.1643ZM78.5011 88.847C79.0398 88.847 79.4649 88.5818 79.7763 88.0516C80.0906 87.5185 80.2477 86.7343 80.2477 85.6989C80.2477 85.0143 80.1761 84.4392 80.033 83.9734C79.89 83.5076 79.6879 83.1569 79.427 82.9212C79.1661 82.6828 78.8574 82.5635 78.5011 82.5635C77.9652 82.5635 77.5415 82.8301 77.2301 83.3632C76.9187 83.8934 76.7615 84.672 76.7587 85.6989C76.7559 86.3863 76.8247 86.9643 76.965 87.4329C77.1081 87.9015 77.3101 88.255 77.571 88.4935C77.8319 88.7291 78.142 88.847 78.5011 88.847ZM97.5551 88.485V87.0499L101.153 81.3809H102.391V83.3674H101.659L99.3901 86.9573V87.0247H104.504V88.485H97.5551ZM101.692 90.0002V88.0474L101.726 87.4118V81.3809H103.435V90.0002H101.692ZM107.166 88.8217L107.119 89.2847C107.083 89.655 107.013 90.024 106.909 90.3916C106.808 90.7619 106.701 91.0972 106.589 91.3974C106.48 91.6976 106.391 91.9333 106.324 92.1045H105.162C105.204 91.9389 105.262 91.7075 105.335 91.41C105.408 91.1154 105.477 90.7844 105.541 90.4168C105.606 90.0493 105.646 89.6747 105.663 89.2931L105.684 88.8217H107.166ZM111.106 81.3809V90.0002H109.284V83.1106H109.233L107.259 84.348V82.7319L109.393 81.3809H111.106ZM116.179 90.1895C115.455 90.1867 114.832 90.0086 114.31 89.655C113.791 89.3015 113.391 88.7895 113.11 88.1189C112.833 87.4483 112.695 86.6417 112.698 85.6989C112.698 84.759 112.837 83.958 113.115 83.2958C113.395 82.6337 113.795 82.13 114.314 81.7849C114.836 81.437 115.457 81.263 116.179 81.263C116.9 81.263 117.52 81.437 118.039 81.7849C118.561 82.1328 118.962 82.6379 119.242 83.3C119.523 83.9594 119.662 84.759 119.659 85.6989C119.659 86.6445 119.519 87.4525 119.238 88.1231C118.96 88.7937 118.562 89.3057 118.043 89.6593C117.524 90.0128 116.902 90.1895 116.179 90.1895ZM116.179 88.6786C116.672 88.6786 117.067 88.4303 117.361 87.9337C117.656 87.4371 117.802 86.6922 117.799 85.6989C117.799 85.0452 117.731 84.5009 117.597 84.066C117.465 83.6311 117.277 83.3042 117.033 83.0854C116.792 82.8665 116.507 82.7571 116.179 82.7571C115.688 82.7571 115.295 83.0026 115 83.4936C114.705 83.9846 114.557 84.7197 114.554 85.6989C114.554 86.3611 114.62 86.9138 114.752 87.3571C114.886 87.7976 115.076 88.1287 115.32 88.3504C115.564 88.5692 115.85 88.6786 116.179 88.6786ZM123.751 90.118C123.156 90.118 122.626 90.0086 122.16 89.7897C121.697 89.5709 121.33 89.2693 121.057 88.8849C120.785 88.5005 120.644 88.06 120.632 87.5634H122.4C122.42 87.8972 122.56 88.168 122.821 88.3756C123.082 88.5832 123.392 88.6871 123.751 88.6871C124.037 88.6871 124.29 88.6239 124.509 88.4977C124.73 88.3686 124.903 88.1904 125.026 87.9632C125.152 87.7331 125.216 87.4694 125.216 87.172C125.216 86.8689 125.151 86.6024 125.022 86.3723C124.896 86.1422 124.72 85.9627 124.496 85.8336C124.271 85.7046 124.015 85.6386 123.726 85.6358C123.473 85.6358 123.228 85.6877 122.989 85.7915C122.754 85.8953 122.57 86.037 122.438 86.2166L120.818 85.9262L121.226 81.3809H126.495V82.8707H122.728L122.505 85.0298H122.556C122.707 84.8165 122.936 84.6398 123.242 84.4995C123.548 84.3592 123.89 84.289 124.269 84.289C124.788 84.289 125.251 84.4111 125.657 84.6552C126.064 84.8993 126.386 85.2346 126.621 85.6611C126.857 86.0847 126.973 86.5729 126.971 87.1257C126.973 87.7065 126.839 88.2227 126.567 88.6744C126.297 89.1234 125.92 89.4769 125.434 89.735C124.952 89.9903 124.391 90.118 123.751 90.118ZM131.209 90.0002V81.3809H134.121C134.795 81.3809 135.347 81.4959 135.779 81.726C136.211 81.9533 136.531 82.2661 136.739 82.6645C136.947 83.0629 137.05 83.5161 137.05 84.0239C137.05 84.5317 136.947 84.9821 136.739 85.3749C136.531 85.7677 136.213 86.0763 135.784 86.3008C135.354 86.5224 134.806 86.6333 134.138 86.6333H131.781V85.6905H134.104C134.564 85.6905 134.935 85.6232 135.215 85.4885C135.499 85.3538 135.704 85.163 135.83 84.9161C135.959 84.6664 136.023 84.369 136.023 84.0239C136.023 83.6788 135.959 83.3772 135.83 83.1191C135.701 82.8609 135.495 82.6617 135.211 82.5214C134.928 82.3783 134.553 82.3068 134.088 82.3068H132.253V90.0002H131.209ZM135.266 86.1282L137.387 90.0002H136.175L134.088 86.1282H135.266ZM140.94 90.1348C140.317 90.1348 139.78 89.9973 139.328 89.7224C138.879 89.4446 138.533 89.0574 138.289 88.5608C138.048 88.0614 137.927 87.4806 137.927 86.8184C137.927 86.1563 138.048 85.5727 138.289 85.0676C138.533 84.5598 138.872 84.1642 139.307 83.8808C139.745 83.5946 140.256 83.4515 140.839 83.4515C141.176 83.4515 141.508 83.5076 141.837 83.6199C142.165 83.7321 142.464 83.9145 142.733 84.167C143.003 84.4167 143.217 84.7478 143.377 85.1602C143.537 85.5727 143.617 86.0805 143.617 86.6838V87.1046H138.634V86.2461H142.607C142.607 85.8813 142.534 85.5558 142.388 85.2697C142.245 84.9835 142.04 84.7576 141.774 84.5921C141.51 84.4265 141.198 84.3438 140.839 84.3438C140.444 84.3438 140.101 84.442 139.812 84.6384C139.526 84.832 139.306 85.0845 139.152 85.3959C138.997 85.7074 138.92 86.0412 138.92 86.3976V86.9699C138.92 87.4581 139.004 87.872 139.173 88.2115C139.344 88.5482 139.581 88.8049 139.884 88.9817C140.187 89.1556 140.539 89.2426 140.94 89.2426C141.201 89.2426 141.437 89.2061 141.647 89.1332C141.861 89.0574 142.044 88.9452 142.199 88.7965C142.353 88.645 142.472 88.457 142.556 88.2325L143.516 88.5019C143.415 88.8273 143.245 89.1135 143.007 89.3604C142.768 89.6045 142.474 89.7953 142.123 89.9328C141.772 90.0675 141.378 90.1348 140.94 90.1348ZM149.862 83.5357L147.471 90.0002H146.461L144.071 83.5357H145.148L146.932 88.6871H147L148.784 83.5357H149.862ZM150.817 90.0002V83.5357H151.81V90.0002H150.817ZM151.322 82.4583C151.128 82.4583 150.962 82.3924 150.821 82.2605C150.684 82.1286 150.615 81.9701 150.615 81.7849C150.615 81.5997 150.684 81.4412 150.821 81.3093C150.962 81.1775 151.128 81.1115 151.322 81.1115C151.516 81.1115 151.681 81.1775 151.819 81.3093C151.959 81.4412 152.029 81.5997 152.029 81.7849C152.029 81.9701 151.959 82.1286 151.819 82.2605C151.681 82.3924 151.516 82.4583 151.322 82.4583ZM155.984 90.1348C155.361 90.1348 154.824 89.9973 154.372 89.7224C153.923 89.4446 153.577 89.0574 153.333 88.5608C153.092 88.0614 152.971 87.4806 152.971 86.8184C152.971 86.1563 153.092 85.5727 153.333 85.0676C153.577 84.5598 153.916 84.1642 154.351 83.8808C154.789 83.5946 155.3 83.4515 155.883 83.4515C156.22 83.4515 156.552 83.5076 156.881 83.6199C157.209 83.7321 157.508 83.9145 157.777 84.167C158.046 84.4167 158.261 84.7478 158.421 85.1602C158.581 85.5727 158.661 86.0805 158.661 86.6838V87.1046H153.678V86.2461H157.651C157.651 85.8813 157.578 85.5558 157.432 85.2697C157.289 84.9835 157.084 84.7576 156.818 84.5921C156.554 84.4265 156.242 84.3438 155.883 84.3438C155.488 84.3438 155.145 84.442 154.856 84.6384C154.57 84.832 154.35 85.0845 154.196 85.3959C154.041 85.7074 153.964 86.0412 153.964 86.3976V86.9699C153.964 87.4581 154.048 87.872 154.217 88.2115C154.388 88.5482 154.625 88.8049 154.928 88.9817C155.231 89.1556 155.583 89.2426 155.984 89.2426C156.245 89.2426 156.481 89.2061 156.691 89.1332C156.905 89.0574 157.088 88.9452 157.243 88.7965C157.397 88.645 157.516 88.457 157.6 88.2325L158.56 88.5019C158.459 88.8273 158.289 89.1135 158.051 89.3604C157.812 89.6045 157.518 89.7953 157.167 89.9328C156.816 90.0675 156.422 90.1348 155.984 90.1348ZM161.281 90.0002L159.311 83.5357H160.355L161.752 88.485H161.82L163.2 83.5357H164.261L165.624 88.4682H165.692L167.089 83.5357H168.133L166.163 90.0002H165.187L163.772 85.034H163.671L162.257 90.0002H161.281ZM173.669 84.9835L172.777 85.236C172.721 85.0873 172.638 84.9428 172.529 84.8025C172.422 84.6594 172.276 84.5416 172.091 84.449C171.906 84.3564 171.669 84.3101 171.38 84.3101C170.984 84.3101 170.654 84.4013 170.391 84.5837C170.13 84.7632 169.999 84.9919 169.999 85.2697C169.999 85.5166 170.089 85.7116 170.269 85.8547C170.448 85.9978 170.729 86.117 171.11 86.2124L172.07 86.4481C172.648 86.5884 173.078 86.803 173.362 87.092C173.645 87.3782 173.787 87.7471 173.787 88.1989C173.787 88.5692 173.68 88.9003 173.467 89.1921C173.257 89.4839 172.962 89.714 172.583 89.8823C172.204 90.0507 171.764 90.1348 171.262 90.1348C170.602 90.1348 170.057 89.9917 169.625 89.7055C169.193 89.4194 168.919 89.0013 168.804 88.4514L169.747 88.2157C169.836 88.5636 170.006 88.8245 170.256 88.9985C170.508 89.1725 170.838 89.2594 171.245 89.2594C171.708 89.2594 172.075 89.1612 172.348 88.9648C172.623 88.7656 172.76 88.5271 172.76 88.2494C172.76 88.0249 172.681 87.8369 172.524 87.6854C172.367 87.5311 172.126 87.4161 171.8 87.3403L170.723 87.0878C170.131 86.9475 169.696 86.7301 169.418 86.4354C169.143 86.138 169.006 85.7663 169.006 85.3202C169.006 84.9554 169.108 84.6328 169.313 84.3522C169.521 84.0716 169.803 83.8514 170.159 83.6914C170.518 83.5315 170.925 83.4515 171.38 83.4515C172.019 83.4515 172.522 83.5918 172.886 83.8724C173.254 84.153 173.515 84.5233 173.669 84.9835Z" fill="white"/>
<rect width="34" height="34" transform="translate(4 36.0002)" fill="#72C619"/>
<path d="M32.4117 50.4504H23.4716L20.7101 42.0002L17.9401 50.4504L9 50.4419L16.2401 55.6697L13.47 64.1115L20.7101 58.8922L27.9416 64.1115L25.1802 55.6697L32.4117 50.4504Z" fill="white"/>
<path d="M25.8 57.5809L25.1787 55.6697L20.7087 58.8921L25.8 57.5809Z" fill="#838383"/>
<rect width="34" height="34" transform="translate(42 36.0002)" fill="#72C619"/>
<path d="M70.4117 50.4504H61.4716L58.7101 42.0002L55.9401 50.4504L47 50.4419L54.2401 55.6697L51.47 64.1115L58.7101 58.8922L65.9416 64.1115L63.1802 55.6697L70.4117 50.4504Z" fill="white"/>
<path d="M63.8 57.5809L63.1787 55.6697L58.7087 58.8921L63.8 57.5809Z" fill="#838383"/>
<rect width="34" height="34" transform="translate(80 36.0002)" fill="#72C619"/>
<path d="M108.412 50.4504H99.4716L96.7101 42.0002L93.9401 50.4504L85 50.4419L92.2401 55.6697L89.47 64.1115L96.7101 58.8922L103.942 64.1115L101.18 55.6697L108.412 50.4504Z" fill="white"/>
<path d="M101.8 57.5809L101.179 55.6697L96.7087 58.8921L101.8 57.5809Z" fill="#838383"/>
<rect width="34" height="34" transform="translate(118 36.0002)" fill="#72C619"/>
<path d="M146.412 50.4504H137.472L134.71 42.0002L131.94 50.4504L123 50.4419L130.24 55.6697L127.47 64.1115L134.71 58.8922L141.942 64.1115L139.18 55.6697L146.412 50.4504Z" fill="white"/>
<path d="M139.8 57.5809L139.179 55.6697L134.709 58.8921L139.8 57.5809Z" fill="#838383"/>
<rect width="34" height="34" transform="translate(156 36.0002)" fill="#B7B7B7"/>
<path d="M184.412 50.4504H175.472L172.71 42.0002L169.94 50.4504L161 50.4419L168.24 55.6697L165.47 64.1115L172.71 58.8922L179.942 64.1115L177.18 55.6697L184.412 50.4504Z" fill="white"/>
<path d="M177.8 57.5809L177.179 55.6697L172.709 58.8921L177.8 57.5809Z" fill="#838383"/>
<rect x="89.5" y="78.6932" width="0.846535" height="12.698" fill="#D9D9D9"/>
<path d="M29.3323 9.41574H40.2812V11.454H35.9702V22.9441H33.6072V11.454H29.3142L29.3323 9.41574ZM39.8122 13.1496H41.8324V15.0435H41.8685C41.9407 14.7729 42.0669 14.5204 42.2473 14.2679C42.4277 14.0154 42.6441 13.7809 42.9147 13.5825C43.1672 13.366 43.4558 13.2037 43.7805 13.0774C44.0872 12.9511 44.4118 12.879 44.7365 12.879C44.989 12.879 45.1694 12.897 45.2596 12.897C45.3498 12.9151 45.458 12.9331 45.5482 12.9331V15.0074C45.4039 14.9714 45.2416 14.9533 45.0792 14.9353C44.9169 14.9172 44.7726 14.8992 44.6102 14.8992C44.2495 14.8992 43.9068 14.9714 43.5821 15.1157C43.2574 15.26 42.9869 15.4764 42.7343 15.747C42.4998 16.0356 42.3014 16.3783 42.1571 16.7932C42.0128 17.208 41.9407 17.6951 41.9407 18.2362V22.8899H39.7761L39.8122 13.1496ZM55.469 22.9441H53.3405V21.5732H53.3044C53.0339 22.0782 52.637 22.457 52.114 22.7637C51.5909 23.0703 51.0497 23.2146 50.5086 23.2146C49.2279 23.2146 48.29 22.908 47.7127 22.2586C47.1355 21.6273 46.8469 20.6533 46.8469 19.3726V13.1496H49.0115V19.1561C49.0115 20.0219 49.1738 20.6352 49.5165 20.9779C49.8412 21.3387 50.3102 21.5191 50.9054 21.5191C51.3564 21.5191 51.7352 21.4469 52.0418 21.3026C52.3484 21.1583 52.601 20.9779 52.7814 20.7434C52.9798 20.509 53.106 20.2203 53.1962 19.8957C53.2864 19.571 53.3225 19.2102 53.3225 18.8314V13.1496H55.487V22.9441H55.469ZM59.1487 19.8055C59.2208 20.4368 59.4553 20.8697 59.8702 21.1403C60.2851 21.3928 60.7901 21.5191 61.3673 21.5191C61.5657 21.5191 61.8002 21.501 62.0528 21.465C62.3053 21.4289 62.5578 21.3748 62.7743 21.2846C63.0088 21.1944 63.1891 21.0681 63.3334 20.8877C63.4777 20.7074 63.5499 20.4909 63.5318 20.2204C63.5138 19.9498 63.4236 19.7153 63.2252 19.5349C63.0268 19.3545 62.7923 19.2283 62.5037 19.102C62.2151 18.9938 61.8724 18.9036 61.4936 18.8314C61.1148 18.7593 60.736 18.6691 60.3392 18.5789C59.9423 18.4887 59.5455 18.3805 59.1667 18.2542C58.7879 18.128 58.4632 17.9656 58.1566 17.7311C57.868 17.5147 57.6155 17.2441 57.4531 16.9014C57.2727 16.5587 57.1826 16.1619 57.1826 15.6568C57.1826 15.1157 57.3088 14.6828 57.5794 14.322C57.8319 13.9613 58.1746 13.6726 58.5715 13.4562C58.9683 13.2397 59.4192 13.0774 59.9063 12.9872C60.3933 12.897 60.8623 12.8609 61.2952 12.8609C61.8002 12.8609 62.2872 12.9151 62.7382 13.0233C63.1891 13.1315 63.622 13.2939 63.9828 13.5464C64.3616 13.7809 64.6682 14.1056 64.9027 14.4843C65.1552 14.8631 65.2995 15.3321 65.3717 15.8733H63.117C63.0088 15.3502 62.7743 15.0074 62.4135 14.8271C62.0347 14.6467 61.6198 14.5565 61.1328 14.5565C60.9885 14.5565 60.7901 14.5745 60.5917 14.5926C60.3752 14.6286 60.1949 14.6647 59.9965 14.7369C59.8161 14.809 59.6537 14.9173 59.5275 15.0435C59.4012 15.1698 59.3291 15.3502 59.3291 15.5666C59.3291 15.8372 59.4192 16.0356 59.5996 16.1979C59.78 16.3603 60.0145 16.4865 60.3211 16.6128C60.6097 16.721 60.9525 16.8112 61.3312 16.8834C61.71 16.9555 62.1069 17.0457 62.5037 17.1359C62.9005 17.2261 63.2793 17.3343 63.6581 17.4606C64.0369 17.5868 64.3796 17.7492 64.6682 17.9837C64.9568 18.2001 65.2094 18.4707 65.3897 18.7954C65.5701 19.12 65.6603 19.5349 65.6603 20.0039C65.6603 20.5811 65.534 21.0681 65.2635 21.483C64.9929 21.8798 64.6502 22.2225 64.2353 22.4751C63.8205 22.7276 63.3334 22.908 62.8284 23.0342C62.3053 23.1425 61.8002 23.2146 61.2952 23.2146C60.6819 23.2146 60.1047 23.1425 59.5816 22.9982C59.0585 22.8539 58.5895 22.6374 58.2107 22.3668C57.8319 22.0782 57.5253 21.7355 57.3088 21.3026C57.0924 20.8877 56.9661 20.3827 56.9481 19.7874H59.1306V19.8055H59.1487ZM66.2736 13.1496H67.915V10.1914H70.0796V13.1315H72.0276V14.7369H70.0796V19.9678C70.0796 20.2023 70.0976 20.3827 70.1156 20.5631C70.1337 20.7254 70.1878 20.8697 70.2419 20.9779C70.314 21.0862 70.4223 21.1764 70.5485 21.2305C70.6928 21.2846 70.8732 21.3207 71.1257 21.3207C71.27 21.3207 71.4324 21.3207 71.5767 21.3026C71.721 21.2846 71.8833 21.2665 72.0276 21.2305V22.908C71.7931 22.9441 71.5586 22.9621 71.3242 22.9801C71.0897 23.0162 70.8732 23.0162 70.6207 23.0162C70.0435 23.0162 69.5925 22.9621 69.2498 22.8539C68.9071 22.7456 68.6365 22.5833 68.4381 22.3849C68.2397 22.1684 68.1134 21.9159 68.0413 21.6093C67.9691 21.3026 67.9331 20.9238 67.915 20.527V14.7549H66.2736V13.1135V13.1496ZM73.5428 13.1496H75.5811V14.4843H75.6171C75.9238 13.9071 76.3386 13.5103 76.8798 13.2578C77.4209 13.0053 77.9981 12.879 78.6475 12.879C79.4231 12.879 80.0905 13.0053 80.6677 13.2939C81.2449 13.5644 81.7139 13.9252 82.0927 14.4122C82.4715 14.8812 82.7601 15.4403 82.9405 16.0717C83.1208 16.703 83.2291 17.3884 83.2291 18.0919C83.2291 18.7593 83.1389 19.3906 82.9765 20.0039C82.7962 20.6172 82.5436 21.1764 82.2009 21.6453C81.8582 22.1143 81.4253 22.4931 80.8842 22.7817C80.343 23.0703 79.7297 23.2146 79.0082 23.2146C78.7016 23.2146 78.3769 23.1785 78.0703 23.1244C77.7636 23.0703 77.457 22.9801 77.1684 22.8539C76.8798 22.7276 76.6092 22.5653 76.3747 22.3668C76.1222 22.1684 75.9238 21.9339 75.7614 21.6814H75.7254V26.5696H73.5608V13.1496H73.5428ZM81.1006 18.0558C81.1006 17.6229 81.0465 17.19 80.9202 16.7751C80.812 16.3603 80.6316 15.9995 80.3971 15.6748C80.1626 15.3502 79.874 15.0976 79.5494 14.8992C79.2067 14.7008 78.8098 14.6106 78.3769 14.6106C77.475 14.6106 76.7896 14.9173 76.3206 15.5486C75.8697 16.1799 75.6352 17.0277 75.6352 18.0739C75.6352 18.5789 75.6893 19.0299 75.8156 19.4447C75.9418 19.8596 76.1042 20.2203 76.3567 20.527C76.5912 20.8336 76.8798 21.0681 77.2225 21.2485C77.5652 21.4289 77.944 21.5191 78.395 21.5191C78.9 21.5191 79.2968 21.4108 79.6396 21.2124C79.9823 21.014 80.2528 20.7434 80.4873 20.4368C80.7038 20.1121 80.8661 19.7514 80.9563 19.3365C81.0465 18.9036 81.1006 18.4887 81.1006 18.0558ZM84.9066 9.41574H87.0711V11.454H84.9066V9.41574ZM84.9066 13.1496H87.0711V22.9441H84.9066V13.1496ZM89.0011 9.41574H91.1657V22.9441H89.0011V9.41574ZM97.7675 23.2146C96.9919 23.2146 96.2884 23.0884 95.6751 22.8178C95.0618 22.5472 94.5568 22.2045 94.1239 21.7536C93.709 21.3026 93.3843 20.7434 93.1679 20.1121C92.9514 19.4808 92.8252 18.7773 92.8252 18.0378C92.8252 17.2982 92.9334 16.6128 93.1679 15.9815C93.3843 15.3502 93.709 14.809 94.1239 14.34C94.5387 13.8891 95.0618 13.5283 95.6751 13.2758C96.2884 13.0233 96.9919 12.879 97.7675 12.879C98.5431 12.879 99.2466 13.0053 99.8599 13.2758C100.473 13.5283 100.978 13.8891 101.411 14.34C101.826 14.791 102.151 15.3502 102.367 15.9815C102.584 16.6128 102.71 17.2982 102.71 18.0378C102.71 18.7954 102.602 19.4808 102.367 20.1121C102.133 20.7434 101.826 21.2846 101.411 21.7536C100.996 22.2045 100.473 22.5653 99.8599 22.8178C99.2466 23.0703 98.5611 23.2146 97.7675 23.2146ZM97.7675 21.501C98.2365 21.501 98.6694 21.3928 99.0121 21.1944C99.3729 20.996 99.6434 20.7254 99.8779 20.4007C100.112 20.076 100.275 19.6973 100.383 19.3004C100.491 18.8856 100.545 18.4707 100.545 18.0378C100.545 17.6229 100.491 17.208 100.383 16.7932C100.275 16.3783 100.112 16.0176 99.8779 15.6929C99.6434 15.3682 99.3548 15.1157 99.0121 14.9173C98.6513 14.7188 98.2365 14.6106 97.7675 14.6106C97.2985 14.6106 96.8656 14.7188 96.5229 14.9173C96.1621 15.1157 95.8916 15.3862 95.6571 15.6929C95.4226 16.0176 95.2602 16.3783 95.152 16.7932C95.0438 17.208 94.9897 17.6229 94.9897 18.0378C94.9897 18.4707 95.0438 18.8856 95.152 19.3004C95.2602 19.7153 95.4226 20.076 95.6571 20.4007C95.8916 20.7254 96.1802 20.996 96.5229 21.1944C96.8836 21.4108 97.2985 21.501 97.7675 21.501ZM103.359 13.1496H105.001V10.1914H107.165V13.1315H109.113V14.7369H107.165V19.9678C107.165 20.2023 107.183 20.3827 107.201 20.5631C107.219 20.7254 107.273 20.8697 107.327 20.9779C107.4 21.0862 107.508 21.1764 107.634 21.2305C107.778 21.2846 107.959 21.3207 108.211 21.3207C108.356 21.3207 108.518 21.3207 108.662 21.3026C108.807 21.2846 108.969 21.2665 109.113 21.2305V22.908C108.879 22.9441 108.644 22.9621 108.41 22.9801C108.175 23.0162 107.959 23.0162 107.706 23.0162C107.129 23.0162 106.678 22.9621 106.335 22.8539C105.993 22.7456 105.722 22.5833 105.524 22.3849C105.325 22.1684 105.199 21.9159 105.127 21.6093C105.055 21.3026 105.019 20.9238 105.001 20.527V14.7549H103.359V13.1135V13.1496Z" fill="white"/>
<path d="M26.807 9.41571H16.9043L13.8559 0L10.7895 9.41571L0.88678 9.39767L8.89554 15.2239L5.82912 24.6396L13.8379 18.8134L21.8466 24.6396L18.7983 15.2239L26.807 9.41571Z" fill="#00B67A"/>
<path d="M19.4837 17.3523L18.7982 15.2238L13.8559 18.8134L19.4837 17.3523Z" fill="#005128"/>
</svg>
