<svg width="1344" height="1399" viewBox="0 0 1344 1399" fill="none" xmlns="http://www.w3.org/2000/svg">
<path d="M647.681 27.1402L671.776 1.98217L831.777 168.546C804.695 169.728 783.157 192.863 783.157 221.263L782.789 735.201H561.569L560.54 221.185C560.467 192.813 538.857 169.65 511.778 168.541L561.379 116.905L561.381 116.903L572.866 105.024L572.869 105.021L622.717 53.0512L622.718 53.0497L647.679 27.1422L647.681 27.1402ZM489.303 243.86V735.057H262.638V691.314C262.638 662.159 239.938 638.473 211.841 638.473H110.239L489.303 243.86ZM854.943 735.514V244.317L1234.01 638.93H1132.41C1104.31 638.93 1081.61 662.616 1081.61 691.771V735.514H854.943ZM557.393 1392.79H557.615L510.269 1442.08V1045.68V1044.73H509.323H433.922C385.576 1044.73 346.457 1085.51 346.457 1135.75V1168.73L2.22111 810.377H1342.18L1296.52 857.988L998.386 1168.35V1135.75C998.386 1085.51 959.267 1044.73 910.92 1044.73H835.52H834.573V1045.68V1442.69L785.899 1392.02L786.088 1391.76L785.542 1391.19L673.03 1274.06L672.751 1273.77H672.348H672.274H672.042L671.837 1273.88L671.69 1273.96L671.552 1274.03L671.445 1274.14L558.933 1391.19L557.393 1392.79Z" stroke="url(#paint0_linear_2397_1892)" stroke-width="1.89252"/>
<defs>
<linearGradient id="paint0_linear_2397_1892" x1="560.072" y1="-224.884" x2="801.474" y2="1307.38" gradientUnits="userSpaceOnUse">
<stop stop-color="#0052B4"/>
<stop offset="0.51" stop-color="#45D1FF"/>
<stop offset="0.98" stop-color="#252832" stop-opacity="0"/>
</linearGradient>
</defs>
</svg>
