<svg width="48" height="49" viewBox="0 0 48 49" fill="none" xmlns="http://www.w3.org/2000/svg">
<g clip-path="url(#clip0_15_263)">
<path d="M25.8078 40.1681H6.97986C6.44094 40.1681 6 39.7272 6 39.1883V2.37988C6 1.84096 6.44094 1.40002 6.97986 1.40002H25.0093C25.2689 1.40002 25.5188 1.50291 25.7001 1.68908L33.2107 9.1997C33.3968 9.38587 33.4997 9.63084 33.4997 9.8905V30.1344C33.4997 30.6733 33.0588 31.1142 32.5199 31.1142C31.9809 31.1142 31.54 30.6733 31.54 30.1344V10.2971L24.6026 3.35974H7.95972V38.2084H25.8078C26.3468 38.2084 26.7877 38.6493 26.7877 39.1883C26.7877 39.7272 26.3468 40.1681 25.8078 40.1681Z" fill="white"/>
<path d="M32.5198 10.8702H25.0092C24.4702 10.8702 24.0293 10.4293 24.0293 9.89036V2.37975C24.0293 1.98291 24.2694 1.62526 24.6319 1.47338C24.9994 1.3215 25.4207 1.40479 25.7 1.68405L33.2106 9.19466C33.4898 9.47392 33.5731 9.89526 33.4212 10.2627C33.2694 10.6302 32.9117 10.8653 32.5149 10.8653L32.5198 10.8702ZM25.989 8.91051H30.1534L25.989 4.74611V8.91051Z" fill="white"/>
<path d="M37.2724 46.8214C37.0127 46.8214 36.7629 46.7185 36.5816 46.5323L30.7416 40.6923L27.5718 43.8622C27.3219 44.1121 26.9643 44.2051 26.6262 44.117C26.2882 44.0288 26.0236 43.7642 25.9354 43.4262L21.7367 27.7533C21.6437 27.4153 21.7416 27.0527 21.9915 26.8078C22.2414 26.5628 22.599 26.4648 22.9371 26.553L38.6099 30.7517C38.948 30.8399 39.2125 31.1044 39.3007 31.4425C39.3938 31.7805 39.2958 32.1431 39.0459 32.388L35.8761 35.5579L41.7161 41.3978C42.0982 41.78 42.0982 42.4022 41.7161 42.7843L37.9681 46.5323C37.7819 46.7185 37.537 46.8214 37.2773 46.8214H37.2724ZM30.7368 38.326C30.9964 38.326 31.2463 38.4289 31.4276 38.615L37.2675 44.455L39.629 42.0935L33.789 36.2536C33.6028 36.0674 33.5 35.8225 33.5 35.5628C33.5 35.3031 33.6028 35.0533 33.789 34.872L36.4542 32.2068L24.059 28.8851L27.3807 41.2803L30.046 38.615C30.2321 38.4289 30.4771 38.326 30.7368 38.326Z" fill="white"/>
<path d="M20.0563 11.9581H11.267C10.728 11.9581 10.2871 11.5172 10.2871 10.9783C10.2871 10.4393 10.728 9.99841 11.267 9.99841H20.0612C20.6001 9.99841 21.0411 10.4393 21.0411 10.9783C21.0411 11.5172 20.6001 11.9581 20.0612 11.9581H20.0563Z" fill="white"/>
<path d="M20.0563 31.9814H11.267C10.728 31.9814 10.2871 31.5405 10.2871 31.0016C10.2871 30.4627 10.728 30.0217 11.267 30.0217H20.0612C20.6001 30.0217 21.0411 30.4627 21.0411 31.0016C21.0411 31.5405 20.6001 31.9814 20.0612 31.9814H20.0563Z" fill="white"/>
<path d="M28.7672 18.6309H11.267C10.728 18.6309 10.2871 18.1899 10.2871 17.651C10.2871 17.1121 10.728 16.6711 11.267 16.6711H28.7672C29.3062 16.6711 29.7471 17.1121 29.7471 17.651C29.7471 18.1899 29.3062 18.6309 28.7672 18.6309Z" fill="white"/>
<path d="M28.7672 25.3087H11.267C10.728 25.3087 10.2871 24.8678 10.2871 24.3289C10.2871 23.7899 10.728 23.349 11.267 23.349H28.7672C29.3062 23.349 29.7471 23.7899 29.7471 24.3289C29.7471 24.8678 29.3062 25.3087 28.7672 25.3087Z" fill="white"/>
</g>
<defs>
<clipPath id="clip0_15_263">
<rect width="36" height="45.4213" fill="white" transform="translate(6 1.40002)"/>
</clipPath>
</defs>
</svg>
