<svg width="44" height="44" viewBox="0 0 44 44" fill="none" xmlns="http://www.w3.org/2000/svg">
<g clip-path="url(#clip0_15_273)">
<path d="M17.7206 42.3501C7.95129 42.3501 0 34.445 0 24.7326C0 15.0201 7.95129 7.11035 17.7206 7.11035C27.4898 7.11035 35.4411 15.0154 35.4411 24.7278C35.4411 34.4403 27.4898 42.3453 17.7206 42.3453V42.3501ZM17.7206 9.01289C9.00381 9.01289 1.91367 16.0665 1.91367 24.7326C1.91367 33.3986 9.00381 40.4475 17.7206 40.4475C26.4373 40.4475 33.5275 33.3986 33.5275 24.7326C33.5275 16.0665 26.4373 9.01289 17.7206 9.01289Z" fill="white"/>
<path d="M17.7207 37.4699C10.6545 37.4699 4.90869 31.7576 4.90869 24.7325C4.90869 17.7074 10.6545 11.995 17.7207 11.995C24.7869 11.995 30.5327 17.7074 30.5327 24.7325C30.5327 31.7576 24.7869 37.4699 17.7207 37.4699ZM17.7207 13.8975C11.7118 13.8975 6.82236 18.7585 6.82236 24.7325C6.82236 30.7064 11.7118 35.5674 17.7207 35.5674C23.7296 35.5674 28.619 30.7064 28.619 24.7325C28.619 18.7585 23.7296 13.8975 17.7207 13.8975Z" fill="white"/>
<path d="M17.7206 32.0381C13.6684 32.0381 10.3721 28.761 10.3721 24.7324C10.3721 20.7038 13.6684 17.4266 17.7206 17.4266C21.7727 17.4266 25.069 20.7038 25.069 24.7324C25.069 28.761 21.7727 32.0381 17.7206 32.0381ZM17.7206 19.3339C14.7257 19.3339 12.2857 21.7549 12.2857 24.7371C12.2857 27.7194 14.7209 30.1403 17.7206 30.1403C20.7202 30.1403 23.1554 27.7194 23.1554 24.7371C23.1554 21.7549 20.7154 19.3339 17.7206 19.3339Z" fill="white"/>
<path d="M17.7207 26.074C17.4528 26.074 17.1849 25.9646 16.9983 25.7458C16.6538 25.3511 16.6969 24.747 17.094 24.4045L32.7239 10.9584C33.1209 10.6159 33.7285 10.6587 34.073 11.0535C34.4174 11.4483 34.3744 12.0523 33.9773 12.3948L18.3474 25.841C18.1656 25.9979 17.9456 26.074 17.7207 26.074Z" fill="white"/>
<path d="M38.1587 14.4779C38.0295 14.4779 37.8956 14.4493 37.7712 14.397L33.5276 12.5278C33.3076 12.4327 33.1353 12.2567 33.0396 12.0379L31.1882 7.80473C31.0303 7.44801 31.1116 7.02469 31.3891 6.74883L36.269 1.9259C36.5129 1.68808 36.8622 1.59295 37.1923 1.68332C37.5224 1.76894 37.7808 2.02578 37.8669 2.35397L39.0294 6.60614L43.2969 7.78571C43.627 7.87608 43.8806 8.13292 43.9667 8.46111C44.0528 8.7893 43.9571 9.13651 43.7179 9.37433L38.8333 14.202C38.6515 14.3828 38.4075 14.4779 38.1587 14.4779ZM34.6423 10.9392L37.9482 12.3946L41.2014 9.17932L37.9913 8.28988C37.6659 8.19951 37.4124 7.94742 37.3263 7.62399L36.4508 4.42773L33.1975 7.64302L34.6423 10.9392Z" fill="white"/>
</g>
<defs>
<clipPath id="clip0_15_273">
<rect width="44" height="40.7" fill="white" transform="translate(0 1.6499)"/>
</clipPath>
</defs>
</svg>
