<svg width="78" height="78" viewBox="0 0 78 78" fill="none" xmlns="http://www.w3.org/2000/svg">
<rect x="0.5" y="0.5" width="76.8222" height="76.8222" rx="7.5" fill="#1769E5" stroke="url(#paint0_linear_2378_3384)"/>
<path d="M38.53 11.8828L37.5516 12.8591L36.5692 13.8315L34.6084 15.7841L34.1589 16.2307L32.1504 18.2268H32.1583C33.2402 18.2268 34.1192 19.0964 34.1192 20.1715L34.1589 39.5196H42.9408L42.9567 20.1754C42.9567 19.1003 43.8357 18.2268 44.9175 18.2268L40.4988 13.8354L39.5164 12.8591L38.534 11.8828L38.53 11.8828Z" fill="white"/>
<path d="M31.384 20.9374L30.9545 21.3643L28.6039 23.7003L18.3584 33.8822L16.3379 35.8902H20.4266C21.5084 35.8902 22.3874 36.7637 22.3874 37.8388V39.5187H31.384V20.9374Z" fill="white"/>
<path d="M45.7012 20.9531V39.5344H54.6978V37.8546C54.6978 36.7795 55.5768 35.9059 56.6586 35.9059H60.7473L58.7268 33.898L48.4813 23.716L46.1307 21.38L45.7012 20.9531Z" fill="white"/>
<path d="M65.0001 42.2791L63.1427 44.129L58.7359 48.5045L51.346 55.8485V54.5363C51.346 52.6667 49.8227 51.1488 47.9375 51.1488H44.9704V66.0819L44.9346 66.1175L42.9698 64.1649H42.9659L42.9738 64.153L38.5431 59.7498H38.5391L38.5312 59.7537L34.1681 64.0898L34.1044 64.153H34.1084L34.1044 64.1609L32.1436 66.1096L32.1237 66.0898V51.1409H29.1567C27.2754 51.1409 25.7481 52.6548 25.7481 54.5283V55.8564L18.3662 48.5203L13.9435 44.125L12.0781 42.2712H64.9961L65.0001 42.2791Z" fill="white"/>
<defs>
<linearGradient id="paint0_linear_2378_3384" x1="38.9111" y1="0" x2="38.9111" y2="77.8222" gradientUnits="userSpaceOnUse">
<stop stop-color="#1769E5"/>
<stop offset="1" stop-color="#3ED0FF"/>
</linearGradient>
</defs>
</svg>
