<svg width="193" height="94" viewBox="0 0 193 94" fill="none" xmlns="http://www.w3.org/2000/svg">
<path d="M7.57237 82.3068V81.3809H14.0368V82.3068H11.3265V90.0001H10.2827V82.3068H7.57237ZM14.4862 90.0001V83.5357H15.4457V84.5121H15.5131C15.6309 84.1922 15.8442 83.9327 16.1528 83.7335C16.4614 83.5343 16.8093 83.4347 17.1965 83.4347C17.2695 83.4347 17.3607 83.4361 17.4701 83.4389C17.5795 83.4417 17.6623 83.4459 17.7184 83.4515V84.4616C17.6847 84.4532 17.6076 84.4405 17.4869 84.4237C17.3691 84.4041 17.2442 84.3942 17.1124 84.3942C16.7981 84.3942 16.5175 84.4602 16.2706 84.592C16.0265 84.7211 15.8329 84.9007 15.6898 85.1307C15.5496 85.358 15.4794 85.6175 15.4794 85.9093V90.0001H14.4862ZM22.6142 87.3571V83.5357H23.6074V90.0001H22.6142V88.9059H22.5468C22.3953 89.2342 22.1596 89.5133 21.8398 89.7434C21.5199 89.9707 21.1159 90.0843 20.6277 90.0843C20.2237 90.0843 19.8645 89.9959 19.5503 89.8192C19.236 89.6396 18.9891 89.3702 18.8096 89.0111C18.63 88.6492 18.5402 88.1932 18.5402 87.6433V83.5357H19.5335V87.576C19.5335 88.0473 19.6653 88.4233 19.9291 88.7039C20.1956 88.9844 20.5351 89.1247 20.9475 89.1247C21.1945 89.1247 21.4456 89.0616 21.7009 88.9353C21.959 88.8091 22.1751 88.6155 22.349 88.3546C22.5258 88.0936 22.6142 87.7611 22.6142 87.3571ZM29.65 84.9834L28.7578 85.236C28.7017 85.0873 28.6189 84.9428 28.5095 84.8025C28.4029 84.6594 28.257 84.5415 28.0718 84.4489C27.8866 84.3564 27.6495 84.3101 27.3605 84.3101C26.9649 84.3101 26.6352 84.4012 26.3715 84.5836C26.1106 84.7632 25.9801 84.9919 25.9801 85.2696C25.9801 85.5165 26.0699 85.7115 26.2494 85.8546C26.429 85.9977 26.7096 86.117 27.0912 86.2124L28.0507 86.448C28.6287 86.5883 29.0594 86.803 29.3428 87.092C29.6262 87.3781 29.7679 87.7471 29.7679 88.1988C29.7679 88.5692 29.6612 88.9003 29.448 89.1921C29.2376 89.4839 28.943 89.7139 28.5642 89.8823C28.1854 90.0506 27.7449 90.1348 27.2427 90.1348C26.5833 90.1348 26.0376 89.9917 25.6055 89.7055C25.1734 89.4193 24.8999 89.0013 24.7848 88.4513L25.7276 88.2157C25.8174 88.5636 25.9871 88.8245 26.2368 88.9985C26.4893 89.1724 26.819 89.2594 27.2258 89.2594C27.6888 89.2594 28.0563 89.1612 28.3285 88.9648C28.6035 88.7656 28.741 88.5271 28.741 88.2493C28.741 88.0249 28.6624 87.8369 28.5053 87.6854C28.3481 87.5311 28.1069 87.416 27.7814 87.3403L26.704 87.0878C26.112 86.9475 25.6771 86.73 25.3993 86.4354C25.1243 86.138 24.9869 85.7662 24.9869 85.3201C24.9869 84.9554 25.0893 84.6327 25.2941 84.3521C25.5017 84.0716 25.7837 83.8513 26.14 83.6914C26.4992 83.5315 26.906 83.4515 27.3605 83.4515C28.0002 83.4515 28.5025 83.5918 28.8672 83.8724C29.2348 84.1529 29.4957 84.5233 29.65 84.9834ZM33.7188 83.5357V84.3774H30.3687V83.5357H33.7188ZM31.3451 81.9869H32.3384V88.1483C32.3384 88.4289 32.379 88.6393 32.4604 88.7796C32.5446 88.9171 32.6512 89.0097 32.7803 89.0574C32.9121 89.1023 33.051 89.1247 33.1969 89.1247C33.3063 89.1247 33.3961 89.1191 33.4663 89.1079C33.5364 89.0939 33.5925 89.0826 33.6346 89.0742L33.8366 89.9665C33.7693 89.9917 33.6753 90.017 33.5547 90.0422C33.434 90.0703 33.2811 90.0843 33.0959 90.0843C32.8153 90.0843 32.5404 90.024 32.271 89.9033C32.0045 89.7827 31.7828 89.5989 31.6061 89.352C31.4321 89.1051 31.3451 88.7936 31.3451 88.4177V81.9869ZM39.7056 83.5357C39.6551 83.1092 39.4503 82.7781 39.0912 82.5424C38.732 82.3068 38.2915 82.1889 37.7697 82.1889C37.3881 82.1889 37.0542 82.2506 36.768 82.3741C36.4846 82.4975 36.263 82.6673 36.1031 82.8833C35.9459 83.0994 35.8674 83.3449 35.8674 83.6198C35.8674 83.8499 35.9221 84.0477 36.0315 84.2133C36.1437 84.376 36.2868 84.5121 36.4608 84.6215C36.6347 84.7281 36.8171 84.8165 37.0079 84.8866C37.1987 84.954 37.3741 85.0087 37.534 85.0508L38.4094 85.2865C38.6338 85.3454 38.8836 85.4268 39.1585 85.5306C39.4363 85.6344 39.7014 85.7761 39.9539 85.9556C40.2093 86.1324 40.4197 86.3597 40.5852 86.6374C40.7508 86.9152 40.8335 87.2561 40.8335 87.6601C40.8335 88.1259 40.7115 88.5467 40.4674 88.9227C40.2261 89.2987 39.8726 89.5975 39.4068 89.8192C38.9439 90.0408 38.3813 90.1516 37.7192 90.1516C37.1019 90.1516 36.5674 90.052 36.1157 89.8528C35.6668 89.6536 35.3132 89.3758 35.0551 89.0195C34.7998 88.6632 34.6553 88.2493 34.6216 87.778H35.699C35.7271 88.1034 35.8365 88.3728 36.0273 88.586C36.2209 88.7965 36.465 88.9536 36.7596 89.0574C37.057 89.1584 37.3769 89.2089 37.7192 89.2089C38.1176 89.2089 38.4753 89.1444 38.7924 89.0153C39.1094 88.8834 39.3605 88.7011 39.5457 88.4682C39.7309 88.2325 39.8235 87.9575 39.8235 87.6433C39.8235 87.3571 39.7435 87.1242 39.5836 86.9447C39.4237 86.7651 39.2132 86.6192 38.9523 86.507C38.6914 86.3947 38.4094 86.2965 38.1064 86.2124L37.0458 85.9093C36.3724 85.7157 35.8393 85.4394 35.4465 85.0802C35.0537 84.7211 34.8573 84.2511 34.8573 83.6704C34.8573 83.1878 34.9878 82.7669 35.2487 82.4078C35.5124 82.0458 35.866 81.7652 36.3093 81.566C36.7554 81.364 37.2534 81.263 37.8033 81.263C38.3589 81.263 38.8527 81.3626 39.2848 81.5618C39.7169 81.7582 40.0592 82.0276 40.3117 82.3699C40.567 82.7122 40.7017 83.1008 40.7157 83.5357H39.7056ZM44.6856 90.1348C44.0795 90.1348 43.5577 89.9917 43.12 89.7055C42.6823 89.4193 42.3456 89.0251 42.1099 88.5229C41.8742 88.0207 41.7564 87.4469 41.7564 86.8016C41.7564 86.145 41.877 85.5656 42.1183 85.0634C42.3624 84.5584 42.7019 84.1642 43.1368 83.8808C43.5745 83.5946 44.0851 83.4515 44.6687 83.4515C45.1233 83.4515 45.5329 83.5357 45.8977 83.704C46.2624 83.8724 46.5612 84.108 46.7941 84.4111C47.027 84.7141 47.1715 85.0676 47.2276 85.4716H46.2344C46.1586 85.177 45.9903 84.9161 45.7293 84.6888C45.4712 84.4588 45.1233 84.3437 44.6856 84.3437C44.2984 84.3437 43.9589 84.4447 43.6671 84.6468C43.3781 84.846 43.1522 85.1279 42.9895 85.4927C42.8296 85.8546 42.7496 86.2797 42.7496 86.7679C42.7496 87.2673 42.8282 87.7022 42.9853 88.0726C43.1452 88.4429 43.3697 88.7305 43.6587 88.9353C43.9505 89.1402 44.2928 89.2426 44.6856 89.2426C44.9437 89.2426 45.178 89.1977 45.3884 89.1079C45.5988 89.0181 45.777 88.889 45.9229 88.7207C46.0688 88.5524 46.1726 88.3503 46.2344 88.1147H47.2276C47.1715 88.4962 47.0326 88.8399 46.8109 89.1458C46.5921 89.4488 46.3017 89.6901 45.9397 89.8697C45.5806 90.0464 45.1626 90.1348 44.6856 90.1348ZM50.9502 90.1348C50.3666 90.1348 49.8546 89.9959 49.4141 89.7181C48.9764 89.4404 48.6341 89.0518 48.3871 88.5524C48.143 88.0529 48.021 87.4693 48.021 86.8016C48.021 86.1282 48.143 85.5404 48.3871 85.0382C48.6341 84.5359 48.9764 84.1459 49.4141 83.8682C49.8546 83.5904 50.3666 83.4515 50.9502 83.4515C51.5338 83.4515 52.0444 83.5904 52.4821 83.8682C52.9226 84.1459 53.2649 84.5359 53.509 85.0382C53.7559 85.5404 53.8794 86.1282 53.8794 86.8016C53.8794 87.4693 53.7559 88.0529 53.509 88.5524C53.2649 89.0518 52.9226 89.4404 52.4821 89.7181C52.0444 89.9959 51.5338 90.1348 50.9502 90.1348ZM50.9502 89.2426C51.3935 89.2426 51.7583 89.1289 52.0444 88.9017C52.3306 88.6744 52.5425 88.3756 52.6799 88.0052C52.8174 87.6349 52.8862 87.2337 52.8862 86.8016C52.8862 86.3695 52.8174 85.9669 52.6799 85.5937C52.5425 85.2205 52.3306 84.9189 52.0444 84.6888C51.7583 84.4588 51.3935 84.3437 50.9502 84.3437C50.5069 84.3437 50.1421 84.4588 49.856 84.6888C49.5698 84.9189 49.3579 85.2205 49.2205 85.5937C49.083 85.9669 49.0142 86.3695 49.0142 86.8016C49.0142 87.2337 49.083 87.6349 49.2205 88.0052C49.3579 88.3756 49.5698 88.6744 49.856 88.9017C50.1421 89.1289 50.5069 89.2426 50.9502 89.2426ZM55.04 90.0001V83.5357H55.9996V84.5121H56.0669C56.1848 84.1922 56.398 83.9327 56.7066 83.7335C57.0153 83.5343 57.3632 83.4347 57.7504 83.4347C57.8233 83.4347 57.9145 83.4361 58.0239 83.4389C58.1334 83.4417 58.2161 83.4459 58.2722 83.4515V84.4616C58.2386 84.4532 58.1614 84.4405 58.0408 84.4237C57.9229 84.4041 57.7981 84.3942 57.6662 84.3942C57.352 84.3942 57.0714 84.4602 56.8245 84.592C56.5804 84.7211 56.3868 84.9007 56.2437 85.1307C56.1034 85.358 56.0332 85.6175 56.0332 85.9093V90.0001H55.04ZM61.6077 90.1348C60.9848 90.1348 60.4475 89.9973 59.9957 89.7224C59.5468 89.4446 59.2003 89.0574 58.9562 88.5608C58.7149 88.0613 58.5943 87.4806 58.5943 86.8184C58.5943 86.1562 58.7149 85.5726 58.9562 85.0676C59.2003 84.5598 59.5398 84.1642 59.9747 83.8808C60.4124 83.5946 60.923 83.4515 61.5066 83.4515C61.8433 83.4515 62.1758 83.5076 62.5041 83.6198C62.8324 83.7321 63.1312 83.9145 63.4005 84.167C63.6699 84.4167 63.8845 84.7478 64.0444 85.1602C64.2044 85.5726 64.2843 86.0805 64.2843 86.6837V87.1046H59.3013V86.246H63.2743C63.2743 85.8813 63.2013 85.5558 63.0554 85.2696C62.9123 84.9834 62.7075 84.7576 62.441 84.592C62.1772 84.4265 61.8658 84.3437 61.5066 84.3437C61.111 84.3437 60.7687 84.4419 60.4797 84.6383C60.1936 84.8319 59.9733 85.0844 59.819 85.3959C59.6647 85.7073 59.5875 86.0412 59.5875 86.3975V86.9699C59.5875 87.4581 59.6717 87.872 59.84 88.2115C60.0112 88.5481 60.2483 88.8049 60.5513 88.9816C60.8543 89.1556 61.2064 89.2426 61.6077 89.2426C61.8686 89.2426 62.1043 89.2061 62.3147 89.1331C62.5279 89.0574 62.7117 88.9452 62.866 88.7965C63.0203 88.6449 63.1396 88.457 63.2238 88.2325L64.1833 88.5019C64.0823 88.8273 63.9126 89.1135 63.6741 89.3604C63.4356 89.6045 63.141 89.7953 62.7903 89.9328C62.4396 90.0675 62.0453 90.1348 61.6077 90.1348ZM68.1186 88.4008V87.1593L71.7759 81.3809H72.8112V83.1485H72.1799L69.7178 87.0499V87.1172H74.8229V88.4008H68.1186ZM72.2304 90.0001V88.0221L72.2472 87.4665V81.3809H73.7202V90.0001H72.2304ZM76.5243 90.0927C76.269 90.0927 76.0501 90.0029 75.8678 89.8234C75.6854 89.6438 75.5956 89.4249 75.5984 89.1668C75.5956 88.9143 75.6854 88.6983 75.8678 88.5187C76.0501 88.3391 76.269 88.2493 76.5243 88.2493C76.7712 88.2493 76.9859 88.3391 77.1682 88.5187C77.3534 88.6983 77.4474 88.9143 77.4502 89.1668C77.4474 89.338 77.4025 89.4937 77.3155 89.634C77.2314 89.7743 77.1191 89.8865 76.9789 89.9707C76.8414 90.052 76.6899 90.0927 76.5243 90.0927ZM81.5011 90.1643C80.8081 90.1643 80.2133 89.9889 79.7167 89.6382C79.2228 89.2847 78.8427 88.7754 78.5761 88.1104C78.3124 87.4427 78.1805 86.6388 78.1805 85.6989C78.1833 84.759 78.3166 83.9593 78.5803 83.3C78.8469 82.6378 79.227 82.1328 79.7209 81.7849C80.2175 81.437 80.8109 81.263 81.5011 81.263C82.1913 81.263 82.7847 81.437 83.2814 81.7849C83.778 82.1328 84.1582 82.6378 84.4219 83.3C84.6884 83.9621 84.8217 84.7618 84.8217 85.6989C84.8217 86.6416 84.6884 87.4469 84.4219 88.1147C84.1582 88.7796 83.778 89.2875 83.2814 89.6382C82.7875 89.9889 82.1941 90.1643 81.5011 90.1643ZM81.5011 88.847C82.0398 88.847 82.4649 88.5818 82.7763 88.0515C83.0906 87.5184 83.2477 86.7342 83.2477 85.6989C83.2477 85.0143 83.1761 84.4391 83.033 83.9734C82.89 83.5076 82.6879 83.1569 82.427 82.9212C82.1661 82.6827 81.8574 82.5635 81.5011 82.5635C80.9652 82.5635 80.5415 82.83 80.2301 83.3631C79.9187 83.8934 79.7615 84.672 79.7587 85.6989C79.7559 86.3863 79.8247 86.9643 79.965 87.4329C80.1081 87.9014 80.3101 88.2549 80.571 88.4934C80.8319 88.7291 81.142 88.847 81.5011 88.847ZM100.555 88.485V87.0499L104.153 81.3809H105.391V83.3673H104.659L102.39 86.9573V87.0246H107.504V88.485H100.555ZM104.692 90.0001V88.0473L104.726 87.4118V81.3809H106.435V90.0001H104.692ZM110.166 88.8217L110.119 89.2847C110.083 89.655 110.013 90.024 109.909 90.3915C109.808 90.7619 109.701 91.0972 109.589 91.3974C109.48 91.6976 109.391 91.9333 109.324 92.1044H108.162C108.204 91.9389 108.262 91.7074 108.335 91.41C108.408 91.1154 108.477 90.7843 108.541 90.4168C108.606 90.0492 108.646 89.6747 108.663 89.2931L108.684 88.8217H110.166ZM114.106 81.3809V90.0001H112.284V83.1106H112.233L110.259 84.3479V82.7318L112.393 81.3809H114.106ZM119.179 90.1895C118.455 90.1867 117.832 90.0085 117.31 89.655C116.791 89.3015 116.391 88.7894 116.11 88.1189C115.833 87.4483 115.695 86.6416 115.698 85.6989C115.698 84.759 115.837 83.9579 116.115 83.2958C116.395 82.6336 116.795 82.13 117.314 81.7849C117.836 81.437 118.457 81.263 119.179 81.263C119.9 81.263 120.52 81.437 121.039 81.7849C121.561 82.1328 121.962 82.6378 122.242 83.3C122.523 83.9593 122.662 84.759 122.659 85.6989C122.659 86.6444 122.519 87.4525 122.238 88.1231C121.96 88.7936 121.562 89.3057 121.043 89.6592C120.524 90.0127 119.902 90.1895 119.179 90.1895ZM119.179 88.6786C119.672 88.6786 120.067 88.4303 120.361 87.9337C120.656 87.4371 120.802 86.6921 120.799 85.6989C120.799 85.0452 120.731 84.5009 120.597 84.066C120.465 83.6311 120.277 83.3042 120.033 83.0854C119.792 82.8665 119.507 82.7571 119.179 82.7571C118.688 82.7571 118.295 83.0026 118 83.4936C117.705 83.9846 117.557 84.7197 117.554 85.6989C117.554 86.3611 117.62 86.9138 117.752 87.3571C117.886 87.7976 118.076 88.1287 118.32 88.3503C118.564 88.5692 118.85 88.6786 119.179 88.6786ZM126.751 90.118C126.156 90.118 125.626 90.0085 125.16 89.7897C124.697 89.5708 124.33 89.2692 124.057 88.8848C123.785 88.5004 123.644 88.0599 123.632 87.5633H125.4C125.42 87.8972 125.56 88.168 125.821 88.3756C126.082 88.5832 126.392 88.687 126.751 88.687C127.037 88.687 127.29 88.6239 127.509 88.4976C127.73 88.3686 127.903 88.1904 128.026 87.9631C128.152 87.7331 128.216 87.4693 128.216 87.1719C128.216 86.8689 128.151 86.6024 128.022 86.3723C127.896 86.1422 127.72 85.9626 127.496 85.8336C127.271 85.7045 127.015 85.6386 126.726 85.6358C126.473 85.6358 126.228 85.6877 125.989 85.7915C125.754 85.8953 125.57 86.037 125.438 86.2166L123.818 85.9262L124.226 81.3809H129.495V82.8707H125.728L125.505 85.0297H125.556C125.707 84.8165 125.936 84.6397 126.242 84.4995C126.548 84.3592 126.89 84.289 127.269 84.289C127.788 84.289 128.251 84.4111 128.657 84.6552C129.064 84.8993 129.386 85.2346 129.621 85.661C129.857 86.0847 129.973 86.5729 129.971 87.1256C129.973 87.7064 129.839 88.2227 129.567 88.6744C129.297 89.1233 128.92 89.4768 128.434 89.735C127.952 89.9903 127.391 90.118 126.751 90.118ZM134.209 90.0001V81.3809H137.121C137.795 81.3809 138.347 81.4959 138.779 81.726C139.211 81.9532 139.531 82.2661 139.739 82.6645C139.947 83.0629 140.05 83.516 140.05 84.0239C140.05 84.5317 139.947 84.982 139.739 85.3748C139.531 85.7676 139.213 86.0763 138.784 86.3007C138.354 86.5224 137.806 86.6332 137.138 86.6332H134.781V85.6905H137.104C137.564 85.6905 137.935 85.6232 138.215 85.4885C138.499 85.3538 138.704 85.163 138.83 84.9161C138.959 84.6664 139.023 84.369 139.023 84.0239C139.023 83.6788 138.959 83.3772 138.83 83.119C138.701 82.8609 138.495 82.6617 138.211 82.5214C137.928 82.3783 137.553 82.3068 137.088 82.3068H135.253V90.0001H134.209ZM138.266 86.1282L140.387 90.0001H139.175L137.088 86.1282H138.266ZM143.94 90.1348C143.317 90.1348 142.78 89.9973 142.328 89.7224C141.879 89.4446 141.533 89.0574 141.289 88.5608C141.048 88.0613 140.927 87.4806 140.927 86.8184C140.927 86.1562 141.048 85.5726 141.289 85.0676C141.533 84.5598 141.872 84.1642 142.307 83.8808C142.745 83.5946 143.256 83.4515 143.839 83.4515C144.176 83.4515 144.508 83.5076 144.837 83.6198C145.165 83.7321 145.464 83.9145 145.733 84.167C146.003 84.4167 146.217 84.7478 146.377 85.1602C146.537 85.5726 146.617 86.0805 146.617 86.6837V87.1046H141.634V86.246H145.607C145.607 85.8813 145.534 85.5558 145.388 85.2696C145.245 84.9834 145.04 84.7576 144.774 84.592C144.51 84.4265 144.198 84.3437 143.839 84.3437C143.444 84.3437 143.101 84.4419 142.812 84.6383C142.526 84.8319 142.306 85.0844 142.152 85.3959C141.997 85.7073 141.92 86.0412 141.92 86.3975V86.9699C141.92 87.4581 142.004 87.872 142.173 88.2115C142.344 88.5481 142.581 88.8049 142.884 88.9816C143.187 89.1556 143.539 89.2426 143.94 89.2426C144.201 89.2426 144.437 89.2061 144.647 89.1331C144.861 89.0574 145.044 88.9452 145.199 88.7965C145.353 88.6449 145.472 88.457 145.556 88.2325L146.516 88.5019C146.415 88.8273 146.245 89.1135 146.007 89.3604C145.768 89.6045 145.474 89.7953 145.123 89.9328C144.772 90.0675 144.378 90.1348 143.94 90.1348ZM152.862 83.5357L150.471 90.0001H149.461L147.071 83.5357H148.148L149.932 88.687H150L151.784 83.5357H152.862ZM153.817 90.0001V83.5357H154.81V90.0001H153.817ZM154.322 82.4583C154.128 82.4583 153.962 82.3923 153.821 82.2605C153.684 82.1286 153.615 81.9701 153.615 81.7849C153.615 81.5997 153.684 81.4412 153.821 81.3093C153.962 81.1774 154.128 81.1115 154.322 81.1115C154.516 81.1115 154.681 81.1774 154.819 81.3093C154.959 81.4412 155.029 81.5997 155.029 81.7849C155.029 81.9701 154.959 82.1286 154.819 82.2605C154.681 82.3923 154.516 82.4583 154.322 82.4583ZM158.984 90.1348C158.361 90.1348 157.824 89.9973 157.372 89.7224C156.923 89.4446 156.577 89.0574 156.333 88.5608C156.092 88.0613 155.971 87.4806 155.971 86.8184C155.971 86.1562 156.092 85.5726 156.333 85.0676C156.577 84.5598 156.916 84.1642 157.351 83.8808C157.789 83.5946 158.3 83.4515 158.883 83.4515C159.22 83.4515 159.552 83.5076 159.881 83.6198C160.209 83.7321 160.508 83.9145 160.777 84.167C161.046 84.4167 161.261 84.7478 161.421 85.1602C161.581 85.5726 161.661 86.0805 161.661 86.6837V87.1046H156.678V86.246H160.651C160.651 85.8813 160.578 85.5558 160.432 85.2696C160.289 84.9834 160.084 84.7576 159.818 84.592C159.554 84.4265 159.242 84.3437 158.883 84.3437C158.488 84.3437 158.145 84.4419 157.856 84.6383C157.57 84.8319 157.35 85.0844 157.196 85.3959C157.041 85.7073 156.964 86.0412 156.964 86.3975V86.9699C156.964 87.4581 157.048 87.872 157.217 88.2115C157.388 88.5481 157.625 88.8049 157.928 88.9816C158.231 89.1556 158.583 89.2426 158.984 89.2426C159.245 89.2426 159.481 89.2061 159.691 89.1331C159.905 89.0574 160.088 88.9452 160.243 88.7965C160.397 88.6449 160.516 88.457 160.6 88.2325L161.56 88.5019C161.459 88.8273 161.289 89.1135 161.051 89.3604C160.812 89.6045 160.518 89.7953 160.167 89.9328C159.816 90.0675 159.422 90.1348 158.984 90.1348ZM164.281 90.0001L162.311 83.5357H163.355L164.752 88.485H164.82L166.2 83.5357H167.261L168.624 88.4682H168.692L170.089 83.5357H171.133L169.163 90.0001H168.187L166.772 85.0339H166.671L165.257 90.0001H164.281ZM176.669 84.9834L175.777 85.236C175.721 85.0873 175.638 84.9428 175.529 84.8025C175.422 84.6594 175.276 84.5415 175.091 84.4489C174.906 84.3564 174.669 84.3101 174.38 84.3101C173.984 84.3101 173.654 84.4012 173.391 84.5836C173.13 84.7632 172.999 84.9919 172.999 85.2696C172.999 85.5165 173.089 85.7115 173.269 85.8546C173.448 85.9977 173.729 86.117 174.11 86.2124L175.07 86.448C175.648 86.5883 176.078 86.803 176.362 87.092C176.645 87.3781 176.787 87.7471 176.787 88.1988C176.787 88.5692 176.68 88.9003 176.467 89.1921C176.257 89.4839 175.962 89.7139 175.583 89.8823C175.204 90.0506 174.764 90.1348 174.262 90.1348C173.602 90.1348 173.057 89.9917 172.625 89.7055C172.193 89.4193 171.919 89.0013 171.804 88.4513L172.747 88.2157C172.836 88.5636 173.006 88.8245 173.256 88.9985C173.508 89.1724 173.838 89.2594 174.245 89.2594C174.708 89.2594 175.075 89.1612 175.348 88.9648C175.623 88.7656 175.76 88.5271 175.76 88.2493C175.76 88.0249 175.681 87.8369 175.524 87.6854C175.367 87.5311 175.126 87.416 174.8 87.3403L173.723 87.0878C173.131 86.9475 172.696 86.73 172.418 86.4354C172.143 86.138 172.006 85.7662 172.006 85.3201C172.006 84.9554 172.108 84.6327 172.313 84.3521C172.521 84.0716 172.803 83.8513 173.159 83.6914C173.518 83.5315 173.925 83.4515 174.38 83.4515C175.019 83.4515 175.522 83.5918 175.886 83.8724C176.254 84.1529 176.515 84.5233 176.669 84.9834Z" fill="white"/>
<rect width="34" height="34" transform="translate(7 36.0001)" fill="#72C619"/>
<path d="M35.4117 50.4504H26.4716L23.7101 42.0001L20.9401 50.4504L12 50.4418L19.2401 55.6697L16.47 64.1114L23.7101 58.8921L30.9416 64.1114L28.1802 55.6697L35.4117 50.4504Z" fill="white"/>
<path d="M28.8001 57.5808L28.1787 55.6697L23.7087 58.8921L28.8001 57.5808Z" fill="#838383"/>
<rect width="34" height="34" transform="translate(45 36.0001)" fill="#72C619"/>
<path d="M73.4117 50.4504H64.4716L61.7101 42.0001L58.9401 50.4504L50 50.4418L57.2401 55.6697L54.47 64.1114L61.7101 58.8921L68.9416 64.1114L66.1802 55.6697L73.4117 50.4504Z" fill="white"/>
<path d="M66.8 57.5808L66.1787 55.6697L61.7087 58.8921L66.8 57.5808Z" fill="#838383"/>
<rect width="34" height="34" transform="translate(83 36.0001)" fill="#72C619"/>
<path d="M111.412 50.4504H102.472L99.7101 42.0001L96.9401 50.4504L88 50.4418L95.2401 55.6697L92.47 64.1114L99.7101 58.8921L106.942 64.1114L104.18 55.6697L111.412 50.4504Z" fill="white"/>
<path d="M104.8 57.5808L104.179 55.6697L99.7087 58.8921L104.8 57.5808Z" fill="#838383"/>
<rect width="34" height="34" transform="translate(121 36.0001)" fill="#72C619"/>
<path d="M149.412 50.4504H140.472L137.71 42.0001L134.94 50.4504L126 50.4418L133.24 55.6697L130.47 64.1114L137.71 58.8921L144.942 64.1114L142.18 55.6697L149.412 50.4504Z" fill="white"/>
<path d="M142.8 57.5808L142.179 55.6697L137.709 58.8921L142.8 57.5808Z" fill="#838383"/>
<rect width="34" height="34" transform="translate(159 36.0001)" fill="#B7B7B7"/>
<path d="M187.412 50.4504H178.472L175.71 42.0001L172.94 50.4504L164 50.4418L171.24 55.6697L168.47 64.1114L175.71 58.8921L182.942 64.1114L180.18 55.6697L187.412 50.4504Z" fill="white"/>
<path d="M180.8 57.5808L180.179 55.6697L175.709 58.8921L180.8 57.5808Z" fill="#838383"/>
<rect x="92.5" y="78.6932" width="0.846535" height="12.698" fill="#D9D9D9"/>
<g clip-path="url(#clip0_2998_4025)">
<path d="M32.3323 9.41571H43.2812V11.454H38.9702V22.944H36.6072V11.454H32.3142L32.3323 9.41571ZM42.8122 13.1495H44.8324V15.0435H44.8685C44.9407 14.7729 45.0669 14.5204 45.2473 14.2679C45.4277 14.0153 45.6441 13.7808 45.9147 13.5824C46.1672 13.366 46.4558 13.2036 46.7805 13.0774C47.0872 12.9511 47.4118 12.879 47.7365 12.879C47.989 12.879 48.1694 12.897 48.2596 12.897C48.3498 12.915 48.458 12.9331 48.5482 12.9331V15.0074C48.4039 14.9713 48.2416 14.9533 48.0792 14.9353C47.9169 14.9172 47.7726 14.8992 47.6102 14.8992C47.2495 14.8992 46.9068 14.9713 46.5821 15.1156C46.2574 15.2599 45.9869 15.4764 45.7343 15.747C45.4998 16.0356 45.3014 16.3783 45.1571 16.7931C45.0128 17.208 44.9407 17.695 44.9407 18.2362V22.8899H42.7761L42.8122 13.1495ZM58.469 22.944H56.3405V21.5732H56.3044C56.0339 22.0782 55.637 22.457 55.114 22.7636C54.5909 23.0703 54.0497 23.2146 53.5086 23.2146C52.2279 23.2146 51.29 22.9079 50.7127 22.2586C50.1355 21.6273 49.8469 20.6532 49.8469 19.3725V13.1495H52.0115V19.1561C52.0115 20.0219 52.1738 20.6352 52.5165 20.9779C52.8412 21.3387 53.3102 21.519 53.9054 21.519C54.3564 21.519 54.7352 21.4469 55.0418 21.3026C55.3484 21.1583 55.601 20.9779 55.7814 20.7434C55.9798 20.5089 56.106 20.2203 56.1962 19.8956C56.2864 19.571 56.3225 19.2102 56.3225 18.8314V13.1495H58.487V22.944H58.469ZM62.1487 19.8054C62.2208 20.4368 62.4553 20.8697 62.8702 21.1402C63.2851 21.3928 63.7901 21.519 64.3673 21.519C64.5657 21.519 64.8002 21.501 65.0528 21.4649C65.3053 21.4288 65.5578 21.3747 65.7743 21.2845C66.0088 21.1944 66.1891 21.0681 66.3334 20.8877C66.4777 20.7073 66.5499 20.4909 66.5318 20.2203C66.5138 19.9498 66.4236 19.7153 66.2252 19.5349C66.0268 19.3545 65.7923 19.2282 65.5037 19.102C65.2151 18.9938 64.8724 18.9036 64.4936 18.8314C64.1148 18.7593 63.736 18.6691 63.3392 18.5789C62.9423 18.4887 62.5455 18.3805 62.1667 18.2542C61.7879 18.1279 61.4632 17.9656 61.1566 17.7311C60.868 17.5147 60.6155 17.2441 60.4531 16.9014C60.2727 16.5587 60.1826 16.1618 60.1826 15.6568C60.1826 15.1156 60.3088 14.6827 60.5794 14.322C60.8319 13.9612 61.1746 13.6726 61.5715 13.4562C61.9683 13.2397 62.4192 13.0774 62.9063 12.9872C63.3933 12.897 63.8623 12.8609 64.2952 12.8609C64.8002 12.8609 65.2872 12.915 65.7382 13.0233C66.1891 13.1315 66.622 13.2938 66.9828 13.5464C67.3616 13.7808 67.6682 14.1055 67.9027 14.4843C68.1552 14.8631 68.2995 15.3321 68.3717 15.8732H66.117C66.0088 15.3501 65.7743 15.0074 65.4135 14.827C65.0347 14.6467 64.6198 14.5565 64.1328 14.5565C63.9885 14.5565 63.7901 14.5745 63.5917 14.5925C63.3752 14.6286 63.1949 14.6647 62.9965 14.7368C62.8161 14.809 62.6537 14.9172 62.5275 15.0435C62.4012 15.1697 62.3291 15.3501 62.3291 15.5666C62.3291 15.8371 62.4192 16.0356 62.5996 16.1979C62.78 16.3602 63.0145 16.4865 63.3211 16.6128C63.6097 16.721 63.9525 16.8112 64.3312 16.8833C64.71 16.9555 65.1069 17.0457 65.5037 17.1359C65.9005 17.2261 66.2793 17.3343 66.6581 17.4605C67.0369 17.5868 67.3796 17.7492 67.6682 17.9836C67.9568 18.2001 68.2094 18.4707 68.3897 18.7953C68.5701 19.12 68.6603 19.5349 68.6603 20.0039C68.6603 20.5811 68.534 21.0681 68.2635 21.483C67.9929 21.8798 67.6502 22.2225 67.2353 22.475C66.8205 22.7276 66.3334 22.9079 65.8284 23.0342C65.3053 23.1424 64.8002 23.2146 64.2952 23.2146C63.6819 23.2146 63.1047 23.1424 62.5816 22.9981C62.0585 22.8538 61.5895 22.6374 61.2107 22.3668C60.8319 22.0782 60.5253 21.7355 60.3088 21.3026C60.0924 20.8877 59.9661 20.3827 59.9481 19.7874H62.1306V19.8054H62.1487ZM69.2736 13.1495H70.915V10.1913H73.0796V13.1315H75.0276V14.7368H73.0796V19.9678C73.0796 20.2023 73.0976 20.3827 73.1156 20.563C73.1337 20.7254 73.1878 20.8697 73.2419 20.9779C73.314 21.0861 73.4223 21.1763 73.5485 21.2304C73.6928 21.2845 73.8732 21.3206 74.1257 21.3206C74.27 21.3206 74.4324 21.3206 74.5767 21.3026C74.721 21.2845 74.8833 21.2665 75.0276 21.2304V22.9079C74.7931 22.944 74.5586 22.9621 74.3242 22.9801C74.0897 23.0162 73.8732 23.0162 73.6207 23.0162C73.0435 23.0162 72.5925 22.9621 72.2498 22.8538C71.9071 22.7456 71.6365 22.5833 71.4381 22.3849C71.2397 22.1684 71.1134 21.9159 71.0413 21.6092C70.9691 21.3026 70.9331 20.9238 70.915 20.527V14.7549H69.2736V13.1134V13.1495ZM76.5428 13.1495H78.5811V14.4843H78.6171C78.9238 13.9071 79.3386 13.5103 79.8798 13.2577C80.4209 13.0052 80.9981 12.879 81.6475 12.879C82.4231 12.879 83.0905 13.0052 83.6677 13.2938C84.2449 13.5644 84.7139 13.9251 85.0927 14.4122C85.4715 14.8811 85.7601 15.4403 85.9405 16.0716C86.1208 16.703 86.2291 17.3884 86.2291 18.0919C86.2291 18.7593 86.1389 19.3906 85.9765 20.0039C85.7962 20.6171 85.5436 21.1763 85.2009 21.6453C84.8582 22.1143 84.4253 22.4931 83.8842 22.7817C83.343 23.0703 82.7297 23.2146 82.0082 23.2146C81.7016 23.2146 81.3769 23.1785 81.0703 23.1244C80.7636 23.0703 80.457 22.9801 80.1684 22.8538C79.8798 22.7276 79.6092 22.5652 79.3747 22.3668C79.1222 22.1684 78.9238 21.9339 78.7614 21.6814H78.7254V26.5696H76.5608V13.1495H76.5428ZM84.1006 18.0558C84.1006 17.6229 84.0465 17.19 83.9202 16.7751C83.812 16.3602 83.6316 15.9995 83.3971 15.6748C83.1626 15.3501 82.874 15.0976 82.5494 14.8992C82.2067 14.7008 81.8098 14.6106 81.3769 14.6106C80.475 14.6106 79.7896 14.9172 79.3206 15.5485C78.8697 16.1799 78.6352 17.0276 78.6352 18.0738C78.6352 18.5789 78.6893 19.0298 78.8156 19.4447C78.9418 19.8596 79.1042 20.2203 79.3567 20.527C79.5912 20.8336 79.8798 21.0681 80.2225 21.2485C80.5652 21.4288 80.944 21.519 81.395 21.519C81.9 21.519 82.2968 21.4108 82.6396 21.2124C82.9823 21.014 83.2528 20.7434 83.4873 20.4368C83.7038 20.1121 83.8661 19.7513 83.9563 19.3365C84.0465 18.9036 84.1006 18.4887 84.1006 18.0558ZM87.9066 9.41571H90.0711V11.454H87.9066V9.41571ZM87.9066 13.1495H90.0711V22.944H87.9066V13.1495ZM92.0011 9.41571H94.1657V22.944H92.0011V9.41571ZM100.767 23.2146C99.9919 23.2146 99.2884 23.0883 98.6751 22.8178C98.0618 22.5472 97.5568 22.2045 97.1239 21.7535C96.709 21.3026 96.3843 20.7434 96.1679 20.1121C95.9514 19.4808 95.8252 18.7773 95.8252 18.0378C95.8252 17.2982 95.9334 16.6128 96.1679 15.9814C96.3843 15.3501 96.709 14.809 97.1239 14.34C97.5387 13.8891 98.0618 13.5283 98.6751 13.2758C99.2884 13.0233 99.9919 12.879 100.767 12.879C101.543 12.879 102.247 13.0052 102.86 13.2758C103.473 13.5283 103.978 13.8891 104.411 14.34C104.826 14.791 105.151 15.3501 105.367 15.9814C105.584 16.6128 105.71 17.2982 105.71 18.0378C105.71 18.7953 105.602 19.4808 105.367 20.1121C105.133 20.7434 104.826 21.2845 104.411 21.7535C103.996 22.2045 103.473 22.5652 102.86 22.8178C102.247 23.0703 101.561 23.2146 100.767 23.2146ZM100.767 21.501C101.236 21.501 101.669 21.3928 102.012 21.1944C102.373 20.9959 102.643 20.7254 102.878 20.4007C103.112 20.076 103.275 19.6972 103.383 19.3004C103.491 18.8855 103.545 18.4707 103.545 18.0378C103.545 17.6229 103.491 17.208 103.383 16.7931C103.275 16.3783 103.112 16.0175 102.878 15.6928C102.643 15.3682 102.355 15.1156 102.012 14.9172C101.651 14.7188 101.236 14.6106 100.767 14.6106C100.299 14.6106 99.8656 14.7188 99.5229 14.9172C99.1621 15.1156 98.8916 15.3862 98.6571 15.6928C98.4226 16.0175 98.2602 16.3783 98.152 16.7931C98.0438 17.208 97.9897 17.6229 97.9897 18.0378C97.9897 18.4707 98.0438 18.8855 98.152 19.3004C98.2602 19.7153 98.4226 20.076 98.6571 20.4007C98.8916 20.7254 99.1802 20.9959 99.5229 21.1944C99.8836 21.4108 100.299 21.501 100.767 21.501ZM106.359 13.1495H108.001V10.1913H110.165V13.1315H112.113V14.7368H110.165V19.9678C110.165 20.2023 110.183 20.3827 110.201 20.563C110.219 20.7254 110.273 20.8697 110.327 20.9779C110.4 21.0861 110.508 21.1763 110.634 21.2304C110.778 21.2845 110.959 21.3206 111.211 21.3206C111.356 21.3206 111.518 21.3206 111.662 21.3026C111.807 21.2845 111.969 21.2665 112.113 21.2304V22.9079C111.879 22.944 111.644 22.9621 111.41 22.9801C111.175 23.0162 110.959 23.0162 110.706 23.0162C110.129 23.0162 109.678 22.9621 109.335 22.8538C108.993 22.7456 108.722 22.5833 108.524 22.3849C108.325 22.1684 108.199 21.9159 108.127 21.6092C108.055 21.3026 108.019 20.9238 108.001 20.527V14.7549H106.359V13.1134V13.1495Z" fill="white"/>
<path d="M29.807 9.41571H19.9043L16.8559 0L13.7895 9.41571L3.88678 9.39767L11.8955 15.2239L8.82912 24.6396L16.8379 18.8134L24.8466 24.6396L21.7983 15.2239L29.807 9.41571Z" fill="#00B67A"/>
<path d="M22.4837 17.3523L21.7982 15.2238L16.8559 18.8133L22.4837 17.3523Z" fill="#005128"/>
</g>
<defs>
<clipPath id="clip0_2998_4025">
<rect width="134" height="-26.5696" fill="white" transform="matrix(-1 0 0 -1 134 0)"/>
</clipPath>
</defs>
</svg>
