<svg width="69" height="68" viewBox="0 0 69 68" fill="none" xmlns="http://www.w3.org/2000/svg">
<path d="M23.75 42.375C23.75 44.8 25.625 46.75 27.925 46.75H32.625C34.625 46.75 36.25 45.05 36.25 42.925C36.25 40.65 35.25 39.825 33.775 39.3L26.25 36.675C24.775 36.15 23.775 35.35 23.775 33.05C23.775 30.95 25.4 29.225 27.4 29.225H32.1C34.4 29.225 36.275 31.175 36.275 33.6" stroke="white" stroke-width="3" stroke-linecap="round" stroke-linejoin="round"/>
<path d="M30 26.75V49.25" stroke="white" stroke-width="3" stroke-linecap="round" stroke-linejoin="round"/>
<path d="M55 38C55 51.8 43.8 63 30 63C16.2 63 5 51.8 5 38C5 24.2 16.2 13 30 13" stroke="white" stroke-width="3" stroke-linecap="round" stroke-linejoin="round"/>
<path fill-rule="evenodd" clip-rule="evenodd" d="M51.9417 2.87015C52.2464 2.73479 52.5879 2.71545 52.9032 2.81214L53.0583 2.87015L65.4333 8.36848C65.931 8.58961 66.2465 9.08056 66.25 9.61535L66.2416 9.77687L65.4545 16.8604C65.0522 20.4811 63.0763 23.7331 60.0659 25.7594L59.7139 25.9878L53.2287 30.041C52.8324 30.2887 52.3414 30.3163 51.924 30.1236L51.7712 30.041L45.286 25.9878C42.1968 24.057 40.1214 20.8676 39.5988 17.2765L39.5455 16.8604L38.7584 9.77687C38.6983 9.23558 38.963 8.71553 39.423 8.44269L39.5667 8.36848L51.9417 2.87015ZM52.5008 5.63135L41.6035 10.4731L42.2794 16.5567C42.5902 19.354 44.1086 21.8683 46.4237 23.4465L46.7443 23.6558L52.5008 27.2536L58.2572 23.6558C60.6439 22.1641 62.2525 19.7066 62.6723 16.9364L62.7221 16.5567L63.3981 10.4731L52.5008 5.63135ZM55.5437 11.5256C56.0129 10.9285 56.8773 10.8247 57.4744 11.2939C58.0256 11.727 58.1564 12.4968 57.8043 13.0823L57.7061 13.2246L52.2061 20.0995C51.7332 20.7014 50.8706 20.794 50.2831 20.3374L50.1527 20.2223L47.4027 17.4723C46.8657 16.9353 46.8657 16.0648 47.4027 15.5278C47.8984 15.0321 48.6783 14.994 49.2177 15.4134L49.3473 15.5278L51.0013 17.1818L55.5437 11.5256Z" fill="white"/>
</svg>
