<svg width="230" height="231" viewBox="0 0 230 231" fill="none" xmlns="http://www.w3.org/2000/svg">
<path d="M111.266 189.125L86.959 202.932L86.9569 202.933C86.7955 203.021 86.6241 203.07 86.427 203.07C86.2289 203.07 86.0384 203.015 85.8753 202.919L85.8733 202.918C85.5471 202.719 85.3435 202.362 85.3435 201.972V118.253C85.2431 113.095 87.9916 108.379 92.5145 105.935L92.5146 105.934L153.299 73.1422C156.062 71.655 159.152 70.8662 162.23 70.8662C165.628 70.8662 168.99 71.8163 171.954 73.6081C177.712 77.0907 181.15 83.2205 181.15 89.9934V162.791C181.15 163.182 180.94 163.546 180.605 163.738L112.953 203.168C112.806 203.254 112.639 203.302 112.471 203.311L112.464 203.319H112.401C112.211 203.319 112.026 203.271 111.861 203.174M111.266 189.125L111.318 202.233ZM111.266 189.125L111.318 202.233ZM111.266 189.125L111.318 202.233ZM111.861 203.174C111.528 202.981 111.318 202.618 111.318 202.233ZM171.954 76.5C177.052 79.5841 178.977 83.9943 178.977 89.9934V162.153L113.478 200.325L113.426 187.238L171.954 76.5ZM171.954 76.5C169.335 74.9137 165.237 73.0627 162.23 73.0627C159.507 73.0627 156.772 73.7557 154.328 75.0775L93.5436 107.87C89.7421 109.917 87.4352 113.889 87.5164 118.231V118.234L88.1896 202.233M171.954 76.5L88.1896 202.233ZM88.1896 202.233L111.808 186.297L111.81 186.296C111.973 186.2 112.152 186.152 112.343 186.152C112.532 186.152 112.723 186.199 112.888 186.297L112.89 186.298C113.214 186.496 113.426 186.851 113.426 187.238L88.1896 202.233Z" fill="#3B53A7"/>
<path d="M111.861 203.174C112.026 203.271 112.211 203.319 112.401 203.319H112.464L112.471 203.311C112.639 203.302 112.806 203.254 112.953 203.168L180.605 163.738C180.94 163.546 181.15 163.182 181.15 162.791V89.9934C181.15 83.2205 177.712 77.0907 171.954 73.6081C168.99 71.8163 165.628 70.8662 162.23 70.8662C159.152 70.8662 156.062 71.655 153.299 73.1422L92.5146 105.934L92.5145 105.935C87.9916 108.379 85.2431 113.095 85.3435 118.253V201.972C85.3435 202.362 85.5471 202.719 85.8733 202.918L85.8753 202.919C86.0384 203.015 86.2289 203.07 86.427 203.07C86.6241 203.07 86.7955 203.021 86.9569 202.933L86.959 202.932L111.266 189.125L111.318 202.233C111.318 202.618 111.528 202.981 111.861 203.174ZM111.861 203.174L111.937 203.045M171.954 76.5C177.052 79.5841 178.977 83.9943 178.977 89.9934V162.153L113.478 200.325L113.426 187.238M171.954 76.5L113.426 187.238M171.954 76.5C169.335 74.9137 165.237 73.0627 162.23 73.0627C159.507 73.0627 156.772 73.7557 154.328 75.0775L93.5436 107.87C89.7421 109.917 87.4352 113.889 87.5164 118.231V118.234L88.1896 202.233M171.954 76.5L88.1896 202.233M113.426 187.238C113.426 186.851 113.214 186.496 112.89 186.298L112.888 186.297C112.723 186.199 112.532 186.152 112.343 186.152C112.152 186.152 111.973 186.2 111.81 186.296L111.808 186.297L88.1896 202.233M113.426 187.238L88.1896 202.233" stroke="#3B53A7" stroke-width="0.3"/>
<path d="M86.1856 203.07H86.4272C86.8762 203.07 87.2724 202.801 87.4359 202.382L131.351 91.1949C131.351 91.1945 131.351 91.194 131.352 91.1935C131.407 91.0589 131.427 90.9203 131.427 90.7875V55.352C131.427 54.6038 131.454 53.8832 131.481 53.1788C131.484 53.0829 131.488 52.9873 131.492 52.892V52.8865V52.8186V52.8159C131.58 50.7387 131.67 48.6066 131.153 46.2103C130.635 43.8095 129.509 41.1512 127.176 38.01L127.175 38.0079L127.133 37.9546L127.128 37.9475L119.09 28.708C118.885 28.4741 118.586 28.3364 118.272 28.3364C118.08 28.3364 117.889 28.3918 117.727 28.4876L80.6461 50.3263L80.6443 50.3273L49.4007 68.1591C49.4003 68.1593 49.4 68.1594 49.3997 68.1596L49.474 68.2899C49.2098 68.4381 49.0337 68.7107 49.0043 69.0189C48.975 69.3271 49.0983 69.6293 49.3272 69.8249L86.1856 203.07ZM86.1856 203.07L86.1921 203.057C72.568 202.926 61.5243 191.695 61.5243 177.915V87.9901C61.5243 83.2743 59.4882 78.8057 55.9341 75.7347L49.2298 69.939C49.2299 69.9391 49.2297 69.9389 49.2298 69.939L86.1856 203.07ZM51.811 69.2989L57.3455 74.0794C61.3768 77.5692 63.6914 82.6424 63.6914 88.002V177.927C63.6914 190.176 73.1822 200.249 85.2894 200.856C85.2892 200.856 85.2896 200.856 85.2894 200.856L85.6989 200.875L129.26 90.5812V55.352C129.26 54.4417 129.295 53.538 129.331 52.6906C129.422 50.5309 129.502 48.6195 129.036 46.534C128.571 44.4525 127.558 42.188 125.447 39.3373L118.047 30.8303L81.7242 52.2216L81.7225 52.2226L51.811 69.2989Z" fill="#1872B8"/>
<path d="M86.1856 203.07H86.4272C86.8762 203.07 87.2724 202.801 87.4359 202.382L131.351 91.1949C131.351 91.1945 131.351 91.194 131.352 91.1935C131.407 91.0589 131.427 90.9203 131.427 90.7875V55.352C131.427 54.6038 131.454 53.8832 131.481 53.1788C131.484 53.0829 131.488 52.9873 131.492 52.892V52.8865V52.8186V52.8159C131.58 50.7387 131.67 48.6066 131.153 46.2103C130.635 43.8095 129.509 41.1512 127.176 38.01L127.175 38.0079L127.133 37.9546L127.128 37.9475L119.09 28.708C118.885 28.4741 118.586 28.3364 118.272 28.3364C118.08 28.3364 117.889 28.3918 117.727 28.4876L80.6461 50.3263L80.6443 50.3273L49.4007 68.1591C49.4003 68.1593 49.4 68.1594 49.3997 68.1596L49.474 68.2899C49.2098 68.4381 49.0337 68.7107 49.0043 69.0189C48.975 69.3271 49.0983 69.6293 49.3272 69.8249L86.1856 203.07ZM86.1856 203.07L86.1921 203.057C72.568 202.926 61.5243 191.695 61.5243 177.915V87.9901C61.5243 83.2743 59.4882 78.8057 55.9341 75.7347M86.1856 203.07L49.2298 69.939M55.9341 75.7347L56.0321 75.6212M55.9341 75.7347L49.2298 69.939M49.2298 69.939C49.2297 69.9389 49.2299 69.9391 49.2298 69.939ZM85.2894 200.856C73.1822 200.249 63.6914 190.176 63.6914 177.927V88.002C63.6914 82.6424 61.3768 77.5692 57.3455 74.0794L51.811 69.2989L81.7225 52.2226L81.7242 52.2216L118.047 30.8303L125.447 39.3373C127.558 42.188 128.571 44.4525 129.036 46.534C129.502 48.6195 129.422 50.5309 129.331 52.6906C129.295 53.538 129.26 54.4417 129.26 55.352V90.5812L85.6989 200.875L85.2894 200.856ZM85.2894 200.856C85.2896 200.856 85.2892 200.856 85.2894 200.856Z" stroke="#3B53A7" stroke-width="0.3"/>
<path d="M84.7593 201.472C71.7899 201.172 62.8911 189.209 62.8911 175.841L62.8911 175.84L62.668 88.8198C62.668 88.8196 62.668 88.8194 62.668 88.8192C62.6679 83.9623 61.2341 78.2378 57.4694 74.9821L57.4693 74.982L50.7646 69.1859L84.7593 201.472ZM84.7593 201.472V201.466H85.2593C85.3934 201.466 85.5812 201.496 85.7325 201.52C85.7579 201.524 85.7835 201.528 85.8092 201.532C85.9582 201.556 86.1104 201.581 86.2582 201.599C86.393 201.615 86.5031 201.622 86.5856 201.622L130.384 91.4976L130.387 91.4908L130.39 91.4841C130.399 91.4639 130.408 91.4272 130.408 91.3742V55.9386C130.408 55.1105 130.44 54.3153 130.473 53.4883L130.478 53.3407L130.478 53.3392C130.567 51.2731 130.65 49.237 130.149 46.9427C129.65 44.6596 128.566 42.0941 126.279 39.0115L118.257 29.7963C118.257 29.7958 118.256 29.7952 118.256 29.7947C118.187 29.7187 118.098 29.6797 118.009 29.6797C117.946 29.6797 117.894 29.6942 117.848 29.7216L117.846 29.7231L80.7575 51.5748L80.7513 51.5785L80.7512 51.5784L50.814 68.6353L50.8093 68.638L50.8093 68.638C50.7202 68.6874 50.6571 68.7825 50.6479 68.8898C50.6378 69.0067 50.6832 69.1154 50.7644 69.1857L84.7593 201.472Z" fill="white" stroke="#1978C2"/>
<path d="M111.525 189.831L111.579 202.227C111.579 202.523 111.738 202.801 111.996 202.95L111.525 189.831ZM111.525 189.831L112.014 189.554L111.52 188.684M111.525 189.831L111.52 188.684M111.52 188.684L110.52 188.689L110.522 189.251M111.52 188.684L110.522 189.251M110.522 189.251L86.8377 202.707C86.7144 202.778 86.5735 202.813 86.4326 202.813H86.4267C86.2799 202.813 86.1331 202.772 86.0098 202.701M110.522 189.251L171.823 73.8374M86.0098 202.701L86.4257 201.992L86.4267 201.99L86.4285 201.987L86.4326 201.98L86.4337 201.978L86.5156 201.839C86.5472 201.857 86.5672 201.88 86.5791 201.901C86.591 201.922 86.5989 201.948 86.5989 201.978V201.693M86.0098 202.701L86.422 201.985L86.4248 201.98L86.4261 201.978L86.4267 201.977L86.4326 201.967L86.5088 201.835C86.4946 201.826 86.4823 201.822 86.4714 201.819C86.4615 201.816 86.4488 201.814 86.4326 201.813C86.4315 201.813 86.4304 201.813 86.4292 201.813C86.4284 201.813 86.4275 201.813 86.4267 201.813C86.4057 201.814 86.3768 201.82 86.3437 201.838C86.342 201.839 86.3404 201.84 86.3387 201.841L86.3437 201.838L86.5989 201.693M86.0098 202.701L153.897 74.2615L93.1132 107.053L93.1131 107.053C89.0057 109.269 86.5061 113.55 86.5987 118.256L86.5989 118.265V118.275V201.693M86.5989 201.693L111.026 187.815L112.512 186.97L112.52 188.68L112.578 201.936M112.578 201.936L112.327 202.082M112.578 201.936L112.579 202.223C112.578 202.177 112.559 202.135 112.525 202.105C112.52 202.1 112.514 202.096 112.508 202.092C112.504 202.09 112.499 202.087 112.495 202.085C112.451 202.065 112.417 202.062 112.407 202.062C112.388 202.062 112.373 202.065 112.362 202.068C112.35 202.071 112.339 202.075 112.327 202.082M112.578 201.936L179.894 162.703M112.327 202.082L112.32 202.086L112.4 202.224L112.402 202.227L112.407 202.235L112.408 202.237L112.425 202.265L112.824 202.95L112.428 202.259L112.412 202.23L112.41 202.227L112.408 202.224L112.407 202.222L112.327 202.082ZM179.894 162.703V162.796C179.894 162.742 179.921 162.689 179.973 162.656C179.974 162.656 179.975 162.655 179.976 162.654L179.973 162.656L179.894 162.703ZM179.894 162.703V89.9994C179.894 83.661 176.681 77.9421 171.306 74.6933M171.306 74.6933L171.823 73.8374M171.306 74.6933C171.306 74.6933 171.306 74.6932 171.306 74.6932L171.823 73.8374M171.306 74.6933C168.534 73.0191 165.395 72.1348 162.236 72.1348C159.363 72.1348 156.485 72.8681 153.898 74.2611L153.423 73.381C156.153 71.9112 159.194 71.1348 162.236 71.1348C165.582 71.1348 168.899 72.0712 171.823 73.8374" fill="white" stroke="#1978C2" stroke-width="2"/>
<path d="M86.8384 202.707L112.818 187.985C113.083 187.837 113.241 187.558 113.241 187.256V128.576C113.241 117.44 104.27 108.384 93.238 108.384C89.0284 108.384 85.5996 111.845 85.5996 116.094V201.978C85.5996 202.274 85.7581 202.553 86.0106 202.701C86.1398 202.778 86.2807 202.813 86.4274 202.813C86.5742 202.813 86.7093 202.778 86.8325 202.707H86.8384ZM112.419 186.414V188.092H112.413V186.414H112.419Z" fill="url(#paint0_linear_22275_47)"/>
<path d="M112.088 187.841H112.749L112.735 186.921L112.076 186.925V187.508V187.511L112.088 187.841ZM113.491 187.256C113.491 187.601 113.327 187.931 113.053 188.136L112.939 188.21L86.9601 202.932C86.8015 203.022 86.6172 203.07 86.4278 203.07C86.23 203.07 86.0396 203.015 85.8767 202.919C85.5415 202.725 85.3384 202.361 85.3384 201.978V116.094C85.3384 111.704 88.88 108.127 93.2325 108.127C104.407 108.127 113.491 117.299 113.491 128.576V187.256ZM111.318 128.576C111.318 118.511 103.206 110.318 93.2325 110.318H93.2266C90.0758 110.318 87.5055 112.91 87.5055 116.094V200.108L111.318 186.617V128.576Z" fill="#3B53A7" stroke="#3B53A7" stroke-width="0.3"/>
<path d="M171.413 127.157L171.41 127.159L127.325 152.323L127.324 152.324C127.161 152.419 126.971 152.474 126.779 152.474H126.773C126.384 152.474 126.03 152.267 125.833 151.932C125.684 151.678 125.643 151.382 125.718 151.1C125.792 150.82 125.969 150.586 126.208 150.441L126.211 150.439L170.298 125.275C170.465 125.18 170.655 125.125 170.848 125.125C171.237 125.125 171.591 125.332 171.787 125.667C171.937 125.92 171.978 126.217 171.903 126.499C171.828 126.779 171.652 127.013 171.413 127.157Z" fill="#1869A9" stroke="#3B53A7" stroke-width="0.3"/>
<path d="M171.413 114.107L171.41 114.109L127.325 139.272L127.324 139.273C127.161 139.368 126.971 139.423 126.779 139.423H126.773C126.384 139.423 126.03 139.216 125.833 138.881C125.684 138.628 125.643 138.332 125.718 138.05C125.792 137.769 125.969 137.536 126.208 137.391L126.211 137.389L170.298 112.224C170.465 112.13 170.655 112.074 170.848 112.074C171.237 112.074 171.591 112.281 171.787 112.616C171.937 112.87 171.978 113.166 171.903 113.448C171.828 113.728 171.652 113.962 171.413 114.107Z" fill="#1869A9" stroke="#3B53A7" stroke-width="0.3"/>
<path d="M171.42 101.133L171.417 101.135L127.326 126.299L127.325 126.3C127.163 126.395 126.972 126.45 126.78 126.45C126.391 126.45 126.037 126.243 125.84 125.908C125.691 125.654 125.65 125.358 125.725 125.076C125.8 124.796 125.976 124.562 126.215 124.418L126.218 124.416L170.305 99.2512L170.306 99.2509C170.472 99.1566 170.662 99.1011 170.855 99.1011C171.244 99.1011 171.598 99.3079 171.795 99.6433C171.944 99.8968 171.985 100.193 171.91 100.475C171.836 100.755 171.659 100.989 171.42 101.133Z" fill="#1869A9" stroke="#3B53A7" stroke-width="0.3"/>
<path d="M127.33 163.626C127.164 163.721 126.973 163.776 126.78 163.776C126.39 163.776 126.037 163.562 125.841 163.235V163.234C125.691 162.981 125.65 162.685 125.725 162.402C125.8 162.122 125.976 161.888 126.215 161.744L126.218 161.742L170.305 136.577H170.306C170.472 136.482 170.662 136.427 170.855 136.427C171.244 136.427 171.598 136.634 171.795 136.969C171.944 137.223 171.985 137.519 171.91 137.801C171.836 138.081 171.659 138.315 171.42 138.46L171.417 138.461L127.33 163.626Z" fill="#1869A9" stroke="#3B53A7" stroke-width="0.3"/>
<path d="M127.33 174.933C127.164 175.028 126.973 175.083 126.78 175.083C126.391 175.083 126.037 174.877 125.841 174.541C125.535 174.026 125.704 173.353 126.216 173.05L126.218 173.049L170.305 147.884H170.306C170.472 147.79 170.662 147.734 170.855 147.734C171.245 147.734 171.598 147.948 171.794 148.275L171.795 148.276C171.944 148.53 171.985 148.826 171.91 149.108C171.836 149.388 171.659 149.622 171.42 149.767L171.417 149.769L127.33 174.933Z" fill="#1869A9" stroke="#3B53A7" stroke-width="0.3"/>
<defs>
<linearGradient id="paint0_linear_22275_47" x1="99.8959" y1="105.895" x2="98.8789" y2="202.286" gradientUnits="userSpaceOnUse">
<stop stop-color="#1980CF"/>
<stop offset="0.979" stop-color="#131924"/>
</linearGradient>
</defs>
</svg>
