<svg width="230" height="231" viewBox="0 0 230 231" fill="none" xmlns="http://www.w3.org/2000/svg">
<path d="M63.0236 201.855L63.4897 102.539L65.0466 98.5415L176.875 32.6624L164.671 27.332C164.671 27.332 131.146 45.7819 130.297 46.2699C129.449 46.7579 53.5049 91.6158 53.5049 91.6158L50.0834 97.1245L49.6919 180.271L50.6894 193.728L63.0236 201.855Z" fill="white"/>
<path d="M50.0095 96.1201L49.5527 193.25L63.2013 201.865L63.9472 100.015L53.6081 94.0367C52.0046 93.1077 50.0095 94.2713 50.0002 96.1201H50.0095Z" fill="#D6E4F9"/>
<path d="M63.4438 111.811L180.315 43.6419L180.362 35.6182L176.875 32.6621L171.188 34.9613L65.038 98.5412L63.4904 102.548L63.4438 111.811Z" fill="white"/>
<path d="M63.4438 111.811L180.315 43.6419L180.362 35.6182L176.875 32.6621L171.188 34.9613L65.038 98.5412L63.4904 102.548L63.4438 111.811Z" fill="#D6E4F9"/>
<path d="M63.4438 111.811L63.0989 185.667C63.0989 185.667 63.0616 201.114 63.0243 201.855C62.987 202.596 65.6347 204.314 65.6347 204.314C65.6347 204.314 71.9743 201.714 72.9345 201.151C73.9041 200.588 167.198 146.139 167.198 146.139L177.789 139.964C177.789 139.964 180.091 134.756 179.896 133.836C179.7 132.917 180.324 43.6421 180.324 43.6421L63.4531 111.811H63.4438Z" fill="url(#paint0_linear_22275_19)"/>
<path d="M68.9171 204.83L173.426 143.85C178.106 141.119 181.034 136.032 181.062 130.589L181.5 36.8474C181.5 34.9142 180.521 33.1874 178.862 32.2208C178.433 31.9768 177.976 31.7892 177.482 31.6578L177.426 31.639L167.758 26.8811C166.835 26.4212 165.8 26.1772 164.775 26.1772C163.572 26.1772 162.388 26.4869 161.344 27.0875L57.2263 86.9606C52.1266 89.8885 48.9476 95.3879 48.9196 101.291L48.5001 190.171C48.4907 192.771 49.768 195.173 51.9122 196.609L63.5938 204.398C63.8175 204.577 64.0133 204.717 64.2091 204.83C64.9269 205.252 65.7287 205.468 66.5398 205.478C67.3509 205.487 68.1806 205.262 68.9171 204.83ZM179.16 45.6594L178.759 130.58C178.74 135.206 176.251 139.523 172.27 141.851L67.7704 202.831C67.3882 203.056 66.9873 203.16 66.5678 203.16C66.2508 203.16 65.9337 203.085 65.5422 202.916L64.9176 202.493C64.4328 202.033 64.1718 201.433 64.1811 200.748L64.6006 112.496L179.16 45.6594ZM166.751 28.9644L173.482 32.2865L67.9662 94.1397C64.5074 96.1668 62.3538 99.9206 62.3352 103.947L61.8784 200.466L53.1895 194.676C51.6885 193.672 50.7935 192.001 50.8028 190.181L51.2223 101.3C51.2503 96.2138 53.9819 91.4933 58.373 88.9689L162.491 29.0958C163.181 28.6923 163.973 28.4858 164.765 28.4952C165.446 28.4952 166.136 28.6641 166.751 28.9644ZM177.715 34.2291C178.647 34.7734 179.207 35.7494 179.197 36.838L179.169 42.9755L64.61 109.793L64.6379 103.956C64.6566 100.747 66.372 97.7528 69.1222 96.1386L174.722 34.2385C175.188 33.9664 175.711 33.8256 176.233 33.8256C176.755 33.8256 177.258 33.9664 177.706 34.2291H177.715Z" fill="#3B53A7"/>
<path d="M71.4189 102.197C70.5441 101.722 70.453 100.184 71.2154 98.7604C71.9777 97.337 73.3048 96.5679 74.1795 97.0426C75.0542 97.5173 75.1453 99.056 74.383 100.479C73.6207 101.903 72.2936 102.672 71.4189 102.197Z" fill="#3B53A7"/>
<path d="M78.2665 98.3783C77.3918 97.9036 77.3007 96.3649 78.063 94.9415C78.8253 93.5181 80.1524 92.7491 81.0271 93.2238C81.9018 93.6985 81.9929 95.2372 81.2306 96.6605C80.4683 98.0839 79.1412 98.853 78.2665 98.3783Z" fill="#3B53A7"/>
<path d="M84.9227 94.5887C84.048 94.114 83.9569 92.5753 84.7192 91.152C85.4816 89.7286 86.8087 88.9595 87.6834 89.4342C88.5581 89.9089 88.6492 91.4476 87.8869 92.871C87.1245 94.2944 85.7974 95.0634 84.9227 94.5887Z" fill="#3B53A7"/>
<path d="M126.039 84.8961L127.186 85.6093L128.323 86.3225L133.469 89.532C132.155 90.2359 131.045 92.0001 130.98 93.4923L129.954 120.219L119.28 125.888L120.231 99.1887C120.287 97.7059 119.261 97.0678 117.947 97.7716L120.492 93.7175L121.06 92.8072L123.55 88.8469L124.79 86.8668L126.03 84.8867L126.039 84.8961ZM116.884 102.023L115.914 127.689L104.979 133.498L105.062 131.18C105.118 129.698 104.093 129.06 102.778 129.754L97.8094 132.391L100.373 128.309L113.36 107.625L116.334 102.886L116.874 102.023H116.884ZM134.28 92.7978L134.774 93.1075L137.506 94.8155L149.43 102.257L151.779 103.721L146.81 106.358C145.496 107.062 144.377 108.827 144.321 110.319L144.237 112.637L133.301 118.446L134.271 92.779L134.28 92.7978ZM156.636 109.784L154.278 113.538L148.693 122.434L139.324 137.355L139.389 135.544C139.482 132.963 137.711 131.856 135.427 133.067L131.819 134.981L131.045 155.608L130.999 155.683L128.715 154.257L128.724 154.238L123.568 151.019V151.029L118.04 159.841L117.965 159.963V159.972L115.476 163.932H115.457L116.231 143.277L112.623 145.191C110.339 146.411 108.4 149.49 108.307 152.07L108.242 153.91L99.646 148.542L94.4998 145.332L92.3276 143.971L156.636 109.774V109.784Z" fill="white"/>
<defs>
<linearGradient id="paint0_linear_22275_19" x1="119.372" y1="84.9365" x2="129.272" y2="246.08" gradientUnits="userSpaceOnUse">
<stop stop-color="#187FCE"/>
<stop offset="0.58665" stop-color="#121823"/>
</linearGradient>
</defs>
</svg>
