<svg width="230" height="231" viewBox="0 0 230 231" fill="none" xmlns="http://www.w3.org/2000/svg">
<path d="M85.8932 196.526L72.0993 188.498C62.3729 182.831 56.3394 171.015 55.5176 154.98L53.0625 107.244L67.3141 115.544L69.7691 163.281C70.5805 179.075 76.4268 190.765 85.8932 196.536V196.526Z" fill="white"/>
<path d="M69.2911 155.274C69.2911 155.274 72.7031 185.14 77.1346 189.852C77.1346 189.852 57.9106 184.615 56.1317 163.942C55.2475 160.238 55.3307 146.669 55.3307 146.669L69.2911 155.264V155.274Z" fill="#D6E4F9"/>
<path d="M176.937 51.6995L174.482 102.291C173.265 127.308 160.781 156.313 141.797 177.584C139.425 180.25 137.001 182.852 134.556 185.339C126.536 193.514 117.704 198.656 109.694 199.832C107.239 200.178 104.826 200.409 102.444 200.514C96.3685 200.776 90.9383 199.475 86.3507 196.799L85.893 196.536C76.4267 190.765 70.5804 179.075 69.769 163.281L67.314 115.544C78.9649 108.755 88.4105 92.248 88.4105 78.6794L155.83 39.4111C155.83 52.9903 165.286 58.4891 176.937 51.6995ZM122.125 158.727C138.853 148.978 152.418 125.283 152.418 105.785C152.418 86.2875 138.853 78.396 122.125 88.1449C105.388 97.8938 91.8225 121.589 91.8225 141.087C91.8225 160.584 105.388 168.476 122.125 158.727Z" fill="url(#paint0_linear_22275_30)"/>
<path d="M162.685 42.8422L176.937 51.6991C165.286 58.4887 155.83 52.9793 155.83 39.4107L155.986 39.1274L162.685 42.8527V42.8422Z" fill="white"/>
<g style="mix-blend-mode:multiply" opacity="0.3">
<path d="M162.685 42.8422L176.937 51.6991C165.286 58.4887 155.83 52.9793 155.83 39.4107L155.986 39.1274L162.685 42.8527V42.8422Z" fill="#3B53A7"/>
</g>
<path d="M155.986 39.1168L155.83 39.4106L88.4103 78.6684L74.1587 70.3782L141.578 31.1099L155.986 39.1168Z" fill="white"/>
<path d="M152.419 105.785C152.419 125.283 138.854 148.978 122.126 158.727C105.388 168.476 91.8232 160.574 91.8232 141.087C91.8232 121.599 105.388 97.8938 122.126 88.1449C138.854 78.3961 152.419 86.298 152.419 105.785ZM124.935 131.883L142.245 101.629L137.272 98.7333L119.962 128.987L108.426 122.26L103.453 130.949L119.962 140.572L124.935 131.883Z" fill="white"/>
<path d="M74.159 70.3784L88.4106 78.6791C88.4106 92.2583 78.965 108.765 67.3141 115.544L53.0625 107.244C64.7135 100.454 74.159 83.9471 74.159 70.3784Z" fill="white"/>
<path d="M121.147 143.794C120.606 143.794 120.066 143.647 119.597 143.374L103.889 134.224C103.172 133.804 102.662 133.132 102.443 132.324C102.225 131.516 102.339 130.677 102.756 129.953L107.489 121.683C107.905 120.959 108.571 120.445 109.372 120.225C109.632 120.151 109.892 120.12 110.162 120.12C110.714 120.12 111.254 120.267 111.723 120.539L120.024 125.377L134.941 99.2892C135.347 98.5756 136.034 98.0509 136.824 97.8305C137.084 97.7571 137.355 97.7256 137.625 97.7256C138.166 97.7256 138.697 97.8725 139.165 98.1453L143.898 100.905C144.616 101.325 145.125 101.997 145.344 102.805C145.562 103.613 145.448 104.452 145.032 105.176L123.831 142.241C123.426 142.954 122.739 143.479 121.948 143.7C121.688 143.773 121.418 143.804 121.147 143.804V143.794Z" fill="#1980CF"/>
<path d="M100.884 202.119C95.2355 202.119 90.0862 200.786 85.5714 198.163C85.509 198.131 85.457 198.089 85.405 198.048L85.353 198.006L85.2906 197.985C85.2177 197.953 85.1553 197.922 85.0929 197.88C75.044 191.751 69.0521 179.494 68.2199 163.365L65.7649 115.628C65.7337 115.041 66.0353 114.484 66.5451 114.191C77.7487 107.663 86.8614 91.7337 86.8614 78.6792C86.8614 78.1231 87.163 77.5984 87.6415 77.315L155.05 38.0468C155.29 37.9103 155.56 37.8369 155.83 37.8369C156.101 37.8369 156.371 37.9103 156.611 38.0468C157.089 38.3301 157.391 38.8443 157.391 39.411C157.391 45.3925 159.305 49.8 162.8 51.8358C164.184 52.6438 165.775 53.0531 167.533 53.0531C170.186 53.0531 173.088 52.1401 176.168 50.3456C176.407 50.2092 176.677 50.1358 176.948 50.1358C177.239 50.1358 177.52 50.2197 177.759 50.3666C178.248 50.671 178.529 51.2061 178.498 51.7833L176.043 102.374C174.794 127.938 162.124 157.163 142.962 178.644C140.507 181.394 138.063 184.017 135.67 186.452C127.421 194.868 118.267 200.167 109.924 201.385C107.406 201.741 104.92 201.983 102.517 202.077C101.976 202.098 101.435 202.119 100.894 202.119H100.884ZM89.9509 79.5922V79.886C89.4204 93.1608 80.2973 109.132 69.1665 116.247L68.9064 116.415L71.3199 163.208C72.1 178.266 77.5614 189.631 86.6949 195.193C86.7469 195.225 86.7989 195.256 86.8405 195.298L86.8926 195.34L86.955 195.361C87.0174 195.382 87.0694 195.414 87.1214 195.445C91.1576 197.796 95.7868 198.992 100.894 198.992C101.383 198.992 101.872 198.992 102.371 198.96C104.681 198.866 107.063 198.635 109.466 198.289C117.143 197.166 125.663 192.181 133.444 184.248C135.785 181.855 138.208 179.263 140.632 176.545C159.336 155.579 171.705 127.098 172.912 102.217L175.242 54.3543L174.482 54.6691C172.059 55.6766 169.708 56.1908 167.502 56.1908C165.297 56.1908 163.091 55.6346 161.229 54.5537C157.495 52.3815 155.165 48.3308 154.478 42.853L154.384 42.0659L89.9509 79.5922Z" fill="#3B53A7"/>
<path d="M108.581 164.488C105.408 164.488 102.485 163.732 99.9158 162.232C93.6951 158.601 90.2622 151.098 90.2622 141.087C90.2622 121.127 104.202 96.76 121.345 86.7803C126.359 83.863 131.176 82.3833 135.659 82.3833C138.832 82.3833 141.755 83.1389 144.325 84.6395C150.545 88.2599 153.978 95.7736 153.978 105.785C153.978 125.744 140.039 150.101 122.906 160.091C117.892 163.008 113.075 164.488 108.592 164.488H108.581ZM135.638 85.5315C131.706 85.5315 127.42 86.8642 122.895 89.5087C106.615 98.9847 93.3726 122.134 93.3726 141.097C93.3726 149.933 96.2437 156.481 101.466 159.514C103.557 160.731 105.949 161.35 108.592 161.35C112.524 161.35 116.81 160.018 121.345 157.373C137.625 147.887 150.868 124.747 150.868 105.795C150.868 96.9594 147.997 90.4112 142.775 87.3679C140.684 86.1506 138.291 85.5315 135.649 85.5315H135.638Z" fill="#3B53A7"/>
<path d="M86.351 198.373C86.0805 198.373 85.81 198.299 85.5708 198.163L71.3192 189.862C60.9686 183.839 54.7998 171.477 53.9572 155.064L51.5022 107.328C51.471 106.74 51.7727 106.184 52.2824 105.89C63.486 99.3627 72.5987 83.4329 72.5987 70.3784C72.5987 69.8223 72.9004 69.2976 73.3789 69.0142L140.798 29.746C141.037 29.6096 141.308 29.5361 141.578 29.5361C141.849 29.5361 142.099 29.5991 142.327 29.7355L163.434 41.4782L177.748 50.3665C178.102 50.5869 178.352 50.9332 178.445 51.3425C178.539 51.7517 178.476 52.1715 178.258 52.5283C177.977 53.0005 177.478 53.2734 176.926 53.2734C176.635 53.2734 176.354 53.1894 176.115 53.0425L161.863 44.1856L141.589 32.9151L75.6987 71.2914V71.5852C75.1681 84.8601 66.0451 100.832 54.9143 107.947L54.6542 108.115L57.0676 154.907C57.8478 170.218 63.4652 181.677 72.8692 187.144L87.1207 195.445C87.8593 195.875 88.1194 196.841 87.6929 197.586C87.412 198.068 86.9023 198.373 86.3405 198.373H86.351Z" fill="#3B53A7"/>
<path d="M88.4111 80.2428C88.1406 80.2428 87.8702 80.1693 87.6309 80.0329L73.3793 71.7322C73.0152 71.5223 72.7656 71.1865 72.6512 70.7773C72.5471 70.368 72.5991 69.9483 72.8072 69.581C73.0881 69.0982 73.5978 68.7939 74.1595 68.7939C74.43 68.7939 74.7005 68.8674 74.9397 69.0038L89.1913 77.3045C89.5554 77.5144 89.8051 77.8502 89.9195 78.2594C90.0235 78.6687 89.9715 79.0885 89.7634 79.4453C89.4826 79.928 88.9729 80.2323 88.4111 80.2323V80.2428Z" fill="#3B53A7"/>
<path d="M67.3142 117.118C67.0438 117.118 66.7733 117.045 66.534 116.908L52.2825 108.608C51.5439 108.178 51.2838 107.212 51.7103 106.467C51.9912 105.984 52.5009 105.68 53.0627 105.68C53.3331 105.68 53.6036 105.753 53.8429 105.89L68.0944 114.191C68.833 114.621 69.0931 115.586 68.6666 116.331C68.3857 116.814 67.876 117.118 67.3142 117.118Z" fill="#3B53A7"/>
<path d="M121.147 143.72C120.617 143.72 120.097 143.584 119.639 143.311L103.931 134.16C103.234 133.751 102.735 133.101 102.527 132.314C102.319 131.526 102.423 130.708 102.828 129.994L107.562 121.725C107.967 121.022 108.623 120.508 109.403 120.308C109.652 120.235 109.913 120.204 110.173 120.204C110.703 120.204 111.234 120.34 111.691 120.613L120.055 125.482L135.014 99.3312C135.409 98.6386 136.075 98.1139 136.855 97.9146C137.115 97.8411 137.375 97.8096 137.646 97.8096C138.166 97.8096 138.686 97.946 139.154 98.2189L143.887 100.968C144.584 101.377 145.084 102.028 145.302 102.815C145.51 103.602 145.406 104.431 145.001 105.134L123.8 142.199C123.405 142.891 122.729 143.416 121.959 143.615C121.699 143.689 121.439 143.72 121.179 143.72H121.147ZM109.944 122.344C109.684 122.418 109.486 122.575 109.361 122.796L104.628 131.054C104.503 131.275 104.472 131.526 104.534 131.768C104.597 132.009 104.753 132.209 104.971 132.335L120.679 141.485C120.814 141.569 120.981 141.611 121.137 141.611C121.22 141.611 121.303 141.601 121.387 141.58C121.615 141.517 121.823 141.359 121.948 141.149L143.149 104.085C143.274 103.875 143.305 103.613 143.242 103.371C143.18 103.13 143.024 102.931 142.806 102.805L138.072 100.055C137.927 99.9714 137.771 99.9294 137.615 99.9294C137.531 99.9294 137.448 99.9294 137.375 99.9609C137.136 100.024 136.938 100.181 136.814 100.391L120.804 128.378L110.63 122.449C110.495 122.365 110.329 122.323 110.162 122.323H110.1L109.933 122.355L109.944 122.344Z" fill="#3B53A7"/>
<defs>
<linearGradient id="paint0_linear_22275_30" x1="122.053" y1="61.994" x2="122" y2="207.5" gradientUnits="userSpaceOnUse">
<stop stop-color="#1980CF"/>
<stop offset="1" stop-color="#131924"/>
</linearGradient>
</defs>
</svg>
