<svg width="138" height="203" viewBox="0 0 138 203" fill="none" xmlns="http://www.w3.org/2000/svg">
<g clip-path="url(#clip0_22274_12)">
<rect x="40" y="47" width="63" height="70" fill="white"/>
<path d="M69 141.373L16.22 110.903V49.9529L69 19.4829L121.78 49.9529V110.903L69 141.373ZM24.69 106.013L69 131.593L113.31 106.013V54.8529L69 29.2729L24.69 54.8529V106.013Z" fill="white"/>
<path d="M137.95 40.6225L69 0.8125L0.0500488 40.6225V120.243L27.3701 136.013V198.603C27.3701 200.123 28.1801 201.523 29.4901 202.273C30.8001 203.023 32.42 203.023 33.73 202.273L69 181.763L104.27 202.273C104.93 202.653 105.66 202.843 106.4 202.843C107.14 202.843 107.86 202.653 108.51 202.283C109.82 201.523 110.63 200.123 110.63 198.613V136.023L137.95 120.253V40.6225ZM102.17 191.233L71.14 173.193C69.82 172.423 68.2 172.423 66.88 173.193L35.85 191.233V140.903L69.01 160.053L102.17 140.903V191.233ZM129.48 115.353L69 150.273L8.52005 115.353V45.5125L69 10.5925L129.48 45.5125V115.353Z" fill="url(#paint0_linear_22274_12)"/>
<path d="M69.0002 29.2627L24.6902 54.8427V106.003L69.0002 131.583L113.31 106.003V54.8427L69.0002 29.2627ZM86.5102 101.823C84.6502 104.153 82.2602 105.903 79.3302 107.083C76.4002 108.263 73.3102 108.853 70.0702 108.853C66.3502 108.853 62.9702 108.293 59.9002 107.163C56.8402 106.043 54.3302 104.353 52.3602 102.103C50.4002 99.8527 49.1802 97.0527 48.7102 93.7027L62.6802 90.8727C62.8902 91.4527 63.1902 92.1827 63.5802 93.0727C63.9702 93.9627 64.6002 94.7327 65.4602 95.3927C66.3202 96.0527 67.5402 96.3727 69.1102 96.3727C70.8902 96.3727 72.2602 95.9127 73.2302 95.0027C74.2002 94.0927 74.6802 92.8427 74.6802 91.2727C74.6802 90.4827 74.5202 89.6927 74.2102 88.8827C73.9002 88.0727 73.1802 87.4027 72.0502 86.8827C70.9202 86.3627 69.1602 86.0927 66.7502 86.0927H61.8802V74.3927H66.7502C69.6802 74.3927 71.6202 73.9227 72.5602 72.9827C73.5002 72.0427 73.9702 70.7627 73.9702 69.1327C73.9702 68.1927 73.7602 67.3827 73.3402 66.7027C72.9202 66.0227 72.3502 65.4827 71.6102 65.0927C70.8802 64.7027 70.0402 64.5027 69.1002 64.5027C68.4202 64.5027 67.6502 64.6427 66.7802 64.9327C65.9202 65.2227 65.1302 65.7527 64.4302 66.5427C63.7202 67.3227 63.2402 68.5327 62.9802 70.1527L49.0902 67.3227C49.5602 63.9227 50.8302 61.0827 52.9002 58.8027C54.9702 56.5227 57.4802 54.8227 60.4402 53.7027C63.4002 52.5827 66.3902 52.0127 69.4302 52.0127C72.9902 52.0127 76.2102 52.6527 79.0802 53.9327C81.9602 55.2127 84.2502 57.0227 85.9502 59.3527C87.6502 61.6827 88.5002 64.4127 88.5002 67.5527C88.5002 70.2227 87.8302 72.5127 86.5002 74.4227C85.1702 76.3327 83.4102 77.9127 81.2402 79.1727C80.7302 79.4627 80.2102 79.7427 79.6702 79.9927C80.5402 80.4327 81.3802 80.9127 82.1802 81.4427C84.3502 82.9127 86.0802 84.6327 87.3602 86.6227C88.6402 88.6127 89.2802 90.8327 89.2802 93.2927C89.2802 96.6427 88.3502 99.4827 86.4902 101.813L86.5102 101.823Z" fill="url(#paint1_linear_22274_12)"/>
</g>
<defs>
<linearGradient id="paint0_linear_22274_12" x1="69" y1="0.8125" x2="69" y2="202.843" gradientUnits="userSpaceOnUse">
<stop stop-color="#187ECC"/>
<stop offset="1" stop-color="#141F2E"/>
</linearGradient>
<linearGradient id="paint1_linear_22274_12" x1="113" y1="80" x2="25" y2="80" gradientUnits="userSpaceOnUse">
<stop stop-color="#164B77"/>
<stop offset="1" stop-color="#187AC5"/>
</linearGradient>
<clipPath id="clip0_22274_12">
<rect width="138" height="203" fill="white"/>
</clipPath>
</defs>
</svg>
