<svg width="138" height="203" viewBox="0 0 138 203" fill="none" xmlns="http://www.w3.org/2000/svg">
<g clip-path="url(#clip0_22274_8)">
<rect x="33" y="47" width="63" height="70" fill="white"/>
<path d="M68.9499 141.388L16.1699 110.918V49.9676L68.9499 19.4976L121.73 49.9676V110.918L68.9499 141.388ZM24.6399 106.028L68.9499 131.608L113.26 106.028V54.8676L68.9499 29.2876L24.6399 54.8676V106.028Z" fill="white"/>
<path d="M137.9 40.6376L68.95 0.827637L0 40.6376V120.258L27.32 136.028V198.618C27.32 200.138 28.13 201.538 29.44 202.288C30.75 203.038 32.37 203.038 33.68 202.288L68.95 181.778L104.22 202.288C104.88 202.668 105.61 202.858 106.35 202.858C107.09 202.858 107.81 202.668 108.46 202.298C109.77 201.538 110.58 200.138 110.58 198.628V136.038L137.9 120.268V40.6376ZM102.11 191.248L71.08 173.208C69.76 172.438 68.14 172.438 66.82 173.208L35.79 191.248V140.918L68.95 160.068L102.11 140.918V191.248ZM129.43 115.358L68.95 150.278L8.47 115.358V45.5276L68.95 10.6076L129.43 45.5276V115.368V115.358Z" fill="url(#paint0_linear_22274_8)"/>
<path d="M68.9499 29.2778L24.6399 54.8578V106.018L68.9499 131.598L113.26 106.018V54.8578L68.9499 29.2778ZM78.9999 107.998H65.2599V70.9578C64.3099 71.4878 63.3399 71.9778 62.3599 72.3678C59.8499 73.3578 57.1499 73.6978 54.2799 73.3878V60.1978C55.7999 60.3578 57.2999 60.0678 58.7899 59.3378C60.2799 58.6078 61.7199 57.6378 63.1099 56.4378C64.4999 55.2378 65.7099 54.0578 66.7599 52.9078L66.9299 53.0678H79.0099V108.008L78.9999 107.998Z" fill="url(#paint1_linear_22274_8)"/>
</g>
<defs>
<linearGradient id="paint0_linear_22274_8" x1="68.95" y1="0.827637" x2="68.95" y2="202.858" gradientUnits="userSpaceOnUse">
<stop stop-color="#187CC9"/>
<stop offset="1" stop-color="#141D2B"/>
</linearGradient>
<linearGradient id="paint1_linear_22274_8" x1="25" y1="80" x2="113" y2="80" gradientUnits="userSpaceOnUse">
<stop stop-color="#1A7BC6"/>
<stop offset="1" stop-color="#164A75"/>
</linearGradient>
<clipPath id="clip0_22274_8">
<rect width="138" height="203" fill="white"/>
</clipPath>
</defs>
</svg>
