<svg width="138" height="203" viewBox="0 0 138 203" fill="none" xmlns="http://www.w3.org/2000/svg">
<g clip-path="url(#clip0_22274_4)">
<rect x="40" y="47" width="63" height="70" fill="white"/>
<path d="M68.9499 141.372L16.1699 110.902V49.9524L68.9499 19.4824L121.73 49.9524V110.902L68.9499 141.372ZM24.6399 106.012L68.9499 131.592L113.26 106.012V54.8524L68.9499 29.2724L24.6399 54.8524V106.012Z" fill="white"/>
<path d="M137.9 40.6225L68.95 0.8125L0 40.6225V120.243L27.32 136.012V198.602C27.32 200.122 28.13 201.523 29.44 202.273C30.75 203.023 32.37 203.023 33.68 202.273L68.95 181.762L104.22 202.273C104.88 202.653 105.61 202.842 106.35 202.842C107.09 202.842 107.81 202.652 108.46 202.283C109.77 201.523 110.58 200.122 110.58 198.613V136.023L137.9 120.253V40.6225ZM102.12 191.232L71.09 173.193C69.77 172.423 68.15 172.423 66.83 173.193L35.8 191.232V140.902L68.96 160.053L102.12 140.902V191.232ZM129.43 115.353L68.95 150.273L8.47 115.353V45.5125L68.95 10.5925L129.43 45.5125V115.353Z" fill="url(#paint0_linear_22274_4)"/>
<path d="M68.9499 29.2627L24.6399 54.8426V106.002L68.9499 131.582L113.26 106.002V54.8426L68.9499 29.2627ZM90.4199 106.102H49.4499V95.9027C49.4499 94.5426 50.0299 92.9126 51.1799 90.9927C52.3299 89.0827 53.9099 87.1227 55.9299 85.1027C57.9399 83.0927 60.2099 81.2727 62.7199 79.6427L68.2099 76.1127C69.1499 75.4827 70.1399 74.7627 71.1899 73.9526C72.2399 73.1426 73.1199 72.2427 73.8599 71.2427C74.5899 70.2526 74.9599 69.2526 74.9599 68.2626C74.9599 67.3226 74.7399 66.4827 74.2899 65.7527C73.8399 65.0227 73.1599 64.4627 72.2499 64.0627C71.3299 63.6727 70.1199 63.4727 68.5999 63.4727C67.5499 63.4727 66.6099 63.7126 65.7699 64.1826C64.9299 64.6527 64.2399 65.2827 63.6899 66.0627C63.1399 66.8527 62.7299 67.7126 62.4699 68.6526L47.4799 66.2227C47.9499 63.3927 49.0899 60.7526 50.8899 58.2926C52.6999 55.8327 55.0999 53.8626 58.1099 52.3626C61.1199 50.8726 64.6099 50.1227 68.5899 50.1227C73.0399 50.1227 76.8399 50.8827 80.0099 52.4027C83.1799 53.9227 85.6099 56.0226 87.3099 58.7227C89.0099 61.4227 89.8599 64.5426 89.8599 68.1027C89.8599 72.0227 88.7699 75.3327 86.5999 78.0327C84.4299 80.7327 81.6399 83.1726 78.2399 85.3726L73.7699 88.2726C72.2999 89.2126 70.7699 90.4227 69.1799 91.8827C68.6799 92.3426 68.2099 92.8427 67.7599 93.3727H90.4099V106.092L90.4199 106.102Z" fill="url(#paint1_linear_22274_4)"/>
</g>
<defs>
<linearGradient id="paint0_linear_22274_4" x1="68.95" y1="0.8125" x2="68.95" y2="202.842" gradientUnits="userSpaceOnUse">
<stop stop-color="#187FCE"/>
<stop offset="1" stop-color="#131C29"/>
</linearGradient>
<linearGradient id="paint1_linear_22274_4" x1="113" y1="85" x2="25" y2="85" gradientUnits="userSpaceOnUse">
<stop stop-color="#154974"/>
<stop offset="1" stop-color="#197BC6"/>
</linearGradient>
<clipPath id="clip0_22274_4">
<rect width="138" height="203" fill="white"/>
</clipPath>
</defs>
</svg>
