<svg width="210" height="38" viewBox="0 0 210 38" fill="none" xmlns="http://www.w3.org/2000/svg">
<g clip-path="url(#clip0_2480_1235)">
<path d="M25.3416 17.0941C25.3137 19.3141 27.306 20.5528 28.8068 21.2894C30.3488 22.045 30.8667 22.5297 30.8606 23.2055C30.8491 24.2397 29.6306 24.6962 28.4904 24.714C26.5012 24.745 25.3445 24.173 24.425 23.7405L23.7083 27.1176C24.6309 27.5458 26.3392 27.9192 28.1107 27.9355C32.269 27.9355 34.9894 25.8683 35.0042 22.6631C35.0205 18.5952 29.4174 18.3701 29.4557 16.5518C29.4689 16.0005 29.9913 15.4122 31.1359 15.2626C31.7024 15.187 33.2664 15.1292 35.0396 15.9515L35.7355 12.6841C34.782 12.3344 33.5564 11.9995 32.0305 11.9995C28.1166 11.9995 25.3638 14.095 25.3416 17.0941ZM42.4229 12.281C41.6636 12.281 41.0237 12.7271 40.7381 13.4116L34.7982 27.6955H38.9535L39.7803 25.3941H44.858L45.3376 27.6955H49L45.8041 12.281H42.4229ZM43.0042 16.445L44.2034 22.2334H40.9192L43.0042 16.445ZM20.3036 12.2812L17.0283 27.6954H20.9879L24.2617 12.2808L20.3036 12.2812ZM14.446 12.2812L10.3246 22.7728L8.6575 13.8519C8.46188 12.856 7.68936 12.281 6.83148 12.281H0.0943633L0 12.7286C1.3831 13.0309 2.95455 13.5184 3.9066 14.04C4.48924 14.3587 4.65538 14.6372 4.84679 15.3944L8.00442 27.6955H12.1888L18.6039 12.281L14.446 12.2812Z" fill="white"/>
</g>
<path d="M82.0013 10.5363C83.2832 11.5426 84.3195 12.8273 85.0316 14.2932C85.7437 15.7592 86.113 17.3679 86.1116 18.9976C86.1124 20.627 85.7426 22.2351 85.0302 23.7005C84.3178 25.1659 83.2815 26.45 81.9997 27.4558C80.7179 26.4497 79.6818 25.1652 78.9697 23.6996C78.2576 22.2339 77.8881 20.6255 77.8893 18.996C77.8879 17.3663 78.2572 15.7576 78.9693 14.2916C79.6814 12.8257 80.7177 11.541 81.9997 10.5347M80.6222 9.61321C79.2656 10.772 78.1767 12.2116 77.431 13.8324C76.6852 15.4532 76.3003 17.2166 76.3028 19.0008C76.301 20.7841 76.6862 22.5467 77.432 24.1666C78.1777 25.7866 79.2662 27.2253 80.6222 28.3836C78.984 29.3032 77.1337 29.7781 75.2552 29.7609C73.3767 29.7438 71.5354 29.2353 69.9143 28.286C68.2932 27.3367 66.9487 25.9796 66.0147 24.3497C65.0806 22.7198 64.5894 20.8738 64.5898 18.9952C64.5903 17.1165 65.0825 15.2708 66.0174 13.6413C66.9523 12.0119 68.2974 10.6555 69.919 9.707C71.5405 8.75851 73.3821 8.25095 75.2607 8.23477C77.1392 8.2186 78.9893 8.69437 80.6269 9.61479M83.3851 28.3836C84.7408 27.2252 85.829 25.7863 86.5744 24.1664C87.3199 22.5465 87.7049 20.784 87.7028 19.0008C87.7048 17.2167 87.3192 15.4534 86.5729 13.8328C85.8266 12.2123 84.7373 10.7731 83.3803 9.61479C85.018 8.69437 86.8681 8.2186 88.7466 8.23477C90.6251 8.25095 92.4667 8.75851 94.0883 9.707C95.7099 10.6555 97.055 12.0119 97.9899 13.6413C98.9248 15.2708 99.417 17.1165 99.4174 18.9952C99.4179 20.8738 98.9267 22.7198 97.9926 24.3497C97.0585 25.9796 95.7141 27.3367 94.093 28.286C92.4719 29.2353 90.6306 29.7438 88.7521 29.7609C86.8735 29.7781 85.0232 29.3032 83.3851 28.3836Z" fill="white"/>
<g clip-path="url(#clip1_2480_1235)">
<path d="M126.07 15.8586C126.796 17.0682 124.798 18.0827 124.197 18.4183L122.925 16.2878C123.549 15.9445 125.305 14.5944 126.07 15.8586ZM124.86 19.503L126.273 21.8519C126.998 21.4227 129.355 20.2053 128.559 18.8787C127.732 17.4896 125.578 19.066 124.86 19.503ZM134.904 13.0493C138.041 18.2778 136.355 25.0515 131.127 28.1886C125.898 31.3257 119.127 29.6378 115.987 24.4116C115.241 23.1696 114.747 21.7927 114.533 20.3596C114.319 18.9266 114.389 17.4654 114.74 16.0595C115.091 14.6536 115.715 13.3306 116.577 12.1661C117.439 11.0015 118.522 10.0182 119.764 9.27224C124.985 6.14293 131.759 7.82854 134.904 13.0493ZM124.088 13.9233L123.034 12.1674L121.981 12.8308L122.987 14.5242C122.706 14.6959 122.425 14.8676 122.145 15.0548L121.107 13.3302L120.053 13.9779L121.099 15.726C120.865 15.8664 120.638 16.0147 120.42 16.1396L118.945 17.0214L119.624 18.1686C119.624 18.1686 120.412 17.6769 120.404 17.7003C120.841 17.435 121.122 17.5911 121.302 17.8018L124.189 22.6089C124.259 22.7572 124.275 23.0225 124.01 23.2098C124.025 23.2098 123.229 23.678 123.229 23.678L123.783 25.0749L125.172 24.2477C125.438 24.0916 125.695 23.9434 125.945 23.7873L127.006 25.5665L128.083 24.9266L127.022 23.163C127.318 22.9913 127.599 22.8196 127.88 22.6635L128.926 24.4116L130.003 23.7717L128.942 21.9924C130.658 20.8218 131.657 19.6045 130.791 17.833C130.128 16.3893 129.113 16.1552 127.935 16.5376C128.349 15.8274 128.419 15.0548 127.771 14.173C126.889 12.979 125.539 13.221 124.088 13.9233Z" fill="white"/>
</g>
<path fill-rule="evenodd" clip-rule="evenodd" d="M161.5 30C155.701 30 151 24.8516 151 18.5C151 12.1484 155.701 7 161.5 7C167.299 7 172 12.1484 172 18.5C172 24.8516 167.299 30 161.5 30ZM166.746 18.6574L161.827 9.875L156.906 18.6581L161.827 21.7868L166.746 18.6574ZM166.75 19.6615L161.827 22.7888L156.906 19.6622L161.827 27.1214L166.75 19.6615Z" fill="white"/>
<path d="M161.828 9.875V16.2503L166.748 18.6581L161.828 9.875ZM161.828 22.7895V27.1214L166.751 19.6615L161.828 22.7895Z" fill="white" fill-opacity="0.298"/>
<path d="M161.828 21.787L166.748 18.6583L161.828 16.252V21.787Z" fill="#167ACC"/>
<path d="M156.906 18.6581L161.827 21.7868V16.2517L156.906 18.6581Z" fill="white" fill-opacity="0.298"/>
<g clip-path="url(#clip2_2480_1235)">
<path d="M198 6C204.628 6 210 11.3723 210 18C210 24.6278 204.628 30 198 30C191.372 30 186 24.6278 186 18C186 11.3723 191.372 6 198 6ZM200.514 10.17C200.331 10.08 200.148 10.17 200.103 10.3523C200.057 10.398 200.057 10.4437 200.057 10.5345V11.172L200.065 11.25C200.104 11.4043 200.199 11.5387 200.331 11.6272C203.896 12.9022 205.725 16.8623 204.399 20.367C203.713 22.2795 202.205 23.7353 200.331 24.4185C200.148 24.5093 200.057 24.6458 200.057 24.8738V25.5112L200.061 25.5773C200.068 25.6493 200.098 25.7171 200.147 25.7707C200.195 25.8243 200.26 25.8609 200.331 25.875C200.377 25.875 200.468 25.875 200.514 25.83C201.543 25.5088 202.498 24.9872 203.324 24.2954C204.15 23.6035 204.831 22.7551 205.329 21.7989C205.826 20.8427 206.129 19.7976 206.22 18.7238C206.311 17.65 206.19 16.5688 205.861 15.5422C205.04 12.9472 203.028 10.989 200.514 10.17ZM195.669 10.125C195.623 10.125 195.532 10.125 195.486 10.17C194.457 10.4912 193.502 11.0128 192.676 11.7046C191.85 12.3965 191.169 13.2449 190.671 14.2011C190.174 15.1573 189.871 16.2024 189.78 17.2762C189.689 18.35 189.81 19.4312 190.139 20.4578C190.961 23.0077 192.926 24.9653 195.486 25.7843C195.669 25.875 195.852 25.7843 195.897 25.602C195.943 25.557 195.943 25.5105 195.943 25.4198V24.7822L195.935 24.7222C195.904 24.5955 195.786 24.4508 195.669 24.3727C192.103 23.0977 190.275 19.1377 191.601 15.633C192.286 13.7205 193.795 12.2648 195.669 11.5815C195.852 11.4907 195.943 11.3542 195.943 11.1263V10.4887L195.939 10.4227C195.932 10.3507 195.902 10.2829 195.853 10.2293C195.805 10.1757 195.74 10.1391 195.669 10.125ZM198.32 12.492H197.634L197.568 12.498C197.418 12.528 197.309 12.657 197.268 12.8565V13.9035L197.113 13.9275C195.832 14.1555 195.029 15.0398 195.029 16.134C195.029 17.6355 195.943 18.2273 197.863 18.4552C199.143 18.6825 199.554 18.9563 199.554 19.6845C199.554 20.412 198.914 20.913 198.046 20.913C196.857 20.913 196.446 20.4128 196.309 19.7295C196.264 19.548 196.126 19.4565 195.988 19.4565H195.212L195.152 19.4618C195.078 19.4737 195.011 19.512 194.963 19.5697C194.915 19.6273 194.89 19.7004 194.892 19.7753V19.8202L194.917 19.9552C195.134 21.0233 195.866 21.7875 197.315 22.0057V23.0985L197.32 23.1645C197.351 23.313 197.48 23.4225 197.681 23.4622H198.366L198.432 23.4562C198.582 23.4263 198.691 23.2973 198.732 23.0985V22.005L198.887 21.975C200.172 21.7035 201.017 20.7742 201.017 19.5922C201.017 17.9992 200.057 17.4532 198.137 17.2253C196.766 17.043 196.492 16.6792 196.492 16.0417C196.492 15.4043 196.949 14.9948 197.863 14.9948C198.686 14.9948 199.143 15.2677 199.371 15.951C199.395 16.0171 199.438 16.0743 199.495 16.1149C199.553 16.1555 199.621 16.1776 199.691 16.1783H200.422L200.482 16.1737C200.556 16.1619 200.623 16.1236 200.671 16.0657C200.719 16.0079 200.745 15.9346 200.743 15.8595V15.8145L200.715 15.6847C200.602 15.2186 200.346 14.7998 199.981 14.4879C199.617 14.176 199.163 13.987 198.685 13.9478V12.8565L198.68 12.7905C198.649 12.6413 198.521 12.5318 198.32 12.492Z" fill="white"/>
</g>
<defs>
<clipPath id="clip0_2480_1235">
<rect width="49" height="16" fill="white" transform="translate(0 12)"/>
</clipPath>
<clipPath id="clip1_2480_1235">
<rect width="26.4869" height="26.4869" fill="white" transform="translate(106.715 18.7305) rotate(-45)"/>
</clipPath>
<clipPath id="clip2_2480_1235">
<rect width="24" height="24" fill="white" transform="translate(186 6)"/>
</clipPath>
</defs>
</svg>
