<svg version="1.1" id="Layer_1" xmlns:x="ns_extend;" xmlns:i="ns_ai;" xmlns:graph="ns_graphs;" xmlns="http://www.w3.org/2000/svg" xmlns:xlink="http://www.w3.org/1999/xlink" x="0px" y="0px" viewBox="0 0 149.1 50" style="enable-background:new 0 0 149.1 50;" xml:space="preserve">
 <style type="text/css">
  .st0{fill:#FFFFFF;}
 </style>
 <metadata>
  <sfw xmlns="ns_sfw;">
   <slices>
   </slices>
   <sliceSourceBounds bottomLeftOrigin="true" height="50" width="149.1" x="-36.8" y="1.4">
   </sliceSourceBounds>
  </sfw>
 </metadata>
 <g>
  <path class="st0" d="M24.9,0C11.2,0,0,11.2,0,25c0,13.8,11.1,25,24.9,25c13.8,0,24.9-11.2,24.9-25C49.8,11.2,38.7,0,24.9,0z
		 M32,37.5l-0.1-15.6L16.4,37.5l-7.6,0l19.5-19.5h-7.1c-2.2,0-4,1.8-4,4c0,0.9,0.3,1.8,0.8,2.4l-3.8,3.8c-1.5-1.7-2.4-3.9-2.4-6.3
		c0-5.2,4.2-9.4,9.4-9.4h16.2v24.9L32,37.5z">
  </path>
  <path class="st0" d="M69.4,41.1h-7.5V15.7h7.5v6.1c1.3-4.7,4.5-6.7,7.1-6.7c1.8,0,3.1,0.3,4.3,0.9l-1.4,6.8
		c-1.4-0.7-2.7-0.8-3.8-0.8c-4.3,0-6.3,3.4-6.3,10.1V41.1z">
  </path>
  <path class="st0" d="M88.5,1.9c2.5,0,4.6,1.9,4.6,4.4s-2.1,4.5-4.6,4.5c-2.5,0-4.7-2-4.7-4.5S85.9,1.9,88.5,1.9z M92.2,41.1h-7.5
		V15.7h7.5V41.1z">
  </path>
  <path class="st0" d="M105.7,30.6c-7.6-2.1-7.6-5.9-7.6-8.3c0.1-3.8,4.5-7.2,9.9-7.2c5,0,10.3,2.2,10.4,8.4h-7.1
		c-0.1-1.9-1.7-2.2-2.9-2.2c-1.6,0-2.7,0.8-2.7,1.9c0.1,0.8,0.7,1.5,2.2,1.9l4.3,1.1c6.1,1.7,6.9,5.8,6.9,7.4
		c0,5.4-5.6,7.9-10.9,7.9c-5.1,0-10.5-3.1-10.6-8.8h7c0.1,1.5,1.7,2.9,3.7,2.9c1.7-0.1,3.1-0.8,3.1-2.1c0-1.1-0.6-1.7-2.5-2.2
		L105.7,30.6z">
  </path>
  <path class="st0" d="M147.7,36.4c-2.5,3.8-7.3,5.2-11.5,5.2c-7.3,0-13.2-5.3-13.2-13.3c0-8,6-13.2,13.2-13.2
		c7.2,0,12.9,5.4,12.9,13.4c0,0.7-0.1,1.7-0.1,2.3h-18.5c0.4,2.9,3.6,4.2,6.2,4.2c2.1,0,4.3-0.8,5.5-2.4L147.7,36.4z M141.5,26.1
		c-0.4-3.1-3.2-4.3-5.3-4.3c-2.1,0-5,1.1-5.6,4.3H141.5z">
  </path>
 </g>
</svg>