<svg width="150" height="50" viewBox="0 0 150 50" fill="none" xmlns="http://www.w3.org/2000/svg">
<g clip-path="url(#clip0_981_354)">
<path d="M24.9 0C11.2 0 0 11.2 0 25C0 38.8 11.1 50 24.9 50C38.7 50 49.8 38.8 49.8 25C49.8 11.2 38.7 0 24.9 0ZM32 37.5L31.9 21.9L16.4 37.5H8.8L28.3 18H21.2C19 18 17.2 19.8 17.2 22C17.2 22.9 17.5 23.8 18 24.4L14.2 28.2C12.7 26.5 11.8 24.3 11.8 21.9C11.8 16.7 16 12.5 21.2 12.5H37.4V37.4L32 37.5Z" fill="#2852AB"/>
<path d="M69.3999 41.1001H61.8999V15.7001H69.3999V21.8001C70.6999 17.1001 73.8999 15.1001 76.4999 15.1001C78.2999 15.1001 79.5999 15.4001 80.7999 16.0001L79.3999 22.8001C77.9999 22.1001 76.6999 22.0001 75.5999 22.0001C71.2999 22.0001 69.2999 25.4001 69.2999 32.1001V41.1001H69.3999Z" fill="#2852AB"/>
<path d="M88.4998 1.8999C90.9998 1.8999 93.0998 3.7999 93.0998 6.2999C93.0998 8.7999 90.9998 10.7999 88.4998 10.7999C85.9998 10.7999 83.7998 8.7999 83.7998 6.2999C83.7998 3.7999 85.8998 1.8999 88.4998 1.8999ZM92.1998 41.0999H84.6998V15.6999H92.1998V41.0999Z" fill="#2852AB"/>
<path d="M105.7 30.6001C98.1001 28.5001 98.1001 24.7001 98.1001 22.3001C98.2001 18.5001 102.6 15.1001 108 15.1001C113 15.1001 118.3 17.3001 118.4 23.5001H111.3C111.2 21.6001 109.6 21.3001 108.4 21.3001C106.8 21.3001 105.7 22.1001 105.7 23.2001C105.8 24.0001 106.4 24.7001 107.9 25.1001L112.2 26.2001C118.3 27.9001 119.1 32.0001 119.1 33.6001C119.1 39.0001 113.5 41.5001 108.2 41.5001C103.1 41.5001 97.7001 38.4001 97.6001 32.7001H104.6C104.7 34.2001 106.3 35.6001 108.3 35.6001C110 35.5001 111.4 34.8001 111.4 33.5001C111.4 32.4001 110.8 31.8001 108.9 31.3001L105.7 30.6001Z" fill="#2852AB"/>
<path d="M147.7 36.4001C145.2 40.2001 140.4 41.6001 136.2 41.6001C128.9 41.6001 123 36.3001 123 28.3001C123 20.3001 129 15.1001 136.2 15.1001C143.4 15.1001 149.1 20.5001 149.1 28.5001C149.1 29.2001 149 30.2001 149 30.8001H130.5C130.9 33.7001 134.1 35.0001 136.7 35.0001C138.8 35.0001 141 34.2001 142.2 32.6001L147.7 36.4001ZM141.5 26.1001C141.1 23.0001 138.3 21.8001 136.2 21.8001C134.1 21.8001 131.2 22.9001 130.6 26.1001H141.5Z" fill="#2852AB"/>
</g>
<defs>
<clipPath id="clip0_981_354">
<rect width="149.1" height="50" fill="white"/>
</clipPath>
</defs>
</svg>
