<svg width="417" height="479" viewBox="0 0 417 479" fill="none" xmlns="http://www.w3.org/2000/svg">
<g clip-path="url(#clip0_2534_1562)">
<g clip-path="url(#clip1_2534_1562)">
<path d="M239.86 286.31L340.82 349.77L340.67 354.15L340.64 355.04L340.51 358.67L340.48 359.56L340.35 363.2L340.32 364.08L340.2 367.72L340.17 368.61L340.04 372.24L340.01 373.13L339.88 376.82L126.03 490.58L25.0599 427.12L25.1899 423.43L25.2199 422.54L25.3499 418.9L25.3799 418.01L25.5099 414.38L25.5399 413.49L25.6599 409.86L25.6899 408.97L25.8199 405.34L25.8499 404.45L25.9999 400.07L239.86 286.31Z" fill="#32C9EA"/>
<path d="M239.86 286.31L340.82 349.77L340.67 354.15L340.64 355.04L340.51 358.67L340.48 359.56L340.35 363.2L340.32 364.08L340.2 367.72L340.17 368.61L340.04 372.24L340.01 373.13L339.88 376.82L126.03 490.58L25.0599 427.12L25.1899 423.43L25.2199 422.54L25.3499 418.9L25.3799 418.01L25.5099 414.38L25.5399 413.49L25.6599 409.86L25.6899 408.97L25.8199 405.34L25.8499 404.45L25.9999 400.07L239.86 286.31Z" fill="#32C9EA"/>
<g style="mix-blend-mode:multiply" opacity="0.3">
<path d="M239.86 286.31L340.82 349.77L340.67 354.15L340.64 355.04L340.51 358.67L340.48 359.56L340.35 363.2L340.32 364.08L340.2 367.72L340.17 368.61L340.04 372.24L340.01 373.13L339.88 376.82L126.03 490.58L25.0599 427.12L25.1899 423.43L25.2199 422.54L25.3499 418.9L25.3799 418.01L25.5099 414.38L25.5399 413.49L25.6599 409.86L25.6899 408.97L25.8199 405.34L25.8499 404.45L25.9999 400.07L239.86 286.31Z" fill="#3454A6"/>
</g>
<path d="M126.96 463.54L126.03 490.58L25.0599 427.12L25.9999 400.07L126.96 463.54Z" fill="#32C9EA"/>
<path d="M50.13 399.61L242.03 298.91L319.15 348.47L129.04 449.17L50.13 399.61Z" fill="white"/>
<path d="M127.82 451.12L48.9099 401.56C48.2099 401.12 47.7999 400.34 47.8299 399.52C47.8599 398.69 48.3299 397.95 49.0599 397.56L240.96 296.85C241.69 296.47 242.58 296.5 243.28 296.95L320.4 346.51C321.09 346.95 321.49 347.73 321.46 348.55C321.43 349.37 320.96 350.11 320.23 350.49L130.12 451.19C129.8 451.36 129.45 451.45 129.1 451.46C128.65 451.47 128.2 451.35 127.81 451.11L127.82 451.12ZM241.92 301.58L54.7599 399.8L129.14 446.51L314.58 348.28L241.91 301.58H241.92Z" fill="#262830"/>
<path d="M125.74 465.49L24.7799 402.03C24.0799 401.59 23.6699 400.81 23.6999 399.99C23.7299 399.17 24.1999 398.42 24.9199 398.03L238.78 284.27C239.51 283.88 240.39 283.91 241.09 284.35L342.05 347.81C342.75 348.25 343.16 349.03 343.13 349.85C343.1 350.67 342.63 351.42 341.91 351.81L128.05 465.57C127.73 465.74 127.38 465.83 127.03 465.84C126.58 465.85 126.13 465.73 125.74 465.49ZM239.76 288.99L30.6099 400.24L127.06 460.87L336.21 349.61L239.76 288.98V288.99Z" fill="#262830"/>
<path d="M153.32 356.01C170.74 346.75 198.33 347.7 214.95 358.15C231.57 368.6 230.92 384.58 213.51 393.84C196.09 403.1 168.5 402.15 151.88 391.7C135.26 381.25 135.91 365.27 153.32 356.01Z" fill="#32C9EA"/>
<path d="M150.65 393.66C141.91 388.17 137.25 380.97 137.53 373.39C137.81 365.77 143.03 358.87 152.24 353.97C170.28 344.38 198.96 345.37 216.18 356.19C224.92 361.68 229.58 368.88 229.3 376.46C229.02 384.08 223.8 390.98 214.59 395.88C206.86 399.99 197.18 402.16 187.28 402.44C174.08 402.82 160.49 399.84 150.65 393.65V393.66ZM154.4 358.05C146.71 362.14 142.35 367.65 142.14 373.56C141.93 379.42 145.82 385.17 153.11 389.75C169.08 399.79 195.69 400.71 212.42 391.81C220.11 387.72 224.47 382.21 224.68 376.3C224.89 370.44 221 364.69 213.71 360.11C204.58 354.37 191.99 351.61 179.74 351.96C170.56 352.22 161.57 354.23 154.4 358.05Z" fill="#3454A6"/>
<path d="M231.02 329.28C241.16 323.89 257.23 324.44 266.91 330.52C276.59 336.6 276.21 345.91 266.07 351.31C255.93 356.7 239.86 356.14 230.18 350.06C220.5 343.98 220.88 334.68 231.02 329.28Z" fill="#32C9EA"/>
<path d="M228.96 352.01C223.57 348.62 220.7 344.13 220.87 339.36C221.04 334.56 224.27 330.26 229.95 327.24C240.91 321.41 257.69 321.99 268.15 328.56C273.54 331.95 276.41 336.44 276.24 341.21C276.07 346.01 272.84 350.32 267.16 353.34C262.45 355.84 256.67 357.16 250.77 357.33C242.95 357.55 234.93 355.75 228.96 352V352.01ZM232.11 331.32C227.95 333.54 225.59 336.45 225.48 339.53C225.37 342.58 227.48 345.63 231.41 348.1C240.45 353.78 255.51 354.31 264.98 349.27C269.14 347.05 271.5 344.14 271.61 341.05C271.72 337.99 269.61 334.95 265.68 332.47C260.52 329.23 253.39 327.66 246.46 327.86C241.26 328.01 236.17 329.15 232.1 331.31L232.11 331.32Z" fill="#3454A6"/>
<path d="M100.76 398.57C110.9 393.18 126.97 393.73 136.65 399.81C146.33 405.89 145.95 415.2 135.81 420.6C125.67 425.99 109.6 425.43 99.9201 419.35C90.24 413.27 90.6201 403.97 100.76 398.57Z" fill="#32C9EA"/>
<path d="M98.69 421.3C93.3 417.91 90.42 413.42 90.6 408.65C90.77 403.85 94 399.55 99.68 396.53C110.64 390.7 127.42 391.28 137.88 397.85C143.27 401.24 146.15 405.73 145.97 410.5C145.8 415.3 142.57 419.61 136.89 422.63C132.18 425.13 126.4 426.45 120.5 426.62C112.68 426.84 104.66 425.04 98.69 421.29V421.3ZM101.84 400.61C97.68 402.83 95.32 405.74 95.21 408.82C95.1 411.87 97.21 414.92 101.14 417.39C110.18 423.07 125.24 423.6 134.71 418.56C138.87 416.34 141.23 413.43 141.34 410.34C141.45 407.28 139.34 404.24 135.41 401.76C130.25 398.52 123.12 396.95 116.19 397.15C110.99 397.3 105.9 398.44 101.83 400.6L101.84 400.61Z" fill="#3454A6"/>
<path d="M124.8 492.53L23.84 429.07C23.14 428.63 22.73 427.86 22.76 427.03L23.7 399.98C23.73 399.15 24.2 398.41 24.92 398.02L238.78 284.26C239.51 283.87 240.39 283.9 241.09 284.34L342.05 347.8C342.75 348.24 343.16 349.01 343.13 349.84L342.19 376.89C342.16 377.72 341.69 378.46 340.97 378.85L127.11 492.61C126.79 492.78 126.44 492.87 126.09 492.88C125.64 492.89 125.19 492.77 124.8 492.53ZM338.47 351.02L239.77 288.98L28.27 401.48L27.42 425.87L126.12 487.91L337.62 375.41L338.47 351.02Z" fill="#262830"/>
<path d="M256.6 394.58L155.64 331.12L110.23 355.28L211.19 418.74L256.6 394.58Z" fill="#FF6000"/>
<path d="M209.96 420.69L109 357.23C108.3 356.79 107.89 356.01 107.92 355.19C107.95 354.37 108.42 353.62 109.14 353.23L154.55 329.07C155.28 328.68 156.16 328.71 156.86 329.15L257.82 392.61C258.52 393.05 258.93 393.83 258.9 394.65C258.87 395.47 258.4 396.22 257.68 396.61L212.27 420.77C211.95 420.94 211.6 421.03 211.25 421.04C210.8 421.05 210.35 420.93 209.96 420.69ZM155.54 333.79L114.83 355.45L211.28 416.08L251.99 394.42L155.54 333.79Z" fill="#262830"/>
<path d="M210.17 445.89L255.66 421.73L256.6 394.58L211.11 418.74L210.17 445.89Z" fill="#FF6000"/>
<g style="mix-blend-mode:multiply" opacity="0.3">
<path d="M210.17 445.89L255.66 421.73L256.6 394.58L211.11 418.74L210.17 445.89Z" fill="#3454A6"/>
</g>
<path d="M208.94 447.85C208.24 447.41 207.83 446.63 207.86 445.81L208.8 418.66C208.83 417.83 209.3 417.09 210.02 416.7L255.51 392.55C256.24 392.17 257.12 392.2 257.82 392.63C258.52 393.07 258.93 393.85 258.9 394.67L257.96 421.82C257.93 422.65 257.46 423.39 256.74 423.78L211.25 447.93C210.93 448.1 210.58 448.19 210.23 448.2C209.78 448.21 209.33 448.09 208.94 447.85ZM254.15 398.5L213.37 420.15L212.61 441.97L253.39 420.32L254.15 398.5Z" fill="#262830"/>
<path d="M124.8 492.53L23.84 429.07C23.14 428.63 22.73 427.86 22.76 427.03L23.7 399.98C23.73 399.15 24.2 398.41 24.93 398.02C25.66 397.63 26.54 397.66 27.24 398.1L128.2 461.57C128.9 462.01 129.31 462.78 129.28 463.61L128.34 490.65C128.31 491.48 127.84 492.22 127.11 492.61C126.79 492.78 126.44 492.87 126.09 492.88C125.64 492.89 125.19 492.77 124.8 492.53ZM28.17 404.16L27.42 425.87L123.86 486.49L124.61 464.79L28.17 404.17V404.16Z" fill="#262830"/>
<path d="M126.46 482.27C127.22 482.25 127.96 481.85 128.38 481.14C129.03 480.04 128.67 478.63 127.57 477.98L84.37 452.34C83.27 451.69 81.86 452.05 81.21 453.15C80.56 454.25 80.92 455.66 82.02 456.31L125.22 481.95C125.61 482.18 126.04 482.28 126.46 482.27Z" fill="#262830"/>
<path d="M256.04 415C256.39 415 256.74 414.9 257.07 414.73L312.08 385.11C313.2 384.5 313.62 383.1 313.02 381.98C312.42 380.86 311.01 380.44 309.89 381.04L254.88 410.66C253.76 411.27 253.34 412.67 253.94 413.79C254.37 414.59 255.2 415.03 256.04 415Z" fill="#262830"/>
<path d="M212.4 251.06L313.36 314.52L313.2 318.9L313.17 319.79L313.05 323.42L313.02 324.31L312.89 327.95L312.86 328.83L312.73 332.47L312.7 333.36L312.58 336.99L312.55 337.88L312.42 341.57L98.56 455.33L-2.40002 391.87L-2.27002 388.18L-2.24002 387.29L-2.11002 383.65L-2.08002 382.76L-1.96002 379.13L-1.93002 378.24L-1.80002 374.61L-1.77002 373.72L-1.64002 370.09L-1.61002 369.2L-1.46002 364.82L212.4 251.06Z" fill="#32C9EA"/>
<g style="mix-blend-mode:multiply" opacity="0.3">
<path d="M212.4 251.06L313.36 314.52L313.2 318.9L313.17 319.79L313.05 323.42L313.02 324.31L312.89 327.95L312.86 328.83L312.73 332.47L312.7 333.36L312.58 336.99L312.55 337.88L312.42 341.57L98.56 455.33L-2.40002 391.87L-2.27002 388.18L-2.24002 387.29L-2.11002 383.65L-2.08002 382.76L-1.96002 379.13L-1.93002 378.24L-1.80002 374.61L-1.77002 373.72L-1.64002 370.09L-1.61002 369.2L-1.46002 364.82L212.4 251.06Z" fill="#3454A6"/>
</g>
<path d="M99.5 428.29L98.56 455.33L-2.40002 391.87L-1.46002 364.82L99.5 428.29Z" fill="#32C9EA"/>
<path d="M22.67 364.36L214.57 263.65L291.69 313.22L101.58 413.92L22.67 364.36Z" fill="white"/>
<path d="M100.35 415.87L21.4399 366.31C20.7399 365.87 20.3299 365.09 20.3599 364.27C20.3899 363.44 20.8599 362.7 21.5899 362.31L213.49 261.6C214.22 261.22 215.11 261.25 215.81 261.7L292.93 311.26C293.62 311.7 294.02 312.48 293.99 313.3C293.96 314.12 293.49 314.86 292.76 315.24L102.65 415.94C102.33 416.11 101.98 416.2 101.63 416.21C101.18 416.22 100.73 416.1 100.34 415.86L100.35 415.87ZM214.45 266.32L27.2899 364.54L101.67 411.25L287.11 313.02L214.44 266.32H214.45Z" fill="#262830"/>
<path d="M98.2699 430.24L-2.69007 366.78C-3.39007 366.34 -3.80007 365.56 -3.77007 364.74C-3.74007 363.92 -3.27007 363.17 -2.55007 362.78L211.31 249.02C212.04 248.63 212.92 248.66 213.62 249.1L314.58 312.56C315.28 313 315.69 313.78 315.66 314.6C315.63 315.42 315.16 316.17 314.44 316.56L100.58 430.32C100.26 430.49 99.9099 430.58 99.5599 430.59C99.1099 430.6 98.6599 430.48 98.2699 430.24ZM212.3 253.74L3.13993 364.99L99.5899 425.62L308.75 314.36L212.3 253.73V253.74Z" fill="#262830"/>
<path d="M125.86 320.76C143.28 311.5 170.87 312.45 187.49 322.9C204.11 333.35 203.46 349.33 186.05 358.59C168.63 367.85 141.04 366.9 124.42 356.45C107.8 346 108.45 330.02 125.86 320.76Z" fill="#32C9EA"/>
<path d="M123.18 358.41C114.44 352.92 109.78 345.72 110.06 338.14C110.34 330.52 115.56 323.62 124.77 318.72C142.81 309.13 171.49 310.12 188.71 320.94C197.45 326.43 202.11 333.63 201.83 341.21C201.55 348.83 196.33 355.73 187.12 360.63C179.39 364.74 169.71 366.91 159.81 367.19C146.61 367.57 133.02 364.59 123.18 358.4V358.41ZM126.94 322.8C119.25 326.89 114.89 332.4 114.68 338.31C114.47 344.17 118.36 349.92 125.64 354.5C141.61 364.54 168.22 365.46 184.95 356.56C192.64 352.47 197 346.96 197.21 341.05C197.42 335.19 193.53 329.44 186.24 324.86C177.11 319.12 164.52 316.36 152.27 316.71C143.09 316.97 134.1 318.98 126.93 322.8H126.94Z" fill="#3454A6"/>
<path d="M203.56 294.03C213.7 288.64 229.77 289.19 239.45 295.27C249.13 301.35 248.75 310.66 238.61 316.06C228.47 321.45 212.4 320.89 202.72 314.81C193.04 308.73 193.42 299.43 203.56 294.03Z" fill="#32C9EA"/>
<path d="M201.49 316.76C196.1 313.37 193.23 308.88 193.4 304.11C193.57 299.31 196.8 295.01 202.48 291.99C213.44 286.16 230.22 286.74 240.68 293.31C246.07 296.7 248.94 301.19 248.77 305.97C248.6 310.77 245.37 315.08 239.69 318.1C234.98 320.6 229.2 321.92 223.3 322.09C215.48 322.31 207.46 320.51 201.49 316.76ZM204.64 296.07C200.48 298.29 198.12 301.2 198.01 304.28C197.9 307.33 200.01 310.38 203.94 312.85C212.98 318.53 228.04 319.06 237.51 314.02C241.67 311.8 244.03 308.89 244.14 305.8C244.25 302.74 242.14 299.7 238.21 297.22C233.05 293.98 225.92 292.41 218.99 292.61C213.79 292.76 208.7 293.9 204.64 296.06V296.07Z" fill="#3454A6"/>
<path d="M73.2901 363.32C83.4301 357.93 99.5001 358.48 109.18 364.56C118.86 370.64 118.48 379.95 108.34 385.35C98.2001 390.74 82.1301 390.18 72.4501 384.1C62.7701 378.02 63.1501 368.72 73.2901 363.32Z" fill="#32C9EA"/>
<path d="M71.23 386.05C65.84 382.66 62.96 378.17 63.14 373.4C63.31 368.6 66.54 364.3 72.22 361.28C83.18 355.45 99.96 356.03 110.42 362.6C115.81 365.99 118.69 370.48 118.51 375.26C118.34 380.06 115.11 384.37 109.43 387.39C104.72 389.89 98.94 391.21 93.04 391.38C85.22 391.6 77.2 389.8 71.23 386.05ZM74.38 365.36C70.22 367.58 67.86 370.49 67.75 373.57C67.64 376.62 69.75 379.67 73.68 382.14C82.72 387.82 97.78 388.35 107.25 383.31C111.41 381.09 113.77 378.18 113.88 375.09C113.99 372.03 111.88 368.99 107.95 366.51C102.79 363.27 95.66 361.7 88.73 361.9C83.53 362.05 78.44 363.19 74.38 365.35V365.36Z" fill="#3454A6"/>
<path d="M97.33 457.28L-3.63001 393.82C-4.33001 393.38 -4.74001 392.61 -4.71001 391.78L-3.77001 364.73C-3.74001 363.91 -3.27001 363.16 -2.55001 362.77L211.31 249.01C212.04 248.62 212.92 248.65 213.62 249.09L314.58 312.55C315.28 312.99 315.69 313.76 315.66 314.59L314.72 341.64C314.69 342.47 314.22 343.21 313.5 343.6L99.64 457.36C99.32 457.53 98.97 457.62 98.62 457.63C98.17 457.64 97.72 457.52 97.33 457.28ZM311 315.77L212.3 253.73L0.799992 366.23L-0.0500078 390.62L98.65 452.66L310.15 340.16L311 315.77Z" fill="#262830"/>
<path d="M229.13 359.33L128.17 295.87L82.76 320.03L183.72 383.49L229.13 359.33Z" fill="#FF6000"/>
<path d="M182.49 385.44L81.53 321.98C80.83 321.54 80.42 320.76 80.45 319.94C80.48 319.12 80.95 318.37 81.67 317.98L127.08 293.82C127.81 293.43 128.69 293.46 129.39 293.9L230.35 357.36C231.05 357.8 231.46 358.58 231.43 359.4C231.4 360.22 230.93 360.97 230.21 361.36L184.8 385.52C184.48 385.69 184.13 385.78 183.78 385.79C183.33 385.8 182.88 385.68 182.49 385.44ZM128.08 298.54L87.37 320.2L183.82 380.83L224.53 359.17L128.08 298.54Z" fill="#3454A6"/>
<path d="M182.7 410.64L228.19 386.48L229.13 359.33L183.65 383.49L182.7 410.64Z" fill="#FF6000"/>
<g style="mix-blend-mode:multiply" opacity="0.3">
<path d="M182.7 410.64L228.19 386.48L229.13 359.33L183.65 383.49L182.7 410.64Z" fill="#3454A6"/>
</g>
<path d="M181.48 412.6C180.78 412.16 180.37 411.38 180.4 410.56L181.34 383.41C181.37 382.58 181.84 381.84 182.56 381.45L228.05 357.3C228.78 356.92 229.66 356.95 230.36 357.38C231.06 357.82 231.47 358.6 231.44 359.42L230.5 386.57C230.47 387.4 230 388.14 229.28 388.53L183.79 412.68C183.47 412.85 183.12 412.94 182.77 412.95C182.32 412.96 181.87 412.84 181.48 412.6ZM226.69 363.25L185.91 384.9L185.15 406.73L225.93 385.08L226.69 363.26V363.25Z" fill="#262830"/>
<path d="M97.33 457.28L-3.63001 393.82C-4.33001 393.38 -4.74001 392.61 -4.71001 391.78L-3.77001 364.73C-3.74001 363.9 -3.27001 363.16 -2.54001 362.77C-1.81001 362.38 -0.930008 362.41 -0.230008 362.85L100.73 426.32C101.43 426.76 101.84 427.53 101.81 428.36L100.87 455.4C100.84 456.23 100.37 456.97 99.64 457.36C99.32 457.53 98.97 457.62 98.62 457.63C98.17 457.64 97.72 457.52 97.33 457.28ZM0.709992 368.91L-0.0400076 390.62L96.4 451.24L97.15 429.54L0.709992 368.91Z" fill="#262830"/>
<path d="M26.22 396.47C26.97 396.45 27.7 396.06 28.13 395.37C28.79 394.28 28.45 392.86 27.36 392.19L-0.679998 375.07C-1.77 374.41 -3.19 374.75 -3.86 375.84C-4.52 376.93 -4.18 378.35 -3.09 379.02L24.95 396.14C25.35 396.38 25.79 396.49 26.22 396.48V396.47Z" fill="#262830"/>
<path d="M243.88 217.73L344.85 281.19L344.69 285.56L344.66 286.45L344.54 290.08L344.51 290.97L344.38 294.61L344.35 295.5L344.22 299.13L344.19 300.02L344.06 303.65L344.03 304.54L343.91 308.23L130.05 421.99L29.09 358.53L29.22 354.84L29.25 353.95L29.37 350.32L29.4 349.43L29.53 345.79L29.56 344.9L29.69 341.27L29.72 340.38L29.85 336.75L29.88 335.86L30.03 331.48L243.88 217.73Z" fill="#32C9EA"/>
<g style="mix-blend-mode:multiply" opacity="0.3">
<path d="M344.85 281.19L344.69 285.56L344.66 286.45L344.54 290.08L344.51 290.97L344.38 294.61L344.35 295.5L344.22 299.13L344.19 300.02L344.06 303.65L344.03 304.54L343.91 308.23L131.7 419.87L130.99 394.95L344.85 281.19Z" fill="#3454A6"/>
</g>
<path d="M130.99 394.95L130.05 421.99L29.09 358.53L30.03 331.48L130.99 394.95Z" fill="#32C9EA"/>
<path d="M54.15 331.03L246.06 230.32L323.18 279.88L133.07 380.58L54.15 331.03Z" fill="white"/>
<path d="M131.84 382.54L52.9299 332.98C52.2299 332.54 51.8199 331.76 51.8499 330.94C51.8799 330.11 52.3499 329.37 53.0799 328.98L244.98 228.27C245.71 227.89 246.6 227.92 247.3 228.37L324.42 277.93C325.11 278.37 325.51 279.15 325.48 279.97C325.45 280.79 324.98 281.53 324.25 281.91L134.14 382.61C133.82 382.78 133.47 382.87 133.12 382.88C132.67 382.89 132.22 382.77 131.83 382.53L131.84 382.54ZM245.94 232.99L58.7799 331.21L133.16 377.92L318.6 279.69L245.93 232.99H245.94Z" fill="#262830"/>
<path d="M129.76 396.91L28.7999 333.45C28.0999 333.01 27.6899 332.23 27.7199 331.41C27.7499 330.59 28.2199 329.84 28.9399 329.45L242.8 215.69C243.53 215.3 244.41 215.33 245.11 215.77L346.07 279.23C346.77 279.67 347.18 280.45 347.15 281.27C347.12 282.09 346.65 282.84 345.93 283.23L132.07 396.99C131.75 397.16 131.4 397.25 131.05 397.26C130.6 397.27 130.15 397.15 129.76 396.91ZM243.79 220.4L34.6299 331.66L131.08 392.29L340.24 281.03L243.79 220.4Z" fill="#262830"/>
<path d="M157.34 287.43C174.76 278.17 202.35 279.12 218.97 289.57C235.59 300.02 234.94 316 217.53 325.26C200.11 334.52 172.52 333.57 155.9 323.12C139.28 312.67 139.93 296.69 157.34 287.43Z" fill="#32C9EA"/>
<path d="M154.67 325.07C145.93 319.58 141.27 312.38 141.55 304.8C141.83 297.18 147.05 290.28 156.26 285.38C174.3 275.79 202.98 276.78 220.2 287.6C228.94 293.09 233.6 300.29 233.32 307.87C233.04 315.49 227.82 322.39 218.61 327.29C210.88 331.4 201.2 333.57 191.3 333.85C178.1 334.23 164.51 331.25 154.67 325.06V325.07ZM158.43 289.46C150.74 293.55 146.38 299.06 146.17 304.97C145.96 310.83 149.85 316.58 157.13 321.16C173.1 331.2 199.71 332.12 216.44 323.22C224.13 319.13 228.49 313.62 228.7 307.71C228.91 301.85 225.02 296.1 217.73 291.52C208.6 285.78 196.01 283.02 183.76 283.37C174.58 283.63 165.59 285.64 158.42 289.46H158.43Z" fill="#262830"/>
<path d="M235.05 260.69C245.19 255.3 261.26 255.85 270.94 261.93C280.62 268.01 280.24 277.32 270.1 282.72C259.96 288.11 243.89 287.55 234.21 281.47C224.53 275.39 224.91 266.09 235.05 260.69Z" fill="#32C9EA"/>
<path d="M232.98 283.42C227.59 280.03 224.72 275.54 224.89 270.77C225.06 265.97 228.29 261.67 233.97 258.65C244.93 252.82 261.71 253.4 272.17 259.97C277.56 263.36 280.43 267.85 280.26 272.63C280.09 277.43 276.86 281.74 271.18 284.76C266.47 287.26 260.69 288.58 254.79 288.75C246.97 288.97 238.95 287.17 232.98 283.42ZM236.13 262.73C231.97 264.95 229.61 267.86 229.5 270.94C229.39 273.99 231.5 277.04 235.43 279.51C244.47 285.19 259.53 285.72 269 280.68C273.16 278.46 275.52 275.55 275.63 272.46C275.74 269.4 273.63 266.36 269.7 263.88C264.54 260.64 257.41 259.07 250.48 259.27C245.28 259.42 240.19 260.56 236.13 262.72V262.73Z" fill="#262830"/>
<path d="M104.78 329.98C114.92 324.59 130.99 325.14 140.67 331.22C150.35 337.3 149.97 346.61 139.83 352.01C129.69 357.4 113.62 356.84 103.94 350.76C94.2601 344.68 94.6401 335.38 104.78 329.98Z" fill="#32C9EA"/>
<path d="M102.71 352.72C97.32 349.33 94.44 344.84 94.62 340.07C94.79 335.27 98.02 330.97 103.7 327.95C114.66 322.12 131.44 322.7 141.9 329.27C147.29 332.66 150.17 337.15 149.99 341.93C149.82 346.73 146.59 351.04 140.91 354.06C136.2 356.56 130.42 357.88 124.52 358.05C116.7 358.27 108.68 356.47 102.71 352.72ZM105.87 332.02C101.71 334.24 99.35 337.15 99.24 340.23C99.13 343.28 101.24 346.33 105.17 348.8C114.21 354.48 129.27 355.01 138.74 349.97C142.9 347.75 145.26 344.84 145.37 341.75C145.48 338.69 143.37 335.65 139.44 333.17C134.28 329.93 127.15 328.36 120.22 328.56C115.02 328.71 109.93 329.85 105.87 332.01V332.02Z" fill="#262830"/>
<path d="M128.82 423.95L27.86 360.49C27.16 360.05 26.75 359.28 26.78 358.45L27.72 331.4C27.75 330.58 28.22 329.83 28.94 329.44L242.8 215.68C243.53 215.29 244.41 215.32 245.11 215.76L346.07 279.22C346.77 279.66 347.18 280.43 347.15 281.26L346.21 308.31C346.18 309.14 345.71 309.88 344.99 310.27L131.13 424.03C130.81 424.2 130.46 424.29 130.11 424.3C129.66 424.31 129.21 424.19 128.82 423.95ZM342.49 282.43L243.79 220.39L32.29 332.89L31.44 357.28L130.14 419.32L341.64 306.82L342.49 282.43Z" fill="#262830"/>
<path d="M260.62 325.99L159.66 262.53L114.25 286.69L215.21 350.15L260.62 325.99Z" fill="#FF6000"/>
<path d="M213.98 352.11L113.02 288.65C112.32 288.21 111.91 287.43 111.94 286.61C111.97 285.79 112.44 285.04 113.16 284.65L158.57 260.49C159.3 260.1 160.18 260.13 160.88 260.57L261.84 324.03C262.54 324.47 262.95 325.25 262.92 326.07C262.89 326.89 262.42 327.64 261.7 328.03L216.29 352.19C215.97 352.36 215.62 352.45 215.27 352.46C214.82 352.47 214.37 352.35 213.98 352.11ZM159.57 265.2L118.86 286.86L215.31 347.49L256.02 325.83L159.57 265.2Z" fill="#262830"/>
<path d="M214.19 377.3L259.68 353.15L260.62 325.99L215.13 350.15L214.19 377.3Z" fill="#FF6000"/>
<g style="mix-blend-mode:multiply" opacity="0.3">
<path d="M214.19 377.3L259.68 353.15L260.62 325.99L215.13 350.15L214.19 377.3Z" fill="#3454A6"/>
</g>
<path d="M212.97 379.26C212.27 378.82 211.86 378.04 211.89 377.22L212.83 350.07C212.86 349.24 213.33 348.5 214.05 348.11L259.54 323.96C260.27 323.58 261.15 323.61 261.85 324.04C262.55 324.48 262.96 325.26 262.93 326.08L261.99 353.23C261.96 354.06 261.49 354.8 260.77 355.19L215.28 379.34C214.96 379.51 214.61 379.6 214.26 379.61C213.81 379.62 213.36 379.5 212.97 379.26ZM258.18 329.91L217.4 351.56L216.64 373.39L257.42 351.74L258.18 329.92V329.91Z" fill="#262830"/>
<path d="M128.82 423.95L27.86 360.49C27.16 360.05 26.75 359.28 26.78 358.45L27.72 331.4C27.75 330.57 28.22 329.83 28.95 329.44C29.68 329.05 30.56 329.08 31.26 329.52L132.22 392.99C132.92 393.43 133.33 394.2 133.3 395.03L132.36 422.07C132.33 422.9 131.86 423.64 131.13 424.03C130.81 424.2 130.46 424.29 130.11 424.3C129.66 424.31 129.21 424.19 128.82 423.95ZM32.2 335.57L31.45 357.28L127.89 417.9L128.64 396.2L32.2 335.58V335.57Z" fill="#262830"/>
<path d="M57.7 363.13C58.45 363.11 59.18 362.72 59.61 362.03C60.27 360.94 59.93 359.52 58.84 358.85L30.8 341.73C29.71 341.07 28.29 341.41 27.62 342.5C26.96 343.59 27.3 345.01 28.39 345.68L56.43 362.8C56.83 363.04 57.27 363.15 57.7 363.14V363.13Z" fill="#262830"/>
<path d="M130.48 413.68C131.24 413.66 131.98 413.26 132.4 412.55C133.05 411.45 132.69 410.04 131.59 409.39L88.39 383.75C87.29 383.1 85.88 383.46 85.23 384.56C84.58 385.66 84.94 387.07 86.04 387.72L129.24 413.36C129.63 413.59 130.06 413.69 130.48 413.68Z" fill="#262830"/>
<path d="M169.99 386.34C170.32 386.34 170.64 386.25 170.95 386.1L215.76 363.74C216.9 363.17 217.36 361.78 216.8 360.64C216.23 359.5 214.85 359.04 213.7 359.6L168.89 381.96C167.75 382.53 167.29 383.92 167.85 385.06C168.26 385.89 169.11 386.36 169.98 386.34H169.99Z" fill="#262830"/>
<path d="M260.06 346.41C260.41 346.41 260.76 346.31 261.09 346.14L316.1 316.52C317.22 315.91 317.64 314.51 317.04 313.39C316.43 312.27 315.03 311.85 313.91 312.45L258.9 342.07C257.78 342.68 257.36 344.08 257.96 345.2C258.39 346 259.22 346.44 260.06 346.41Z" fill="#262830"/>
<g style="mix-blend-mode:multiply" opacity="0.5">
<path d="M138.7 281.95C138.7 281.95 108.97 298.79 159.97 335.25C188.78 355.84 203.35 359.34 205.02 374.16C205.68 379.98 199.47 448.9 199.47 448.9C199.47 448.9 237.57 429.75 237.63 425.84C237.69 421.93 230.57 342.42 230.57 342.42L192.43 285.62L138.7 281.96V281.95Z" fill="#3B529B"/>
</g>
<g style="mix-blend-mode:multiply" opacity="0.5">
<path d="M220.53 272.24C220.53 272.24 210.83 313.09 239.8 323.21C268.77 333.33 282.04 335.36 282.04 335.36L283.18 404.37L315.29 387.29L312.78 312.36C312.78 312.36 317.61 301.7 307.88 300C298.14 298.31 220.54 272.24 220.54 272.24H220.53Z" fill="#3B529B"/>
</g>
<g opacity="0.5">
<path d="M324.48 408.43C324.48 408.43 323.37 417.86 326.53 424.99C329.69 432.12 325.62 439.06 313.85 435.75L301.17 428.42C301.17 428.42 304.95 419.02 305.19 407.92C305.43 396.82 313.86 398.89 313.86 398.89L324.48 408.43Z" fill="#262830"/>
</g>
<path d="M313.28 437.76L298.55 429.31L299.22 427.63C299.26 427.54 302.87 418.43 303.09 407.87C303.19 403.45 304.48 400.26 306.94 398.37C310.2 395.87 314.18 396.82 314.35 396.85L314.86 396.97L326.67 407.59L326.55 408.67C326.55 408.76 325.54 417.61 328.44 424.14C330.33 428.4 330 432.62 327.55 435.45C326.35 436.84 323.86 438.73 319.24 438.7C317.55 438.69 315.58 438.42 313.28 437.77V437.76ZM312.92 400.85C312.17 400.78 310.67 400.77 309.47 401.71C307.75 403.06 307.33 405.85 307.29 407.96C307.1 416.63 304.86 424.2 303.74 427.48L314.67 433.8C319.19 435.02 322.74 434.63 324.4 432.71C325.76 431.14 325.84 428.57 324.63 425.84C321.89 419.67 322.11 412.1 322.31 409.29L312.93 400.86L312.92 400.85Z" fill="#262830"/>
<path d="M243.86 460.78C243.86 460.78 242.84 469.49 245.76 476.07C248.68 482.65 244.44 490.88 233.57 487.82L222.34 479.23C222.34 479.23 225.83 470.55 226.05 460.3C226.27 450.05 234.06 451.96 234.06 451.96L243.86 460.77V460.78Z" fill="#3B529B"/>
<path d="M322.73 410.04C322.73 410.04 321.81 417.83 324.43 423.72C327.04 429.61 323.68 435.34 313.95 432.61L303.48 426.55C303.48 426.55 306.61 418.79 306.8 409.62C307 400.45 313.96 402.16 313.96 402.16L322.73 410.04Z" fill="#3B529B"/>
<g opacity="0.6">
<path d="M322.73 410.04C322.73 410.04 321.81 417.83 324.43 423.72C327.04 429.61 323.68 435.34 313.95 432.61L303.48 426.55C303.48 426.55 306.61 418.79 306.8 409.62C307 400.45 313.96 402.16 313.96 402.16L322.73 410.04Z" fill="#262830"/>
</g>
<g opacity="0.5">
<path d="M243.86 460.78C243.86 460.78 242.84 469.49 245.76 476.07C248.68 482.65 244.44 490.88 233.57 487.82L222.34 479.23C222.34 479.23 225.83 470.55 226.05 460.3C226.27 450.05 234.06 451.96 234.06 451.96L243.86 460.77V460.78Z" fill="#262830"/>
</g>
<path d="M233 489.83L219.8 479.93L220.39 478.45C220.43 478.37 223.75 469.97 223.95 460.25C224.04 456.12 225.26 453.13 227.57 451.36C230.65 449 234.39 449.89 234.55 449.93L235.06 450.05L246.06 459.94L245.94 461.02C245.93 461.1 245.01 469.23 247.67 475.22C249.5 479.34 248.96 483.99 246.3 487.07C244.29 489.39 241.32 490.58 237.82 490.55C236.31 490.54 234.69 490.3 233.01 489.83H233ZM233.11 453.93C232.43 453.87 231.14 453.89 230.11 454.68C228.55 455.88 228.17 458.42 228.13 460.34C227.96 468.44 225.85 475.51 224.82 478.5L234.5 485.9C238.35 486.89 241.38 486.33 243.12 484.33C244.73 482.47 245.01 479.56 243.83 476.91C241.31 471.24 241.48 464.29 241.67 461.63L233.1 453.93H233.11Z" fill="#262830"/>
<path d="M322.65 420.97C324.89 420.33 327.28 421.47 328.34 423.55C330.76 428.32 337.55 440.18 347.56 445.56C360.25 452.39 352.86 459.98 346.72 461.28C342.96 462.07 335.96 459.38 330.52 456.85C326.75 455.1 323.34 452.69 320.15 450.03C318.32 448.51 315.55 446.86 311.78 446.31C305.97 445.46 299.44 441.78 296.74 440.13C295.94 439.64 295.5 438.76 295.57 437.82C295.91 433.41 297.08 420.7 299.24 419.08C301.86 417.12 304.83 417.16 305.26 422.51C305.69 427.86 314.22 430.27 315.31 426.74C316.01 424.5 319.46 421.87 322.66 420.96L322.65 420.97Z" fill="#262830"/>
<path d="M329.63 458.74C326.09 457.1 322.65 454.84 318.8 451.63C316.67 449.87 314.21 448.77 311.46 448.37C305.23 447.46 298.31 443.55 295.63 441.91C294.17 441.01 293.34 439.39 293.47 437.66C294.87 419.74 297.12 418.05 297.97 417.41C300.09 415.83 302.24 415.4 304.03 416.2C305.96 417.07 307.07 419.14 307.33 422.34C307.48 424.18 309.25 425.45 310.72 425.98C312.14 426.49 313.14 426.29 313.3 426.12C314.3 422.91 318.54 419.96 322.08 418.95C325.25 418.04 328.67 419.57 330.2 422.59C332.56 427.24 339.08 438.61 348.55 443.71C355.89 447.66 356.94 451.89 356.53 454.74C355.89 459.21 351.33 462.44 347.15 463.32C346.56 463.45 345.9 463.5 345.17 463.5C341.59 463.47 336.39 461.88 329.64 458.74H329.63ZM323.22 422.98C320.45 423.77 317.71 426.03 317.29 427.37C316.6 429.58 314.41 430.76 311.53 430.45C307.69 430.02 303.51 427.01 303.16 422.68C303.01 420.74 302.49 420.09 302.31 420.01C302.13 419.93 301.46 420.01 300.57 420.67C299.73 421.66 298.46 427.5 297.64 437.97C297.64 438.08 297.66 438.24 297.82 438.34C300.28 439.85 306.6 443.44 312.07 444.23C315.53 444.74 318.79 446.18 321.48 448.41C325.05 451.38 328.2 453.45 331.4 454.94C341.32 459.55 345.12 459.47 346.29 459.22C348.95 458.66 352.04 456.55 352.39 454.14C352.7 451.98 350.63 449.58 346.57 447.39C336.06 441.73 329.02 429.48 326.48 424.48C325.98 423.49 324.97 422.88 323.94 422.87C323.7 422.87 323.47 422.9 323.23 422.97L323.22 422.98Z" fill="#262830"/>
<path d="M305.27 422.52C305.35 423.54 305.73 424.45 306.29 425.23C304.81 432.04 306.41 438.25 308.82 438.8C311.23 439.35 318.99 441.02 323.26 444C327.53 446.98 339.79 455.39 345.96 455.97C352.06 456.55 352.74 453.8 353.64 452.3C355.62 457.03 351.1 460.36 346.75 461.28C342.99 462.07 335.99 459.38 330.55 456.85C326.78 455.1 323.37 452.69 320.17 450.03C318.34 448.51 315.58 446.86 311.8 446.31C305.99 445.46 299.46 441.78 296.76 440.13C295.96 439.64 295.52 438.76 295.59 437.82C295.93 433.41 297.1 420.7 299.26 419.08C301.88 417.12 304.85 417.16 305.28 422.51L305.27 422.52Z" fill="#262830"/>
<path d="M329.65 458.74C326.11 457.1 322.67 454.84 318.82 451.63C316.69 449.87 314.23 448.77 311.49 448.37C305.49 447.5 299 443.95 295.66 441.91C294.19 441.01 293.36 439.38 293.5 437.66C294.89 419.74 297.15 418.05 298 417.41C300.12 415.83 302.27 415.4 304.06 416.2C305.99 417.07 307.1 419.14 307.36 422.34C307.41 422.92 307.62 423.48 307.99 424L308.53 424.76L308.33 425.67C307.02 431.71 308.48 436.26 309.28 436.76L309.66 436.85C312.5 437.5 320.05 439.22 324.45 442.29C338.2 451.9 343.95 453.68 346.15 453.89C350.18 454.27 350.82 453.1 351.49 451.85C351.61 451.63 351.72 451.42 351.84 451.23L353.96 447.69L355.56 451.5C356.47 453.68 356.41 455.87 355.38 457.84C353.75 460.95 350.07 462.72 347.17 463.33C346.58 463.46 345.91 463.52 345.18 463.51C341.6 463.48 336.39 461.89 329.65 458.75V458.74ZM345.75 458.05C341.11 457.61 333.14 453.46 322.05 445.72C318.32 443.11 311.35 441.53 308.73 440.93L308.34 440.84C304.2 439.89 302.84 432.38 304.07 425.64C303.56 424.72 303.26 423.73 303.18 422.69C303.02 420.74 302.51 420.1 302.33 420.02C302.16 419.94 301.49 420.02 300.59 420.68C299.89 421.51 298.53 426.8 297.66 437.99C297.65 438.1 297.67 438.25 297.83 438.35C300.29 439.86 306.62 443.45 312.08 444.24C315.54 444.75 318.79 446.19 321.48 448.42C325.05 451.39 328.2 453.46 331.4 454.95C338.38 458.2 343.81 459.75 346.29 459.23C347.49 458.98 348.61 458.53 349.53 457.97C348.48 458.14 347.23 458.19 345.73 458.04L345.75 458.05Z" fill="#262830"/>
<path d="M238.41 474.27C234.83 475.57 233.41 479.23 232.86 482.35C232.52 484.27 230.12 484.96 228.8 483.52C226.18 480.65 223.22 476.9 223.69 475.07C224.52 471.86 225.19 468.54 225.19 468.54C225.19 468.54 221.88 464.74 218.73 471.15C215.59 477.56 217.26 485 217.24 488.1C217.22 491.2 223.87 495.58 229.04 499.58C234.21 503.58 238.6 511.59 245.08 517.67C251.42 523.62 269.6 521.8 262.9 507.89C256.2 493.97 254.11 492.1 253.15 487.64C252.19 483.18 249.12 470.25 244.08 470.16C244.08 470.16 244.02 472.97 245.95 476.63C245.95 476.63 243.73 472.34 238.39 474.28L238.41 474.27Z" fill="#262830"/>
<path d="M243.67 519.19C240.44 516.17 237.81 512.79 235.26 509.54C232.69 506.26 230.27 503.16 227.78 501.23C226.94 500.58 226.06 499.92 225.17 499.25C219.79 495.21 215.14 491.72 215.16 488.08C215.16 487.45 215.09 486.63 215.01 485.68C214.67 481.73 214.15 475.76 216.86 470.23C218.31 467.28 220.11 465.64 222.22 465.37C224.83 465.04 226.58 466.95 226.77 467.17L227.45 467.95L227.24 468.96C227.24 468.96 226.55 472.34 225.73 475.5C225.73 475.52 230.79 481.99 230.79 481.99C231.67 476.98 234.06 473.63 237.68 472.31C239.35 471.7 240.84 471.57 242.12 471.75C241.98 470.83 241.99 470.25 241.99 470.11L242.04 468.03L244.12 468.07C245.85 468.1 251.11 468.19 255.2 487.2C255.69 489.47 256.48 490.95 258.41 494.53C259.89 497.26 261.9 501.01 264.78 506.98C268.69 515.09 264.73 519.17 262.85 520.55C260.62 522.19 257.5 522.97 254.31 522.94C250.33 522.91 246.23 521.62 243.64 519.19H243.67ZM244.12 477.6C244.12 477.6 244.11 477.58 244.1 477.57C243.98 477.35 242.6 474.97 239.12 476.24C236.95 477.03 235.53 479.21 234.92 482.71C234.63 484.39 233.43 485.72 231.79 486.2C230.15 486.67 228.41 486.2 227.26 484.93C221.55 478.67 221.27 476.1 221.67 474.55C222.16 472.67 222.59 470.76 222.85 469.51C222.82 469.51 222.78 469.51 222.75 469.51C222.59 469.53 221.74 469.77 220.62 472.06C218.42 476.55 218.87 481.82 219.18 485.31C219.28 486.42 219.36 487.38 219.35 488.11C219.34 489.64 224.76 493.72 227.68 495.91C228.58 496.59 229.48 497.26 230.33 497.92C233.23 500.16 235.81 503.46 238.54 506.96C240.99 510.09 243.53 513.33 246.52 516.14C249.72 519.14 256.97 519.68 260.39 517.18C262.68 515.5 262.9 512.68 261.03 508.79C258.19 502.9 256.2 499.2 254.74 496.5C252.73 492.78 251.73 490.91 251.12 488.06C249.86 482.2 248.51 478.36 247.3 475.93L244.12 477.59V477.6Z" fill="#262830"/>
<path d="M225.21 468.54C225.21 468.54 224.53 471.86 223.71 475.07C223.69 475.16 223.71 475.28 223.71 475.38C223.5 475.95 223.28 476.51 223.13 477.09C222.86 478.13 222.74 479.21 222.72 480.28C222.6 485.7 225.32 490.8 229.54 494.2C234.24 498 241.6 504.59 246.43 512.05C253.75 523.35 262.64 517.59 262.64 517.59C262.62 520.51 249.58 521.85 245.12 517.67C238.64 511.59 234.25 503.58 229.08 499.58C223.91 495.58 217.26 491.2 217.28 488.1C217.3 485 215.63 477.56 218.77 471.15C221.91 464.74 225.23 468.54 225.23 468.54H225.21Z" fill="#262830"/>
<path d="M243.67 519.2C240.44 516.18 237.81 512.8 235.26 509.55C232.69 506.27 230.27 503.17 227.78 501.24C226.94 500.59 226.06 499.93 225.18 499.27C219.79 495.23 215.14 491.74 215.17 488.09C215.17 487.46 215.1 486.64 215.02 485.69C214.68 481.74 214.16 475.77 216.87 470.24C218.32 467.29 220.12 465.65 222.23 465.38C224.84 465.04 226.59 466.96 226.78 467.18L227.46 467.96L227.25 468.97C227.25 468.97 226.59 472.2 225.78 475.38V475.43L225.62 476.21C225.44 476.68 225.26 477.15 225.13 477.63C224.92 478.45 224.8 479.37 224.78 480.35C224.68 484.89 226.94 489.47 230.82 492.6C236.04 496.81 243.28 503.42 248.15 510.94C254.09 520.12 260.74 516.32 261.46 515.86L264.72 513.75L264.69 517.63C264.69 518.68 264.16 520.16 261.72 521.2C259.86 522 257.1 522.46 254.22 522.43C250.25 522.4 246.04 521.45 243.65 519.21L243.67 519.2ZM221.68 474.55C222.17 472.68 222.6 470.76 222.86 469.52C222.84 469.52 222.8 469.52 222.77 469.52C222.33 469.58 221.5 470.28 220.62 472.08C218.42 476.57 218.87 481.84 219.18 485.33C219.28 486.44 219.36 487.4 219.35 488.13C219.34 489.66 224.77 493.74 227.69 495.93C228.59 496.61 229.49 497.28 230.34 497.94C233.24 500.18 235.82 503.48 238.55 506.98C241 510.11 243.54 513.35 246.53 516.16C246.84 516.45 247.22 516.71 247.64 516.94C246.63 515.93 245.63 514.71 244.66 513.21C240.09 506.15 233.19 499.87 228.21 495.85C223.33 491.91 220.49 486.08 220.61 480.25C220.64 478.96 220.8 477.73 221.09 476.59C221.22 476.07 221.4 475.56 221.6 475.02L221.68 474.57V474.55Z" fill="#262830"/>
<path d="M247.234 475.426L244.279 476.706L246.546 481.936L249.5 480.656L247.234 475.426Z" fill="#262830"/>
<path d="M248.21 460.3C248.21 460.3 245.84 424.64 249.03 392.22C250.46 377.7 251.22 367.21 251.61 360.05C252.05 352.13 249.85 344.29 245.33 337.77L224.15 307.16C223.87 306.75 224.3 306.24 224.75 306.44C231.1 309.28 255.29 319.27 280.14 319L301.01 321.48C301.4 321.53 301.62 321.93 301.43 322.27C300.04 324.79 295.67 334.14 297.14 349.55C298.88 367.79 302.92 382.17 303.34 406.57C303.34 406.57 315.32 417.12 327.74 405.95C327.74 405.95 327.37 348.04 328.35 324.99C329.33 301.94 329.1 296.58 311.22 285.45C293.34 274.32 252.36 269.72 233.33 269.31C214.3 268.9 180.16 280.97 180.16 280.97L166.69 289.98C166.69 289.98 154.42 317.23 190.71 339.76C190.71 339.76 211.82 356.24 219.89 362.46C220.12 362.64 220.18 362.94 220.02 363.19C218.82 365.13 214.08 373.98 214.17 392.48C214.28 413.66 220.32 430.06 222.03 452.05L222.51 459.56C222.51 459.56 232.6 467.93 248.2 460.28L248.21 460.3Z" fill="#3B529B"/>
<g style="mix-blend-mode:multiply" opacity="0.3">
<path d="M230.57 318.02L218.16 325.73L178.9 301.26L184.34 296.97L216.21 316.4L224.79 311.5L230.57 318.02Z" fill="#3B529B"/>
</g>
<g style="mix-blend-mode:multiply" opacity="0.3">
<path d="M240.24 312.59L293.48 278.74L286.34 276.47L229.01 310.5L240.24 312.59Z" fill="#3B529B"/>
</g>
<path d="M221.18 461.2L220.49 460.62L219.95 452.24C219.21 442.66 217.61 434.07 216.08 425.76C214.06 414.85 212.15 404.55 212.09 392.51C212.01 376.04 215.67 366.92 217.57 363.32C208.9 356.62 189.61 341.57 189.62 341.56C152.21 318.34 164.67 289.43 164.8 289.15L165.05 288.6L179.02 279.25L179.48 279.02C180.89 278.52 214.28 266.89 233.39 267.24C254.42 267.7 294.46 272.56 312.34 283.7C330.99 295.31 331.46 301.35 330.45 325.1C329.49 347.84 329.83 405.38 329.84 405.96V406.9L329.15 407.53C315.52 419.79 302.11 408.28 301.97 408.16L301.28 407.55V406.63C301 391.15 299.26 379.76 297.58 368.73C296.61 362.39 295.7 356.4 295.07 349.77C293.81 336.55 296.73 327.54 298.61 323.31L280.18 321.1C259.53 321.33 239.28 314.59 229.02 310.5L247.07 336.58C251.82 343.45 254.18 351.82 253.72 360.17C253.22 369.25 252.34 380.1 251.13 392.43C247.99 424.29 250.29 459.81 250.31 460.16L250.4 461.56L249.14 462.18C243.8 464.8 239.07 465.67 235.07 465.64C226.61 465.58 221.5 461.45 221.19 461.19L221.18 461.2ZM246.95 392.02C248.16 379.75 249.03 368.96 249.53 359.94C249.94 352.52 247.85 345.07 243.62 338.96L222.44 308.36C221.77 307.4 221.82 306.15 222.57 305.24C223.32 304.34 224.53 304.05 225.61 304.53C232.26 307.5 255.95 317.11 280.4 316.92L301.27 319.4C302.15 319.5 302.91 320.03 303.31 320.82C303.71 321.6 303.69 322.52 303.27 323.28C301.96 325.65 297.81 334.53 299.23 349.36C299.85 355.87 300.75 361.8 301.71 368.08C303.38 379 305.1 390.29 305.42 405.54C307.9 407.36 316.53 412.56 325.65 405C325.61 397.32 325.37 346.11 326.27 324.9C327.25 301.82 326.94 297.69 310.13 287.23C292.32 276.14 250.67 271.78 233.3 271.41C215.74 271 184.21 281.79 181.11 282.87L168.4 291.37C167.04 295.11 160.2 318.37 192 338.13C192 338.13 213.11 354.6 221.17 360.82C222.25 361.65 222.52 363.15 221.8 364.31C220.86 365.83 216.17 374.34 216.26 392.49C216.32 404.15 218.19 414.28 220.18 425C221.74 433.41 223.35 442.12 224.11 451.94L224.53 458.47C226.84 459.98 234.64 464.04 246.03 459.01C245.63 452 244.13 420.59 246.94 392.02H246.95Z" fill="#262830"/>
<path d="M302.88 324.11C305.69 319.59 309.99 317.42 310.03 317.4L308.6 314.52C308.39 314.62 303.43 317.13 300.14 322.41L302.87 324.11H302.88Z" fill="#262830"/>
<path d="M221.23 364.79C224.67 360.56 229.99 360.95 230.21 360.97L230.53 357.41C230.22 357.38 223.12 356.79 218.45 362.53L221.22 364.79H221.23Z" fill="#262830"/>
<path d="M183.23 330.54C198.62 322 192.02 306.19 191.95 306.04L189 307.31C189.23 307.85 194.49 320.61 181.68 327.73L183.24 330.54H183.23Z" fill="#262830"/>
<path d="M226.5 179.47C226.5 179.47 226.86 180.51 227.44 182.31C231.82 196.03 234.33 210.29 235.03 224.67L235.22 228.57C235.24 228.98 235.5 229.32 235.9 229.42C238.42 230.05 245.01 232.7 252.68 238.04C259.68 242.92 278.05 259.95 278.05 259.95L255.06 269.49L205.19 243.11L196.4 209.26L209.46 189.25L221.37 177.48L226.51 179.46L226.5 179.47Z" fill="#958065"/>
<g style="mix-blend-mode:multiply" opacity="0.3">
<path d="M221.37 177.48C221.37 177.48 228.62 210.61 229.39 219.04C230.16 227.47 229.85 234.11 235.24 236.6C240.63 239.09 251.38 249.71 251.38 249.71C251.38 249.71 212.09 248.65 211.53 246.67C210.97 244.69 205.6 226.76 205.74 222.81C205.88 218.86 213.38 181.59 213.38 181.59L221.38 177.48H221.37Z" fill="#3B529B"/>
</g>
<path d="M203.39 244.53L194.14 208.9L207.7 188.12L220.86 175.05L228.16 177.87L228.48 178.79C228.48 178.79 228.85 179.85 229.43 181.68C233.81 195.41 236.39 209.85 237.12 224.58L237.27 227.64C240.26 228.57 246.56 231.24 253.87 236.33C260.92 241.24 278.71 257.72 279.47 258.42L281.86 260.64L254.94 271.8L203.39 244.53ZM251.48 239.76C244.42 234.84 237.99 232.1 235.39 231.45C234.1 231.13 233.18 230.01 233.12 228.67L232.93 224.78C232.23 210.41 229.71 196.34 225.44 182.95C225.19 182.17 224.99 181.53 224.83 181.07L221.87 179.93L211.08 190.6L198.65 209.65L206.98 241.71L255.16 267.2L274.22 259.29C269.03 254.53 256.8 243.48 251.48 239.77V239.76Z" fill="#262830"/>
<path d="M213.51 188.48C214.31 189.16 222.44 183.86 228.5 177.47C228.5 177.47 217.53 142.4 200.56 141.13C183.59 139.86 193.94 158.01 193.94 158.01L213.51 188.48Z" fill="white"/>
<g style="mix-blend-mode:multiply" opacity="0.15">
<path d="M213.51 188.48C214.31 189.16 222.44 183.86 228.5 177.47C228.5 177.47 217.53 142.4 200.56 141.13C183.59 139.86 193.94 158.01 193.94 158.01L213.51 188.48Z" fill="#3B529B"/>
</g>
<path d="M212.16 190.08L192.13 159.05C191.53 158 186.38 148.63 190.01 142.88C191.87 139.94 195.46 138.64 200.72 139.04C218.9 140.4 230.03 175.35 230.5 176.84L230.54 176.98C230.74 177.62 230.58 178.31 230.12 178.8L230.02 178.91C229.89 179.04 218.44 190.56 213.51 190.53C212.98 190.53 212.52 190.39 212.16 190.08ZM200.41 143.22C196.82 142.96 194.52 143.59 193.55 145.12C191.6 148.2 194.57 154.89 195.71 156.89L214.45 186.07C216.56 184.96 221.15 181.76 225.38 177.65C225.84 177.2 225.99 176.53 225.78 175.92C222.1 165.4 212.27 144.1 200.4 143.22H200.41Z" fill="#262830"/>
<path d="M198.71 142.33C198.71 142.33 212.08 146.82 214.71 170.57C217.34 194.32 228.09 244.9 239.42 261.87C239.42 261.87 245.38 271.57 228.65 277.07C211.92 282.57 200.47 283.91 184.34 296.97C168.36 309.92 159.53 314.94 156.64 298.64C153.75 282.33 142.65 243.64 135.92 228.91C134.05 224.82 132.47 217.93 131.16 210.1C127.75 189.74 126.17 163.06 126.17 163.06C126.17 163.06 134.98 149.94 158.51 140.81C174.19 134.72 198.71 142.32 198.71 142.32V142.33Z" fill="white"/>
<g style="mix-blend-mode:multiply" opacity="0.15">
<path d="M201.28 286.61C201.28 286.61 172.55 264.11 160.18 240.98C150.39 222.68 149.6 194.12 149.29 193.74C148.7 193 131.31 196.34 131.31 196.34C131.31 196.34 119.68 210.18 121.3 212.2C122.92 214.22 144.18 266.11 144.38 266.54C144.58 266.97 158.55 308.66 164.21 308.91C166.48 309.01 201.28 286.61 201.28 286.61Z" fill="#3B529B"/>
</g>
<path d="M161.37 310.53C157.9 309.24 155.75 305.57 154.58 299C151.68 282.66 140.56 244.1 134.02 229.78C127.21 214.87 124.21 165.3 124.08 163.19L124.04 162.49L124.43 161.9C124.8 161.34 133.88 148.13 157.75 138.86C173.92 132.58 198.3 140.01 199.33 140.33H199.38C199.98 140.55 214.05 145.55 216.8 170.34C219.3 192.89 229.87 243.79 241.21 260.78C241.31 260.94 243.62 264.78 241.94 269.35C240.4 273.54 236.15 276.81 229.31 279.06C225.93 280.17 222.77 281.11 219.74 282.02C207.72 285.6 198.23 288.42 185.66 298.61C175.74 306.65 169.22 311.08 164.11 311.04C163.16 311.04 162.25 310.87 161.38 310.55L161.37 310.53ZM159.27 142.76C139.4 150.48 130.25 161.19 128.31 163.7C128.72 170.07 131.78 214.79 137.83 228.04C144.66 243 155.73 281.51 158.7 298.27C159.56 303.1 160.95 305.91 162.83 306.61C166.78 308.09 175.33 301.57 183.02 295.34C196.24 284.63 206.57 281.56 218.54 277.99C221.53 277.1 224.66 276.17 228 275.07C233.46 273.27 236.91 270.81 237.99 267.95C238.99 265.29 237.69 263.03 237.69 263.02C225.86 245.3 215.26 194.34 212.64 170.79C210.24 149.13 198.83 144.59 198.06 144.3C196.99 143.98 173.83 137.09 159.27 142.75V142.76Z" fill="#262830"/>
<path d="M174.95 139.94C181.47 144.91 191.5 145.41 196.82 145.28C199.02 145.23 201.06 144.01 202.09 142.06C215.92 115.84 207.6 92.4601 207.6 92.4601L172.43 88.6201L164.44 100.04C162.22 103.21 161.38 107.15 162.22 110.93C163.04 114.62 162.91 120.47 158.51 128.51C146.16 151.03 151.92 156 168.35 169.17C180.01 178.52 199.65 171.53 187.1 144.66L174.95 139.95V139.94Z" fill="#958065"/>
<g style="mix-blend-mode:multiply" opacity="0.3">
<path d="M175.59 142.89C175.93 143.09 190.41 155.13 187.22 168.46C187.22 168.46 191.06 162.87 190.13 157.55C189.2 152.23 189.28 147.05 188.72 146.86C188.16 146.67 180.94 142.26 180.94 142.26L175.58 142.89H175.59Z" fill="#3B529B"/>
</g>
<path d="M167.04 170.8C150.78 157.76 143.35 151.81 156.68 127.51C160.85 119.9 160.89 114.54 160.19 111.39C159.24 107.1 160.16 102.52 162.74 98.84L171.44 86.41L209.14 90.53L209.58 91.77C209.93 92.76 218.05 116.32 203.95 143.05C202.58 145.65 199.87 147.31 196.88 147.38C195.13 147.43 192.91 147.4 190.47 147.19C196.71 163.03 190.89 169.97 187.93 172.29C185.42 174.26 182.25 175.22 178.94 175.2C174.9 175.17 170.64 173.69 167.06 170.81L167.04 170.8ZM173.68 141.6L176.21 138.27C182.21 142.84 191.66 143.31 196.77 143.18C198.25 143.14 199.58 142.34 200.24 141.08C211.69 119.36 207.4 99.44 206 94.38L173.44 90.82L166.16 101.22C164.26 103.94 163.57 107.31 164.27 110.46C165.13 114.32 165.14 120.76 160.35 129.5C148.72 150.72 153.57 154.62 169.66 167.52C174.69 171.55 181.28 172.17 185.34 168.98C190.22 165.15 190.32 156.99 185.66 146.5C181.49 145.7 177.16 144.23 173.69 141.59L173.68 141.6Z" fill="#262830"/>
<path d="M171.85 127.45C168.59 126.82 165.74 124.86 164.02 122.02C162.64 119.74 161.48 116.95 161.95 114.44C162.97 109.01 168.29 110.36 170.54 113.74L172.47 116.8L171.85 127.45Z" fill="#958065"/>
<path d="M171.46 129.5L172.25 125.39C169.56 124.87 167.22 123.25 165.81 120.93C164.34 118.5 163.71 116.39 164.01 114.82C164.23 113.67 164.66 113.02 165.28 112.9C166.21 112.73 167.82 113.42 168.81 114.9L170.72 117.92C170.72 117.92 173.42 116.31 174.26 115.68C177.64 113.17 178.39 109.83 178.39 109.83C176.51 107 167.22 108.23 164.46 108.8C162.1 109.28 160.45 111.19 159.91 114.05C159.42 116.69 160.2 119.73 162.25 123.1C164.27 126.43 167.63 128.76 171.47 129.5H171.46Z" fill="#262830"/>
<path d="M221.84 88.51C222.11 85.98 220.93 83.65 218.99 82.28V81.72C220.65 80.64 221.83 78.89 222.05 76.78C222.43 73.14 219.85 69.88 216.25 69.38C216.09 69.09 215.94 68.79 215.77 68.5C216.03 67.89 216.24 67.24 216.31 66.55C216.7 62.83 214 59.49 210.28 59.1C209.51 59.02 208.76 59.1 208.04 59.27C207.85 59.09 207.66 58.92 207.46 58.74C207.81 55.04 205.13 51.74 201.43 51.35C200.09 51.21 198.81 51.48 197.69 52.04C197.2 51.78 197.04 51.69 196.55 51.43C196.18 48.37 193.74 45.85 190.54 45.51C188.16 45.26 185.95 46.28 184.55 48.01H184.19C183.1 46.5 181.42 45.44 179.43 45.23C176.69 44.94 174.18 46.33 172.87 48.56C172.12 48.71 171.37 48.89 170.62 49.09C169.67 48.37 168.53 47.88 167.27 47.74C163.57 47.35 160.26 50.03 159.84 53.72C159.22 54 159 54.1 158.38 54.39C156.95 53.46 155.18 52.98 153.14 53.47C151.12 53.95 149.38 55.38 148.53 57.27C147.68 59.16 147.81 61.14 148.53 62.77C148.22 63.11 147.93 63.47 147.63 63.82C147.41 63.78 147.21 63.71 146.98 63.69C143.26 63.3 139.92 66 139.53 69.72C139.41 70.9 139.62 72.03 140.05 73.05C137.54 73.83 135.6 76.04 135.31 78.82C135.13 80.56 135.64 82.21 136.6 83.52C134.52 84.49 132.97 86.48 132.72 88.93C132.41 91.86 134.03 94.53 136.55 95.73C136.57 96.04 136.58 96.08 136.6 96.39C134.62 97.39 133.16 99.34 132.91 101.72C132.52 105.44 135.22 108.78 138.94 109.17C138.97 109.17 139 109.17 139.03 109.17C138.95 109.47 138.87 109.77 138.84 110.09C138.45 113.81 141.15 117.15 144.87 117.54C145.55 117.61 146.21 117.54 146.85 117.43C146.8 120.9 149.37 123.9 152.89 124.27C154.46 124.44 155.95 124.03 157.19 123.24C159.8 124.18 162.06 124.65 163.51 124.88C164.03 124.96 164.39 124.36 164.06 123.95C163.23 122.92 162.02 121.03 160.69 117.69C160.52 117.27 160.42 116.9 160.29 116.5C160.2 115.92 160.04 115.37 159.81 114.85C158.75 110.32 159.49 109.24 162.17 106.82C163.77 105.37 163.29 105.44 165.01 106.44C166.44 107.27 169.31 103.57 169.97 102.05C171.24 99.09 176.41 93.2 183.91 90.85C192.12 88.27 198.6 94.65 202.63 97.5C203.27 100.59 206.01 103 209.47 102.9C211.38 102.84 213.17 101.84 214.39 100.37C216.12 98.29 216.24 96.32 215.81 94.55C218.94 94.24 221.54 91.77 221.88 88.51H221.84Z" fill="#262830"/>
<path d="M171.22 113.65C175.975 113.65 179.83 109.795 179.83 105.04C179.83 100.285 175.975 96.43 171.22 96.43C166.465 96.43 162.61 100.285 162.61 105.04C162.61 109.795 166.465 113.65 171.22 113.65Z" fill="#262830"/>
<path d="M182.87 104.69C188.15 104.69 192.43 100.41 192.43 95.13C192.43 89.8502 188.15 85.57 182.87 85.57C177.59 85.57 173.31 89.8502 173.31 95.13C173.31 100.41 177.59 104.69 182.87 104.69Z" fill="#262830"/>
<path d="M174.72 104.17C178.586 104.17 181.72 101.036 181.72 97.17C181.72 93.304 178.586 90.17 174.72 90.17C170.854 90.17 167.72 93.304 167.72 97.17C167.72 101.036 170.854 104.17 174.72 104.17Z" fill="#262830"/>
<path d="M208.88 102.95C212.746 102.95 215.88 99.816 215.88 95.95C215.88 92.084 212.746 88.95 208.88 88.95C205.014 88.95 201.88 92.084 201.88 95.95C201.88 99.816 205.014 102.95 208.88 102.95Z" fill="#262830"/>
<path d="M197.67 99.83C203.005 99.83 207.33 95.5051 207.33 90.17C207.33 84.8349 203.005 80.51 197.67 80.51C192.335 80.51 188.01 84.8349 188.01 90.17C188.01 95.5051 192.335 99.83 197.67 99.83Z" fill="#262830"/>
<path d="M152.72 125.73C149.02 125.34 146.15 122.58 145.51 119.04C140.64 119.07 137.06 114.95 137.34 110.32C133.53 109.19 131.02 105.56 131.44 101.57C131.67 99.4 132.73 97.46 134.37 96.1C132.17 94.38 130.95 91.62 131.25 88.78C131.5 86.43 132.71 84.36 134.59 83.01C133.95 81.66 133.69 80.16 133.85 78.67C134.14 75.89 135.82 73.48 138.24 72.22C138.03 71.34 137.98 70.45 138.07 69.56C138.53 65.16 142.39 61.93 146.76 62.2C146.48 61.21 146.39 60.2 146.5 59.19C146.98 54.67 151.04 51.38 155.56 51.86C156.55 51.96 157.51 52.26 158.41 52.73C158.45 52.71 158.49 52.69 158.53 52.66C159.44 48.6 163.21 45.85 167.41 46.29C168.64 46.42 169.82 46.84 170.89 47.51C171.25 47.42 171.6 47.34 171.96 47.26C173.67 44.82 176.58 43.46 179.57 43.78C181.39 43.97 183.09 44.78 184.4 46.05C186.11 44.55 188.37 43.82 190.67 44.06C194.16 44.43 197.04 47.02 197.83 50.38C199.03 49.93 200.3 49.76 201.57 49.89C205.63 50.32 208.71 53.67 208.93 57.63C214.13 57.15 218.29 61.68 217.76 66.7C217.71 67.17 217.61 67.65 217.46 68.14C221.33 69.18 223.94 72.86 223.51 76.94C223.3 78.9 222.39 80.7 220.96 82.04C222.68 83.78 223.56 86.21 223.3 88.66C222.95 92.01 220.57 94.77 217.43 95.7C217.46 96.13 217.45 96.55 217.4 96.98C216.92 101.5 213.96 103.37 209.44 102.9C206.09 102.55 206.69 97 205.77 93.77C202.11 91.31 188.76 83.06 181.35 85.38C172.78 88.07 168.33 97.34 165.78 102.58C164.93 104.33 164.29 105.63 163.78 106.1C161.12 108.5 160.38 110.94 161.22 114.52C161.42 114.92 161.61 115.59 161.72 116.28L161.79 116.43C161.87 116.66 161.94 116.9 162.04 117.15C163.32 120.38 164.46 122.13 165.18 123.03C165.72 123.7 165.79 124.61 165.37 125.35C164.95 126.09 168.02 127.57 167.18 127.46C165.8 127.24 159.47 129.51 157.34 124.86C155.91 125.6 154.33 125.91 152.74 125.74L152.72 125.73ZM148.33 115.67L148.3 117.46C148.26 120.23 150.29 122.54 153.03 122.83C154.2 122.95 155.36 122.67 156.4 122.02L157 121.64L157.67 121.88C159.14 122.41 160.49 122.78 161.63 123.04C160.83 121.72 160.06 120.11 159.31 118.23C159.18 117.92 159.08 117.62 158.99 117.32L158.88 116.97C158.75 116.29 158.63 115.85 158.45 115.44C157.29 110.61 158.39 107.04 161.81 103.94C161.81 103.94 163.38 104.88 165.89 106.72C166.9 103.43 171.76 94.87 180.99 91.97C189.85 89.18 199.42 95.05 203.58 98L204.16 98.89L204.02 97.19C204.5 99.47 206.36 101.17 208.64 101.41C211.56 101.72 214.18 99.59 214.49 96.68C214.55 96.12 214.51 95.53 214.35 94.89L213.96 93.26L215.63 93.09C218.13 92.84 220.13 90.85 220.39 88.35C220.59 86.46 219.73 84.59 218.14 83.47L217.44 82.98L217.6 80.89L218.21 80.49C219.56 79.6 220.43 78.19 220.6 76.63C220.9 73.78 218.9 71.23 216.05 70.82L215.32 70.72L214.97 70.06C214.82 69.78 214.67 69.5 214.51 69.22L214.14 68.59L214.43 67.92C214.67 67.35 214.81 66.86 214.86 66.39C215.17 63.47 213.04 60.85 210.13 60.54C209.59 60.48 209.01 60.53 208.37 60.68L207.63 60.85L205.93 59.33L206 58.59C206.28 55.7 204.15 53.09 201.27 52.79C200.27 52.69 199.26 52.87 198.34 53.34L197.68 53.67L197.02 53.34C196.81 53.23 196.59 53.14 196.38 53.04L195.19 52.48L195.1 51.67C194.83 49.21 192.84 47.23 190.38 46.97C188.58 46.78 186.82 47.52 185.67 48.95L185.16 49.58L183.72 49.41L183 48.87C182.09 47.62 180.77 46.85 179.27 46.69C177.2 46.47 175.18 47.5 174.13 49.31L173.8 49.87L173.16 50C172.43 50.15 171.71 50.32 170.99 50.51L170.31 50.69L169.75 50.26C168.95 49.66 168.07 49.3 167.12 49.2C164.25 48.9 161.7 50.91 161.31 53.78L161.21 54.49L160.6 54.85C160.14 55.12 159.68 55.39 159.23 55.68L158.43 56.19L157.64 55.67C154.25 53.4 149.82 55.78 149.43 59.52C149.34 60.41 149.49 61.32 149.88 62.2L150.26 63.07L149.62 63.77C149.43 63.98 149.25 64.19 149.07 64.4L148.18 65.43L146.84 65.15C143.92 64.84 141.3 66.97 140.99 69.88C140.9 70.74 141.04 71.62 141.41 72.49L142.04 73.98L140.5 74.46C138.46 75.09 137 76.87 136.78 78.99C136.64 80.28 137.01 81.59 137.8 82.67L138.85 84.1L137.25 84.85C135.53 85.65 134.39 87.24 134.2 89.09C133.97 91.31 135.18 93.45 137.21 94.43L137.96 94.79L138.19 97.25L137.29 97.7C135.66 98.52 134.57 100.09 134.39 101.89C134.08 104.81 136.21 107.43 139.12 107.74L140.87 107.84L140.48 109.54C140.4 109.87 140.34 110.06 140.32 110.27C140.01 113.19 142.14 115.81 145.06 116.12C145.52 116.17 146.02 116.14 146.61 116.03L148.37 115.69L148.33 115.67Z" fill="#262830"/>
<path d="M176.32 173.03L171.15 181.47C170.78 182.07 170.03 182.28 169.42 181.93C166.16 180.08 156.26 174.02 150.25 165.34C142.98 154.83 140.13 141.4 154.4 133.6C154.4 133.6 153.28 144.72 158.17 153.34C163.06 161.96 176.31 173.03 176.31 173.03H176.32Z" fill="#262830"/>
<path d="M168.4 183.76C164.47 181.54 154.68 175.42 148.54 166.54C143.22 158.85 141.13 151.07 142.66 144.65C143.93 139.31 147.54 134.98 153.41 131.77L156.89 129.87L156.49 133.82C156.48 133.93 155.49 144.37 160 152.31C164.65 160.49 177.53 171.32 177.66 171.42L179.04 172.58L172.93 182.56C172.29 183.62 171.17 184.2 170.02 184.19C169.47 184.19 168.91 184.04 168.39 183.75L168.4 183.76ZM156.36 154.38C153.05 148.55 152.3 141.77 152.21 137.52C149.3 139.79 147.46 142.5 146.72 145.62C145.47 150.87 147.34 157.46 151.98 164.16C157.38 171.98 166.27 177.67 169.77 179.72L173.6 173.46C170.02 170.33 160.48 161.64 156.36 154.38Z" fill="#262830"/>
<path d="M197.24 169.64C195.7 168.79 192.4 167.11 189.74 166.71C189.74 166.71 192.7 153.07 185.93 144.44C185.93 144.44 191.48 146.03 196.21 145.59C196.21 145.59 202.44 156.23 198.42 169.16C198.27 169.65 197.69 169.89 197.24 169.64Z" fill="#262830"/>
<path d="M196.23 171.47C194.98 170.78 191.81 169.13 189.44 168.78L187.23 168.46L187.7 166.27C187.73 166.14 190.38 153.5 184.29 145.73L180.31 140.65L186.51 142.43C186.51 142.43 191.72 143.91 196.02 143.51L197.35 143.38L198.02 144.53C198.29 145 204.67 156.12 200.42 169.77C200.16 170.61 199.54 171.29 198.72 171.62C198.36 171.76 197.98 171.84 197.61 171.83C197.13 171.83 196.66 171.71 196.23 171.47ZM190.13 147.43C193.09 154.06 192.59 161.58 192.12 165.12C193.81 165.63 195.5 166.39 196.84 167.06C199.08 158.14 196.23 150.52 194.96 147.75C193.29 147.78 191.61 147.63 190.13 147.43Z" fill="#262830"/>
<path d="M192.08 196.74L196.24 196.28C194.69 182.36 189.86 169.47 189.66 168.93L185.75 170.41C185.8 170.54 190.6 183.37 192.09 196.75L192.08 196.74Z" fill="#262830"/>
<path d="M291.68 273.59L215.87 316.6C215.71 316.69 215.52 316.69 215.37 316.6L163.77 285.33C163.45 285.14 163.45 284.67 163.77 284.48L239.02 240.9C239.18 240.81 239.37 240.81 239.52 240.9L291.69 272.74C292.01 272.94 292 273.4 291.68 273.59Z" fill="#8593A1"/>
<path d="M214.28 318.38L162.67 287.11C161.89 286.64 161.42 285.78 161.43 284.87C161.44 283.96 161.94 283.12 162.72 282.66L237.98 239.07C238.79 238.61 239.8 238.62 240.61 239.11L292.77 270.95C293.55 271.42 294.03 272.28 294.01 273.2C294 274.11 293.49 274.96 292.7 275.41L216.89 318.42C216.49 318.65 216.04 318.76 215.59 318.76C215.14 318.76 214.68 318.63 214.27 318.39L214.28 318.38ZM239.25 243.17L167.16 284.92L215.65 314.31L288.29 273.1L239.25 243.17Z" fill="#262830"/>
<path d="M146.23 213.85C146.23 213.85 149.44 223.54 151.17 239.23C152.58 252.04 152.36 263.18 152.35 263.38C152.58 263.34 168.88 260.46 182.93 264.94C197.08 269.45 216.24 267.45 216.24 267.45C216.24 267.45 226.1 260.27 230.38 260.71C234.67 261.15 232.49 265.31 232.49 265.31C232.49 265.31 252.81 272.43 245.26 278.87C237.7 285.31 216.14 280.9 216.14 280.9C216.14 280.9 165.47 285.99 138.7 281.95C137.55 281.78 136.57 281.06 136.03 280.03C133.11 274.45 122.32 253.73 119.45 216.36C116.01 171.66 146.34 209.01 146.34 209.01L146.24 213.84L146.23 213.85Z" fill="#958065"/>
<g style="mix-blend-mode:multiply" opacity="0.3">
<path d="M216 277.69C205.94 276.29 167.15 280.1 148.65 275.59C139.39 273.33 131.14 261.26 126.86 257.36C129.28 263.59 134.96 277.99 136.03 280.04C136.57 281.07 137.55 281.78 138.7 281.96C165.47 286 223.56 281.84 223.56 281.84C223.56 281.84 232.22 279.96 216 277.7V277.69Z" fill="#3B529B"/>
</g>
<path d="M138.39 284.02C136.59 283.75 135.02 282.62 134.18 281C122.7 259.07 118.7 233.84 117.37 216.53C116.3 202.68 118.33 194.93 123.57 192.84C132.62 189.24 146.42 205.8 147.96 207.7L148.45 208.3L148.34 213.54C148.94 215.45 151.69 224.73 153.26 238.99C154.31 248.5 154.47 256.91 154.47 260.96C159.71 260.32 172.29 259.34 183.57 262.95C195.83 266.86 212.3 265.7 215.49 265.42C218.01 263.63 226.08 258.2 230.6 258.64C233.01 258.89 234.12 260.06 234.63 261.01C235.18 262.04 235.22 263.13 235.08 264.06C239.32 265.74 248 269.76 248.95 274.86C249.22 276.29 249.03 278.42 246.62 280.47C238.81 287.12 219.48 283.69 216.04 283.02C212.63 283.35 186.95 285.79 163.21 285.61C154.22 285.54 145.51 285.1 138.39 284.03V284.02ZM216.56 278.85C222.28 280.02 238.36 282.01 243.9 277.28C244.97 276.37 244.87 275.82 244.83 275.62C244.32 272.88 236.75 269.03 231.8 267.29L230.48 266.82C229.99 266.64 229.77 266.08 230 265.62L230.63 264.37C230.86 263.91 231.14 263.43 230.95 263.02C230.95 263.02 230.8 262.75 230.16 262.81C227.7 263.03 221.29 266.37 217.46 269.16L217.01 269.49L216.45 269.55C215.65 269.64 196.68 271.54 182.29 266.95C168.86 262.67 152.88 265.42 152.71 265.45L150.16 265.88L150.25 263.29C150.25 263.19 150.48 252.1 149.08 239.46C147.39 224.21 144.26 214.61 144.23 214.51L144.12 214.17L144.21 209.76C138.68 203.14 129.43 195 125.1 196.73C123.62 197.32 120.3 200.4 121.51 216.22C122.81 233.14 126.71 257.78 137.86 279.08C138.09 279.52 138.5 279.82 138.99 279.9C165.2 283.85 215.41 278.89 215.92 278.84L216.23 278.81L216.54 278.87L216.56 278.85Z" fill="#262830"/>
<path d="M148.93 213.86C150.64 211.76 151.42 209.05 151.35 206.34C151.08 196 149.16 164.18 135.99 158.26C120.23 151.17 114.5 198.6 115.22 210.52C115.93 222.45 142.71 217.13 146.18 215.97C147.23 215.62 148.16 214.79 148.93 213.85V213.86Z" fill="white"/>
<path d="M117.04 217.41C114.65 215.8 113.3 213.46 113.14 210.66C112.63 202.1 115.94 165.28 127.72 157.15C130.53 155.21 133.69 154.95 136.85 156.37C150.79 162.64 153.1 193.38 153.44 206.3C153.53 209.64 152.5 212.79 150.55 215.19C149.4 216.6 148.16 217.54 146.85 217.97C145.33 218.48 137.31 220.34 129.47 220.28C124.78 220.24 120.16 219.52 117.04 217.41ZM130.1 160.59C120.91 166.93 116.71 200.29 117.31 210.41C117.4 211.93 118.06 213.05 119.38 213.95C125.39 218 141.94 215.2 145.51 214.01C146.04 213.83 146.67 213.31 147.3 212.55C148.62 210.93 149.32 208.75 149.26 206.41C148.74 186.9 144.75 164.51 135.13 160.18C134.35 159.83 133.62 159.65 132.91 159.65C131.94 159.65 131.02 159.95 130.09 160.59H130.1Z" fill="#262830"/>
<path d="M215.89 316.11L242 257.65C242 257.65 242.05 257.57 242.09 257.55L319.99 212.13C320.18 212.02 320.4 212.22 320.31 212.42L292.44 273.12C292.44 273.12 292.39 273.2 292.35 273.22L216.22 316.41C216.03 316.52 215.81 316.32 215.9 316.12L215.89 316.11Z" fill="#8593A1"/>
<path d="M213.37 316.64L240.09 256.81L240.46 256.08L318.94 210.32C319.82 209.8 320.92 209.91 321.67 210.6L322.86 211.89L294.36 273.95L293.99 274.69L217.25 318.22L215.67 318.93L213.38 316.63L213.37 316.64ZM315.95 216.9L243.67 259.05L220.12 311.78L290.79 271.69L315.95 216.9Z" fill="#262830"/>
<path d="M272.32 268.29C269.05 272.38 264.89 274.49 263.03 273C261.17 271.51 262.32 266.99 265.59 262.9C268.86 258.81 273.02 256.7 274.88 258.19C276.74 259.68 275.59 264.2 272.32 268.29Z" fill="white"/>
<path d="M261.72 274.63C258.44 272 260.36 266.08 263.96 261.59C267.56 257.1 272.91 253.93 276.19 256.55C277.1 257.28 278.5 259.06 277.55 262.77C277 264.96 275.71 267.38 273.95 269.59C271.24 272.97 267.54 275.6 264.48 275.58C263.47 275.58 262.53 275.28 261.72 274.63ZM270.68 266.98C273.51 263.44 273.98 260.35 273.58 259.83C272.97 259.54 270.05 260.67 267.22 264.21C264.39 267.75 263.92 270.84 264.32 271.36C264.93 271.65 267.85 270.52 270.68 266.98Z" fill="#262830"/>
<path d="M320.88 249.96L339.64 249.2C340.23 249.18 340.77 248.9 341.13 248.44C341.49 247.98 341.63 247.38 341.51 246.81L338.92 234.27C338.78 233.59 338.29 233.03 337.63 232.8C337.05 232.6 336.42 232.67 335.9 233C335.83 233.04 335.77 233.09 335.7 233.15L319.54 246.45C319.28 246.66 319.09 246.93 318.97 247.22C318.78 247.68 318.76 248.21 318.95 248.7C319.26 249.5 320.03 250.01 320.89 249.98L320.88 249.96ZM326.64 245.74L335.68 238.3L337.13 245.32L326.64 245.74Z" fill="#3B529B"/>
<path d="M116.41 267.38L99.4699 259.28C98.9399 259.03 98.3299 259.02 97.7999 259.26C97.2699 259.5 96.8699 259.96 96.6999 260.52L93.1299 272.82C92.9399 273.49 93.1099 274.22 93.5799 274.73C93.9999 275.18 94.5899 275.41 95.1999 275.36C95.2799 275.36 95.3599 275.34 95.4499 275.33L115.95 271.12C116.28 271.05 116.57 270.91 116.82 270.71C117.2 270.39 117.47 269.93 117.53 269.42C117.63 268.57 117.19 267.75 116.41 267.38ZM109.35 268.41L97.8799 270.76L99.8799 263.88L109.35 268.41Z" fill="#262830"/>
<path d="M340.62 222.41C343.85 222.05 346.18 219.13 345.81 215.9C345.44 212.67 342.53 210.34 339.3 210.71C336.07 211.08 333.74 213.99 334.11 217.22C334.48 220.45 337.39 222.78 340.62 222.41ZM339.69 214.14C341.03 213.99 342.24 214.96 342.39 216.29C342.54 217.62 341.57 218.84 340.24 218.99C338.91 219.14 337.69 218.18 337.54 216.84C337.39 215.5 338.36 214.29 339.69 214.14Z" fill="#FF6000"/>
<path d="M105.96 249.03C109.19 248.67 111.52 245.75 111.15 242.52C110.78 239.29 107.87 236.96 104.64 237.33C101.41 237.7 99.08 240.61 99.45 243.84C99.82 247.07 102.73 249.4 105.96 249.03ZM105.03 240.75C106.37 240.6 107.58 241.57 107.73 242.9C107.88 244.23 106.91 245.45 105.58 245.6C104.25 245.75 103.03 244.79 102.88 243.45C102.73 242.11 103.7 240.9 105.03 240.75Z" fill="white"/>
<path d="M248.29 181.04C251.52 180.68 253.85 177.76 253.48 174.53C253.12 171.3 250.2 168.97 246.97 169.34C243.74 169.71 241.41 172.62 241.78 175.85C242.15 179.08 245.06 181.41 248.29 181.04ZM247.37 172.76C248.71 172.61 249.92 173.58 250.07 174.91C250.22 176.24 249.25 177.46 247.92 177.61C246.59 177.76 245.37 176.8 245.22 175.46C245.07 174.12 246.04 172.91 247.37 172.76Z" fill="#3B529B"/>
<path d="M354.96 230.55C356.324 230.55 357.43 229.444 357.43 228.08C357.43 226.716 356.324 225.61 354.96 225.61C353.596 225.61 352.49 226.716 352.49 228.08C352.49 229.444 353.596 230.55 354.96 230.55Z" fill="white"/>
<path d="M268.1 194.8C269.464 194.8 270.57 193.694 270.57 192.33C270.57 190.966 269.464 189.86 268.1 189.86C266.736 189.86 265.63 190.966 265.63 192.33C265.63 193.694 266.736 194.8 268.1 194.8Z" fill="white"/>
<path d="M82.76 247.72C84.1242 247.72 85.23 246.614 85.23 245.25C85.23 243.886 84.1242 242.78 82.76 242.78C81.3959 242.78 80.29 243.886 80.29 245.25C80.29 246.614 81.3959 247.72 82.76 247.72Z" fill="#FF6000"/>
<path d="M249.68 205.53C251.044 205.53 252.15 204.424 252.15 203.06C252.15 201.696 251.044 200.59 249.68 200.59C248.316 200.59 247.21 201.696 247.21 203.06C247.21 204.424 248.316 205.53 249.68 205.53Z" fill="#262830"/>
<path d="M72.53 224.51C72.17 224.51 71.81 224.41 71.49 224.23C71.01 223.95 70.6699 223.51 70.5199 222.97C70.3799 222.43 70.45 221.87 70.73 221.39L78.64 207.7C78.92 207.22 79.37 206.88 79.9 206.73C80.08 206.68 80.26 206.66 80.44 206.66C80.8 206.66 81.16 206.76 81.48 206.94L89.22 211.41L97.4499 197.16C97.8199 196.52 98.51 196.12 99.25 196.12C99.61 196.12 99.97 196.22 100.28 196.4L107.75 200.71L114.07 189.76C114.44 189.12 115.13 188.72 115.87 188.72C116.23 188.72 116.59 188.82 116.9 189L123.55 192.84L131.78 178.59C132.06 178.11 132.51 177.77 133.04 177.62C133.22 177.57 133.4 177.55 133.58 177.55C133.94 177.55 134.3 177.65 134.62 177.83C135.61 178.4 135.95 179.68 135.38 180.67L126.11 196.73C125.74 197.37 125.05 197.77 124.31 197.77C123.95 197.77 123.59 197.67 123.28 197.49L116.63 193.65L110.31 204.6C109.94 205.24 109.25 205.64 108.51 205.64C108.15 205.64 107.79 205.54 107.47 205.36L100 201.05L91.7699 215.3C91.4899 215.78 91.04 216.12 90.51 216.27C90.33 216.32 90.15 216.34 89.97 216.34C89.61 216.34 89.25 216.24 88.94 216.06L81.1999 211.59L74.33 223.48C73.96 224.12 73.27 224.52 72.53 224.52V224.51Z" fill="#FF6000"/>
</g>
</g>
<defs>
<clipPath id="clip0_2534_1562">
<rect width="417" height="479" fill="white"/>
</clipPath>
<clipPath id="clip1_2534_1562">
<rect width="400" height="480" fill="white"/>
</clipPath>
</defs>
</svg>
