<svg width="417" height="479" viewBox="0 0 417 479" fill="none" xmlns="http://www.w3.org/2000/svg">
<g clip-path="url(#clip0_2534_1758)">
<g clip-path="url(#clip1_2534_1758)">
<path d="M352.67 103.42L369.99 95.37C370.53 95.12 370.93 94.64 371.09 94.07C371.25 93.5 371.15 92.88 370.81 92.39L363.46 81.62C363.06 81.04 362.38 80.7 361.67 80.74C361.05 80.77 360.48 81.09 360.12 81.6C360.07 81.67 360.03 81.74 359.99 81.82L350.01 100.64C349.85 100.94 349.77 101.27 349.77 101.59C349.77 102.1 349.96 102.6 350.33 102.99C350.93 103.62 351.86 103.8 352.65 103.43L352.67 103.42ZM362.01 86.68L366.12 92.7L356.43 97.2L362.01 86.67V86.68Z" fill="#3B529B"/>
<path d="M62.4899 199.99C62.5599 200.04 62.6299 200.08 62.7099 200.11L81.8799 209.41C82.1899 209.56 82.5099 209.62 82.8399 209.61C83.3499 209.59 83.8399 209.38 84.2099 209C84.8199 208.38 84.9599 207.44 84.5699 206.66L75.9099 189.63C75.6399 189.1 75.1499 188.71 74.5699 188.58C73.9899 188.44 73.3799 188.57 72.8999 188.92L62.3999 196.65C61.8299 197.07 61.5199 197.76 61.5799 198.47C61.6399 199.09 61.9699 199.64 62.4899 199.98V199.99ZM73.3699 193.61L78.2199 203.13L67.4999 197.93L73.3699 193.61Z" fill="#3B529B"/>
<path d="M353.89 113.91C353.15 117.07 355.11 120.25 358.27 120.99C361.43 121.73 364.61 119.77 365.35 116.61C366.09 113.45 364.13 110.27 360.97 109.53C357.81 108.79 354.63 110.75 353.89 113.91ZM362 115.82C361.69 117.13 360.38 117.94 359.07 117.63C357.76 117.32 356.95 116.01 357.26 114.7C357.57 113.39 358.88 112.58 360.19 112.89C361.5 113.2 362.31 114.51 362 115.82Z" fill="#3B529B"/>
<path d="M156.74 92.41C159.9 93.15 163.08 91.19 163.82 88.03C164.56 84.87 162.6 81.69 159.44 80.95C156.28 80.21 153.1 82.17 152.36 85.33C151.62 88.49 153.58 91.67 156.74 92.41ZM155.72 86.12C156.03 84.81 157.34 84 158.65 84.31C159.96 84.62 160.77 85.93 160.46 87.24C160.15 88.55 158.84 89.36 157.53 89.05C156.22 88.74 155.41 87.43 155.72 86.12Z" fill="#3B529B"/>
<path d="M377.71 108.52C376.38 108.21 375.05 109.03 374.74 110.36C374.43 111.69 375.25 113.02 376.58 113.33C377.91 113.64 379.24 112.82 379.55 111.49C379.86 110.16 379.04 108.83 377.71 108.52Z" fill="#3B529B"/>
<path d="M170 102.7C170.31 101.37 169.49 100.04 168.16 99.73C166.83 99.42 165.5 100.24 165.19 101.57C164.88 102.9 165.7 104.23 167.03 104.54C168.36 104.85 169.69 104.03 170 102.7Z" fill="#3B529B"/>
<path d="M74.2999 220.33C73.9899 221.66 74.8099 222.99 76.1399 223.3C77.4699 223.61 78.7999 222.79 79.1099 221.46C79.4199 220.13 78.5998 218.8 77.2698 218.49C75.9398 218.18 74.6099 219 74.2999 220.33Z" fill="#3B529B"/>
<path d="M236.29 134.6C237.66 134.6 238.76 133.49 238.76 132.13C238.76 130.77 237.65 129.66 236.29 129.66C234.93 129.66 233.82 130.77 233.82 132.13C233.82 133.49 234.93 134.6 236.29 134.6Z" fill="#3B529B"/>
<path d="M370.41 137.61L342.73 121.63L342.81 121.19C342.81 121.19 342.83 121.07 342.83 121.06C342.93 120.45 343.01 119.82 343.09 119.19L343.1 119.08C343.17 118.5 343.23 117.92 343.28 117.33L343.3 117C343.32 116.8 343.33 116.6 343.34 116.4L343.37 115.99C343.38 115.81 343.4 115.63 343.41 115.45C343.41 115.31 343.42 115.17 343.42 115.04L343.47 113.55C343.47 113.27 343.47 112.99 343.47 112.7V111.63C343.47 110.98 343.44 110.32 343.41 109.62L343.39 109.33C343.36 108.78 343.34 108.23 343.29 107.68L343.17 106.28C343.15 106.06 343.13 105.84 343.11 105.62L343.05 105.08C343.02 104.79 342.99 104.5 342.95 104.21L342.76 102.74C342.72 102.45 342.68 102.16 342.63 101.88L342.57 101.45C342.53 101.18 342.48 100.91 342.43 100.64L342.21 99.35C342.08 98.67 341.95 97.98 341.81 97.37C341.81 97.33 341.79 97.28 341.78 97.23L341.75 97.07C341.62 96.47 341.48 95.86 341.34 95.26L341.02 93.97C340.96 93.75 340.91 93.53 340.85 93.31L340.31 91.36C340.23 91.09 340.15 90.82 340.07 90.55L339.74 89.45C339.54 88.8 339.33 88.15 339.12 87.53C339.12 87.53 339.09 87.43 339.08 87.42L338.85 86.75C338.69 86.29 338.53 85.83 338.36 85.36L338.27 85.14C338.16 84.84 338.04 84.54 337.93 84.24L337.68 83.57C337.6 83.36 337.52 83.15 337.44 82.94L337.37 82.77C336.95 81.72 336.51 80.67 336.05 79.63L335.94 79.37C335.91 79.3 335.87 79.22 335.8 79.07C335.14 77.6 334.44 76.15 333.7 74.69L333.41 74.13C332.73 72.83 332.15 71.77 331.57 70.75C331.12 69.98 330.67 69.21 330.2 68.45C330.2 68.44 330.15 68.37 330.14 68.36C329.8 67.82 329.46 67.28 329.11 66.75L328.93 66.47C328.93 66.47 328.89 66.4 328.87 66.37C328.45 65.73 328.02 65.09 327.59 64.47L326.91 63.52C326.7 63.22 326.49 62.93 326.28 62.64L325.32 61.37C325.18 61.18 325.04 61 324.9 60.82L324.66 60.52C324.49 60.3 324.31 60.08 324.13 59.86L323.82 59.48C323.7 59.33 323.58 59.18 323.46 59.04L323.14 58.66C322.91 58.38 322.67 58.11 322.44 57.84L322.26 57.63C322.16 57.51 322.05 57.38 321.94 57.26L321.55 56.83C321.31 56.57 321.08 56.31 320.84 56.05L319.93 55.08C319.7 54.84 319.46 54.6 319.22 54.35L318.85 53.97C318.72 53.84 318.59 53.72 318.46 53.6L318.16 53.31C317.96 53.12 317.77 52.93 317.58 52.75L317.31 52.49C317.12 52.31 316.93 52.14 316.73 51.97L316.29 51.58C316.16 51.47 316.04 51.35 315.88 51.21L315.76 51.11C315.26 50.68 314.75 50.25 314.23 49.83L314.11 49.74C313.65 49.37 313.18 49 312.71 48.65L312.36 48.39C311.97 48.11 311.59 47.83 311.2 47.56L309.7 46.56C309.53 46.45 309.36 46.34 309.18 46.24L308.2 45.64C307.7 45.35 307.21 45.07 306.7 44.79C306.2 44.52 305.7 44.27 305.2 44.02L304.23 43.57C304.05 43.49 303.87 43.4 303.69 43.33L303.31 43.18C303.09 43.09 302.86 43 302.64 42.91L302.45 42.83C302.34 42.78 302.23 42.74 302.12 42.7C302 42.66 301.88 42.62 301.76 42.58L301.57 42.52C301.34 42.44 301.12 42.36 300.9 42.29L300.54 42.16C300.4 42.12 300.27 42.08 300.13 42.04L299.79 41.94C299.57 41.87 299.34 41.81 299.04 41.73L298.84 41.67C298.69 41.63 298.55 41.6 298.4 41.57L298.05 41.49C297.81 41.44 297.57 41.38 297.27 41.32L297.07 41.28C296.94 41.26 296.81 41.24 296.68 41.22L296.49 41.19C296.15 41.14 295.81 41.08 295.41 41.03C295.34 41.02 295.26 41.01 295.19 41C295.08 40.99 294.98 40.98 294.87 40.98H294.75C294.32 40.93 293.9 40.9 293.38 40.88C293.29 40.88 293.19 40.87 293.09 40.86C293.01 40.86 292.92 40.86 292.81 40.86C292.12 40.86 291.49 40.87 290.92 40.92C290.86 40.92 290.79 40.92 290.68 40.93C290.59 40.93 290.49 40.95 290.4 40.96H290.29C289.89 41.02 289.5 41.06 289.11 41.13C288.98 41.15 288.85 41.18 288.71 41.21L288.34 41.28C288.16 41.31 287.98 41.35 287.8 41.39C287.74 41.4 287.67 41.42 287.61 41.44C287.23 41.53 286.86 41.64 286.48 41.76L286.31 41.81C286.19 41.85 286.06 41.88 285.94 41.92C285.36 42.12 284.83 42.32 284.33 42.54L274.58 46.82L274.5 46.85C274.48 46.85 274.47 46.87 274.46 46.87C266.46 50.4 261.28 58.95 259.88 70.96C258.63 81.7 260.62 93.87 264.93 105.38C261.91 103.97 257.58 102.51 253.93 103.53C249.22 104.85 248.77 107.95 249.66 110.51C250.2 112.06 251.23 113.4 252.11 114.03L248.77 115.49C248.53 115.61 248.38 115.87 248.33 116.24C248.28 116.66 248.36 117.19 248.57 117.76C248.65 117.98 248.75 118.17 248.86 118.36C249.25 119.03 249.76 119.49 250.2 119.55C250.28 119.56 250.36 119.55 250.43 119.54C250.46 119.54 250.49 119.51 250.52 119.5L253.81 118.07C253.54 118.91 253.87 120.43 254.84 121.65C256.24 123.41 258.99 124.53 263.22 122.02C266.2 120.25 267.95 117.18 268.95 114.64C270.97 118.65 273.26 122.5 275.79 126.08L255.86 137.59C255.4 137.86 255.11 138.35 255.11 138.89V201.55L238.52 191.97C238.06 191.7 237.48 191.7 237.02 191.97L208.2 208.61C202.17 199.18 195.27 191.28 187.38 184.78C195.56 173.76 203.14 165.22 207.03 161.01C207.47 160.53 207.67 159.89 207.58 159.26C207.31 157.4 206.86 155.59 206.28 153.85C209.99 147.7 211.99 142.33 211.99 132.87C211.99 122.82 209.36 112.66 206.81 102.84C205.29 96.97 203.85 91.43 202.94 85.92C201.79 79.03 201.05 73.3 200.4 68.24C197.1 42.58 195.48 39.31 164.31 39.31C162.75 39.31 161.44 40.35 161.13 41.79C160.49 44.8 159.8 48.29 159.8 51.59C159.8 51.71 159.8 51.84 159.81 51.97C159.81 51.99 159.81 52 159.81 52.02C159.81 52.04 159.81 52.06 159.81 52.08C159.81 52.11 159.81 52.13 159.81 52.16C160.06 59.29 165.05 62.73 171.95 67.48C173.97 68.87 176.24 70.44 178.65 72.27C179.25 86.93 180.17 100.02 180.84 109.63C181.01 112.09 181.17 114.31 181.3 116.27C181.53 119.86 181.69 122.56 181.69 124.07C181.69 127.13 181.23 130.37 180.32 133.71C178.23 141.28 173.68 149.44 167.34 157.1C166.72 151.35 164.64 145.16 161.07 139.55C163.13 131.49 160.82 123.02 154.95 117.56C146.33 109.56 134.18 106.84 123.94 110.64C119.4 112.33 115.21 115.28 111.69 119.17L107.8 115.33C107.01 114.55 105.96 114.12 104.84 114.12C104.15 114.12 103.49 114.3 102.89 114.62C99.1699 107.73 91.3299 98.86 77.3799 106.23C56.3799 117.31 84.2099 160.76 67.6799 169.59C66.6399 170.15 66.6199 171.63 67.6799 172.13C72.4599 174.39 82.4999 177.44 89.5399 167.8C95.6099 159.48 92.2299 148.7 93.6999 142.63C94.3599 143.1 95.1499 143.37 95.9799 143.4C98.9899 143.51 100.58 143.57 101.43 143.6C101.13 148.71 101.86 153.74 103.67 158.3C106.99 166.67 112.68 170.2 117.58 171.65C119.21 172.3 120.7 172.57 121.9 172.67C122.89 174.41 123.6 176.19 123.6 178.17C123.6 183.63 121.76 186.15 118.79 188.43C118.49 188.67 118.18 188.89 117.86 189.12C116.93 189.78 115.93 190.42 114.86 191.11C110.68 193.79 105.49 197.14 100.42 203.81C93.1999 213.33 88.0299 227.34 84.6299 246.58C81.3499 243.62 77.8699 240.8 74.4899 238.05C69.5399 234.03 64.8599 230.24 61.1099 226.32C58.7099 223.82 56.4199 220.96 53.6899 217.05C53.0099 216.07 52.0599 215.29 50.9299 214.8C49.6199 214.21 48.1999 213.58 46.7299 212.95C46.7099 212.95 46.6999 212.94 46.6799 212.93C41.3199 210.61 36.3299 208.61 31.8399 206.99C30.1099 206.36 28.1299 206.67 26.6899 207.82C25.2599 208.97 24.5499 210.79 24.8199 212.58C28.8499 238.35 32.3299 239.82 41.7999 240.28C44.3499 240.4 47.2099 240.54 50.7499 241.56C55.0999 249.35 63.4199 263.15 73.2599 274.15C75.1299 286.57 80.1799 293.7 87.1699 293.7C90.2699 293.7 93.5499 292.12 96.9199 289C98.1699 287.85 99.3899 286.53 100.57 285.08C105.62 278.96 111.07 269.53 116.77 257.04C119.82 268.01 115.71 278.47 111.04 290.33C109.22 294.96 107.34 299.74 105.81 304.78C105.8 304.81 105.79 304.84 105.78 304.86C105.77 304.9 105.76 304.93 105.74 304.97C105.72 305.02 105.71 305.08 105.69 305.13C105.69 305.14 105.69 305.16 105.68 305.17C103.74 311.61 102.72 317.55 102.56 323.3C102.53 323.78 102.53 324.35 102.53 324.92C102.53 327.73 103.14 331.41 104.36 335.95V353.86L87.7699 344.28C87.3099 344.01 86.7299 344.01 86.2699 344.28L29.7499 376.91C29.2899 377.18 28.9999 377.67 28.9999 378.21V479.88C28.9999 480.71 29.6699 481.38 30.4999 481.38H124.71C123.33 489.39 121.64 498.27 119.25 508.42C117.18 517.23 114.83 525.9 112.07 534.94C112.04 535.02 112.02 535.11 112.01 535.2C111.81 536.38 111.57 537.46 111.26 538.59C110.85 540.08 110.38 541.33 109.93 542.54C108.93 545.22 107.98 547.74 107.74 552.27C107.67 553.55 107.66 554.91 107.71 556.4C107.84 560.36 109.92 564.05 113.25 566.26C117.46 569.06 120.83 573.18 124.41 577.54C128.54 582.57 132.81 587.77 138.9 591.75C143.21 594.55 148.1 595.53 152.83 595.53C159 595.53 164.89 593.87 168.8 592.44C171.87 591.33 173.86 588.43 173.75 585.23L173.67 582.83C173.61 581.09 173.08 579.4 172.15 577.91C172.08 577.76 171.99 577.62 171.89 577.49C171.11 576.32 170.09 575.31 168.87 574.55L159.16 568.42C156.54 566.76 154.44 564.44 153.1 561.71L143.54 542.35C142.44 540.12 142.3 537.51 143.15 535.2C145.23 529.54 147.38 523.81 149.55 518.19C154.6 505.03 159.43 493.07 164.26 481.4H369.61C370.44 481.4 371.11 480.73 371.11 479.9V138.91C371.11 138.37 370.82 137.88 370.36 137.61H370.41Z" fill="#3B529B"/>
<path d="M352.67 103.42L369.99 95.37C370.53 95.12 370.93 94.64 371.09 94.07C371.25 93.5 371.15 92.88 370.81 92.39L363.46 81.62C363.06 81.04 362.38 80.7 361.67 80.74C361.05 80.77 360.48 81.09 360.12 81.6C360.07 81.67 360.03 81.74 359.99 81.82L350.01 100.64C349.85 100.94 349.77 101.27 349.77 101.59C349.77 102.1 349.96 102.6 350.33 102.99C350.93 103.62 351.86 103.8 352.65 103.43L352.67 103.42ZM356.43 97.2L362.01 86.67L366.12 92.69L356.43 97.19V97.2Z" fill="#FF6000"/>
<path d="M84.5599 206.67L75.8999 189.64C75.6299 189.11 75.1399 188.72 74.5599 188.59C73.9799 188.45 73.3699 188.58 72.8899 188.93L62.3899 196.66C61.8199 197.08 61.5099 197.77 61.5699 198.48C61.6299 199.1 61.9599 199.65 62.4799 199.99C62.5499 200.04 62.6199 200.08 62.6999 200.11L81.8699 209.41C82.1799 209.56 82.4999 209.62 82.8299 209.61C83.3399 209.59 83.8299 209.38 84.1999 209C84.8099 208.38 84.9499 207.44 84.5599 206.66V206.67ZM78.2199 203.13L67.4999 197.93L73.3699 193.61L78.2199 203.13Z" fill="#FF6000"/>
<path d="M358.27 120.99C361.43 121.73 364.61 119.77 365.35 116.61C366.09 113.45 364.13 110.27 360.97 109.53C357.81 108.79 354.63 110.75 353.89 113.91C353.15 117.07 355.11 120.25 358.27 120.99ZM360.18 112.89C361.49 113.2 362.3 114.51 361.99 115.82C361.68 117.13 360.37 117.94 359.06 117.63C357.75 117.32 356.94 116.01 357.25 114.7C357.56 113.39 358.87 112.58 360.18 112.89Z" fill="#32C9EA"/>
<path d="M156.74 92.41C159.9 93.15 163.08 91.19 163.82 88.03C164.56 84.87 162.6 81.69 159.44 80.95C156.28 80.21 153.1 82.17 152.36 85.33C151.62 88.49 153.58 91.67 156.74 92.41ZM158.65 84.3C159.96 84.61 160.77 85.92 160.46 87.23C160.15 88.54 158.84 89.35 157.53 89.04C156.22 88.73 155.41 87.42 155.72 86.11C156.03 84.8 157.34 83.99 158.65 84.3Z" fill="#32C9EA"/>
<path d="M377.15 113.4C378.514 113.4 379.62 112.294 379.62 110.93C379.62 109.566 378.514 108.46 377.15 108.46C375.786 108.46 374.68 109.566 374.68 110.93C374.68 112.294 375.786 113.4 377.15 113.4Z" fill="white"/>
<path d="M167.59 104.6C168.954 104.6 170.06 103.494 170.06 102.13C170.06 100.766 168.954 99.66 167.59 99.66C166.226 99.66 165.12 100.766 165.12 102.13C165.12 103.494 166.226 104.6 167.59 104.6Z" fill="white"/>
<path d="M76.71 223.37C78.0741 223.37 79.18 222.264 79.18 220.9C79.18 219.536 78.0741 218.43 76.71 218.43C75.3458 218.43 74.24 219.536 74.24 220.9C74.24 222.264 75.3458 223.37 76.71 223.37Z" fill="white"/>
<path d="M236.29 134.6C237.654 134.6 238.76 133.494 238.76 132.13C238.76 130.766 237.654 129.66 236.29 129.66C234.926 129.66 233.82 130.766 233.82 132.13C233.82 133.494 234.926 134.6 236.29 134.6Z" fill="#FF6000"/>
<path d="M256.62 138.91L313.14 106.28L369.66 138.91L313.14 171.54L256.62 138.91Z" fill="#32C9EA"/>
<path d="M313.14 171.54L256.62 138.91V479.87H313.14V171.54Z" fill="url(#paint0_linear_2534_1758)"/>
<path d="M313.14 171.54L369.66 138.91V479.87H313.14V171.54Z" fill="url(#paint1_linear_2534_1758)"/>
<path d="M370.41 137.61L313.89 104.98C313.43 104.71 312.85 104.71 312.39 104.98L255.87 137.61C255.41 137.88 255.12 138.37 255.12 138.91V479.87C255.12 480.7 255.79 481.37 256.62 481.37H369.66C370.49 481.37 371.16 480.7 371.16 479.87V138.91C371.16 138.37 370.87 137.88 370.41 137.61ZM313.14 108.01L366.66 138.91L313.14 169.81L259.62 138.91L313.14 108.01ZM258.12 141.51L311.64 172.41V478.37H258.12V141.51ZM368.16 478.37H314.64V172.41L368.16 141.51V478.37Z" fill="url(#paint2_linear_2534_1758)"/>
<path d="M181.27 225.93L237.79 193.3L294.3 225.93L237.79 258.56L181.27 225.93Z" fill="#32C9EA"/>
<path d="M237.79 258.56L181.27 225.93V479.87H237.79V258.56Z" fill="url(#paint3_linear_2534_1758)"/>
<path d="M237.79 258.56L294.3 225.93V479.87H237.79V258.56Z" fill="url(#paint4_linear_2534_1758)"/>
<path d="M295.05 224.63L238.53 192C238.07 191.73 237.49 191.73 237.03 192L180.51 224.63C180.05 224.9 179.76 225.39 179.76 225.93V479.88C179.76 480.71 180.43 481.38 181.26 481.38H294.3C295.13 481.38 295.8 480.71 295.8 479.88V225.93C295.8 225.39 295.51 224.9 295.05 224.63ZM237.79 195.03L291.31 225.93L237.79 256.83L184.27 225.93L237.79 195.03ZM182.77 228.52L236.29 259.42V478.37H182.77V228.52ZM292.8 478.37H239.28V259.42L292.8 228.52V478.37Z" fill="url(#paint5_linear_2534_1758)"/>
<path d="M105.91 312.94L162.43 280.31L218.95 312.94L162.43 345.57L105.91 312.94Z" fill="#32C9EA"/>
<path d="M162.43 345.57L105.91 312.94V479.87H162.43V345.57Z" fill="url(#paint6_linear_2534_1758)"/>
<path d="M162.43 345.57L218.95 312.94V479.87H162.43V345.57Z" fill="url(#paint7_linear_2534_1758)"/>
<path d="M219.7 311.64L163.18 279.01C162.72 278.74 162.14 278.74 161.68 279.01L105.16 311.64C104.7 311.91 104.41 312.4 104.41 312.94V479.87C104.41 480.7 105.08 481.37 105.91 481.37H218.95C219.78 481.37 220.45 480.7 220.45 479.87V312.94C220.45 312.4 220.16 311.91 219.7 311.64ZM162.43 282.04L215.95 312.94L162.43 343.84L108.91 312.94L162.43 282.04ZM107.41 315.54L126.23 326.4L160.93 346.43V478.36H107.41V315.53V315.54ZM163.93 478.37V346.44L198.63 326.41L217.45 315.55V478.38H163.93V478.37Z" fill="url(#paint8_linear_2534_1758)"/>
<path d="M30.55 378.2L87.07 345.57L143.59 378.2L87.07 410.83L30.55 378.2Z" fill="#32C9EA"/>
<path d="M87.07 410.83L30.55 378.2V479.87H87.07V410.83Z" fill="url(#paint9_linear_2534_1758)"/>
<path d="M87.0701 410.83L143.59 378.2V479.87H87.0701V410.83Z" fill="url(#paint10_linear_2534_1758)"/>
<path d="M144.34 376.9L87.82 344.27C87.36 344 86.78 344 86.32 344.27L29.8 376.9C29.34 377.17 29.05 377.66 29.05 378.2V479.87C29.05 480.7 29.72 481.37 30.55 481.37H143.59C144.42 481.37 145.09 480.7 145.09 479.87V378.2C145.09 377.66 144.8 377.17 144.34 376.9ZM87.07 347.31L140.59 378.21L87.07 409.11L33.55 378.21L87.07 347.31ZM32.05 380.8L52.53 392.63L85.57 411.7V478.37H32.05V380.8ZM88.57 478.37V411.7L122.06 392.36L142.09 380.8V478.37H88.57Z" fill="url(#paint11_linear_2534_1758)"/>
<path d="M150.33 127.91C149.39 127.12 147.93 127.91 148.07 129.13C148.51 133.04 147.89 139.79 140.67 146.43C129.56 156.66 124.01 160.39 124.88 172.58C124.88 172.58 112.47 175.36 105.45 157.64C98.42 139.92 109.1 118.2 124.62 112.43C134.77 108.66 146.19 111.99 153.69 118.96C159.58 124.43 161.37 133.05 158.81 140.66C158.81 140.66 156.68 133.26 150.32 127.9L150.33 127.91Z" fill="#262830"/>
<path d="M103.71 158.33C100.26 149.62 100.67 139.23 104.86 129.83C108.94 120.66 115.91 113.67 123.98 110.67C134.22 106.87 146.37 109.58 154.99 117.59C161.27 123.43 163.48 132.73 160.61 141.27C160.61 141.27 155.2 135 150.05 130.17C150.24 134.31 149.17 141.18 141.96 147.82L139.03 150.5C129.84 158.85 126.04 162.3 126.77 172.46C126.77 172.46 110.41 175.22 103.72 158.35L103.71 158.33ZM136.49 147.7L139.4 145.04C145.83 139.12 146.65 133.23 146.21 129.33C146.06 128 146.73 126.73 147.92 126.1C149.1 125.46 150.53 125.61 151.55 126.47C154.54 128.99 156.65 131.92 158.08 134.41C158.27 129.07 156.28 123.91 152.43 120.33C144.84 113.28 134.18 110.88 125.29 114.18C118.27 116.79 111.91 123.21 108.29 131.35C104.52 139.84 102.37 149.86 105.46 157.64C110.39 170.07 123.1 172.67 123.83 171.33C123.17 159.77 127.39 155.98 136.49 147.71V147.7Z" fill="#262830"/>
<path d="M105.67 121.23C105.67 121.23 98.5699 95.08 77.4099 106.25C56.4099 117.33 84.2399 160.78 67.7099 169.61C66.6699 170.17 66.6499 171.65 67.7099 172.15C72.4899 174.41 82.5299 177.46 89.5699 167.82C99.1099 154.76 85.3099 135.61 103.64 138.18L105.67 121.23Z" fill="#262830"/>
<path d="M161.31 194.17C161.31 190.01 159.69 188.07 157.62 183.94C165.87 189.04 173.64 192.88 180.98 196.99V197.01C182.69 204.52 184.63 212.53 184.63 225.33C184.63 228.65 184.42 233.97 184.26 237.29C178.46 223.89 170.17 209.82 159.94 199.44C160.82 198 161.32 196.24 161.32 194.17H161.31Z" fill="#DCDCDC"/>
<path d="M109.89 305.57C129.25 303.56 149.95 295.24 163.51 283.03C143.32 257.88 128.95 222.34 120.92 190.88C121.26 190.63 121.58 190.39 121.89 190.14C129.97 197.2 139.32 202.88 149.66 202.88C153.73 202.88 157.26 201.26 159.11 198.21C169.34 208.6 177.74 220.67 183.54 234.07C183.08 243.87 182.18 253.68 182.15 263.51V263.57C182.15 266.38 182.68 269.36 183.29 272.41C184.17 276.74 185.24 281.15 185.24 285.34C185.24 288.61 184.37 291.78 182.77 294.78C173.81 311.54 141.96 323.39 110.77 323.39C109.46 323.39 108.17 323.37 106.88 323.34C107.05 317.04 108.24 311.15 109.89 305.56V305.57Z" fill="white"/>
<path d="M106.87 313.38C106.87 313.38 146.27 308.66 157.61 289.02C157.61 289.02 126.41 305.67 107.72 305.73L106.87 313.38Z" fill="#DCDCDC"/>
<path d="M163.53 51.61C163.53 51.75 163.53 51.9 163.55 52.04C163.8 60.21 171.27 62.78 181.9 71.21C182.63 90.03 183.89 106.4 184.53 116.15C184.76 119.78 184.92 122.5 184.92 124.09C184.92 127.49 184.41 130.9 183.51 134.29C193.71 137.15 201.15 144.69 204.38 153.63C208.29 147.17 210.16 142.17 210.16 132.9C210.16 117.34 203.8 101.37 201.35 86.29C194.74 45.66 201.57 41.49 165.77 41.49H165.72C165.27 41.49 164.87 41.8 164.78 42.25C164.15 45.29 163.53 48.57 163.53 51.61Z" fill="#E4BB85"/>
<g style="mix-blend-mode:multiply" opacity="0.2">
<path d="M198.75 67.6C198.4 69.44 198.1 71.5 197.93 73.7C197.34 81.63 201.79 98.21 201.64 117.23C201.53 131.13 197.62 138.03 195.52 140.74C199.57 144.26 202.61 148.72 204.38 153.62C208.29 147.16 210.16 142.16 210.16 132.89C210.16 117.33 203.8 101.36 201.35 86.28C200.15 78.91 199.4 72.75 198.75 67.59V67.6Z" fill="#3B529B"/>
</g>
<path d="M184.11 272.42C199.74 265.84 212.38 254.36 223.05 241.28C221.09 237.06 219.1 233.26 217.04 229.8C217.04 229.8 217.04 229.78 217.02 229.77C206.25 211.6 194.33 203.28 180.97 195.79V195.81C182.68 203.32 184.62 211.33 184.62 224.13C184.62 236.93 183.01 250.38 182.97 263.54V263.6C182.97 266.41 183.5 269.39 184.11 272.44V272.42Z" fill="#32C9EA"/>
<g style="mix-blend-mode:multiply" opacity="0.4">
<path d="M184.11 272.42C199.74 265.84 212.38 254.36 223.05 241.28C221.09 237.06 219.1 233.26 217.04 229.8C217.04 229.8 217.04 229.78 217.02 229.77C206.25 211.6 194.33 203.28 180.97 195.79V195.81C181.48 198.04 182.01 200.31 182.5 202.74C183.66 208.5 184.62 215.13 184.62 224.13C184.62 237.26 183.01 250.38 182.97 263.54V263.6C182.97 266.41 183.5 269.39 184.11 272.44V272.42Z" fill="#3B529B"/>
</g>
<g style="mix-blend-mode:multiply" opacity="0.4">
<path d="M182.5 198.75C183.66 204.51 184.62 215.12 184.62 224.11C184.62 237.24 183.01 250.36 182.97 263.52V263.58C182.97 266.39 183.5 269.37 184.11 272.42C188.01 270.78 196.81 264.82 200.36 262.62C203.28 237.29 182.5 198.75 182.5 198.75Z" fill="#3B529B"/>
</g>
<path d="M46.6498 214.23C42.1498 212.24 37.1498 210.14 32.2398 208.31C31.2498 207.94 30.1398 208.12 29.3198 208.79C28.5098 209.45 28.1098 210.51 28.2698 211.56C33.4298 245.95 37.3098 233.94 52.9198 239.06C59.0198 250.35 67.0898 263.05 75.4698 272.54C82.0498 280.02 88.8298 285.5 95.0298 286.74C96.1598 285.67 97.2898 284.44 98.3798 283.05C98.8598 281.06 99.1398 278.86 99.1398 276.39C99.1398 266.07 93.4398 257.73 85.9898 250.31V250.29C77.6498 241.96 67.1098 234.77 59.9798 227.12C57.2098 224.17 54.7998 220.93 52.5298 217.59C52.0798 216.93 51.4598 216.42 50.7398 216.09C49.4398 215.5 48.0698 214.87 46.6498 214.24V214.23Z" fill="#E4BB85"/>
<path d="M75.9299 274.21L75.9099 274.23C77.1299 283.16 80.4999 292.52 87.4499 292.52C90.0599 292.52 92.7799 290.98 95.4799 288.41C89.2899 287.17 82.4999 281.69 75.9199 274.21H75.9299Z" fill="#32C9EA"/>
<path d="M77.92 399.06C77.67 400.08 79.24 401.92 79.94 402.69C81.97 404.91 86.76 405.37 91.62 405.37C93.67 405.37 95.79 405.2 97.83 405.2C98.73 405.2 100.18 405.39 102.08 405.71V405.69C103.79 399.67 109.03 399.14 130.67 388.1C128.91 384.39 127.1 380.53 125.33 376.62C107.64 386.83 93.44 393.05 82.93 396.86C81.94 397.22 78.18 398.04 77.93 399.06H77.92Z" fill="#262830"/>
<path d="M117.8 251.12C126.28 269.38 114.79 285.61 108.95 305.46C128.31 303.45 149.01 295.13 162.57 282.92C142.38 257.77 128.01 222.23 119.98 190.77C115.55 193.98 109.4 196.93 103.42 205C97.55 212.92 91.91 225.8 88.08 248.69C87.97 249.32 87.86 250.05 87.74 250.87V250.89C95.19 258.3 100.89 266.65 100.89 276.97C100.89 279.44 100.61 281.64 100.13 283.63C106.87 275.27 113.29 261.77 117.8 251.13V251.12Z" fill="#32C9EA"/>
<g style="mix-blend-mode:multiply" opacity="0.2">
<path d="M116.04 249.27L123.13 241.29C123.13 241.29 127.8 250.65 121.42 268.63" fill="#3B529B"/>
</g>
<path d="M102.07 405.69V405.71C110.35 407.08 127.17 411.05 143.47 413.91C140.35 407.84 135.64 398.54 130.66 388.1C109.02 399.15 103.78 399.67 102.07 405.69Z" fill="#E4BB85"/>
<path d="M173.19 332.92C175.51 360.77 184.17 388.23 188.66 415.72C186.84 415.99 185 416.23 183.18 416.41H183.16C183.17 416.58 183.17 416.76 183.19 416.93C176.87 395.28 169.77 374.6 165.28 352.18C163.84 344.99 168.87 338.67 173.18 332.92H173.19Z" fill="#768086"/>
<path d="M142.65 414.41C142.65 414.41 142.6 414.32 142.59 414.27H142.57C139.45 408.2 134.74 398.9 129.76 388.46C128 384.75 126.19 380.89 124.42 376.98C115.28 356.91 106.76 335.49 106.76 325.28C106.76 324.75 106.76 324.23 106.79 323.72C108.09 323.75 109.37 323.77 110.68 323.77C141.87 323.77 173.72 311.92 182.68 295.16C191.39 313.88 203.63 345.24 208.62 388.97C210.13 402.15 200.93 414.15 187.81 416.08C187.79 416.08 187.78 416.08 187.76 416.08C183.27 388.6 174.54 363.26 172.22 335.41C167.9 341.17 162.95 345.35 164.38 352.54C168.86 374.96 175.96 395.64 182.29 417.29C182.94 426.34 181.49 435.45 177.98 443.97C168.06 468.16 158.64 490.64 148.47 517.76C146.2 518.95 143.62 519.66 140.58 519.66C133.52 519.66 126.97 515.32 123.02 509.25C132.33 468.78 130.85 447.58 142.3 427.89C144.71 423.77 144.83 418.67 142.64 414.4L142.65 414.41Z" fill="#8795A3"/>
<path d="M120.4 159.56C120.4 166.08 128.22 170.65 128.22 178.19C128.22 184.45 126.06 187.5 122.71 190.15C130.79 197.21 140.14 202.89 150.48 202.89C156.47 202.89 161.31 199.38 161.31 192.96C161.31 188.8 159.69 186.86 157.62 182.73H157.6C156.86 181.25 156.06 179.5 155.24 177.26C162.33 176.64 166.18 170.6 166.73 162.77C167.58 151.06 161.14 135.35 147.39 127.75C140.21 134.45 140.21 146.57 134.65 151.32C129.92 155.37 120.41 150.19 120.41 159.55L120.4 159.56Z" fill="#E4BB85"/>
<g style="mix-blend-mode:multiply" opacity="0.2">
<path d="M144.41 178.44C144.41 178.44 155.48 185.96 157.46 194.14C157.46 194.14 159.64 192.61 158.9 188.2C158.16 183.79 154.91 179.07 154.91 179.07L148.31 177.65L144.42 178.44H144.41Z" fill="#3B529B"/>
</g>
<path d="M155.24 177.26C156.06 179.5 156.86 181.25 157.6 182.73H157.62C165.87 187.83 173.64 191.67 180.98 195.78C194.34 203.27 206.27 211.6 217.03 229.76C209.79 212.52 199.74 196.76 185.36 185.18C193.24 174.13 200.87 165.13 205.87 159.58C205.58 157.54 205.08 155.55 204.37 153.62C201.14 144.68 193.7 137.14 183.5 134.28C180.7 144.66 174.12 154.7 166.72 162.77C166.16 170.6 162.32 176.64 155.23 177.26H155.24Z" fill="#32C9EA"/>
<path d="M141.47 416.07C141.81 416.07 142.16 415.99 142.48 415.83C143.57 415.29 143.99 413.98 143.44 412.92C138.72 403.96 134.32 395.29 130.35 387.17C128.33 383.02 126.54 379.28 124.89 375.73C113.19 350.66 107 333.09 107 324.92C107 324.44 107 323.96 107.03 323.49C107.18 317.98 108.16 312.35 110.03 306.19C111.52 301.24 113.4 296.48 115.21 291.87C120.69 277.94 125.87 264.79 118.98 250.33C118.46 249.25 117.15 248.78 116.04 249.28C114.93 249.78 114.45 251.07 114.97 252.15C121.06 264.95 116.44 276.71 111.08 290.33C109.24 295.02 107.33 299.87 105.79 304.98C103.82 311.5 102.78 317.5 102.62 323.31C102.59 323.79 102.59 324.36 102.59 324.93C102.59 333.84 108.74 351.54 120.88 377.53C122.54 381.1 124.34 384.86 126.37 389.04C130.35 397.21 134.78 405.91 139.52 414.91C139.91 415.65 140.69 416.08 141.49 416.08L141.47 416.07Z" fill="#262830"/>
<path d="M182.15 418.57C182.22 418.57 182.3 418.57 182.37 418.56C184.31 418.37 186.25 418.13 188.14 417.85C202.83 415.74 213.02 402.78 211.32 388.36C207.38 354.66 198.38 322.87 184.56 293.88C184.04 292.8 182.73 292.33 181.62 292.83C180.51 293.33 180.03 294.62 180.55 295.7C194.17 324.27 203.04 355.6 206.93 388.85C208.35 400.95 199.81 411.81 187.49 413.58C185.66 413.85 183.79 414.08 181.93 414.26C180.72 414.38 179.83 415.44 179.95 416.62C180.07 417.73 181.03 418.56 182.15 418.56V418.57Z" fill="#262830"/>
<path d="M141.47 416.07C142.69 416.07 143.69 415.1 143.69 413.91C143.69 412.81 142.85 411.9 141.76 411.77C132.57 410.19 123.38 408.31 115.25 406.65C108.81 405.33 103.25 404.2 99.4201 403.58C97.2101 403.21 95.7101 403.04 94.7001 403.04C93.6301 403.04 92.5401 403.08 91.4401 403.13C90.4001 403.17 89.3601 403.21 88.3401 403.21C84.2701 403.21 81.5501 402.34 79.7701 400.46C79.5601 400.23 79.4701 399.88 79.5501 399.56C79.6301 399.25 79.8601 399 80.1701 398.89C93.8701 394.01 108.6 387.15 123.97 378.49C125.03 377.89 125.39 376.57 124.78 375.54C124.17 374.51 122.82 374.15 121.76 374.75C106.62 383.28 92.1201 390.04 78.6701 394.83C76.9601 395.43 75.6801 396.82 75.2501 398.54C74.8301 400.25 75.2901 402.06 76.5001 403.37C79.1501 406.17 83.0201 407.53 88.3301 407.53C89.4201 407.53 90.5201 407.49 91.6101 407.44C92.6401 407.4 93.6801 407.36 94.6901 407.36C95.4201 407.36 96.7601 407.52 98.6701 407.84C102.41 408.45 107.93 409.58 114.32 410.88C122.5 412.55 131.78 414.45 141.07 416.04C141.2 416.06 141.32 416.07 141.45 416.07H141.47Z" fill="#262830"/>
<path d="M99.0598 407.85C100.02 407.85 100.91 407.23 101.18 406.28C102.15 402.96 104.35 401.84 114.58 397.09C118.44 395.3 123.25 393.06 129.35 390.02C130.44 389.48 130.87 388.18 130.31 387.12C129.76 386.06 128.42 385.63 127.34 386.18C121.29 389.19 116.51 391.41 112.68 393.2C102.34 398 98.4798 399.8 96.9298 405.11C96.5898 406.26 97.2798 407.45 98.4498 407.78C98.6498 407.84 98.8598 407.86 99.0598 407.86V407.85Z" fill="#262830"/>
<path d="M165.3 164.93C165.9 164.93 166.49 164.69 166.93 164.23C175.68 154.92 181.96 144.49 184.62 134.85C185.63 131.14 186.14 127.52 186.14 124.09C186.14 122.46 185.99 119.79 185.74 116.01C185.61 114.05 185.45 111.82 185.28 109.35C184.59 99.55 183.65 86.12 183.05 71.12C183.03 70.49 182.72 69.9 182.22 69.51C179.41 67.33 176.82 65.54 174.53 63.96C167.52 59.12 164.41 56.78 164.26 51.96C164.26 51.9 164.26 51.84 164.25 51.79C164.25 51.73 164.25 51.66 164.25 51.6C164.25 49.04 164.75 46.21 165.28 43.64C192.8 43.68 193.02 45.34 196.03 68.79C196.68 73.89 197.43 79.66 198.59 86.62C199.53 92.31 201.06 98.2 202.54 103.9C205.02 113.47 207.58 123.37 207.58 132.88C207.58 141.83 205.69 146.5 201.98 152.49C201.35 153.51 201.68 154.84 202.73 155.45C203.77 156.07 205.13 155.74 205.77 154.72C209.82 148.19 212.01 142.78 212.01 132.87C212.01 122.96 209.38 112.66 206.83 102.84C205.31 96.97 203.87 91.43 202.96 85.92C201.81 79.03 201.07 73.3 200.42 68.24C197.12 42.58 195.5 39.31 164.33 39.31C162.77 39.31 161.46 40.35 161.15 41.79C160.51 44.8 159.82 48.29 159.82 51.59C159.82 51.77 159.82 51.97 159.84 52.16C160.09 59.29 165.08 62.73 171.98 67.48C174 68.87 176.27 70.44 178.68 72.27C179.28 86.93 180.2 100.02 180.87 109.63C181.04 112.09 181.2 114.31 181.33 116.27C181.56 119.86 181.72 122.56 181.72 124.07C181.72 127.13 181.26 130.37 180.35 133.71C177.87 142.69 171.95 152.48 163.67 161.29C162.85 162.17 162.91 163.53 163.81 164.34C164.23 164.72 164.77 164.91 165.3 164.91V164.93Z" fill="#262830"/>
<path d="M87.2099 293.69C90.3099 293.69 93.5899 292.11 96.9599 288.99C98.2099 287.84 99.4299 286.52 100.61 285.07C106.31 278.16 112.51 267.06 119.01 252.07C120.72 248.1 122.44 243.92 124.12 239.62C124.55 238.51 123.98 237.26 122.84 236.83C121.7 236.41 120.42 236.96 119.99 238.08C118.33 242.33 116.63 246.47 114.94 250.38C108.68 264.79 102.53 275.85 97.1499 282.37C96.0899 283.68 95.0099 284.84 93.9199 285.85C91.3999 288.19 89.1399 289.37 87.2099 289.37C80.4099 289.37 78.1199 276.8 77.5799 272.95C77.4099 271.77 76.3099 270.95 75.0899 271.1C73.8799 271.26 73.0299 272.35 73.1999 273.53C74.9899 286.34 80.0999 293.69 87.2099 293.69Z" fill="#262830"/>
<path d="M95.4399 289.58C96.4699 289.58 97.3999 288.87 97.5999 287.84C97.8399 286.67 97.0599 285.53 95.8599 285.3C90.5999 284.28 84.0999 279.61 77.0499 271.79C66.9599 260.66 58.4199 246.29 54.2299 238.71C53.9599 238.22 53.5099 237.86 52.9699 237.68C48.4799 236.25 44.9099 236.07 42.0299 235.94C35.1999 235.61 32.8999 235.5 29.2099 211.91C29.1699 211.62 29.2799 211.32 29.5099 211.13C29.7199 210.96 30.0399 210.91 30.3099 211.01C34.7399 212.61 39.6599 214.59 44.9599 216.88C46.3999 217.51 47.7999 218.12 49.1199 218.72C49.5299 218.9 49.8299 219.14 50.0499 219.47C52.8799 223.52 55.3699 226.64 57.8999 229.27C61.8399 233.39 66.6199 237.27 71.6899 241.37C76.0799 244.93 80.6199 248.61 84.5999 252.49C85.4699 253.33 86.8599 253.33 87.7299 252.49C88.5899 251.65 88.5899 250.29 87.7299 249.45C83.6099 245.43 78.9899 241.68 74.5199 238.06C69.5699 234.04 64.8899 230.25 61.1399 226.33C58.7399 223.83 56.4499 220.97 53.7199 217.06C53.0399 216.08 52.0899 215.3 50.9599 214.81C49.6499 214.22 48.2299 213.59 46.7599 212.96C41.3799 210.63 36.3699 208.62 31.8599 206.99C30.1299 206.36 28.1499 206.67 26.7099 207.82C25.2799 208.97 24.5699 210.79 24.8399 212.58C28.8699 238.35 32.3499 239.82 41.8199 240.28C44.3699 240.4 47.2299 240.54 50.7699 241.56C55.1899 249.47 63.6899 263.58 73.7299 274.67C81.5299 283.32 88.6799 288.32 94.9899 289.55C95.1399 289.58 95.2799 289.59 95.4199 289.59L95.4399 289.58Z" fill="#262830"/>
<path d="M98.8698 285.89C99.8698 285.89 100.77 285.23 101.02 284.24C101.58 281.95 101.86 279.61 101.86 277.08C101.86 264.64 93.7998 255.36 87.7398 249.47C86.8698 248.63 85.4798 248.64 84.6098 249.48C83.7498 250.33 83.7498 251.69 84.6098 252.53C93.3498 261.03 97.4298 268.83 97.4298 277.08C97.4298 279.27 97.1998 281.28 96.7198 283.23C96.4298 284.39 97.1598 285.55 98.3498 285.83C98.5198 285.87 98.6998 285.89 98.8698 285.89Z" fill="#262830"/>
<path d="M216.83 231.93C217.11 231.93 217.41 231.88 217.69 231.76C218.82 231.3 219.35 230.03 218.87 228.93C210.71 209.97 200.4 195.51 187.39 184.8C195.57 173.78 203.15 165.24 207.04 161.03C207.48 160.55 207.68 159.91 207.59 159.28C207.26 157.07 206.71 154.91 205.94 152.88C202.23 142.84 193.68 135.11 183.08 132.21C181.9 131.89 180.68 132.56 180.35 133.71C180.02 134.86 180.71 136.05 181.88 136.37C191.11 138.89 198.54 145.62 201.78 154.36C202.33 155.82 202.75 157.35 203.04 158.92C198.7 163.65 190.86 172.6 182.58 183.94C181.9 184.87 182.08 186.16 182.99 186.87C196.18 197.24 206.58 211.55 214.78 230.61C215.14 231.44 215.96 231.93 216.82 231.93H216.83Z" fill="#262830"/>
<path d="M183.11 274.58C183.4 274.58 183.69 274.53 183.97 274.41C198.52 268.43 211.85 258.04 224.72 242.64C225.26 242 225.37 241.12 225.01 240.37C222.98 236.11 220.94 232.31 218.78 228.76C218.76 228.73 218.75 228.7 218.73 228.68C206.73 209.29 193.59 200.82 180.97 193.91C178.46 192.54 175.89 191.19 173.28 189.82C168.08 187.09 162.7 184.27 157.12 180.9C156.77 180.69 156.37 180.58 155.96 180.58C154.74 180.58 153.74 181.55 153.74 182.74C153.74 183.58 154.23 184.31 154.95 184.67C160.59 188.06 165.98 190.89 171.19 193.63C173.78 194.99 176.32 196.32 178.81 197.68C190.89 204.29 203.62 212.3 214.89 230.82C214.91 230.85 214.92 230.88 214.94 230.91C216.83 234.01 218.62 237.31 220.4 240.97C208.28 255.23 195.78 264.88 182.24 270.44C181.11 270.9 180.59 272.17 181.06 273.27C181.42 274.09 182.24 274.59 183.1 274.59L183.11 274.58Z" fill="#262830"/>
<path d="M108.81 325.56C142.68 325.56 175.23 312.77 184.52 295.81C186.37 292.44 187.31 288.92 187.31 285.35C187.31 281.52 186.47 277.59 185.65 273.79L185.27 271.99C184.59 268.74 184.14 266.07 184.14 263.59C184.16 257.11 184.58 250.56 184.98 244.22C185.4 237.64 185.83 230.84 185.83 224.12C185.83 211.5 183.91 203.29 182.21 196.05L182.04 195.32C181.77 194.16 180.59 193.43 179.39 193.7C178.2 193.97 177.46 195.12 177.73 196.28L177.9 197.01C179.62 204.37 181.41 211.98 181.41 224.11C181.41 230.7 180.98 237.43 180.57 243.94C180.16 250.34 179.74 256.95 179.72 263.51C179.72 266.42 180.21 269.34 180.94 272.84L181.33 274.67C182.1 278.26 182.89 281.96 182.89 285.34C182.89 288.19 182.13 291.02 180.62 293.76C172.18 309.17 140.64 321.23 108.81 321.23C107.48 321.23 106.19 321.21 104.87 321.18L104.8 325.5C106.11 325.53 107.44 325.55 108.8 325.55L108.81 325.56Z" fill="#262830"/>
<path d="M107.89 307.73C107.97 307.73 108.06 307.73 108.13 307.72C128.98 305.61 150.5 296.76 164.31 284.64C165.18 283.87 165.29 282.58 164.56 281.68C146.56 259.79 130.81 226.5 121.35 190.35C121.05 189.19 119.84 188.49 118.66 188.79C117.48 189.08 116.76 190.26 117.07 191.41C126.45 227.26 141.97 260.39 159.8 282.75C146.63 293.61 126.89 301.47 107.71 303.41C106.58 303.51 105.69 304.43 105.69 305.56C105.69 306.75 106.67 307.72 107.89 307.72V307.73Z" fill="#262830"/>
<path d="M107.79 552.25C108.03 547.73 108.98 545.2 109.98 542.52C110.43 541.31 110.9 540.06 111.31 538.57C111.62 537.44 111.85 536.36 112.06 535.18C112.08 535.09 112.1 535.01 112.12 534.92C114.88 525.88 117.23 517.21 119.3 508.4C122.81 493.51 124.8 481.38 126.55 470.67C129.54 452.4 131.7 439.2 139.3 426.43C141.39 422.94 141.51 418.7 139.62 415.08C139.49 414.86 139.43 414.67 139.4 414.58C139.01 413.45 139.64 412.24 140.8 411.86C141.9 411.5 143.1 412.04 143.54 413.08C146.14 418.03 145.98 423.84 143.12 428.61C135.93 440.68 133.83 453.55 130.92 471.36C129.16 482.13 127.16 494.35 123.62 509.38C121.53 518.24 119.18 526.96 116.41 536.03C116.19 537.28 115.92 538.48 115.6 539.69C115.13 541.37 114.63 542.71 114.15 544.01C113.23 546.48 112.43 548.61 112.22 552.48C112.16 553.64 112.15 554.88 112.19 556.25C112.28 558.83 113.63 561.24 115.8 562.68C120.56 565.85 124.14 570.21 127.92 574.83C131.84 579.61 135.89 584.54 141.41 588.14C150.01 593.74 162.39 590.17 167.32 588.37C168.61 587.91 169.44 586.7 169.39 585.35L169.31 582.94C169.28 581.88 168.94 580.84 168.32 579.91C167.86 579.19 167.26 578.6 166.54 578.15L156.82 572.02C153.51 569.93 150.87 567 149.18 563.56L139.62 544.2C138.01 540.93 137.81 537.11 139.06 533.72C141.15 528.04 143.31 522.3 145.48 516.65C154.32 493.61 162.49 474.23 171.13 453.72L175.73 442.8C179.22 434.5 180.68 425.44 179.95 416.59C179.67 413.16 179.07 409.73 178.17 406.41C173.16 388.01 168.3 372.66 163.61 357.82L160.85 349.07C160.68 348.53 160.73 347.94 161.01 347.43L167.48 335.42L171.49 337.24L165.34 348.65L167.83 356.54C172.54 371.42 177.4 386.81 182.44 405.29C183.42 408.86 184.06 412.55 184.36 416.24C185.14 425.76 183.57 435.51 179.82 444.43L175.22 455.36C166.59 475.84 158.44 495.19 149.62 518.17C147.46 523.79 145.3 529.52 143.22 535.18C142.37 537.49 142.51 540.1 143.61 542.33L153.17 561.69C154.51 564.42 156.61 566.74 159.23 568.4L168.94 574.53C170.21 575.32 171.26 576.36 172.05 577.59C173.09 579.15 173.68 580.96 173.74 582.81L173.82 585.21C173.93 588.41 171.94 591.31 168.87 592.42C164.96 593.84 159.07 595.51 152.9 595.51C148.17 595.51 143.28 594.54 138.97 591.73C132.88 587.76 128.61 582.56 124.48 577.52C120.9 573.16 117.53 569.05 113.32 566.24C109.98 564.03 107.91 560.34 107.78 556.38C107.73 554.88 107.74 553.53 107.81 552.25H107.79Z" fill="#262830"/>
<path d="M44.96 228.4C44.98 226.74 45.03 224.12 45.03 223.37C45.03 220.73 44.94 218.34 43.84 215.75C43.37 214.65 43.9 213.39 45.03 212.93C46.16 212.47 47.45 212.99 47.92 214.09C49.33 217.41 49.45 220.49 49.45 223.37C49.45 224.23 49.39 227.5 49.38 229.03C48.05 228.84 46.37 228.6 44.97 228.4H44.96Z" fill="#262830"/>
<path d="M162.04 49.89C162.37 49.89 162.7 49.96 163 50.1C171.32 54.02 180.67 57.87 183.35 58.94C183.65 58.24 183.79 56.58 183.86 55.62C183.94 54.7 184.02 53.82 184.17 53L188.44 54.23C188.37 54.75 188.31 55.36 188.27 55.96C188.04 58.75 187.67 63.41 183.34 63.41C182.11 63.41 166.29 56.44 161.23 54.06C160.41 53.75 159.82 52.96 159.82 52.05C159.82 50.86 160.82 49.89 162.04 49.89Z" fill="#262830"/>
<path d="M148.66 205.05C156.49 205.05 161.96 200.08 161.96 192.96C161.96 189.11 160.72 186.86 159.15 184.01C158.77 183.33 158.37 182.59 157.94 181.76C157.39 180.69 156.06 180.26 154.97 180.8C153.88 181.33 153.44 182.63 153.99 183.7C154.43 184.57 154.86 185.34 155.26 186.05C156.68 188.63 157.54 190.19 157.54 192.95C157.54 198.68 152.95 200.72 148.66 200.72C140.13 200.72 131.29 196.73 121.66 188.51C120.74 187.72 119.34 187.82 118.54 188.72C117.74 189.62 117.83 190.98 118.75 191.76C129.22 200.69 139.01 205.04 148.66 205.04V205.05Z" fill="#262830"/>
<path d="M86.18 253.15C87.33 253.15 88.27 252.31 88.38 251.22C88.38 251.22 88.61 249.73 88.71 249.17C91.99 229.64 97 215.66 104.02 206.41C108.62 200.35 113.26 197.37 117.34 194.74C118.46 194.02 119.52 193.34 120.5 192.64C120.88 192.37 121.24 192.1 121.58 191.84C124.94 189.26 128.06 185.81 128.06 178.2C128.06 173.63 125.62 170.1 123.46 166.98C121.63 164.34 120.05 162.05 120.05 159.57C120.05 155.98 121.3 155.73 125.64 155.42C128.36 155.22 131.45 155 133.87 152.98C137.01 150.36 138.54 146.16 140.16 141.73C141.62 137.72 143.13 133.59 145.87 130.49C158.2 137.95 163.88 152.1 163.09 162.63C162.83 166.16 161.37 174.44 153.33 175.13C152.64 175.19 152.03 175.55 151.66 176.12C151.29 176.69 151.21 177.39 151.45 178.02C152.41 180.59 153.35 182.5 153.97 183.71C154.52 184.78 155.85 185.21 156.94 184.68C158.03 184.15 158.48 182.85 157.93 181.79C157.42 180.8 156.98 179.86 156.57 178.92C162.81 177.12 166.91 171.25 167.51 162.95C168.43 150.65 161.52 133.96 146.56 125.89C145.73 125.44 144.68 125.56 143.98 126.2C139.71 130.09 137.73 135.51 135.99 140.29C134.58 144.17 133.24 147.84 130.99 149.71C129.67 150.81 127.55 150.97 125.31 151.13C121.45 151.41 115.63 151.83 115.63 159.58C115.63 163.38 117.75 166.44 119.79 169.4C121.77 172.26 123.63 174.96 123.63 178.21C123.63 183.67 121.79 186.19 118.82 188.47C118.52 188.71 118.21 188.93 117.89 189.16C116.96 189.82 115.96 190.46 114.89 191.15C110.71 193.83 105.52 197.18 100.45 203.85C93 213.67 87.72 228.27 84.33 248.47C84.23 249.04 83.98 250.67 83.98 250.67C83.96 250.78 83.96 250.88 83.96 250.99C83.96 252.18 84.95 253.16 86.17 253.16L86.18 253.15Z" fill="#262830"/>
<path d="M151.9 179.26C147.78 179.26 144.07 178.37 143.85 178.32L144.85 174.23C144.92 174.25 151.5 175.82 156.03 174.59L157.13 178.65C155.47 179.1 153.65 179.26 151.9 179.26Z" fill="#262830"/>
<path d="M125.63 170.62C128.04 170.62 130.27 169.77 131.58 168.99L129.63 165.72L130.61 167.36L129.64 165.72C129.45 165.83 125.01 168.38 122.1 165.36L119.36 168.01C121.25 169.96 123.51 170.62 125.64 170.62H125.63Z" fill="#262830"/>
<path d="M101.89 115.38C102.69 114.58 103.75 114.14 104.88 114.14C106.01 114.14 107.04 114.57 107.84 115.35L112.32 119.77C113.94 121.37 113.98 124.02 112.4 125.68C112.35 125.74 106.97 131.54 106.67 139.61C106.59 141.88 104.74 143.66 102.47 143.66C102.44 143.66 102.41 143.66 96.03 143.42C94.91 143.38 93.87 142.9 93.1 142.08C92.34 141.26 91.94 140.18 91.98 139.06C92.51 124.99 101.52 115.77 101.91 115.38H101.89Z" fill="#262830"/>
<path d="M102.46 139.45C102.83 129.56 109.29 122.83 109.35 122.77L104.87 118.35C104.53 118.69 96.6299 126.81 96.1699 139.22L102.46 139.45Z" fill="#FF6000"/>
<g style="mix-blend-mode:multiply" opacity="0.4">
<path d="M323.75 149.21C340.015 149.21 353.2 145.19 353.2 140.23C353.2 135.27 340.015 131.25 323.75 131.25C307.485 131.25 294.3 135.27 294.3 140.23C294.3 145.19 307.485 149.21 323.75 149.21Z" fill="#3B529B"/>
</g>
<path d="M341.78 117.2C341.78 117.09 341.79 116.98 341.8 116.88C341.82 116.65 341.83 116.42 341.85 116.19C341.87 115.92 341.89 115.65 341.9 115.38C341.91 115.17 341.91 114.96 341.92 114.75C341.92 114.5 341.94 114.26 341.94 114.01C341.94 113.85 341.95 113.69 341.96 113.53C341.96 113.18 341.96 112.83 341.96 112.47C341.96 112.27 341.96 112.06 341.96 111.86C341.96 111.79 341.96 111.73 341.96 111.66C341.96 111.02 341.93 110.38 341.91 109.74C341.91 109.73 341.91 109.71 341.91 109.7C341.91 109.61 341.9 109.51 341.89 109.42C341.86 108.88 341.84 108.35 341.8 107.81C341.8 107.71 341.78 107.61 341.77 107.52C341.75 107.26 341.73 107 341.7 106.75C341.67 106.44 341.65 106.12 341.62 105.81C341.6 105.63 341.58 105.46 341.56 105.28C341.53 105 341.5 104.72 341.46 104.43C341.43 104.21 341.41 104 341.38 103.78C341.35 103.52 341.3 103.25 341.27 102.99C341.23 102.71 341.19 102.43 341.15 102.14C341.13 102 341.11 101.86 341.09 101.72C341.03 101.34 340.96 100.97 340.89 100.59C340.85 100.35 340.81 100.11 340.76 99.87C340.75 99.8 340.74 99.73 340.72 99.67C340.59 99 340.46 98.32 340.32 97.65C340.32 97.65 340.32 97.63 340.32 97.62C340.31 97.56 340.29 97.49 340.28 97.43C340.15 96.84 340.02 96.24 339.88 95.65C339.86 95.56 339.83 95.46 339.81 95.37C339.76 95.14 339.7 94.92 339.64 94.69C339.56 94.37 339.48 94.05 339.4 93.73C339.35 93.52 339.29 93.32 339.23 93.11C339.16 92.86 339.09 92.61 339.02 92.36C338.97 92.18 338.92 92 338.87 91.81C338.76 91.45 338.65 91.08 338.54 90.72C338.48 90.53 338.42 90.33 338.36 90.14C338.34 90.07 338.32 90 338.3 89.93C338.1 89.29 337.89 88.65 337.68 88.02C337.68 87.99 337.66 87.97 337.65 87.94C337.59 87.76 337.52 87.58 337.46 87.4C337.29 86.91 337.12 86.42 336.94 85.93C336.91 85.85 336.88 85.78 336.85 85.7C336.7 85.3 336.55 84.9 336.39 84.5C336.27 84.18 336.15 83.86 336.02 83.54C336 83.48 335.97 83.43 335.95 83.37C335.54 82.33 335.1 81.31 334.65 80.28C334.61 80.19 334.58 80.1 334.54 80.02C334.5 79.92 334.44 79.83 334.4 79.73C333.76 78.3 333.08 76.88 332.36 75.48C332.32 75.4 332.29 75.33 332.25 75.25C332.18 75.12 332.11 75 332.04 74.87C331.46 73.76 330.87 72.66 330.25 71.58C330.25 71.57 330.24 71.56 330.23 71.55C329.79 70.79 329.34 70.04 328.88 69.29C328.86 69.26 328.84 69.22 328.82 69.19C328.49 68.66 328.15 68.13 327.81 67.61C327.73 67.49 327.66 67.37 327.58 67.25C327.58 67.25 327.58 67.24 327.57 67.23C327.16 66.6 326.74 65.98 326.31 65.36C326.29 65.33 326.27 65.3 326.24 65.27C326.11 65.09 325.98 64.91 325.85 64.73C325.58 64.34 325.3 63.96 325.02 63.58C324.97 63.51 324.91 63.44 324.86 63.37C324.67 63.12 324.48 62.87 324.29 62.62C324.08 62.34 323.87 62.06 323.66 61.79C323.58 61.69 323.5 61.59 323.42 61.49C323.21 61.23 323 60.97 322.79 60.71C322.61 60.49 322.43 60.26 322.25 60.04C322.15 59.92 322.04 59.8 321.94 59.67C321.71 59.4 321.48 59.13 321.25 58.87C321.09 58.68 320.93 58.49 320.77 58.31C320.64 58.17 320.51 58.03 320.39 57.89C320.16 57.63 319.92 57.38 319.69 57.12C319.55 56.97 319.41 56.81 319.26 56.65C319.11 56.49 318.95 56.33 318.79 56.17C318.56 55.93 318.33 55.69 318.1 55.46C317.98 55.34 317.86 55.21 317.74 55.09C317.54 54.9 317.34 54.71 317.14 54.52C316.92 54.31 316.71 54.1 316.49 53.9C316.4 53.82 316.31 53.73 316.22 53.65C315.95 53.4 315.68 53.16 315.41 52.92C315.23 52.76 315.04 52.59 314.86 52.43C314.81 52.39 314.76 52.34 314.72 52.3C314.23 51.88 313.74 51.46 313.24 51.06C313.24 51.06 313.24 51.06 313.23 51.06C313.19 51.03 313.16 51 313.12 50.97C312.67 50.61 312.22 50.25 311.76 49.91C311.64 49.82 311.53 49.74 311.41 49.65C311.04 49.37 310.66 49.1 310.29 48.84C310.15 48.74 310.01 48.65 309.87 48.56C309.68 48.43 309.48 48.3 309.29 48.17C309.14 48.07 308.99 47.97 308.84 47.87C308.6 47.72 308.36 47.57 308.12 47.43C307.95 47.32 307.78 47.21 307.6 47.11C307.53 47.07 307.46 47.02 307.39 46.98C306.91 46.7 306.43 46.43 305.96 46.17C305.96 46.17 305.96 46.17 305.95 46.17C305.47 45.91 304.99 45.66 304.51 45.43C304.45 45.4 304.38 45.37 304.32 45.34C304.14 45.26 303.97 45.18 303.8 45.1C303.55 44.99 303.31 44.87 303.06 44.76C302.94 44.71 302.81 44.66 302.69 44.61C302.48 44.52 302.26 44.44 302.05 44.35C301.88 44.29 301.72 44.21 301.55 44.15C301.38 44.08 301.2 44.03 301.03 43.97C300.82 43.89 300.6 43.82 300.39 43.75C300.28 43.71 300.16 43.67 300.05 43.63C299.85 43.57 299.64 43.52 299.44 43.46C299.19 43.39 298.94 43.31 298.69 43.25C298.6 43.23 298.51 43.2 298.43 43.18C298.22 43.13 298.02 43.09 297.81 43.05C297.54 42.99 297.27 42.93 297.01 42.88C296.93 42.86 296.85 42.84 296.77 42.83C296.59 42.8 296.41 42.78 296.23 42.75C295.91 42.7 295.59 42.65 295.28 42.61C295.19 42.6 295.1 42.58 295.01 42.57C294.87 42.55 294.74 42.56 294.6 42.54C294.2 42.5 293.8 42.48 293.41 42.46C293.29 42.46 293.17 42.44 293.05 42.44C292.96 42.44 292.88 42.44 292.79 42.44C292.18 42.44 291.59 42.45 291 42.5C290.95 42.5 290.9 42.5 290.85 42.5C290.84 42.5 290.82 42.5 290.81 42.5C290.69 42.51 290.57 42.53 290.45 42.54C290.08 42.58 289.71 42.62 289.35 42.68C289.17 42.71 289 42.75 288.83 42.78C288.6 42.82 288.36 42.86 288.13 42.92C288.07 42.93 288.02 42.95 287.96 42.97C287.61 43.05 287.26 43.16 286.92 43.26C286.75 43.31 286.58 43.36 286.41 43.41C285.9 43.58 285.41 43.77 284.92 43.98L275.09 48.29C275.58 48.08 276.08 47.89 276.58 47.72C276.75 47.66 276.92 47.62 277.08 47.57C277.43 47.46 277.77 47.36 278.12 47.28C278.41 47.21 278.7 47.15 278.99 47.1C279.16 47.07 279.34 47.03 279.51 47C279.87 46.94 280.24 46.9 280.61 46.86C280.73 46.85 280.85 46.83 280.97 46.82C281.03 46.82 281.1 46.82 281.16 46.82C281.75 46.77 282.35 46.76 282.95 46.76C283.16 46.76 283.36 46.76 283.57 46.78C283.96 46.79 284.36 46.82 284.76 46.86C284.99 46.88 285.21 46.9 285.44 46.93C285.76 46.97 286.07 47.02 286.39 47.07C286.65 47.11 286.91 47.15 287.17 47.2C287.44 47.25 287.7 47.31 287.97 47.37C288.26 47.44 288.56 47.5 288.85 47.58C289.1 47.65 289.35 47.72 289.6 47.79C289.91 47.88 290.23 47.98 290.55 48.08C290.76 48.15 290.98 48.23 291.2 48.3C291.54 48.42 291.88 48.54 292.21 48.68C292.42 48.76 292.64 48.85 292.85 48.94C293.22 49.09 293.59 49.26 293.96 49.43C294.13 49.51 294.31 49.59 294.48 49.67C295.57 50.19 296.67 50.78 297.77 51.44C297.94 51.54 298.11 51.65 298.28 51.75C298.67 51.99 299.06 52.24 299.45 52.5C299.64 52.63 299.83 52.76 300.03 52.89C300.55 53.24 301.06 53.6 301.58 53.98C302.16 54.41 302.73 54.85 303.3 55.31C303.33 55.34 303.37 55.36 303.4 55.39C303.95 55.84 304.5 56.3 305.04 56.77C305.23 56.93 305.41 57.1 305.59 57.26C305.95 57.58 306.31 57.91 306.67 58.24C306.89 58.44 307.1 58.65 307.32 58.86C307.64 59.17 307.96 59.48 308.28 59.8C308.51 60.03 308.74 60.27 308.97 60.51C309.27 60.82 309.57 61.14 309.87 61.46C310.1 61.71 310.34 61.97 310.57 62.22C310.86 62.54 311.15 62.87 311.43 63.2C311.66 63.47 311.89 63.73 312.12 64C312.41 64.34 312.69 64.69 312.98 65.04C313.19 65.3 313.4 65.56 313.61 65.82C313.9 66.19 314.19 66.57 314.48 66.95C314.67 67.2 314.86 67.45 315.05 67.7C315.38 68.15 315.71 68.6 316.03 69.05C316.16 69.24 316.3 69.42 316.43 69.6C316.88 70.25 317.33 70.91 317.77 71.58C317.84 71.69 317.91 71.81 317.99 71.92C318.36 72.48 318.72 73.05 319.07 73.62C319.53 74.37 319.99 75.14 320.43 75.91C321.05 76.99 321.64 78.09 322.22 79.2C322.33 79.4 322.43 79.61 322.54 79.81C323.25 81.21 323.93 82.62 324.58 84.06C324.66 84.24 324.75 84.43 324.83 84.61C325.28 85.63 325.72 86.66 326.13 87.7C326.28 88.08 326.42 88.46 326.57 88.84C326.72 89.24 326.88 89.64 327.03 90.04C327.24 90.6 327.43 91.17 327.63 91.73C327.69 91.92 327.76 92.1 327.83 92.29C328.08 93.02 328.31 93.76 328.54 94.49C328.6 94.68 328.66 94.88 328.71 95.07C328.88 95.62 329.04 96.17 329.19 96.71C329.26 96.96 329.33 97.21 329.4 97.46C329.54 97.99 329.68 98.51 329.81 99.04C329.87 99.27 329.93 99.49 329.98 99.72C330.15 100.41 330.31 101.1 330.45 101.79C330.46 101.85 330.48 101.92 330.49 101.98C330.65 102.73 330.8 103.48 330.93 104.23C330.97 104.47 331.01 104.71 331.06 104.96C331.15 105.48 331.24 105.99 331.32 106.5C331.36 106.79 331.4 107.07 331.44 107.36C331.51 107.84 331.57 108.32 331.63 108.79C331.66 109.07 331.7 109.36 331.73 109.64C331.78 110.13 331.83 110.62 331.87 111.11C331.89 111.37 331.92 111.63 331.94 111.88C331.99 112.52 332.03 113.15 332.06 113.79C332.06 113.88 332.07 113.98 332.08 114.07C332.11 114.8 332.13 115.52 332.14 116.24C332.14 116.44 332.14 116.65 332.14 116.85C332.14 117.36 332.14 117.88 332.12 118.39C332.12 118.64 332.1 118.88 332.1 119.13C332.08 119.61 332.06 120.09 332.02 120.57C332.01 120.8 331.99 121.03 331.97 121.26C331.92 121.94 331.86 122.62 331.78 123.29C331.7 123.99 331.6 124.68 331.49 125.35C331.46 125.54 331.42 125.73 331.39 125.92C331.31 126.38 331.23 126.84 331.14 127.29C331.09 127.55 331.03 127.81 330.97 128.06C330.89 128.44 330.8 128.81 330.7 129.18C330.63 129.45 330.56 129.72 330.48 129.99C330.39 130.33 330.29 130.67 330.19 131C330.1 131.3 330 131.59 329.91 131.88C329.81 132.18 329.71 132.47 329.6 132.76C329.48 133.1 329.35 133.43 329.21 133.76C329.11 134.02 329 134.27 328.89 134.52C328.72 134.91 328.54 135.3 328.36 135.67C328.26 135.87 328.17 136.08 328.06 136.28C327.74 136.91 327.4 137.52 327.04 138.1C326.76 138.55 326.47 138.99 326.17 139.41C326.17 139.41 326.17 139.42 326.16 139.43C325.87 139.84 325.56 140.24 325.25 140.62C324.8 141.18 324.32 141.69 323.83 142.19C323.71 142.31 323.59 142.42 323.47 142.54C323 142.99 322.51 143.42 322.01 143.82C321.97 143.85 321.94 143.88 321.9 143.91C321.36 144.32 320.81 144.7 320.24 145.05C320.1 145.13 319.96 145.22 319.82 145.3C319.24 145.64 318.65 145.95 318.04 146.22L327.87 141.91C328.48 141.64 329.07 141.33 329.65 140.99C329.79 140.91 329.93 140.83 330.07 140.74C330.64 140.39 331.2 140.02 331.73 139.6C331.77 139.57 331.8 139.54 331.84 139.51C332.34 139.11 332.83 138.68 333.3 138.23C333.42 138.11 333.54 138 333.66 137.88C334.15 137.39 334.63 136.87 335.08 136.31C335.09 136.29 335.11 136.28 335.12 136.26C335.42 135.89 335.71 135.51 335.99 135.11C335.99 135.11 335.99 135.1 336 135.09C336.29 134.69 336.56 134.27 336.83 133.84C336.84 133.82 336.85 133.8 336.86 133.78C337.22 133.2 337.56 132.59 337.88 131.96C337.91 131.91 337.94 131.86 337.97 131.8C338.04 131.66 338.11 131.5 338.18 131.35C338.36 130.97 338.54 130.59 338.71 130.2C338.76 130.1 338.81 130 338.85 129.89C338.91 129.74 338.97 129.58 339.03 129.43C339.16 129.1 339.29 128.77 339.42 128.43C339.47 128.29 339.53 128.16 339.58 128.02C339.63 127.87 339.68 127.71 339.73 127.55C339.83 127.26 339.92 126.97 340.01 126.67C340.06 126.52 340.11 126.37 340.16 126.22C340.21 126.04 340.26 125.85 340.31 125.67C340.38 125.4 340.46 125.14 340.53 124.86C340.57 124.72 340.61 124.59 340.64 124.45C340.7 124.22 340.74 123.98 340.8 123.74C340.86 123.48 340.92 123.23 340.97 122.97C340.99 122.87 341.02 122.77 341.04 122.66C341.11 122.31 341.17 121.96 341.23 121.6C341.26 121.41 341.3 121.22 341.33 121.03C341.33 120.98 341.35 120.94 341.35 120.89C341.44 120.3 341.53 119.69 341.6 119.07C341.6 119.03 341.6 119 341.61 118.96C341.68 118.4 341.73 117.83 341.78 117.26V117.2Z" fill="#3B529B"/>
<g style="mix-blend-mode:multiply" opacity="0.4">
<path d="M341.85 116.18C341.87 115.91 341.89 115.64 341.9 115.37C341.91 115.16 341.91 114.95 341.92 114.74C341.92 114.49 341.94 114.25 341.94 114C341.94 113.84 341.95 113.68 341.96 113.52C341.96 113.17 341.96 112.82 341.96 112.46C341.96 112.26 341.96 112.05 341.96 111.85C341.96 111.78 341.96 111.72 341.96 111.65C341.96 111.01 341.93 110.37 341.91 109.73C341.91 109.72 341.91 109.7 341.91 109.69C341.91 109.6 341.9 109.5 341.89 109.41C341.86 108.87 341.84 108.34 341.8 107.8C341.8 107.7 341.78 107.6 341.77 107.51C341.75 107.25 341.73 106.99 341.7 106.74C341.67 106.43 341.65 106.11 341.62 105.8C341.6 105.62 341.58 105.45 341.56 105.27C341.53 104.99 341.5 104.71 341.46 104.42C341.43 104.2 341.41 103.99 341.38 103.77C341.35 103.51 341.3 103.24 341.27 102.98C341.23 102.7 341.19 102.42 341.15 102.13C341.13 101.99 341.11 101.85 341.09 101.71C341.03 101.33 340.96 100.96 340.89 100.58C340.85 100.34 340.81 100.1 340.76 99.86C340.75 99.79 340.74 99.72 340.72 99.66C340.59 98.99 340.46 98.31 340.32 97.64C340.32 97.64 340.32 97.62 340.32 97.61C340.31 97.55 340.29 97.48 340.28 97.42C340.15 96.83 340.02 96.23 339.88 95.64C339.86 95.55 339.83 95.45 339.81 95.36C339.76 95.13 339.7 94.91 339.64 94.68C339.56 94.36 339.48 94.04 339.4 93.72C339.35 93.51 339.29 93.31 339.23 93.1C339.16 92.85 339.09 92.6 339.02 92.35C338.97 92.17 338.92 91.99 338.87 91.8C338.76 91.44 338.65 91.07 338.54 90.71C338.48 90.52 338.42 90.32 338.36 90.13C338.34 90.06 338.32 89.99 338.3 89.92C338.1 89.28 337.89 88.64 337.68 88.01C337.68 87.98 337.66 87.96 337.65 87.93C337.59 87.75 337.52 87.57 337.46 87.39C337.29 86.9 337.12 86.41 336.94 85.92C336.91 85.84 336.88 85.77 336.85 85.69C336.7 85.29 336.55 84.89 336.39 84.49C336.27 84.17 336.15 83.85 336.02 83.53C336 83.47 335.97 83.42 335.95 83.36C335.54 82.32 335.1 81.3 334.65 80.27C334.61 80.18 334.58 80.09 334.54 80.01C334.5 79.91 334.44 79.82 334.4 79.72C333.76 78.29 333.08 76.87 332.36 75.47C332.32 75.39 332.29 75.32 332.25 75.24C332.18 75.11 332.11 74.99 332.04 74.86C331.46 73.75 330.87 72.65 330.25 71.57C330.25 71.56 330.24 71.55 330.23 71.54C329.79 70.78 329.34 70.03 328.88 69.28C328.86 69.25 328.84 69.21 328.82 69.18C328.77 69.1 328.72 69.03 328.67 68.95C325.41 70.33 322.05 71.75 318.76 73.14C318.86 73.29 318.95 73.44 319.05 73.59C319.51 74.34 319.97 75.11 320.41 75.88C321.03 76.96 321.62 78.06 322.2 79.17C322.31 79.37 322.41 79.58 322.52 79.78C323.23 81.18 323.91 82.59 324.56 84.03C324.64 84.21 324.73 84.4 324.81 84.58C325.26 85.6 325.7 86.63 326.11 87.67C326.26 88.05 326.4 88.43 326.55 88.81C326.7 89.21 326.86 89.61 327.01 90.01C327.22 90.57 327.41 91.14 327.61 91.7C327.67 91.89 327.74 92.07 327.81 92.26C328.06 92.99 328.29 93.73 328.52 94.46C328.58 94.65 328.64 94.85 328.69 95.04C328.86 95.59 329.02 96.14 329.17 96.68C329.24 96.93 329.31 97.18 329.38 97.43C329.52 97.96 329.66 98.48 329.79 99.01C329.85 99.24 329.91 99.46 329.96 99.69C330.13 100.38 330.29 101.07 330.43 101.76C330.44 101.82 330.46 101.89 330.47 101.95C330.63 102.7 330.78 103.45 330.91 104.2C330.95 104.44 330.99 104.68 331.04 104.93C331.13 105.45 331.22 105.96 331.3 106.47C331.34 106.76 331.38 107.04 331.42 107.33C331.49 107.81 331.55 108.29 331.61 108.76C331.64 109.04 331.68 109.33 331.71 109.61C331.76 110.1 331.81 110.59 331.85 111.08C331.87 111.34 331.9 111.6 331.92 111.85C331.97 112.49 332.01 113.12 332.04 113.76C332.04 113.85 332.05 113.95 332.06 114.04C332.09 114.77 332.11 115.49 332.12 116.21C332.12 116.41 332.12 116.62 332.12 116.82C332.12 117.33 332.12 117.85 332.1 118.36C332.1 118.61 332.08 118.85 332.08 119.1C332.06 119.58 332.04 120.06 332 120.54C331.99 120.77 331.97 121 331.95 121.23C331.9 121.91 331.84 122.59 331.76 123.26C331.68 123.96 331.58 124.65 331.47 125.32C331.44 125.51 331.4 125.7 331.37 125.89C331.29 126.35 331.21 126.81 331.12 127.26C331.07 127.52 331.01 127.78 330.95 128.03C330.87 128.41 330.78 128.78 330.68 129.15C330.61 129.42 330.54 129.69 330.46 129.96C330.37 130.3 330.27 130.64 330.17 130.97C330.08 131.27 329.98 131.56 329.89 131.85C329.79 132.15 329.69 132.44 329.58 132.73C329.46 133.07 329.33 133.4 329.19 133.73C329.09 133.99 328.98 134.24 328.87 134.49C328.7 134.88 328.52 135.27 328.34 135.64C328.24 135.84 328.15 136.05 328.04 136.25C327.72 136.88 327.38 137.49 327.02 138.07C326.74 138.52 326.45 138.96 326.15 139.38C326.15 139.38 326.15 139.39 326.14 139.4C325.85 139.81 325.54 140.21 325.23 140.59C324.78 141.15 324.3 141.66 323.81 142.16C323.69 142.28 323.57 142.39 323.45 142.51C322.98 142.96 322.49 143.39 321.99 143.79C321.95 143.82 321.92 143.85 321.88 143.88C321.34 144.29 320.79 144.67 320.22 145.02C320.08 145.1 319.94 145.19 319.8 145.27C319.22 145.61 318.63 145.92 318.02 146.19L327.85 141.88C328.46 141.61 329.05 141.3 329.63 140.96C329.77 140.88 329.91 140.8 330.05 140.71C330.62 140.36 331.18 139.99 331.71 139.57C331.75 139.54 331.78 139.51 331.82 139.48C332.32 139.08 332.81 138.65 333.28 138.2C333.4 138.08 333.52 137.97 333.64 137.85C334.13 137.36 334.61 136.84 335.06 136.28C335.07 136.26 335.09 136.25 335.1 136.23C335.4 135.86 335.69 135.48 335.97 135.08C335.97 135.08 335.97 135.07 335.98 135.06C336.27 134.66 336.54 134.24 336.81 133.81C336.82 133.79 336.83 133.77 336.84 133.75C337.2 133.17 337.54 132.56 337.86 131.93C337.89 131.88 337.92 131.83 337.95 131.77C338.02 131.62 338.09 131.47 338.16 131.32C338.34 130.94 338.52 130.56 338.69 130.17C338.74 130.07 338.79 129.97 338.83 129.86C338.89 129.71 338.95 129.55 339.01 129.4C339.14 129.07 339.27 128.74 339.4 128.4C339.45 128.26 339.51 128.13 339.56 127.99C339.61 127.84 339.66 127.68 339.71 127.52C339.81 127.23 339.9 126.94 339.99 126.64C340.04 126.49 340.09 126.34 340.14 126.19C340.19 126.01 340.24 125.82 340.29 125.64C340.36 125.37 340.44 125.11 340.51 124.83C340.55 124.69 340.59 124.56 340.62 124.42C340.68 124.19 340.72 123.95 340.78 123.71C340.84 123.45 340.9 123.2 340.95 122.94C340.97 122.84 341 122.74 341.02 122.63C341.09 122.28 341.15 121.93 341.21 121.57C341.24 121.38 341.28 121.19 341.31 121C341.31 120.95 341.33 120.91 341.33 120.86C341.42 120.27 341.51 119.66 341.58 119.04C341.58 119 341.58 118.97 341.59 118.93C341.66 118.37 341.71 117.8 341.76 117.23C341.76 117.12 341.77 117.01 341.78 116.91C341.8 116.68 341.81 116.45 341.83 116.22L341.85 116.18Z" fill="#3B529B"/>
</g>
<path d="M317.94 147.63C317.4 147.59 316.9 147.26 316.67 146.74C316.34 145.98 316.68 145.1 317.44 144.76C317.93 144.55 318.44 144.28 319.06 143.92C319.19 143.85 319.31 143.77 319.44 143.69C320.03 143.33 320.53 142.98 320.97 142.65L321.08 142.56C321.51 142.22 321.95 141.83 322.43 141.38C322.57 141.25 322.67 141.15 322.76 141.06C323.26 140.55 323.7 140.08 324.08 139.6C324.37 139.24 324.66 138.87 324.94 138.48C324.94 138.48 324.98 138.43 324.99 138.41C325.23 138.07 325.5 137.66 325.76 137.24C326.08 136.72 326.4 136.16 326.73 135.52C326.8 135.39 326.86 135.25 326.93 135.11L327.01 134.94C327.18 134.58 327.35 134.22 327.52 133.85C327.62 133.61 327.72 133.37 327.82 133.13C327.95 132.81 328.07 132.5 328.19 132.17C328.29 131.9 328.39 131.62 328.48 131.33C328.57 131.05 328.66 130.77 328.75 130.49C328.85 130.17 328.94 129.85 329.03 129.52C329.1 129.27 329.17 129.01 329.23 128.75C329.32 128.39 329.41 128.03 329.49 127.66L329.52 127.54C329.57 127.33 329.61 127.13 329.66 126.92C329.75 126.49 329.83 126.05 329.91 125.6L330.01 125.05C330.11 124.39 330.21 123.73 330.29 123.05C330.37 122.4 330.42 121.74 330.47 121.08L330.52 120.4C330.55 119.94 330.57 119.47 330.59 119C330.59 118.76 330.61 118.52 330.61 118.29C330.62 117.79 330.63 117.29 330.63 116.79V116.2C330.63 115.5 330.61 114.79 330.57 114.08V113.81C330.53 113.18 330.49 112.56 330.44 111.94L330.37 111.18C330.33 110.7 330.28 110.22 330.23 109.74C330.2 109.46 330.17 109.19 330.13 108.91C330.07 108.44 330.01 107.97 329.94 107.5L329.82 106.66C329.74 106.16 329.66 105.65 329.57 105.15L329.45 104.44C329.31 103.7 329.17 102.97 329.01 102.23L328.97 102.03C328.83 101.37 328.67 100.69 328.51 100.01L328.34 99.35C328.21 98.83 328.07 98.31 327.93 97.8L327.73 97.06C327.58 96.52 327.42 95.98 327.26 95.44L327.09 94.87C326.87 94.15 326.63 93.43 326.39 92.71L326.2 92.16C326.01 91.61 325.81 91.05 325.61 90.5C325.49 90.18 325.37 89.87 325.25 89.56L325.05 89.05C324.94 88.77 324.83 88.48 324.72 88.2C324.31 87.18 323.89 86.17 323.44 85.16L323.2 84.62C322.55 83.18 321.88 81.78 321.19 80.44L320.88 79.84C320.22 78.58 319.66 77.56 319.12 76.61C318.68 75.85 318.24 75.1 317.78 74.36C317.43 73.8 317.08 73.24 316.72 72.69L316.51 72.36C316.08 71.7 315.64 71.06 315.2 70.42L314.81 69.88C314.49 69.43 314.17 68.99 313.85 68.55C313.72 68.37 313.58 68.19 313.45 68.02L313.3 67.82C313.02 67.45 312.73 67.08 312.45 66.71C312.27 66.48 312.09 66.26 311.9 66.03L311.83 65.95C311.55 65.61 311.27 65.26 310.99 64.93C310.77 64.67 310.54 64.4 310.32 64.15C310.04 63.83 309.76 63.51 309.47 63.19C309.24 62.94 309.02 62.69 308.79 62.44C308.5 62.13 308.21 61.82 307.91 61.51C307.69 61.28 307.46 61.05 307.23 60.82C306.92 60.51 306.61 60.2 306.29 59.9C306.07 59.68 305.86 59.49 305.66 59.29C305.31 58.97 304.96 58.65 304.61 58.33L304.07 57.85C303.54 57.39 303.01 56.94 302.48 56.51L302.38 56.43C301.83 55.99 301.28 55.56 300.72 55.14C300.22 54.77 299.72 54.42 299.22 54.08L298.66 53.7C298.28 53.45 297.9 53.21 297.53 52.98L297.04 52.68C295.98 52.05 294.92 51.47 293.87 50.98L293.37 50.75C293.01 50.59 292.66 50.43 292.31 50.28C292.1 50.19 291.9 50.11 291.69 50.03C291.37 49.9 291.05 49.78 290.72 49.67C290.51 49.6 290.31 49.52 290.1 49.46C289.8 49.36 289.5 49.27 289.2 49.19L289.09 49.16C288.89 49.1 288.69 49.04 288.49 48.99C288.23 48.92 287.97 48.86 287.71 48.8L287.54 48.76C287.33 48.71 287.12 48.66 286.91 48.62C286.72 48.58 286.53 48.55 286.34 48.52L286.17 48.49C285.87 48.44 285.57 48.39 285.28 48.36C285.11 48.34 284.94 48.32 284.77 48.31H284.64C284.27 48.27 283.9 48.24 283.53 48.23C283.33 48.23 283.14 48.22 282.95 48.22C282.34 48.22 281.8 48.23 281.29 48.27C281.27 48.27 281.16 48.27 281.13 48.27L280.78 48.31C280.44 48.35 280.1 48.39 279.77 48.44C279.67 48.46 279.57 48.48 279.48 48.5L279.29 48.54C279.02 48.59 278.75 48.64 278.49 48.71C278.17 48.79 277.85 48.88 277.53 48.98L277.31 49.05C277.23 49.07 277.15 49.09 277.07 49.12C276.58 49.29 276.13 49.46 275.71 49.64H275.7C274.94 49.98 274.06 49.64 273.72 48.87C273.39 48.11 273.73 47.23 274.49 46.89L284.32 42.58C284.82 42.36 285.35 42.16 285.93 41.96C286.05 41.92 286.18 41.88 286.3 41.85L286.47 41.8C286.85 41.69 287.22 41.58 287.6 41.48C287.66 41.46 287.73 41.44 287.79 41.43C287.97 41.39 288.15 41.36 288.33 41.32L288.7 41.25C288.83 41.22 288.96 41.2 289.1 41.17C289.49 41.11 289.88 41.06 290.28 41.02H290.39C290.48 40.99 290.58 40.98 290.67 40.97C290.78 40.96 290.84 40.96 290.91 40.96C291.48 40.92 292.11 40.9 292.8 40.9C292.91 40.9 293 40.9 293.08 40.9C293.18 40.9 293.27 40.9 293.37 40.92C293.89 40.94 294.31 40.97 294.74 41.01H294.86C294.97 41.02 295.07 41.03 295.18 41.04C295.25 41.04 295.32 41.06 295.4 41.07C295.8 41.12 296.14 41.17 296.48 41.23L296.67 41.26C296.8 41.28 296.93 41.29 297.06 41.32L297.26 41.36C297.55 41.42 297.79 41.47 298.04 41.53L298.39 41.61C298.53 41.64 298.68 41.67 298.83 41.71L299.03 41.77C299.33 41.85 299.56 41.92 299.78 41.98L300.12 42.08C300.25 42.12 300.39 42.15 300.53 42.2L300.89 42.33C301.11 42.4 301.34 42.48 301.56 42.56L301.75 42.62C301.87 42.66 301.99 42.7 302.11 42.74C302.22 42.78 302.33 42.83 302.44 42.87L302.63 42.95C302.85 43.04 303.08 43.13 303.3 43.22L303.68 43.37C303.86 43.45 304.04 43.53 304.22 43.61L305.19 44.06C305.69 44.3 306.19 44.56 306.69 44.83C307.2 45.1 307.69 45.38 308.19 45.68L309.17 46.28C309.34 46.38 309.51 46.49 309.69 46.6L311.19 47.6C311.58 47.87 311.96 48.15 312.35 48.43L312.7 48.69C313.17 49.04 313.63 49.41 314.1 49.78L314.22 49.87C314.74 50.29 315.25 50.72 315.75 51.15L315.87 51.25C316.03 51.39 316.15 51.5 316.28 51.62L316.72 52.01C316.91 52.18 317.11 52.35 317.3 52.53L317.57 52.79C317.77 52.97 317.96 53.16 318.15 53.35L318.45 53.64C318.58 53.76 318.71 53.89 318.84 54.01L319.21 54.39C319.45 54.63 319.69 54.88 319.92 55.12L320.83 56.09C321.07 56.35 321.31 56.61 321.54 56.87L321.93 57.3C322.04 57.42 322.14 57.54 322.25 57.67L322.43 57.88C322.66 58.15 322.9 58.42 323.13 58.7L323.45 59.08C323.57 59.22 323.69 59.37 323.81 59.52L324.12 59.9C324.3 60.12 324.47 60.34 324.65 60.56L324.89 60.86C325.03 61.04 325.17 61.23 325.31 61.41L326.27 62.68C326.48 62.97 326.69 63.26 326.9 63.56L327.58 64.51C328.01 65.13 328.44 65.77 328.86 66.41C328.88 66.44 328.91 66.48 328.92 66.51L329.1 66.79C329.45 67.33 329.79 67.86 330.13 68.4C330.13 68.41 330.18 68.48 330.19 68.49C330.66 69.25 331.12 70.02 331.56 70.79C332.15 71.81 332.73 72.87 333.4 74.17L333.69 74.73C334.43 76.18 335.13 77.63 335.79 79.11C335.87 79.26 335.9 79.34 335.93 79.41L336.04 79.67C336.5 80.71 336.94 81.76 337.36 82.81L337.43 82.98C337.51 83.19 337.59 83.4 337.67 83.61L337.92 84.28C338.04 84.58 338.15 84.88 338.26 85.18L338.35 85.4C338.52 85.87 338.68 86.33 338.84 86.79L339.07 87.46C339.07 87.46 339.1 87.56 339.11 87.57C339.32 88.19 339.53 88.84 339.74 89.49L340.07 90.59C340.15 90.86 340.24 91.13 340.31 91.4L340.85 93.35C340.91 93.57 340.96 93.79 341.02 94.01L341.34 95.3C341.48 95.91 341.62 96.51 341.75 97.11L341.78 97.27C341.78 97.27 341.8 97.37 341.81 97.41C341.94 98.02 342.08 98.71 342.21 99.39L342.43 100.68C342.48 100.95 342.52 101.22 342.57 101.49L342.63 101.92C342.67 102.21 342.72 102.49 342.76 102.78L342.95 104.25C342.99 104.54 343.02 104.83 343.05 105.12L343.11 105.66C343.13 105.88 343.15 106.1 343.17 106.32L343.29 107.72C343.33 108.27 343.36 108.82 343.39 109.37L343.41 109.66C343.44 110.36 343.46 111.02 343.47 111.67V112.74C343.47 113.02 343.47 113.31 343.47 113.59L343.42 115.08C343.42 115.22 343.42 115.36 343.41 115.49C343.41 115.67 343.39 115.85 343.37 116.03L343.34 116.44C343.33 116.64 343.32 116.84 343.3 117.04L343.28 117.37C343.23 117.96 343.17 118.54 343.1 119.12L343.09 119.23C343.01 119.86 342.93 120.49 342.83 121.1C342.83 121.11 342.81 121.22 342.81 121.23L342.65 122.12C342.6 122.39 342.56 122.66 342.51 122.93L342.44 123.26C342.4 123.46 342.35 123.67 342.3 123.88L342.21 124.31C342.18 124.47 342.14 124.63 342.1 124.79C342.08 124.88 342.05 124.98 342.03 125.07L341.99 125.22C341.92 125.5 341.84 125.78 341.77 126.06L341.71 126.27C341.68 126.39 341.65 126.51 341.61 126.63L341.46 127.11C341.37 127.42 341.27 127.73 341.16 128.03L341.11 128.2C341.08 128.31 341.04 128.41 341.01 128.51C340.97 128.61 340.94 128.7 340.9 128.79L340.84 128.94C340.71 129.29 340.58 129.64 340.44 129.98L340.38 130.15C340.34 130.26 340.3 130.36 340.26 130.46C340.23 130.53 340.19 130.61 340.15 130.69C339.93 131.19 339.74 131.59 339.55 131.99L339.48 132.15C339.43 132.25 339.39 132.36 339.34 132.46C339.32 132.49 339.27 132.6 339.25 132.62C338.89 133.33 338.53 133.96 338.16 134.55C337.84 135.07 337.55 135.51 337.24 135.94C337.24 135.94 337.23 135.96 337.22 135.97C336.92 136.39 336.62 136.79 336.3 137.18C336.28 137.2 336.25 137.24 336.23 137.26C335.78 137.81 335.3 138.34 334.74 138.9C334.62 139.02 334.5 139.14 334.38 139.25C333.8 139.8 333.29 140.25 332.78 140.65C332.75 140.68 332.7 140.72 332.66 140.75C332.13 141.16 331.54 141.56 330.87 141.98C330.72 142.07 330.57 142.16 330.42 142.25C329.7 142.67 329.09 142.98 328.49 143.24L318.67 147.55C318.67 147.55 318.67 147.55 318.66 147.55C318.43 147.65 318.19 147.69 317.95 147.67L317.94 147.63ZM327.41 140.2C327.41 140.2 327.41 140.21 327.4 140.22C327.34 140.31 327.28 140.39 327.21 140.48L327.28 140.45C327.78 140.23 328.29 139.97 328.91 139.61C329.04 139.54 329.17 139.46 329.29 139.38C329.88 139.02 330.38 138.68 330.82 138.33L330.91 138.26C331.35 137.91 331.79 137.53 332.27 137.07C332.4 136.95 332.5 136.85 332.6 136.75C333.1 136.24 333.53 135.77 333.92 135.29C333.94 135.27 333.96 135.24 333.99 135.21C334.26 134.88 334.52 134.53 334.77 134.17C334.77 134.17 334.78 134.15 334.79 134.14C335.06 133.76 335.31 133.38 335.56 132.98C335.92 132.4 336.23 131.83 336.56 131.2C336.57 131.17 336.63 131.07 336.65 131.04L336.84 130.62C337.02 130.26 337.19 129.9 337.35 129.52L337.65 128.79C337.77 128.48 337.9 128.16 338.02 127.84L338.31 127C338.41 126.72 338.49 126.44 338.58 126.16L338.86 125.19C338.93 124.93 339 124.67 339.07 124.41L339.17 124.02C339.2 123.88 339.23 123.75 339.26 123.62L339.36 123.15C339.4 122.96 339.45 122.77 339.48 122.58L339.54 122.29C339.59 122.04 339.63 121.8 339.67 121.56L339.82 120.72L341.33 120.81L339.85 120.58C339.94 120 340.02 119.42 340.09 118.82L341.59 118.89L340.1 118.72C340.16 118.17 340.22 117.63 340.26 117.07L340.35 115.76C340.36 115.6 340.37 115.44 340.38 115.28L340.44 113.48C340.44 113.22 340.44 112.96 340.44 112.69V111.85C340.44 111.85 340.44 111.75 340.44 111.74C340.44 111.03 340.41 110.4 340.39 109.78L340.37 109.47C340.34 108.94 340.32 108.41 340.28 107.89L340.16 106.52C340.14 106.32 340.13 106.12 340.11 105.92L340.05 105.41C340.02 105.13 339.99 104.85 339.95 104.58L339.76 103.17C339.72 102.89 339.68 102.62 339.64 102.34L339.58 101.93C339.54 101.68 339.5 101.43 339.45 101.18L339.24 99.99C339.1 99.26 338.97 98.6 338.83 97.94L338.8 97.81C338.65 97.14 338.52 96.56 338.39 95.97L337.39 92.19C337.32 91.94 337.24 91.68 337.16 91.43L336.86 90.43C336.64 89.71 336.43 89.09 336.22 88.46L335.96 87.72C335.81 87.28 335.65 86.83 335.49 86.39L335.41 86.17C335.3 85.87 335.19 85.59 335.08 85.3L334.82 84.61C334.75 84.42 334.68 84.22 334.6 84.03L334.53 83.86C334.12 82.84 333.7 81.83 333.25 80.82L333.01 80.28C332.37 78.85 331.69 77.44 331 76.1L330.69 75.51C330.03 74.25 329.47 73.22 328.92 72.27C328.47 71.49 328.03 70.75 327.58 70.02C327.58 70.02 327.53 69.94 327.53 69.93C327.2 69.39 326.86 68.88 326.53 68.36L326.3 68.01C325.88 67.37 325.47 66.76 325.05 66.16L326.22 65.21L324.99 66.07L324.4 65.24C324.2 64.96 324 64.68 323.8 64.4L322.86 63.16C322.73 62.99 322.6 62.82 322.47 62.65L322.24 62.36C322.07 62.15 321.91 61.94 321.74 61.74L321.41 61.34C321.3 61.21 321.2 61.07 321.09 60.94L320.78 60.58C320.56 60.31 320.33 60.06 320.11 59.8L319.27 58.84C319.04 58.59 318.81 58.34 318.58 58.09L317.7 57.16C317.47 56.93 317.25 56.69 317.02 56.47L316.67 56.11C316.56 56 316.44 55.89 316.33 55.78L316.01 55.47C315.83 55.29 315.64 55.11 315.46 54.94L315.2 54.7C315.02 54.53 314.85 54.38 314.67 54.22L313.87 53.51C313.87 53.51 313.79 53.44 313.78 53.43C313.26 52.97 312.78 52.58 312.3 52.19C312.29 52.19 312.28 52.17 312.27 52.16L312.16 52.07C311.73 51.72 311.29 51.38 310.84 51.04L310.51 50.79C310.15 50.52 309.78 50.26 309.42 50.01L308.02 49.07C307.87 48.97 307.72 48.88 307.57 48.79L306.7 48.25C306.17 47.93 305.71 47.67 305.25 47.43C304.77 47.17 304.31 46.94 303.85 46.71L302.91 46.28C302.76 46.21 302.61 46.14 302.46 46.07L302.11 45.93C301.9 45.85 301.7 45.76 301.5 45.68L300.53 45.32C300.33 45.25 300.13 45.18 299.92 45.11L299.59 45C299.5 44.97 299.4 44.94 299.3 44.92L298.91 44.81C298.71 44.75 298.51 44.69 298.31 44.64L298.14 44.59C297.95 44.54 297.85 44.52 297.75 44.5L297.34 44.41C297.13 44.36 296.92 44.31 296.71 44.27L296.55 44.23C296.41 44.2 296.33 44.19 296.25 44.18L295.98 44.14C295.68 44.09 295.38 44.04 295.08 44.01L294.7 43.96C294.62 43.96 294.53 43.96 294.45 43.94C294.08 43.91 293.71 43.88 293.34 43.87C293.26 43.87 293.18 43.87 293.11 43.85H293.01C292.91 43.85 292.84 43.85 292.77 43.85C292.17 43.85 291.62 43.86 291.11 43.9C291.08 43.9 290.97 43.9 290.93 43.9L290.6 43.94C290.25 43.98 289.92 44.02 289.58 44.07C289.48 44.09 289.39 44.1 289.3 44.12L288.86 44.2C288.72 44.23 288.59 44.25 288.45 44.28L288.3 44.32C287.98 44.4 287.66 44.49 287.34 44.59L287.11 44.66C287.03 44.68 286.95 44.71 286.87 44.73C286.37 44.9 285.93 45.07 285.5 45.25L285.42 45.29C285.49 45.29 285.55 45.3 285.62 45.31C285.95 45.35 286.29 45.4 286.63 45.46L286.79 45.49C287.01 45.53 287.23 45.56 287.46 45.6C287.7 45.65 287.95 45.7 288.19 45.76L288.31 45.79C288.65 45.87 288.95 45.93 289.24 46.01C289.47 46.07 289.7 46.14 289.92 46.2L290.03 46.23C290.36 46.33 290.69 46.42 291.02 46.53C291.25 46.6 291.47 46.68 291.7 46.76C292.05 46.88 292.4 47.02 292.76 47.15C292.99 47.24 293.21 47.33 293.44 47.42C293.82 47.58 294.21 47.75 294.59 47.93L295.13 48.18C296.26 48.72 297.41 49.34 298.55 50.02L299.08 50.35C299.48 50.6 299.89 50.85 300.29 51.12C300.49 51.25 300.69 51.38 300.88 51.52C301.41 51.88 301.94 52.25 302.48 52.65C303.07 53.09 303.66 53.55 304.24 54.01L304.34 54.09C304.91 54.55 305.47 55.02 306.02 55.5L306.58 56.01C306.95 56.34 307.32 56.67 307.68 57.02C307.9 57.23 308.11 57.43 308.33 57.64C308.67 57.97 309 58.29 309.33 58.62C309.57 58.86 309.8 59.1 310.04 59.34C310.35 59.66 310.65 59.98 310.96 60.31C311.2 60.57 311.43 60.83 311.67 61.09C311.97 61.42 312.26 61.75 312.55 62.09C312.79 62.36 313.02 62.63 313.25 62.91C313.54 63.26 313.84 63.62 314.13 63.97L314.2 64.05C314.39 64.29 314.58 64.52 314.77 64.76C315.07 65.14 315.36 65.52 315.66 65.91L315.81 66.11C315.96 66.3 316.1 66.49 316.24 66.68C316.58 67.13 316.91 67.6 317.24 68.06L317.65 68.63C318.11 69.29 318.56 69.96 319.01 70.64L319.23 70.99C319.6 71.56 319.97 72.13 320.33 72.72C320.8 73.49 321.27 74.26 321.72 75.05C322.29 76.04 322.87 77.1 323.54 78.39L323.86 79.01C324.57 80.39 325.26 81.84 325.93 83.32L326.18 83.88C326.64 84.91 327.08 85.96 327.5 87.01C327.62 87.3 327.73 87.6 327.84 87.9L328.03 88.4C328.16 88.73 328.28 89.06 328.4 89.39C328.61 89.96 328.81 90.53 329.01 91.11L329.21 91.68C329.46 92.42 329.7 93.17 329.93 93.92L330.11 94.51C330.28 95.07 330.44 95.63 330.6 96.18L330.81 96.94C330.95 97.47 331.1 98.01 331.23 98.55L331.4 99.24C331.57 99.94 331.73 100.64 331.88 101.34L331.93 101.54C332.09 102.3 332.24 103.06 332.38 103.82L332.51 104.56C332.6 105.08 332.69 105.61 332.77 106.13L332.9 107C332.97 107.49 333.03 107.98 333.09 108.46C333.13 108.75 333.16 109.04 333.19 109.33C333.25 109.83 333.29 110.33 333.34 110.83L333.41 111.62C333.46 112.27 333.5 112.92 333.53 113.57L333.55 113.86C333.58 114.6 333.6 115.34 333.61 116.08V116.7C333.61 117.23 333.61 117.76 333.59 118.28C333.59 118.53 333.57 118.78 333.56 119.04C333.54 119.54 333.52 120.03 333.48 120.52L333.43 121.24C333.38 121.94 333.31 122.63 333.23 123.32C333.15 124.04 333.05 124.75 332.94 125.45L332.84 126.03C332.76 126.51 332.67 126.98 332.58 127.45C332.53 127.68 332.48 127.9 332.43 128.13L332.4 128.25C332.31 128.64 332.22 129.03 332.12 129.41C332.05 129.69 331.97 129.97 331.9 130.25C331.8 130.61 331.7 130.95 331.59 131.3C331.49 131.61 331.4 131.91 331.3 132.21C331.2 132.52 331.09 132.83 330.98 133.13C330.85 133.49 330.71 133.84 330.58 134.18C330.47 134.45 330.36 134.71 330.25 134.97C330.07 135.39 329.88 135.79 329.69 136.18L329.61 136.34C329.53 136.5 329.45 136.66 329.37 136.82C329.01 137.53 328.65 138.16 328.29 138.74C328 139.22 327.69 139.68 327.37 140.13L327.41 140.2Z" fill="#262830"/>
<path d="M318.044 146.138C333.702 139.268 336.78 111.785 324.92 84.7524C313.059 57.7204 290.751 41.3758 275.093 48.2459C259.435 55.1159 256.357 82.5991 268.218 109.631C280.078 136.663 302.386 153.008 318.044 146.138Z" fill="#FF6000"/>
<path d="M308.7 149.15C302.96 148.74 296.8 146.22 290.64 141.67C270.84 127.03 257.04 95.32 259.87 70.98C261.27 58.91 266.49 50.33 274.57 46.83C282.7 43.3 292.61 45.39 302.5 52.7C322.3 67.34 336.1 99.05 333.27 123.39C331.87 135.46 326.65 144.04 318.57 147.54C315.5 148.87 312.18 149.4 308.7 149.15ZM284.23 48.22C281.22 48.01 278.37 48.46 275.76 49.59C268.71 52.65 264.12 60.3699 262.85 71.3399C260.13 94.7299 273.4 125.2 292.43 139.27C301.42 145.91 310.28 147.88 317.38 144.8C324.43 141.74 329.02 134.02 330.29 123.06C333.01 99.67 319.74 69.2 300.71 55.13C295.03 50.93 289.4 48.6 284.23 48.23V48.22Z" fill="#262830"/>
<path d="M293.46 124.52C281.33 115.55 272.89 95.96 274.65 80.85C276.41 65.74 287.71 60.74 299.84 69.7C311.97 78.67 320.41 98.26 318.65 113.37C316.89 128.48 305.59 133.49 293.46 124.52ZM300.96 60.01C284.52 47.85 269.25 54.61 266.87 75.1C264.49 95.59 275.89 122.06 292.33 134.21C308.78 146.37 324.04 139.61 326.43 119.12C328.81 98.63 317.41 72.17 300.97 60.01" fill="#FFF8FF"/>
<path d="M295.89 103.6C293.02 101.48 291.02 96.8399 291.44 93.2599C291.86 89.6799 294.53 88.4999 297.4 90.6199C300.27 92.7399 302.27 97.3799 301.86 100.96C301.44 104.54 298.77 105.72 295.89 103.6ZM298.53 80.9199C291.37 75.6299 284.7 78.5799 283.66 87.4999C282.62 96.4199 287.61 107.99 294.77 113.28C301.94 118.58 308.6 115.62 309.64 106.7C310.68 97.7799 305.7 86.2099 298.53 80.9199Z" fill="#FFF8FF"/>
<path d="M306.69 141.72C301.83 141.37 296.62 139.25 291.44 135.42C274.64 123 262.95 95.86 265.38 74.93C266.6 64.41 271.14 56.94 278.15 53.9C285.08 50.89 293.5 52.64 301.85 58.81C318.66 71.23 330.35 98.37 327.91 119.3C326.69 129.82 322.15 137.3 315.14 140.34C312.51 141.48 309.66 141.94 306.68 141.73L306.69 141.72ZM286.4 55.5C283.9 55.32 281.52 55.7 279.34 56.64C273.35 59.24 269.45 65.85 268.36 75.27C266.04 95.25 277.19 121.15 293.22 133C300.68 138.51 308.04 140.14 313.95 137.58C319.94 134.98 323.84 128.37 324.93 118.95C327.25 98.97 316.1 73.07 300.06 61.22C295.35 57.74 290.68 55.81 286.39 55.5H286.4ZM304.02 130.44C300.36 130.18 296.45 128.59 292.57 125.72C280.06 116.47 271.35 96.26 273.16 80.67C274.08 72.76 277.52 67.14 282.83 64.83C288.09 62.55 294.45 63.85 300.72 68.49C313.24 77.74 321.95 97.95 320.13 113.54C319.21 121.45 315.77 127.07 310.45 129.38C308.44 130.25 306.27 130.6 304 130.44H304.02ZM294.35 123.31C299.73 127.29 305.03 128.47 309.27 126.63C313.57 124.77 316.37 120 317.16 113.19C318.86 98.55 310.69 79.58 298.94 70.9C293.56 66.92 288.26 65.74 284.02 67.58C279.72 69.44 276.92 74.21 276.13 81.01C274.43 95.65 282.6 114.62 294.34 123.3L294.35 123.31Z" fill="#262830"/>
<path d="M300.96 117.4C298.68 117.24 296.27 116.26 293.88 114.49C286.33 108.91 281.08 96.72 282.18 87.33C282.75 82.43 284.91 78.94 288.26 77.49C291.57 76.05 295.54 76.84 299.43 79.72C306.98 85.3 312.23 97.49 311.13 106.88C310.56 111.78 308.4 115.27 305.05 116.73C303.77 117.29 302.39 117.51 300.96 117.41V117.4ZM292.13 79.81C291.17 79.74 290.26 79.88 289.44 80.24C287.11 81.25 285.59 83.89 285.15 87.68C284.17 96.13 288.88 107.08 295.66 112.09C298.66 114.3 301.57 114.98 303.86 113.98C306.19 112.97 307.71 110.33 308.15 106.54C309.13 98.09 304.42 87.14 297.64 82.14C295.72 80.72 293.84 79.94 292.13 79.82V79.81ZM298.31 106.15C297.23 106.07 296.1 105.62 295 104.81C291.69 102.36 289.47 97.21 289.95 93.09C290.21 90.83 291.29 89.13 292.92 88.42C294.56 87.71 296.46 88.06 298.29 89.42C301.61 91.87 303.83 97.02 303.35 101.14C303.09 103.4 302 105.1 300.38 105.81C299.73 106.09 299.03 106.21 298.32 106.16L298.31 106.15ZM296.78 102.39C297.7 103.07 298.57 103.31 299.18 103.05C299.8 102.78 300.23 101.96 300.37 100.79C300.72 97.74 298.96 93.64 296.51 91.83C295.59 91.15 294.72 90.91 294.11 91.17C293.49 91.44 293.06 92.26 292.93 93.43C292.58 96.48 294.34 100.59 296.78 102.39Z" fill="#262830"/>
<path d="M254.87 121.67C256.27 123.43 259.02 124.55 263.25 122.04C268.79 118.75 270.11 110.92 270.18 110.51L253.96 117.81C253.5 118.55 253.78 120.3 254.87 121.67Z" fill="#32C9EA"/>
<path d="M249.67 110.53C250.36 112.51 251.87 114.17 252.82 114.4L268.67 107.44C268.24 107.16 260.11 101.82 253.94 103.54C249.23 104.86 248.78 107.96 249.67 110.52V110.53Z" fill="#32C9EA"/>
<path d="M248.78 115.51L253.59 113.4C254.3 113.09 255.01 112.78 255.72 112.46L259.98 110.59C260.83 110.22 261.68 109.84 262.54 109.47L264.34 108.68C268.9 106.68 273.59 104.62 278.3 102.56L280.37 101.65C288.51 98.08 282.16 100.87 289.55 97.62L290.42 97.24C292.06 96.52 293.67 95.81 295.23 95.13C295.26 95.12 295.29 95.11 295.32 95.1C295.4 95.08 295.48 95.08 295.57 95.1C295.6 95.1 295.63 95.12 295.66 95.12C295.72 95.14 295.78 95.15 295.84 95.18C295.84 95.18 295.86 95.18 295.87 95.18C295.9 95.2 295.94 95.22 295.97 95.24C296.01 95.27 296.06 95.29 296.1 95.32C296.1 95.32 296.12 95.33 296.13 95.34C296.17 95.37 296.22 95.42 296.26 95.46C296.29 95.48 296.31 95.5 296.34 95.53C296.34 95.53 296.35 95.53 296.36 95.54C296.43 95.61 296.51 95.69 296.58 95.78C296.6 95.81 296.62 95.84 296.64 95.86C296.7 95.93 296.75 96.01 296.81 96.09C296.81 96.1 296.83 96.12 296.83 96.13C296.89 96.22 296.95 96.32 297 96.43C297.02 96.47 297.04 96.51 297.06 96.55C297.09 96.6 297.11 96.65 297.14 96.71C297.16 96.76 297.19 96.82 297.21 96.87C297.24 96.96 297.27 97.04 297.3 97.13C297.3 97.16 297.31 97.18 297.32 97.2C297.33 97.25 297.35 97.3 297.36 97.35C297.38 97.42 297.39 97.49 297.41 97.56C297.41 97.61 297.43 97.66 297.43 97.7C297.43 97.73 297.44 97.76 297.44 97.79C297.44 97.82 297.44 97.85 297.44 97.88C297.44 97.94 297.44 98.01 297.45 98.07C297.45 98.1 297.45 98.12 297.45 98.15C297.45 98.18 297.45 98.21 297.45 98.24C297.45 98.29 297.45 98.33 297.44 98.37C297.44 98.39 297.44 98.42 297.44 98.44C297.44 98.47 297.43 98.5 297.42 98.53C297.42 98.57 297.4 98.61 297.39 98.64C297.39 98.66 297.39 98.67 297.38 98.69C297.38 98.71 297.36 98.73 297.35 98.76C297.33 98.8 297.31 98.84 297.29 98.88C297.29 98.89 297.28 98.91 297.27 98.92C297.25 98.94 297.23 98.96 297.21 98.98C297.2 99 297.18 99.01 297.17 99.03C297.12 99.07 297.07 99.11 297.01 99.14L250.53 119.51L248.77 115.49L248.78 115.51Z" fill="#262830"/>
<path d="M248.59 117.78C248.15 116.65 248.28 115.62 248.87 115.48C249.46 115.34 250.3 116.14 250.73 117.26C251.17 118.39 251.04 119.42 250.45 119.56C249.86 119.7 249.02 118.9 248.59 117.78Z" fill="#262830"/>
<path d="M250.45 119.56C251.04 119.42 251.17 118.39 250.73 117.26C250.29 116.13 249.46 115.34 248.87 115.48C248.28 115.62 248.15 116.65 248.59 117.78C249.03 118.91 249.86 119.7 250.45 119.56ZM248.69 117.74C248.37 116.92 248.35 116.12 248.64 115.75C248.71 115.66 248.8 115.6 248.9 115.58C249.43 115.45 250.23 116.24 250.64 117.3C250.96 118.12 250.98 118.92 250.69 119.29C250.62 119.38 250.53 119.44 250.43 119.46C249.9 119.59 249.1 118.8 248.69 117.74Z" fill="#262830"/>
</g>
</g>
<defs>
<linearGradient id="paint0_linear_2534_1758" x1="284.88" y1="449.69" x2="284.88" y2="65.12" gradientUnits="userSpaceOnUse">
<stop stop-color="#3B529B" stop-opacity="0"/>
<stop offset="0.06" stop-color="#3A5AA0" stop-opacity="0.07"/>
<stop offset="0.32" stop-color="#3781BA" stop-opacity="0.4"/>
<stop offset="0.56" stop-color="#35A0CE" stop-opacity="0.66"/>
<stop offset="0.75" stop-color="#33B6DD" stop-opacity="0.84"/>
<stop offset="0.91" stop-color="#32C3E6" stop-opacity="0.96"/>
<stop offset="1" stop-color="#32C9EA"/>
</linearGradient>
<linearGradient id="paint1_linear_2534_1758" x1="341.4" y1="451.93" x2="341.4" y2="2.28998" gradientUnits="userSpaceOnUse">
<stop stop-color="#3B529B" stop-opacity="0"/>
<stop offset="0.06" stop-color="#3A5AA0" stop-opacity="0.07"/>
<stop offset="0.32" stop-color="#3781BA" stop-opacity="0.4"/>
<stop offset="0.56" stop-color="#35A0CE" stop-opacity="0.66"/>
<stop offset="0.75" stop-color="#33B6DD" stop-opacity="0.84"/>
<stop offset="0.91" stop-color="#32C3E6" stop-opacity="0.96"/>
<stop offset="1" stop-color="#32C9EA"/>
</linearGradient>
<linearGradient id="paint2_linear_2534_1758" x1="313.14" y1="106.77" x2="313.14" y2="469.96" gradientUnits="userSpaceOnUse">
<stop stop-color="#33343C"/>
<stop offset="0.31" stop-color="#363F61" stop-opacity="0.61"/>
<stop offset="0.75" stop-color="#394D8B" stop-opacity="0.17"/>
<stop offset="1" stop-color="#3B529B" stop-opacity="0"/>
</linearGradient>
<linearGradient id="paint3_linear_2534_1758" x1="209.53" y1="452.1" x2="209.53" y2="198.15" gradientUnits="userSpaceOnUse">
<stop stop-color="#3B529B" stop-opacity="0"/>
<stop offset="0.06" stop-color="#3A5AA0" stop-opacity="0.07"/>
<stop offset="0.32" stop-color="#3781BA" stop-opacity="0.4"/>
<stop offset="0.56" stop-color="#35A0CE" stop-opacity="0.66"/>
<stop offset="0.75" stop-color="#33B6DD" stop-opacity="0.84"/>
<stop offset="0.91" stop-color="#32C3E6" stop-opacity="0.96"/>
<stop offset="1" stop-color="#32C9EA"/>
</linearGradient>
<linearGradient id="paint4_linear_2534_1758" x1="266.04" y1="451.3" x2="266.04" y2="167.83" gradientUnits="userSpaceOnUse">
<stop stop-color="#3B529B" stop-opacity="0"/>
<stop offset="0.06" stop-color="#3A5AA0" stop-opacity="0.07"/>
<stop offset="0.32" stop-color="#3781BA" stop-opacity="0.4"/>
<stop offset="0.56" stop-color="#35A0CE" stop-opacity="0.66"/>
<stop offset="0.75" stop-color="#33B6DD" stop-opacity="0.84"/>
<stop offset="0.91" stop-color="#32C3E6" stop-opacity="0.96"/>
<stop offset="1" stop-color="#32C9EA"/>
</linearGradient>
<linearGradient id="paint5_linear_2534_1758" x1="237.79" y1="194.87" x2="237.79" y2="488.56" gradientUnits="userSpaceOnUse">
<stop stop-color="#33343C"/>
<stop offset="0.31" stop-color="#363F61" stop-opacity="0.61"/>
<stop offset="0.75" stop-color="#394D8B" stop-opacity="0.17"/>
<stop offset="1" stop-color="#3B529B" stop-opacity="0"/>
</linearGradient>
<linearGradient id="paint6_linear_2534_1758" x1="134.17" y1="467.35" x2="134.17" y2="271.47" gradientUnits="userSpaceOnUse">
<stop stop-color="#3B529B" stop-opacity="0"/>
<stop offset="0.06" stop-color="#3A5AA0" stop-opacity="0.07"/>
<stop offset="0.32" stop-color="#3781BA" stop-opacity="0.4"/>
<stop offset="0.56" stop-color="#35A0CE" stop-opacity="0.66"/>
<stop offset="0.75" stop-color="#33B6DD" stop-opacity="0.84"/>
<stop offset="0.91" stop-color="#32C3E6" stop-opacity="0.96"/>
<stop offset="1" stop-color="#32C9EA"/>
</linearGradient>
<linearGradient id="paint7_linear_2534_1758" x1="190.69" y1="455.31" x2="190.69" y2="289.61" gradientUnits="userSpaceOnUse">
<stop stop-color="#3B529B" stop-opacity="0"/>
<stop offset="0.06" stop-color="#3A5AA0" stop-opacity="0.07"/>
<stop offset="0.32" stop-color="#3781BA" stop-opacity="0.4"/>
<stop offset="0.56" stop-color="#35A0CE" stop-opacity="0.66"/>
<stop offset="0.75" stop-color="#33B6DD" stop-opacity="0.84"/>
<stop offset="0.91" stop-color="#32C3E6" stop-opacity="0.96"/>
<stop offset="1" stop-color="#32C9EA"/>
</linearGradient>
<linearGradient id="paint8_linear_2534_1758" x1="162.43" y1="281.27" x2="162.43" y2="479.9" gradientUnits="userSpaceOnUse">
<stop stop-color="#33343C"/>
<stop offset="0.31" stop-color="#363F61" stop-opacity="0.61"/>
<stop offset="0.75" stop-color="#394D8B" stop-opacity="0.17"/>
<stop offset="1" stop-color="#3B529B" stop-opacity="0"/>
</linearGradient>
<linearGradient id="paint9_linear_2534_1758" x1="58.8101" y1="452.9" x2="58.8101" y2="356.54" gradientUnits="userSpaceOnUse">
<stop stop-color="#3B529B" stop-opacity="0"/>
<stop offset="0.06" stop-color="#3A5AA0" stop-opacity="0.07"/>
<stop offset="0.32" stop-color="#3781BA" stop-opacity="0.4"/>
<stop offset="0.56" stop-color="#35A0CE" stop-opacity="0.66"/>
<stop offset="0.75" stop-color="#33B6DD" stop-opacity="0.84"/>
<stop offset="0.91" stop-color="#32C3E6" stop-opacity="0.96"/>
<stop offset="1" stop-color="#32C9EA"/>
</linearGradient>
<linearGradient id="paint10_linear_2534_1758" x1="115.33" y1="456.92" x2="115.33" y2="370.2" gradientUnits="userSpaceOnUse">
<stop stop-color="#3B529B" stop-opacity="0"/>
<stop offset="0.06" stop-color="#3A5AA0" stop-opacity="0.07"/>
<stop offset="0.32" stop-color="#3781BA" stop-opacity="0.4"/>
<stop offset="0.56" stop-color="#35A0CE" stop-opacity="0.66"/>
<stop offset="0.75" stop-color="#33B6DD" stop-opacity="0.84"/>
<stop offset="0.91" stop-color="#32C3E6" stop-opacity="0.96"/>
<stop offset="1" stop-color="#32C9EA"/>
</linearGradient>
<linearGradient id="paint11_linear_2534_1758" x1="87.07" y1="350.16" x2="87.07" y2="479.31" gradientUnits="userSpaceOnUse">
<stop stop-color="#33343C"/>
<stop offset="0.31" stop-color="#363F61" stop-opacity="0.61"/>
<stop offset="0.75" stop-color="#394D8B" stop-opacity="0.17"/>
<stop offset="1" stop-color="#3B529B" stop-opacity="0"/>
</linearGradient>
<clipPath id="clip0_2534_1758">
<rect width="417" height="479" fill="white"/>
</clipPath>
<clipPath id="clip1_2534_1758">
<rect width="400" height="480" fill="white"/>
</clipPath>
</defs>
</svg>
