<svg width="236" height="37" viewBox="0 0 236 37" fill="none" xmlns="http://www.w3.org/2000/svg">
<path d="M53.6366 0.0634766H45.606L33.506 13.5843L30.0238 6.90599H1.78153L0.786133 12.9041H7.82814L4.65974 31.6121H11.2361L14.4045 12.9041H25.8229L29.133 18.6207L13.426 36.3938H21.5309L31.9741 24.2803L36.4618 32.7648H44.209L36.3842 19.0597L53.6366 0.0634766Z" fill="white"/>
<path d="M94.3197 12.904L95.3151 6.90596H78.2888L74.1317 31.6121H80.7047L82.24 22.5043H90.409L91.4381 16.5063H83.2489L83.8562 12.904H94.3197Z" fill="white"/>
<path d="M112.729 6.90596L110.205 22.0486C110.087 22.826 109.79 23.5096 109.318 24.096C108.842 24.6858 108.238 25.1415 107.506 25.4732C106.77 25.8016 105.944 25.9658 105.019 25.9658C104.26 25.9658 103.632 25.8184 103.136 25.5235C102.64 25.2286 102.296 24.7896 102.107 24.1999C101.918 23.6135 101.895 22.893 102.036 22.0453L104.56 6.9026H97.9839L95.46 22.0453C95.1293 24.0927 95.2778 25.8619 95.9054 27.3564C96.533 28.8509 97.5993 30.0036 99.1042 30.8145C100.609 31.6254 102.499 32.0309 104.773 32.0309C107.047 32.0309 108.913 31.6422 110.583 30.8648C112.254 30.0874 113.617 28.9548 114.669 27.4603C115.722 25.9658 116.427 24.1597 116.785 22.0419L119.309 6.89925H112.733L112.729 6.90596Z" fill="white"/>
<path d="M137.537 20.6211L130.178 6.90596H123.213L119.053 31.6121H125.629L128.045 17.3574L135.688 31.6121H142.264L146.421 6.90596H139.845L137.537 20.6211Z" fill="white"/>
<path d="M165.789 8.54454C163.896 7.47896 161.632 6.93612 159 6.90931V6.90261H150.683L146.526 31.6087H154.843C156.905 31.6087 158.842 31.3138 160.654 30.7274C162.465 30.141 164.078 29.3167 165.489 28.2578C166.899 27.1989 168.067 25.939 168.991 24.4814C169.916 23.0237 170.52 21.4119 170.803 19.646C171.228 17.153 170.985 14.9514 170.074 13.0448C169.163 11.1381 167.733 9.64028 165.792 8.54454H165.789ZM164.19 18.8686C164.024 19.8337 163.687 20.715 163.177 21.5158C162.668 22.3167 162.027 23.0103 161.258 23.5967C160.488 24.1865 159.621 24.6389 158.663 24.9572C157.704 25.2755 156.702 25.433 155.66 25.433H154.141L156.22 13.0783H157.971C159.415 13.0783 160.637 13.3263 161.632 13.8188C162.627 14.3114 163.35 14.9883 163.802 15.8495C164.25 16.7073 164.382 17.7159 164.193 18.8686H164.19Z" fill="white"/>
<path d="M171.795 31.6121H178.371L182.532 6.90596H175.956L171.795 31.6121Z" fill="white"/>
<path d="M201.121 20.6211L193.762 6.90596H186.794L182.637 31.6121H189.213L191.626 17.3574L199.268 31.6121H205.845L210.005 6.90596H203.429L201.121 20.6211Z" fill="white"/>
<path d="M223.829 17.7762L222.976 22.7188H228.368C228.202 23.2616 227.99 23.7408 227.72 24.1496C227.305 24.7729 226.755 25.2454 226.066 25.5603C225.378 25.8787 224.524 26.0362 223.509 26.0362C222.493 26.0362 221.589 25.8318 220.809 25.4196C220.026 25.0074 219.389 24.4613 218.889 23.7777C218.393 23.0941 218.049 22.3602 217.86 21.5728C217.671 20.7853 217.634 20.0146 217.752 19.2607C218.012 17.6623 218.491 16.3655 219.193 15.377C219.892 14.3885 220.728 13.6613 221.7 13.1889C222.672 12.7197 223.677 12.4818 224.72 12.4818C225.267 12.4818 225.844 12.5824 226.461 12.7801C227.079 12.9811 227.645 13.2626 228.169 13.6278C228.688 13.9931 229.08 14.4354 229.343 14.9514L235.42 12.0931C234.924 11.0343 234.252 10.0826 233.412 9.23483C232.572 8.38705 231.522 7.71687 230.267 7.22429C229.012 6.73171 227.507 6.48375 225.753 6.48375C223.596 6.48375 221.67 6.77862 219.976 7.36503C218.282 7.95479 216.831 8.78916 215.623 9.87149C214.415 10.9538 213.43 12.254 212.674 13.7719C211.915 15.2899 211.372 16.9888 211.041 18.872C210.758 20.4737 210.845 22.0553 211.307 23.6202C211.77 25.185 212.532 26.6025 213.599 27.8725C214.665 29.1424 215.984 30.1544 217.56 30.9084C219.136 31.6623 220.907 32.0376 222.874 32.0376C225.456 32.0376 227.565 31.6556 229.201 30.8916C230.834 30.1276 232.12 28.9447 233.058 27.343C233.992 25.7446 234.664 23.6973 235.065 21.2008L235.636 17.7762H223.829Z" fill="white"/>
<path d="M67.8757 6.83225H51.3791L46.7834 11.8921L46.2942 12.455H57.5607L50.4917 17.5986L50.6368 21.1707H53.0527C55.6745 21.1707 57.0951 21.938 56.9837 23.456C56.7104 27.219 48.6089 26.5556 42.5623 24.7628L46.1761 31.22C55.4349 32.7949 63.9549 31.9069 63.9076 23.2315C63.884 19.0261 60.3748 17.5718 58.7855 17.1429L66.5024 11.805L67.8723 6.82554L67.8757 6.83225Z" fill="white"/>
</svg>
