<svg width="126" height="39" viewBox="0 0 126 39" fill="none" xmlns="http://www.w3.org/2000/svg">
<g clip-path="url(#clip0_16294_160)">
<mask id="mask0_16294_160" style="mask-type:luminance" maskUnits="userSpaceOnUse" x="0" y="0" width="126" height="39">
<path d="M126 0.287109H0V38.2871H126V0.287109Z" fill="white"/>
</mask>
<g mask="url(#mask0_16294_160)">
<path d="M46.4744 11.8144H41.793V10.1279H53.0869V11.8144H48.4055V23.6974H46.4744V11.8144Z" fill="#0B111D"/>
<path d="M53.4961 16.9134C53.4961 12.9395 56.578 9.97363 60.7718 9.97363C64.9656 9.97363 68.0085 12.9201 68.0085 16.9134C68.0085 20.9067 64.9266 23.8532 60.7718 23.8532C56.617 23.8532 53.4961 20.8873 53.4961 16.9134ZM66.0579 16.9134C66.0579 13.9088 63.7952 11.6989 60.7718 11.6989C57.7484 11.6989 55.4467 13.9088 55.4467 16.9134C55.4467 19.9181 57.7094 22.128 60.7718 22.128C63.8342 22.128 66.0579 19.9181 66.0579 16.9134Z" fill="#0B111D"/>
<path d="M81.3275 14.8579C81.3275 17.8044 79.1818 19.5878 75.6318 19.5878H72.2572V23.6974H70.3066V10.1279H75.6318C79.1818 10.1279 81.3275 11.9113 81.3275 14.8579ZM79.3769 14.8579C79.3769 12.9194 78.07 11.8144 75.5732 11.8144H72.2572V17.9013H75.5732C78.07 17.9013 79.3769 16.7963 79.3769 14.8579Z" fill="#0B111D"/>
<path d="M86.8865 11.8144H82.2051V10.1279H93.499V11.8144H88.8176V23.6974H86.8865V11.8144Z" fill="#0B111D"/>
<path d="M95.625 10.1279H97.5756V23.6974H95.625V10.1279Z" fill="#0B111D"/>
<path d="M111.583 22.0109V23.6974H101.674V10.1279H111.31V11.8144H103.624V15.9822H110.471V17.6299H103.624V22.0109H111.583Z" fill="#0B111D"/>
<path d="M123.869 23.6974L120.924 19.5296C120.651 19.549 120.358 19.5684 120.065 19.5684H116.691V23.6974H114.74V10.1279H120.065C123.615 10.1279 125.761 11.9113 125.761 14.8579C125.761 16.9514 124.669 18.4634 122.757 19.1419L125.995 23.6974H123.869ZM123.81 14.8579C123.81 12.9194 122.504 11.8144 120.007 11.8144H116.691V17.9207H120.007C122.504 17.9207 123.81 16.7963 123.81 14.8579Z" fill="#0B111D"/>
<path d="M60.2645 28.4477H58.3223V27.7471H63.0093V28.4477H61.067V33.3798H60.2645V28.4477Z" fill="#0B111D"/>
<path d="M71.0768 33.3799L69.8535 31.6491C69.7393 31.6574 69.6195 31.6658 69.4969 31.6658H68.0952V33.3799H67.2871V27.75H69.4969C70.9709 27.75 71.8599 28.4894 71.8599 29.7134C71.8599 30.583 71.4056 31.2088 70.6143 31.4913L71.9574 33.3827H71.074L71.0768 33.3799ZM71.0545 29.7106C71.0545 28.9076 70.5112 28.4479 69.4773 28.4479H68.1008V30.9817H69.4773C70.5139 30.9817 71.0545 30.5165 71.0545 29.7106Z" fill="#0B111D"/>
<path d="M80.1825 31.9702H77.1703L76.5461 33.377H75.7129L78.2793 27.7471H79.0818L81.6566 33.377H80.8067L80.1825 31.9702ZM79.8983 31.3277L78.675 28.5695L77.4517 31.3277H79.8955H79.8983Z" fill="#0B111D"/>
<path d="M85.9004 27.7471H88.2885C90.1109 27.7471 91.3481 28.888 91.3481 30.5634C91.3481 32.2388 90.1109 33.3798 88.2885 33.3798H85.9004V27.7498V27.7471ZM88.2383 32.6791C89.6372 32.6791 90.5372 31.8262 90.5372 30.5634C90.5372 29.3006 89.64 28.4477 88.2383 28.4477H86.7085V32.6791H88.2383Z" fill="#0B111D"/>
<path d="M100.093 32.6793V33.3799H95.9805V27.75H99.9792V28.4506H96.7914V30.1814H99.6336V30.8654H96.7914V32.6821H100.093V32.6793Z" fill="#0B111D"/>
<path d="M108.592 33.3799L107.369 31.6491C107.255 31.6574 107.135 31.6658 107.012 31.6658H105.611V33.3799H104.803V27.75H107.012C108.487 27.75 109.375 28.4894 109.375 29.7134C109.375 30.583 108.921 31.2088 108.13 31.4913L109.473 33.3827H108.59L108.592 33.3799ZM108.567 29.7106C108.567 28.9076 108.024 28.4479 106.99 28.4479H105.614V30.9817H106.99C108.027 30.9817 108.567 30.5165 108.567 29.7106Z" fill="#0B111D"/>
<path d="M18.5301 0.285156L17.8446 0.969167L17.1564 1.65041L15.7826 3.01843L15.4677 3.33136L14.0605 4.72984H14.0661C14.824 4.72984 15.4398 5.33908 15.4398 6.09233L15.4677 19.6479H21.6204L21.6316 6.0951C21.6316 5.34185 22.2474 4.72984 23.0054 4.72984L19.9095 1.65318L19.2212 0.969167L18.5329 0.285156H18.5301Z" fill="#0B111D"/>
<path d="M13.524 6.62891L13.223 6.92799L11.5762 8.56463L4.398 15.6983L2.98242 17.1051H5.84701C6.60495 17.1051 7.22078 17.7171 7.22078 18.4703V19.6473H13.524V6.62891Z" fill="#0B111D"/>
<path d="M23.5547 6.63965V19.658H29.8579V18.4811C29.8579 17.7278 30.4737 17.1158 31.2317 17.1158H34.0963L32.6807 15.709L25.5025 8.57537L23.8556 6.93873L23.5547 6.63965Z" fill="#0B111D"/>
<path d="M37.076 21.5817L35.7747 22.8777L32.6872 25.9433L27.5098 31.0886V30.1692C27.5098 28.8594 26.4425 27.796 25.1217 27.796H23.0429V38.2583L23.0178 38.2832L21.6413 36.9152H21.6385L21.6441 36.9069L18.5398 33.8219H18.537L18.5315 33.8247L15.4746 36.8626L15.43 36.9069H15.4328L15.43 36.9124L14.0563 38.2777L14.0423 38.2638V27.7904H11.9635C10.6455 27.7904 9.57546 28.8511 9.57546 30.1637V31.0942L4.4036 25.9544L1.30494 22.875L-0.00195312 21.5762H37.0733L37.076 21.5817Z" fill="#0B111D"/>
</g>
</g>
<defs>
<clipPath id="clip0_16294_160">
<rect width="126" height="39" fill="white"/>
</clipPath>
</defs>
</svg>
