<svg width="89" height="48" viewBox="0 0 89 48" fill="none" xmlns="http://www.w3.org/2000/svg">
<path d="M69.8266 -6.10352e-05H59.2164L43.2298 17.8638L38.6291 9.04034H1.31513L0 16.9651H9.30398L5.11786 41.6823H13.8066L17.9927 16.9651H33.0788L37.4522 24.5179L16.6999 47.9999H27.4082L41.2059 31.9955L47.1351 43.2053H57.3708L47.0326 25.0979L69.8266 -6.10352e-05Z" fill="#59D249"/>
<path d="M88.6395 8.94291H66.844L60.7721 15.628L60.1257 16.3718H75.0112L65.6715 23.1676L65.8632 27.887H69.0552C72.5191 27.887 74.396 28.9009 74.2488 30.9064C73.8877 35.8782 63.1839 35.0016 55.1951 32.633L59.9697 41.1643C72.2026 43.2451 83.4592 42.0719 83.3968 30.6098C83.3656 25.0536 78.7292 23.1322 76.6294 22.5655L86.825 15.5129L88.635 8.93405L88.6395 8.94291Z" fill="#59D249"/>
</svg>
