<svg width="90" height="48" viewBox="0 0 90 48" fill="none" xmlns="http://www.w3.org/2000/svg">
<path d="M70.228 -0.00012207H59.6178L43.6312 17.8637L39.0305 9.04028H1.7165L0.401367 16.965H9.70534L5.51922 41.6822H14.208L18.3941 16.965H33.4802L37.8536 24.5179L17.1013 47.9999H27.8095L41.6072 31.9955L47.5365 43.2052H57.7722L47.4339 25.0978L70.228 -0.00012207Z" fill="#0979FF"/>
<path d="M89.0408 8.94285H67.2454L61.1735 15.628L60.5271 16.3717H75.4125L66.0729 23.1675L66.2646 27.887H69.4566C72.9205 27.887 74.7973 28.9008 74.6502 30.9063C74.2891 35.8781 63.5853 35.0015 55.5964 32.6329L60.371 41.1642C72.604 43.245 83.8606 42.0718 83.7982 30.6097C83.7669 25.0535 79.1306 23.1321 77.0308 22.5654L87.2264 15.5129L89.0364 8.93399L89.0408 8.94285Z" fill="#0979FF"/>
</svg>
