<svg width="328" height="60" viewBox="0 0 328 60" fill="none" xmlns="http://www.w3.org/2000/svg">
<path d="M46.1782 0.871681L44.142 2.9149L42.0988 4.95109L38.0158 9.03752L37.0769 9.97297L32.8955 14.1544H32.9095C35.1603 14.1544 36.9854 15.976 36.9925 18.2267L37.0804 58.7394H55.3498L55.3815 18.2338C55.3815 15.9795 57.2101 14.1544 59.4644 14.1544L50.2681 4.95812L48.2249 2.9149L46.1782 0.868164V0.871681ZM31.3024 19.8339L30.4127 20.7236L25.5244 25.6119L4.20249 46.9338L0 51.1363H8.50345C10.7577 51.1363 12.5864 52.965 12.5864 55.2192V58.7359H31.3059V19.8304L31.3024 19.8339ZM61.0891 19.862V58.7676H79.8086V55.2509C79.8086 52.9966 81.6373 51.1679 83.8916 51.1679H92.395L88.1925 46.9654L66.8706 25.6435L61.9823 20.7553L61.0926 19.8655L61.0891 19.862Z" fill="white"/>
<path d="M117.754 18.1436H112.599V59.0501H140.441V54.2428H117.754V18.1436Z" fill="white"/>
<path d="M152.471 40.8018H174.465V36.107H152.471V22.8384H177.057V18.1436H147.316V59.0501H177.342V54.3553H152.471V40.8018Z" fill="white"/>
<path d="M201.221 52.3684L187.087 18.1436H181.358L198.949 59.3385H203.38L220.967 18.1436H215.411L201.221 52.3684Z" fill="white"/>
<path d="M232.383 40.8018H254.376V36.107H232.383V22.8384H256.968V18.1436H227.227V59.0501H257.257V54.3553H232.383V40.8018Z" fill="white"/>
<path d="M270.036 18.1436H264.88V59.0501H292.722V54.2428H270.036V18.1436Z" fill="white"/>
<path d="M324.478 40.3187C322.319 38.5322 318.936 37.1149 314.414 36.1091C312.212 35.652 310.387 35.1631 308.987 34.6532C307.605 34.1503 306.508 33.5841 305.731 32.9722C304.971 32.3744 304.44 31.7203 304.155 31.0239C303.863 30.3171 303.716 29.4942 303.716 28.5763V28.4603C303.716 26.6984 304.433 25.26 305.907 24.0608C307.38 22.8651 309.427 22.2567 311.99 22.2567C314.016 22.2567 315.989 22.5979 317.846 23.2731C319.703 23.9483 321.581 25.0561 323.43 26.5612L323.673 26.7617L326.69 22.7632L326.458 22.5803C324.369 20.9169 322.182 19.6544 319.956 18.8209C317.723 17.9874 315.082 17.5654 312.107 17.5654C310.165 17.5654 308.351 17.8503 306.712 18.4165C305.07 18.9827 303.624 19.7775 302.414 20.7727C301.198 21.775 300.238 22.9812 299.569 24.3562C298.901 25.7348 298.56 27.2505 298.56 28.8647V28.9807C298.56 30.6652 298.841 32.1599 299.394 33.4188C299.949 34.6849 300.811 35.8067 301.961 36.7562C303.097 37.6952 304.553 38.504 306.29 39.1652C308.006 39.8193 310.053 40.4066 312.363 40.906C314.456 41.3596 316.196 41.8414 317.547 42.3338C318.873 42.8191 319.924 43.3642 320.663 43.955C321.387 44.5352 321.901 45.1823 322.189 45.8786C322.481 46.5855 322.629 47.3908 322.629 48.2665V48.3825C322.629 50.2991 321.865 51.8289 320.297 53.0668C318.729 54.3047 316.594 54.9307 313.949 54.9307C311.305 54.9307 308.745 54.4665 306.645 53.5451C304.535 52.6237 302.411 51.1959 300.336 49.3109L300.104 49.0999L296.89 52.905L297.108 53.102C299.541 55.3034 302.14 56.9598 304.827 58.0254C307.517 59.091 310.528 59.629 313.777 59.629C315.792 59.629 317.684 59.3547 319.397 58.8096C321.116 58.2645 322.608 57.4697 323.831 56.4499C325.059 55.4265 326.033 54.1851 326.733 52.7503C327.432 51.312 327.788 49.6908 327.788 47.9254V47.8093C327.788 44.6583 326.676 42.1403 324.482 40.3222L324.478 40.3187Z" fill="white"/>
</svg>
