<svg width="35" height="35" viewBox="0 0 35 35" fill="none" xmlns="http://www.w3.org/2000/svg">
<path d="M21.7898 20.6993L21.0761 21.2311L21.9015 21.564C24.647 22.6712 26.9373 24.663 28.4048 27.2183C28.5039 27.4055 28.5266 27.6231 28.4683 27.8262C28.4094 28.0313 28.2723 28.2066 28.0848 28.3142C27.8971 28.4219 27.6742 28.4531 27.4635 28.4007C27.2551 28.3488 27.0758 28.2196 26.9618 28.041C24.8596 24.4386 21.1433 22.2814 17.0217 22.2814C12.8972 22.2814 9.17838 24.4405 7.07693 28.0488L7.07275 28.056L7.06882 28.0633C7.01638 28.1606 6.94466 28.2467 6.85775 28.3163C6.77083 28.3859 6.67052 28.4376 6.56273 28.4682C6.45493 28.4987 6.342 28.5074 6.23067 28.4937C6.11935 28.48 6.01208 28.4443 5.91524 28.3887C5.8184 28.3331 5.73402 28.2589 5.66701 28.1706C5.6 28.0823 5.55167 27.9817 5.52475 27.8749C5.49783 27.768 5.49281 27.6569 5.50998 27.5482C5.52716 27.4394 5.56619 27.335 5.62491 27.2412L5.63003 27.233L5.63483 27.2247C7.10223 24.6663 9.39399 22.6721 12.1418 21.564L12.9672 21.2311L12.2535 20.6993C10.9195 19.7055 9.93473 18.3203 9.43792 16.7404C8.94112 15.1605 8.95731 13.4655 9.48421 11.8952C10.0111 10.325 11.0222 8.95858 12.375 7.99003C13.7277 7.02145 15.3534 6.5 17.0217 6.5C18.6899 6.5 20.3156 7.02145 21.6684 7.99003C23.0211 8.95858 24.0322 10.325 24.5591 11.8952C25.086 13.4655 25.1022 15.1605 24.6054 16.7404C24.1086 18.3203 23.1238 19.7055 21.7898 20.6993ZM10.7436 14.3923L10.7436 14.3929C10.7455 16.0482 11.4083 17.6344 12.5855 18.8038C13.7626 19.9731 15.3578 20.6303 17.0211 20.6322H17.0217C18.2626 20.6322 19.4759 20.2667 20.5083 19.5814C21.5406 18.8962 22.3458 17.9219 22.8214 16.7813C23.297 15.6407 23.4214 14.3855 23.1789 13.1744C22.9364 11.9633 22.338 10.8514 21.4597 9.97892C20.5815 9.10651 19.463 8.51277 18.2458 8.27225C17.0287 8.03174 15.767 8.15515 14.6202 8.62701C13.4734 9.09889 12.4927 9.8982 11.8025 10.9244C11.1122 11.9506 10.7436 13.1575 10.7436 14.3923Z" fill="#3652A7" stroke="#3652A7"/>
<circle cx="17.5" cy="17.5" r="16.25" stroke="#3652A7" stroke-width="2.5"/>
</svg>
