<svg width="1728" height="1060" viewBox="0 0 1728 1060" fill="none" xmlns="http://www.w3.org/2000/svg">
<g clip-path="url(#clip0_18225_86)">
<rect width="1728" height="1060" fill="white"/>
<rect x="-6" y="1050" width="1739" height="2246" fill="url(#paint0_linear_18225_86)"/>
<rect x="1728" y="0.00012207" width="1060" height="1728" transform="rotate(90 1728 0.00012207)" fill="#4D2EAA"/>
<rect x="1728" y="0.00012207" width="1060" height="1728" transform="rotate(90 1728 0.00012207)" fill="url(#paint1_radial_18225_86)"/>
<mask id="mask0_18225_86" style="mask-type:alpha" maskUnits="userSpaceOnUse" x="0" y="0" width="1728" height="1060">
<rect y="0.00012207" width="1728" height="1060" fill="url(#paint2_linear_18225_86)"/>
</mask>
<g mask="url(#mask0_18225_86)">
<path d="M1829.02 461.777L1822.19 423.815C1819.85 410.768 1809.02 401.786 1798.02 403.746L1791.09 404.984C1780.09 406.948 1773.07 419.117 1775.41 432.16L1783.65 477.964C1772.84 482.975 1762.38 488.719 1752.37 495.186C1742.48 501.571 1732.85 508.706 1723.01 515.368L1710.06 467.979L1725.58 463.773L1722.76 453.467L1707.25 457.673L1702.09 438.776L1693.53 441.095L1698.69 459.993L1683.18 464.198L1686 474.504L1701.51 470.298L1715.22 520.492C1702.26 528.716 1688.76 535.605 1673.73 538.487C1662.75 540.596 1651.66 540.408 1640.54 539.311L1631.13 486.997C1628.79 473.95 1617.97 464.968 1606.96 466.928L1600.03 468.166C1589.03 470.13 1582.01 482.299 1584.36 495.342L1591.11 532.887C1578.51 531.938 1565.87 532.059 1553.22 532.652L1563.33 482.486L1553.69 464.87L1520.85 464.87L1513.69 484.166L1527.13 534.355C1525.8 534.457 1524.49 534.558 1523.17 534.66C1511.18 535.581 1499.14 536.515 1487.19 537.96L1482.26 506.558C1480.81 497.307 1473.49 490.765 1465.91 491.945L1461.14 492.687C1453.57 493.866 1448.6 502.325 1450.05 511.576L1455.07 543.536C1450.06 544.739 1445.1 546.117 1440.18 547.719C1427.96 551.702 1416.28 556.982 1404.79 562.711L1397.83 537.249L1414.32 532.777L1412 524.28L1395.51 528.751L1391.25 513.173L1382.16 515.641L1386.41 531.219L1369.92 535.691L1372.24 544.188L1388.73 539.717L1396.21 567.073C1382.96 573.915 1369.84 581.081 1356.3 587.266C1348.31 590.914 1340.15 594.202 1331.87 597.139L1340.1 556.298L1330.46 538.682L1297.62 538.682L1290.46 557.978L1303.25 605.742C1288.72 609.35 1273.93 611.912 1259.02 613.416L1261.91 577.281C1262.97 564.07 1254.79 552.643 1243.65 551.757L1236.63 551.198C1225.49 550.316 1215.6 560.309 1214.54 573.52L1211.26 614.603C1188.26 613.431 1165.39 609.725 1143.23 603.449L1152.52 569.502L1169.01 573.981L1171.33 565.483L1154.85 561.004L1159.11 545.426L1150.01 542.954L1145.75 558.532L1129.26 554.053L1126.94 562.55L1143.42 567.03L1134.19 600.743C1095.72 588.657 1057.02 570.197 1017.5 577.289C999.196 580.573 982.022 589.258 964.425 595.182L978.133 545.11L1004.4 552.245L1008.1 538.713L981.838 531.578L988.631 506.769L974.143 502.832L967.35 527.642L941.086 520.507L937.381 534.039L963.645 541.174L947.62 599.7C942.9 600.583 938.122 601.102 933.249 601.106C898.679 601.138 869.702 575.652 836.429 566.303C824.477 562.945 812.074 561.684 799.46 561.555L789.205 504.523C786.457 489.231 773.772 478.698 760.871 480.999L752.745 482.447C739.848 484.748 731.62 499.013 734.368 514.306L743.525 565.241C719.288 567.393 695.56 568.561 674 562.094L674 1181.54L1850 1181.54L1850 457.251C1842.95 458.477 1835.95 459.989 1829.02 461.773L1829.02 461.777Z" fill="url(#paint3_linear_18225_86)"/>
<path d="M208.395 665.703L226.66 598.892L206.057 593.31L209.795 579.632L230.398 585.214L237.255 560.134L248.621 563.213L241.764 588.293L262.367 593.875L258.629 607.552L238.026 601.97L220.344 666.647C235.412 667.88 250.465 669.269 265.496 670.793L273.41 626.796C276.524 609.48 290.899 597.56 305.515 600.161L314.72 601.804C329.335 604.411 338.655 620.561 335.541 637.872L328.341 677.899C334.24 678.629 340.134 679.371 346.017 680.133C359.247 681.843 372.467 683.626 385.682 685.46L374.269 628.864L387.072 605.484H430.693L440.201 631.093L424.164 690.949C436.035 692.68 447.901 694.447 459.762 696.23L453.472 670.104C449.354 653 457.721 636.338 472.159 632.896L481.255 630.725C495.693 627.278 510.735 638.354 514.854 655.462L527.147 706.513C535.285 707.762 543.428 709.011 551.566 710.255L561.037 657.613C564.151 640.297 578.526 628.377 593.141 630.978L602.347 632.621C616.962 635.228 626.282 651.378 623.168 668.689L613.999 719.636C626.891 721.528 639.788 723.383 652.685 725.187L666.488 674.706L644.583 668.772L647.665 657.494L669.57 663.428L675.224 642.754L687.309 646.029L681.655 666.704L703.559 672.638L700.477 683.916L678.572 677.982L665.191 726.923C696.192 731.178 727.223 735.112 758.302 738.517L747.201 683.465L760.005 660.085H803.626L813.133 685.694L797.904 742.544C820.584 744.669 843.301 746.468 866.054 747.857L854.271 704.849L832.372 710.794L829.284 699.516L851.184 693.572L845.519 672.897L857.603 669.617L863.268 690.291L885.168 684.346L888.255 695.624L866.356 701.569L879.248 748.619C884.991 748.929 890.734 749.209 896.482 749.463C899.554 749.598 902.62 749.722 905.692 749.842L915.45 695.608C918.563 678.293 932.939 666.372 947.554 668.974L956.759 670.617C971.374 673.224 980.694 689.374 977.581 706.684L969.562 751.251C992.352 751.386 1015.15 751.153 1037.95 750.624L1013.56 661.594L978.674 671.063L973.754 653.104L1008.64 643.635L999.615 610.708L1018.86 605.484L1027.88 638.411L1062.77 628.942L1067.69 646.9L1032.8 656.369L1058.48 750.07C1070.12 749.712 1081.76 749.277 1093.4 748.784L1086.16 676.987C1083.7 652.596 1099.88 631.004 1122.31 628.765L1136.43 627.351C1155.55 625.438 1173.02 638.209 1179.29 657.131C1215.49 675.214 1247.87 702.082 1272.72 735.366C1273.43 735.366 1274.14 735.371 1274.84 735.382C1271.04 723.477 1264.81 712.194 1257.5 701.957C1247.32 687.699 1234.83 674.965 1222.39 662.532C1248.91 681.853 1276.17 703.632 1289.67 734.164C1283.85 708.918 1272.02 684.486 1254.87 663.677C1269.79 676.738 1282.62 692.566 1292.59 710.297C1291.13 702.802 1289.11 695.375 1286.52 688.104C1280.16 670.264 1270.42 653.332 1257.62 638.68C1284.84 662.376 1303.41 695.733 1309.7 731.546C1310.09 731.417 1310.48 731.282 1310.87 731.147C1307.1 700.651 1297.16 670.389 1281.45 642.806C1297 662.21 1309.69 684.258 1318.83 707.985C1317.36 700.066 1315.41 692.214 1313.13 684.486C1311.72 679.666 1310.17 674.882 1308.54 670.114C1307.96 669.974 1307.39 669.829 1306.8 669.699C1307.35 669.741 1307.9 669.798 1308.45 669.845C1303.86 656.478 1298.55 643.308 1293.23 630.217C1299.41 640.919 1305.64 651.772 1311.43 662.858C1309.1 655.281 1306.96 647.641 1305.57 639.898C1309.54 650.653 1314.91 660.93 1320.18 671.223C1331.59 672.918 1342.85 675.608 1353.82 679.241C1354.48 668.093 1354.5 656.862 1353.84 645.604C1343.97 637.898 1333.64 630.719 1322.89 624.127C1342.8 633.259 1361.9 644.423 1379.84 657.38L1389.39 626.526L1384.12 660.515C1386.46 662.257 1388.78 664.029 1391.07 665.833C1393.78 659.344 1396.51 652.866 1399.27 646.397C1395.83 642.873 1392.35 639.38 1388.88 635.907C1392.64 638.654 1396.42 641.437 1400.18 644.267C1402.51 638.825 1404.86 633.399 1407.22 627.978C1405.55 633.928 1403.9 639.883 1402.27 645.843C1409.64 651.43 1416.94 657.214 1424 663.273C1426.22 660.225 1428.49 657.219 1430.81 654.255C1428.97 657.66 1427.19 661.096 1425.47 664.553C1428.93 667.559 1432.32 670.627 1435.62 673.778C1439.53 669.181 1443.53 664.677 1447.63 660.277C1442.63 652.358 1437.12 644.708 1431.1 637.4C1438.03 643.464 1444.6 649.989 1450.78 656.919C1451.66 656.001 1452.53 655.084 1453.42 654.172C1452.67 655.229 1451.92 656.297 1451.18 657.359C1452.43 658.764 1453.67 660.184 1454.89 661.625C1458.2 658.162 1461.54 654.742 1464.92 651.363C1457.14 634.731 1447 619.001 1434.67 604.893C1448.4 616.845 1460.44 630.688 1470.51 645.874C1471.78 644.64 1473.05 643.407 1474.33 642.184C1473.18 643.609 1472.04 645.05 1470.91 646.486C1477.8 656.95 1483.75 668.046 1488.68 679.599C1490.33 677.951 1491.82 676.137 1493.09 674.1C1486.42 652.088 1477.26 630.611 1465.66 610.258C1478.25 625.962 1489.39 642.998 1498.88 661.065C1500.22 658.743 1501.87 656.276 1503.55 653.752C1497 633.508 1489 613.632 1480.99 593.895C1489.03 607.811 1497.12 621.919 1504.65 636.338C1501.62 626.48 1498.84 616.549 1497.03 606.484C1501.13 617.591 1506.37 628.299 1511.79 638.939C1513.15 634.544 1512.71 630.626 1508.62 627.801C1533.61 595.771 1486.04 580.617 1489.52 552.08C1501.89 561.466 1509.6 574.636 1521.43 587.07C1526.71 539.403 1493.54 531.318 1502.53 523.144C1511.28 515.904 1504.6 507.098 1504.42 498.225C1504.76 479.785 1461.72 480.381 1460.35 462.474C1459.83 453.15 1454.95 445.775 1447.69 440.286C1447.52 440.364 1447.36 440.437 1447.19 440.515C1439.82 430.911 1432.52 423.997 1421.01 419.14C1401.46 404.955 1409.9 378.663 1403.48 358.455C1401.32 348.467 1397.65 346.332 1387.53 346.171C1376.53 346.684 1365.12 345.301 1354.05 344.902C1351.59 341.486 1344.23 337.64 1339.62 337.48C1337.98 333.442 1335.43 329.638 1332.3 325.984C1332.44 325.855 1332.59 325.741 1332.74 325.611C1325.01 318.267 1316.41 312.188 1307.97 306.481C1307.94 306.756 1307.91 307.015 1307.87 307.285C1305.49 306.077 1303.02 305.056 1300.56 304.196C1300.56 303.817 1300.57 303.475 1300.58 303.092C1289.8 301.485 1277.69 300.184 1267.58 306.118C1258.61 310.223 1240.71 311.052 1235.43 318.184C1233.16 318.78 1230.95 319.516 1228.85 320.444V317.982C1219.11 320.76 1203.6 321.714 1197.14 328.301C1187.51 342.284 1172.42 354.687 1177.19 375.086C1178.07 378.823 1178.55 383.918 1173.25 385.006C1165.69 386.556 1163.63 392.242 1161.05 398.119C1141.16 432.326 1145.18 451.751 1141.73 488.907C1140.2 506.238 1117.59 522.859 1101.49 511.493C1093.12 505.73 1091.14 488.311 1102.36 482.501C1097.93 520.994 1134.19 505.269 1131.63 479.774C1129.85 465.434 1126.87 451.248 1124.3 436.441C1116.16 441.883 1108.77 443.453 1099.31 442.152C1089.44 446.501 1080.11 456.923 1068.66 456.001C1068.57 455.369 1068.48 454.736 1068.4 454.104C1077.47 448.138 1086.54 442.173 1095.92 436.005C1076.6 410.428 1064.24 426.925 1042.1 414.937C1012.93 400.073 1022.95 401.058 998.491 417.726C993.695 420.991 992.742 424.992 993.477 430.937C995.736 448.595 997.507 467.724 983.881 481.542C976.763 488.238 960.909 485.776 963.642 472.451C964.335 468.388 965.751 464.713 971.421 466.056C970.833 470.326 971.916 474.27 972.119 478.51C987.505 473.565 987.656 456.742 985.63 443.484C980.351 434.73 963.455 438.644 959.654 446.231C942.946 479.821 906.905 449.035 889.791 481.547C880.44 495.173 883.153 527.861 857.926 510.654C864.747 508.057 872.505 511.934 874.015 503.616C875.702 495.209 877.597 486.844 879.435 478.308C869.933 477.929 825.562 469.357 839.453 453.617C847.596 469.678 871.589 473.586 886.032 467.476C905.796 444.764 937.817 465.413 946.539 442.23C954.718 420.929 969.901 432.419 975.701 422.058C976.55 408.956 991.805 407.023 998.735 398.119C1008.79 386.017 1019.33 386.737 1032.6 392.563C1034.42 378.279 1016 379.207 1006.31 375.434C989.322 374.713 992.899 356.817 979.341 358.118C960.716 355.62 948.793 378.984 930.898 369.499C917.636 361.424 909.707 379.932 900.116 386.504C889.963 397.445 873.156 384.758 861.915 395.548C840.968 405.453 824.807 455.197 805.287 450.517C809.239 445.868 814.727 441.795 816.929 436.389C824.119 418.721 835.48 404.147 849.445 391.786C869.121 372.469 890.707 387.199 907.036 361.108C907.702 359.206 908.754 356.76 908.087 355.184C901.829 344.212 899.038 326.093 888.781 318.92C847.258 310.881 854.808 279.696 807.442 285.802C809.921 278.95 814.175 277.618 834.793 278.38C831.643 269.683 819.491 246.842 823.328 239.576C826.572 241.551 828.004 244.474 828.847 248.034C839.208 275.167 858.588 305.476 890.447 308.357C888.177 297.94 877.67 272.487 884.558 264.848C891.327 274.006 890.999 286.797 895.857 297.023C902.532 314.281 910.014 331.234 917.189 348.302C930.106 367.193 950.964 345.736 966.006 342.227C1011.96 335.598 988.874 351.422 1021.07 361.207C1059.24 367.514 1039.08 384.286 1061.91 392.993C1072.14 395.776 1082.23 399.057 1092.46 401.866C1107.37 407.282 1098.52 394.869 1118.31 402.918C1135.64 383.255 1141.68 360.953 1146.52 335.935C1136.34 335.396 1126.56 337.065 1117.41 335.225C1101.13 320.874 1084.15 322.512 1066.55 332.411C1065.32 333.1 1063.33 332.437 1061.69 332.406C1065.16 320.366 1079.64 320.812 1090.86 316.158C1084.87 311.965 1080.37 310.897 1076.99 305.574C1086.64 299.63 1099.29 317.832 1108.5 320.584C1128.17 323.818 1154.75 337.459 1164.68 311.799C1176.43 287.709 1194.27 306.777 1215.94 283.034C1213.97 265.583 1222 253.005 1202.57 242.862C1187.45 233.569 1192 232.216 1178.47 244.292C1167.42 254.166 1157.08 256.736 1143.94 250.061C1124.66 242.494 1099.9 264.174 1079.56 267.263C1057.63 273.86 1036.62 273.135 1019.41 254.99C1018.39 253.907 1015.41 253.544 1013.92 254.186C1000.78 259.841 987.088 261.126 973.082 259.53C969.37 259.105 964.455 262.5 962.049 256.747C971.255 252.113 980.897 251.839 990.962 252.471C991.394 251.486 991.831 250.501 992.269 249.522C985.047 242.94 975.592 238.296 970.369 229.894C987.239 225.437 995.778 259.452 1011.98 241.001C1006.95 233.631 1001.85 226.158 996.752 218.679C997.387 218.285 998.027 217.886 998.663 217.492C1008.64 221.799 1014.44 230.034 1019.47 239.281C1039.17 277.245 1086.18 254.026 1115.03 240.193C1073.2 176.672 1121.86 165.969 1060.5 124.502C1061.14 123.911 1061.77 123.32 1062.4 122.729C1080.86 126.331 1092.27 138.329 1099.92 156.588C1105.19 148.472 1106.69 140.625 1114.42 135.924C1118.86 147.923 1104.31 157.428 1103.92 169.24C1106.84 182.534 1102.73 208.79 1118.49 213.937C1124.39 226.546 1133.61 231.74 1147.16 231.501C1167.33 236.891 1181.6 212.838 1200.6 214.045C1215.68 219.125 1234.5 220.477 1236.23 242.432C1238.76 269.963 1294.87 251.17 1313.33 258.473C1344.73 270.207 1366.67 301.21 1402.32 300.531C1461.48 302.055 1422.11 388.318 1471.92 402.193C1472.76 391.428 1468.72 376.341 1476.56 367.836C1490.92 356.962 1493.77 332.318 1493.02 315.38C1478.15 320.143 1464.72 317.982 1459.16 302.262C1458.71 301.101 1459.42 299.51 1459.59 298.116C1464.54 298.842 1466.24 303.926 1469.77 306.751C1473.82 310.332 1485.23 310.99 1488.37 307.539C1496.51 297.924 1465.37 267.175 1457.12 261.064C1452.2 257.239 1447.17 254.42 1440.36 254.974C1427.96 252.341 1411.22 215.751 1400.97 204.67C1392.18 191.552 1407.44 177.247 1396.31 163.305C1381.47 128.42 1373.83 154.365 1323.93 130.876C1287.23 112.4 1290.71 98.8154 1254.93 131.628C1241.92 143.994 1216.87 125.305 1199.73 126.585C1180.31 128.342 1168.88 110.523 1151.17 108.087C1140.67 106.813 1129.01 110.43 1120.87 101.899C1131.15 98.8258 1140.07 105.05 1150.34 99.2974C1137.81 86.0034 1132.31 71.2168 1139.69 54.3C1140.13 52.9784 1142.22 52.2062 1143.55 51.1748C1145.32 54.1549 1146.56 56.8655 1144.95 60.2499C1139.76 76.6951 1151.86 88.6622 1162.49 99.6602C1183 123.833 1202.08 109.435 1227.07 118.847C1255.99 129.083 1258.03 91.4713 1294.57 97.359C1294.57 91.5957 1294.69 86.2159 1294.54 80.8465C1294.32 73.5335 1281.93 58.9439 1274.92 59.7368C1254.43 62.0691 1255.04 29.9459 1232.53 37.7253C1217.43 40.1664 1223.64 10.8212 1187.59 11.5572C1185.38 11.5261 1183.21 9.48406 1181.02 8.37494C1196.82 -0.829779 1217.05 7.75818 1226.6 22.8972C1231.18 30.2465 1238.93 27.5514 1246.58 26.8206C1249.49 -16.0466 1243.94 -61.1891 1193.99 -70.2798C1226.63 -82.9518 1248.82 -43.5519 1254.13 -16.995C1261.78 -22.2193 1266.48 -31.3048 1276.07 -30.7866C1275.32 -28.8585 1275.15 -26.0961 1273.73 -25.1269C1257.85 -14.1963 1253.29 0.621412 1257.55 18.8754C1258.81 26.2764 1256.36 35.2531 1265.49 38.622C1274.12 42.7838 1281.99 48.4901 1290.51 52.9318C1329.78 73.4869 1283.66 110.907 1343.71 116.727C1350.59 120.433 1356.29 126.518 1364.77 122.283C1387.68 110.29 1416.28 137.474 1419.88 159.895C1423.12 177.869 1426.37 196.958 1445.82 206.649C1449.95 212.677 1440.33 220.301 1451.95 223.089C1525.22 240.856 1464.74 226.049 1510.43 256.529C1536.71 198.476 1535.95 225.567 1499.95 175.677C1494.46 164.995 1504.67 153.22 1506.51 142.465C1516.27 109.751 1493 80.6547 1472.68 69.5013C1450.74 57.3009 1426.78 85.5992 1439.53 105.092C1454.87 122.667 1465.63 95.8923 1446.75 87.2836C1457.67 82.3444 1463.73 90.2326 1465.29 99.769C1467.89 131.856 1413.8 129.43 1434.27 67.0343C1420.45 61.2554 1403.91 55.0204 1389.75 65.0337C1388.3 65.9614 1385.73 65.1581 1383.69 65.1581C1383.53 64.3133 1383.39 63.4685 1383.24 62.6288C1388.74 59.3792 1394.24 56.1244 1400.67 52.3306C1389.09 38.3939 1373.15 46.163 1358.21 42.789C1368.54 34.0196 1379.66 37.7461 1392.08 36.6991C1384.23 23.5503 1374.21 14.5373 1370.25 1.08787C1381.6 3.586 1389.7 21.0055 1396.02 30.1532C1404.11 46.9145 1418.76 55.2485 1436.44 58.3271C1452.93 58.6381 1468.65 53.7818 1484.2 61.9343C1488.75 45.3026 1476.88 30.8062 1462.49 23.9131C1445.29 17.2687 1442.45 1.54914 1437.49 -12.9421C1437.12 -14.0201 1438.33 -15.6371 1438.81 -17.0002C1440.2 -16.1658 1442.24 -15.6579 1442.85 -14.4399C1449 7.00149 1466.47 18.8857 1485.36 28.8057C1487.26 14.2419 1486.41 -13.8646 1506.71 -13.5225C1509.01 -12.9317 1512 -10.5839 1508.74 -8.57293C1482.88 -5.34403 1498.98 50.4751 1497.62 69.351C1506.6 86.444 1520.15 100.666 1523.65 120.765C1543.33 111.576 1559.29 106.548 1574.81 91.0671C1580.28 86.2574 1588.24 84.1221 1595.31 81.3492C1596.6 80.8413 1598.99 83.1062 1600.87 84.091C1599.36 85.3867 1598.01 87.0245 1596.28 87.9107C1576.12 91.2588 1576.96 115.25 1559.94 119.853C1537.57 122.314 1511.73 144.201 1522.82 168.048C1532.01 186.872 1555.26 199.715 1551.67 222.576C1567.59 222.4 1570.27 204.696 1577.87 193.791C1587.43 174.951 1596.7 155.967 1606.31 137.158C1615.89 117.593 1633.02 101.407 1656.07 102.065C1656.95 101.956 1658.11 104.019 1659.14 105.076C1658.12 105.833 1657.15 107.186 1656.08 107.263C1639.18 108.528 1628.41 119.308 1620.57 132.302C1612.31 148.229 1601.92 164.311 1597.66 181.704C1616.67 169.805 1638.39 173.028 1658.21 164.591C1667.76 160.983 1680.16 158.143 1688.25 166.363C1688.07 167.167 1687.89 167.965 1687.71 168.768C1670.56 164.523 1656.72 173.334 1641.38 178.387C1649.57 186.804 1654.55 195.911 1654.61 207.442C1639.63 196.424 1642.68 170.489 1614.02 184.716C1595.75 194.262 1581.34 201.793 1578.96 223.913C1568.9 242.577 1536.8 245.884 1536.25 271.202C1535.73 280.748 1531.79 290.834 1540.11 299.277C1542.95 307.176 1543.17 316.557 1546.49 324.378C1553.94 345.036 1529.31 359.154 1540.89 382.736C1542.16 386.105 1540.57 391.604 1538.46 394.994C1522.49 417.404 1552.4 458.432 1574.64 431.968C1588.87 415.295 1588.44 412.377 1608.3 424.251C1626.14 427.568 1646.6 415.518 1659.41 403.944C1684.33 370.769 1663.43 328.824 1624.82 314.634C1648.64 307.881 1664.78 331.96 1675.72 349.706C1696.43 323.678 1677.59 303.149 1676.33 276.851C1683.58 279.328 1684.19 287.818 1687.4 293.82C1696.41 315.8 1697.44 337.05 1681.93 357.05C1680.34 359.103 1679.87 362.813 1680.32 365.514C1683.71 385.753 1682.3 404.452 1662.74 419.612C1674.13 426.174 1684.98 429.086 1693.77 437.332C1682.99 442.235 1673.59 431.429 1663.59 428.216C1654.03 423.111 1642.92 433.393 1632.98 435.461C1638.12 443.878 1643.57 451.145 1641.69 461.023C1635.36 456.022 1633.33 448.004 1628.39 441.929C1621.71 436.301 1612.78 445.822 1601.58 435.98C1595.13 428.428 1580.66 455.343 1574.55 459.872C1563.6 478.121 1573.92 511.068 1587.77 526.456C1607.05 518.501 1623.16 508.249 1620.72 482.869C1623.78 484.584 1626.28 486.118 1626.35 487.751C1629.88 511.763 1613.91 523.611 1596.13 536.713C1613.42 554.869 1609 567.017 1600.82 588.07C1599.97 594.227 1600.03 600.421 1600.59 606.63L1606.02 589.096L1601.81 616.264C1603.24 625.516 1605.3 634.788 1606.62 644.019C1614 626.267 1621.53 608.584 1629.21 590.988C1618.81 627.89 1609.08 664.931 1600.01 702.087C1609.53 687.373 1620.85 674.105 1633.52 662.646C1641.68 649.652 1650.49 637.131 1659.87 625.148C1655.14 633.902 1650.72 642.79 1646.62 651.793C1647.37 651.223 1648.13 650.658 1648.89 650.098C1647.81 651.321 1646.75 652.56 1645.71 653.804C1638.54 669.736 1632.36 686.01 1627.2 702.512C1645.51 674.628 1666.34 648.668 1689.27 625.049C1679.9 638.26 1671.19 651.86 1663.15 665.781C1680 646.055 1697.8 627.247 1716.46 609.47C1700.39 629.429 1685.4 650.145 1671.55 671.488C1684.91 661.386 1699.91 653.716 1716.46 650.523C1706.63 654.161 1697.65 659.5 1689.65 665.854C1679.2 674.152 1670.33 684.222 1662.74 695.142C1658.02 701.932 1653.97 708.529 1652.04 715.77C1679.37 715.604 1706.7 715.925 1734 716.874V1299.1H172V663.221C184.132 663.926 196.263 664.75 208.384 665.678L208.395 665.703ZM1364.06 692.753C1363.13 692.198 1362.19 691.654 1361.25 691.11C1361.45 694.23 1361.6 697.36 1361.71 700.491C1362.5 697.915 1363.28 695.334 1364.06 692.753ZM1351.26 704.243C1348.97 710.1 1346.88 716.018 1344.99 721.974C1346.04 721.828 1347.09 721.699 1348.14 721.585C1349.36 715.853 1350.4 710.069 1351.27 704.243H1351.26ZM1321.43 673.659C1327.63 685.808 1333.54 698.029 1336.72 711.147C1341.76 702.657 1347.2 694.463 1353.01 686.601C1342.95 681.418 1332.38 677.064 1321.43 673.659ZM1354.88 646.418C1357.15 656.613 1358.89 666.973 1360.05 677.437C1363.12 673.618 1366.27 669.886 1369.51 666.248C1366.57 671.374 1363.8 676.577 1361.19 681.843C1363.03 682.527 1364.85 683.242 1366.66 683.978C1368.82 676.577 1370.91 669.145 1372.91 661.682C1367.1 656.395 1361.08 651.3 1354.88 646.418H1354.88ZM1373.65 662.355C1373.22 668.958 1372.74 675.561 1372.19 682.169L1377.28 665.719C1376.08 664.589 1374.87 663.47 1373.65 662.355ZM1412.22 704.145C1411.46 703.16 1410.69 702.18 1409.91 701.201C1409.28 702.984 1408.65 704.772 1408.05 706.565C1408.61 706.959 1409.17 707.353 1409.73 707.757C1410.56 706.549 1411.38 705.342 1412.22 704.145ZM1382.54 670.783L1379.6 689.757C1380.06 689.98 1380.52 690.208 1380.98 690.436C1383.01 685.409 1385.06 680.392 1387.13 675.38C1385.62 673.835 1384.09 672.301 1382.54 670.783ZM1386.1 708.094C1385.66 709.877 1385.22 711.66 1384.78 713.443C1385.69 712.038 1386.62 710.654 1387.57 709.286C1387.08 708.887 1386.59 708.488 1386.1 708.094ZM1389.4 694.862C1391.54 696.049 1393.66 697.277 1395.75 698.542C1397.75 696.142 1399.82 693.81 1401.94 691.55C1398.98 688.093 1395.95 684.693 1392.84 681.356C1391.68 685.854 1390.53 690.358 1389.4 694.857V694.862ZM1401.5 648.693C1399.6 655.685 1397.72 662.687 1395.88 669.694C1400.99 673.856 1405.99 678.168 1410.86 682.625C1413.81 677.945 1416.87 673.343 1420.03 668.829C1414.1 661.925 1407.86 655.239 1401.5 648.688V648.693ZM1422.2 671.379C1421.67 672.509 1421.14 673.633 1420.63 674.763C1421.21 674.323 1421.79 673.887 1422.38 673.457C1421.54 674.395 1420.73 675.349 1419.92 676.308C1418.35 679.801 1416.85 683.32 1415.4 686.86C1417.25 688.617 1419.08 690.4 1420.89 692.198C1423.8 688.347 1426.77 684.553 1429.8 680.817C1427.34 677.619 1424.81 674.473 1422.2 671.379H1422.2ZM1434.32 706.27C1439.54 712.059 1444.56 718.04 1449.39 724.192C1450.18 724.14 1450.99 724.083 1451.78 724.031C1452.14 722.357 1452.44 720.673 1452.7 718.978C1449.52 711.535 1445.68 704.316 1441.37 697.407C1438.88 700.242 1436.53 703.206 1434.33 706.27H1434.32ZM1465.75 695.557C1463.81 690.788 1461.71 686.072 1459.43 681.423C1457.46 682.729 1455.56 684.113 1453.73 685.575C1452.45 686.585 1451.22 687.632 1450 688.705C1453.42 692.597 1456.67 696.609 1459.74 700.76C1461.54 698.837 1463.58 697.137 1465.75 695.557ZM1448.39 661.485C1445.01 666.486 1441.74 671.55 1438.6 676.681C1439.04 677.111 1439.47 677.546 1439.91 677.982C1443.55 673.861 1447.25 669.803 1451 665.792C1450.14 664.346 1449.28 662.91 1448.39 661.485ZM1453.39 669.922C1450.38 674.157 1447.43 678.422 1444.55 682.724C1445.29 683.507 1446.01 684.294 1446.74 685.087C1450.41 682.755 1454.22 680.677 1458.18 678.915C1456.65 675.888 1455.06 672.887 1453.39 669.922ZM1472.27 669.186C1470.33 663.77 1468.15 658.422 1465.75 653.156C1462.88 656.908 1460.05 660.697 1457.28 664.511C1460.31 668.217 1463.23 672.021 1466.03 675.924C1468.59 675.105 1471.2 674.416 1473.86 673.882C1473.35 672.312 1472.82 670.746 1472.27 669.186ZM1473.89 673.955C1471.48 674.867 1469.14 675.909 1466.87 677.069C1469.75 681.122 1472.5 685.274 1475.13 689.524C1476.05 688.964 1476.97 688.399 1477.89 687.824C1476.73 683.17 1475.4 678.541 1473.89 673.955ZM1189.17 743.513C1205.15 742.461 1221.13 741.342 1237.1 740.176L1236.85 740.041C1237.91 738.854 1238.56 737.341 1238.78 735.765C1230.11 725.855 1219.96 717.024 1208.7 709.623C1201.08 704.616 1192.96 700.263 1184.45 696.661L1189.17 743.519L1189.17 743.513ZM1181.5 667.466L1184.03 692.556C1207.27 698.329 1229.23 709.493 1247.72 724.985C1229.68 699.231 1206.59 676.525 1179.78 658.67C1180.61 661.485 1181.19 664.423 1181.5 667.466Z" fill="url(#paint4_linear_18225_86)"/>
</g>
<path d="M1247.52 487.471C1247.45 486.733 1247.22 485.4 1246.47 483.852C1245.45 481.745 1243.24 478.836 1238.47 476.997C1237.73 476.711 1236.94 476.46 1236.13 476.24C1236.31 475.607 1236.66 473.965 1236.18 471.985C1235.63 469.698 1233.8 466.518 1228.27 464.387C1228.04 464.299 1227.8 464.212 1227.56 464.125C1227.59 463.531 1227.62 461.749 1226.92 459.661C1226.13 457.332 1224.25 454.199 1219.71 452.448C1219.48 452.36 1219.24 452.273 1219 452.195C1221.87 451.819 1229.38 451.148 1234.95 453.3C1236.3 453.825 1237.47 454.481 1238.42 455.27C1242.18 458.377 1243.03 459.985 1243.86 461.549C1244.49 462.74 1245.15 463.983 1247.04 465.835C1247.48 466.267 1247.92 466.577 1248.36 466.739C1248.98 466.985 1249.61 466.951 1250.2 466.641C1251.8 465.802 1252.87 463.065 1253.47 461.052C1253.78 462.139 1254.58 463.539 1256.51 465.011C1256.51 465.011 1256.56 465.051 1256.58 465.058C1256.6 465.064 1256.65 465.065 1256.65 465.065C1259.09 465.265 1260.65 464.797 1261.64 464.206C1260.67 466.067 1259.53 468.786 1260.12 470.469C1260.33 471.093 1260.77 471.527 1261.39 471.773C1261.83 471.944 1262.36 472.017 1262.99 471.992C1265.66 471.896 1267 471.441 1268.3 470.992C1269.99 470.411 1271.74 469.803 1276.65 470.039C1277.89 470.104 1279.2 470.392 1280.55 470.918C1286.13 473.07 1291.14 478.579 1292.97 480.765C1292.74 480.659 1292.51 480.571 1292.27 480.473C1287.74 478.723 1284.17 479.761 1281.98 480.929C1280.01 481.981 1278.78 483.308 1278.39 483.767C1278.16 483.67 1277.92 483.574 1277.68 483.476C1272.15 481.346 1268.6 482.447 1266.6 483.746C1264.87 484.876 1263.98 486.304 1263.66 486.883C1262.91 486.496 1262.16 486.155 1261.42 485.878C1256.65 484.04 1253 484.678 1250.79 485.541C1249.16 486.168 1248.06 486.991 1247.49 487.485L1247.52 487.471Z" fill="#190739"/>
<path d="M978.375 185.209C978.102 184.694 977.53 183.796 976.519 182.897C975.14 181.673 972.653 180.226 968.637 180.321C968.015 180.334 967.366 180.389 966.709 180.473C966.645 179.961 966.404 178.664 965.458 177.37C964.366 175.874 962.079 174.113 957.419 174.227C957.223 174.232 957.022 174.242 956.821 174.251C956.668 173.808 956.149 172.506 955.006 171.202C953.731 169.747 951.415 168.037 947.595 168.127C947.399 168.132 947.198 168.142 947 168.157C948.971 167.022 954.218 164.282 958.915 164.172C960.057 164.148 961.099 164.275 962.029 164.561C965.698 165.689 966.803 166.6 967.877 167.488C968.695 168.163 969.548 168.869 971.48 169.646C971.933 169.826 972.35 169.918 972.713 169.905C973.243 169.896 973.685 169.684 974.023 169.281C974.932 168.191 974.882 165.883 974.704 164.243C975.258 164.939 976.265 165.714 978.11 166.203C978.11 166.203 978.155 166.22 978.171 166.218C978.188 166.217 978.23 166.201 978.23 166.201C980.062 165.613 981.054 164.805 981.588 164.081C981.447 165.723 981.442 168.039 982.378 169.085C982.723 169.473 983.169 169.658 983.699 169.648C984.066 169.642 984.476 169.534 984.923 169.329C986.835 168.457 987.673 167.723 988.479 167.007C989.529 166.079 990.616 165.112 994.255 163.809C995.174 163.484 996.212 163.301 997.353 163.276C1002.05 163.166 1007.36 165.661 1009.35 166.699C1009.14 166.692 1008.95 166.697 1008.75 166.697C1004.93 166.786 1002.66 168.61 1001.42 170.116C1000.3 171.472 999.813 172.804 999.668 173.254C999.469 173.254 999.264 173.257 999.065 173.256C994.405 173.37 992.162 175.234 991.101 176.778C990.185 178.118 989.972 179.422 989.918 179.937C989.255 179.881 988.604 179.861 987.986 179.88C983.964 179.979 981.512 181.535 980.162 182.828C979.172 183.771 978.622 184.698 978.36 185.227L978.375 185.209Z" fill="#190739"/>
<path d="M445.429 432.818C444.439 431.724 442.483 429.876 439.446 428.296C435.31 426.147 428.321 424.134 418.543 426.838C417.028 427.254 415.472 427.787 413.915 428.399C413.439 427.184 412.045 424.154 408.925 421.566C405.323 418.576 398.63 415.67 387.284 418.816C386.809 418.95 386.322 419.097 385.834 419.244C385.185 418.253 383.106 415.384 379.499 412.891C375.474 410.113 368.74 407.351 359.437 409.922C358.963 410.056 358.475 410.203 358 410.363C362.123 406.37 373.276 396.427 384.714 393.267C387.494 392.504 390.126 392.174 392.584 392.303C402.268 392.807 405.542 394.359 408.723 395.872C411.145 397.023 413.672 398.226 418.885 398.941C420.107 399.103 421.185 399.071 422.068 398.817C423.359 398.468 424.312 397.677 424.888 396.481C426.44 393.25 424.884 387.628 423.432 383.721C425.221 385.085 428.168 386.364 432.993 386.426C432.993 386.426 433.111 386.439 433.15 386.426C433.19 386.412 433.282 386.346 433.282 386.346C437.406 383.78 439.334 381.189 440.193 379.088C440.868 383.196 442.292 388.872 445.233 390.858C446.318 391.597 447.526 391.773 448.818 391.425C449.714 391.184 450.651 390.668 451.618 389.889C455.761 386.577 457.358 384.262 458.889 382.013C460.885 379.094 462.949 376.056 471.054 370.624C473.103 369.263 475.531 368.174 478.311 367.411C489.749 364.251 504.291 367.096 509.814 368.412C509.314 368.519 508.84 368.653 508.352 368.774C499.049 371.345 494.608 377.213 492.507 381.665C490.619 385.671 490.247 389.236 490.171 390.428C489.683 390.549 489.183 390.683 488.695 390.804C477.35 393.95 473.013 399.896 471.372 404.333C469.959 408.178 470.246 411.503 470.432 412.799C468.774 413.071 467.167 413.421 465.664 413.849C455.874 416.567 450.833 421.889 448.327 425.885C446.488 428.804 445.717 431.415 445.402 432.87L445.429 432.818Z" fill="#170733"/>
<path d="M639 1063C639 1063 586.408 1055.97 527.819 1051.17C530.615 1042.36 535.77 1033.89 535.77 1033.89L524.551 1043.1C524.551 1043.1 525.696 1016.68 532.435 1007.17C532.435 1007.17 523.641 1015.61 517.577 1030.53C517.577 1030.53 515.387 1018.63 517.813 1011.34C517.813 1011.34 512.051 1019.74 510.232 1026.63C510.232 1026.63 507.166 1007.13 512.523 994.765C512.523 994.765 498.811 1008.18 494.801 1048.75C490.556 1048.48 486.345 1048.24 482.134 1048.01C482.875 1042.73 483.043 1036.95 481.258 1033.25C477.248 1025.08 474.519 994.765 474.519 994.765C472.026 1002.29 470.679 1033.39 470.679 1033.39C468.354 1015.07 452.148 1001.08 452.148 1001.08C459.965 1014.46 463.974 1044.34 463.974 1044.34C459.897 1030.56 446.69 1026.6 446.69 1026.6C446.69 1026.6 452.216 1036.14 456.528 1046.93C447.027 1046.66 437.897 1046.6 429.373 1046.73C432.944 1032.92 436.415 1028.01 436.415 1028.01L423.41 1042.23L425.903 999.202L413.302 1037.25C413.302 1037.25 414.684 1000.31 406.968 969.118C406.968 969.118 406.497 993.723 405.014 1011.94C403.903 1005.72 402.487 1001.86 402.487 1001.86C402.083 1005.99 401.477 1009.45 400.803 1012.41L399.961 1007.1L397.703 1021.62C397.535 1021.99 397.366 1022.33 397.198 1022.66C396.49 1020.04 394.166 1011 392.515 1001.55C393.425 975.37 398.546 944.176 398.546 944.176C389.82 956.647 380.891 987 377.691 998.664C377.455 998.092 377.219 997.555 376.983 997.017C378.735 967.706 370.481 927.403 370.481 927.403C373.749 946.429 359.093 996.748 359.093 996.748L355.421 970.126L349.794 1002.53C345.313 980.412 345.111 908.445 345.111 908.445C331.736 958.798 333.016 1018.66 333.016 1018.66L313.61 956.714L316.507 1026.5L295.821 1003.13C295.821 1003.13 301.313 1011.17 306.703 1033.62C292.923 1033.18 278.133 1033.08 262.736 1033.22C270.013 1015.87 279.211 1000.55 279.211 1000.55C279.211 1000.55 257.716 1006.56 250.742 1028.82C250.742 1028.82 258.019 980.479 271.024 959.034C271.024 959.034 244.408 981.286 240.163 1010.9C240.163 1010.9 238.815 960.479 234.941 948.244C234.941 948.244 229.719 997.252 223.014 1010.39C220.016 1016.28 220.15 1025.66 221.195 1034.26C214.389 1034.5 207.55 1034.8 200.677 1035.1C195.253 969.252 173.387 947.202 173.387 947.202C181.709 967.403 176.251 998.899 176.251 998.899C173.522 987.672 164.391 973.924 164.391 973.924C168.131 985.756 164.257 1004.98 164.257 1004.98C154.823 980.647 140.841 966.731 140.841 966.731C144.884 972.681 147.579 982.563 149.331 992.546C147.95 1007.2 144.042 1013.86 142.155 1016.24L140.538 1014.87C135.383 988.076 143.402 927.672 143.402 927.672C132.149 944.815 121.536 992.109 121.536 992.109C124.4 960.311 112.642 910.529 112.642 910.529C116.786 930.933 102.669 985.588 102.669 985.588L97.8511 957.05L92.8648 992.143C87.3058 968.479 84.7116 891 84.7116 891C71.9763 945.655 75.3117 1010.09 75.3117 1010.09L52.368 944.008L57.7922 1019.07L34.7474 994.597C34.7474 994.597 40.9129 1003.07 47.4827 1027.1C32.6249 1027.1 16.6889 1027.44 0.112811 1028.14C7.39012 1009.22 16.7563 992.412 16.7563 992.412C16.7563 992.412 -6.18744 999.605 -12.9594 1023.77C-12.9594 1023.77 -6.72652 971.471 6.58153 947.941C6.58153 947.941 -21.3485 972.782 -24.9198 1004.82C-24.9198 1004.82 -28.0531 950.563 -32.6014 937.487C-32.6014 937.487 -36.6106 990.429 -43.3826 1004.82C-46.4148 1011.27 -45.9768 1021.35 -44.5618 1030.56C-51.8728 1031.03 -59.2512 1031.57 -66.6296 1032.14C-74.6144 961.42 -98.9058 938.361 -98.9058 938.361C-89.2701 959.84 -94.1216 993.924 -94.1216 993.924C-97.4234 981.924 -107.733 967.403 -107.733 967.403C-103.319 980.042 -106.857 1000.88 -106.857 1000.88C-117.807 975 -133.338 960.479 -133.338 960.479C-121.378 976.882 -118.716 1023 -118.716 1023L-138.527 1007.2C-138.527 1007.2 -129.329 1021.82 -124.208 1037.15C-226.393 1047 -318 1060.51 -318 1060.51L639 1063Z" fill="#0B0718"/>
<path d="M2036 1063C2036 1063 1983.41 1055.97 1924.82 1051.17C1927.62 1042.36 1932.77 1033.89 1932.77 1033.89L1921.55 1043.1C1921.55 1043.1 1922.7 1016.68 1929.43 1007.17C1929.43 1007.17 1920.64 1015.61 1914.58 1030.53C1914.58 1030.53 1912.39 1018.63 1914.81 1011.34C1914.81 1011.34 1909.05 1019.74 1907.23 1026.63C1907.23 1026.63 1904.17 1007.13 1909.52 994.765C1909.52 994.765 1895.81 1008.18 1891.8 1048.75C1887.56 1048.48 1883.35 1048.24 1879.13 1048.01C1879.87 1042.73 1880.04 1036.95 1878.26 1033.25C1874.25 1025.08 1871.52 994.765 1871.52 994.765C1869.03 1002.29 1867.68 1033.39 1867.68 1033.39C1865.35 1015.07 1849.15 1001.08 1849.15 1001.08C1856.96 1014.46 1860.97 1044.34 1860.97 1044.34C1856.9 1030.56 1843.69 1026.6 1843.69 1026.6C1843.69 1026.6 1849.22 1036.14 1853.53 1046.93C1844.03 1046.66 1834.9 1046.6 1826.37 1046.73C1829.94 1032.92 1833.41 1028.01 1833.41 1028.01L1820.41 1042.23L1822.9 999.202L1810.3 1037.25C1810.3 1037.25 1811.68 1000.31 1803.97 969.118C1803.97 969.118 1803.5 993.723 1802.01 1011.94C1800.9 1005.72 1799.49 1001.86 1799.49 1001.86C1799.08 1005.99 1798.48 1009.45 1797.8 1012.41L1796.96 1007.1L1794.7 1021.62C1794.53 1021.99 1794.37 1022.33 1794.2 1022.66C1793.49 1020.04 1791.17 1011 1789.51 1001.55C1790.42 975.37 1795.55 944.176 1795.55 944.176C1786.82 956.647 1777.89 987 1774.69 998.664C1774.45 998.092 1774.22 997.555 1773.98 997.017C1775.74 967.706 1767.48 927.403 1767.48 927.403C1770.75 946.429 1756.09 996.748 1756.09 996.748L1752.42 970.126L1746.79 1002.53C1742.31 980.412 1742.11 908.445 1742.11 908.445C1728.74 958.798 1730.02 1018.66 1730.02 1018.66L1710.61 956.714L1713.51 1026.5L1692.82 1003.13C1692.82 1003.13 1698.31 1011.17 1703.7 1033.62C1689.92 1033.18 1675.13 1033.08 1659.74 1033.22C1667.01 1015.87 1676.21 1000.55 1676.21 1000.55C1676.21 1000.55 1654.72 1006.56 1647.74 1028.82C1647.74 1028.82 1655.02 980.479 1668.02 959.034C1668.02 959.034 1641.41 981.286 1637.16 1010.9C1637.16 1010.9 1635.82 960.479 1631.94 948.244C1631.94 948.244 1626.72 997.252 1620.01 1010.39C1617.02 1016.28 1617.15 1025.66 1618.19 1034.26C1611.39 1034.5 1604.55 1034.8 1597.68 1035.1C1592.25 969.252 1570.39 947.202 1570.39 947.202C1578.71 967.403 1573.25 998.899 1573.25 998.899C1570.52 987.672 1561.39 973.924 1561.39 973.924C1565.13 985.756 1561.26 1004.98 1561.26 1004.98C1551.82 980.647 1537.84 966.731 1537.84 966.731C1541.88 972.681 1544.58 982.563 1546.33 992.546C1544.95 1007.2 1541.04 1013.86 1539.16 1016.24L1537.54 1014.87C1532.38 988.076 1540.4 927.672 1540.4 927.672C1529.15 944.815 1518.54 992.109 1518.54 992.109C1521.4 960.311 1509.64 910.529 1509.64 910.529C1513.79 930.933 1499.67 985.588 1499.67 985.588L1494.85 957.05L1489.86 992.143C1484.31 968.479 1481.71 891 1481.71 891C1468.98 945.655 1472.31 1010.09 1472.31 1010.09L1449.37 944.008L1454.79 1019.07L1431.75 994.597C1431.75 994.597 1437.91 1003.07 1444.48 1027.1C1429.62 1027.1 1413.69 1027.44 1397.11 1028.14C1404.39 1009.22 1413.76 992.412 1413.76 992.412C1413.76 992.412 1390.81 999.605 1384.04 1023.77C1384.04 1023.77 1390.27 971.471 1403.58 947.941C1403.58 947.941 1375.65 972.782 1372.08 1004.82C1372.08 1004.82 1368.95 950.563 1364.4 937.487C1364.4 937.487 1360.39 990.429 1353.62 1004.82C1350.59 1011.27 1351.02 1021.35 1352.44 1030.56C1345.13 1031.03 1337.75 1031.57 1330.37 1032.14C1322.39 961.42 1298.09 938.361 1298.09 938.361C1307.73 959.84 1302.88 993.924 1302.88 993.924C1299.58 981.924 1289.27 967.403 1289.27 967.403C1293.68 980.042 1290.14 1000.88 1290.14 1000.88C1279.19 975 1263.66 960.479 1263.66 960.479C1275.62 976.882 1278.28 1023 1278.28 1023L1258.47 1007.2C1258.47 1007.2 1267.67 1021.82 1272.79 1037.15C1170.61 1047 1079 1060.51 1079 1060.51L2036 1063Z" fill="#0B0718"/>
</g>
<defs>
<linearGradient id="paint0_linear_18225_86" x1="1070" y1="798.171" x2="2549.38" y2="2965.39" gradientUnits="userSpaceOnUse">
<stop/>
<stop offset="1" stop-color="#4D2EAA"/>
</linearGradient>
<radialGradient id="paint1_radial_18225_86" cx="0" cy="0" r="1" gradientUnits="userSpaceOnUse" gradientTransform="translate(2292.84 430.501) rotate(-30.1871) scale(690.1 1157.61)">
<stop stop-color="#4D2EAA"/>
<stop offset="1" stop-color="#1F1244"/>
</radialGradient>
<linearGradient id="paint2_linear_18225_86" x1="-257.5" y1="1139" x2="1685.98" y2="438.587" gradientUnits="userSpaceOnUse">
<stop stop-color="#D9D9D9" stop-opacity="0"/>
<stop offset="1"/>
</linearGradient>
<linearGradient id="paint3_linear_18225_86" x1="1897.13" y1="632.046" x2="708.137" y2="447.942" gradientUnits="userSpaceOnUse">
<stop stop-color="#1B083D"/>
<stop offset="1" stop-color="#4815A3" stop-opacity="0"/>
</linearGradient>
<linearGradient id="paint4_linear_18225_86" x1="1197.06" y1="742.354" x2="250.941" y2="790.117" gradientUnits="userSpaceOnUse">
<stop stop-color="#1B083D"/>
<stop offset="1" stop-color="#4815A3" stop-opacity="0"/>
</linearGradient>
<clipPath id="clip0_18225_86">
<rect width="1728" height="1060" fill="white"/>
</clipPath>
</defs>
</svg>
