<svg width="86" height="62" viewBox="0 0 86 62" fill="none" xmlns="http://www.w3.org/2000/svg">
<path d="M80.0039 60.3474C79.6709 60.3474 79.293 60.136 78.8767 59.726C77.7495 58.5986 76.6352 57.4584 75.4567 56.2542C74.938 55.7289 74.4128 55.1844 73.8685 54.6335L73.3433 54.1019L72.8245 54.6399C72.4915 54.9794 72.1713 55.3189 71.8511 55.6456C71.1594 56.3631 70.5061 57.042 69.8337 57.7146C69.3405 58.2079 68.873 58.4705 68.4824 58.4705C67.8931 58.4705 67.4705 57.8107 67.2207 57.2598C65.5171 53.4869 63.8199 49.714 62.1164 45.9411C60.0862 41.4316 58.056 36.9156 56.013 32.4124C55.5326 31.3491 55.6543 30.9327 56.0514 30.5356C56.3012 30.2794 56.5509 30.1705 56.8583 30.1705C57.1401 30.1705 57.4796 30.2666 57.9215 30.4651C62.5006 32.5406 67.0862 34.6032 71.6717 36.6722C75.3671 38.3376 79.0688 40.0031 82.7578 41.675C83.2701 41.9056 83.9042 42.2899 84.0002 42.7959C84.0771 43.2059 83.7953 43.7568 83.1997 44.3589C82.8538 44.7048 82.508 45.0571 82.1622 45.403C81.6562 45.9155 81.1439 46.4279 80.6379 46.9468C80.5034 47.0813 80.4458 47.2286 80.3945 47.3503C80.3753 47.3952 80.3497 47.4592 80.3177 47.5361L80.1064 47.9973L80.465 48.356C80.9581 48.8429 81.4513 49.3297 81.9444 49.8165C83.046 50.9055 84.186 52.0329 85.2939 53.141C86.2354 54.0891 86.2354 54.6079 85.2939 55.5623C83.712 57.1702 82.3799 58.5025 81.099 59.758C80.6892 60.1616 80.3113 60.3666 79.9847 60.3666L80.0039 60.3474Z" fill="white"/>
<path d="M52.3176 59.1111H45.9324V50.7645H60.2143C59.8556 49.9767 59.5034 49.1824 59.1447 48.3945L58.6516 47.2991C57.486 44.7112 56.3204 42.1234 55.1548 39.5355H2.88198V2.88253H69.3726V31.5477C70.2884 31.964 71.2042 32.374 72.1265 32.7904L72.2545 32.848V1.44126C72.2545 0.646968 71.6077 0 70.8136 0H1.44099C0.646845 0 0 0.646968 0 1.44126V49.3233C0 50.1176 0.646845 50.7645 1.44099 50.7645H26.3605V59.1111H19.8281C19.0787 59.1111 18.3999 59.6619 18.3294 60.4114C18.2462 61.2698 18.9186 62 19.764 62H52.3817C53.227 62 53.8995 61.2762 53.8163 60.4114C53.7458 59.6619 53.0733 59.1111 52.3176 59.1111Z" fill="white"/>
<path d="M52.1639 32.9121C51.1584 30.6893 51.389 28.8125 52.8492 27.3456C53.9443 26.2438 55.1548 26.0068 55.9745 26.0068C56.7431 26.0068 57.5244 26.199 58.421 26.6025C61.4247 27.9605 64.4348 29.3185 67.4448 30.6765V4.80422H4.80331V37.6458H54.2966C53.5857 36.07 52.8748 34.4943 52.1639 32.9185V32.9121ZM25.9443 27.3904C25.9443 27.9477 25.6753 28.2168 25.1117 28.2168C24.9388 28.2168 24.7594 28.2168 24.5865 28.2168H23.6067V30.5932C23.6067 32.1114 23.6067 33.6295 23.6067 35.1476C23.6067 35.7177 23.3761 36.006 22.9214 36.0124H22.8958C22.5499 36.006 22.3066 35.801 22.2425 35.4615C22.2169 35.327 22.2169 35.1861 22.2169 35.0387C22.2169 33.3669 22.2169 31.695 22.2169 30.0167V28.2168H21.2434C21.0641 28.2168 20.8912 28.2168 20.7183 28.2168C20.1483 28.2168 19.8793 27.9477 19.8793 27.3904C19.8793 24.9115 19.8793 22.3748 19.8793 19.851C19.8793 19.2937 20.1483 19.0311 20.7183 19.0247C20.8912 19.0247 21.0705 19.0247 21.2434 19.0247H22.2169V18.224C22.2169 17.7244 22.2105 17.1991 22.2169 16.6674C22.2233 16.2254 22.5179 15.8923 22.8958 15.8923C22.9854 15.8923 23.0815 15.9116 23.1712 15.95C23.4658 16.0781 23.6002 16.3151 23.6002 16.6995V19.0183H24.5673C24.7466 19.0183 24.9196 19.0183 25.0989 19.0183C25.6689 19.0183 25.9379 19.2809 25.9379 19.8446C25.9379 22.33 25.9379 24.8666 25.9379 27.384L25.9443 27.3904ZM34.7375 26.9613C34.7375 27.6082 34.507 27.8388 33.8473 27.8452H33.1941C33.0083 27.8452 32.829 27.8452 32.6433 27.8516H32.3935V29.7413C32.3935 30.1384 32.3935 30.5484 32.3935 30.952C32.3935 31.4324 32.1181 31.7398 31.7146 31.7398C31.3048 31.7398 31.0294 31.426 31.0294 30.9584C31.0294 30.3242 31.0294 29.6901 31.0294 29.0303V27.8452H30.0687C29.8958 27.8452 29.7229 27.8452 29.5499 27.8452C28.9351 27.8452 28.6853 27.589 28.6853 26.9741C28.6853 22.9257 28.6853 18.8774 28.6853 14.8226C28.6853 14.2141 28.9223 13.9771 29.5243 13.9707C29.6972 13.9707 29.8702 13.9707 30.0495 13.9707H31.0294V13.3621C31.0294 13.0098 31.0294 12.6831 31.0294 12.35C31.0358 11.9657 31.2663 11.6903 31.6122 11.6454C31.6506 11.6454 31.689 11.639 31.721 11.639C32.0989 11.639 32.3807 11.9145 32.3935 12.3052C32.4063 12.6511 32.3999 12.997 32.3935 13.3621V13.9835H33.8601C34.5326 13.9835 34.7375 14.1949 34.7375 14.861C34.7375 18.8966 34.7375 22.9385 34.7375 26.9741V26.9613ZM43.55 28.4986C43.55 29.1648 43.313 29.4018 42.647 29.4018H41.206V30.1961C41.206 30.7406 41.206 31.253 41.206 31.7719C41.206 32.2011 40.9114 32.5213 40.5399 32.5213C40.4631 32.5213 40.3798 32.5085 40.2965 32.4765C39.9827 32.3676 39.8354 32.137 39.8354 31.7719C39.8354 31.2594 39.8354 30.747 39.8354 30.2153V29.4018H38.3496C37.7348 29.4018 37.4978 29.1648 37.4978 28.5627C37.4978 24.9883 37.4978 21.4076 37.4978 17.9165C37.4978 17.3336 37.7348 17.0902 38.324 17.0838C38.4969 17.0838 38.6762 17.0838 38.8555 17.0838H39.8418V15.4888C39.8418 14.9635 39.8418 14.4255 39.8418 13.9002C39.8482 13.471 40.1044 13.202 40.5143 13.202C40.9306 13.202 41.1996 13.4838 41.206 13.913C41.206 14.624 41.206 15.3222 41.206 16.0589V17.0902H42.6149C43.3002 17.0902 43.5436 17.3336 43.5436 18.0062C43.5436 21.5037 43.5436 25.0075 43.5436 28.505L43.55 28.4986ZM51.3954 24.7193C51.2609 24.7129 51.1008 24.7065 50.8894 24.7065C50.7742 24.7065 50.6525 24.7065 50.5308 24.7065C50.4411 24.7065 50.0376 24.7065 50.0376 24.7065L50.0248 24.9435C50.0248 25.0396 50.0184 25.1292 50.012 25.2189C50.012 25.5328 50.012 25.8531 50.012 26.167C50.012 26.9484 50.012 27.7363 49.9992 28.5114C49.9992 28.7484 49.9032 29.0175 49.7751 29.1968C49.679 29.3313 49.5317 29.4018 49.3588 29.4018C49.2691 29.4018 49.1795 29.3826 49.0834 29.3506C48.776 29.2353 48.6223 28.9982 48.6223 28.6331C48.6223 27.826 48.6223 27.0125 48.6223 26.231V24.7193H47.1813C46.5216 24.7193 46.2783 24.4695 46.2783 23.8097C46.2783 19.7934 46.2783 15.7834 46.2783 11.7671C46.2783 11.0881 46.5216 10.8447 47.2005 10.8447H48.6159V9.02552C48.6159 8.96787 48.6159 8.91022 48.6159 8.85257C48.6159 8.69243 48.6159 8.5515 48.6223 8.41058C48.6543 8.01343 48.9425 7.72518 49.3075 7.72518C49.679 7.72518 49.9736 8.01984 49.9928 8.40417C50.012 8.76289 50.0056 9.12801 50.0056 9.48032C50.0056 9.64046 50.0056 9.78779 50.0056 9.93512V10.8447H50.4988C50.6269 10.8511 50.7549 10.8575 50.8766 10.8575C51.0816 10.8575 51.2481 10.8575 51.389 10.8447C51.4274 10.8447 51.4658 10.8447 51.5043 10.8447C51.9269 10.8447 52.1959 11.0177 52.3496 11.3828L52.3689 11.434V24.1492L52.3432 24.2004C52.1831 24.5656 51.9141 24.7385 51.4915 24.7385C51.4594 24.7385 51.421 24.7385 51.3826 24.7385L51.3954 24.7193Z" fill="white"/>
</svg>
