<svg width="465" height="84" viewBox="0 0 465 84" fill="none" xmlns="http://www.w3.org/2000/svg">
<path d="M17.7209 9.96397L350.738 1.6959L359.612 13.6129L369.6 0.802542L464.863 4.23716L464.786 20.0654L449.852 29.8865L462.752 29.9494L458.543 78.4046C458.543 78.4046 428.776 77.2694 411.904 77.187C395.033 77.1047 345.376 83.7867 339.423 83.7576C333.469 83.7285 288.841 76.5862 279.913 75.5528C270.986 74.5193 204.463 80.1292 204.463 80.1292L207.48 72.2296L196.552 74.1559L3.99125 78.1606L10.9957 66.3211L0.10628 60.3333L17.7209 9.96397Z" fill="url(#paint0_linear_18217_772)"/>
<defs>
<linearGradient id="paint0_linear_18217_772" x1="0.202868" y1="40.5502" x2="464.675" y2="42.8179" gradientUnits="userSpaceOnUse">
<stop stop-color="#FF532D"/>
<stop offset="1" stop-color="#FF782D"/>
</linearGradient>
</defs>
</svg>
