<svg width="2021" height="503" viewBox="0 0 2021 503" fill="none" xmlns="http://www.w3.org/2000/svg">
<g clip-path="url(#clip0_18229_273)">
<path d="M1157 503C1157 503 1093.42 494.545 1022.58 488.76C1025.96 478.162 1032.2 467.967 1032.2 467.967L1018.63 479.052C1018.63 479.052 1020.02 447.255 1028.16 435.807C1028.16 435.807 1017.53 445.961 1010.2 463.922C1010.2 463.922 1007.55 449.602 1010.49 440.823C1010.49 440.823 1003.52 450.936 1001.32 459.229C1001.32 459.229 997.615 435.766 1004.09 420.88C1004.09 420.88 987.513 437.021 982.666 485.848C977.534 485.524 972.442 485.241 967.351 484.958C968.247 478.607 968.45 471.649 966.292 467.199C961.444 457.369 958.145 420.88 958.145 420.88C955.131 429.941 953.502 467.361 953.502 467.361C950.691 445.313 931.099 428.485 931.099 428.485C940.549 444.585 945.396 480.548 945.396 480.548C940.467 463.962 924.5 459.189 924.5 459.189C924.5 459.189 931.18 470.678 936.394 483.663C924.908 483.34 913.869 483.259 903.564 483.421C907.882 466.794 912.077 460.888 912.077 460.888L896.354 478L899.369 426.219L884.135 472.013C884.135 472.013 885.805 427.554 876.477 390.014C876.477 390.014 875.907 419.626 874.115 441.551C872.77 434.067 871.06 429.415 871.06 429.415C870.571 434.391 869.838 438.558 869.023 442.118L868.005 435.726L865.276 453.202C865.072 453.647 864.868 454.051 864.665 454.456C863.809 451.301 860.999 440.419 859.003 429.051C860.103 397.538 866.294 359.997 866.294 359.997C855.744 375.005 844.95 411.535 841.081 425.572C840.796 424.884 840.51 424.237 840.225 423.59C842.343 388.315 832.364 339.811 832.364 339.811C836.315 362.708 818.596 423.266 818.596 423.266L814.157 391.227L807.354 430.224C801.937 403.606 801.693 316.995 801.693 316.995C785.522 377.594 787.07 449.642 787.07 449.642L763.608 375.086L767.111 459.068L742.101 430.953C742.101 430.953 748.741 440.621 755.258 467.644C738.598 467.118 720.717 466.996 702.102 467.158C710.9 446.284 722.02 427.838 722.02 427.838C722.02 427.838 696.033 435.079 687.601 461.859C687.601 461.859 696.4 403.687 712.122 377.878C712.122 377.878 679.944 404.658 674.811 440.297C674.811 440.297 673.182 379.617 668.498 364.892C668.498 364.892 662.185 423.873 654.079 439.69C650.454 446.77 650.617 458.056 651.879 468.412C643.651 468.696 635.383 469.06 627.073 469.424C620.515 390.175 594.08 363.638 594.08 363.638C604.141 387.951 597.542 425.855 597.542 425.855C594.243 412.344 583.205 395.799 583.205 395.799C587.726 410.038 583.042 433.177 583.042 433.177C571.637 403.889 554.733 387.141 554.733 387.141C559.621 394.302 562.879 406.195 564.997 418.21C563.327 435.847 558.602 443.857 556.321 446.729L554.366 445.071C548.134 412.829 557.828 340.135 557.828 340.135C544.224 360.766 531.393 417.684 531.393 417.684C534.855 379.415 520.64 319.503 520.64 319.503C525.65 344.059 508.583 409.836 508.583 409.836L502.758 375.491L496.73 417.724C490.009 389.245 486.873 296 486.873 296C471.476 361.777 475.509 439.326 475.509 439.326L447.77 359.795L454.328 450.127L426.467 420.677C426.467 420.677 433.921 430.872 441.864 459.796C423.901 459.796 404.634 460.2 384.594 461.05C393.392 438.275 404.716 418.048 404.716 418.048C404.716 418.048 376.977 426.705 368.79 455.791C368.79 455.791 376.325 392.845 392.415 364.528C392.415 364.528 358.648 394.423 354.33 432.975C354.33 432.975 350.542 367.683 345.043 351.947C345.043 351.947 340.196 415.661 332.009 432.975C328.343 440.742 328.872 452.878 330.583 463.962C321.744 464.529 312.824 465.176 303.903 465.864C294.25 380.75 264.882 352.999 264.882 352.999C276.531 378.849 270.666 419.868 270.666 419.868C266.674 405.426 254.21 387.951 254.21 387.951C259.546 403.161 255.269 428.242 255.269 428.242C242.031 397.093 223.254 379.617 223.254 379.617C237.714 399.358 240.931 454.86 240.931 454.86L216.981 435.847C216.981 435.847 228.101 453.445 234.292 471.891C110.751 483.744 0 500.006 0 500.006L1157 503Z" fill="#200D47"/>
<path d="M2000.02 94.5196L1993.19 56.4141C1990.85 43.3176 1980.02 34.3018 1969.02 36.2696L1962.09 37.5122C1951.09 39.4839 1944.07 51.6984 1946.41 64.7909L1954.65 110.768C1943.84 115.797 1933.38 121.563 1923.37 128.055C1913.48 134.464 1903.85 141.625 1894.01 148.313L1881.06 100.744L1896.58 96.5227L1893.76 86.178L1878.25 90.3998L1873.09 71.4313L1864.53 73.7597L1869.69 92.7282L1854.18 96.95L1856.99 107.295L1872.51 103.073L1886.22 153.456C1873.26 161.711 1859.76 168.626 1844.73 171.519C1833.75 173.635 1822.66 173.447 1811.54 172.346L1802.13 119.834C1799.79 106.738 1788.97 97.7222 1777.96 99.69L1771.03 100.933C1760.03 102.904 1753.01 115.119 1755.36 128.211L1762.11 165.897C1749.51 164.945 1736.87 165.066 1724.22 165.662L1734.33 115.307L1724.69 97.6242H1691.85L1684.69 116.992L1698.13 167.371C1696.8 167.473 1695.49 167.575 1694.17 167.677C1682.18 168.602 1670.14 169.539 1658.19 170.989L1653.26 139.469C1651.81 130.183 1644.49 123.617 1636.91 124.801L1632.14 125.546C1624.57 126.73 1619.6 135.22 1621.05 144.506L1626.07 176.587C1621.06 177.794 1616.1 179.178 1611.18 180.785C1598.96 184.784 1587.28 190.083 1575.79 195.834L1568.83 170.276L1585.32 165.788L1583 157.258L1566.51 161.746L1562.25 146.11L1553.16 148.587L1557.41 164.224L1540.92 168.712L1543.24 177.242L1559.73 172.753L1567.21 200.212C1553.96 207.08 1540.84 214.273 1527.3 220.482C1519.31 224.143 1511.15 227.444 1502.87 230.392L1511.1 189.397L1501.46 171.715H1468.62L1461.46 191.083L1474.25 239.027C1459.72 242.649 1444.93 245.221 1430.02 246.73L1432.91 210.459C1433.97 197.198 1425.79 185.728 1414.65 184.838L1407.63 184.278C1396.49 183.392 1386.6 193.423 1385.54 206.684L1382.26 247.922C1359.26 246.746 1336.39 243.026 1314.23 236.726L1323.52 202.651L1340.01 207.147L1342.33 198.617L1325.85 194.121L1330.11 178.484L1321.01 176.003L1316.75 191.64L1300.26 187.143L1297.94 195.673L1314.42 200.169L1305.19 234.01C1266.72 221.878 1228.02 203.348 1188.5 210.467C1170.2 213.764 1153.02 222.481 1135.42 228.428L1149.13 178.167L1175.4 185.328L1179.1 171.746L1152.84 164.584L1159.63 139.681L1145.14 135.73L1138.35 160.633L1112.09 153.471L1108.38 167.054L1134.64 174.215L1118.62 232.963C1113.9 233.849 1109.12 234.371 1104.25 234.374C1069.68 234.406 1040.7 208.824 1007.43 199.44C995.477 196.069 983.074 194.803 970.46 194.674L960.205 137.427C957.457 122.077 944.772 111.505 931.871 113.813L923.745 115.268C910.848 117.577 902.62 131.896 905.368 147.246L914.525 198.374C890.288 200.534 866.56 201.706 845 195.214V817H2021V89.9764C2013.95 91.2073 2006.95 92.7243 2000.02 94.5157L2000.02 94.5196Z" fill="url(#paint0_linear_18229_273)"/>
</g>
<defs>
<linearGradient id="paint0_linear_18229_273" x1="2068.13" y1="265.43" x2="917.016" y2="117.813" gradientUnits="userSpaceOnUse">
<stop stop-color="#1B083D"/>
<stop offset="0.63" stop-color="#1B083D" stop-opacity="0.37"/>
<stop offset="1" stop-color="#1B083D" stop-opacity="0"/>
</linearGradient>
<clipPath id="clip0_18229_273">
<rect width="2021" height="503" fill="white"/>
</clipPath>
</defs>
</svg>
