<svg width="64" height="65" viewBox="0 0 64 65" fill="none" xmlns="http://www.w3.org/2000/svg">
<path d="M63.9977 56.2189C64.0576 60.996 62.9551 61.6854 60.0592 60.089C59.0685 59.5407 58.1099 58.932 57.1033 58.412C54.3711 57.001 52.8772 57.2066 50.6323 59.3875C49.386 60.5969 48.2915 61.9635 47.0413 63.1649C44.7405 65.378 42.4916 65.5715 39.8193 63.8421C38.8686 63.2253 37.9898 62.4997 37.0511 61.8668C33.524 59.4883 30.5442 59.4762 27.0331 61.8265C26.1463 62.4191 25.3155 63.0963 24.4287 63.693C21.5327 65.636 19.2239 65.4264 16.7314 62.9472C15.593 61.8184 14.5864 60.5566 13.432 59.444C11.0912 57.1824 9.64123 56.9889 6.79319 58.4724C5.79058 58.9965 4.83591 59.6133 3.84129 60.1535C1.06116 61.6652 -0.169135 60.9597 0.0186036 57.7307C0.134443 55.7432 0.505926 53.7195 1.10909 51.8208C2.53111 47.3501 4.39652 43.0165 5.63879 38.5014C7.0728 33.2769 8.01549 27.9152 9.19785 22.6222C10.3482 17.4621 12.2177 12.6044 15.4332 8.36752C23.9334 -2.82737 40.1788 -2.779 48.6311 8.45218C52.0423 12.9874 54.1514 18.1595 55.0142 23.7066C56.3284 32.1844 58.721 40.3034 61.7608 48.2813C62.8952 51.2604 63.5064 54.4452 63.9937 56.2149L63.9977 56.2189ZM29.2819 14.5193C28.3033 12.1166 25.623 12.427 23.9773 14.4427C21.4568 17.5266 21.4688 24.0533 24.0013 27.0929C25.5951 29.0077 27.8719 29.169 29.1901 27.0848C30.3245 25.2949 31.4869 19.9333 29.2779 14.5193H29.2819ZM37.902 26.6857C39.4598 29.2617 42.164 29.1529 43.9136 26.7059C45.9987 23.7912 45.9348 18.5627 43.7778 15.7287C42.0762 13.4873 39.2761 13.2494 38.0178 15.777C36.0565 19.7075 36.9393 25.1014 37.902 26.6857ZM36.456 36.3165C36.436 33.7445 35.2536 31.7571 33.7477 31.7651C32.2658 31.7732 31.0555 33.8171 31.0395 36.3366C31.0235 38.8199 32.2099 40.9121 33.6678 40.9887C35.2217 41.0694 36.4759 38.965 36.452 36.3165H36.456Z" fill="white"/>
</svg>
