<svg width="82" height="56" viewBox="0 0 82 56" fill="none" xmlns="http://www.w3.org/2000/svg">
<g clip-path="url(#clip0_18201_229)">
<path d="M41.7629 56C41.3066 56 40.8452 55.9277 40.399 55.7934L29.3511 52.3748C27.3839 51.7654 26.0605 49.9476 26.0605 47.851V39.7588C26.0605 39.4489 25.8577 39.17 25.5637 39.0823L17.2536 36.6035C17.1877 36.5828 17.1218 36.5725 17.061 36.5725C16.9798 36.5725 16.8987 36.588 16.8227 36.6138C15.4486 37.125 14.0036 37.3833 12.5232 37.3833C5.61757 37.3833 0.00488281 31.6614 0.00488281 24.633C0.00488281 17.6046 5.62264 11.8827 12.5232 11.8827C13.9935 11.8827 15.4385 12.1409 16.8176 12.6573C16.8937 12.6883 16.9748 12.6986 17.0559 12.6986C17.1218 12.6986 17.1877 12.6883 17.2486 12.6728L59.5846 0.0516415C59.7012 0.0154924 59.8229 0 59.9496 0C60.2285 0 60.5023 0.0929546 60.7253 0.263371C61.0498 0.51125 61.2425 0.90889 61.2425 1.32202V47.9646C61.2425 48.3777 61.0498 48.7754 60.7253 49.0232C60.5023 49.1937 60.2285 49.2866 59.9496 49.2866C59.8279 49.2866 59.7012 49.2711 59.5846 49.235L47.2742 45.5633C47.2133 45.5426 47.1474 45.5323 47.0815 45.5323C46.9345 45.5323 46.7874 45.5839 46.6657 45.6717C46.4934 45.8008 46.3869 46.0125 46.3869 46.2346V51.2696C46.3869 52.7827 45.7024 54.1667 44.5109 55.0653C43.6997 55.6747 42.7516 56 41.7629 56ZM29.3409 40.2442C29.1939 40.2442 29.0469 40.2958 28.9252 40.3836C28.7528 40.5127 28.6463 40.7245 28.6463 40.9465V47.851C28.6463 48.7754 29.2294 49.5758 30.0964 49.8443L41.1443 53.263C41.3421 53.325 41.5398 53.356 41.7426 53.356C42.1837 53.356 42.5995 53.2165 42.9594 52.948C43.4867 52.5503 43.791 51.941 43.791 51.2696V45.0468C43.791 44.737 43.5881 44.4581 43.2941 44.3703L29.5336 40.27C29.4728 40.2494 29.4069 40.239 29.3409 40.239V40.2442ZM12.5181 14.5267C7.04229 14.5267 2.59067 19.0609 2.59067 24.6381C2.59067 30.2154 7.04229 34.7495 12.5181 34.7495C13.2583 34.7495 14.0239 34.6566 14.7946 34.4707C15.1089 34.3932 15.327 34.1143 15.327 33.7838V15.4924C15.327 15.1619 15.1089 14.8831 14.7946 14.8056C14.029 14.6197 13.2634 14.5267 12.5181 14.5267Z" fill="white"/>
<path d="M69.4818 11.0048C69.0559 11.0048 68.6553 10.7931 68.417 10.4368C68.0114 9.83771 68.1584 9.01661 68.7415 8.59832L78.0199 2.04502C78.238 1.89009 78.4915 1.80746 78.7551 1.80746C79.181 1.80746 79.5816 2.01919 79.8249 2.37552C80.2305 2.97456 80.0835 3.79566 79.5004 4.21396L70.222 10.7673C70.004 10.9222 69.7505 10.9996 69.4868 10.9996L69.4818 11.0048Z" fill="white"/>
<path d="M68.5792 23.502C67.8643 23.502 67.2812 22.9081 67.2812 22.18C67.2812 21.4518 67.8643 20.858 68.5792 20.858H80.702C81.4169 20.858 82 21.4518 82 22.18C82 22.9081 81.4169 23.502 80.702 23.502H68.5792Z" fill="white"/>
<path d="M78.005 42.4028C77.7413 42.4028 77.4827 42.3202 77.2647 42.1653L67.8392 35.4571C67.2511 35.0388 67.1091 34.2177 67.5198 33.6186C67.7632 33.2675 68.1587 33.0557 68.5846 33.0557C68.8482 33.0557 69.1068 33.1384 69.3248 33.2933L78.7503 40.0015C79.3384 40.4198 79.4804 41.2409 79.0697 41.8399C78.8263 42.1911 78.4309 42.4028 78.005 42.4028Z" fill="white"/>
</g>
<defs>
<clipPath id="clip0_18201_229">
<rect width="82" height="56" fill="white"/>
</clipPath>
</defs>
</svg>
