<svg width="135" height="51" viewBox="0 0 135 51" fill="none" xmlns="http://www.w3.org/2000/svg">
<rect x="8" y="8" width="127" height="43" rx="21.5" fill="#3B53A7"/>
<rect x="1.19375" y="1.19375" width="128.613" height="44.6125" rx="22.3062" fill="#F4FCFE" stroke="url(#paint0_linear_22263_214)" stroke-width="1.6125"/>
<path d="M36.5824 29.825V17.7849H40.8308C41.6564 17.7849 42.3845 17.9512 43.0152 18.2838C43.6458 18.6163 44.1389 19.0807 44.4944 19.677C44.8498 20.2618 45.0276 20.944 45.0276 21.7238C45.0276 22.4806 44.8613 23.1571 44.5288 23.7534C44.1962 24.3496 43.7318 24.8198 43.1356 25.1638C42.5508 25.4963 41.8685 25.6626 41.0888 25.6626H38.5776V29.825H36.5824ZM38.5776 23.8222H41.0544C41.6277 23.8222 42.0978 23.6272 42.4648 23.2374C42.8317 22.8475 43.0152 22.343 43.0152 21.7238C43.0152 21.0931 42.8088 20.5828 42.396 20.193C41.9832 19.8031 41.45 19.6082 40.7964 19.6082H38.5776V23.8222ZM55.3089 29.825L50.6133 17.7849H52.6085L57.4245 29.825H55.3089ZM45.6941 29.825L50.4929 17.7849H52.5053L47.8097 29.825H45.6941ZM47.9473 26.8666V25.095H55.1541V26.8666H47.9473ZM63.1214 30.0314C62.4908 30.0314 61.9117 29.9568 61.3842 29.8078C60.8682 29.6587 60.4096 29.4523 60.0082 29.1886C59.6184 28.9248 59.2916 28.6324 59.0278 28.3114C58.7756 27.9788 58.5978 27.6348 58.4946 27.2794L60.4554 26.6774C60.6045 27.1016 60.8969 27.4743 61.3326 27.7954C61.7684 28.1164 62.3073 28.2827 62.9494 28.2942C63.6948 28.2942 64.2853 28.1394 64.721 27.8298C65.1568 27.5202 65.3746 27.1131 65.3746 26.6086C65.3746 26.1499 65.1912 25.7772 64.8242 25.4906C64.4573 25.1924 63.9642 24.9631 63.345 24.8026L61.8658 24.4242C61.304 24.2751 60.7937 24.0572 60.335 23.7706C59.8878 23.4839 59.5324 23.1227 59.2686 22.687C59.0164 22.2512 58.8902 21.7352 58.8902 21.139C58.8902 20.0152 59.2572 19.1438 59.991 18.5246C60.7249 17.8939 61.7741 17.5786 63.1386 17.5786C63.9069 17.5786 64.5777 17.699 65.151 17.9397C65.7358 18.1691 66.2174 18.4902 66.5958 18.9029C66.9742 19.3043 67.2552 19.763 67.4386 20.279L65.5122 20.8981C65.3402 20.4395 65.0421 20.0611 64.6178 19.763C64.1936 19.4648 63.6661 19.3158 63.0354 19.3158C62.3818 19.3158 61.8658 19.4706 61.4874 19.7801C61.1205 20.0897 60.937 20.5198 60.937 21.0702C60.937 21.5174 61.0804 21.8671 61.367 22.1194C61.6652 22.3602 62.0665 22.5436 62.571 22.6698L64.0502 23.031C65.1281 23.2947 65.9652 23.7476 66.5614 24.3898C67.1577 25.0319 67.4558 25.7428 67.4558 26.5226C67.4558 27.2106 67.2896 27.8183 66.957 28.3458C66.6245 28.8732 66.1314 29.286 65.4778 29.5842C64.8357 29.8823 64.0502 30.0314 63.1214 30.0314ZM75.1847 30.0314C73.9921 30.0314 72.9372 29.7676 72.0199 29.2402C71.1025 28.7127 70.3801 27.9788 69.8527 27.0386C69.3367 26.0983 69.0787 25.0204 69.0787 23.805C69.0787 22.5895 69.3367 21.5174 69.8527 20.5886C70.3801 19.6483 71.0968 18.9144 72.0027 18.387C72.9085 17.848 73.952 17.5786 75.1331 17.5786C76.3256 17.5786 77.3748 17.848 78.2807 18.387C79.198 18.9144 79.9089 19.6483 80.4135 20.5886C80.9295 21.5174 81.1875 22.5895 81.1875 23.805C81.1875 25.0204 80.9295 26.0983 80.4135 27.0386C79.9089 27.9788 79.2037 28.7127 78.2979 29.2402C77.4035 29.7676 76.3657 30.0314 75.1847 30.0314ZM75.1847 28.2082C75.9644 28.2082 76.6524 28.019 77.2487 27.6406C77.8449 27.2622 78.3093 26.7462 78.6419 26.0926C78.9859 25.4275 79.1579 24.665 79.1579 23.805C79.1579 22.9564 78.9859 22.1996 78.6419 21.5346C78.2979 20.8695 77.822 20.3535 77.2143 19.9866C76.618 19.6082 75.9243 19.419 75.1331 19.419C74.3533 19.419 73.6596 19.6082 73.0519 19.9866C72.4556 20.3535 71.9797 20.8695 71.6243 21.5346C71.2803 22.1882 71.1083 22.945 71.1083 23.805C71.1083 24.665 71.2803 25.4275 71.6243 26.0926C71.9797 26.7462 72.4613 27.2622 73.0691 27.6406C73.6883 28.019 74.3935 28.2082 75.1847 28.2082ZM91.119 30.0314C90.4654 30.0314 89.8691 29.9339 89.3302 29.739C88.7913 29.544 88.3383 29.2688 87.9714 28.9134C87.6045 28.5579 87.3407 28.1566 87.1802 27.7094L88.969 27.0386C89.0607 27.1991 89.1869 27.3768 89.3474 27.5718C89.5079 27.7667 89.7201 27.9387 89.9838 28.0878C90.2475 28.2254 90.5858 28.2942 90.9986 28.2942C91.6522 28.2942 92.1682 28.1107 92.5466 27.7438C92.9365 27.3654 93.1314 26.8895 93.1314 26.3162C93.1314 25.9034 93.0225 25.5479 92.8046 25.2498C92.5982 24.9516 92.2714 24.7223 91.8242 24.5618C91.3885 24.4012 90.8381 24.321 90.173 24.321H89.6226V22.9106H90.1214C90.8209 22.9106 91.4687 22.9908 92.065 23.1514C92.6727 23.3119 93.2059 23.5527 93.6646 23.8738C94.1347 24.1834 94.4959 24.5618 94.7482 25.009C95.0119 25.4562 95.1438 25.9607 95.1438 26.5226C95.1438 27.245 94.9546 27.8699 94.5762 28.3974C94.2093 28.9248 93.7219 29.3319 93.1142 29.6186C92.5065 29.8938 91.8414 30.0314 91.119 30.0314ZM89.6226 24.0114V22.6698H90.173C91.0559 22.6698 91.7267 22.5207 92.1854 22.2226C92.6441 21.9244 92.8734 21.5059 92.8734 20.9669C92.8734 20.6573 92.7931 20.3821 92.6326 20.1414C92.4835 19.8891 92.2657 19.6884 91.979 19.5393C91.6923 19.3903 91.3541 19.3158 90.9642 19.3158C90.7119 19.3158 90.4654 19.3559 90.2246 19.4362C89.9838 19.5164 89.7602 19.6426 89.5538 19.8146C89.3474 19.9866 89.1754 20.2102 89.0378 20.4854L87.3006 19.8489C87.4726 19.3674 87.7478 18.9603 88.1262 18.6278C88.5046 18.2837 88.9461 18.0257 89.4506 17.8537C89.9551 17.6703 90.4826 17.5786 91.033 17.5786C91.7669 17.5786 92.4205 17.7162 92.9938 17.9914C93.5786 18.2666 94.0373 18.6507 94.3698 19.1437C94.7138 19.6253 94.8858 20.1815 94.8858 20.8121C94.8858 21.3396 94.7539 21.804 94.4902 22.2054C94.2379 22.6067 93.8882 22.945 93.441 23.2202C92.9938 23.4839 92.4835 23.6846 91.9102 23.8222C91.3483 23.9483 90.7463 24.0114 90.1042 24.0114H89.6226Z" fill="#3B53A7"/>
<defs>
<linearGradient id="paint0_linear_22263_214" x1="32.2381" y1="-6.0625" x2="91.858" y2="61.8567" gradientUnits="userSpaceOnUse">
<stop stop-color="#3B53A7"/>
<stop offset="1" stop-color="#68CDED"/>
</linearGradient>
</defs>
</svg>
