<svg width="135" height="51" viewBox="0 0 135 51" fill="none" xmlns="http://www.w3.org/2000/svg">
<rect x="8" y="8" width="127" height="43" rx="21.5" fill="#3B53A7"/>
<rect x="1.19375" y="1.19375" width="128.613" height="44.6125" rx="22.3062" fill="#F4FCFE" stroke="url(#paint0_linear_22216_174)" stroke-width="1.6125"/>
<path d="M42.6167 30.0314C41.986 30.0314 41.407 29.9569 40.8795 29.8078C40.3635 29.6587 39.9048 29.4523 39.5035 29.1886C39.1136 28.9249 38.7868 28.6325 38.5231 28.3114C38.2708 27.9789 38.0931 27.6349 37.9899 27.2794L39.9507 26.6774C40.0998 27.1017 40.3922 27.4743 40.8279 27.7954C41.2636 28.1165 41.8026 28.2827 42.4447 28.2942C43.19 28.2942 43.7806 28.1394 44.2163 27.8298C44.652 27.5202 44.8699 27.1131 44.8699 26.6086C44.8699 26.1499 44.6864 25.7773 44.3195 25.4906C43.9526 25.1925 43.4595 24.9631 42.8403 24.8026L41.3611 24.4242C40.7992 24.2751 40.289 24.0573 39.8303 23.7706C39.3831 23.4839 39.0276 23.1227 38.7639 22.687C38.5116 22.2513 38.3855 21.7353 38.3855 21.139C38.3855 20.0153 38.7524 19.1438 39.4863 18.5246C40.2202 17.8939 41.2694 17.5786 42.6339 17.5786C43.4022 17.5786 44.073 17.699 44.6463 17.9398C45.2311 18.1691 45.7127 18.4902 46.0911 18.903C46.4695 19.3043 46.7504 19.763 46.9339 20.279L45.0075 20.8982C44.8355 20.4395 44.5374 20.0611 44.1131 19.763C43.6888 19.4649 43.1614 19.3158 42.5307 19.3158C41.8771 19.3158 41.3611 19.4706 40.9827 19.7802C40.6158 20.0898 40.4323 20.5198 40.4323 21.0702C40.4323 21.5174 40.5756 21.8671 40.8623 22.1194C41.1604 22.3602 41.5618 22.5437 42.0663 22.6698L43.5455 23.031C44.6234 23.2947 45.4604 23.7477 46.0567 24.3898C46.653 25.0319 46.9511 25.7429 46.9511 26.5226C46.9511 27.2106 46.7848 27.8183 46.4523 28.3458C46.1198 28.8733 45.6267 29.2861 44.9731 29.5842C44.331 29.8823 43.5455 30.0314 42.6167 30.0314ZM51.8247 29.825V19.6082H48.1267V17.785H57.5179V19.6082H53.8199V29.825H51.8247ZM59.3457 29.825V17.785H66.7589V19.6082H61.3409V22.8074H66.1225V24.5962H61.3409V28.0018H66.8105V29.825H59.3457ZM69.663 29.825V17.785H73.9114C74.737 17.785 75.4651 17.9513 76.0958 18.2838C76.7265 18.6163 77.2195 19.0807 77.575 19.677C77.9305 20.2618 78.1082 20.9441 78.1082 21.7238C78.1082 22.4806 77.9419 23.1571 77.6094 23.7534C77.2769 24.3497 76.8125 24.8198 76.2162 25.1638C75.6314 25.4963 74.9491 25.6626 74.1694 25.6626H71.6582V29.825H69.663ZM71.6582 23.8222H74.135C74.7083 23.8222 75.1785 23.6273 75.5454 23.2374C75.9123 22.8475 76.0958 22.343 76.0958 21.7238C76.0958 21.0931 75.8894 20.5829 75.4766 20.193C75.0638 19.8031 74.5306 19.6082 73.877 19.6082H71.6582V23.8222ZM83.8695 29.825V28.2942C83.8695 27.9387 83.9613 27.5718 84.1447 27.1934C84.3282 26.8035 84.5862 26.4137 84.9187 26.0238C85.2627 25.6339 85.6641 25.267 86.1227 24.923L88.2211 23.4094C88.4849 23.2259 88.7257 23.0138 88.9435 22.773C89.1729 22.5322 89.3563 22.2799 89.4939 22.0162C89.6315 21.741 89.7003 21.4715 89.7003 21.2078C89.7003 20.8753 89.6143 20.5714 89.4423 20.2962C89.2818 20.021 89.0467 19.8031 88.7371 19.6426C88.439 19.4821 88.0721 19.4018 87.6363 19.4018C87.2465 19.4018 86.8967 19.4821 86.5871 19.6426C86.289 19.7917 86.0425 19.9923 85.8475 20.2446C85.6526 20.4969 85.515 20.7721 85.4347 21.0702L83.3879 20.6918C83.5026 20.1414 83.7434 19.6311 84.1103 19.161C84.4887 18.6794 84.9703 18.2953 85.5551 18.0086C86.1514 17.7219 86.8279 17.5786 87.5847 17.5786C88.4333 17.5786 89.1671 17.7334 89.7863 18.043C90.417 18.3526 90.8986 18.7826 91.2311 19.333C91.5751 19.8719 91.7471 20.4911 91.7471 21.1906C91.7471 21.9015 91.5522 22.5437 91.1623 23.117C90.7839 23.6789 90.2507 24.2178 89.5627 24.7338L87.6363 26.1614C87.2579 26.4366 86.9483 26.7347 86.7075 27.0558C86.4667 27.3654 86.3005 27.6979 86.2087 28.0534H91.9019V29.825H83.8695Z" fill="#3B53A7"/>
<defs>
<linearGradient id="paint0_linear_22216_174" x1="32.2381" y1="-6.0625" x2="91.858" y2="61.8567" gradientUnits="userSpaceOnUse">
<stop stop-color="#3B53A7"/>
<stop offset="1" stop-color="#68CDED"/>
</linearGradient>
</defs>
</svg>
