<svg width="135" height="51" viewBox="0 0 135 51" fill="none" xmlns="http://www.w3.org/2000/svg">
<rect x="8" y="8" width="127" height="43" rx="21.5" fill="#3B53A7"/>
<rect x="1.19375" y="1.19375" width="128.613" height="44.6125" rx="22.3062" fill="#F4FCFE" stroke="url(#paint0_linear_22263_206)" stroke-width="1.6125"/>
<path d="M37.7162 29.825V17.7849H41.9646C42.7902 17.7849 43.5183 17.9512 44.149 18.2838C44.7796 18.6163 45.2727 19.0807 45.6282 19.677C45.9836 20.2618 46.1614 20.944 46.1614 21.7238C46.1614 22.4806 45.9951 23.1571 45.6626 23.7534C45.33 24.3496 44.8656 24.8198 44.2694 25.1638C43.6846 25.4963 43.0023 25.6626 42.2226 25.6626H39.7114V29.825H37.7162ZM39.7114 23.8222H42.1882C42.7615 23.8222 43.2316 23.6272 43.5986 23.2374C43.9655 22.8475 44.149 22.343 44.149 21.7238C44.149 21.0931 43.9426 20.5828 43.5298 20.193C43.117 19.8031 42.5838 19.6082 41.9302 19.6082H39.7114V23.8222ZM56.4427 29.825L51.7471 17.7849H53.7423L58.5583 29.825H56.4427ZM46.8279 29.825L51.6267 17.7849H53.6391L48.9435 29.825H46.8279ZM49.0811 26.8666V25.095H56.2879V26.8666H49.0811ZM64.2552 30.0314C63.6246 30.0314 63.0455 29.9568 62.518 29.8078C62.002 29.6587 61.5433 29.4523 61.142 29.1886C60.7521 28.9248 60.4253 28.6324 60.1616 28.3114C59.9093 27.9788 59.7316 27.6348 59.6284 27.2794L61.5892 26.6774C61.7383 27.1016 62.0307 27.4743 62.4664 27.7954C62.9022 28.1164 63.4411 28.2827 64.0832 28.2942C64.8286 28.2942 65.4191 28.1394 65.8548 27.8298C66.2906 27.5202 66.5084 27.1131 66.5084 26.6086C66.5084 26.1499 66.325 25.7772 65.958 25.4906C65.5911 25.1924 65.098 24.9631 64.4788 24.8026L62.9996 24.4242C62.4378 24.2751 61.9275 24.0572 61.4688 23.7706C61.0216 23.4839 60.6661 23.1227 60.4024 22.687C60.1501 22.2512 60.024 21.7352 60.024 21.139C60.024 20.0152 60.3909 19.1438 61.1248 18.5246C61.8587 17.8939 62.9079 17.5786 64.2724 17.5786C65.0407 17.5786 65.7115 17.699 66.2848 17.9397C66.8696 18.1691 67.3512 18.4902 67.7296 18.9029C68.108 19.3043 68.389 19.763 68.5724 20.279L66.646 20.8981C66.474 20.4395 66.1759 20.0611 65.7516 19.763C65.3274 19.4648 64.7999 19.3158 64.1692 19.3158C63.5156 19.3158 62.9996 19.4706 62.6212 19.7801C62.2543 20.0897 62.0708 20.5198 62.0708 21.0702C62.0708 21.5174 62.2141 21.8671 62.5008 22.1194C62.799 22.3602 63.2003 22.5436 63.7048 22.6698L65.184 23.031C66.2619 23.2947 67.099 23.7476 67.6952 24.3898C68.2915 25.0319 68.5896 25.7428 68.5896 26.5226C68.5896 27.2106 68.4234 27.8183 68.0908 28.3458C67.7583 28.8732 67.2652 29.286 66.6116 29.5842C65.9695 29.8823 65.184 30.0314 64.2552 30.0314ZM76.3185 30.0314C75.1259 30.0314 74.071 29.7676 73.1537 29.2402C72.2363 28.7127 71.5139 27.9788 70.9865 27.0386C70.4705 26.0983 70.2125 25.0204 70.2125 23.805C70.2125 22.5895 70.4705 21.5174 70.9865 20.5886C71.5139 19.6483 72.2306 18.9144 73.1365 18.387C74.0423 17.848 75.0858 17.5786 76.2669 17.5786C77.4594 17.5786 78.5086 17.848 79.4145 18.387C80.3318 18.9144 81.0427 19.6483 81.5473 20.5886C82.0633 21.5174 82.3213 22.5895 82.3213 23.805C82.3213 25.0204 82.0633 26.0983 81.5473 27.0386C81.0427 27.9788 80.3375 28.7127 79.4317 29.2402C78.5373 29.7676 77.4995 30.0314 76.3185 30.0314ZM76.3185 28.2082C77.0982 28.2082 77.7862 28.019 78.3825 27.6406C78.9787 27.2622 79.4431 26.7462 79.7757 26.0926C80.1197 25.4275 80.2917 24.665 80.2917 23.805C80.2917 22.9564 80.1197 22.1996 79.7757 21.5346C79.4317 20.8695 78.9558 20.3535 78.3481 19.9866C77.7518 19.6082 77.0581 19.419 76.2669 19.419C75.4871 19.419 74.7934 19.6082 74.1857 19.9866C73.5894 20.3535 73.1135 20.8695 72.7581 21.5346C72.4141 22.1882 72.2421 22.945 72.2421 23.805C72.2421 24.665 72.4141 25.4275 72.7581 26.0926C73.1135 26.7462 73.5951 27.2622 74.2029 27.6406C74.8221 28.019 75.5273 28.2082 76.3185 28.2082ZM91.0144 29.825V18.8514L91.2036 17.7849H92.9408V29.825H91.0144ZM88.4 21.311V19.505C88.6637 19.5164 88.9619 19.4419 89.2944 19.2814C89.6384 19.1094 89.9767 18.8858 90.3092 18.6106C90.6417 18.3353 90.9399 18.0544 91.2036 17.7678L92.442 19.0577C92.0407 19.482 91.6221 19.8719 91.1864 20.2274C90.7507 20.5828 90.2977 20.858 89.8276 21.0529C89.3689 21.2479 88.8931 21.3339 88.4 21.311Z" fill="#3B53A7"/>
<defs>
<linearGradient id="paint0_linear_22263_206" x1="32.2381" y1="-6.0625" x2="91.858" y2="61.8567" gradientUnits="userSpaceOnUse">
<stop stop-color="#3B53A7"/>
<stop offset="1" stop-color="#68CDED"/>
</linearGradient>
</defs>
</svg>
