<svg width="135" height="51" viewBox="0 0 135 51" fill="none" xmlns="http://www.w3.org/2000/svg">
<rect x="8" y="8" width="127" height="43" rx="21.5" fill="#3B53A7"/>
<rect x="1.19375" y="1.19375" width="128.613" height="44.6125" rx="22.3062" fill="#F4FCFE" stroke="url(#paint0_linear_22245_268)" stroke-width="1.6125"/>
<path d="M42.7931 30.0314C42.1624 30.0314 41.5833 29.9569 41.0559 29.8078C40.5399 29.6587 40.0812 29.4523 39.6799 29.1886C39.29 28.9249 38.9632 28.6325 38.6995 28.3114C38.4472 27.9789 38.2695 27.6349 38.1663 27.2794L40.1271 26.6774C40.2761 27.1017 40.5685 27.4743 41.0043 27.7954C41.44 28.1165 41.9789 28.2827 42.6211 28.2942C43.3664 28.2942 43.9569 28.1394 44.3927 27.8298C44.8284 27.5202 45.0463 27.1131 45.0463 26.6086C45.0463 26.1499 44.8628 25.7773 44.4959 25.4906C44.1289 25.1925 43.6359 24.9631 43.0167 24.8026L41.5375 24.4242C40.9756 24.2751 40.4653 24.0573 40.0067 23.7706C39.5595 23.4839 39.204 23.1227 38.9403 22.687C38.688 22.2513 38.5619 21.7353 38.5619 21.139C38.5619 20.0153 38.9288 19.1438 39.6627 18.5246C40.3965 17.8939 41.4457 17.5786 42.8103 17.5786C43.5785 17.5786 44.2493 17.699 44.8227 17.9398C45.4075 18.1691 45.8891 18.4902 46.2675 18.903C46.6459 19.3043 46.9268 19.763 47.1103 20.279L45.1839 20.8982C45.0119 20.4395 44.7137 20.0611 44.2895 19.763C43.8652 19.4649 43.3377 19.3158 42.7071 19.3158C42.0535 19.3158 41.5375 19.4706 41.1591 19.7802C40.7921 20.0898 40.6087 20.5198 40.6087 21.0702C40.6087 21.5174 40.752 21.8671 41.0387 22.1194C41.3368 22.3602 41.7381 22.5437 42.2427 22.6698L43.7219 23.031C44.7997 23.2947 45.6368 23.7477 46.2331 24.3898C46.8293 25.0319 47.1275 25.7429 47.1275 26.5226C47.1275 27.2106 46.9612 27.8183 46.6287 28.3458C46.2961 28.8733 45.8031 29.2861 45.1495 29.5842C44.5073 29.8823 43.7219 30.0314 42.7931 30.0314ZM52.0011 29.825V19.6082H48.3031V17.785H57.6943V19.6082H53.9963V29.825H52.0011ZM59.5221 29.825V17.785H66.9353V19.6082H61.5173V22.8074H66.2989V24.5962H61.5173V28.0018H66.9869V29.825H59.5221ZM69.8394 29.825V17.785H74.0878C74.9134 17.785 75.6415 17.9513 76.2722 18.2838C76.9028 18.6163 77.3959 19.0807 77.7514 19.677C78.1068 20.2618 78.2846 20.9441 78.2846 21.7238C78.2846 22.4806 78.1183 23.1571 77.7858 23.7534C77.4532 24.3497 76.9888 24.8198 76.3926 25.1638C75.8078 25.4963 75.1255 25.6626 74.3458 25.6626H71.8346V29.825H69.8394ZM71.8346 23.8222H74.3114C74.8847 23.8222 75.3548 23.6273 75.7218 23.2374C76.0887 22.8475 76.2722 22.343 76.2722 21.7238C76.2722 21.0931 76.0658 20.5829 75.653 20.193C75.2402 19.8031 74.707 19.6082 74.0534 19.6082H71.8346V23.8222ZM87.8643 30.0314C87.2107 30.0314 86.6144 29.9339 86.0755 29.739C85.5366 29.5441 85.0836 29.2689 84.7167 28.9134C84.3498 28.5579 84.086 28.1566 83.9255 27.7094L85.7143 27.0386C85.806 27.1991 85.9322 27.3769 86.0927 27.5718C86.2532 27.7667 86.4654 27.9387 86.7291 28.0878C86.9928 28.2254 87.3311 28.2942 87.7439 28.2942C88.3975 28.2942 88.9135 28.1107 89.2919 27.7438C89.6818 27.3654 89.8767 26.8895 89.8767 26.3162C89.8767 25.9034 89.7678 25.5479 89.5499 25.2498C89.3435 24.9517 89.0167 24.7223 88.5695 24.5618C88.1338 24.4013 87.5834 24.321 86.9183 24.321H86.3679V22.9106H86.8667C87.5662 22.9106 88.214 22.9909 88.8103 23.1514C89.418 23.3119 89.9512 23.5527 90.4099 23.8738C90.88 24.1834 91.2412 24.5618 91.4935 25.009C91.7572 25.4562 91.8891 25.9607 91.8891 26.5226C91.8891 27.245 91.6999 27.8699 91.3215 28.3974C90.9546 28.9249 90.4672 29.3319 89.8595 29.6186C89.2518 29.8938 88.5867 30.0314 87.8643 30.0314ZM86.3679 24.0114V22.6698H86.9183C87.8012 22.6698 88.472 22.5207 88.9307 22.2226C89.3894 21.9245 89.6187 21.5059 89.6187 20.967C89.6187 20.6574 89.5384 20.3822 89.3779 20.1414C89.2288 19.8891 89.011 19.6885 88.7243 19.5394C88.4376 19.3903 88.0994 19.3158 87.7095 19.3158C87.4572 19.3158 87.2107 19.3559 86.9699 19.4362C86.7291 19.5165 86.5055 19.6426 86.2991 19.8146C86.0927 19.9866 85.9207 20.2102 85.7831 20.4854L84.0459 19.849C84.2179 19.3674 84.4931 18.9603 84.8715 18.6278C85.2499 18.2838 85.6914 18.0258 86.1959 17.8538C86.7004 17.6703 87.2279 17.5786 87.7783 17.5786C88.5122 17.5786 89.1658 17.7162 89.7391 17.9914C90.3239 18.2666 90.7826 18.6507 91.1151 19.1438C91.4591 19.6254 91.6311 20.1815 91.6311 20.8122C91.6311 21.3397 91.4992 21.8041 91.2355 22.2054C90.9832 22.6067 90.6335 22.945 90.1863 23.2202C89.7391 23.4839 89.2288 23.6846 88.6555 23.8222C88.0936 23.9483 87.4916 24.0114 86.8495 24.0114H86.3679Z" fill="#3B53A7"/>
<defs>
<linearGradient id="paint0_linear_22245_268" x1="32.2381" y1="-6.0625" x2="91.858" y2="61.8567" gradientUnits="userSpaceOnUse">
<stop stop-color="#3B53A7"/>
<stop offset="1" stop-color="#68CDED"/>
</linearGradient>
</defs>
</svg>
