<svg width="135" height="51" viewBox="0 0 135 51" fill="none" xmlns="http://www.w3.org/2000/svg">
<rect x="8" y="8" width="127" height="43" rx="21.5" fill="#3B53A7"/>
<rect x="1.19375" y="1.19375" width="128.613" height="44.6125" rx="22.3062" fill="#F4FCFE" stroke="url(#paint0_linear_22263_210)" stroke-width="1.6125"/>
<path d="M35.906 29.825V17.7849H40.1544C40.98 17.7849 41.7081 17.9512 42.3388 18.2838C42.9695 18.6163 43.4625 19.0807 43.818 19.677C44.1735 20.2618 44.3512 20.944 44.3512 21.7238C44.3512 22.4806 44.1849 23.1571 43.8524 23.7534C43.5199 24.3496 43.0555 24.8198 42.4592 25.1638C41.8744 25.4963 41.1921 25.6626 40.4124 25.6626H37.9012V29.825H35.906ZM37.9012 23.8222H40.378C40.9513 23.8222 41.4215 23.6272 41.7884 23.2374C42.1553 22.8475 42.3388 22.343 42.3388 21.7238C42.3388 21.0931 42.1324 20.5828 41.7196 20.193C41.3068 19.8031 40.7736 19.6082 40.12 19.6082H37.9012V23.8222ZM54.6325 29.825L49.9369 17.7849H51.9321L56.7481 29.825H54.6325ZM45.0177 29.825L49.8165 17.7849H51.8289L47.1333 29.825H45.0177ZM47.2709 26.8666V25.095H54.4777V26.8666H47.2709ZM62.4451 30.0314C61.8144 30.0314 61.2353 29.9568 60.7079 29.8078C60.1919 29.6587 59.7332 29.4523 59.3319 29.1886C58.942 28.9248 58.6152 28.6324 58.3515 28.3114C58.0992 27.9788 57.9215 27.6348 57.8183 27.2794L59.7791 26.6774C59.9281 27.1016 60.2205 27.4743 60.6563 27.7954C61.092 28.1164 61.6309 28.2827 62.2731 28.2942C63.0184 28.2942 63.6089 28.1394 64.0447 27.8298C64.4804 27.5202 64.6983 27.1131 64.6983 26.6086C64.6983 26.1499 64.5148 25.7772 64.1479 25.4906C63.7809 25.1924 63.2879 24.9631 62.6687 24.8026L61.1895 24.4242C60.6276 24.2751 60.1173 24.0572 59.6587 23.7706C59.2115 23.4839 58.856 23.1227 58.5923 22.687C58.34 22.2512 58.2139 21.7352 58.2139 21.139C58.2139 20.0152 58.5808 19.1438 59.3147 18.5246C60.0485 17.8939 61.0977 17.5786 62.4623 17.5786C63.2305 17.5786 63.9013 17.699 64.4747 17.9397C65.0595 18.1691 65.5411 18.4902 65.9195 18.9029C66.2979 19.3043 66.5788 19.763 66.7623 20.279L64.8359 20.8981C64.6639 20.4395 64.3657 20.0611 63.9415 19.763C63.5172 19.4648 62.9897 19.3158 62.3591 19.3158C61.7055 19.3158 61.1895 19.4706 60.8111 19.7801C60.4441 20.0897 60.2607 20.5198 60.2607 21.0702C60.2607 21.5174 60.404 21.8671 60.6907 22.1194C60.9888 22.3602 61.3901 22.5436 61.8947 22.6698L63.3739 23.031C64.4517 23.2947 65.2888 23.7476 65.8851 24.3898C66.4813 25.0319 66.7795 25.7428 66.7795 26.5226C66.7795 27.2106 66.6132 27.8183 66.2807 28.3458C65.9481 28.8732 65.4551 29.286 64.8015 29.5842C64.1593 29.8823 63.3739 30.0314 62.4451 30.0314ZM74.5083 30.0314C73.3158 30.0314 72.2608 29.7676 71.3435 29.2402C70.4262 28.7127 69.7038 27.9788 69.1763 27.0386C68.6603 26.0983 68.4023 25.0204 68.4023 23.805C68.4023 22.5895 68.6603 21.5174 69.1763 20.5886C69.7038 19.6483 70.4204 18.9144 71.3263 18.387C72.2322 17.848 73.2756 17.5786 74.4567 17.5786C75.6492 17.5786 76.6984 17.848 77.6043 18.387C78.5216 18.9144 79.2326 19.6483 79.7371 20.5886C80.2531 21.5174 80.5111 22.5895 80.5111 23.805C80.5111 25.0204 80.2531 26.0983 79.7371 27.0386C79.2326 27.9788 78.5274 28.7127 77.6215 29.2402C76.7271 29.7676 75.6894 30.0314 74.5083 30.0314ZM74.5083 28.2082C75.288 28.2082 75.976 28.019 76.5723 27.6406C77.1686 27.2622 77.633 26.7462 77.9655 26.0926C78.3095 25.4275 78.4815 24.665 78.4815 23.805C78.4815 22.9564 78.3095 22.1996 77.9655 21.5346C77.6215 20.8695 77.1456 20.3535 76.5379 19.9866C75.9416 19.6082 75.2479 19.419 74.4567 19.419C73.677 19.419 72.9832 19.6082 72.3755 19.9866C71.7792 20.3535 71.3034 20.8695 70.9479 21.5346C70.6039 22.1882 70.4319 22.945 70.4319 23.805C70.4319 24.665 70.6039 25.4275 70.9479 26.0926C71.3034 26.7462 71.785 27.2622 72.3927 27.6406C73.0119 28.019 73.7171 28.2082 74.5083 28.2082ZM86.6242 29.825V28.2942C86.6242 27.9387 86.716 27.5718 86.8994 27.1934C87.0829 26.8035 87.3409 26.4136 87.6734 26.0238C88.0174 25.6339 88.4188 25.267 88.8774 24.923L90.9758 23.4094C91.2396 23.2259 91.4804 23.0138 91.6982 22.773C91.9276 22.5322 92.111 22.2799 92.2486 22.0162C92.3862 21.741 92.455 21.4715 92.455 21.2077C92.455 20.8752 92.369 20.5714 92.197 20.2962C92.0365 20.021 91.8014 19.8031 91.4918 19.6426C91.1937 19.482 90.8268 19.4018 90.391 19.4018C90.0012 19.4018 89.6514 19.482 89.3418 19.6426C89.0437 19.7916 88.7972 19.9923 88.6022 20.2446C88.4073 20.4968 88.2697 20.772 88.1894 21.0702L86.1426 20.6918C86.2573 20.1413 86.4981 19.6311 86.865 19.161C87.2434 18.6793 87.725 18.2952 88.3098 18.0086C88.9061 17.7219 89.5826 17.5786 90.3394 17.5786C91.188 17.5786 91.9218 17.7334 92.541 18.0429C93.1717 18.3525 93.6533 18.7826 93.9858 19.333C94.3298 19.8719 94.5018 20.4911 94.5018 21.1906C94.5018 21.9015 94.3069 22.5436 93.917 23.117C93.5386 23.6788 93.0054 24.2178 92.3174 24.7338L90.391 26.1614C90.0126 26.4366 89.703 26.7347 89.4622 27.0558C89.2214 27.3654 89.0552 27.6979 88.9634 28.0534H94.6566V29.825H86.6242Z" fill="#3B53A7"/>
<defs>
<linearGradient id="paint0_linear_22263_210" x1="32.2381" y1="-6.0625" x2="91.858" y2="61.8567" gradientUnits="userSpaceOnUse">
<stop stop-color="#3B53A7"/>
<stop offset="1" stop-color="#68CDED"/>
</linearGradient>
</defs>
</svg>
