<svg width="135" height="51" viewBox="0 0 135 51" fill="none" xmlns="http://www.w3.org/2000/svg">
<rect x="8" y="8" width="127" height="43" rx="21.5" fill="#3B53A7"/>
<rect x="1.19375" y="1.19375" width="128.613" height="44.6125" rx="22.3062" fill="#F4FCFE" stroke="url(#paint0_linear_22216_168)" stroke-width="1.6125"/>
<path d="M44.4268 30.0314C43.7962 30.0314 43.2171 29.9569 42.6896 29.8078C42.1736 29.6587 41.715 29.4523 41.3136 29.1886C40.9238 28.9249 40.597 28.6325 40.3332 28.3114C40.081 27.9789 39.9032 27.6349 39.8 27.2794L41.7608 26.6774C41.9099 27.1017 42.2023 27.4743 42.638 27.7954C43.0738 28.1165 43.6127 28.2827 44.2548 28.2942C45.0002 28.2942 45.5907 28.1394 46.0264 27.8298C46.4622 27.5202 46.68 27.1131 46.68 26.6086C46.68 26.1499 46.4966 25.7773 46.1296 25.4906C45.7627 25.1925 45.2696 24.9631 44.6504 24.8026L43.1712 24.4242C42.6094 24.2751 42.0991 24.0573 41.6404 23.7706C41.1932 23.4839 40.8378 23.1227 40.574 22.687C40.3218 22.2513 40.1956 21.7353 40.1956 21.139C40.1956 20.0153 40.5626 19.1438 41.2964 18.5246C42.0303 17.8939 43.0795 17.5786 44.444 17.5786C45.2123 17.5786 45.8831 17.699 46.4564 17.9398C47.0412 18.1691 47.5228 18.4902 47.9012 18.903C48.2796 19.3043 48.5606 19.763 48.744 20.279L46.8176 20.8982C46.6456 20.4395 46.3475 20.0611 45.9232 19.763C45.499 19.4649 44.9715 19.3158 44.3408 19.3158C43.6872 19.3158 43.1712 19.4706 42.7928 19.7802C42.4259 20.0898 42.2424 20.5198 42.2424 21.0702C42.2424 21.5174 42.3858 21.8671 42.6724 22.1194C42.9706 22.3602 43.3719 22.5437 43.8764 22.6698L45.3556 23.031C46.4335 23.2947 47.2706 23.7477 47.8668 24.3898C48.4631 25.0319 48.7612 25.7429 48.7612 26.5226C48.7612 27.2106 48.595 27.8183 48.2624 28.3458C47.9299 28.8733 47.4368 29.2861 46.7832 29.5842C46.1411 29.8823 45.3556 30.0314 44.4268 30.0314ZM53.6349 29.825V18.7826H55.6301V29.825H53.6349ZM49.9369 19.6082V17.785H59.3281V19.6082H49.9369ZM61.1559 29.825V17.785H63.1511V29.825H61.1559ZM62.7383 29.825V28.0018H68.6207V29.825H62.7383ZM62.7383 24.5962V22.8074H67.9327V24.5962H62.7383ZM62.7383 19.6082V17.785H68.5691V19.6082H62.7383ZM73.2792 25.6626V23.8222H75.9452C76.5185 23.8222 76.9886 23.6273 77.3556 23.2374C77.7225 22.8475 77.906 22.343 77.906 21.7238C77.906 21.2995 77.8085 20.9326 77.6136 20.623C77.4301 20.3019 77.1721 20.0497 76.8396 19.8662C76.507 19.6827 76.1229 19.5967 75.6872 19.6082H73.2792V17.785L75.7216 17.7678C76.5472 17.7678 77.2753 17.9398 77.906 18.2838C78.5366 18.6163 79.0297 19.0807 79.3852 19.677C79.7406 20.2618 79.9184 20.9441 79.9184 21.7238C79.9184 22.4806 79.7521 23.1571 79.4196 23.7534C79.087 24.3497 78.6226 24.8198 78.0264 25.1638C77.4416 25.4963 76.7593 25.6626 75.9796 25.6626H73.2792ZM71.4732 29.825V17.785H73.4684V29.825H71.4732ZM88.2425 29.825L88.2597 18.8514L88.4489 17.785H90.1861L90.1689 29.825H88.2425ZM85.6453 21.311V19.505C85.909 19.5165 86.2072 19.4419 86.5397 19.2814C86.8837 19.1094 87.222 18.8858 87.5545 18.6106C87.887 18.3354 88.1852 18.0545 88.4489 17.7678L89.6873 19.0578C89.286 19.4821 88.8674 19.8719 88.4317 20.2274C87.996 20.5829 87.543 20.8581 87.0729 21.053C86.6142 21.2479 86.1384 21.3339 85.6453 21.311Z" fill="#3B53A7"/>
<defs>
<linearGradient id="paint0_linear_22216_168" x1="32.2381" y1="-6.0625" x2="91.858" y2="61.8567" gradientUnits="userSpaceOnUse">
<stop stop-color="#3B53A7"/>
<stop offset="1" stop-color="#68CDED"/>
</linearGradient>
</defs>
</svg>
