<svg width="452" height="100" viewBox="0 0 452 100" fill="none" xmlns="http://www.w3.org/2000/svg">
<path d="M52.0264 12.5983L39.3501 88.9544H20.9321L30.7749 29.8232H30.3275L11.4995 40.2625L14.1093 24.3053L34.9133 12.5983H52.0264ZM85.311 89.9984C79.7682 89.9984 74.996 88.9917 70.9942 86.9784C66.9925 84.9651 64.0347 82.1937 62.1208 78.6643C60.2069 75.1348 59.5731 71.0833 60.2194 66.5099H78.1153C77.7922 69.2937 78.5503 71.5432 80.3896 73.2582C82.2538 74.9732 84.6647 75.8307 87.6225 75.8307C89.9838 75.8307 92.1338 75.3212 94.0725 74.3021C96.0361 73.2831 97.6766 71.8539 98.9939 70.0146C100.311 68.1752 101.169 66.0377 101.566 63.6018C101.989 61.1411 101.84 58.9911 101.119 57.1518C100.398 55.2877 99.2176 53.8461 97.5772 52.827C95.9367 51.8079 93.9483 51.2984 91.6119 51.2984C89.3749 51.2984 87.1876 51.7955 85.05 52.7897C82.9373 53.7591 81.2223 55.1013 79.9049 56.8163L64.0968 53.7591L74.2751 12.5983H123.265L120.842 27.4744H87.026L82.291 45.4822H82.7384C84.354 43.3695 86.6905 41.6296 89.7477 40.2625C92.8049 38.8706 96.1356 38.1747 99.7396 38.1747C104.313 38.1747 108.203 39.2434 111.409 41.381C114.64 43.4937 116.977 46.4391 118.419 50.2171C119.86 53.9703 120.171 58.2579 119.351 63.0799C118.53 68.3244 116.554 72.9724 113.423 77.0238C110.316 81.0504 106.339 84.2195 101.492 86.531C96.6699 88.8426 91.2763 89.9984 85.311 89.9984ZM170.382 74.6377L171.128 70.6111C171.699 67.4793 172.88 64.5836 174.67 61.9241C176.459 59.2645 178.771 57.127 181.604 55.5114C184.438 53.8958 187.706 53.088 191.41 53.088C195.238 53.088 198.332 53.8958 200.693 55.5114C203.055 57.1021 204.683 59.2273 205.577 61.8868C206.497 64.5215 206.646 67.4296 206.025 70.6111L205.279 74.6377C204.707 77.7446 203.527 80.6403 201.737 83.3247C199.973 85.9842 197.661 88.1218 194.803 89.7374C191.944 91.353 188.638 92.1608 184.885 92.1608C181.132 92.1608 178.075 91.353 175.714 89.7374C173.377 88.1218 171.749 85.9842 170.829 83.3247C169.935 80.6403 169.786 77.7446 170.382 74.6377ZM183.021 70.6111L182.275 74.6377C181.977 76.2036 182.101 77.7322 182.648 79.2235C183.22 80.69 184.55 81.4232 186.638 81.4232C188.825 81.4232 190.403 80.7024 191.373 79.2608C192.342 77.8192 192.976 76.2781 193.274 74.6377L194.02 70.6111C194.318 68.9458 194.231 67.3799 193.759 65.9134C193.286 64.4221 191.919 63.6764 189.657 63.6764C187.57 63.6764 186.016 64.4221 184.997 65.9134C183.978 67.3799 183.319 68.9458 183.021 70.6111ZM138.095 30.9417L138.691 26.9151C139.164 23.7088 140.307 20.7882 142.121 18.1536C143.936 15.5189 146.285 13.4062 149.168 11.8154C152.051 10.1998 155.332 9.39199 159.011 9.39199C162.814 9.39199 165.871 10.1998 168.182 11.8154C170.494 13.4062 172.097 15.5189 172.992 18.1536C173.887 20.7882 174.098 23.7088 173.626 26.9151L173.029 30.9417C172.557 34.1232 171.426 37.0313 169.636 39.666C167.847 42.3007 165.498 44.401 162.59 45.9669C159.707 47.5328 156.388 48.3157 152.635 48.3157C148.857 48.3157 145.812 47.5328 143.501 45.9669C141.214 44.3761 139.623 42.2634 138.729 39.6287C137.859 36.9692 137.647 34.0735 138.095 30.9417ZM150.696 26.9151L150.1 30.9417C149.851 32.607 149.988 34.1605 150.51 35.6021C151.032 37.0189 152.325 37.7273 154.388 37.7273C156.55 37.7273 158.128 37.0189 159.123 35.6021C160.117 34.1605 160.738 32.607 160.987 30.9417L161.583 26.9151C161.832 25.2498 161.732 23.6839 161.285 22.2174C160.838 20.7261 159.495 19.9804 157.258 19.9804C155.146 19.9804 153.58 20.7385 152.561 22.2547C151.566 23.7709 150.945 25.3244 150.696 26.9151ZM133.882 88.9544L199.053 12.5983H209.79L144.619 88.9544H133.882ZM318.024 51.9695C316.632 60.1966 313.898 67.1437 309.821 72.8108C305.77 78.453 300.836 82.7281 295.02 85.6362C289.229 88.5443 283.002 89.9984 276.341 89.9984C269.307 89.9984 263.217 88.4325 258.072 85.3007C252.927 82.1689 249.186 77.6079 246.85 71.6177C244.538 65.6276 244.091 58.3573 245.508 49.807C246.85 41.5799 249.547 34.6203 253.598 28.9284C257.675 23.2365 262.633 18.9241 268.474 15.9911C274.34 13.0333 280.629 11.5544 287.34 11.5544C294.324 11.5544 300.376 13.1327 305.497 16.2894C310.642 19.446 314.37 24.0319 316.682 30.0469C318.993 36.0619 319.44 43.3695 318.024 51.9695ZM299.568 49.807C300.339 45.0099 300.339 40.9709 299.568 37.69C298.823 34.4091 297.356 31.9359 295.169 30.2706C292.982 28.5804 290.136 27.7353 286.631 27.7353C282.754 27.7353 279.249 28.6923 276.117 30.6062C273.01 32.4952 270.413 35.2541 268.325 38.883C266.237 42.4871 264.783 46.8492 263.963 51.9695C263.118 56.8163 263.093 60.8553 263.888 64.0865C264.709 67.3177 266.237 69.7536 268.474 71.394C270.711 73.0096 273.557 73.8174 277.012 73.8174C280.865 73.8174 284.332 72.8854 287.414 71.0212C290.496 69.157 293.069 66.4354 295.132 62.8562C297.22 59.277 298.699 54.9273 299.568 49.807ZM322.647 88.9544L335.323 12.5983H387.445L384.91 27.5862H351.243L348.708 43.2452H379.056L376.521 58.2703H346.173L341.102 88.9544H322.647ZM384.062 88.9544L396.738 12.5983H448.86L446.325 27.5862H412.658L410.123 43.2452H440.471L437.936 58.2703H407.587L402.517 88.9544H384.062Z" fill="white"/>
<path d="M52.0264 12.5983L52.2882 12.6418L52.3395 12.3329H52.0264V12.5983ZM39.3501 88.9544V89.2199H39.5751L39.6119 88.9979L39.3501 88.9544ZM20.9321 88.9544L20.6703 88.9109L20.6189 89.2199H20.9321V88.9544ZM30.7749 29.8232L31.0367 29.8668L31.0882 29.5578H30.7749V29.8232ZM30.3275 29.8232V29.5578H30.2588L30.1988 29.5911L30.3275 29.8232ZM11.4995 40.2625L11.2375 40.2197L11.1491 40.7603L11.6282 40.4947L11.4995 40.2625ZM14.1093 24.3053L13.9791 24.074L13.8679 24.1365L13.8473 24.2624L14.1093 24.3053ZM34.9133 12.5983V12.3329H34.8438L34.7832 12.367L34.9133 12.5983ZM52.0264 12.5983L51.7645 12.5549L39.0882 88.911L39.3501 88.9544L39.6119 88.9979L52.2882 12.6418L52.0264 12.5983ZM39.3501 88.9544V88.689H20.9321V88.9544V89.2199H39.3501V88.9544ZM20.9321 88.9544L21.194 88.998L31.0367 29.8668L30.7749 29.8232L30.5131 29.7796L20.6703 88.9109L20.9321 88.9544ZM30.7749 29.8232V29.5578H30.3275V29.8232V30.0886H30.7749V29.8232ZM30.3275 29.8232L30.1988 29.5911L11.3708 40.0304L11.4995 40.2625L11.6282 40.4947L30.4562 30.0554L30.3275 29.8232ZM11.4995 40.2625L11.7614 40.3054L14.3713 24.3481L14.1093 24.3053L13.8473 24.2624L11.2375 40.2197L11.4995 40.2625ZM14.1093 24.3053L14.2395 24.5366L35.0435 12.8297L34.9133 12.5983L34.7832 12.367L13.9791 24.074L14.1093 24.3053ZM34.9133 12.5983V12.8638H52.0264V12.5983V12.3329H34.9133V12.5983ZM70.9942 86.9784L71.1135 86.7413L70.9942 86.9784ZM62.1208 78.6643L62.3541 78.5377L62.1208 78.6643ZM60.2194 66.5099V66.2445H59.9888L59.9565 66.4728L60.2194 66.5099ZM78.1153 66.5099L78.379 66.5405L78.4133 66.2445H78.1153V66.5099ZM80.3896 73.2582L80.2086 73.4523L80.2099 73.4535L80.3896 73.2582ZM94.0725 74.3021L93.9503 74.0665L93.949 74.0672L94.0725 74.3021ZM101.566 63.6018L101.305 63.5569L101.305 63.5591L101.566 63.6018ZM101.119 57.1518L100.871 57.2476L100.872 57.2487L101.119 57.1518ZM85.05 52.7897L85.1607 53.031L85.1619 53.0304L85.05 52.7897ZM79.9049 56.8163L79.8545 57.0769L80.0155 57.108L80.1154 56.978L79.9049 56.8163ZM64.0968 53.7591L63.8391 53.6953L63.7721 53.9666L64.0464 54.0197L64.0968 53.7591ZM74.2751 12.5983V12.3329H74.0673L74.0175 12.5346L74.2751 12.5983ZM123.265 12.5983L123.527 12.641L123.578 12.3329H123.265V12.5983ZM120.842 27.4744V27.7398H121.068L121.104 27.517L120.842 27.4744ZM87.026 27.4744V27.2089H86.8213L86.7693 27.4069L87.026 27.4744ZM82.291 45.4822L82.0343 45.4147L81.9468 45.7476H82.291V45.4822ZM82.7384 45.4822V45.7476H82.8696L82.9493 45.6434L82.7384 45.4822ZM89.7477 40.2625L89.856 40.5048L89.8577 40.5041L89.7477 40.2625ZM111.409 41.381L111.262 41.6019L111.264 41.6032L111.409 41.381ZM118.419 50.2171L118.171 50.3118L118.171 50.3123L118.419 50.2171ZM119.351 63.0799L119.089 63.0354L119.088 63.0389L119.351 63.0799ZM113.423 77.0238L113.213 76.8615L113.212 76.8616L113.423 77.0238ZM101.492 86.531L101.378 86.2914L101.377 86.2917L101.492 86.531ZM85.311 89.9984V89.7329C79.8 89.7329 75.0705 88.7321 71.1135 86.7413L70.9942 86.9784L70.8749 87.2156C74.9214 89.2514 79.7364 90.2638 85.311 90.2638V89.9984ZM70.9942 86.9784L71.1135 86.7413C67.1544 84.7494 64.2392 82.0141 62.3541 78.5377L62.1208 78.6643L61.8875 78.7908C63.8301 82.3734 66.8306 85.1808 70.8749 87.2156L70.9942 86.9784ZM62.1208 78.6643L62.3541 78.5377C60.4713 75.0655 59.8427 71.073 60.4822 66.5471L60.2194 66.5099L59.9565 66.4728C59.3036 71.0937 59.9425 75.204 61.8875 78.7908L62.1208 78.6643ZM60.2194 66.5099V66.7754H78.1153V66.5099V66.2445H60.2194V66.5099ZM78.1153 66.5099L77.8516 66.4793C77.5201 69.3359 78.2999 71.6726 80.2086 73.4523L80.3896 73.2582L80.5706 73.0641C78.8007 71.4138 78.0643 69.2516 78.379 66.5405L78.1153 66.5099ZM80.3896 73.2582L80.2099 73.4535C82.1311 75.2211 84.6101 76.0962 87.6225 76.0962V75.8307V75.5653C84.7194 75.5653 82.3764 74.7254 80.5693 73.0629L80.3896 73.2582ZM87.6225 75.8307V76.0962C90.0234 76.0962 92.2163 75.5777 94.1961 74.5371L94.0725 74.3021L93.949 74.0672C92.0513 75.0647 89.9442 75.5653 87.6225 75.5653V75.8307ZM94.0725 74.3021L94.1948 74.5377C96.1964 73.4989 97.8686 72.0416 99.2097 70.1691L98.9939 70.0146L98.7781 69.86C97.4846 71.6661 95.8759 73.0672 93.9503 74.0665L94.0725 74.3021ZM98.9939 70.0146L99.2097 70.1691C100.553 68.2936 101.425 66.117 101.828 63.6446L101.566 63.6018L101.305 63.5591C100.913 65.9583 100.07 68.0568 98.7781 69.86L98.9939 70.0146ZM101.566 63.6018L101.828 63.6468C102.257 61.1508 102.109 58.9498 101.366 57.055L101.119 57.1518L100.872 57.2487C101.571 59.0325 101.721 61.1315 101.305 63.5569L101.566 63.6018ZM101.119 57.1518L101.367 57.0561C100.626 55.1402 99.4085 53.6521 97.7172 52.6015L97.5772 52.827L97.4371 53.0525C99.0268 54.04 100.171 55.4352 100.872 57.2476L101.119 57.1518ZM97.5772 52.827L97.7172 52.6015C96.0267 51.5513 93.9873 51.0329 91.6119 51.0329V51.2984V51.5638C93.9092 51.5638 95.8468 52.0645 97.4371 53.0525L97.5772 52.827ZM91.6119 51.2984V51.0329C89.3341 51.0329 87.1088 51.5394 84.9381 52.549L85.05 52.7897L85.1619 53.0304C87.2664 52.0516 89.4156 51.5638 91.6119 51.5638V51.2984ZM85.05 52.7897L84.9393 52.5484C82.7904 53.5344 81.04 54.9028 79.6944 56.6546L79.9049 56.8163L80.1154 56.978C81.4045 55.2997 83.0842 53.9837 85.1607 53.0309L85.05 52.7897ZM79.9049 56.8163L79.9553 56.5557L64.1472 53.4984L64.0968 53.7591L64.0464 54.0197L79.8545 57.0769L79.9049 56.8163ZM64.0968 53.7591L64.3545 53.8228L74.5328 12.6621L74.2751 12.5983L74.0175 12.5346L63.8391 53.6953L64.0968 53.7591ZM74.2751 12.5983V12.8638H123.265V12.5983V12.3329H74.2751V12.5983ZM123.265 12.5983L123.003 12.5557L120.58 27.4317L120.842 27.4744L121.104 27.517L123.527 12.641L123.265 12.5983ZM120.842 27.4744V27.2089H87.026V27.4744V27.7398H120.842V27.4744ZM87.026 27.4744L86.7693 27.4069L82.0343 45.4147L82.291 45.4822L82.5478 45.5497L87.2827 27.5419L87.026 27.4744ZM82.291 45.4822V45.7476H82.7384V45.4822V45.2167H82.291V45.4822ZM82.7384 45.4822L82.9493 45.6434C84.5319 43.5738 86.8289 41.8584 89.856 40.5048L89.7477 40.2625L89.6393 40.0202C86.552 41.4007 84.1762 43.1651 82.5276 45.3209L82.7384 45.4822ZM89.7477 40.2625L89.8577 40.5041C92.8779 39.129 96.1707 38.4401 99.7396 38.4401V38.1747V37.9092C96.1004 37.9092 92.7319 38.6122 89.6377 40.0209L89.7477 40.2625ZM99.7396 38.1747V38.4401C104.271 38.4401 108.107 39.4984 111.262 41.6019L111.409 41.381L111.556 41.1602C108.299 38.9884 104.355 37.9092 99.7396 37.9092V38.1747ZM111.409 41.381L111.264 41.6032C114.446 43.6838 116.748 46.5834 118.171 50.3118L118.419 50.2171L118.667 50.1225C117.206 46.2948 114.835 43.3037 111.555 41.1589L111.409 41.381ZM118.419 50.2171L118.171 50.3123C119.592 54.0123 119.903 58.2502 119.089 63.0354L119.351 63.0799L119.612 63.1244C120.439 58.2656 120.128 53.9284 118.666 50.122L118.419 50.2171ZM119.351 63.0799L119.088 63.0389C118.275 68.2409 116.316 72.8467 113.213 76.8615L113.423 77.0238L113.633 77.1861C116.793 73.098 118.786 68.4079 119.613 63.1209L119.351 63.0799ZM113.423 77.0238L113.212 76.8616C110.132 80.8534 106.189 83.9968 101.378 86.2915L101.492 86.531L101.606 86.7706C106.488 84.4422 110.499 81.2474 113.633 77.186L113.423 77.0238ZM101.492 86.531L101.377 86.2917C96.595 88.5842 91.2412 89.7329 85.311 89.7329V89.9984V90.2638C91.3114 90.2638 96.7449 89.101 101.607 86.7704L101.492 86.531ZM170.382 74.6377L170.643 74.6877L170.643 74.686L170.382 74.6377ZM171.128 70.6111L171.389 70.6594L171.389 70.6588L171.128 70.6111ZM174.67 61.9241L174.449 61.7759L174.67 61.9241ZM181.604 55.5114L181.736 55.742L181.604 55.5114ZM200.693 55.5114L200.543 55.7304L200.545 55.7315L200.693 55.5114ZM205.577 61.8868L205.326 61.9715L205.327 61.9743L205.577 61.8868ZM206.025 70.6111L205.764 70.5602L205.764 70.5628L206.025 70.6111ZM205.279 74.6377L205.018 74.5893L205.018 74.5896L205.279 74.6377ZM201.737 83.3247L201.516 83.1774L201.516 83.1779L201.737 83.3247ZM175.714 89.7374L175.563 89.9557L175.564 89.9565L175.714 89.7374ZM170.829 83.3247L170.578 83.4086L170.579 83.4114L170.829 83.3247ZM183.021 70.6111L183.282 70.6594L183.282 70.6579L183.021 70.6111ZM182.275 74.6377L182.536 74.6873L182.536 74.686L182.275 74.6377ZM182.648 79.2235L182.399 79.3149L182.401 79.3199L182.648 79.2235ZM193.274 74.6377L193.013 74.5893L193.013 74.5902L193.274 74.6377ZM194.02 70.6111L194.281 70.6594L194.281 70.6579L194.02 70.6111ZM193.759 65.9134L193.506 65.9935L193.506 65.9948L193.759 65.9134ZM184.997 65.9134L185.215 66.0649L185.216 66.0632L184.997 65.9134ZM138.095 30.9417L137.832 30.9028L137.832 30.9042L138.095 30.9417ZM138.691 26.9151L138.954 26.954L138.954 26.9538L138.691 26.9151ZM149.168 11.8154L149.296 12.0478L149.298 12.047L149.168 11.8154ZM168.182 11.8154L168.03 12.033L168.032 12.0341L168.182 11.8154ZM173.626 26.9151L173.888 26.954L173.888 26.9538L173.626 26.9151ZM173.029 30.9417L173.292 30.9807L173.292 30.9806L173.029 30.9417ZM162.59 45.9669L162.464 45.7331L162.463 45.7336L162.59 45.9669ZM143.501 45.9669L143.349 46.1848L143.352 46.1866L143.501 45.9669ZM138.729 39.6287L138.476 39.7112L138.477 39.7141L138.729 39.6287ZM150.696 26.9151L150.434 26.8741L150.434 26.8762L150.696 26.9151ZM150.1 30.9417L150.362 30.9809L150.363 30.9806L150.1 30.9417ZM150.51 35.6021L150.26 35.6925L150.261 35.6939L150.51 35.6021ZM159.122 35.6021L159.34 35.7546L159.341 35.7528L159.122 35.6021ZM160.987 30.9417L161.249 30.9809L161.249 30.9806L160.987 30.9417ZM161.583 26.9151L161.321 26.8759L161.321 26.8762L161.583 26.9151ZM161.285 22.2174L161.031 22.2937L161.031 22.2949L161.285 22.2174ZM152.561 22.2547L152.34 22.1066L152.339 22.1092L152.561 22.2547ZM133.882 88.9544L133.68 88.7821L133.306 89.2199H133.882V88.9544ZM199.053 12.5983V12.3329H198.93L198.851 12.426L199.053 12.5983ZM209.79 12.5983L209.992 12.7707L210.366 12.3329H209.79V12.5983ZM144.619 88.9544V89.2199H144.742L144.821 89.1268L144.619 88.9544ZM170.382 74.6377L170.643 74.686L171.389 70.6594L171.128 70.6111L170.867 70.5628L170.121 74.5893L170.382 74.6377ZM171.128 70.6111L171.389 70.6588C171.954 67.5632 173.121 64.7017 174.89 62.0723L174.67 61.9241L174.449 61.7759C172.64 64.4656 171.445 67.3954 170.867 70.5634L171.128 70.6111ZM174.67 61.9241L174.89 62.0723C176.656 59.4473 178.937 57.3377 181.736 55.742L181.604 55.5114L181.473 55.2808C178.604 56.9163 176.262 59.0818 174.449 61.7759L174.67 61.9241ZM181.604 55.5114L181.736 55.742C184.524 54.1521 187.746 53.3534 191.41 53.3534V53.088V52.8225C187.667 52.8225 184.352 53.6394 181.473 55.2808L181.604 55.5114ZM191.41 53.088V53.3534C195.202 53.3534 198.239 54.1537 200.543 55.7304L200.693 55.5114L200.843 55.2923C198.425 53.6378 195.273 52.8225 191.41 52.8225V53.088ZM200.693 55.5114L200.545 55.7315C202.859 57.2902 204.45 59.3681 205.326 61.9715L205.577 61.8868L205.829 61.8022C204.915 59.0865 203.251 56.9141 200.842 55.2912L200.693 55.5114ZM205.577 61.8868L205.327 61.9743C206.229 64.5578 206.378 67.4173 205.764 70.5602L206.025 70.6111L206.285 70.662C206.914 67.4418 206.766 64.4852 205.828 61.7993L205.577 61.8868ZM206.025 70.6111L205.764 70.5628L205.018 74.5893L205.279 74.6377L205.54 74.686L206.286 70.6594L206.025 70.6111ZM205.279 74.6377L205.018 74.5896C204.453 77.6604 203.286 80.5224 201.516 83.1774L201.737 83.3247L201.958 83.4719C203.767 80.7582 204.962 77.8289 205.54 74.6857L205.279 74.6377ZM201.737 83.3247L201.516 83.1779C199.775 85.8016 197.495 87.9107 194.672 89.5063L194.803 89.7374L194.933 89.9685C197.827 88.3329 200.17 86.1668 201.958 83.4714L201.737 83.3247ZM194.803 89.7374L194.672 89.5063C191.859 91.0963 188.599 91.8954 184.885 91.8954V92.1608V92.4262C188.678 92.4262 192.03 91.6097 194.933 89.9685L194.803 89.7374ZM184.885 92.1608V91.8954C181.169 91.8954 178.169 91.0956 175.863 89.5183L175.714 89.7374L175.564 89.9565C177.981 91.6104 181.095 92.4262 184.885 92.4262V92.1608ZM175.714 89.7374L175.865 89.5191C173.574 87.9353 171.981 85.8436 171.08 83.2379L170.829 83.3247L170.579 83.4114C171.517 86.1249 173.18 88.3083 175.563 89.9557L175.714 89.7374ZM170.829 83.3247L171.081 83.2407C170.202 80.6044 170.054 77.7554 170.643 74.6877L170.382 74.6377L170.121 74.5876C169.517 77.7339 169.667 80.6761 170.578 83.4086L170.829 83.3247ZM183.021 70.6111L182.76 70.5628L182.014 74.5893L182.275 74.6377L182.536 74.686L183.282 70.6594L183.021 70.6111ZM182.275 74.6377L182.015 74.588C181.707 76.2009 181.836 77.7783 182.399 79.3149L182.648 79.2235L182.897 79.1321C182.367 77.6861 182.247 76.2062 182.536 74.6873L182.275 74.6377ZM182.648 79.2235L182.401 79.3199C182.708 80.1088 183.225 80.708 183.946 81.1057C184.662 81.5006 185.565 81.6887 186.638 81.6887V81.4232V81.1578C185.622 81.1578 184.816 80.9792 184.202 80.6409C183.594 80.3054 183.16 79.8047 182.896 79.1271L182.648 79.2235ZM186.638 81.4232V81.6887C188.887 81.6887 190.561 80.943 191.593 79.4089L191.373 79.2608L191.152 79.1127C190.245 80.4618 188.762 81.1578 186.638 81.1578V81.4232ZM191.373 79.2608L191.593 79.4089C192.582 77.9382 193.23 76.3631 193.535 74.6852L193.274 74.6377L193.013 74.5902C192.721 76.1931 192.102 77.7001 191.152 79.1127L191.373 79.2608ZM193.274 74.6377L193.535 74.686L194.281 70.6594L194.02 70.6111L193.759 70.5628L193.013 74.5893L193.274 74.6377ZM194.02 70.6111L194.281 70.6579C194.586 68.9541 194.498 67.3438 194.011 65.832L193.759 65.9134L193.506 65.9948C193.964 67.4159 194.05 68.9375 193.758 70.5643L194.02 70.6111ZM193.759 65.9134L194.012 65.8333C193.755 65.0226 193.25 64.4084 192.506 64.0026C191.77 63.6011 190.814 63.411 189.657 63.411V63.6764V63.9418C190.763 63.9418 191.621 64.1246 192.252 64.4687C192.875 64.8085 193.29 65.3128 193.506 65.9935L193.759 65.9134ZM189.657 63.6764V63.411C187.498 63.411 185.855 64.1878 184.778 65.7636L184.997 65.9134L185.216 66.0632C186.178 64.6564 187.641 63.9418 189.657 63.9418V63.6764ZM184.997 65.9134L184.779 65.7619C183.739 67.258 183.065 68.8593 182.76 70.5643L183.021 70.6111L183.282 70.6579C183.574 69.0322 184.217 67.5018 185.215 66.0649L184.997 65.9134ZM138.095 30.9417L138.357 30.9806L138.954 26.954L138.691 26.9151L138.429 26.8762L137.832 30.9028L138.095 30.9417ZM138.691 26.9151L138.954 26.9538C139.42 23.7871 140.549 20.9049 142.34 18.3041L142.121 18.1536L141.903 18.003C140.065 20.6716 138.907 23.6305 138.429 26.8764L138.691 26.9151ZM142.121 18.1536L142.34 18.3041C144.13 15.7044 146.448 13.6193 149.296 12.0478L149.168 11.8154L149.04 11.583C146.121 13.193 143.741 15.3334 141.903 18.003L142.121 18.1536ZM149.168 11.8154L149.298 12.047C152.137 10.456 155.372 9.65743 159.011 9.65743V9.39199V9.12655C155.292 9.12655 151.965 9.94359 149.038 11.5838L149.168 11.8154ZM159.011 9.39199V9.65743C162.778 9.65743 165.776 10.4577 168.03 12.033L168.182 11.8154L168.334 11.5978C165.965 9.94188 162.849 9.12655 159.011 9.12655V9.39199ZM168.182 11.8154L168.032 12.0341C170.297 13.5927 171.864 15.6589 172.741 18.2389L172.992 18.1536L173.243 18.0682C172.33 15.3789 170.691 13.2196 168.333 11.5967L168.182 11.8154ZM172.992 18.1536L172.741 18.2389C173.62 20.8276 173.83 23.7049 173.363 26.8764L173.626 26.9151L173.888 26.9538C174.366 23.7126 174.154 20.7488 173.243 18.0682L172.992 18.1536ZM173.626 26.9151L173.363 26.8762L172.767 30.9028L173.029 30.9417L173.292 30.9806L173.888 26.954L173.626 26.9151ZM173.029 30.9417L172.767 30.9027C172.3 34.0452 171.184 36.9155 169.417 39.5168L169.636 39.666L169.856 39.8151C171.668 37.1471 172.814 34.2013 173.292 30.9807L173.029 30.9417ZM169.636 39.666L169.417 39.5168C167.652 42.1149 165.336 44.1867 162.464 45.7331L162.59 45.9669L162.716 46.2006C165.66 44.6152 168.041 42.4865 169.856 39.8151L169.636 39.666ZM162.59 45.9669L162.463 45.7336C159.624 47.2755 156.351 48.0503 152.635 48.0503V48.3157V48.5811C156.426 48.5811 159.789 47.79 162.717 46.2001L162.59 45.9669ZM152.635 48.3157V48.0503C148.892 48.0503 145.904 47.2744 143.65 45.7471L143.501 45.9669L143.352 46.1866C145.72 47.7911 148.822 48.5811 152.635 48.5811V48.3157ZM143.501 45.9669L143.652 45.749C141.412 44.1906 139.856 42.1243 138.98 39.5433L138.729 39.6287L138.477 39.7141C139.39 42.4025 141.016 44.5617 143.349 46.1848L143.501 45.9669ZM138.729 39.6287L138.981 39.5462C138.125 36.9301 137.915 34.076 138.358 30.9792L138.095 30.9417L137.832 30.9042C137.38 34.071 137.592 37.0082 138.476 39.7112L138.729 39.6287ZM150.696 26.9151L150.434 26.8762L149.837 30.9028L150.1 30.9417L150.363 30.9806L150.959 26.954L150.696 26.9151ZM150.1 30.9417L149.837 30.9025C149.583 32.6071 149.722 34.2055 150.26 35.6925L150.51 35.6021L150.76 35.5117C150.254 34.1155 150.12 32.607 150.362 30.9809L150.1 30.9417ZM150.51 35.6021L150.261 35.6939C150.544 36.4608 151.039 37.0429 151.743 37.4287C152.441 37.8112 153.328 37.9927 154.388 37.9927V37.7273V37.4618C153.384 37.4618 152.593 37.2891 151.998 36.9632C151.41 36.6406 150.999 36.1602 150.759 35.5104L150.51 35.6021ZM154.388 37.7273V37.9927C156.612 37.9927 158.283 37.2599 159.34 35.7546L159.122 35.6021L158.905 35.4496C157.973 36.7778 156.488 37.4618 154.388 37.4618V37.7273ZM159.122 35.6021L159.341 35.7528C160.357 34.2792 160.994 32.6879 161.249 30.9809L160.987 30.9417L160.724 30.9025C160.482 32.5262 159.876 34.0417 158.904 35.4514L159.122 35.6021ZM160.987 30.9417L161.249 30.9806L161.846 26.954L161.583 26.9151L161.321 26.8762L160.724 30.9028L160.987 30.9417ZM161.583 26.9151L161.846 26.9543C162.1 25.2538 161.999 23.6478 161.539 22.14L161.285 22.2174L161.031 22.2949C161.466 23.72 161.564 25.2458 161.321 26.8759L161.583 26.9151ZM161.285 22.2174L161.539 22.1412C161.296 21.3303 160.804 20.7146 160.072 20.3076C159.347 19.9052 158.403 19.715 157.258 19.715V19.9804V20.2459C158.351 20.2459 159.196 20.4285 159.814 20.7717C160.423 21.1104 160.827 21.6133 161.031 22.2937L161.285 22.2174ZM157.258 19.9804V19.715C155.073 19.715 153.417 20.5047 152.34 22.1066L152.561 22.2547L152.781 22.4028C153.742 20.9724 155.218 20.2459 157.258 20.2459V19.9804ZM152.561 22.2547L152.339 22.1092C151.326 23.6529 150.689 25.2416 150.434 26.8741L150.696 26.9151L150.959 26.9561C151.201 25.4071 151.807 23.8888 152.783 22.4003L152.561 22.2547ZM133.882 88.9544L134.084 89.1268L199.255 12.7707L199.053 12.5983L198.851 12.426L133.68 88.7821L133.882 88.9544ZM199.053 12.5983V12.8638H209.79V12.5983V12.3329H199.053V12.5983ZM209.79 12.5983L209.589 12.426L144.417 88.7821L144.619 88.9544L144.821 89.1268L209.992 12.7707L209.79 12.5983ZM144.619 88.9544V88.689H133.882V88.9544V89.2199H144.619V88.9544ZM318.024 51.9695L318.285 52.0137L318.286 52.0126L318.024 51.9695ZM309.821 72.8108L309.606 72.6558L309.606 72.656L309.821 72.8108ZM295.02 85.6362L294.901 85.3988L294.901 85.399L295.02 85.6362ZM258.072 85.3007L257.934 85.5274L258.072 85.3007ZM246.85 71.6177L246.602 71.7133L246.603 71.7142L246.85 71.6177ZM245.508 49.807L245.77 49.8504L245.77 49.8498L245.508 49.807ZM253.598 28.9284L253.382 28.7739L253.382 28.7745L253.598 28.9284ZM268.474 15.9911L268.593 16.2283L268.594 16.2281L268.474 15.9911ZM305.497 16.2894L305.357 16.5153L305.358 16.5156L305.497 16.2894ZM316.682 30.0469L316.929 29.9517L316.682 30.0469ZM299.569 49.807L299.83 49.8515L299.831 49.8491L299.569 49.807ZM299.569 37.69L299.31 37.7488L299.31 37.7507L299.569 37.69ZM295.169 30.2706L295.007 30.4807L295.008 30.4818L295.169 30.2706ZM276.117 30.6062L276.255 30.833L276.256 30.8327L276.117 30.6062ZM268.325 38.883L268.555 39.0161L268.555 39.0154L268.325 38.883ZM263.963 51.9695L264.225 52.0151L264.225 52.0114L263.963 51.9695ZM263.888 64.0865L263.631 64.15L263.631 64.1518L263.888 64.0865ZM268.474 71.394L268.317 71.6081L268.319 71.6092L268.474 71.394ZM287.414 71.0212L287.277 70.7941L287.414 71.0212ZM295.132 62.8562L294.902 62.7224L294.902 62.7236L295.132 62.8562ZM318.024 51.9695L317.762 51.9252C316.376 60.1201 313.654 67.0275 309.606 72.6558L309.821 72.8108L310.037 72.9658C314.141 67.26 316.888 60.2731 318.285 52.0137L318.024 51.9695ZM309.821 72.8108L309.606 72.656C305.578 78.2656 300.676 82.5113 294.901 85.3988L295.02 85.6362L295.139 85.8737C300.996 82.945 305.962 78.6404 310.037 72.9656L309.821 72.8108ZM295.02 85.6362L294.901 85.399C289.148 88.288 282.962 89.7329 276.341 89.7329V89.9984V90.2638C283.042 90.2638 289.31 88.8006 295.139 85.8735L295.02 85.6362ZM276.341 89.9984V89.7329C269.347 89.7329 263.307 88.1764 258.21 85.074L258.072 85.3007L257.934 85.5274C263.127 88.6885 269.267 90.2638 276.341 90.2638V89.9984ZM258.072 85.3007L258.21 85.074C253.118 81.9745 249.414 77.4611 247.097 71.5213L246.85 71.6177L246.603 71.7142C248.959 77.7547 252.736 82.3633 257.934 85.5274L258.072 85.3007ZM246.85 71.6177L247.098 71.5222C244.808 65.5891 244.358 58.3697 245.77 49.8504L245.508 49.807L245.246 49.7636C243.824 58.3449 244.269 65.6661 246.602 71.7133L246.85 71.6177ZM245.508 49.807L245.77 49.8498C247.107 41.655 249.791 34.7354 253.814 29.0823L253.598 28.9284L253.382 28.7745C249.303 34.5053 246.593 41.5047 245.246 49.7643L245.508 49.807ZM253.598 28.9284L253.814 29.083C257.867 23.4235 262.794 19.1406 268.593 16.2283L268.474 15.9911L268.355 15.7539C262.473 18.7075 257.482 23.0495 253.382 28.7739L253.598 28.9284ZM268.474 15.9911L268.594 16.2281C274.422 13.2894 280.669 11.8199 287.34 11.8199V11.5544V11.289C280.588 11.289 274.259 12.7772 268.355 15.7541L268.474 15.9911ZM287.34 11.5544V11.8199C294.283 11.8199 300.285 13.3884 305.357 16.5153L305.497 16.2894L305.636 16.0634C300.467 12.877 294.365 11.289 287.34 11.289V11.5544ZM305.497 16.2894L305.358 16.5156C310.45 19.6396 314.142 24.1776 316.434 30.1421L316.682 30.0469L316.929 29.9517C314.598 23.8861 310.834 19.2524 305.635 16.0631L305.497 16.2894ZM316.682 30.0469L316.434 30.1421C318.723 36.1002 319.173 43.3571 317.762 51.9263L318.024 51.9695L318.286 52.0126C319.707 43.3819 319.263 36.0236 316.929 29.9517L316.682 30.0469ZM299.569 49.807L299.831 49.8491C300.604 45.0317 300.608 40.9553 299.827 37.6293L299.569 37.69L299.31 37.7507C300.07 40.9865 300.074 44.9881 299.306 49.7649L299.569 49.807ZM299.569 37.69L299.827 37.6312C299.071 34.3036 297.577 31.7704 295.33 30.0594L295.169 30.2706L295.008 30.4818C297.136 32.1015 298.575 34.5145 299.31 37.7488L299.569 37.69ZM295.169 30.2706L295.331 30.0606C293.086 28.3258 290.179 27.4699 286.631 27.4699V27.7353V28.0008C290.093 28.0008 292.877 28.8351 295.007 30.4806L295.169 30.2706ZM286.631 27.7353V27.4699C282.708 27.4699 279.155 28.4389 275.979 30.3797L276.117 30.6062L276.256 30.8327C279.343 28.9457 282.8 28.0008 286.631 28.0008V27.7353ZM276.117 30.6062L275.979 30.3793C272.829 32.2949 270.202 35.0889 268.095 38.7507L268.325 38.883L268.555 39.0154C270.624 35.4193 273.192 32.6955 276.255 30.833L276.117 30.6062ZM268.325 38.883L268.095 38.75C265.988 42.3881 264.525 46.7827 263.701 51.9275L263.963 51.9695L264.225 52.0114C265.041 46.9157 266.487 42.5861 268.555 39.0161L268.325 38.883ZM263.963 51.9695L263.702 51.9239C262.853 56.7911 262.823 60.8702 263.631 64.15L263.888 64.0865L264.146 64.0231C263.363 60.8404 263.383 56.8415 264.224 52.0151L263.963 51.9695ZM263.888 64.0865L263.631 64.1518C264.463 67.4302 266.021 69.9242 268.317 71.6081L268.474 71.394L268.631 71.18C266.453 69.5829 264.954 67.2052 264.146 64.0212L263.888 64.0865ZM268.474 71.394L268.319 71.6092C270.611 73.2649 273.516 74.0829 277.012 74.0829V73.8174V73.552C273.599 73.552 270.811 72.7543 268.63 71.1788L268.474 71.394ZM277.012 73.8174V74.0829C280.91 74.0829 284.425 73.1393 287.552 71.2483L287.414 71.0212L287.277 70.7941C284.239 72.6314 280.82 73.552 277.012 73.552V73.8174ZM287.414 71.0212L287.552 71.2483C290.677 69.3578 293.28 66.601 295.362 62.9887L295.132 62.8562L294.902 62.7236C292.858 66.2697 290.315 68.9563 287.277 70.7941L287.414 71.0212ZM295.132 62.8562L295.361 62.9899C297.469 59.3772 298.956 54.9955 299.83 49.8515L299.569 49.807L299.307 49.7626C298.441 54.859 296.971 59.1768 294.903 62.7224L295.132 62.8562ZM322.647 88.9544L322.385 88.911L322.334 89.2199H322.647V88.9544ZM335.323 12.5983V12.3329H335.098L335.061 12.5549L335.323 12.5983ZM387.445 12.5983L387.707 12.6426L387.759 12.3329H387.445V12.5983ZM384.91 27.5862V27.8517H385.134L385.172 27.6305L384.91 27.5862ZM351.243 27.5862V27.3208H351.017L350.981 27.5438L351.243 27.5862ZM348.708 43.2452L348.446 43.2028L348.396 43.5106H348.708V43.2452ZM379.056 43.2452L379.318 43.2893L379.37 42.9797H379.056V43.2452ZM376.521 58.2703V58.5358H376.746L376.783 58.3145L376.521 58.2703ZM346.173 58.2703V58.0049H345.947L345.911 58.2271L346.173 58.2703ZM341.102 88.9544V89.2199H341.327L341.364 88.9977L341.102 88.9544ZM322.647 88.9544L322.909 88.9979L335.585 12.6418L335.323 12.5983L335.061 12.5549L322.385 88.911L322.647 88.9544ZM335.323 12.5983V12.8638H387.445V12.5983V12.3329H335.323V12.5983ZM387.445 12.5983L387.183 12.5541L384.648 27.5419L384.91 27.5862L385.172 27.6305L387.707 12.6426L387.445 12.5983ZM384.91 27.5862V27.3208H351.243V27.5862V27.8517H384.91V27.5862ZM351.243 27.5862L350.981 27.5438L348.446 43.2028L348.708 43.2452L348.97 43.2876L351.505 27.6286L351.243 27.5862ZM348.708 43.2452V43.5106H379.056V43.2452V42.9797H348.708V43.2452ZM379.056 43.2452L378.795 43.201L376.259 58.2262L376.521 58.2703L376.783 58.3145L379.318 43.2893L379.056 43.2452ZM376.521 58.2703V58.0049H346.173V58.2703V58.5358H376.521V58.2703ZM346.173 58.2703L345.911 58.2271L340.84 88.9112L341.102 88.9544L341.364 88.9977L346.434 58.3136L346.173 58.2703ZM341.102 88.9544V88.689H322.647V88.9544V89.2199H341.102V88.9544ZM384.062 88.9544L383.8 88.911L383.749 89.2199H384.062V88.9544ZM396.738 12.5983V12.3329H396.513L396.476 12.5549L396.738 12.5983ZM448.86 12.5983L449.122 12.6426L449.174 12.3329H448.86V12.5983ZM446.325 27.5862V27.8517H446.549L446.586 27.6305L446.325 27.5862ZM412.658 27.5862V27.3208H412.432L412.396 27.5438L412.658 27.5862ZM410.123 43.2452L409.861 43.2028L409.811 43.5106H410.123V43.2452ZM440.471 43.2452L440.733 43.2893L440.785 42.9797H440.471V43.2452ZM437.936 58.2703V58.5358H438.16L438.198 58.3145L437.936 58.2703ZM407.587 58.2703V58.0049H407.362L407.326 58.2271L407.587 58.2703ZM402.517 88.9544V89.2199H402.742L402.779 88.9977L402.517 88.9544ZM384.062 88.9544L384.324 88.9979L397 12.6418L396.738 12.5983L396.476 12.5549L383.8 88.911L384.062 88.9544ZM396.738 12.5983V12.8638H448.86V12.5983V12.3329H396.738V12.5983ZM448.86 12.5983L448.598 12.5541L446.063 27.5419L446.325 27.5862L446.586 27.6305L449.122 12.6426L448.86 12.5983ZM446.325 27.5862V27.3208H412.658V27.5862V27.8517H446.325V27.5862ZM412.658 27.5862L412.396 27.5438L409.861 43.2028L410.123 43.2452L410.385 43.2876L412.92 27.6286L412.658 27.5862ZM410.123 43.2452V43.5106H440.471V43.2452V42.9797H410.123V43.2452ZM440.471 43.2452L440.21 43.201L437.674 58.2262L437.936 58.2703L438.198 58.3145L440.733 43.2893L440.471 43.2452ZM437.936 58.2703V58.0049H407.587V58.2703V58.5358H437.936V58.2703ZM407.587 58.2703L407.326 58.2271L402.255 88.9112L402.517 88.9544L402.779 88.9977L407.849 58.3136L407.587 58.2703ZM402.517 88.9544V88.689H384.062V88.9544V89.2199H402.517V88.9544Z" fill="url(#paint0_linear_5003_12)"/>
<path d="M54.1498 12.5983L41.4735 88.9544H23.0556L32.8984 29.8232H32.451L13.6229 40.2625L16.2328 24.3053L37.0368 12.5983H54.1498ZM87.4345 89.9984C81.8917 89.9984 77.1194 88.9917 73.1177 86.9784C69.116 84.9651 66.1581 82.1937 64.2443 78.6643C62.3304 75.1348 61.6966 71.0833 62.3428 66.5099H80.2388C79.9157 69.2937 80.6738 71.5432 82.5131 73.2582C84.3772 74.9732 86.7882 75.8307 89.746 75.8307C92.1073 75.8307 94.2573 75.3212 96.196 74.3021C98.1596 73.2831 99.8001 71.8539 101.117 70.0146C102.435 68.1752 103.292 66.0377 103.69 63.6018C104.112 61.1411 103.963 58.9911 103.243 57.1518C102.522 55.2877 101.341 53.8461 99.7006 52.827C98.0602 51.8079 96.0717 51.2984 93.7353 51.2984C91.4983 51.2984 89.311 51.7955 87.1735 52.7897C85.0608 53.7591 83.3457 55.1013 82.0284 56.8163L66.2203 53.7591L76.3986 12.5983H125.389L122.965 27.4744H89.1495L84.4145 45.4822H84.8619C86.4775 43.3695 88.8139 41.6296 91.8712 40.2625C94.9284 38.8706 98.259 38.1747 101.863 38.1747C106.436 38.1747 110.326 39.2434 113.533 41.381C116.764 43.4937 119.1 46.4391 120.542 50.2171C121.984 53.9703 122.294 58.2579 121.474 63.0799C120.654 68.3244 118.678 72.9724 115.546 77.0238C112.439 81.0504 108.462 84.2195 103.615 86.531C98.7934 88.8426 93.3998 89.9984 87.4345 89.9984ZM172.506 74.6377L173.251 70.6111C173.823 67.4793 175.003 64.5836 176.793 61.9241C178.583 59.2645 180.894 57.127 183.728 55.5114C186.561 53.8958 189.83 53.088 193.533 53.088C197.361 53.088 200.456 53.8958 202.817 55.5114C205.178 57.1021 206.806 59.2273 207.701 61.8868C208.621 64.5215 208.77 67.4296 208.148 70.6111L207.403 74.6377C206.831 77.7446 205.65 80.6403 203.861 83.3247C202.096 85.9842 199.784 88.1218 196.926 89.7374C194.068 91.353 190.762 92.1608 187.009 92.1608C183.256 92.1608 180.198 91.353 177.837 89.7374C175.501 88.1218 173.873 85.9842 172.953 83.3247C172.058 80.6403 171.909 77.7446 172.506 74.6377ZM185.145 70.6111L184.399 74.6377C184.101 76.2036 184.225 77.7322 184.772 79.2235C185.343 80.69 186.673 81.4232 188.761 81.4232C190.948 81.4232 192.527 80.7024 193.496 79.2608C194.465 77.8192 195.099 76.2781 195.397 74.6377L196.143 70.6111C196.441 68.9458 196.354 67.3799 195.882 65.9134C195.41 64.4221 194.043 63.6764 191.781 63.6764C189.693 63.6764 188.14 64.4221 187.121 65.9134C186.101 67.3799 185.443 68.9458 185.145 70.6111ZM140.218 30.9417L140.815 26.9151C141.287 23.7088 142.43 20.7882 144.245 18.1536C146.059 15.5189 148.408 13.4062 151.291 11.8154C154.175 10.1998 157.456 9.39199 161.134 9.39199C164.937 9.39199 167.994 10.1998 170.306 11.8154C172.617 13.4062 174.221 15.5189 175.115 18.1536C176.01 20.7882 176.221 23.7088 175.749 26.9151L175.153 30.9417C174.68 34.1232 173.549 37.0313 171.76 39.666C169.97 42.3007 167.621 44.401 164.713 45.9669C161.83 47.5328 158.512 48.3157 154.759 48.3157C150.981 48.3157 147.936 47.5328 145.624 45.9669C143.338 44.3761 141.747 42.2634 140.852 39.6287C139.982 36.9692 139.771 34.0735 140.218 30.9417ZM152.82 26.9151L152.223 30.9417C151.975 32.607 152.112 34.1605 152.634 35.6021C153.156 37.0189 154.448 37.7273 156.511 37.7273C158.673 37.7273 160.252 37.0189 161.246 35.6021C162.24 34.1605 162.862 32.607 163.11 30.9417L163.707 26.9151C163.955 25.2498 163.856 23.6839 163.408 22.2174C162.961 20.7261 161.619 19.9804 159.382 19.9804C157.269 19.9804 155.703 20.7385 154.684 22.2547C153.69 23.7709 153.069 25.3244 152.82 26.9151ZM136.005 88.9544L201.176 12.5983H211.914L146.743 88.9544H136.005ZM320.147 51.9695C318.755 60.1966 316.021 67.1437 311.945 72.8108C307.893 78.453 302.96 82.7281 297.143 85.6362C291.352 88.5443 285.126 89.9984 278.465 89.9984C271.43 89.9984 265.341 88.4325 260.196 85.3007C255.051 82.1689 251.31 77.6079 248.973 71.6177C246.662 65.6276 246.214 58.3573 247.631 49.807C248.973 41.5799 251.67 34.6203 255.722 28.9284C259.798 23.2365 264.757 18.9241 270.598 15.9911C276.464 13.0333 282.752 11.5544 289.463 11.5544C296.447 11.5544 302.5 13.1327 307.62 16.2894C312.765 19.446 316.493 24.0319 318.805 30.0469C321.117 36.0619 321.564 43.3695 320.147 51.9695ZM301.692 49.807C302.462 45.0099 302.462 40.9709 301.692 37.69C300.946 34.4091 299.48 31.9359 297.293 30.2706C295.105 28.5804 292.259 27.7353 288.755 27.7353C284.877 27.7353 281.373 28.6923 278.241 30.6062C275.134 32.4952 272.536 35.2541 270.449 38.883C268.361 42.4871 266.907 46.8492 266.086 51.9695C265.241 56.8163 265.217 60.8553 266.012 64.0865C266.832 67.3177 268.361 69.7536 270.598 71.394C272.835 73.0096 275.681 73.8174 279.136 73.8174C282.988 73.8174 286.456 72.8854 289.538 71.0212C292.62 69.157 295.192 66.4354 297.255 62.8562C299.343 59.277 300.822 54.9273 301.692 49.807ZM324.77 88.9544L337.447 12.5983H389.569L387.033 27.5862H353.367L350.831 43.2452H381.18L378.645 58.2703H348.296L343.226 88.9544H324.77ZM386.185 88.9544L398.861 12.5983H450.983L448.448 27.5862H414.781L412.246 43.2452H442.595L440.059 58.2703H409.711L404.64 88.9544H386.185Z" fill="white"/>
<path d="M54.1498 12.5983L54.4117 12.6418L54.463 12.3329H54.1498V12.5983ZM41.4735 88.9544V89.2199H41.6985L41.7354 88.9979L41.4735 88.9544ZM23.0556 88.9544L22.7938 88.9109L22.7423 89.2199H23.0556V88.9544ZM32.8984 29.8232L33.1602 29.8668L33.2117 29.5578H32.8984V29.8232ZM32.451 29.8232V29.5578H32.3823L32.3223 29.5911L32.451 29.8232ZM13.6229 40.2625L13.361 40.2197L13.2726 40.7603L13.7517 40.4947L13.6229 40.2625ZM16.2328 24.3053L16.1026 24.074L15.9914 24.1365L15.9708 24.2624L16.2328 24.3053ZM37.0368 12.5983V12.3329H36.9673L36.9067 12.367L37.0368 12.5983ZM54.1498 12.5983L53.888 12.5549L41.2117 88.911L41.4735 88.9544L41.7354 88.9979L54.4117 12.6418L54.1498 12.5983ZM41.4735 88.9544V88.689H23.0556V88.9544V89.2199H41.4735V88.9544ZM23.0556 88.9544L23.3174 88.998L33.1602 29.8668L32.8984 29.8232L32.6365 29.7796L22.7938 88.9109L23.0556 88.9544ZM32.8984 29.8232V29.5578H32.451V29.8232V30.0886H32.8984V29.8232ZM32.451 29.8232L32.3223 29.5911L13.4942 40.0304L13.6229 40.2625L13.7517 40.4947L32.5797 30.0554L32.451 29.8232ZM13.6229 40.2625L13.8849 40.3054L16.4947 24.3481L16.2328 24.3053L15.9708 24.2624L13.361 40.2197L13.6229 40.2625ZM16.2328 24.3053L16.3629 24.5366L37.167 12.8297L37.0368 12.5983L36.9067 12.367L16.1026 24.074L16.2328 24.3053ZM37.0368 12.5983V12.8638H54.1498V12.5983V12.3329H37.0368V12.5983ZM73.1177 86.9784L73.237 86.7413L73.1177 86.9784ZM64.2443 78.6643L64.4776 78.5377L64.2443 78.6643ZM62.3428 66.5099V66.2445H62.1123L62.08 66.4728L62.3428 66.5099ZM80.2388 66.5099L80.5025 66.5405L80.5368 66.2445H80.2388V66.5099ZM82.5131 73.2582L82.332 73.4523L82.3334 73.4535L82.5131 73.2582ZM96.196 74.3021L96.0737 74.0665L96.0725 74.0672L96.196 74.3021ZM103.69 63.6018L103.428 63.5569L103.428 63.5591L103.69 63.6018ZM103.243 57.1518L102.995 57.2476L102.995 57.2487L103.243 57.1518ZM87.1735 52.7897L87.2842 53.031L87.2854 53.0304L87.1735 52.7897ZM82.0284 56.8163L81.978 57.0769L82.139 57.108L82.2389 56.978L82.0284 56.8163ZM66.2203 53.7591L65.9626 53.6953L65.8955 53.9666L66.1699 54.0197L66.2203 53.7591ZM76.3986 12.5983V12.3329H76.1908L76.1409 12.5346L76.3986 12.5983ZM125.389 12.5983L125.651 12.641L125.701 12.3329H125.389V12.5983ZM122.965 27.4744V27.7398H123.191L123.227 27.517L122.965 27.4744ZM89.1495 27.4744V27.2089H88.9448L88.8928 27.4069L89.1495 27.4744ZM84.4145 45.4822L84.1578 45.4147L84.0703 45.7476H84.4145V45.4822ZM84.8619 45.4822V45.7476H84.9931L85.0728 45.6434L84.8619 45.4822ZM91.8712 40.2625L91.9795 40.5048L91.9811 40.5041L91.8712 40.2625ZM113.533 41.381L113.385 41.6019L113.387 41.6032L113.533 41.381ZM120.542 50.2171L120.294 50.3118L120.294 50.3123L120.542 50.2171ZM121.474 63.0799L121.212 63.0354L121.212 63.0389L121.474 63.0799ZM115.546 77.0238L115.336 76.8615L115.336 76.8616L115.546 77.0238ZM103.615 86.531L103.501 86.2914L103.501 86.2917L103.615 86.531ZM87.4345 89.9984V89.7329C81.9235 89.7329 77.194 88.7321 73.237 86.7413L73.1177 86.9784L72.9984 87.2156C77.0449 89.2514 81.8599 90.2638 87.4345 90.2638V89.9984ZM73.1177 86.9784L73.237 86.7413C69.2778 84.7494 66.3627 82.0141 64.4776 78.5377L64.2443 78.6643L64.0109 78.7908C65.9536 82.3734 68.9541 85.1808 72.9984 87.2156L73.1177 86.9784ZM64.2443 78.6643L64.4776 78.5377C62.5948 75.0655 61.9661 71.073 62.6057 66.5471L62.3428 66.5099L62.08 66.4728C61.427 71.0937 62.066 75.204 64.0109 78.7908L64.2443 78.6643ZM62.3428 66.5099V66.7754H80.2388V66.5099V66.2445H62.3428V66.5099ZM80.2388 66.5099L79.9751 66.4793C79.6436 69.3359 80.4233 71.6726 82.332 73.4523L82.5131 73.2582L82.6941 73.0641C80.9242 71.4138 80.1878 69.2516 80.5025 66.5405L80.2388 66.5099ZM82.5131 73.2582L82.3334 73.4535C84.2546 75.2211 86.7335 76.0962 89.746 76.0962V75.8307V75.5653C86.8429 75.5653 84.4998 74.7254 82.6928 73.0629L82.5131 73.2582ZM89.746 75.8307V76.0962C92.1469 76.0962 94.3398 75.5777 96.3195 74.5371L96.196 74.3021L96.0725 74.0672C94.1748 75.0647 92.0677 75.5653 89.746 75.5653V75.8307ZM96.196 74.3021L96.3183 74.5377C98.3199 73.4989 99.9921 72.0416 101.333 70.1691L101.117 70.0146L100.902 69.86C99.608 71.6661 97.9993 73.0672 96.0737 74.0665L96.196 74.3021ZM101.117 70.0146L101.333 70.1691C102.676 68.2936 103.548 66.117 103.952 63.6446L103.69 63.6018L103.428 63.5591C103.036 65.9583 102.193 68.0568 100.902 69.86L101.117 70.0146ZM103.69 63.6018L103.952 63.6468C104.38 61.1508 104.232 58.9498 103.49 57.055L103.243 57.1518L102.995 57.2487C103.694 59.0325 103.845 61.1315 103.428 63.5569L103.69 63.6018ZM103.243 57.1518L103.49 57.0561C102.749 55.1402 101.532 53.6521 99.8407 52.6015L99.7006 52.827L99.5606 53.0525C101.15 54.04 102.294 55.4352 102.995 57.2476L103.243 57.1518ZM99.7006 52.827L99.8407 52.6015C98.1501 51.5513 96.1108 51.0329 93.7353 51.0329V51.2984V51.5638C96.0327 51.5638 97.9702 52.0645 99.5606 53.0525L99.7006 52.827ZM93.7353 51.2984V51.0329C91.4576 51.0329 89.2322 51.5394 87.0615 52.549L87.1735 52.7897L87.2854 53.0304C89.3899 52.0516 91.5391 51.5638 93.7353 51.5638V51.2984ZM87.1735 52.7897L87.0628 52.5484C84.9138 53.5344 83.1635 54.9028 81.8179 56.6546L82.0284 56.8163L82.2389 56.978C83.528 55.2997 85.2077 53.9837 87.2842 53.0309L87.1735 52.7897ZM82.0284 56.8163L82.0788 56.5557L66.2707 53.4984L66.2203 53.7591L66.1699 54.0197L81.978 57.0769L82.0284 56.8163ZM66.2203 53.7591L66.478 53.8228L76.6563 12.6621L76.3986 12.5983L76.1409 12.5346L65.9626 53.6953L66.2203 53.7591ZM76.3986 12.5983V12.8638H125.389V12.5983V12.3329H76.3986V12.5983ZM125.389 12.5983L125.127 12.5557L122.703 27.4317L122.965 27.4744L123.227 27.517L125.651 12.641L125.389 12.5983ZM122.965 27.4744V27.2089H89.1495V27.4744V27.7398H122.965V27.4744ZM89.1495 27.4744L88.8928 27.4069L84.1578 45.4147L84.4145 45.4822L84.6712 45.5497L89.4062 27.5419L89.1495 27.4744ZM84.4145 45.4822V45.7476H84.8619V45.4822V45.2167H84.4145V45.4822ZM84.8619 45.4822L85.0728 45.6434C86.6554 43.5738 88.9524 41.8584 91.9795 40.5048L91.8712 40.2625L91.7628 40.0202C88.6755 41.4007 86.2996 43.1651 84.6511 45.3209L84.8619 45.4822ZM91.8712 40.2625L91.9811 40.5041C95.0014 39.129 98.2942 38.4401 101.863 38.4401V38.1747V37.9092C98.2239 37.9092 94.8554 38.6122 91.7612 40.0209L91.8712 40.2625ZM101.863 38.1747V38.4401C106.394 38.4401 110.23 39.4984 113.385 41.6019L113.533 41.381L113.68 41.1602C110.422 38.9884 106.479 37.9092 101.863 37.9092V38.1747ZM113.533 41.381L113.387 41.6032C116.57 43.6838 118.871 46.5834 120.294 50.3118L120.542 50.2171L120.79 50.1225C119.329 46.2948 116.958 43.3037 113.678 41.1589L113.533 41.381ZM120.542 50.2171L120.294 50.3123C121.715 54.0123 122.026 58.2502 121.212 63.0354L121.474 63.0799L121.736 63.1244C122.562 58.2656 122.252 53.9284 120.79 50.122L120.542 50.2171ZM121.474 63.0799L121.212 63.0389C120.398 68.2409 118.439 72.8467 115.336 76.8615L115.546 77.0238L115.756 77.1861C118.916 73.098 120.909 68.4079 121.736 63.1209L121.474 63.0799ZM115.546 77.0238L115.336 76.8616C112.256 80.8534 108.313 83.9968 103.501 86.2915L103.615 86.531L103.73 86.7706C108.612 84.4422 112.622 81.2474 115.756 77.186L115.546 77.0238ZM103.615 86.531L103.501 86.2917C98.7184 88.5842 93.3647 89.7329 87.4345 89.7329V89.9984V90.2638C93.4349 90.2638 98.8684 89.101 103.73 86.7704L103.615 86.531ZM172.506 74.6377L172.766 74.6877L172.767 74.686L172.506 74.6377ZM173.251 70.6111L173.512 70.6594L173.512 70.6588L173.251 70.6111ZM176.793 61.9241L176.573 61.7759L176.793 61.9241ZM183.728 55.5114L183.859 55.742L183.728 55.5114ZM202.817 55.5114L202.667 55.7304L202.668 55.7315L202.817 55.5114ZM207.701 61.8868L207.449 61.9715L207.45 61.9743L207.701 61.8868ZM208.148 70.6111L207.888 70.5602L207.887 70.5628L208.148 70.6111ZM207.403 74.6377L207.142 74.5893L207.142 74.5896L207.403 74.6377ZM203.861 83.3247L203.64 83.1774L203.64 83.1779L203.861 83.3247ZM177.837 89.7374L177.686 89.9557L177.687 89.9565L177.837 89.7374ZM172.953 83.3247L172.701 83.4086L172.702 83.4114L172.953 83.3247ZM185.145 70.6111L185.406 70.6594L185.406 70.6579L185.145 70.6111ZM184.399 74.6377L184.66 74.6873L184.66 74.686L184.399 74.6377ZM184.772 79.2235L184.522 79.3149L184.524 79.3199L184.772 79.2235ZM195.397 74.6377L195.136 74.5893L195.136 74.5902L195.397 74.6377ZM196.143 70.6111L196.404 70.6594L196.404 70.6579L196.143 70.6111ZM195.882 65.9134L195.629 65.9935L195.629 65.9948L195.882 65.9134ZM187.121 65.9134L187.339 66.0649L187.34 66.0632L187.121 65.9134ZM140.218 30.9417L139.956 30.9028L139.955 30.9042L140.218 30.9417ZM140.815 26.9151L141.077 26.954L141.077 26.9538L140.815 26.9151ZM151.291 11.8154L151.42 12.0478L151.421 12.047L151.291 11.8154ZM170.306 11.8154L170.154 12.033L170.155 12.0341L170.306 11.8154ZM175.749 26.9151L176.012 26.954L176.012 26.9538L175.749 26.9151ZM175.153 30.9417L175.415 30.9807L175.415 30.9806L175.153 30.9417ZM164.713 45.9669L164.587 45.7331L164.587 45.7336L164.713 45.9669ZM145.624 45.9669L145.473 46.1848L145.475 46.1866L145.624 45.9669ZM140.852 39.6287L140.6 39.7112L140.601 39.7141L140.852 39.6287ZM152.82 26.9151L152.558 26.8741L152.557 26.8762L152.82 26.9151ZM152.223 30.9417L152.486 30.9809L152.486 30.9806L152.223 30.9417ZM152.634 35.6021L152.384 35.6925L152.384 35.6939L152.634 35.6021ZM161.246 35.6021L161.463 35.7546L161.464 35.7528L161.246 35.6021ZM163.11 30.9417L163.373 30.9809L163.373 30.9806L163.11 30.9417ZM163.707 26.9151L163.444 26.8759L163.444 26.8762L163.707 26.9151ZM163.408 22.2174L163.154 22.2937L163.155 22.2949L163.408 22.2174ZM154.684 22.2547L154.464 22.1066L154.462 22.1092L154.684 22.2547ZM136.005 88.9544L135.803 88.7821L135.43 89.2199H136.005V88.9544ZM201.176 12.5983V12.3329H201.054L200.974 12.426L201.176 12.5983ZM211.914 12.5983L212.116 12.7707L212.489 12.3329H211.914V12.5983ZM146.743 88.9544V89.2199H146.865L146.945 89.1268L146.743 88.9544ZM172.506 74.6377L172.767 74.686L173.512 70.6594L173.251 70.6111L172.99 70.5628L172.245 74.5893L172.506 74.6377ZM173.251 70.6111L173.512 70.6588C174.077 67.5632 175.244 64.7017 177.013 62.0723L176.793 61.9241L176.573 61.7759C174.763 64.4656 173.568 67.3954 172.99 70.5634L173.251 70.6111ZM176.793 61.9241L177.013 62.0723C178.78 59.4473 181.061 57.3377 183.859 55.742L183.728 55.5114L183.596 55.2808C180.728 56.9163 178.386 59.0818 176.573 61.7759L176.793 61.9241ZM183.728 55.5114L183.859 55.742C186.648 54.1521 189.87 53.3534 193.533 53.3534V53.088V52.8225C189.79 52.8225 186.475 53.6394 183.596 55.2808L183.728 55.5114ZM193.533 53.088V53.3534C197.325 53.3534 200.362 54.1537 202.667 55.7304L202.817 55.5114L202.967 55.2923C200.549 53.6378 197.397 52.8225 193.533 52.8225V53.088ZM202.817 55.5114L202.668 55.7315C204.982 57.2902 206.573 59.3681 207.449 61.9715L207.701 61.8868L207.952 61.8022C207.039 59.0865 205.374 56.9141 202.965 55.2912L202.817 55.5114ZM207.701 61.8868L207.45 61.9743C208.352 64.5578 208.502 67.4173 207.888 70.5602L208.148 70.6111L208.409 70.662C209.038 67.4418 208.889 64.4852 207.952 61.7993L207.701 61.8868ZM208.148 70.6111L207.887 70.5628L207.142 74.5893L207.403 74.6377L207.664 74.686L208.409 70.6594L208.148 70.6111ZM207.403 74.6377L207.142 74.5896C206.577 77.6604 205.41 80.5224 203.64 83.1774L203.861 83.3247L204.082 83.4719C205.891 80.7582 207.085 77.8289 207.664 74.6857L207.403 74.6377ZM203.861 83.3247L203.64 83.1779C201.899 85.8016 199.618 87.9107 196.795 89.5063L196.926 89.7374L197.057 89.9685C199.95 88.3329 202.293 86.1668 204.082 83.4714L203.861 83.3247ZM196.926 89.7374L196.795 89.5063C193.982 91.0963 190.723 91.8954 187.009 91.8954V92.1608V92.4262C190.801 92.4262 194.153 91.6097 197.057 89.9685L196.926 89.7374ZM187.009 92.1608V91.8954C183.293 91.8954 180.292 91.0956 177.987 89.5183L177.837 89.7374L177.687 89.9565C180.104 91.6104 183.219 92.4262 187.009 92.4262V92.1608ZM177.837 89.7374L177.988 89.5191C175.698 87.9353 174.105 85.8436 173.204 83.2379L172.953 83.3247L172.702 83.4114C173.64 86.1249 175.304 88.3083 177.686 89.9557L177.837 89.7374ZM172.953 83.3247L173.205 83.2407C172.326 80.6044 172.177 77.7554 172.766 74.6877L172.506 74.6377L172.245 74.5876C171.641 77.7339 171.79 80.6761 172.701 83.4086L172.953 83.3247ZM185.145 70.6111L184.884 70.5628L184.138 74.5893L184.399 74.6377L184.66 74.686L185.406 70.6594L185.145 70.6111ZM184.399 74.6377L184.138 74.588C183.831 76.2009 183.959 77.7783 184.522 79.3149L184.772 79.2235L185.021 79.1321C184.491 77.6861 184.37 76.2062 184.66 74.6873L184.399 74.6377ZM184.772 79.2235L184.524 79.3199C184.832 80.1088 185.348 80.708 186.07 81.1057C186.786 81.5006 187.688 81.6887 188.761 81.6887V81.4232V81.1578C187.746 81.1578 186.94 80.9792 186.326 80.6409C185.718 80.3054 185.283 79.8047 185.019 79.1271L184.772 79.2235ZM188.761 81.4232V81.6887C191.011 81.6887 192.685 80.943 193.716 79.4089L193.496 79.2608L193.276 79.1127C192.369 80.4618 190.886 81.1578 188.761 81.1578V81.4232ZM193.496 79.2608L193.716 79.4089C194.705 77.9382 195.354 76.3631 195.659 74.6852L195.397 74.6377L195.136 74.5902C194.845 76.1931 194.226 77.7001 193.276 79.1127L193.496 79.2608ZM195.397 74.6377L195.658 74.686L196.404 70.6594L196.143 70.6111L195.882 70.5628L195.136 74.5893L195.397 74.6377ZM196.143 70.6111L196.404 70.6579C196.71 68.9541 196.622 67.3438 196.135 65.832L195.882 65.9134L195.629 65.9948C196.087 67.4159 196.173 68.9375 195.882 70.5643L196.143 70.6111ZM195.882 65.9134L196.135 65.8333C195.878 65.0226 195.374 64.4084 194.63 64.0026C193.894 63.6011 192.938 63.411 191.781 63.411V63.6764V63.9418C192.886 63.9418 193.745 64.1246 194.376 64.4687C194.999 64.8085 195.414 65.3128 195.629 65.9935L195.882 65.9134ZM191.781 63.6764V63.411C189.621 63.411 187.978 64.1878 186.901 65.7636L187.121 65.9134L187.34 66.0632C188.301 64.6564 189.765 63.9418 191.781 63.9418V63.6764ZM187.121 65.9134L186.903 65.7619C185.863 67.258 185.189 68.8593 184.883 70.5643L185.145 70.6111L185.406 70.6579C185.697 69.0322 186.34 67.5018 187.339 66.0649L187.121 65.9134ZM140.218 30.9417L140.481 30.9806L141.077 26.954L140.815 26.9151L140.552 26.8762L139.956 30.9028L140.218 30.9417ZM140.815 26.9151L141.077 26.9538C141.544 23.7871 142.672 20.9049 144.463 18.3041L144.245 18.1536L144.026 18.003C142.188 20.6716 141.03 23.6305 140.552 26.8764L140.815 26.9151ZM144.245 18.1536L144.463 18.3041C146.254 15.7044 148.571 13.6193 151.42 12.0478L151.291 11.8154L151.163 11.583C148.245 13.193 145.865 15.3334 144.026 18.003L144.245 18.1536ZM151.291 11.8154L151.421 12.047C154.26 10.456 157.496 9.65743 161.134 9.65743V9.39199V9.12655C157.415 9.12655 154.089 9.94359 151.162 11.5838L151.291 11.8154ZM161.134 9.39199V9.65743C164.901 9.65743 167.9 10.4577 170.154 12.033L170.306 11.8154L170.458 11.5978C168.089 9.94188 164.973 9.12655 161.134 9.12655V9.39199ZM170.306 11.8154L170.155 12.0341C172.42 13.5927 173.988 15.6589 174.864 18.2389L175.115 18.1536L175.367 18.0682C174.453 15.3789 172.815 13.2196 170.456 11.5967L170.306 11.8154ZM175.115 18.1536L174.864 18.2389C175.743 20.8276 175.954 23.7049 175.487 26.8764L175.749 26.9151L176.012 26.9538C176.489 23.7126 176.277 20.7488 175.367 18.0682L175.115 18.1536ZM175.749 26.9151L175.487 26.8762L174.89 30.9028L175.153 30.9417L175.415 30.9806L176.012 26.954L175.749 26.9151ZM175.153 30.9417L174.89 30.9027C174.424 34.0452 173.307 36.9155 171.54 39.5168L171.76 39.666L171.979 39.8151C173.792 37.1471 174.937 34.2013 175.415 30.9807L175.153 30.9417ZM171.76 39.666L171.54 39.5168C169.776 42.1149 167.459 44.1867 164.587 45.7331L164.713 45.9669L164.839 46.2006C167.783 44.6152 170.165 42.4865 171.979 39.8151L171.76 39.666ZM164.713 45.9669L164.587 45.7336C161.748 47.2755 158.474 48.0503 154.759 48.0503V48.3157V48.5811C158.55 48.5811 161.913 47.79 164.84 46.2001L164.713 45.9669ZM154.759 48.3157V48.0503C151.015 48.0503 148.028 47.2744 145.773 45.7471L145.624 45.9669L145.475 46.1866C147.844 47.7911 150.946 48.5811 154.759 48.5811V48.3157ZM145.624 45.9669L145.776 45.749C143.536 44.1906 141.98 42.1243 141.103 39.5433L140.852 39.6287L140.601 39.7141C141.514 42.4025 143.139 44.5617 145.473 46.1848L145.624 45.9669ZM140.852 39.6287L141.104 39.5462C140.249 36.9301 140.039 34.076 140.481 30.9792L140.218 30.9417L139.955 30.9042C139.503 34.071 139.716 37.0082 140.6 39.7112L140.852 39.6287ZM152.82 26.9151L152.557 26.8762L151.961 30.9028L152.223 30.9417L152.486 30.9806L153.083 26.954L152.82 26.9151ZM152.223 30.9417L151.961 30.9025C151.706 32.6071 151.846 34.2055 152.384 35.6925L152.634 35.6021L152.883 35.5117C152.378 34.1155 152.243 32.607 152.486 30.9809L152.223 30.9417ZM152.634 35.6021L152.384 35.6939C152.667 36.4608 153.163 37.0429 153.867 37.4287C154.565 37.8112 155.452 37.9927 156.511 37.9927V37.7273V37.4618C155.507 37.4618 154.717 37.2891 154.122 36.9632C153.533 36.6406 153.122 36.1602 152.883 35.5104L152.634 35.6021ZM156.511 37.7273V37.9927C158.736 37.9927 160.407 37.2599 161.463 35.7546L161.246 35.6021L161.029 35.4496C160.097 36.7778 158.611 37.4618 156.511 37.4618V37.7273ZM161.246 35.6021L161.464 35.7528C162.481 34.2792 163.118 32.6879 163.373 30.9809L163.11 30.9417L162.848 30.9025C162.605 32.5262 162 34.0417 161.027 35.4514L161.246 35.6021ZM163.11 30.9417L163.373 30.9806L163.969 26.954L163.707 26.9151L163.444 26.8762L162.848 30.9028L163.11 30.9417ZM163.707 26.9151L163.969 26.9543C164.223 25.2538 164.122 23.6478 163.662 22.14L163.408 22.2174L163.155 22.2949C163.589 23.72 163.687 25.2458 163.444 26.8759L163.707 26.9151ZM163.408 22.2174L163.663 22.1412C163.419 21.3303 162.928 20.7146 162.195 20.3076C161.471 19.9052 160.526 19.715 159.382 19.715V19.9804V20.2459C160.474 20.2459 161.32 20.4285 161.937 20.7717C162.547 21.1104 162.95 21.6133 163.154 22.2937L163.408 22.2174ZM159.382 19.9804V19.715C157.197 19.715 155.541 20.5047 154.464 22.1066L154.684 22.2547L154.904 22.4028C155.866 20.9724 157.341 20.2459 159.382 20.2459V19.9804ZM154.684 22.2547L154.462 22.1092C153.45 23.6529 152.813 25.2416 152.558 26.8741L152.82 26.9151L153.082 26.9561C153.324 25.4071 153.93 23.8888 154.906 22.4003L154.684 22.2547ZM136.005 88.9544L136.207 89.1268L201.378 12.7707L201.176 12.5983L200.974 12.426L135.803 88.7821L136.005 88.9544ZM201.176 12.5983V12.8638H211.914V12.5983V12.3329H201.176V12.5983ZM211.914 12.5983L211.712 12.426L146.541 88.7821L146.743 88.9544L146.945 89.1268L212.116 12.7707L211.914 12.5983ZM146.743 88.9544V88.689H136.005V88.9544V89.2199H146.743V88.9544ZM320.147 51.9695L320.409 52.0137L320.409 52.0126L320.147 51.9695ZM311.945 72.8108L311.729 72.6558L311.729 72.656L311.945 72.8108ZM297.143 85.6362L297.025 85.3988L297.024 85.399L297.143 85.6362ZM260.196 85.3007L260.058 85.5274L260.196 85.3007ZM248.973 71.6177L248.726 71.7133L248.726 71.7142L248.973 71.6177ZM247.631 49.807L247.893 49.8504L247.893 49.8498L247.631 49.807ZM255.722 28.9284L255.506 28.7739L255.505 28.7745L255.722 28.9284ZM270.598 15.9911L270.717 16.2283L270.717 16.2281L270.598 15.9911ZM307.62 16.2894L307.481 16.5153L307.481 16.5156L307.62 16.2894ZM318.805 30.0469L319.053 29.9517L318.805 30.0469ZM301.692 49.807L301.954 49.8515L301.954 49.8491L301.692 49.807ZM301.692 37.69L301.433 37.7488L301.434 37.7507L301.692 37.69ZM297.293 30.2706L297.13 30.4807L297.132 30.4818L297.293 30.2706ZM278.241 30.6062L278.379 30.833L278.379 30.8327L278.241 30.6062ZM270.449 38.883L270.678 39.0161L270.679 39.0154L270.449 38.883ZM266.086 51.9695L266.348 52.0151L266.349 52.0114L266.086 51.9695ZM266.012 64.0865L265.754 64.15L265.755 64.1518L266.012 64.0865ZM270.598 71.394L270.441 71.6081L270.442 71.6092L270.598 71.394ZM289.538 71.0212L289.4 70.7941L289.538 71.0212ZM297.255 62.8562L297.026 62.7224L297.025 62.7236L297.255 62.8562ZM320.147 51.9695L319.885 51.9252C318.499 60.1201 315.778 67.0275 311.729 72.6558L311.945 72.8108L312.16 72.9658C316.264 67.26 319.012 60.2731 320.409 52.0137L320.147 51.9695ZM311.945 72.8108L311.729 72.656C307.701 78.2656 302.8 82.5113 297.025 85.3988L297.143 85.6362L297.262 85.8737C303.119 82.945 308.086 78.6404 312.16 72.9656L311.945 72.8108ZM297.143 85.6362L297.024 85.399C291.271 88.288 285.086 89.7329 278.465 89.7329V89.9984V90.2638C285.166 90.2638 291.433 88.8006 297.263 85.8735L297.143 85.6362ZM278.465 89.9984V89.7329C271.471 89.7329 265.431 88.1764 260.334 85.074L260.196 85.3007L260.058 85.5274C265.251 88.6885 271.39 90.2638 278.465 90.2638V89.9984ZM260.196 85.3007L260.334 85.074C255.242 81.9745 251.538 77.4611 249.221 71.5213L248.973 71.6177L248.726 71.7142C251.082 77.7547 254.859 82.3633 260.058 85.5274L260.196 85.3007ZM248.973 71.6177L249.221 71.5222C246.932 65.5891 246.481 58.3697 247.893 49.8504L247.631 49.807L247.369 49.7636C245.947 58.3449 246.392 65.6661 248.726 71.7133L248.973 71.6177ZM247.631 49.807L247.893 49.8498C249.23 41.655 251.914 34.7354 255.938 29.0823L255.722 28.9284L255.505 28.7745C251.426 34.5053 248.717 41.5047 247.369 49.7643L247.631 49.807ZM255.722 28.9284L255.938 29.083C259.991 23.4235 264.917 19.1406 270.717 16.2283L270.598 15.9911L270.479 15.7539C264.596 18.7075 259.605 23.0495 255.506 28.7739L255.722 28.9284ZM270.598 15.9911L270.717 16.2281C276.545 13.2894 282.793 11.8199 289.463 11.8199V11.5544V11.289C282.711 11.289 276.382 12.7772 270.478 15.7541L270.598 15.9911ZM289.463 11.5544V11.8199C296.406 11.8199 302.409 13.3884 307.481 16.5153L307.62 16.2894L307.759 16.0634C302.591 12.877 296.489 11.289 289.463 11.289V11.5544ZM307.62 16.2894L307.481 16.5156C312.573 19.6396 316.265 24.1776 318.557 30.1421L318.805 30.0469L319.053 29.9517C316.722 23.8861 312.957 19.2524 307.759 16.0631L307.62 16.2894ZM318.805 30.0469L318.557 30.1421C320.847 36.1002 321.297 43.3571 319.885 51.9263L320.147 51.9695L320.409 52.0126C321.831 43.3819 321.386 36.0236 319.053 29.9517L318.805 30.0469ZM301.692 49.807L301.954 49.8491C302.728 45.0317 302.732 40.9553 301.95 37.6293L301.692 37.69L301.434 37.7507C302.193 40.9865 302.197 44.9881 301.43 49.7649L301.692 49.807ZM301.692 37.69L301.951 37.6312C301.195 34.3036 299.701 31.7704 297.453 30.0594L297.293 30.2706L297.132 30.4818C299.259 32.1015 300.698 34.5145 301.433 37.7488L301.692 37.69ZM297.293 30.2706L297.455 30.0606C295.21 28.3258 292.302 27.4699 288.755 27.4699V27.7353V28.0008C292.217 28.0008 295.001 28.8351 297.13 30.4806L297.293 30.2706ZM288.755 27.7353V27.4699C284.831 27.4699 281.278 28.4389 278.102 30.3797L278.241 30.6062L278.379 30.8327C281.467 28.9457 284.923 28.0008 288.755 28.0008V27.7353ZM278.241 30.6062L278.103 30.3793C274.952 32.2949 272.325 35.0889 270.219 38.7507L270.449 38.883L270.679 39.0154C272.748 35.4193 275.315 32.6955 278.379 30.833L278.241 30.6062ZM270.449 38.883L270.219 38.75C268.111 42.3881 266.649 46.7827 265.824 51.9275L266.086 51.9695L266.349 52.0114C267.165 46.9157 268.61 42.5861 270.678 39.0161L270.449 38.883ZM266.086 51.9695L265.825 51.9239C264.976 56.7911 264.947 60.8702 265.754 64.15L266.012 64.0865L266.27 64.0231C265.486 60.8404 265.506 56.8415 266.348 52.0151L266.086 51.9695ZM266.012 64.0865L265.755 64.1518C266.587 67.4302 268.145 69.9242 270.441 71.6081L270.598 71.394L270.755 71.18C268.577 69.5829 267.077 67.2052 266.269 64.0212L266.012 64.0865ZM270.598 71.394L270.442 71.6092C272.735 73.2649 275.639 74.0829 279.136 74.0829V73.8174V73.552C275.722 73.552 272.935 72.7543 270.753 71.1788L270.598 71.394ZM279.136 73.8174V74.0829C283.033 74.0829 286.549 73.1393 289.675 71.2483L289.538 71.0212L289.4 70.7941C286.363 72.6314 282.943 73.552 279.136 73.552V73.8174ZM289.538 71.0212L289.675 71.2483C292.801 69.3578 295.403 66.601 297.485 62.9887L297.255 62.8562L297.025 62.7236C294.981 66.2697 292.439 68.9563 289.4 70.7941L289.538 71.0212ZM297.255 62.8562L297.485 62.9899C299.592 59.3772 301.08 54.9955 301.954 49.8515L301.692 49.807L301.43 49.7626C300.564 54.859 299.094 59.1768 297.026 62.7224L297.255 62.8562ZM324.77 88.9544L324.508 88.911L324.457 89.2199H324.77V88.9544ZM337.447 12.5983V12.3329H337.222L337.185 12.5549L337.447 12.5983ZM389.569 12.5983L389.83 12.6426L389.883 12.3329H389.569V12.5983ZM387.033 27.5862V27.8517H387.258L387.295 27.6305L387.033 27.5862ZM353.367 27.5862V27.3208H353.141L353.105 27.5438L353.367 27.5862ZM350.831 43.2452L350.569 43.2028L350.519 43.5106H350.831V43.2452ZM381.18 43.2452L381.442 43.2893L381.494 42.9797H381.18V43.2452ZM378.645 58.2703V58.5358H378.869L378.906 58.3145L378.645 58.2703ZM348.296 58.2703V58.0049H348.071L348.034 58.2271L348.296 58.2703ZM343.226 88.9544V89.2199H343.451L343.487 88.9977L343.226 88.9544ZM324.77 88.9544L325.032 88.9979L337.708 12.6418L337.447 12.5983L337.185 12.5549L324.508 88.911L324.77 88.9544ZM337.447 12.5983V12.8638H389.569V12.5983V12.3329H337.447V12.5983ZM389.569 12.5983L389.307 12.5541L386.772 27.5419L387.033 27.5862L387.295 27.6305L389.83 12.6426L389.569 12.5983ZM387.033 27.5862V27.3208H353.367V27.5862V27.8517H387.033V27.5862ZM353.367 27.5862L353.105 27.5438L350.569 43.2028L350.831 43.2452L351.093 43.2876L353.629 27.6286L353.367 27.5862ZM350.831 43.2452V43.5106H381.18V43.2452V42.9797H350.831V43.2452ZM381.18 43.2452L380.918 43.201L378.383 58.2262L378.645 58.2703L378.906 58.3145L381.442 43.2893L381.18 43.2452ZM378.645 58.2703V58.0049H348.296V58.2703V58.5358H378.645V58.2703ZM348.296 58.2703L348.034 58.2271L342.964 88.9112L343.226 88.9544L343.487 88.9977L348.558 58.3136L348.296 58.2703ZM343.226 88.9544V88.689H324.77V88.9544V89.2199H343.226V88.9544ZM386.185 88.9544L385.923 88.911L385.872 89.2199H386.185V88.9544ZM398.861 12.5983V12.3329H398.636L398.6 12.5549L398.861 12.5983ZM450.983 12.5983L451.245 12.6426L451.298 12.3329H450.983V12.5983ZM448.448 27.5862V27.8517H448.672L448.71 27.6305L448.448 27.5862ZM414.781 27.5862V27.3208H414.555L414.519 27.5438L414.781 27.5862ZM412.246 43.2452L411.984 43.2028L411.934 43.5106H412.246V43.2452ZM442.595 43.2452L442.856 43.2893L442.909 42.9797H442.595V43.2452ZM440.059 58.2703V58.5358H440.284L440.321 58.3145L440.059 58.2703ZM409.711 58.2703V58.0049H409.486L409.449 58.2271L409.711 58.2703ZM404.64 88.9544V89.2199H404.866L404.902 88.9977L404.64 88.9544ZM386.185 88.9544L386.447 88.9979L399.123 12.6418L398.861 12.5983L398.6 12.5549L385.923 88.911L386.185 88.9544ZM398.861 12.5983V12.8638H450.983V12.5983V12.3329H398.861V12.5983ZM450.983 12.5983L450.722 12.5541L448.186 27.5419L448.448 27.5862L448.71 27.6305L451.245 12.6426L450.983 12.5983ZM448.448 27.5862V27.3208H414.781V27.5862V27.8517H448.448V27.5862ZM414.781 27.5862L414.519 27.5438L411.984 43.2028L412.246 43.2452L412.508 43.2876L415.043 27.6286L414.781 27.5862ZM412.246 43.2452V43.5106H442.595V43.2452V42.9797H412.246V43.2452ZM442.595 43.2452L442.333 43.201L439.798 58.2262L440.059 58.2703L440.321 58.3145L442.856 43.2893L442.595 43.2452ZM440.059 58.2703V58.0049H409.711V58.2703V58.5358H440.059V58.2703ZM409.711 58.2703L409.449 58.2271L404.378 88.9112L404.64 88.9544L404.902 88.9977L409.973 58.3136L409.711 58.2703ZM404.64 88.9544V88.689H386.185V88.9544V89.2199H404.64V88.9544Z" fill="url(#paint1_linear_5003_12)"/>
<path d="M48.8411 12.5983L36.1648 88.9544H17.7468L27.5896 29.8232H27.1422L8.31417 40.2625L10.924 24.3053L31.728 12.5983H48.8411ZM82.1257 89.9984C76.5829 89.9984 71.8106 88.9917 67.8089 86.9784C63.8072 84.9651 60.8494 82.1937 58.9355 78.6643C57.0216 75.1348 56.3878 71.0833 57.0341 66.5099H74.93C74.6069 69.2937 75.365 71.5432 77.2043 73.2582C79.0685 74.9732 81.4794 75.8307 84.4372 75.8307C86.7985 75.8307 88.9485 75.3212 90.8872 74.3021C92.8508 73.2831 94.4913 71.8539 95.8086 70.0146C97.126 68.1752 97.9835 66.0377 98.3812 63.6018C98.8037 61.1411 98.6546 58.9911 97.9338 57.1518C97.213 55.2877 96.0323 53.8461 94.3919 52.827C92.7514 51.8079 90.763 51.2984 88.4265 51.2984C86.1896 51.2984 84.0023 51.7955 81.8647 52.7897C79.752 53.7591 78.037 55.1013 76.7196 56.8163L60.9115 53.7591L71.0898 12.5983H120.08L117.657 27.4744H83.8407L79.1057 45.4822H79.5531C81.1687 43.3695 83.5052 41.6296 86.5624 40.2625C89.6196 38.8706 92.9502 38.1747 96.5543 38.1747C101.128 38.1747 105.018 39.2434 108.224 41.381C111.455 43.4937 113.792 46.4391 115.233 50.2171C116.675 53.9703 116.986 58.2579 116.165 63.0799C115.345 68.3244 113.369 72.9724 110.237 77.0238C107.13 81.0504 103.153 84.2195 98.3066 86.531C93.4846 88.8426 88.091 89.9984 82.1257 89.9984ZM167.197 74.6377L167.942 70.6111C168.514 67.4793 169.695 64.5836 171.484 61.9241C173.274 59.2645 175.585 57.127 178.419 55.5114C181.253 53.8958 184.521 53.088 188.224 53.088C192.052 53.088 195.147 53.8958 197.508 55.5114C199.869 57.1021 201.497 59.2273 202.392 61.8868C203.312 64.5215 203.461 67.4296 202.84 70.6111L202.094 74.6377C201.522 77.7446 200.342 80.6403 198.552 83.3247C196.787 85.9842 194.476 88.1218 191.617 89.7374C188.759 91.353 185.453 92.1608 181.7 92.1608C177.947 92.1608 174.89 91.353 172.528 89.7374C170.192 88.1218 168.564 85.9842 167.644 83.3247C166.749 80.6403 166.6 77.7446 167.197 74.6377ZM179.836 70.6111L179.09 74.6377C178.792 76.2036 178.916 77.7322 179.463 79.2235C180.035 80.69 181.364 81.4232 183.452 81.4232C185.64 81.4232 187.218 80.7024 188.187 79.2608C189.157 77.8192 189.79 76.2781 190.089 74.6377L190.834 70.6111C191.133 68.9458 191.046 67.3799 190.573 65.9134C190.101 64.4221 188.734 63.6764 186.472 63.6764C184.384 63.6764 182.831 64.4221 181.812 65.9134C180.793 67.3799 180.134 68.9458 179.836 70.6111ZM134.909 30.9417L135.506 26.9151C135.978 23.7088 137.122 20.7882 138.936 18.1536C140.75 15.5189 143.099 13.4062 145.983 11.8154C148.866 10.1998 152.147 9.39199 155.825 9.39199C159.628 9.39199 162.685 10.1998 164.997 11.8154C167.309 13.4062 168.912 15.5189 169.807 18.1536C170.701 20.7882 170.913 23.7088 170.44 26.9151L169.844 30.9417C169.372 34.1232 168.241 37.0313 166.451 39.666C164.661 42.3007 162.313 44.401 159.405 45.9669C156.521 47.5328 153.203 48.3157 149.45 48.3157C145.672 48.3157 142.627 47.5328 140.316 45.9669C138.029 44.3761 136.438 42.2634 135.543 39.6287C134.673 36.9692 134.462 34.0735 134.909 30.9417ZM147.511 26.9151L146.915 30.9417C146.666 32.607 146.803 34.1605 147.325 35.6021C147.847 37.0189 149.139 37.7273 151.202 37.7273C153.365 37.7273 154.943 37.0189 155.937 35.6021C156.931 34.1605 157.553 32.607 157.801 30.9417L158.398 26.9151C158.646 25.2498 158.547 23.6839 158.1 22.2174C157.652 20.7261 156.31 19.9804 154.073 19.9804C151.96 19.9804 150.394 20.7385 149.375 22.2547C148.381 23.7709 147.76 25.3244 147.511 26.9151ZM130.696 88.9544L195.868 12.5983H206.605L141.434 88.9544H130.696ZM314.838 51.9695C313.446 60.1966 310.712 67.1437 306.636 72.8108C302.585 78.453 297.651 82.7281 291.835 85.6362C286.043 88.5443 279.817 89.9984 273.156 89.9984C266.122 89.9984 260.032 88.4325 254.887 85.3007C249.742 82.1689 246.001 77.6079 243.665 71.6177C241.353 65.6276 240.906 58.3573 242.322 49.807C243.665 41.5799 246.362 34.6203 250.413 28.9284C254.489 23.2365 259.448 18.9241 265.289 15.9911C271.155 13.0333 277.443 11.5544 284.154 11.5544C291.139 11.5544 297.191 13.1327 302.311 16.2894C307.456 19.446 311.185 24.0319 313.496 30.0469C315.808 36.0619 316.255 43.3695 314.838 51.9695ZM296.383 49.807C297.154 45.0099 297.154 40.9709 296.383 37.69C295.638 34.4091 294.171 31.9359 291.984 30.2706C289.796 28.5804 286.951 27.7353 283.446 27.7353C279.568 27.7353 276.064 28.6923 272.932 30.6062C269.825 32.4952 267.228 35.2541 265.14 38.883C263.052 42.4871 261.598 46.8492 260.778 51.9695C259.933 56.8163 259.908 60.8553 260.703 64.0865C261.523 67.3177 263.052 69.7536 265.289 71.394C267.526 73.0096 270.372 73.8174 273.827 73.8174C277.679 73.8174 281.147 72.8854 284.229 71.0212C287.311 69.157 289.883 66.4354 291.946 62.8562C294.034 59.277 295.513 54.9273 296.383 49.807ZM319.462 88.9544L332.138 12.5983H384.26L381.725 27.5862H348.058L345.523 43.2452H375.871L373.336 58.2703H342.987L337.917 88.9544H319.462ZM380.876 88.9544L393.553 12.5983H445.675L443.139 27.5862H409.473L406.937 43.2452H437.286L434.751 58.2703H404.402L399.332 88.9544H380.876Z" fill="white"/>
<path d="M48.8411 12.5983L49.1029 12.6418L49.1542 12.3329H48.8411V12.5983ZM36.1648 88.9544V89.2199H36.3898L36.4266 88.9979L36.1648 88.9544ZM17.7468 88.9544L17.485 88.9109L17.4336 89.2199H17.7468V88.9544ZM27.5896 29.8232L27.8514 29.8668L27.9029 29.5578H27.5896V29.8232ZM27.1422 29.8232V29.5578H27.0735L27.0135 29.5911L27.1422 29.8232ZM8.31417 40.2625L8.05221 40.2197L7.96379 40.7603L8.44288 40.4947L8.31417 40.2625ZM10.924 24.3053L10.7938 24.074L10.6826 24.1365L10.662 24.2624L10.924 24.3053ZM31.728 12.5983V12.3329H31.6585L31.5979 12.367L31.728 12.5983ZM48.8411 12.5983L48.5792 12.5549L35.9029 88.911L36.1648 88.9544L36.4266 88.9979L49.1029 12.6418L48.8411 12.5983ZM36.1648 88.9544V88.689H17.7468V88.9544V89.2199H36.1648V88.9544ZM17.7468 88.9544L18.0087 88.998L27.8514 29.8668L27.5896 29.8232L27.3278 29.7796L17.485 88.9109L17.7468 88.9544ZM27.5896 29.8232V29.5578H27.1422V29.8232V30.0886H27.5896V29.8232ZM27.1422 29.8232L27.0135 29.5911L8.18545 40.0304L8.31417 40.2625L8.44288 40.4947L27.2709 30.0554L27.1422 29.8232ZM8.31417 40.2625L8.57612 40.3054L11.186 24.3481L10.924 24.3053L10.662 24.2624L8.05221 40.2197L8.31417 40.2625ZM10.924 24.3053L11.0542 24.5366L31.8582 12.8297L31.728 12.5983L31.5979 12.367L10.7938 24.074L10.924 24.3053ZM31.728 12.5983V12.8638H48.8411V12.5983V12.3329H31.728V12.5983ZM67.8089 86.9784L67.9282 86.7413L67.8089 86.9784ZM58.9355 78.6643L59.1688 78.5377L58.9355 78.6643ZM57.034 66.5099V66.2445H56.8035L56.7712 66.4728L57.034 66.5099ZM74.93 66.5099L75.1937 66.5405L75.228 66.2445H74.93V66.5099ZM77.2043 73.2582L77.0233 73.4523L77.0246 73.4535L77.2043 73.2582ZM90.8872 74.3021L90.765 74.0665L90.7637 74.0672L90.8872 74.3021ZM98.3812 63.6018L98.1196 63.5569L98.1192 63.5591L98.3812 63.6018ZM97.9338 57.1518L97.6862 57.2476L97.6866 57.2487L97.9338 57.1518ZM81.8647 52.7897L81.9754 53.031L81.9766 53.0304L81.8647 52.7897ZM76.7196 56.8163L76.6692 57.0769L76.8302 57.108L76.9301 56.978L76.7196 56.8163ZM60.9115 53.7591L60.6538 53.6953L60.5868 53.9666L60.8611 54.0197L60.9115 53.7591ZM71.0898 12.5983V12.3329H70.882L70.8322 12.5346L71.0898 12.5983ZM120.08 12.5983L120.342 12.641L120.392 12.3329H120.08V12.5983ZM117.657 27.4744V27.7398H117.882L117.919 27.517L117.657 27.4744ZM83.8407 27.4744V27.2089H83.636L83.584 27.4069L83.8407 27.4744ZM79.1057 45.4822L78.849 45.4147L78.7615 45.7476H79.1057V45.4822ZM79.5531 45.4822V45.7476H79.6843L79.764 45.6434L79.5531 45.4822ZM86.5624 40.2625L86.6707 40.5048L86.6724 40.5041L86.5624 40.2625ZM108.224 41.381L108.077 41.6019L108.079 41.6032L108.224 41.381ZM115.233 50.2171L114.985 50.3118L114.985 50.3123L115.233 50.2171ZM116.165 63.0799L115.904 63.0354L115.903 63.0389L116.165 63.0799ZM110.237 77.0238L110.027 76.8615L110.027 76.8616L110.237 77.0238ZM98.3066 86.531L98.1923 86.2914L98.1919 86.2917L98.3066 86.531ZM82.1257 89.9984V89.7329C76.6147 89.7329 71.8852 88.7321 67.9282 86.7413L67.8089 86.9784L67.6896 87.2156C71.7361 89.2514 76.5511 90.2638 82.1257 90.2638V89.9984ZM67.8089 86.9784L67.9282 86.7413C63.969 84.7494 61.0539 82.0141 59.1688 78.5377L58.9355 78.6643L58.7022 78.7908C60.6448 82.3734 63.6453 85.1808 67.6896 87.2156L67.8089 86.9784ZM58.9355 78.6643L59.1688 78.5377C57.286 75.0655 56.6573 71.073 57.2969 66.5471L57.034 66.5099L56.7712 66.4728C56.1183 71.0937 56.7572 75.204 58.7022 78.7908L58.9355 78.6643ZM57.034 66.5099V66.7754H74.93V66.5099V66.2445H57.034V66.5099ZM74.93 66.5099L74.6663 66.4793C74.3348 69.3359 75.1146 71.6726 77.0233 73.4523L77.2043 73.2582L77.3853 73.0641C75.6154 71.4138 74.879 69.2516 75.1937 66.5405L74.93 66.5099ZM77.2043 73.2582L77.0246 73.4535C78.9458 75.2211 81.4248 76.0962 84.4372 76.0962V75.8307V75.5653C81.5341 75.5653 79.1911 74.7254 77.384 73.0629L77.2043 73.2582ZM84.4372 75.8307V76.0962C86.8381 76.0962 89.031 75.5777 91.0107 74.5371L90.8872 74.3021L90.7637 74.0672C88.866 75.0647 86.7589 75.5653 84.4372 75.5653V75.8307ZM90.8872 74.3021L91.0095 74.5377C93.0111 73.4989 94.6833 72.0416 96.0244 70.1691L95.8086 70.0146L95.5928 69.86C94.2993 71.6661 92.6906 73.0672 90.765 74.0665L90.8872 74.3021ZM95.8086 70.0146L96.0244 70.1691C97.3677 68.2936 98.2395 66.117 98.6432 63.6446L98.3812 63.6018L98.1192 63.5591C97.7275 65.9583 96.8843 68.0568 95.5928 69.86L95.8086 70.0146ZM98.3812 63.6018L98.6428 63.6468C99.0714 61.1508 98.9235 58.9498 98.1809 57.055L97.9338 57.1518L97.6866 57.2487C98.3857 59.0325 98.5361 61.1315 98.1196 63.5569L98.3812 63.6018ZM97.9338 57.1518L98.1814 57.0561C97.4405 55.1402 96.2232 53.6521 94.5319 52.6015L94.3919 52.827L94.2518 53.0525C95.8415 54.04 96.9854 55.4352 97.6862 57.2476L97.9338 57.1518ZM94.3919 52.827L94.5319 52.6015C92.8414 51.5513 90.802 51.0329 88.4266 51.0329V51.2984V51.5638C90.7239 51.5638 92.6615 52.0645 94.2518 53.0525L94.3919 52.827ZM88.4266 51.2984V51.0329C86.1488 51.0329 83.9235 51.5394 81.7528 52.549L81.8647 52.7897L81.9766 53.0304C84.0811 52.0516 86.2303 51.5638 88.4266 51.5638V51.2984ZM81.8647 52.7897L81.754 52.5484C79.6051 53.5344 77.8547 54.9028 76.5091 56.6546L76.7196 56.8163L76.9301 56.978C78.2192 55.2997 79.8989 53.9837 81.9754 53.0309L81.8647 52.7897ZM76.7196 56.8163L76.77 56.5557L60.9619 53.4984L60.9115 53.7591L60.8611 54.0197L76.6692 57.0769L76.7196 56.8163ZM60.9115 53.7591L61.1692 53.8228L71.3475 12.6621L71.0898 12.5983L70.8322 12.5346L60.6538 53.6953L60.9115 53.7591ZM71.0898 12.5983V12.8638H120.08V12.5983V12.3329H71.0898V12.5983ZM120.08 12.5983L119.818 12.5557L117.395 27.4317L117.657 27.4744L117.919 27.517L120.342 12.641L120.08 12.5983ZM117.657 27.4744V27.2089H83.8407V27.4744V27.7398H117.657V27.4744ZM83.8407 27.4744L83.584 27.4069L78.849 45.4147L79.1057 45.4822L79.3624 45.5497L84.0974 27.5419L83.8407 27.4744ZM79.1057 45.4822V45.7476H79.5531V45.4822V45.2167H79.1057V45.4822ZM79.5531 45.4822L79.764 45.6434C81.3466 43.5738 83.6436 41.8584 86.6707 40.5048L86.5624 40.2625L86.454 40.0202C83.3667 41.4007 80.9909 43.1651 79.3423 45.3209L79.5531 45.4822ZM86.5624 40.2625L86.6724 40.5041C89.6926 39.129 92.9854 38.4401 96.5543 38.4401V38.1747V37.9092C92.9151 37.9092 89.5466 38.6122 86.4524 40.0209L86.5624 40.2625ZM96.5543 38.1747V38.4401C101.085 38.4401 104.922 39.4984 108.077 41.6019L108.224 41.381L108.371 41.1602C105.114 38.9884 101.17 37.9092 96.5543 37.9092V38.1747ZM108.224 41.381L108.079 41.6032C111.261 43.6838 113.563 46.5834 114.985 50.3118L115.233 50.2171L115.481 50.1225C114.021 46.2948 111.65 43.3037 108.369 41.1589L108.224 41.381ZM115.233 50.2171L114.985 50.3123C116.407 54.0123 116.718 58.2502 115.904 63.0354L116.165 63.0799L116.427 63.1244C117.253 58.2656 116.943 53.9284 115.481 50.122L115.233 50.2171ZM116.165 63.0799L115.903 63.0389C115.089 68.2409 113.131 72.8467 110.027 76.8615L110.237 77.0238L110.447 77.1861C113.607 73.098 115.601 68.4079 116.428 63.1209L116.165 63.0799ZM110.237 77.0238L110.027 76.8616C106.947 80.8534 103.004 83.9968 98.1923 86.2915L98.3066 86.531L98.4209 86.7706C103.303 84.4422 107.314 81.2474 110.447 77.186L110.237 77.0238ZM98.3066 86.531L98.1919 86.2917C93.4097 88.5842 88.0559 89.7329 82.1257 89.7329V89.9984V90.2638C88.1261 90.2638 93.5596 89.101 98.4214 86.7704L98.3066 86.531ZM167.197 74.6377L167.457 74.6877L167.458 74.686L167.197 74.6377ZM167.942 70.6111L168.203 70.6594L168.204 70.6588L167.942 70.6111ZM171.484 61.9241L171.264 61.7759L171.484 61.9241ZM178.419 55.5114L178.55 55.742L178.419 55.5114ZM197.508 55.5114L197.358 55.7304L197.36 55.7315L197.508 55.5114ZM202.392 61.8868L202.141 61.9715L202.142 61.9743L202.392 61.8868ZM202.84 70.6111L202.579 70.5602L202.579 70.5628L202.84 70.6111ZM202.094 74.6377L201.833 74.5893L201.833 74.5896L202.094 74.6377ZM198.552 83.3247L198.331 83.1774L198.331 83.1779L198.552 83.3247ZM172.528 89.7374L172.377 89.9557L172.378 89.9565L172.528 89.7374ZM167.644 83.3247L167.392 83.4086L167.393 83.4114L167.644 83.3247ZM179.836 70.6111L180.097 70.6594L180.097 70.6579L179.836 70.6111ZM179.09 74.6377L179.351 74.6873L179.351 74.686L179.09 74.6377ZM179.463 79.2235L179.214 79.3149L179.216 79.3199L179.463 79.2235ZM190.089 74.6377L189.828 74.5893L189.827 74.5902L190.089 74.6377ZM190.834 70.6111L191.095 70.6594L191.096 70.6579L190.834 70.6111ZM190.573 65.9134L190.32 65.9935L190.321 65.9948L190.573 65.9134ZM181.812 65.9134L182.03 66.0649L182.031 66.0632L181.812 65.9134ZM134.909 30.9417L134.647 30.9028L134.647 30.9042L134.909 30.9417ZM135.506 26.9151L135.769 26.954L135.769 26.9538L135.506 26.9151ZM145.983 11.8154L146.111 12.0478L146.112 12.047L145.983 11.8154ZM164.997 11.8154L164.845 12.033L164.847 12.0341L164.997 11.8154ZM170.44 26.9151L170.703 26.954L170.703 26.9538L170.44 26.9151ZM169.844 30.9417L170.106 30.9807L170.106 30.9806L169.844 30.9417ZM159.405 45.9669L159.279 45.7331L159.278 45.7336L159.405 45.9669ZM140.316 45.9669L140.164 46.1848L140.167 46.1866L140.316 45.9669ZM135.543 39.6287L135.291 39.7112L135.292 39.7141L135.543 39.6287ZM147.511 26.9151L147.249 26.8741L147.249 26.8762L147.511 26.9151ZM146.915 30.9417L147.177 30.9809L147.177 30.9806L146.915 30.9417ZM147.325 35.6021L147.075 35.6925L147.076 35.6939L147.325 35.6021ZM155.937 35.6021L156.154 35.7546L156.156 35.7528L155.937 35.6021ZM157.801 30.9417L158.064 30.9809L158.064 30.9806L157.801 30.9417ZM158.398 26.9151L158.135 26.8759L158.135 26.8762L158.398 26.9151ZM158.1 22.2174L157.845 22.2937L157.846 22.2949L158.1 22.2174ZM149.375 22.2547L149.155 22.1066L149.153 22.1092L149.375 22.2547ZM130.696 88.9544L130.495 88.7821L130.121 89.2199H130.696V88.9544ZM195.868 12.5983V12.3329H195.745L195.666 12.426L195.868 12.5983ZM206.605 12.5983L206.807 12.7707L207.181 12.3329H206.605V12.5983ZM141.434 88.9544V89.2199H141.556L141.636 89.1268L141.434 88.9544ZM167.197 74.6377L167.458 74.686L168.203 70.6594L167.942 70.6111L167.681 70.5628L166.936 74.5893L167.197 74.6377ZM167.942 70.6111L168.204 70.6588C168.769 67.5632 169.935 64.7017 171.705 62.0723L171.484 61.9241L171.264 61.7759C169.454 64.4656 168.26 67.3954 167.681 70.5634L167.942 70.6111ZM171.484 61.9241L171.705 62.0723C173.471 59.4473 175.752 57.3377 178.55 55.742L178.419 55.5114L178.288 55.2808C175.419 56.9163 173.077 59.0818 171.264 61.7759L171.484 61.9241ZM178.419 55.5114L178.55 55.742C181.339 54.1521 184.561 53.3534 188.224 53.3534V53.088V52.8225C184.481 52.8225 181.166 53.6394 178.288 55.2808L178.419 55.5114ZM188.224 53.088V53.3534C192.016 53.3534 195.054 54.1537 197.358 55.7304L197.508 55.5114L197.658 55.2923C195.24 53.6378 192.088 52.8225 188.224 52.8225V53.088ZM197.508 55.5114L197.36 55.7315C199.673 57.2902 201.265 59.3681 202.141 61.9715L202.392 61.8868L202.644 61.8022C201.73 59.0865 200.065 56.9141 197.656 55.2912L197.508 55.5114ZM202.392 61.8868L202.142 61.9743C203.043 64.5578 203.193 67.4173 202.579 70.5602L202.84 70.6111L203.1 70.662C203.729 67.4418 203.58 64.4852 202.643 61.7993L202.392 61.8868ZM202.84 70.6111L202.579 70.5628L201.833 74.5893L202.094 74.6377L202.355 74.686L203.101 70.6594L202.84 70.6111ZM202.094 74.6377L201.833 74.5896C201.268 77.6604 200.101 80.5224 198.331 83.1774L198.552 83.3247L198.773 83.4719C200.582 80.7582 201.777 77.8289 202.355 74.6857L202.094 74.6377ZM198.552 83.3247L198.331 83.1779C196.59 85.8016 194.31 87.9107 191.487 89.5063L191.617 89.7374L191.748 89.9685C194.642 88.3329 196.985 86.1668 198.773 83.4714L198.552 83.3247ZM191.617 89.7374L191.487 89.5063C188.674 91.0963 185.414 91.8954 181.7 91.8954V92.1608V92.4262C185.492 92.4262 188.844 91.6097 191.748 89.9685L191.617 89.7374ZM181.7 92.1608V91.8954C177.984 91.8954 174.983 91.0956 172.678 89.5183L172.528 89.7374L172.378 89.9565C174.796 91.6104 177.91 92.4262 181.7 92.4262V92.1608ZM172.528 89.7374L172.679 89.5191C170.389 87.9353 168.796 85.8436 167.895 83.2379L167.644 83.3247L167.393 83.4114C168.332 86.1249 169.995 88.3083 172.377 89.9557L172.528 89.7374ZM167.644 83.3247L167.896 83.2407C167.017 80.6044 166.868 77.7554 167.457 74.6877L167.197 74.6377L166.936 74.5876C166.332 77.7339 166.481 80.6761 167.392 83.4086L167.644 83.3247ZM179.836 70.6111L179.575 70.5628L178.829 74.5893L179.09 74.6377L179.351 74.686L180.097 70.6594L179.836 70.6111ZM179.09 74.6377L178.829 74.588C178.522 76.2009 178.65 77.7783 179.214 79.3149L179.463 79.2235L179.712 79.1321C179.182 77.6861 179.062 76.2062 179.351 74.6873L179.09 74.6377ZM179.463 79.2235L179.216 79.3199C179.523 80.1088 180.039 80.708 180.761 81.1057C181.477 81.5006 182.38 81.6887 183.452 81.6887V81.4232V81.1578C182.437 81.1578 181.631 80.9792 181.017 80.6409C180.409 80.3054 179.974 79.8047 179.71 79.1271L179.463 79.2235ZM183.452 81.4232V81.6887C185.702 81.6887 187.376 80.943 188.407 79.4089L188.187 79.2608L187.967 79.1127C187.06 80.4618 185.577 81.1578 183.452 81.1578V81.4232ZM188.187 79.2608L188.407 79.4089C189.396 77.9382 190.045 76.3631 190.35 74.6852L190.089 74.6377L189.827 74.5902C189.536 76.1931 188.917 77.7001 187.967 79.1127L188.187 79.2608ZM190.089 74.6377L190.35 74.686L191.095 70.6594L190.834 70.6111L190.573 70.5628L189.828 74.5893L190.089 74.6377ZM190.834 70.6111L191.096 70.6579C191.401 68.9541 191.313 67.3438 190.826 65.832L190.573 65.9134L190.321 65.9948C190.778 67.4159 190.864 68.9375 190.573 70.5643L190.834 70.6111ZM190.573 65.9134L190.826 65.8333C190.57 65.0226 190.065 64.4084 189.321 64.0026C188.585 63.6011 187.629 63.411 186.472 63.411V63.6764V63.9418C187.577 63.9418 188.436 64.1246 189.067 64.4687C189.69 64.8085 190.105 65.3128 190.32 65.9935L190.573 65.9134ZM186.472 63.6764V63.411C184.312 63.411 182.669 64.1878 181.593 65.7636L181.812 65.9134L182.031 66.0632C182.992 64.6564 184.456 63.9418 186.472 63.9418V63.6764ZM181.812 65.9134L181.594 65.7619C180.554 67.258 179.88 68.8593 179.574 70.5643L179.836 70.6111L180.097 70.6579C180.388 69.0322 181.031 67.5018 182.03 66.0649L181.812 65.9134ZM134.909 30.9417L135.172 30.9806L135.769 26.954L135.506 26.9151L135.243 26.8762L134.647 30.9028L134.909 30.9417ZM135.506 26.9151L135.769 26.9538C136.235 23.7871 137.364 20.9049 139.155 18.3041L138.936 18.1536L138.717 18.003C136.88 20.6716 135.721 23.6305 135.243 26.8764L135.506 26.9151ZM138.936 18.1536L139.155 18.3041C140.945 15.7044 143.263 13.6193 146.111 12.0478L145.983 11.8154L145.854 11.583C142.936 13.193 140.556 15.3334 138.717 18.003L138.936 18.1536ZM145.983 11.8154L146.112 12.047C148.952 10.456 152.187 9.65743 155.825 9.65743V9.39199V9.12655C152.107 9.12655 148.78 9.94359 145.853 11.5838L145.983 11.8154ZM155.825 9.39199V9.65743C159.592 9.65743 162.591 10.4577 164.845 12.033L164.997 11.8154L165.149 11.5978C162.78 9.94188 159.664 9.12655 155.825 9.12655V9.39199ZM164.997 11.8154L164.847 12.0341C167.111 13.5927 168.679 15.6589 169.555 18.2389L169.807 18.1536L170.058 18.0682C169.145 15.3789 167.506 13.2196 165.148 11.5967L164.997 11.8154ZM169.807 18.1536L169.555 18.2389C170.434 20.8276 170.645 23.7049 170.178 26.8764L170.44 26.9151L170.703 26.9538C171.18 23.7126 170.968 20.7488 170.058 18.0682L169.807 18.1536ZM170.44 26.9151L170.178 26.8762L169.581 30.9028L169.844 30.9417L170.106 30.9806L170.703 26.954L170.44 26.9151ZM169.844 30.9417L169.581 30.9027C169.115 34.0452 167.998 36.9155 166.232 39.5168L166.451 39.666L166.671 39.8151C168.483 37.1471 169.628 34.2013 170.106 30.9807L169.844 30.9417ZM166.451 39.666L166.232 39.5168C164.467 42.1149 162.151 44.1867 159.279 45.7331L159.405 45.9669L159.53 46.2006C162.475 44.6152 164.856 42.4865 166.671 39.8151L166.451 39.666ZM159.405 45.9669L159.278 45.7336C156.439 47.2755 153.165 48.0503 149.45 48.0503V48.3157V48.5811C153.241 48.5811 156.604 47.79 159.531 46.2001L159.405 45.9669ZM149.45 48.3157V48.0503C145.707 48.0503 142.719 47.2744 140.464 45.7471L140.316 45.9669L140.167 46.1866C142.535 47.7911 145.637 48.5811 149.45 48.5811V48.3157ZM140.316 45.9669L140.467 45.749C138.227 44.1906 136.671 42.1243 135.795 39.5433L135.543 39.6287L135.292 39.7141C136.205 42.4025 137.831 44.5617 140.164 46.1848L140.316 45.9669ZM135.543 39.6287L135.796 39.5462C134.94 36.9301 134.73 34.076 135.172 30.9792L134.909 30.9417L134.647 30.9042C134.194 34.071 134.407 37.0082 135.291 39.7112L135.543 39.6287ZM147.511 26.9151L147.249 26.8762L146.652 30.9028L146.915 30.9417L147.177 30.9806L147.774 26.954L147.511 26.9151ZM146.915 30.9417L146.652 30.9025C146.398 32.6071 146.537 34.2055 147.075 35.6925L147.325 35.6021L147.574 35.5117C147.069 34.1155 146.934 32.607 147.177 30.9809L146.915 30.9417ZM147.325 35.6021L147.076 35.6939C147.358 36.4608 147.854 37.0429 148.558 37.4287C149.256 37.8112 150.143 37.9927 151.202 37.9927V37.7273V37.4618C150.198 37.4618 149.408 37.2891 148.813 36.9632C148.225 36.6406 147.813 36.1602 147.574 35.5104L147.325 35.6021ZM151.202 37.7273V37.9927C153.427 37.9927 155.098 37.2599 156.154 35.7546L155.937 35.6021L155.72 35.4496C154.788 36.7778 153.302 37.4618 151.202 37.4618V37.7273ZM155.937 35.6021L156.156 35.7528C157.172 34.2792 157.809 32.6879 158.064 30.9809L157.801 30.9417L157.539 30.9025C157.296 32.5262 156.691 34.0417 155.719 35.4514L155.937 35.6021ZM157.801 30.9417L158.064 30.9806L158.66 26.954L158.398 26.9151L158.135 26.8762L157.539 30.9028L157.801 30.9417ZM158.398 26.9151L158.66 26.9543C158.914 25.2538 158.814 23.6478 158.354 22.14L158.1 22.2174L157.846 22.2949C158.281 23.72 158.379 25.2458 158.135 26.8759L158.398 26.9151ZM158.1 22.2174L158.354 22.1412C158.111 21.3303 157.619 20.7146 156.886 20.3076C156.162 19.9052 155.217 19.715 154.073 19.715V19.9804V20.2459C155.166 20.2459 156.011 20.4285 156.629 20.7717C157.238 21.1104 157.641 21.6133 157.845 22.2937L158.1 22.2174ZM154.073 19.9804V19.715C151.888 19.715 150.232 20.5047 149.155 22.1066L149.375 22.2547L149.596 22.4028C150.557 20.9724 152.033 20.2459 154.073 20.2459V19.9804ZM149.375 22.2547L149.153 22.1092C148.141 23.6529 147.504 25.2416 147.249 26.8741L147.511 26.9151L147.773 26.9561C148.015 25.4071 148.621 23.8888 149.597 22.4003L149.375 22.2547ZM130.696 88.9544L130.898 89.1268L196.069 12.7707L195.868 12.5983L195.666 12.426L130.495 88.7821L130.696 88.9544ZM195.868 12.5983V12.8638H206.605V12.5983V12.3329H195.868V12.5983ZM206.605 12.5983L206.403 12.426L141.232 88.7821L141.434 88.9544L141.636 89.1268L206.807 12.7707L206.605 12.5983ZM141.434 88.9544V88.689H130.696V88.9544V89.2199H141.434V88.9544ZM314.838 51.9695L315.1 52.0137L315.1 52.0126L314.838 51.9695ZM306.636 72.8108L306.421 72.6558L306.42 72.656L306.636 72.8108ZM291.835 85.6362L291.716 85.3988L291.716 85.399L291.835 85.6362ZM254.887 85.3007L254.749 85.5274L254.887 85.3007ZM243.665 71.6177L243.417 71.7133L243.417 71.7142L243.665 71.6177ZM242.322 49.807L242.584 49.8504L242.584 49.8498L242.322 49.807ZM250.413 28.9284L250.197 28.7739L250.197 28.7745L250.413 28.9284ZM265.289 15.9911L265.408 16.2283L265.408 16.2281L265.289 15.9911ZM302.311 16.2894L302.172 16.5153L302.172 16.5156L302.311 16.2894ZM313.496 30.0469L313.744 29.9517L313.496 30.0469ZM296.383 49.807L296.645 49.8515L296.645 49.8491L296.383 49.807ZM296.383 37.69L296.124 37.7488L296.125 37.7507L296.383 37.69ZM291.984 30.2706L291.821 30.4807L291.823 30.4818L291.984 30.2706ZM272.932 30.6062L273.07 30.833L273.07 30.8327L272.932 30.6062ZM265.14 38.883L265.37 39.0161L265.37 39.0154L265.14 38.883ZM260.778 51.9695L261.039 52.0151L261.04 52.0114L260.778 51.9695ZM260.703 64.0865L260.445 64.15L260.446 64.1518L260.703 64.0865ZM265.289 71.394L265.132 71.6081L265.134 71.6092L265.289 71.394ZM284.229 71.0212L284.091 70.7941L284.229 71.0212ZM291.947 62.8562L291.717 62.7224L291.717 62.7236L291.947 62.8562ZM314.838 51.9695L314.577 51.9252C313.19 60.1201 310.469 67.0275 306.421 72.6558L306.636 72.8108L306.852 72.9658C310.956 67.26 313.703 60.2731 315.1 52.0137L314.838 51.9695ZM306.636 72.8108L306.42 72.656C302.392 78.2656 297.491 82.5113 291.716 85.3988L291.835 85.6362L291.953 85.8737C297.811 82.945 302.777 78.6404 306.852 72.9656L306.636 72.8108ZM291.835 85.6362L291.716 85.399C285.962 88.288 279.777 89.7329 273.156 89.7329V89.9984V90.2638C279.857 90.2638 286.124 88.8006 291.954 85.8735L291.835 85.6362ZM273.156 89.9984V89.7329C266.162 89.7329 260.122 88.1764 255.025 85.074L254.887 85.3007L254.749 85.5274C259.942 88.6885 266.081 90.2638 273.156 90.2638V89.9984ZM254.887 85.3007L255.025 85.074C249.933 81.9745 246.229 77.4611 243.912 71.5213L243.665 71.6177L243.417 71.7142C245.773 77.7547 249.551 82.3633 254.749 85.5274L254.887 85.3007ZM243.665 71.6177L243.912 71.5222C241.623 65.5891 241.173 58.3697 242.584 49.8504L242.322 49.807L242.061 49.7636C240.639 58.3449 241.083 65.6661 243.417 71.7133L243.665 71.6177ZM242.322 49.807L242.584 49.8498C243.921 41.655 246.605 34.7354 250.629 29.0823L250.413 28.9284L250.197 28.7745C246.118 34.5053 243.408 41.5047 242.061 49.7643L242.322 49.807ZM250.413 28.9284L250.629 29.083C254.682 23.4235 259.608 19.1406 265.408 16.2283L265.289 15.9911L265.17 15.7539C259.288 18.7075 254.297 23.0495 250.197 28.7739L250.413 28.9284ZM265.289 15.9911L265.408 16.2281C271.236 13.2894 277.484 11.8199 284.154 11.8199V11.5544V11.289C277.403 11.289 271.073 12.7772 265.169 15.7541L265.289 15.9911ZM284.154 11.5544V11.8199C291.098 11.8199 297.1 13.3884 302.172 16.5153L302.311 16.2894L302.451 16.0634C297.282 12.877 291.18 11.289 284.154 11.289V11.5544ZM302.311 16.2894L302.172 16.5156C307.264 19.6396 310.956 24.1776 313.248 30.1421L313.496 30.0469L313.744 29.9517C311.413 23.8861 307.648 19.2524 302.45 16.0631L302.311 16.2894ZM313.496 30.0469L313.248 30.1421C315.538 36.1002 315.988 43.3571 314.577 51.9263L314.838 51.9695L315.1 52.0126C316.522 43.3819 316.077 36.0236 313.744 29.9517L313.496 30.0469ZM296.383 49.807L296.645 49.8491C297.419 45.0317 297.423 40.9553 296.642 37.6293L296.383 37.69L296.125 37.7507C296.885 40.9865 296.888 44.9881 296.121 49.7649L296.383 49.807ZM296.383 37.69L296.642 37.6312C295.886 34.3036 294.392 31.7704 292.145 30.0594L291.984 30.2706L291.823 30.4818C293.95 32.1015 295.389 34.5145 296.124 37.7488L296.383 37.69ZM291.984 30.2706L292.146 30.0606C289.901 28.3258 286.993 27.4699 283.446 27.4699V27.7353V28.0008C286.908 28.0008 289.692 28.8351 291.821 30.4806L291.984 30.2706ZM283.446 27.7353V27.4699C279.522 27.4699 275.969 28.4389 272.794 30.3797L272.932 30.6062L273.07 30.8327C276.158 28.9457 279.614 28.0008 283.446 28.0008V27.7353ZM272.932 30.6062L272.794 30.3793C269.644 32.2949 267.017 35.0889 264.91 38.7507L265.14 38.883L265.37 39.0154C267.439 35.4193 270.007 32.6955 273.07 30.833L272.932 30.6062ZM265.14 38.883L264.91 38.75C262.803 42.3881 261.34 46.7827 260.516 51.9275L260.778 51.9695L261.04 52.0114C261.856 46.9157 263.301 42.5861 265.37 39.0161L265.14 38.883ZM260.778 51.9695L260.516 51.9239C259.668 56.7911 259.638 60.8702 260.445 64.15L260.703 64.0865L260.961 64.0231C260.177 60.8404 260.198 56.8415 261.039 52.0151L260.778 51.9695ZM260.703 64.0865L260.446 64.1518C261.278 67.4302 262.836 69.9242 265.132 71.6081L265.289 71.394L265.446 71.18C263.268 69.5829 261.769 67.2052 260.96 64.0212L260.703 64.0865ZM265.289 71.394L265.134 71.6092C267.426 73.2649 270.33 74.0829 273.827 74.0829V73.8174V73.552C270.414 73.552 267.626 72.7543 265.444 71.1788L265.289 71.394ZM273.827 73.8174V74.0829C277.724 74.0829 281.24 73.1393 284.366 71.2483L284.229 71.0212L284.091 70.7941C281.054 72.6314 277.634 73.552 273.827 73.552V73.8174ZM284.229 71.0212L284.366 71.2483C287.492 69.3578 290.094 66.601 292.176 62.9887L291.947 62.8562L291.717 62.7236C289.673 66.2697 287.13 68.9563 284.091 70.7941L284.229 71.0212ZM291.947 62.8562L292.176 62.9899C294.283 59.3772 295.771 54.9955 296.645 49.8515L296.383 49.807L296.122 49.7626C295.256 54.859 293.785 59.1768 291.717 62.7224L291.947 62.8562ZM319.462 88.9544L319.2 88.911L319.148 89.2199H319.462V88.9544ZM332.138 12.5983V12.3329H331.913L331.876 12.5549L332.138 12.5983ZM384.26 12.5983L384.522 12.6426L384.574 12.3329H384.26V12.5983ZM381.725 27.5862V27.8517H381.949L381.986 27.6305L381.725 27.5862ZM348.058 27.5862V27.3208H347.832L347.796 27.5438L348.058 27.5862ZM345.523 43.2452L345.26 43.2028L345.211 43.5106H345.523V43.2452ZM375.871 43.2452L376.133 43.2893L376.185 42.9797H375.871V43.2452ZM373.336 58.2703V58.5358H373.56L373.598 58.3145L373.336 58.2703ZM342.987 58.2703V58.0049H342.762L342.725 58.2271L342.987 58.2703ZM337.917 88.9544V89.2199H338.142L338.179 88.9977L337.917 88.9544ZM319.462 88.9544L319.723 88.9979L332.4 12.6418L332.138 12.5983L331.876 12.5549L319.2 88.911L319.462 88.9544ZM332.138 12.5983V12.8638H384.26V12.5983V12.3329H332.138V12.5983ZM384.26 12.5983L383.998 12.5541L381.463 27.5419L381.725 27.5862L381.986 27.6305L384.522 12.6426L384.26 12.5983ZM381.725 27.5862V27.3208H348.058V27.5862V27.8517H381.725V27.5862ZM348.058 27.5862L347.796 27.5438L345.26 43.2028L345.523 43.2452L345.785 43.2876L348.32 27.6286L348.058 27.5862ZM345.523 43.2452V43.5106H375.871V43.2452V42.9797H345.523V43.2452ZM375.871 43.2452L375.609 43.201L373.074 58.2262L373.336 58.2703L373.598 58.3145L376.133 43.2893L375.871 43.2452ZM373.336 58.2703V58.0049H342.987V58.2703V58.5358H373.336V58.2703ZM342.987 58.2703L342.725 58.2271L337.655 88.9112L337.917 88.9544L338.179 88.9977L343.249 58.3136L342.987 58.2703ZM337.917 88.9544V88.689H319.462V88.9544V89.2199H337.917V88.9544ZM380.876 88.9544L380.615 88.911L380.563 89.2199H380.876V88.9544ZM393.553 12.5983V12.3329H393.328L393.291 12.5549L393.553 12.5983ZM445.675 12.5983L445.936 12.6426L445.989 12.3329H445.675V12.5983ZM443.139 27.5862V27.8517H443.364L443.401 27.6305L443.139 27.5862ZM409.473 27.5862V27.3208H409.247L409.211 27.5438L409.473 27.5862ZM406.937 43.2452L406.675 43.2028L406.625 43.5106H406.937V43.2452ZM437.286 43.2452L437.548 43.2893L437.6 42.9797H437.286V43.2452ZM434.751 58.2703V58.5358H434.975L435.012 58.3145L434.751 58.2703ZM404.402 58.2703V58.0049H404.177L404.14 58.2271L404.402 58.2703ZM399.332 88.9544V89.2199H399.557L399.593 88.9977L399.332 88.9544ZM380.876 88.9544L381.138 88.9979L393.815 12.6418L393.553 12.5983L393.291 12.5549L380.615 88.911L380.876 88.9544ZM393.553 12.5983V12.8638H445.675V12.5983V12.3329H393.553V12.5983ZM445.675 12.5983L445.413 12.5541L442.878 27.5419L443.139 27.5862L443.401 27.6305L445.936 12.6426L445.675 12.5983ZM443.139 27.5862V27.3208H409.473V27.5862V27.8517H443.139V27.5862ZM409.473 27.5862L409.211 27.5438L406.675 43.2028L406.937 43.2452L407.199 43.2876L409.735 27.6286L409.473 27.5862ZM406.937 43.2452V43.5106H437.286V43.2452V42.9797H406.937V43.2452ZM437.286 43.2452L437.024 43.201L434.489 58.2262L434.751 58.2703L435.012 58.3145L437.548 43.2893L437.286 43.2452ZM434.751 58.2703V58.0049H404.402V58.2703V58.5358H434.751V58.2703ZM404.402 58.2703L404.14 58.2271L399.07 88.9112L399.332 88.9544L399.593 88.9977L404.664 58.3136L404.402 58.2703ZM399.332 88.9544V88.689H380.876V88.9544V89.2199H399.332V88.9544Z" fill="url(#paint2_linear_5003_12)"/>
<defs>
<linearGradient id="paint0_linear_5003_12" x1="224.185" y1="11.656" x2="224.185" y2="94.206" gradientUnits="userSpaceOnUse">
<stop stop-color="#FF532D"/>
<stop offset="1" stop-color="#0B111D"/>
</linearGradient>
<linearGradient id="paint1_linear_5003_12" x1="226.309" y1="11.656" x2="226.309" y2="94.206" gradientUnits="userSpaceOnUse">
<stop stop-color="#FF532D"/>
<stop offset="1" stop-color="#0B111D"/>
</linearGradient>
<linearGradient id="paint2_linear_5003_12" x1="221" y1="11.656" x2="221" y2="94.206" gradientUnits="userSpaceOnUse">
<stop stop-color="#FF532D"/>
<stop offset="1" stop-color="#0B111D"/>
</linearGradient>
</defs>
</svg>
