<svg width="1036" height="1071" viewBox="0 0 1036 1071" fill="none" xmlns="http://www.w3.org/2000/svg">
<path opacity="0.3" d="M84.5823 467.255C90.8185 487.188 95.0149 507.237 103.408 525.626C112.354 545.238 129.606 558.526 153.211 564.908C138.174 539.322 132.229 513.036 140.388 485.002C148.315 457.697 163.556 434.588 186.053 415.587C186.024 423.193 183.547 430.1 183.372 437.065C183.022 450.295 182.847 463.729 184.742 476.784C186.286 487.363 193.164 496.105 205.607 498.174C218.021 500.214 228.629 494.357 233.087 484.827C240.023 469.994 246.522 454.083 248.066 438.201C251.68 401.454 238.071 368.028 218.75 336.468C216.622 333 214.553 329.532 212.455 326.035C247.746 339.44 269.223 363.832 283.852 395.392C287.582 316.943 322.523 256.358 394.823 216.143C393.57 220.543 390.743 224.04 388.091 227.654C375.735 244.585 366.789 262.565 368.421 283.751C370.461 310.066 391.821 322.917 417.874 312.251C428.598 307.851 438.856 301.148 447.219 293.484C487.231 256.941 494.778 212.762 480.412 163.979C478.284 156.723 475.895 149.525 473.651 142.298C493.38 165.349 505.357 191.431 512.671 219.319C522.638 257.261 520.131 294.417 503.608 330.669C490.407 359.636 480.382 389.506 482.714 421.357C483.705 434.85 488.309 448.138 491.281 461.485C493.263 461.339 495.245 461.194 497.226 461.077C481.84 423.047 498.217 391.749 519.578 361.53C520.627 360.043 521.559 358.47 522.521 356.925C541.55 326.764 549.273 294.184 546.825 259.418C546.009 247.849 544.581 236.309 543.94 224.739C539.219 139.238 570.605 66.6175 634.891 5.8283C637.222 3.64269 640.253 2.09819 643.313 0C644.041 1.92334 644.42 2.3896 644.304 2.71016C643.109 6.09058 641.768 9.41271 640.573 12.764C610.82 98.848 620.116 179.832 677.612 254.347C682.042 260.117 687.054 265.771 692.912 270.229C696.846 273.231 702.732 273.989 707.745 275.766C708.59 271.191 710.863 266.383 710.018 262.07C708.036 252.016 704.626 242.224 701.741 232.345C694.048 206.001 691.134 179.57 703.257 153.722C707.249 145.212 713.631 137.694 718.935 129.738C720.246 130.146 721.587 130.554 722.898 130.962C715.875 165.407 732.544 192.742 752.564 218.765C769.292 240.505 787.505 261.312 804.145 283.11C846.633 338.712 864.235 399.035 842.641 466.352C842.233 467.634 820.318 571.698 666.684 656.238C661.934 656.617 657.126 656.937 652.288 657.2C653.512 653.819 653.541 652.275 654.416 651.517C700.984 609.32 690.843 552.552 661.468 512.046C651.297 497.999 640.049 484.624 629.412 470.869C609.101 444.641 597.648 416.053 602.573 383.124C602.777 381.667 602.252 380.122 602.077 378.636C588.206 405.971 584.651 434.617 592.373 463.059C598.872 487.071 609.8 510.064 618.892 533.436C630.316 562.839 628.451 590.873 606.099 615.207C583.019 640.297 552.916 652.508 517.45 646.155C472.048 638.024 439.205 613.75 420.905 573.68C408.403 546.287 406.771 517.524 408.519 488.324C408.782 483.895 408.549 479.436 408.549 475.007C372.413 519.885 356.152 568.085 374.511 623.279C367.663 617.859 362.418 612.176 356.881 606.785C341.465 591.806 324.708 578.547 302.328 573.447C286.038 569.746 271.525 572.835 261.267 585.89C251.155 598.771 250.543 613.516 260.218 625.931C267.445 635.256 278.84 641.929 288.864 649.186C292.711 651.954 297.956 653.062 302.59 654.956C273.04 657.054 243.695 659.706 215.107 656.558C141.379 648.457 91.5762 605.269 80.0362 541.857C75.4901 516.854 76.3352 491.734 84.5823 467.284V467.255Z" fill="url(#paint0_linear_2059_2893)"/>
<path d="M1032.76 391.544C1029.96 387.289 1027.11 382.976 1007.61 380.033C1019.27 370.533 1027.31 360.304 1021.95 348.035C1018.77 340.808 1011.57 336.321 1003.15 336.321C996.217 336.321 985.173 340.459 972.787 346.491C974.652 335.767 973.545 324.46 963.375 317.699C960.053 315.484 956.177 314.319 952.184 314.319C937.06 314.319 926.802 329.851 914.184 356.661C913.776 357.506 913.397 358.352 912.989 359.197C905.733 352.319 900.254 352.319 896.874 352.319C895.358 352.319 893.843 352.494 892.386 352.815C887.082 354.039 882.682 357.361 879.943 362.169C877.407 366.628 872.803 374.7 884.897 414.711C878.923 426.805 862.137 456.471 833.812 474.335C832.209 475.355 830.548 476.346 828.887 477.249C828.828 477.249 828.799 477.307 828.741 477.336C823.787 480.047 818.629 482.32 813.296 484.068C806.826 477.249 800.648 470.605 794.616 463.931C788.496 457.17 782.027 449.798 774.858 441.434C762.123 426.601 749.884 411.651 738.49 397.022C734.177 391.485 729.893 385.89 725.609 380.237C721.325 374.583 717.1 368.842 712.874 363.072C711.33 360.945 709.785 358.818 708.241 356.69C704.889 352.057 699.586 349.434 694.078 349.434C692.504 349.434 690.901 349.638 689.328 350.104C685.131 351.299 681.605 353.98 679.361 357.506L680.032 349.493C680.09 348.881 680.207 348.473 680.294 348.239C680.527 348.239 681.022 348.269 681.78 348.531C683.616 349.143 685.481 349.434 687.346 349.434C692.737 349.434 697.925 346.957 701.305 342.469C705.822 336.466 706.026 328.248 701.771 322.041C686.268 299.457 670.852 275.619 655.961 251.198C652.639 245.749 649.346 240.27 646.053 234.733L641.477 226.923C639.729 223.951 637.951 220.949 636.232 217.948C633.842 213.839 629.879 210.866 625.246 209.73C623.876 209.38 622.477 209.234 621.078 209.234C617.785 209.234 614.522 210.167 611.695 211.945C607.557 214.567 603.389 217.248 599.281 219.929C595.084 222.639 590.888 225.379 586.662 228.205C582.437 231.003 578.211 233.859 573.986 236.773C569.731 239.658 565.476 242.601 561.251 245.574C559.298 246.943 557.317 248.313 555.306 249.712C546.593 255.861 537.675 262.301 528.758 268.858C523.513 272.734 520.861 279.203 521.852 285.643C522.871 292.084 527.359 297.446 533.537 299.515C533.566 299.515 533.625 299.515 533.654 299.544C533.741 299.573 533.945 299.66 534.237 299.806L534.557 299.981C534.82 300.127 535.082 300.272 535.49 300.535L535.606 300.593C536.306 301.088 536.947 301.7 537.588 302.4C538.695 303.653 539.686 305.168 540.386 306.8C540.619 307.354 540.852 307.908 541.027 308.52C539.511 305.897 537.297 303.653 534.528 302.079C531.847 300.535 528.845 299.806 525.873 299.806C522.114 299.806 518.384 301.03 515.266 303.391L509.495 307.82C504.192 311.9 498.888 316.038 493.555 320.234C488.222 324.431 482.86 328.715 477.469 333.028C448.269 356.516 417.991 382.277 387.393 409.611C381.244 415.09 375.095 420.656 368.888 426.28L368.392 426.718C348.314 426.863 329.197 431.293 311.391 439.889C309.352 438.753 307.341 437.587 305.359 436.451C286.942 425.814 269.165 414.682 252.467 403.346C246.144 399.033 239.878 394.633 233.846 390.261C227.93 385.978 222.247 381.694 216.944 377.527C136.426 314.698 108.042 297.475 84.9618 297.475C81.3482 297.475 77.9095 297.912 74.3834 298.786C59.2881 302.167 48.564 308.782 42.4734 318.399C37.0531 326.995 35.6543 337.224 38.3062 348.793C43.2894 372.048 65.029 399.121 90.1781 430.419C92.9174 433.828 95.6858 437.296 98.4543 440.764C100.582 443.445 102.709 446.097 104.836 448.807C106.089 450.38 107.255 451.925 108.333 453.382L109.353 454.81C110.023 455.713 110.665 456.617 111.277 457.491L112.297 459.036C112.792 459.764 113.258 460.493 113.695 461.192C114.016 461.687 114.307 462.154 114.57 462.62C114.919 463.232 115.298 463.815 115.59 464.368C115.764 464.66 115.91 464.951 116.085 465.243L114.686 465.505C108.042 465.272 100.028 464.106 92.2763 462.97C88.8667 462.474 85.5154 462.008 82.3973 461.6C78.0844 461.046 73.9171 460.784 70.0413 460.784C46.9321 460.784 36.208 470.459 31.2831 478.56C26.2416 486.837 22.628 501.232 33.8475 522.855C36.1789 527.372 38.5393 531.161 40.6084 534.483C47.0195 544.799 48.6806 547.48 43.8722 559.37C43.3477 560.331 42.9397 561.351 42.59 562.371C38.0148 572.629 29.622 586.355 16.9746 604.189C0.15993 627.911 -4.18216 650.087 4.03575 670.108C19.539 707.788 73.888 718.337 80.0368 719.415C81.0568 719.59 82.0476 719.677 83.0676 719.677C87.3222 719.677 91.4603 718.133 94.6659 715.277C98.6583 711.722 100.815 706.564 100.523 701.231C100.057 692.721 100.611 686.514 101.514 682.085L172.328 686.835C176.495 689.02 181.129 691.497 186.025 694.149C137.62 703.008 96.1521 718.861 93.7334 719.794C85.8943 722.825 81.3191 731.013 82.8344 739.289C90.8484 782.827 115.182 791.948 134.182 791.948C156.184 791.948 179.409 779.505 201.994 767.149C209.367 813.105 231.573 883.744 297.986 918.539C319.959 930.05 343.768 935.907 368.742 935.907C393.716 935.907 419.74 930.108 446.084 918.626L446.404 918.481L444.539 934.8C443.869 940.512 446.084 946.194 450.426 949.983L451.038 950.507C454.272 953.159 458.206 954.471 462.111 954.471C466.337 954.471 470.533 952.955 473.855 949.954C474.875 949.254 475.837 948.438 476.711 947.535C486.853 936.869 497.052 926.232 507.048 915.945C507.397 915.596 507.747 915.188 508.068 914.809C525.873 896.479 543.679 878.499 561.193 861.218C575.589 873.049 590.043 884.298 604.322 894.701C604.613 894.964 604.905 895.226 605.196 895.488C605.488 895.75 605.837 895.983 606.158 896.217C614.813 902.482 623.614 908.631 632.327 914.488C635.299 916.47 638.68 917.461 642.06 917.461C646.286 917.461 650.511 915.916 653.804 912.973C654.766 912.332 655.669 911.574 656.514 910.7L657.039 910.146C659.895 907.203 661.643 903.356 661.964 899.276L665.49 853.145C678.371 871.592 688.978 890.068 697.109 908.048C718.499 955.403 752.099 1053.61 752.448 1054.6C754.08 1059.38 757.694 1063.23 762.386 1065.15C763.901 1065.76 771.944 1068.82 783.746 1069C787.01 1069.26 790.303 1069.4 793.596 1069.4C880.088 1069.4 943.209 977.667 945.832 973.733C948.833 969.304 949.62 963.767 948.017 958.667C946.414 953.567 942.568 949.487 937.555 947.593C922.81 941.969 908.88 939.142 896.203 939.142C862.632 939.142 842.641 957.909 828.158 975.948C807.147 925.067 765.591 843.062 696.293 778.485C689.27 771.607 682.713 765.692 675.981 760.155C685.51 753.598 692.271 745.234 694.573 736.783L698.362 736.55C699.061 736.521 699.731 736.492 700.431 736.492C711.417 736.492 720.684 741.504 722.841 748.527C722.899 749.168 722.928 749.722 722.928 750.247V760.796L722.578 766.799C722.491 768.577 722.666 770.296 723.074 771.957C724.006 777.873 727.911 782.973 733.536 785.362C735.75 786.295 738.052 786.761 740.355 786.761C744.813 786.761 749.185 785.071 752.507 781.836L758.976 775.658C760.142 774.551 761.133 773.269 761.919 771.928C792.78 745.322 823.146 720.552 852.229 698.258C871.55 683.454 890.812 669.35 909.521 656.294C911.998 654.575 914.475 652.856 916.923 651.166C917.593 650.816 918.234 650.437 918.846 650.029C922.955 647.231 927.035 644.463 931.115 641.724C931.844 641.257 932.514 640.704 933.126 640.15C939.362 635.925 942.189 628.173 940.12 620.917C938.051 613.602 931.494 608.473 923.917 608.211L805.02 604.015C807.73 600.984 809.333 597.108 809.478 592.999L810.149 575.66C810.557 575.252 811.984 574.319 814.724 574.319C815.161 574.319 815.627 574.319 816.152 574.407L867.324 579.944C867.965 580.002 868.577 580.031 869.218 580.031C876.096 580.031 882.419 575.98 885.217 569.569C888.277 562.575 886.47 554.416 880.729 549.403C877.378 546.46 873.998 543.458 870.646 540.428C871.083 540.165 871.521 539.903 871.958 539.612L873.123 538.854C875.542 537.31 877.873 535.736 880.088 534.162C880.147 534.133 880.205 534.075 880.234 534.046C916.165 508.285 939.945 468.914 951.747 445.689C970.456 456.762 983.978 462.358 992.05 462.358C997.733 462.358 1001.75 460.318 1004.14 458.628C1009.16 455.043 1012.13 449.215 1012.1 443.037C1012.1 439.248 1012.04 434.323 1003.07 424.678C1021.02 422.375 1030.34 418.5 1034.25 408.766C1036.52 403.113 1035.88 396.702 1032.53 391.602L1032.76 391.544ZM397.009 862.412C395.523 862.412 394.008 862.354 392.638 862.208C392.551 862.208 392.463 862.208 392.405 862.208C391.501 862.121 390.627 862.004 389.782 861.888C380.894 860.169 372.472 857.487 364.662 853.932C353.88 849.007 343.972 842.188 335.2 833.679C334.267 832.775 333.364 831.872 332.461 830.94C330.683 829.104 328.935 827.18 327.274 825.199C325.642 823.246 324.01 821.206 322.465 819.137C320.95 817.097 319.434 814.97 318.007 812.814C316.608 810.686 315.209 808.501 313.898 806.257C309.555 798.942 305.621 790.87 302.154 782.273C300.376 777.844 298.686 773.21 297.141 768.431C296.413 766.158 295.713 763.885 295.043 761.641C294.402 759.397 293.79 757.182 293.207 754.997C292.158 750.975 291.196 746.837 290.322 742.67C293.236 743.165 295.917 743.398 298.423 743.398H299.647C303.086 743.398 309.963 743.69 317.045 744.069C337.123 770.209 357.814 795.154 378.65 818.321C382.03 822.081 386.781 824.12 391.647 824.12C393.367 824.12 395.115 823.858 396.834 823.334C399.311 822.576 401.526 821.265 403.391 819.604C407.471 816.835 410.269 812.435 410.91 807.393L413.416 788.131C415.776 770.209 430.289 754.239 445.996 751.733C447.89 763.477 453.515 773.327 462.286 780.466L455.788 837.059C455.351 837.38 454.039 838.312 454.039 838.312C452.932 839.099 451.854 839.857 450.775 840.585L450.426 840.819C449.289 841.605 448.182 842.363 447.162 843.004C447.162 843.004 446.929 843.179 446.9 843.179C445.763 843.937 444.626 844.665 443.461 845.394C442.324 846.122 441.188 846.822 440.08 847.492C425.51 856.264 413.037 861.072 401.934 862.179C400.244 862.354 398.583 862.442 396.922 862.442L397.009 862.412Z" fill="white"/>
<path opacity="0.15" d="M761.919 1070.89C828.357 1070.89 882.215 1062.97 882.215 1053.2C882.215 1043.43 828.357 1035.51 761.919 1035.51C695.481 1035.51 641.623 1043.43 641.623 1053.2C641.623 1062.97 695.481 1070.89 761.919 1070.89Z" fill="#262830"/>
<path d="M78.4347 315.809C92.6266 312.662 118.184 322.657 206.191 391.315C294.199 460.001 460.509 548.621 597.329 548.359C734.148 548.067 644.917 717.525 598.757 730.989C552.596 744.423 324.302 725.539 298.832 725.947C273.362 726.355 202.927 681.827 171.28 666.761C139.632 651.694 79.0758 627.245 83.1848 702.255C83.1848 702.255 -18.3152 684.45 31.3711 614.335C81.0574 544.25 63.3102 541.539 49.468 514.846C35.6258 488.152 49.1475 475.068 80.3289 478.973C111.51 482.878 164.373 496.108 118.65 438C72.9269 379.891 24.2314 327.816 78.493 315.809H78.4347Z" fill="#FF532D"/>
<path opacity="0.15" d="M448.211 699.252C354.958 706.945 295.713 676.201 205.753 638.9C115.794 601.599 96.0356 656.443 96.0356 656.443C96.0356 656.443 96.2105 656.618 96.4436 656.851C115.386 642.135 149.831 656.531 171.221 666.701C202.898 681.796 273.304 726.295 298.773 725.887C324.243 725.479 552.538 744.363 598.698 730.929C613.356 726.645 632.356 706.654 647.073 681.359C590.451 672.325 512.759 693.919 448.182 699.223L448.211 699.252Z" fill="black"/>
<path opacity="0.15" d="M657.681 569.397C646.607 556.458 627.432 548.299 597.3 548.357C460.48 548.648 294.17 460 206.162 391.313C195.001 382.6 184.86 374.848 175.622 367.942C173.611 366.426 171.659 364.969 169.736 363.571C168.686 362.813 167.696 362.084 166.705 361.327C165.714 360.598 164.694 359.84 163.732 359.141C162.742 358.412 161.751 357.713 160.789 357.014C159.857 356.343 158.924 355.673 158.021 355.032C157.059 354.333 156.097 353.662 155.165 352.992C154.291 352.351 153.387 351.739 152.542 351.127C151.639 350.486 150.706 349.845 149.832 349.204C148.987 348.621 148.171 348.038 147.355 347.484C146.481 346.872 145.577 346.26 144.732 345.648C143.945 345.095 143.158 344.57 142.401 344.046C141.556 343.492 140.74 342.909 139.924 342.355C139.108 341.802 138.35 341.306 137.563 340.782C136.368 339.995 135.203 339.208 134.066 338.48C133.105 337.839 132.143 337.197 131.181 336.615C130.482 336.148 129.782 335.74 129.112 335.303C128.413 334.866 127.713 334.429 127.043 333.992C126.344 333.555 125.674 333.147 125.003 332.739C124.362 332.331 123.721 331.952 123.08 331.573C122.439 331.165 121.798 330.786 121.157 330.407C120.545 330.029 119.933 329.679 119.321 329.329C118.709 328.98 118.126 328.63 117.514 328.28C116.931 327.93 116.348 327.61 115.765 327.289C115.212 326.969 114.629 326.648 114.075 326.357C113.492 326.036 112.939 325.745 112.385 325.424C111.86 325.133 111.336 324.841 110.84 324.579C110.229 324.259 109.617 323.938 109.034 323.647C108.451 323.355 107.839 323.035 107.285 322.743C106.528 322.364 105.77 321.986 105.012 321.636C104.604 321.432 104.196 321.257 103.788 321.082C103.293 320.849 102.768 320.616 102.302 320.412C101.894 320.237 101.486 320.062 101.078 319.887C100.612 319.683 100.175 319.509 99.7376 319.305C99.3296 319.13 98.9507 318.984 98.5719 318.838C98.1348 318.663 97.6977 318.518 97.2897 318.343C96.9108 318.197 96.5611 318.081 96.2115 317.964C95.8035 317.818 95.3955 317.673 94.9875 317.556C94.6669 317.439 94.3172 317.323 93.9967 317.235C93.5596 317.09 93.1516 316.973 92.7436 316.857C92.4522 316.769 92.1608 316.682 91.8985 316.624C91.374 316.478 90.8785 316.361 90.3831 316.245C90.2083 316.216 90.0334 316.157 89.8586 316.128C89.2758 316.012 88.6929 315.895 88.1392 315.808C87.9061 315.778 87.7021 315.749 87.469 315.72C87.0901 315.662 86.7405 315.604 86.3908 315.574C86.1576 315.574 85.9245 315.516 85.6914 315.516C85.3708 315.487 85.0502 315.458 84.7297 315.429C84.4966 315.429 84.2926 315.429 84.0594 315.429C83.7389 315.429 83.4475 315.429 83.156 315.429C82.9521 315.429 82.7481 315.429 82.5441 315.429C82.2527 315.429 81.9612 315.429 81.6698 315.487C81.495 315.487 81.291 315.487 81.1161 315.516C80.7956 315.516 80.5042 315.574 80.2127 315.633C80.067 315.633 79.9213 315.662 79.7756 315.691C79.3385 315.749 78.9014 315.837 78.4934 315.924C77.2403 316.245 76.0455 316.594 74.8799 316.944C74.4427 317.09 74.0639 317.236 73.6268 317.381C72.9274 317.614 72.228 317.847 71.5869 318.081C71.0623 318.285 70.5669 318.518 70.0715 318.722C69.5761 318.926 69.0807 319.13 68.6144 319.334C68.0607 319.596 67.5362 319.887 67.0116 320.15C66.6619 320.324 66.2831 320.499 65.9625 320.703C65.9625 320.703 65.9625 320.703 65.9334 320.703C55.967 326.386 53.2277 334.75 55.4133 345.095C56.4624 349.612 58.3857 354.507 61.0668 359.753C61.8244 351.768 68.323 316.42 123.08 357.597C124.654 358.762 126.169 359.87 127.684 360.889C210.854 428.877 312.034 538.274 496.529 556.721C559.824 563.044 613.269 566.104 657.71 569.485L657.681 569.397Z" fill="white"/>
<path d="M78.4342 315.806C95.5111 311.435 118.183 322.655 206.191 391.312C294.198 459.999 460.509 548.618 597.328 548.356C734.148 548.064 644.916 717.522 598.756 730.986C552.596 744.42 324.301 725.536 298.832 725.944C273.362 726.352 202.927 681.824 171.279 666.758C139.631 651.692 79.0753 627.242 83.1843 702.252C83.1843 702.252 -18.3157 684.447 31.3706 614.332C81.0569 544.247 63.3098 541.537 49.4675 514.843C35.6253 488.149 49.147 475.065 80.3284 478.97C111.51 482.875 164.373 496.105 118.65 437.997C72.9265 379.889 24.6681 329.59 78.4925 315.806H78.4342Z" stroke="#262830" stroke-width="5.39118" stroke-linecap="round" stroke-linejoin="round"/>
<path d="M301.863 678.036C271.963 667.312 241.248 653.644 205.754 638.928C115.794 601.627 89.7415 663.815 89.7415 663.815" stroke="#262830" stroke-width="5.39118" stroke-linecap="round" stroke-linejoin="round"/>
<path d="M326.429 685C326.429 685 340.154 691.032 353.851 693.218" stroke="#262830" stroke-width="5.39118" stroke-linecap="round" stroke-linejoin="round"/>
<path d="M59.2881 567.733C59.2881 567.733 69.575 550.86 91.7809 550.452" stroke="#262830" stroke-width="5.39118" stroke-linecap="round" stroke-linejoin="round"/>
<path d="M115.648 483.135C115.648 483.135 139.515 484.243 165.83 473.548" stroke="#262830" stroke-width="5.39118" stroke-linecap="round" stroke-linejoin="round"/>
<path opacity="0.1" d="M85.224 394.955L85.7485 396.529C95.8023 409.642 107.284 423.63 118.591 437.997C138.961 463.904 139.719 475.619 131.588 480.311C150.705 480.369 160.497 474.774 160.497 474.774C147.325 446.39 85.1948 394.955 85.1948 394.955H85.224Z" fill="black"/>
<path d="M114.424 551.708C114.424 551.708 164.606 552.262 199.168 572.544" stroke="#262830" stroke-width="5.39118" stroke-linecap="round" stroke-linejoin="round"/>
<path d="M481.839 839.101C435.999 876.373 408.432 882.463 386.779 879.141C272.137 857.256 268.086 707.381 268.086 707.381C199.516 697.735 100.114 736.173 100.114 736.173C112.82 805.005 168.597 764.469 210.561 742.73C212.601 741.681 214.553 740.748 216.447 739.845C219.099 777.292 233.204 864.862 306.145 903.096C400.243 952.403 496.789 867.252 496.789 867.252L481.81 839.101H481.839Z" fill="#F5F0E3"/>
<path opacity="0.15" d="M268.086 707.351C262.695 706.593 257.071 706.156 251.359 705.952C252.204 736.959 259.548 829.687 315.47 864.628C350.848 886.746 381.767 885.872 403.74 879.548C397.62 880.16 392.054 879.898 386.809 879.082C272.166 857.197 268.115 707.322 268.115 707.322L268.086 707.351Z" fill="black"/>
<path d="M739.509 534.454C739.509 534.454 797.734 560.274 856.075 528.713C914.416 497.153 944.432 420.249 944.432 420.249C944.432 420.249 987.97 448.778 994.206 444.32C1000.44 439.861 957.808 410.166 957.808 410.166C957.808 410.166 1015.6 408.767 1018.28 402.152C1020.96 395.537 956.147 394.138 956.147 394.138C956.147 394.138 1008.81 361.645 1005.92 355.059C1002.07 346.258 937.613 386.532 937.613 386.532C937.613 386.532 963.928 339.089 953.67 332.27C943.412 325.451 916.223 396.411 916.223 396.411C916.223 396.411 903.226 368.289 896.29 369.892C889.355 371.495 903.547 415.936 903.547 415.936C903.547 415.936 856.483 533.143 747.523 500.417L739.48 534.454H739.509Z" fill="#F5F0E3"/>
<path d="M739.509 534.454C739.509 534.454 797.734 560.274 856.075 528.713C914.416 497.153 944.432 420.249 944.432 420.249C944.432 420.249 987.97 448.778 994.206 444.32C1000.44 439.861 957.808 410.166 957.808 410.166C957.808 410.166 1015.6 408.767 1018.28 402.152C1020.96 395.537 956.147 394.138 956.147 394.138C956.147 394.138 1008.81 361.645 1005.92 355.059C1002.07 346.258 937.613 386.532 937.613 386.532C937.613 386.532 963.928 339.089 953.67 332.27C943.412 325.451 916.223 396.411 916.223 396.411C916.223 396.411 903.226 368.289 896.29 369.892C889.355 371.495 903.547 415.936 903.547 415.936C903.547 415.936 856.483 533.143 747.523 500.417L739.48 534.454H739.509Z" stroke="#262830" stroke-width="5.8283" stroke-linecap="round" stroke-linejoin="round"/>
<path opacity="0.15" d="M856.075 528.716C861.029 526.035 865.75 523.004 870.296 519.769C862.166 510.59 851.325 498.379 843.136 489.112C827.662 498.846 809.07 505.694 787.126 506.131C781.356 517.205 776.402 527.171 776.519 528.657C776.665 530.668 789.137 537.983 800.269 544.19C817.463 543.316 836.784 539.177 856.104 528.716H856.075Z" fill="black"/>
<path d="M823.116 1011.27C805.252 960.331 747.698 822.346 627.605 747.277L607.847 761.528C607.847 761.528 676.971 820.772 713.165 900.853C735.167 949.52 769.117 1048.95 769.117 1048.95C769.117 1048.95 775.265 1051.46 784.707 1051.51C867.294 1058.74 931.493 963.945 931.493 963.945C863.914 938.213 844.564 986.646 823.116 1011.27Z" fill="#F5F0E3"/>
<path d="M823.116 1011.27C805.252 960.331 747.698 822.346 627.605 747.277L607.847 761.528C607.847 761.528 676.971 820.772 713.165 900.853C735.167 949.52 769.117 1048.95 769.117 1048.95C769.117 1048.95 775.265 1051.46 784.707 1051.51C867.294 1058.74 931.493 963.945 931.493 963.945C863.914 938.213 844.564 986.646 823.116 1011.27Z" stroke="#262830" stroke-width="5.8283" stroke-linecap="round" stroke-linejoin="round"/>
<path opacity="0.15" d="M677.583 839.831L689.764 796.497C669.307 775.749 653.716 763.597 627.576 747.277L607.818 761.528C607.818 761.528 643.896 792.476 677.583 839.831Z" fill="black"/>
<path opacity="0.15" d="M496.819 867.254L481.84 839.104C469.746 848.953 458.935 856.588 449.143 862.475L439.177 902.632C473.739 887.595 496.819 867.254 496.819 867.254Z" fill="black"/>
<path d="M481.839 839.101C435.999 876.373 408.432 882.463 386.779 879.141C272.137 857.256 268.086 707.381 268.086 707.381C199.516 697.735 100.114 736.173 100.114 736.173C112.82 805.005 168.597 764.469 210.561 742.73C212.601 741.681 214.553 740.748 216.447 739.845C219.099 777.292 233.204 864.862 306.145 903.096C400.243 952.403 496.789 867.252 496.789 867.252L481.81 839.101H481.839Z" stroke="#262830" stroke-width="5.8283" stroke-linecap="round" stroke-linejoin="round"/>
<path d="M621.048 226.691C616.968 229.285 612.859 231.937 608.75 234.618C604.612 237.299 600.474 240.009 596.336 242.778C588.031 248.314 579.638 254.055 571.187 259.971C569.235 261.312 567.311 262.681 565.359 264.051C556.675 270.171 547.932 276.494 539.102 282.993C539.102 282.993 539.161 282.993 539.19 282.993C551.721 287.189 560.638 302.197 559.122 316.476C549.855 402.619 540.588 488.732 531.351 574.816C568.535 577.293 605.72 579.741 642.904 582.218C649.49 504.148 656.047 426.078 662.633 348.037C663.741 334.952 674.814 327.783 687.374 331.98C671.609 309.016 656.164 285.12 641.039 260.321C637.688 254.813 634.337 249.276 631.015 243.681C627.692 238.086 624.37 232.432 621.077 226.721L621.048 226.691ZM525.843 317.234C523.949 318.691 522.025 320.148 520.131 321.634C509.64 329.707 499.062 338.041 488.396 346.638C441.857 384.114 393.511 426.457 343.388 473.724C333.509 483.049 323.542 492.55 313.547 502.254C330.595 504.09 347.672 505.955 364.719 507.791C378.27 509.306 387.45 523.585 385.264 539.701C384.098 548.093 382.962 556.486 381.796 564.908C419.884 567.443 458.001 569.949 496.089 572.485C506.027 487.421 515.964 402.357 525.872 317.292L525.843 317.234ZM694.077 366.891C688.686 439.483 683.324 512.074 677.932 584.666C716.02 587.172 754.138 589.707 792.225 592.214C792.459 586.356 792.692 580.499 792.896 574.641C793.362 563.334 804.698 555.379 818.249 556.923C835.297 558.759 852.374 560.595 869.421 562.431C861.058 555.087 852.752 547.569 844.535 539.846C802.804 500.709 762.851 456.647 724.675 407.719C715.933 396.499 707.278 385.017 698.71 373.302C697.137 371.175 695.592 369.019 694.048 366.862L694.077 366.891Z" fill="url(#paint1_linear_2059_2893)"/>
<path d="M621.048 226.691C616.968 229.285 612.859 231.937 608.75 234.618C604.612 237.299 600.474 240.009 596.336 242.778C588.031 248.314 579.638 254.055 571.187 259.971C569.235 261.312 567.311 262.681 565.359 264.051C556.675 270.171 547.932 276.494 539.102 282.993C539.102 282.993 539.161 282.993 539.19 282.993C551.721 287.189 560.638 302.197 559.122 316.476C549.855 402.619 540.588 488.732 531.351 574.816C568.535 577.293 605.72 579.741 642.904 582.218C649.49 504.148 656.047 426.078 662.633 348.037C663.741 334.952 674.814 327.783 687.374 331.98C671.609 309.016 656.164 285.12 641.039 260.321C637.688 254.813 634.337 249.276 631.015 243.681C627.692 238.086 624.37 232.432 621.077 226.721L621.048 226.691ZM525.843 317.234C523.949 318.691 522.025 320.148 520.131 321.634C509.64 329.707 499.062 338.041 488.396 346.638C441.857 384.114 393.511 426.457 343.388 473.724C333.509 483.049 323.542 492.55 313.547 502.254C330.595 504.09 347.672 505.955 364.719 507.791C378.27 509.306 387.45 523.585 385.264 539.701C384.098 548.093 382.962 556.486 381.796 564.908C419.884 567.443 458.001 569.949 496.089 572.485C506.027 487.421 515.964 402.357 525.872 317.292L525.843 317.234ZM694.077 366.891C688.686 439.483 683.324 512.074 677.932 584.666C716.02 587.172 754.138 589.707 792.225 592.214C792.459 586.356 792.692 580.499 792.896 574.641C793.362 563.334 804.698 555.379 818.249 556.923C835.297 558.759 852.374 560.595 869.421 562.431C861.058 555.087 852.752 547.569 844.535 539.846C802.804 500.709 762.851 456.647 724.675 407.719C715.933 396.499 707.278 385.017 698.71 373.302C697.137 371.175 695.592 369.019 694.048 366.862L694.077 366.891Z" fill="url(#paint2_linear_2059_2893)"/>
<g opacity="0.3">
<path d="M350.79 484.419C400.913 437.152 449.259 394.809 495.798 357.333C505.182 349.786 514.507 342.442 523.745 335.302C524.444 329.299 525.143 323.267 525.843 317.264C523.949 318.721 522.025 320.178 520.131 321.664C509.64 329.736 499.062 338.071 488.396 346.667C441.857 384.143 393.511 426.486 343.388 473.754C333.509 483.079 323.542 492.579 313.547 502.283L330.216 504.09C337.122 497.475 344 490.918 350.819 484.478L350.79 484.419Z" fill="white"/>
<path d="M550.526 290.688C557.986 285.239 565.388 279.876 572.761 274.689C574.713 273.32 576.665 271.979 578.589 270.609C587.04 264.694 595.433 258.982 603.738 253.416C607.905 250.648 612.043 247.937 616.152 245.256C619.999 242.75 623.816 240.302 627.634 237.884C625.448 234.153 623.234 230.423 621.048 226.664C616.968 229.258 612.859 231.91 608.75 234.591C604.612 237.272 600.474 239.982 596.336 242.75C588.031 248.287 579.638 254.028 571.187 259.944C569.234 261.284 567.311 262.654 565.359 264.023C556.674 270.143 547.932 276.467 539.102 282.965H539.189C543.502 284.452 547.378 287.191 550.555 290.717L550.526 290.688Z" fill="white"/>
<path d="M701.479 377.588C703.024 379.744 704.598 381.9 706.142 384.028C714.71 395.772 723.365 407.224 732.107 418.444C770.283 467.373 810.206 511.405 851.966 550.572C856.046 554.389 860.126 558.178 864.235 561.908L869.451 562.461C861.088 555.118 852.782 547.599 844.564 539.877C802.834 500.74 762.881 456.678 724.705 407.749C715.963 396.529 707.308 385.048 698.74 373.333C697.167 371.206 695.622 369.049 694.077 366.893C688.686 439.484 683.324 512.076 677.933 584.667C680.643 584.842 683.383 585.017 686.093 585.221C691.222 516.01 696.351 446.799 701.479 377.588Z" fill="white"/>
<path d="M381.767 564.852C384.71 565.056 387.625 565.231 390.568 565.435C391.267 560.394 391.967 555.381 392.637 550.34C394.152 539.354 390.335 529.241 383.457 523.413C385.322 528.251 386.022 533.817 385.235 539.645C384.069 548.038 382.933 556.43 381.767 564.852Z" fill="white"/>
<path d="M566.495 327.145C567.573 316.974 563.377 306.454 556.325 299.723C558.598 304.91 559.676 310.738 559.093 316.45C549.826 402.592 540.559 488.705 531.321 574.79C534.148 574.964 536.975 575.168 539.831 575.343C548.719 492.64 557.607 409.907 566.524 327.145H566.495Z" fill="white"/>
</g>
<path d="M923.509 625.611C915.641 630.886 907.685 636.306 899.671 641.901C880.7 655.131 861.408 669.265 841.767 684.331C808.837 709.568 774.975 737.369 740.209 767.705C740.471 762.926 740.704 758.147 740.966 753.367C741.986 733.114 722.578 717.756 697.604 719.068C684.461 719.855 671.289 720.641 658.146 721.428C653.629 780.265 649.112 839.131 644.624 897.968C644.45 898.143 644.275 898.317 644.1 898.521C635.474 892.722 626.936 886.748 618.426 880.599C618.426 880.599 618.397 880.599 618.368 880.57C618.397 880.541 618.455 880.512 618.485 880.483C599.339 866.611 580.513 851.807 562.037 836.071C562.037 836.071 562.008 836.042 561.979 836.013C561.95 836.042 561.921 836.1 561.892 836.129C540.094 857.432 518.005 879.638 495.566 902.718C495.245 903.038 494.924 903.388 494.604 903.708C494.604 903.708 494.633 903.708 494.662 903.708C494.662 903.738 494.604 903.767 494.604 903.796C484.521 914.2 474.351 924.778 464.151 935.531C464.064 935.473 464.005 935.385 463.918 935.327C471.728 867.427 479.509 799.498 487.319 731.599C474.176 732.386 461.004 733.172 447.861 733.959C422.887 735.271 399.748 758.525 396.135 785.831C395.29 792.271 394.445 798.682 393.629 805.123C364.924 773.184 337.152 738.709 310.284 701.67C294.198 679.494 278.432 656.384 263.016 632.401C256.518 622.26 250.048 611.973 243.666 601.54C470.271 609.554 696.904 617.568 923.509 625.582V625.611Z" fill="url(#paint3_linear_2059_2893)"/>
<g opacity="0.2">
<path d="M299.967 603.55C303.785 614.361 307.34 621.239 307.34 621.239C307.34 621.239 284.522 634.469 271.292 645.135C273.303 648.194 275.314 651.254 277.353 654.314C289.418 648.428 304.018 637.849 304.018 637.849C304.018 637.849 298.044 665.126 297.345 683.543C300.259 687.71 303.231 691.819 306.174 695.928C313.576 683.193 319.871 644.843 319.871 644.843C319.871 644.843 335.986 705.749 343.913 706.244C351.839 706.74 337.968 639.481 337.968 639.481C337.968 639.481 385.09 684.417 393.016 682.407C400.943 680.425 350.499 632.283 350.499 632.283C350.499 632.283 386.838 621.53 387.334 614.594C387.829 607.659 337.939 618.412 337.939 618.412C337.939 618.412 337.822 613.108 338.638 604.89C325.758 604.424 312.848 603.987 299.967 603.521V603.55Z" fill="black"/>
<path d="M313.518 502.223L364.69 507.76C373.025 508.693 379.698 514.492 383.108 522.535C390.481 518.484 396.367 515.104 406.304 513.734C417.99 512.161 430.638 471.508 430.638 471.508C430.638 471.508 393.22 446.825 337.56 479.202C329.575 486.749 321.59 494.413 313.518 502.223Z" fill="black"/>
</g>
<g opacity="0.3">
<path d="M496.935 739.062C492.826 739.295 488.746 739.557 484.637 739.79C477.089 805.475 469.542 871.16 461.994 936.845C462.081 936.903 462.14 936.991 462.227 937.049C466.773 932.27 471.29 927.52 475.836 922.828C482.859 861.573 489.911 800.317 496.935 739.062Z" fill="white"/>
<path d="M324.708 709.949C309.059 688.384 293.731 665.916 278.723 642.574C272.399 632.724 266.105 622.699 259.897 612.529C476.331 620.193 692.736 627.857 909.171 635.492C913.309 632.636 917.447 629.839 921.585 627.099C694.98 619.085 468.347 611.072 241.742 603.058C248.124 613.519 254.594 623.806 261.092 633.948C276.508 657.96 292.274 681.04 308.36 703.217C335.199 740.227 363 774.73 391.704 806.669C392.171 803.172 392.608 799.675 393.074 796.178C369.644 769.223 346.856 740.489 324.737 709.978L324.708 709.949Z" fill="white"/>
<path d="M624.458 883.95C624.458 883.95 624.429 883.95 624.4 883.921C624.429 883.891 624.487 883.862 624.517 883.833C605.895 870.311 587.594 855.916 569.614 840.645C569.614 840.645 569.585 840.645 569.556 840.616C569.527 840.645 569.497 840.704 569.468 840.733C568.623 841.549 567.778 842.423 566.904 843.239C583.194 856.848 599.717 869.758 616.532 881.968C616.503 881.997 616.444 882.026 616.415 882.055C616.415 882.055 616.444 882.055 616.474 882.085C624.954 888.233 633.521 894.207 642.147 900.007C642.322 899.832 642.497 899.657 642.672 899.453C642.73 898.608 642.788 897.763 642.876 896.918C636.698 892.692 630.549 888.379 624.458 883.95Z" fill="white"/>
<path d="M747.027 762.985C747.027 760.974 747.027 758.993 747.027 756.982C747.027 745.442 741.927 735.417 733.535 728.103C737.993 734.455 740.558 741.974 740.558 750.221C740.558 756.545 740.558 762.868 740.529 769.192C742.714 767.094 744.871 765.054 747.027 762.956V762.985Z" fill="white"/>
</g>
<path d="M621.049 226.691C616.969 229.285 612.86 231.937 608.751 234.618C604.613 237.299 600.475 240.009 596.337 242.778C588.032 248.314 579.639 254.055 571.188 259.971C569.235 261.312 567.312 262.681 565.36 264.051C556.675 270.171 547.933 276.494 539.103 282.993C539.103 282.993 539.161 282.993 539.19 282.993C551.721 287.189 560.639 302.197 559.123 316.476C549.856 402.619 540.589 488.732 531.351 574.816C568.536 577.293 605.721 579.741 642.905 582.218C649.491 504.148 656.048 426.078 662.634 348.037C663.741 334.952 674.815 327.783 687.375 331.98C671.61 309.016 656.165 285.12 641.04 260.321C637.689 254.813 634.338 249.276 631.015 243.681C627.693 238.086 624.371 232.432 621.078 226.721L621.049 226.691ZM525.844 317.234C523.949 318.691 522.026 320.148 520.132 321.634C509.641 329.707 499.063 338.041 488.397 346.638C441.858 384.114 393.512 426.457 343.389 473.724C333.51 483.049 323.543 492.55 313.548 502.254C330.595 504.09 347.672 505.955 364.72 507.791C378.271 509.306 387.451 523.585 385.265 539.701C384.099 548.093 382.963 556.486 381.797 564.908C419.885 567.443 458.002 569.949 496.09 572.485C506.027 487.421 515.965 402.357 525.873 317.292L525.844 317.234ZM694.078 366.891C688.686 439.483 683.324 512.074 677.933 584.666C716.021 587.172 754.138 589.707 792.226 592.214C792.459 586.356 792.693 580.499 792.897 574.641C793.363 563.334 804.699 555.379 818.25 556.923C835.298 558.759 852.374 560.595 869.422 562.431C861.059 555.087 852.753 547.569 844.535 539.846C802.805 500.709 762.852 456.647 724.676 407.719C715.934 396.499 707.279 385.017 698.711 373.302C697.138 371.175 695.593 369.019 694.049 366.862L694.078 366.891ZM923.509 625.61C915.641 630.884 907.685 636.305 899.671 641.9C880.7 655.13 861.408 669.264 841.767 684.33C808.837 709.566 774.975 737.367 740.209 767.704C740.471 762.925 740.704 758.145 740.966 753.366C741.986 733.113 722.578 717.755 697.604 719.067C684.461 719.853 671.289 720.64 658.146 721.427C653.629 780.264 649.112 839.13 644.624 897.966C644.45 898.141 644.275 898.316 644.1 898.52C635.474 892.721 626.936 886.747 618.426 880.598C618.426 880.598 618.397 880.598 618.368 880.569C618.397 880.54 618.455 880.511 618.485 880.482C599.339 866.61 580.513 851.806 562.037 836.07C562.037 836.07 562.008 836.041 561.979 836.012C561.95 836.041 561.921 836.099 561.892 836.128C540.094 857.431 518.005 879.636 495.566 902.716C495.245 903.037 494.924 903.387 494.604 903.707C494.604 903.707 494.633 903.707 494.662 903.707C494.662 903.736 494.604 903.766 494.604 903.795C484.521 914.198 474.351 924.777 464.151 935.53C464.064 935.472 464.005 935.384 463.918 935.326C471.728 867.426 479.509 799.497 487.319 731.597C474.176 732.384 461.004 733.171 447.861 733.958C422.887 735.269 399.748 758.524 396.135 785.83C395.29 792.27 394.445 798.681 393.629 805.121C364.924 773.182 337.152 738.708 310.284 701.669C294.198 679.492 278.432 656.383 263.016 632.4C256.518 622.258 250.048 611.972 243.666 601.539C470.271 609.553 696.904 617.567 923.509 625.581V625.61Z" stroke="#262830" stroke-width="5.8283" stroke-linecap="round" stroke-linejoin="round"/>
<path d="M420.904 455.103C420.904 455.103 350.032 419.171 287.29 477.6C239.323 522.245 280.675 601.947 280.675 601.947C280.675 601.947 229.911 631.38 235.855 637.82C241.8 644.26 277.324 618.528 277.324 618.528C277.324 618.528 264.618 676.52 274.06 680.483C283.473 684.446 293.177 625.522 293.177 625.522C293.177 625.522 309.292 686.428 317.219 686.924C325.145 687.419 311.274 620.16 311.274 620.16C311.274 620.16 358.396 665.097 366.322 663.086C374.249 661.075 323.805 612.962 323.805 612.962C323.805 612.962 360.144 602.209 360.64 595.273C361.135 588.338 311.274 599.091 311.274 599.091C311.274 599.091 308.797 472.092 423.381 497.387C423.381 497.387 431.832 479.582 431.191 473.287C430.667 468.071 420.904 455.074 420.904 455.074V455.103Z" fill="#F5F0E3"/>
<path opacity="0.15" d="M430.113 480.195C326.078 458.398 316.957 530.843 317.102 558.149C326.923 523.558 353.209 481.944 423.381 497.447C423.381 497.447 427.957 487.801 430.113 480.195Z" fill="black"/>
<path d="M420.904 455.103C420.904 455.103 350.032 419.171 287.29 477.6C239.323 522.245 280.675 601.947 280.675 601.947C280.675 601.947 229.911 631.38 235.855 637.82C241.8 644.26 277.324 618.528 277.324 618.528C277.324 618.528 264.618 676.52 274.06 680.483C283.473 684.446 293.177 625.522 293.177 625.522C293.177 625.522 309.292 686.428 317.219 686.924C325.145 687.419 311.274 620.16 311.274 620.16C311.274 620.16 358.396 665.097 366.322 663.086C374.249 661.075 323.805 612.962 323.805 612.962C323.805 612.962 360.144 602.209 360.64 595.273C361.135 588.338 311.274 599.091 311.274 599.091C311.274 599.091 308.797 472.092 423.381 497.387C423.381 497.387 430.171 486.226 430.783 475.327C431.599 460.931 420.904 455.044 420.904 455.044V455.103Z" stroke="#262830" stroke-width="5.8283" stroke-linecap="round" stroke-linejoin="round"/>
<path d="M682.158 933.492H590.829" stroke="#262830" stroke-width="5.8283" stroke-linecap="round" stroke-linejoin="round"/>
<path d="M655.844 957.62H564.514" stroke="#262830" stroke-width="5.8283" stroke-linecap="round" stroke-linejoin="round"/>
<path d="M344.262 401.396H252.932" stroke="#262830" stroke-width="5.8283" stroke-linecap="round" stroke-linejoin="round"/>
<path d="M317.918 425.526H226.588" stroke="#262830" stroke-width="5.8283" stroke-linecap="round" stroke-linejoin="round"/>
<path d="M1004.17 557.448H912.813" stroke="#262830" stroke-width="5.8283" stroke-linecap="round" stroke-linejoin="round"/>
<path d="M977.829 581.605H886.499" stroke="#262830" stroke-width="5.8283" stroke-linecap="round" stroke-linejoin="round"/>
<path d="M405.693 512.484C405.693 512.484 416.126 507.909 423.382 497.447" stroke="#262830" stroke-width="5.8283" stroke-linecap="round" stroke-linejoin="round"/>
<path d="M404.585 527.841C404.585 527.841 419.127 525.656 431.745 512.746" stroke="#262830" stroke-width="5.8283" stroke-linecap="round" stroke-linejoin="round"/>
<path d="M432.036 891.528C432.036 891.528 462.897 882.465 470.299 873.839" stroke="#262830" stroke-width="5.8283" stroke-linecap="round" stroke-linejoin="round"/>
<path opacity="0.2" d="M611.956 410.225L682.187 444.728L693.669 421.736L621.019 386.62L611.956 410.225Z" fill="black"/>
<path opacity="0.2" d="M488.688 474.89L555.888 446.418L544.406 423.426L479.625 451.868L488.688 474.89Z" fill="black"/>
<g opacity="0.2">
<path d="M522.609 517.961C558.307 516.592 561.075 465.069 561.075 465.069L469.046 486.372C469.046 486.372 486.91 519.331 522.609 517.961Z" fill="black"/>
<path d="M624.371 462.682C621.864 462.769 619.475 463.264 617.347 464.08L595.229 468.481C601.407 487.015 617.202 507.618 648.121 500.77C677.029 494.358 681.779 451.316 681.779 451.316L624.4 462.711L624.371 462.682Z" fill="black"/>
<path d="M508.067 690.044C536.742 700.039 576.754 602.706 576.754 602.706L537.412 544.715C537.412 544.715 479.421 680.048 508.067 690.073V690.044Z" fill="black"/>
</g>
<path d="M556.063 533.875L595.404 591.866C595.404 591.866 555.392 689.199 526.717 679.204C498.042 669.208 556.063 533.846 556.063 533.846V533.875Z" fill="#FFFBFC"/>
<path d="M487.697 475.536L579.726 454.233C579.726 454.233 576.987 505.726 541.259 507.125C505.561 508.495 487.697 475.536 487.697 475.536Z" fill="#FFFBFC"/>
<path d="M613.88 457.612L700.401 440.447C700.401 440.447 695.651 483.46 666.742 489.9C635.852 496.778 620.058 476.175 613.851 457.612H613.88Z" fill="#FFFBFC"/>
<path d="M487.697 475.536L579.726 454.233C579.726 454.233 576.987 505.726 541.259 507.125C505.561 508.495 487.697 475.536 487.697 475.536Z" stroke="#262830" stroke-width="6.35285" stroke-linecap="round" stroke-linejoin="round"/>
<path d="M613.88 457.612L700.401 440.447C700.401 440.447 695.651 483.46 666.742 489.9C635.852 496.778 620.058 476.175 613.851 457.612H613.88Z" stroke="#262830" stroke-width="6.35285" stroke-linecap="round" stroke-linejoin="round"/>
<path d="M556.063 533.875L595.404 591.866C595.404 591.866 555.392 689.199 526.717 679.204C498.042 669.208 556.063 533.846 556.063 533.846V533.875Z" stroke="#262830" stroke-width="6.14886" stroke-linecap="round" stroke-linejoin="round"/>
<path d="M524.531 495.612C534.204 495.612 542.045 489.61 542.045 482.207C542.045 474.803 534.204 468.802 524.531 468.802C514.858 468.802 507.017 474.803 507.017 482.207C507.017 489.61 514.858 495.612 524.531 495.612Z" fill="#262830"/>
<path d="M643.838 478.592C653.51 478.592 661.352 472.591 661.352 465.187C661.352 457.784 653.51 451.782 643.838 451.782C634.165 451.782 626.323 457.784 626.323 465.187C626.323 472.591 634.165 478.592 643.838 478.592Z" fill="#262830"/>
<path d="M533.158 594.782L575.18 632.113" stroke="#262830" stroke-width="6.14886" stroke-linecap="round" stroke-linejoin="round"/>
<path d="M566.059 549L522.726 672.764" stroke="#262830" stroke-width="6.14886" stroke-linecap="round" stroke-linejoin="round"/>
<path d="M578.269 568.992L536.713 678.768" stroke="#262830" stroke-width="6.14886" stroke-linecap="round" stroke-linejoin="round"/>
<path opacity="0.2" d="M638.913 767.967C644.625 767.559 650.016 766.219 654.853 764.354C655.465 756.252 656.106 748.122 656.718 740.021C632.036 751.648 613.997 758.904 613.997 758.904C613.997 758.904 611.87 759.487 611.199 760.536C610.966 760.536 610.762 760.536 610.558 760.536C610.558 760.536 610.296 761.498 610.121 763.13C609.975 762.576 609.801 761.993 609.626 761.41L610.325 760.653C610.325 760.653 610.005 760.653 609.422 760.711V760.653C609.422 760.653 609.363 760.653 609.276 760.653C609.276 760.653 609.276 760.653 609.247 760.653C608.955 760.653 608.373 760.711 607.557 760.828C606.362 760.886 604.817 760.973 602.981 761.032C602.282 761.061 601.554 761.09 600.767 761.119C600.708 761.119 600.679 761.119 600.621 761.119C598.581 761.206 596.25 761.265 593.715 761.323C593.219 761.323 592.724 761.323 592.228 761.352C591.675 761.352 591.092 761.352 590.538 761.381C589.868 761.381 589.227 761.381 588.527 761.41C588.003 761.41 587.478 761.41 586.925 761.41C586.109 761.41 585.293 761.41 584.477 761.41C584.01 761.41 583.515 761.41 583.049 761.41C582 761.41 580.921 761.41 579.843 761.41C579.523 761.41 579.231 761.41 578.911 761.41C577.454 761.41 575.996 761.41 574.481 761.41C574.335 761.41 574.161 761.41 574.015 761.41C572.674 761.41 571.305 761.381 569.935 761.352C569.556 761.352 569.148 761.352 568.769 761.352C567.575 761.352 566.38 761.294 565.185 761.265C564.748 761.265 564.34 761.265 563.903 761.236C562.65 761.206 561.397 761.148 560.114 761.119C559.735 761.119 559.357 761.119 559.007 761.09C557.404 761.032 555.801 760.944 554.169 760.857C554.14 760.857 554.111 760.857 554.053 760.857C552.304 760.769 550.556 760.653 548.778 760.565C548.633 760.565 548.487 760.565 548.341 760.536C546.797 760.449 545.281 760.332 543.737 760.216C543.329 760.186 542.921 760.157 542.484 760.128C541.172 760.012 539.861 759.924 538.55 759.778C538.112 759.749 537.646 759.691 537.209 759.662C535.898 759.545 534.557 759.4 533.246 759.254C532.838 759.225 532.459 759.166 532.051 759.137C528.612 758.759 525.174 758.321 521.793 757.797C521.502 757.768 521.21 757.709 520.948 757.651C519.578 757.447 518.238 757.214 516.897 756.981C516.402 756.893 515.936 756.806 515.469 756.719C514.304 756.515 513.167 756.311 512.031 756.078C511.506 755.99 511.011 755.874 510.486 755.786C509.35 755.553 508.213 755.291 507.077 755.058C506.64 754.97 506.202 754.854 505.765 754.766C504.279 754.416 502.793 754.067 501.365 753.659C501.307 753.659 501.278 753.659 501.219 753.63C499.733 753.222 498.276 752.814 496.819 752.376C496.411 752.26 496.032 752.114 495.653 751.998C494.633 751.677 493.642 751.357 492.681 751.007C492.185 750.832 491.719 750.657 491.253 750.482C490.379 750.162 489.504 749.841 488.659 749.492C488.193 749.317 487.727 749.113 487.26 748.909C487.144 748.85 487.027 748.792 486.911 748.763C486.386 748.501 485.949 748.209 485.454 747.918C484.055 760.07 482.656 772.193 481.257 784.345C482.598 784.928 483.997 785.481 485.541 785.977C502.618 792.271 533.304 793.029 588.294 776.564C586.138 782.13 585.059 789.59 586.109 799.702C586.109 799.877 586.109 800.052 586.167 800.227C586.167 800.227 610.413 796.001 611.491 774.349C612.656 777.613 614.638 781.081 618.019 784.286C623.031 789.066 631.103 793.291 643.925 795.419C643.925 795.419 644.071 793.874 644.013 791.484C643.838 785.831 642.41 775.311 634.717 768.113C634.775 768.113 634.862 768.113 634.921 768.113C636.29 768.113 637.631 768.055 638.942 767.967H638.913Z" fill="black"/>
<path d="M464.122 746.283C464.122 746.283 458.994 805.528 599.193 760.417L610.355 747.886C610.355 747.886 517.626 754.151 480.179 732.703C480.179 732.703 463.977 735.005 464.122 746.283Z" fill="#FF532D"/>
<path opacity="0.15" d="M480.151 732.703C480.151 732.703 470.417 734.102 466.104 740.018C472.399 748.614 482.948 756.657 500.725 757.59C539.395 759.659 587.333 751.004 583.632 764.992C583.632 765.05 583.632 765.109 583.603 765.167C587.304 764.089 591.122 762.952 595.056 761.728C595.872 760.854 596.396 760.271 596.396 760.271L602.953 748.294C580.31 749.256 511.216 750.509 480.151 732.732V732.703Z" fill="black"/>
<path d="M614.026 746.168C614.026 746.168 637.514 736.697 667.617 722.068C670.794 720.523 680.381 720.494 677.991 731.714C675.602 742.933 649.637 761.263 621.166 753.57C603.797 748.878 614.026 746.168 614.026 746.168Z" fill="#FF532D"/>
<path opacity="0.15" d="M667.617 722.07C637.543 736.699 614.026 746.17 614.026 746.17C614.026 746.17 603.797 748.88 621.166 753.572C627.285 755.233 633.259 755.612 638.913 755.204C636.523 751.911 632.968 746.461 635.27 744.45C638.563 741.565 660.973 739.729 672.921 729.239C674.728 727.636 676.156 725.975 677.321 724.314C675.077 720.671 669.803 721.021 667.617 722.099V722.07Z" fill="black"/>
<path d="M463.015 746.693C465.638 773.416 493.818 790.813 599.193 760.419L610.354 747.888C610.354 747.888 516.373 755.319 483.064 733.783C476.799 729.733 461.878 734.745 463.044 746.664L463.015 746.693Z" stroke="#262830" stroke-width="5.21633" stroke-linecap="round" stroke-linejoin="round"/>
<path d="M614.026 746.168C614.026 746.168 637.514 736.697 667.617 722.068C670.794 720.523 680.381 720.494 677.991 731.714C675.602 742.933 649.637 761.263 621.166 753.57C603.797 748.878 614.026 746.168 614.026 746.168Z" stroke="#262830" stroke-width="5.21633" stroke-linecap="round" stroke-linejoin="round"/>
<path d="M609.422 747.888C609.422 747.888 581.766 748.092 586.109 787.462C586.109 787.462 620.058 781.546 609.422 747.888Z" fill="#FF532D"/>
<path opacity="0.15" d="M609.422 747.888C609.422 747.888 605.371 747.917 600.621 750.161C600.854 750.161 601 750.161 601 750.161C608.11 772.629 595.346 782.741 586.079 786.966C586.079 787.141 586.079 787.316 586.138 787.491C586.138 787.491 620.088 781.575 609.451 747.917L609.422 747.888Z" fill="black"/>
<path d="M609.422 747.888C609.422 747.888 581.766 748.092 586.109 787.462C586.109 787.462 620.058 781.546 609.422 747.888Z" stroke="#262830" stroke-width="5.21633" stroke-linecap="round" stroke-linejoin="round"/>
<path d="M610.587 747.8C610.587 747.8 602.865 775.805 643.896 782.683C643.896 782.683 647.655 746.693 610.587 747.8Z" fill="#FF532D"/>
<path opacity="0.15" d="M616.299 747.976C614.492 747.83 612.627 747.742 610.587 747.83C610.587 747.83 602.865 775.835 643.896 782.712C643.896 782.712 644.042 781.168 643.983 778.749C616.882 771.988 615.658 754.766 616.299 747.976Z" fill="black"/>
<path d="M610.587 747.8C610.587 747.8 602.865 775.805 643.896 782.683C643.896 782.683 647.655 746.693 610.587 747.8Z" stroke="#262830" stroke-width="5.21633" stroke-linecap="round" stroke-linejoin="round"/>
<path d="M622.652 403.38L692.883 437.883L704.394 414.862L631.744 379.746L622.652 403.38Z" fill="#262830"/>
<path d="M496.09 466.09L563.29 437.648L551.808 414.655L487.027 443.097L496.09 466.09Z" fill="#262830"/>
<defs>
<linearGradient id="paint0_linear_2059_2893" x1="456.865" y1="-86.9292" x2="464.879" y2="480.281" gradientUnits="userSpaceOnUse">
<stop stop-color="#FBB03B"/>
<stop offset="1" stop-color="#F13D24"/>
</linearGradient>
<linearGradient id="paint1_linear_2059_2893" x1="615.832" y1="228.119" x2="586.195" y2="598.392" gradientUnits="userSpaceOnUse">
<stop stop-color="#68CDED"/>
<stop offset="1" stop-color="#3B53A7"/>
</linearGradient>
<linearGradient id="paint2_linear_2059_2893" x1="597.065" y1="581.985" x2="534.556" y2="27.3925" gradientUnits="userSpaceOnUse">
<stop stop-color="#68CDED"/>
<stop offset="1" stop-color="#3B53A7"/>
</linearGradient>
<linearGradient id="paint3_linear_2059_2893" x1="583.515" y1="612.73" x2="632.88" y2="1137.71" gradientUnits="userSpaceOnUse">
<stop stop-color="#68CDED"/>
<stop offset="1" stop-color="#3B53A7"/>
</linearGradient>
</defs>
</svg>
