<svg width="731" height="1017" viewBox="0 0 731 1017" fill="none" xmlns="http://www.w3.org/2000/svg">
<path opacity="0.2" d="M332.412 708.887L332.441 708.857C313.674 726.663 290.914 733.074 265.736 731.092C252.885 730.072 192.911 717.163 192.795 671.09C192.066 670.915 191.309 670.74 190.58 670.565C188.453 672.197 186.005 672.78 183.382 672.664C125.74 692.596 66.8161 647.835 70.4587 587.017C70.7793 581.771 71.8867 579.79 77.7441 581.509C91.7029 585.618 106.07 587.133 120.553 584.831C129.295 583.432 133.521 578.566 132.88 571.659C132.239 564.869 126.848 560.702 118.163 561.226C97.2398 562.509 77.8024 558.021 60.5798 546.044C38.3156 530.599 28.7864 508.83 30.7097 481.903C31.4965 471.063 34.061 460.659 38.3739 449.294C41.6961 453.549 44.3771 457.045 47.1455 460.484C73.7226 493.531 108.751 513.784 148.441 526.723C159.515 530.336 169.482 535.145 175.951 545.286C189.036 565.802 182.741 588.503 160.389 600.917C155.144 603.831 149.491 606.017 143.983 608.407C135.677 612.02 132.647 617.091 134.949 623.91C137.251 630.758 144.041 633.731 152.142 631.166C164.877 627.086 176.65 621.141 186.675 612.108C189.152 609.864 191.542 608.494 195.01 608.931C213.136 611.175 230.446 615.75 245.512 626.737C258.975 636.528 267.251 649.613 270.37 665.99C270.952 669.021 271.186 672.256 273.225 674.82C277.13 679.716 282.318 681.29 288.088 679.366C294.003 677.385 297.092 672.897 296.335 666.515C294.47 650.72 287.884 636.82 277.393 625.105C264.716 610.971 263.376 594.011 263.58 576.467C263.609 573.116 264.25 569.765 264.366 566.384C264.658 557.817 260.869 553.038 253.438 552.309C245.745 551.551 239.946 555.806 238.838 563.966C237.615 573.058 237.644 582.296 238.838 591.359C239.567 597.012 237.673 596.255 233.972 594.827C226.104 591.796 218.148 588.94 209.843 587.366C205.938 586.638 205.559 585.035 206.404 581.392C212.815 553.3 201.042 526.111 176.242 511.628C166.597 505.974 155.377 504.371 145.148 500.146C59.8221 464.826 36.4214 401.618 35.6929 396.781C25.3185 370.757 26.0471 318.361 53.9938 278.495C55.888 287.675 79.4343 368.047 158.379 362.073C161.555 361.84 162.225 363.559 162.313 366.561C162.692 377.256 165.198 387.485 169.656 397.247C171.259 400.773 170.793 403.017 166.48 404.037C143.633 409.399 126.702 405.902 102.369 393.604C63.2899 378.072 77.3361 406.164 89.867 413.887C102.398 421.609 127.547 431.139 150.627 430.235C160.827 429.827 170.851 428.37 180.118 424.524C186.325 421.959 205.792 439.182 232.864 441.426C236.391 441.717 237.702 444.631 237.993 447.574C239.829 466.079 265.27 526.752 311.867 546.219C334.102 555.515 348.09 573.816 357.036 595.963C360.854 602.199 362.632 609.106 363.622 616.246C363.768 617.207 363.914 618.198 364.06 619.16C368.256 642.24 361.845 686.069 332.499 708.916L332.412 708.887ZM88.4973 248.684C77.8898 269.112 80.8331 288.52 94.1508 306.326C109.712 327.133 131.539 336.487 157.038 338.439C162.837 338.877 164.906 336.691 166.16 331.3C168.695 320.459 173.212 310.289 179.798 301.226C184.431 294.844 191.979 293.853 198.273 298.282C203.665 302.071 204.626 308.161 200.692 314.864C191.338 330.775 187.637 348.085 189.356 366.211C190.668 380.17 193.698 393.954 204.83 404.095C212.932 411.497 222.985 414.703 233.418 417.092C255.507 422.163 262.152 429.594 264.308 452.441C266.319 473.889 275.149 491.666 291.759 505.479C305.631 517.019 322.387 523.576 337.861 532.347C341.766 534.562 342.407 531.182 343.282 528.938C350.509 510.2 355.638 490.879 356.803 470.8C358.464 442.795 350.363 417.53 333.461 395.149C330.547 391.302 329.031 387.776 330.43 382.647C332.208 376.178 332.499 369.388 332.587 362.598C332.645 357.935 331.042 356.595 326.613 357.644C315.772 360.208 305.019 358.897 294.499 355.954C260.053 346.279 238.809 315.126 241.607 276.951C244.113 242.884 247.96 208.935 250.757 174.897C251.981 160.035 252.914 145.027 246.998 130.69C241.345 116.993 233.797 106.152 216.603 106.619C207.919 106.852 202.149 101.111 202.324 94.4083C202.528 87.3269 208.706 82.4894 217.594 82.4312C242.539 82.3146 261.685 97.4682 271.739 123.783C280.219 145.96 276.897 168.428 275.207 190.925C273.196 217.298 268.505 243.438 268.65 269.986C268.65 276.018 268.271 282.08 268.738 288.054C269.787 301.838 273.225 314.835 284.853 323.781C296.684 332.903 310.439 337.303 324.835 333.048C339.464 328.735 347.012 317.02 349.897 302.187C354.385 279.136 349.11 258.621 334.015 240.845C329.527 235.57 329.643 232.306 334.277 227.148C358.319 200.454 359.688 163.445 337.628 135.119C333.199 129.436 333.257 125.998 338.182 120.548C361.029 95.1951 360.737 51.1914 339.552 25.0224C310.002 -11.492 241.519 -7.09161 222.869 36.3584C221.528 39.4474 219.692 40.8753 216.195 40.1468C190.901 34.9305 155.873 59.0597 149.316 86.3653C144.478 106.589 147.392 125.619 156.339 143.891C165.752 163.066 178.078 180.201 194.339 194.305C200.022 199.26 201.013 205.758 197.195 210.974C193.319 216.278 184.956 217.59 179.011 213.626C176.825 212.169 174.844 210.362 172.92 208.556C147.101 184.514 132.151 154.586 126.032 120.199C124.72 112.884 122.476 114.603 118.805 117.78C109.8 125.473 101.232 133.633 95.1125 143.92C76.5202 175.218 72.4695 207.448 89.4299 240.786C91.1201 244.137 89.8087 246.177 88.4973 248.713V248.684ZM677.914 544.179C669.084 576.817 652.706 604.735 623.594 623.327C602.641 636.703 580.435 638.685 557.909 626.387C544.3 618.985 536.956 603.686 538.472 588.211C540.686 565.335 549.749 545.111 561.115 525.616C571.547 507.752 582.592 490.179 587.138 469.547C592.354 445.826 581.659 420.939 560.444 409.137C556.248 406.806 554.733 404.824 555.898 399.637C559.133 385.386 558.521 370.932 556.306 356.566C556.015 354.671 555.461 352.806 554.82 350.999C552.372 344.355 545.874 341.15 539.054 343.16C532.964 344.938 529.525 350.562 531.011 357.381C533.547 369.067 533.867 380.695 532.177 392.526C531.39 398.063 529.758 400.715 523.289 400.831C505.833 401.123 490.505 407.942 477.012 418.783C469.173 425.077 468.037 430.818 472.845 436.559C477.886 442.591 485.143 442.562 492.603 436.617C506.358 425.631 521.744 420.968 539.2 425.31C553.159 428.778 564.816 442.154 563.388 456.521C561.056 480.155 552.372 502.011 532.381 516.145C514.925 528.501 494.497 532.376 473.136 527.393C467.454 526.053 462.412 526.723 458.857 531.473C455.069 536.573 455.826 541.847 459.702 546.743C460.227 547.209 460.751 547.705 461.247 548.171L461.217 548.084C467.92 549.628 474.652 551.202 481.354 552.746C486.192 552.746 491.058 552.746 495.896 552.717C504.726 550.998 513.526 549.278 522.997 547.413C520.754 555.252 518.277 562.45 516.615 569.852C511.749 591.504 512.798 611.962 527.252 630.554C542.989 650.807 572.188 654.305 572.859 656.578C573.5 658.792 517.431 738.786 453.291 731.005C448.162 730.393 436.039 726.692 435.048 726.313C373.181 710.169 381.894 649.642 390.578 631.312C395.008 621.987 397.077 614.526 391.627 604.997C387.577 597.916 387.256 589.348 387.693 581.043C387.897 577.225 389.529 576.001 392.531 578.711C401.74 587.075 437.671 617.091 438.166 617.615C438.166 617.615 438.166 617.586 438.166 617.557C444.607 623.444 448.279 630.7 448.978 639.442C449.095 641.336 449.211 643.26 449.328 645.154C449.881 651.39 443.674 674.033 449.59 677.967C455.185 681.727 496.391 659.229 465.122 613.244C462.995 610.126 405.207 558.196 404.712 557.03C392.968 547.938 384.575 536.456 380.087 522.235C379.883 521.973 379.825 521.681 379.942 521.361C371.228 504.226 371.87 486.449 376.503 468.469C376.794 467.362 377.348 465.934 378.834 466.342C380.583 466.837 403.401 489.888 405.965 491.549C411.91 495.425 418.088 498.601 424.47 493.239C439.624 480.534 405.907 458.881 405.907 458.881C391.307 445.797 386.411 428.982 388.218 410.128C389.121 400.657 399.437 333.748 476.575 338.265C477.537 338.323 491.583 340.275 499.947 331.3C533.372 295.543 573.471 282.983 620.33 297.437C653.377 307.608 671.124 332.844 677.972 365.629C684.675 397.801 673.484 425.369 652.881 449.673C647.286 456.288 641.05 462.349 635.076 468.615C629.481 474.472 629.043 479.805 633.764 485.225C637.728 489.771 645.712 490.587 650.754 486.1C657.398 480.184 663.46 473.598 669.783 467.303C671.27 465.817 672.056 462.728 674.388 463.282C676.981 463.865 676.894 467.128 677.535 469.314C684.733 494.23 684.733 519.263 677.972 544.179H677.914ZM373.88 179.472C389.209 157.121 410.074 143.366 428.754 127.28C444.286 113.904 451.63 97.2642 449.852 76.7486C449.736 75.3206 449.677 73.8344 449.794 72.4065C450.319 65.3834 454.486 61.0413 461.072 60.5167C468.532 59.9339 473.136 63.0812 474.419 70.5414C476.692 83.8882 474.797 96.9436 470.484 109.649C464.336 127.775 451.222 140.51 436.564 151.817C417.971 166.155 400.341 181.367 387.781 201.591C376.765 219.309 372.248 238.28 377.144 258.912C380.933 274.998 381.137 287.996 377.873 304.431C374.347 322.353 376.212 339.751 383.38 357.527C390.345 350.475 396.319 343.539 403.867 338.323C426.189 322.878 450.435 313.349 478.12 315.039C481.587 315.243 483.161 313.319 485.288 311.221C521.628 275.086 565.02 261.681 615.376 271.618C635.105 275.523 652.91 283.333 667.365 299.536C670.716 280.564 670.57 263.313 664.305 246.673C655.912 224.38 638.981 211.499 616.454 205.467C611.704 204.184 610.451 202.64 611.034 197.19C614.502 164.756 602.175 138.937 576.647 119.091C573.121 116.352 571.343 117.168 569.828 121.131C562.98 139.141 551.964 154.119 536.461 165.601C532.031 168.894 531.886 171.459 534.945 176.092C543.775 189.497 550.536 203.835 550.944 220.329C551.119 228.314 546.311 233.821 539.317 234.142C532.381 234.433 526.844 229.159 526.349 221.465C525.504 208.497 519.967 197.424 512.944 186.874C511.574 184.834 510.467 183.669 507.815 185.534C496.945 193.169 486.483 201.154 478.12 211.703C469.29 222.835 464.044 235.716 458.886 248.713C456.263 255.299 449.065 257.863 442.625 255.415C436.447 253.055 433.737 246.76 436.01 239.97C445.394 211.907 461.742 188.943 486.104 171.925C496.77 164.465 507.844 157.616 518.277 149.865C553.858 123.317 562.805 74.3007 538.88 38.544C514.576 2.20454 464.54 -10.5012 423.829 9.34421C383.497 28.9856 363.302 76.6903 384.867 118.334C387.111 122.676 386.732 125.939 384.051 130.136C374.813 144.473 370.85 160.152 373.909 179.502L373.88 179.472Z" fill="url(#paint0_linear_2059_3168)"/>
<path d="M729.203 517.687C726.405 510.955 719.819 506.554 712.534 506.554H573.82C573.82 506.554 573.704 506.467 573.646 506.438H577.288C587.255 506.438 595.356 498.366 595.356 488.37V466.194C595.356 461.968 598.795 458.5 603.049 458.5H656.699C664.013 458.5 670.599 454.1 673.368 447.339C676.136 440.578 674.621 432.826 669.463 427.668L472.029 230.235C472.029 230.235 471.854 230.06 471.738 229.972L461.625 219.802C463.316 218.141 464.714 216.159 465.647 213.886C468.445 207.125 466.9 199.374 461.742 194.216L377.96 110.434C374.58 107.053 369.975 105.159 365.196 105.159C360.417 105.159 355.813 107.083 352.432 110.463L339.61 123.314L326.729 136.195L301.027 161.927L295.082 167.843L268.709 194.216C263.551 199.374 262.035 207.155 264.833 213.886C265.707 215.984 266.96 217.791 268.446 219.365L255.653 233.032L61.1336 427.494C55.9755 432.652 54.431 440.432 57.2286 447.164C60.0262 453.925 66.6122 458.325 73.8976 458.325H127.547C129.208 458.325 130.724 458.821 132.093 459.841C132.997 460.511 133.783 461.385 134.279 462.289C134.337 462.405 134.395 462.522 134.454 462.609C134.57 462.813 134.658 463.017 134.687 463.163L134.803 463.483C134.862 463.687 134.92 463.862 135.036 464.299C135.066 464.474 135.095 464.678 135.124 464.824L135.211 465.348C135.211 465.552 135.24 465.785 135.24 466.019V488.195C135.24 498.162 143.313 506.263 153.308 506.263H155.902C155.902 506.263 155.64 506.467 155.494 506.554H18.0333C10.7187 506.554 4.13275 510.955 1.3643 517.716C-1.40414 524.477 0.111218 532.228 5.26927 537.386L111.228 643.345C109.538 659.285 114.404 674.584 116.269 679.684C121.427 693.818 132.647 705.62 148.442 713.78V727.972C148.442 734.558 152.026 740.59 157.767 743.767L246.59 792.841L220.217 926.28C206.958 921.355 189.065 916.517 170.094 916.517C143.167 916.517 119.854 926.367 102.66 945.018C76.054 973.868 75.1798 995.054 75.2672 999.017C75.5003 1008.84 83.5142 1016.65 93.3058 1016.65C93.3932 1016.65 307.554 1013.79 307.554 1013.79C317.258 1013.68 325.127 1005.89 325.36 996.19L329.469 831.249L394.192 833.697L399.437 996.336C399.758 1005.98 407.597 1013.68 417.243 1013.82C417.243 1013.82 631.404 1016.68 631.491 1016.68C641.283 1016.68 649.297 1008.87 649.53 999.046C649.617 995.083 648.743 973.897 622.137 945.047C604.943 926.396 581.63 916.547 554.703 916.547C535.47 916.547 517.344 921.53 504.026 926.513L474.506 795.289L575.336 738.55C581.106 735.315 584.632 729.167 584.544 722.581L584.253 700.287C600.223 692.128 611.588 680.267 616.804 665.988C618.349 661.762 621.438 652.029 622.079 640.635L700.906 561.836L725.298 537.415C730.456 532.257 732.001 524.477 729.203 517.745V517.687Z" fill="white"/>
<path opacity="0.15" d="M201.829 1014.61C280.08 1014.61 343.515 1007.85 343.515 999.516C343.515 991.179 280.08 984.421 201.829 984.421C123.578 984.421 60.1428 991.179 60.1428 999.516C60.1428 1007.85 123.578 1014.61 201.829 1014.61Z" fill="#262830"/>
<path opacity="0.15" d="M519.646 1014.61C597.897 1014.61 661.332 1007.85 661.332 999.516C661.332 991.179 597.897 984.421 519.646 984.421C441.395 984.421 377.96 991.179 377.96 999.516C377.96 1007.85 441.395 1014.61 519.646 1014.61Z" fill="#262830"/>
<path d="M289.894 661.88L232.515 952.014C232.515 952.014 159.02 909.379 114.929 957.201C91.9361 982.146 92.3149 998.523 92.3149 998.523L306.301 995.667L314.81 655.761L289.894 661.851V661.88Z" fill="#F5F0E3"/>
<path d="M425.286 663.074L490.301 952.042C490.301 952.042 563.796 909.408 607.887 957.229C630.88 982.174 630.501 998.552 630.501 998.552L416.515 995.696L405.557 655.789L425.315 663.074H425.286Z" fill="#F5F0E3"/>
<path opacity="0.15" d="M311.343 794.885C296.335 789.406 269.204 779.44 269.204 779.44L266.815 778.595L256.469 830.904C260.083 847.281 266.931 877.122 268.359 876.306C269.758 875.49 295.286 856.257 310.09 845.067L311.343 794.856V794.885Z" fill="black"/>
<path opacity="0.15" d="M408.909 760.176L411.211 831.922C429.104 849.232 450.494 869.806 450.494 869.806L466.842 847.717L447.026 759.651C436.127 759.71 419.808 759.826 408.909 760.176Z" fill="black"/>
<path d="M289.894 661.88L232.515 952.014C232.515 952.014 159.02 909.379 114.929 957.201C91.9361 982.146 92.3149 998.523 92.3149 998.523L306.301 995.667L314.81 655.761L289.894 661.851V661.88Z" stroke="#262830" stroke-width="6.0323" stroke-linecap="round" stroke-linejoin="round"/>
<path d="M425.286 663.074L490.301 952.042C490.301 952.042 563.796 909.408 607.887 957.229C630.88 982.174 630.501 998.552 630.501 998.552L416.515 995.696L405.557 655.789L425.315 663.074H425.286Z" stroke="#262830" stroke-width="6.0323" stroke-linecap="round" stroke-linejoin="round"/>
<path d="M711.514 524.595L687.122 549.015L629.306 606.832L532.294 703.844V686.505C532.294 661.822 512.273 641.802 487.59 641.802H448.657V839.003L448.191 839.498L422.401 813.708L422.343 813.65L422.459 813.562L364.322 755.425L364.264 755.366L364.176 755.483L306.884 812.746L306.068 813.562H306.126L306.068 813.679L280.307 839.44L280.074 839.207V641.831H241.141C216.458 641.831 196.437 661.851 196.437 686.534V704.077L99.5419 607.182L41.492 549.132L16.984 524.624H711.485L711.514 524.595Z" fill="url(#paint1_linear_2059_3168)"/>
<g opacity="0.3">
<path d="M111.49 606.573L53.4403 548.523L29.4859 524.598H17.0425L41.5214 549.106L99.5713 607.156L196.467 704.051V691.579L111.49 606.573Z" fill="white"/>
<path d="M292.022 641.223H253.089C250.787 641.223 248.543 641.456 246.328 641.777H280.132V839.153L280.365 839.386L292.022 827.729V641.165V641.223Z" fill="white"/>
<path d="M434.32 813.128L434.262 813.069L434.378 812.982L376.241 754.874L376.183 754.815L376.124 754.932L369.975 761.052L422.488 813.565L422.372 813.652L422.43 813.71L448.191 839.472L448.658 838.976V827.465L434.32 813.128Z" fill="white"/>
<path d="M544.213 691.928V685.925C544.213 661.242 524.192 641.222 499.51 641.222H460.576V641.775H487.62C512.303 641.775 532.323 661.796 532.323 686.478V703.818L544.213 691.928Z" fill="white"/>
</g>
<path d="M711.514 524.595L687.122 549.015L629.306 606.832L532.294 703.844V686.505C532.294 661.822 512.273 641.802 487.59 641.802H448.657V839.003L448.191 839.498L422.401 813.708L422.343 813.65L422.459 813.562L364.322 755.425L364.263 755.366L364.176 755.483L306.884 812.746L306.068 813.562H306.126L306.068 813.679L280.307 839.44L280.074 839.207V641.831H241.141C216.458 641.831 196.437 661.851 196.437 686.534V704.077L99.5419 607.182L41.492 549.132L16.984 524.624H711.485L711.514 524.595Z" stroke="#262830" stroke-width="6.0323" stroke-linecap="round" stroke-linejoin="round"/>
<path d="M364.147 123.227L351.296 136.107L338.415 148.959L312.654 174.749L306.738 180.635L280.365 207.008H280.453C294.645 207.008 306.155 218.49 306.185 232.711L306.738 488.224H421.964L422.168 232.77C422.168 218.548 433.708 207.038 447.9 207.038L389.908 149.046L377.028 136.165L364.118 123.256L364.147 123.227ZM270.341 242.794L264.716 248.419L233.885 279.25L99.3964 413.738L72.8776 440.257H126.527C140.748 440.257 152.259 451.797 152.259 465.989V488.166H270.311V242.794H270.341ZM458.216 242.998V488.37H576.268V466.193C576.268 451.972 587.808 440.461 602 440.461H655.65L629.131 413.942L494.643 279.454L463.811 248.623L458.187 242.998H458.216Z" fill="url(#paint2_linear_2059_3168)"/>
<g opacity="0.3">
<path d="M109.625 418.255L244.113 283.767L270.341 257.54V242.794L264.716 248.418L233.914 279.25L99.4255 413.738L72.9068 440.257H87.6232L109.625 418.255Z" fill="white"/>
<path d="M292.255 209.865L316.967 185.153L322.883 179.267L348.644 153.476L361.524 140.625L371.549 130.571L364.176 123.198L351.325 136.079L338.444 148.93L312.683 174.72L306.768 180.607L280.394 206.98H280.482C284.737 206.98 288.729 208.029 292.255 209.836V209.865Z" fill="white"/>
<path d="M468.415 253.201L463.84 248.625L458.216 243.001V488.373H468.415V253.201Z" fill="white"/>
<path d="M162.488 488.165V470.505C162.488 458.003 153.6 447.6 141.797 445.269C148.15 449.96 152.288 457.479 152.288 465.988V488.165H162.488Z" fill="white"/>
<path d="M316.413 237.202C316.413 224.729 307.496 214.355 295.723 212.023C302.076 216.686 306.214 224.205 306.214 232.685L306.767 488.198H316.967L316.442 237.231L316.413 237.202Z" fill="white"/>
</g>
<path d="M364.147 123.227L351.296 136.107L338.415 148.959L312.654 174.749L306.738 180.635L280.365 207.008H280.453C294.645 207.008 306.155 218.49 306.185 232.711L306.738 488.224H421.964L422.168 232.77C422.168 218.548 433.708 207.038 447.9 207.038L389.908 149.046L377.028 136.165L364.118 123.256L364.147 123.227ZM270.341 242.794L264.716 248.419L233.885 279.25L99.3964 413.738L72.8776 440.257H126.527C140.748 440.257 152.259 451.797 152.259 465.989V488.166H270.311V242.794H270.341ZM458.216 242.998V488.37H576.268V466.193C576.268 451.972 587.808 440.461 602 440.461H655.65L629.131 413.942L494.643 279.454L463.811 248.623L458.187 242.998H458.216Z" stroke="#262830" stroke-width="6.0323" stroke-linecap="round" stroke-linejoin="round"/>
<path d="M165.489 727.947V520.867L329.032 592.701C329.032 592.701 349.664 603.396 364.934 602.638C380.204 601.881 562.863 521.625 562.863 521.625L565.515 722.789L400.079 815.838L319.065 812.778L165.46 727.947H165.489Z" fill="#6082D8"/>
<path opacity="0.2" d="M208.677 648.8C194.718 642.593 178.253 639.008 168.695 637.056L165.489 714.252C182.013 720.838 198.856 721.129 199.672 716.495C201.129 708.248 185.772 700.497 185.772 700.497C185.772 700.497 203.082 705.247 202.907 695.164C202.82 690.414 199.323 687.004 195.826 684.935C193.057 683.07 190.464 682.4 190.464 682.4C190.464 682.4 206.929 686.451 206.929 676.251C206.929 666.052 195.126 664.303 195.126 664.303C195.126 664.303 213.223 665.614 216.05 659.349C217.39 656.377 215.554 651.889 208.648 648.8H208.677Z" fill="black"/>
<path d="M329.265 593.397C329.265 593.397 349.897 604.092 365.167 603.334C378.456 602.664 518.044 542.021 554.441 526.109L555.461 524.856L523.114 501.164C442.625 518.999 361.379 588.53 361.379 588.53C303.824 543.711 211.008 500.989 211.008 500.989L175.514 525.818L329.294 593.368L329.265 593.397Z" fill="white"/>
<path d="M165.489 727.947V520.867L329.032 592.701C329.032 592.701 349.664 603.396 364.934 602.638C380.204 601.881 562.863 521.625 562.863 521.625L565.515 722.789L400.079 815.838L319.065 812.778L165.46 727.947H165.489Z" stroke="#262830" stroke-width="6.8774" stroke-linecap="round" stroke-linejoin="round"/>
<path d="M329.032 592.67C329.032 592.67 349.664 603.365 364.934 602.608C378.223 601.938 517.81 541.294 554.208 525.383L555.228 524.13L522.881 500.438C442.392 518.272 361.146 587.804 361.146 587.804C303.591 542.984 210.775 500.263 210.775 500.263L175.281 525.091L329.061 592.641L329.032 592.67Z" stroke="#262830" stroke-width="6.0323" stroke-linecap="round" stroke-linejoin="round"/>
<path d="M319.094 590.396V812.746" stroke="#262830" stroke-width="6.8774" stroke-linecap="round" stroke-linejoin="round"/>
<path d="M398.563 592.408V815.807" stroke="#262830" stroke-width="6.8774" stroke-linecap="round" stroke-linejoin="round"/>
<path d="M187.812 517.279C187.812 517.279 235.458 537.387 286.368 562.827" stroke="#262830" stroke-width="6.0323" stroke-linecap="round" stroke-linejoin="round"/>
<path d="M543.746 516.523C543.746 516.523 438.487 559.012 401.04 578.507" stroke="#262830" stroke-width="6.0323" stroke-linecap="round" stroke-linejoin="round"/>
<path d="M477.391 529.315C477.391 529.315 517.024 511.597 531.915 508.071" stroke="#262830" stroke-width="6.0323" stroke-linecap="round" stroke-linejoin="round"/>
<path d="M201.887 509.676L226.745 520.021" stroke="#262830" stroke-width="6.0323" stroke-linecap="round" stroke-linejoin="round"/>
<path d="M432.95 644.833L442.042 640.404L442.101 649.409L433.008 653.809L433.212 679.716L426.16 683.038L425.665 620.5L444.286 611.204L444.345 620.209L432.746 625.95L432.892 644.863L432.95 644.833Z" fill="white"/>
<path d="M447.259 624.902C447.23 619.802 448.104 615.431 449.911 611.759C451.717 608.116 454.369 605.406 457.808 603.658C461.276 601.909 463.928 601.967 465.793 603.774C467.658 605.61 468.59 609.078 468.649 614.207L468.911 647.195C468.94 652.324 468.066 656.724 466.259 660.367C464.452 664.01 461.8 666.662 458.362 668.352C454.894 670.042 452.242 669.955 450.377 668.09C448.512 666.254 447.579 662.757 447.521 657.657L447.259 624.873V624.902ZM454.573 654.888C454.573 657.161 454.923 658.618 455.593 659.23C456.264 659.842 457.138 659.872 458.274 659.347C459.382 658.793 460.256 657.89 460.926 656.637C461.567 655.384 461.888 653.606 461.888 651.304L461.626 617.092C461.626 614.79 461.276 613.333 460.606 612.75C459.935 612.138 459.061 612.138 457.925 612.691C456.817 613.245 455.943 614.149 455.273 615.431C454.632 616.684 454.311 618.461 454.311 620.764L454.573 654.888Z" fill="white"/>
<path d="M488.319 652.876C488.232 652.497 488.144 652.147 488.057 651.827C487.97 651.506 487.882 651.098 487.824 650.574C487.766 650.049 487.707 649.379 487.678 648.534C487.678 647.688 487.62 646.639 487.62 645.357L487.532 635.362C487.532 632.389 487.124 630.495 486.396 629.621C485.667 628.776 484.473 628.747 482.87 629.562L480.422 630.786L480.626 656.664L473.574 660.161L473.078 596.662L483.715 591.271C487.387 589.405 490.068 589.26 491.729 590.863C493.39 592.465 494.235 595.7 494.293 600.625V605.637C494.381 612.194 492.894 617.265 489.835 620.878C491.641 620.995 492.865 622.073 493.565 624.055C494.235 626.066 494.614 628.717 494.614 632.069L494.701 641.918C494.701 643.492 494.759 644.862 494.847 645.998C494.934 647.135 495.167 648.213 495.517 649.262L488.348 652.876H488.319ZM480.189 602.199L480.334 621.723L483.103 620.325C484.414 619.654 485.463 618.664 486.192 617.323C486.92 615.983 487.299 614.03 487.27 611.495L487.212 605.229C487.212 602.927 486.891 601.412 486.308 600.654C485.726 599.926 484.822 599.867 483.569 600.479L480.189 602.199Z" fill="white"/>
<path d="M506.066 606.863L515.741 601.909L515.8 611.03L506.125 615.984L506.27 634.664L518.452 628.427L518.51 637.549L499.306 647.34L498.81 583.608L518.014 573.758L518.073 582.879L505.892 589.115L506.037 606.892L506.066 606.863Z" fill="white"/>
<path d="M545.874 559.362L538.763 594.128L546.894 622.745L539.463 626.65L533.489 604.444L527.864 632.712L521.278 636.121L528.884 599.257L521.278 572.097L528.564 568.338L534.071 589.087L539.346 562.772L545.874 559.391V559.362Z" fill="white"/>
<path d="M424.791 701.019L440.964 693.5L441.023 700.173L435.544 702.709L435.864 742.633L430.648 744.964L430.328 705.127L424.849 707.634L424.791 701.019Z" fill="white"/>
<path d="M454.544 734.153C454.486 733.862 454.399 733.6 454.34 733.367C454.282 733.133 454.224 732.813 454.165 732.434C454.107 732.055 454.078 731.56 454.049 730.948C454.049 730.336 454.02 729.549 454.02 728.617L453.961 721.244C453.961 719.058 453.67 717.63 453.116 716.989C452.563 716.348 451.688 716.319 450.494 716.873L448.687 717.718L448.832 736.776L443.616 739.166L443.237 692.452L451.135 688.722C453.874 687.41 455.856 687.381 457.08 688.576C458.303 689.771 458.945 692.19 458.974 695.803V699.504C459.032 704.342 457.925 708.043 455.652 710.636C456.992 710.753 457.896 711.569 458.42 713.055C458.915 714.541 459.178 716.523 459.207 718.971L459.265 726.227C459.265 727.393 459.323 728.383 459.382 729.229C459.44 730.074 459.615 730.89 459.877 731.647L454.544 734.124V734.153ZM448.512 696.648L448.629 711.015L450.668 710.053C451.659 709.587 452.417 708.888 452.971 707.897C453.524 706.935 453.787 705.507 453.757 703.613V698.98C453.699 697.289 453.495 696.153 453.058 695.599C452.621 695.046 451.951 694.987 451.018 695.424L448.512 696.619V696.648Z" fill="white"/>
<path d="M479.635 722.233L474.36 724.768L473.399 716.638L466.988 719.698L466.143 728.673L461.334 730.946L466.288 681.377L473.952 677.646L479.635 722.204V722.233ZM467.6 713.024L472.641 710.606L469.931 687.992L467.6 712.995V713.024Z" fill="white"/>
<path d="M481.675 673.86L489.951 669.751C492.574 668.44 494.555 668.44 495.838 669.781C497.149 671.121 497.79 673.715 497.819 677.532L497.994 701.457C498.023 705.275 497.411 708.51 496.129 711.132C494.847 713.755 492.923 715.708 490.272 717.019L481.995 721.07L481.617 673.86H481.675ZM486.979 678.028L487.241 711.773L490.184 710.316C491 709.908 491.641 709.267 492.137 708.335C492.603 707.431 492.836 706.12 492.807 704.401L492.603 679.834C492.603 678.115 492.341 677.037 491.874 676.6C491.379 676.163 490.738 676.133 489.922 676.541L486.979 677.998V678.028Z" fill="white"/>
<path d="M501.083 664.182L506.299 661.53L506.678 708.856L501.462 711.479L501.083 664.182Z" fill="white"/>
<path d="M514.867 670.274L515.129 704.544L510.438 706.934L510.059 659.608L516.616 656.257L522.211 681.814L521.978 653.488L526.64 651.069L527.019 698.395L521.657 701.193L514.867 670.274Z" fill="white"/>
<path d="M538.384 665.963L545.699 662.087L545.815 677.066C545.845 680.883 545.203 684.176 543.921 686.915C542.61 689.655 540.686 691.724 538.122 693.093C535.558 694.463 533.605 694.463 532.265 693.093C530.924 691.724 530.254 689.13 530.225 685.313L530.021 660.717C529.992 656.9 530.633 653.607 531.915 650.867C533.226 648.128 535.15 646.088 537.714 644.748C540.278 643.407 542.231 643.407 543.571 644.748C544.912 646.088 545.582 648.682 545.611 652.499V657.074L540.716 659.697V654.627C540.657 652.907 540.395 651.829 539.9 651.392C539.404 650.955 538.734 650.955 537.918 651.392C537.102 651.829 536.432 652.528 535.966 653.461C535.47 654.423 535.237 655.763 535.266 657.453L535.47 682.981C535.47 684.701 535.732 685.75 536.228 686.187C536.723 686.595 537.393 686.595 538.209 686.158C539.025 685.721 539.696 685.05 540.162 684.089C540.657 683.156 540.89 681.816 540.861 680.125L540.803 671.412L538.443 672.665L538.384 665.904V665.963Z" fill="white"/>
<path d="M165.723 623.589C175.281 625.571 191.746 629.126 205.705 635.333C212.611 638.393 214.447 642.881 213.107 645.882C210.28 652.148 192.183 650.837 192.183 650.837C192.183 650.837 203.985 652.614 203.985 662.785C203.985 672.955 187.521 668.933 187.521 668.933C187.521 668.933 199.643 671.993 199.643 683.621C199.643 695.248 182.829 687.001 182.829 687.001C182.829 687.001 198.186 694.753 196.729 703C195.272 711.247 143.429 703.962 132.268 673.45C127.023 659.113 120.961 625.105 151.239 621.899C151.239 621.899 156.951 607.532 149.374 593.399C138.592 573.291 162.575 575.826 164.761 588.182C166.947 600.538 165.723 623.56 165.723 623.56V623.589Z" fill="#F5F0E3"/>
<path opacity="0.2" d="M186.938 649.846C186.938 649.846 174.902 644.95 173.066 645.096C171.23 645.242 168.812 650.837 178.02 652.236C187.229 653.634 196.933 656.84 198.973 659.317C201.013 661.794 203.082 662.348 202.587 660.366C202.091 658.384 202.149 655.121 199.323 653.489C196.496 651.857 186.938 649.817 186.938 649.817V649.846Z" fill="black"/>
<path opacity="0.2" d="M175.398 665.437C175.398 665.437 165.052 660.774 162.925 661.911C160.798 663.047 159.02 668.206 164.907 669.779C173.212 671.965 181.896 672.198 186.5 674.675C191.105 677.152 198.39 685.02 197.399 680.124C196.409 675.229 192.591 669.284 189.036 668.38C185.481 667.477 175.368 665.466 175.368 665.466L175.398 665.437Z" fill="black"/>
<path opacity="0.2" d="M153.716 678.812C153.716 678.812 151.181 682.776 156.98 684.903C162.779 687.03 180.847 690.848 183.965 694.52C187.083 698.192 187.229 704.37 191.105 702.534C194.981 700.698 198.623 697.784 190.755 692.13C182.887 686.477 153.716 678.812 153.716 678.812Z" fill="black"/>
<path d="M165.723 623.589C175.281 625.571 191.746 629.126 205.705 635.333C212.611 638.393 214.447 642.881 213.107 645.882C210.28 652.148 192.183 650.837 192.183 650.837C192.183 650.837 203.985 652.614 203.985 662.785C203.985 672.955 187.52 668.933 187.52 668.933C187.52 668.933 200.43 673.13 199.964 681.697C199.498 690.265 182.829 687.03 182.829 687.03C182.829 687.03 193.64 692.509 194.31 701.572C194.893 709.906 143.429 703.991 132.268 673.45C127.023 659.113 120.961 625.105 151.239 621.899C151.239 621.899 156.951 607.532 149.374 593.399C138.592 573.291 162.575 575.826 164.761 588.182C166.947 600.538 165.723 623.56 165.723 623.56V623.589Z" stroke="#262830" stroke-width="6.0323" stroke-linecap="round" stroke-linejoin="round"/>
<path d="M192.183 650.865L175.543 646.756" stroke="#262830" stroke-width="6.0323" stroke-linecap="round" stroke-linejoin="round"/>
<path d="M187.491 668.963L165.198 663.222" stroke="#262830" stroke-width="6.0323" stroke-linecap="round" stroke-linejoin="round"/>
<path d="M182.8 687.032L156.485 679.396" stroke="#262830" stroke-width="6.0323" stroke-linecap="round" stroke-linejoin="round"/>
<g opacity="0.2">
<path d="M285.844 445.066C244.579 445.066 236.828 408.581 235.429 397.274C235.312 396.312 235.604 395.35 236.245 394.622C236.886 393.893 237.818 393.485 238.78 393.485L332.732 393.718C333.811 393.718 334.831 394.243 335.443 395.117C336.055 395.992 336.258 397.099 335.938 398.119C335.326 400.013 320.813 444.366 287.272 445.037C286.776 445.037 286.31 445.037 285.844 445.037V445.066Z" fill="black"/>
<path d="M444.199 445.066C402.934 445.066 395.183 408.581 393.784 397.274C393.667 396.312 393.959 395.35 394.6 394.622C395.241 393.893 396.173 393.485 397.135 393.485L491.087 393.718C492.166 393.718 493.185 394.243 493.797 395.117C494.409 395.992 494.613 397.099 494.293 398.119C493.681 400.013 479.168 444.366 445.626 445.037C445.131 445.037 444.665 445.037 444.199 445.037V445.066Z" fill="black"/>
<path d="M441.314 333.251C415.64 333.251 393.143 347.122 380.903 367.755C376.474 362.072 369.888 358.546 362.632 358.546C355.375 358.546 349.081 361.985 344.622 367.521C332.354 347.035 309.915 333.28 284.357 333.28C245.628 333.28 214.156 364.782 214.156 403.482C214.156 442.182 245.657 473.684 284.357 473.684C323.057 473.684 354.559 442.182 354.559 403.482C354.559 394.944 353.015 386.755 350.217 379.178C352.199 373.262 357.182 369.241 362.661 369.241C368.139 369.241 373.414 373.495 375.279 379.732C372.598 387.163 371.141 395.148 371.141 403.482C371.141 442.211 402.643 473.684 441.343 473.684C480.043 473.684 511.545 442.182 511.545 403.482C511.545 364.782 480.043 333.28 441.343 333.28L441.314 333.251ZM284.328 462.668C251.69 462.668 225.142 436.121 225.142 403.482C225.142 370.844 251.69 344.296 284.328 344.296C316.967 344.296 343.515 370.844 343.515 403.482C343.515 436.121 316.967 462.668 284.328 462.668ZM441.314 462.668C408.675 462.668 382.127 436.121 382.127 403.482C382.127 370.844 408.675 344.296 441.314 344.296C473.952 344.296 500.5 370.844 500.5 403.482C500.5 436.121 473.952 462.668 441.314 462.668Z" fill="black"/>
<path d="M399.641 480.417C391.249 500.466 379.417 513.318 364.526 518.622C355.929 521.681 347.216 521.885 339.668 520.924L335.443 537.33C345.584 538.875 357.677 538.846 369.975 534.533C389.587 527.626 404.799 511.598 415.145 486.916L399.641 480.417Z" fill="black"/>
</g>
<path d="M236.944 385.239L330.897 385.472C330.897 385.472 316.909 429.389 285.377 430.03C251.661 430.7 239.509 405.871 236.944 385.21V385.239Z" fill="#FFFBFC"/>
<path d="M236.944 385.239L330.897 385.472C330.897 385.472 316.909 429.389 285.377 430.03C251.661 430.7 239.509 405.871 236.944 385.21V385.239Z" stroke="#262830" stroke-width="6.76083" stroke-linecap="round" stroke-linejoin="round"/>
<path d="M301.649 418.682C301.993 410.82 293.929 404.082 283.638 403.632C273.347 403.183 264.727 409.193 264.384 417.055C264.04 424.918 272.104 431.656 282.395 432.106C292.686 432.555 301.306 426.545 301.649 418.682Z" fill="#262830"/>
<path d="M395.27 385.239L489.222 385.472C489.222 385.472 475.234 429.389 443.703 430.03C409.987 430.7 397.835 405.871 395.27 385.21V385.239Z" fill="#FFFBFC"/>
<path d="M395.27 385.239L489.222 385.472C489.222 385.472 475.234 429.389 443.703 430.03C409.987 430.7 397.835 405.871 395.27 385.21V385.239Z" stroke="#262830" stroke-width="6.76083" stroke-linecap="round" stroke-linejoin="round"/>
<path d="M460.005 418.689C460.348 410.827 452.285 404.088 441.994 403.639C431.703 403.19 423.083 409.2 422.74 417.062C422.396 424.925 430.46 431.663 440.751 432.112C451.041 432.562 459.662 426.552 460.005 418.689Z" fill="#262830"/>
<path opacity="0.7" d="M281.385 453.924C316.246 453.924 344.506 425.664 344.506 390.803C344.506 355.943 316.246 327.683 281.385 327.683C246.525 327.683 218.265 355.943 218.265 390.803C218.265 425.664 246.525 453.924 281.385 453.924Z" fill="url(#paint3_linear_2059_3168)"/>
<path opacity="0.7" d="M438.487 453.924C473.348 453.924 501.608 425.664 501.608 390.803C501.608 355.943 473.348 327.683 438.487 327.683C403.627 327.683 375.367 355.943 375.367 390.803C375.367 425.664 403.627 453.924 438.487 453.924Z" fill="url(#paint4_linear_2059_3168)"/>
<path d="M439.478 321.621C413.804 321.621 391.307 335.492 379.067 356.125C374.638 350.442 368.052 346.916 360.796 346.916C353.54 346.916 347.245 350.355 342.786 355.892C330.518 335.405 308.079 321.65 282.522 321.65C243.793 321.65 212.32 353.152 212.32 391.852C212.32 430.552 243.822 462.054 282.522 462.054C321.222 462.054 352.724 430.552 352.724 391.852C352.724 383.314 351.179 375.125 348.381 367.548C350.363 361.632 355.346 357.611 360.825 357.611C366.303 357.611 371.578 361.866 373.443 368.102C370.762 375.533 369.305 383.518 369.305 391.852C369.305 430.581 400.807 462.054 439.507 462.054C478.207 462.054 509.709 430.552 509.709 391.852C509.709 353.152 478.207 321.65 439.507 321.65L439.478 321.621ZM282.492 451.039C249.854 451.039 223.306 424.491 223.306 391.852C223.306 359.214 249.854 332.666 282.492 332.666C315.131 332.666 341.679 359.214 341.679 391.852C341.679 424.491 315.131 451.039 282.492 451.039ZM439.478 451.039C406.839 451.039 380.291 424.491 380.291 391.852C380.291 359.214 406.839 332.666 439.478 332.666C472.116 332.666 498.664 359.214 498.664 391.852C498.664 424.491 472.116 451.039 439.478 451.039Z" fill="#262830"/>
<path d="M397.806 469.461C389.413 489.51 377.581 502.362 362.69 507.665C354.093 510.725 345.38 510.929 337.832 509.968L333.607 526.374C343.748 527.919 355.842 527.89 368.14 523.577C387.752 516.67 402.964 500.642 413.309 475.959L397.806 469.461Z" fill="#262830"/>
<path opacity="0.2" d="M522.123 633.091C536.082 626.884 552.547 623.299 562.106 621.347L565.311 698.543C548.788 705.129 531.944 705.42 531.128 700.787C529.671 692.539 545.029 684.788 545.029 684.788C545.029 684.788 527.719 689.538 527.893 679.455C527.981 674.705 531.478 671.295 534.975 669.226C537.743 667.361 540.337 666.691 540.337 666.691C540.337 666.691 523.872 670.742 523.872 660.542C523.872 650.342 535.674 648.594 535.674 648.594C535.674 648.594 517.577 649.905 514.751 643.64C513.41 640.668 515.246 636.18 522.153 633.091H522.123Z" fill="black"/>
<path d="M565.369 609.867C555.811 611.848 539.346 615.403 525.387 621.611C518.481 624.671 516.645 629.158 517.985 632.16C520.812 638.425 538.909 637.114 538.909 637.114C538.909 637.114 527.107 638.892 527.107 649.062C527.107 659.232 543.571 655.211 543.571 655.211C543.571 655.211 531.449 658.271 531.449 669.898C531.449 681.526 548.263 673.279 548.263 673.279C548.263 673.279 532.906 681.03 534.363 689.277C535.82 697.524 587.663 690.239 598.824 659.728C604.069 645.39 610.131 611.382 579.853 608.176C579.853 608.176 574.141 593.81 581.718 579.676C592.5 559.568 568.517 562.104 566.331 574.46C564.145 586.816 565.369 609.837 565.369 609.837V609.867Z" fill="#F5F0E3"/>
<path opacity="0.2" d="M544.154 636.123C544.154 636.123 556.19 631.228 558.026 631.373C559.862 631.519 562.28 637.114 553.072 638.513C543.863 639.941 534.159 643.117 532.119 645.594C530.079 648.071 528.01 648.625 528.505 646.643C529.001 644.662 528.942 641.398 531.769 639.766C534.596 638.134 544.154 636.094 544.154 636.094V636.123Z" fill="black"/>
<path opacity="0.2" d="M555.694 651.714C555.694 651.714 566.04 647.052 568.167 648.188C570.294 649.325 572.072 654.483 566.185 656.056C557.88 658.242 549.196 658.475 544.591 660.952C539.987 663.429 532.702 671.297 533.692 666.402C534.683 661.506 538.501 655.561 542.056 654.658C545.611 653.754 555.724 651.744 555.724 651.744L555.694 651.714Z" fill="black"/>
<path opacity="0.2" d="M577.376 665.09C577.376 665.09 579.911 669.053 574.112 671.18C568.313 673.308 550.245 677.125 547.127 680.797C544.009 684.469 543.863 690.647 539.987 688.811C536.111 686.975 532.469 684.061 540.337 678.407C548.205 672.754 577.376 665.09 577.376 665.09Z" fill="black"/>
<path d="M565.369 609.867C555.811 611.848 539.346 615.404 525.387 621.611C518.481 624.671 516.645 629.158 517.985 632.16C520.812 638.425 538.909 637.114 538.909 637.114C538.909 637.114 527.107 638.892 527.107 649.062C527.107 659.232 543.571 655.211 543.571 655.211C543.571 655.211 530.662 659.407 531.128 667.975C531.594 676.542 548.263 673.308 548.263 673.308C548.263 673.308 537.452 678.786 536.782 687.849C536.199 696.184 587.663 690.268 598.824 659.728C604.069 645.39 610.131 611.382 579.853 608.176C579.853 608.176 574.141 593.81 581.718 579.676C592.5 559.568 568.517 562.104 566.331 574.46C564.145 586.816 565.369 609.837 565.369 609.837V609.867Z" stroke="#262830" stroke-width="6.0323" stroke-linecap="round" stroke-linejoin="round"/>
<path d="M538.938 637.114L555.578 633.005" stroke="#262830" stroke-width="6.0323" stroke-linecap="round" stroke-linejoin="round"/>
<path d="M543.601 655.212L565.894 649.5" stroke="#262830" stroke-width="6.0323" stroke-linecap="round" stroke-linejoin="round"/>
<path d="M548.293 673.308L574.637 665.644" stroke="#262830" stroke-width="6.0323" stroke-linecap="round" stroke-linejoin="round"/>
<defs>
<linearGradient id="paint0_linear_2059_3168" x1="342.728" y1="4.82728" x2="362.457" y2="689.42" gradientUnits="userSpaceOnUse">
<stop stop-color="#6082D8"/>
<stop offset="1" stop-color="#60AED8"/>
</linearGradient>
<linearGradient id="paint1_linear_2059_3168" x1="364.322" y1="527.888" x2="368.839" y2="913.11" gradientUnits="userSpaceOnUse">
<stop stop-color="#68CDED"/>
<stop offset="1" stop-color="#3B53A7"/>
</linearGradient>
<linearGradient id="paint2_linear_2059_3168" x1="364.118" y1="464.62" x2="367.528" y2="-65.6105" gradientUnits="userSpaceOnUse">
<stop stop-color="#68CDED"/>
<stop offset="1" stop-color="#3B53A7"/>
</linearGradient>
<linearGradient id="paint3_linear_2059_3168" x1="300.968" y1="333.132" x2="263.084" y2="444.657" gradientUnits="userSpaceOnUse">
<stop stop-color="white"/>
<stop offset="1" stop-color="white" stop-opacity="0"/>
</linearGradient>
<linearGradient id="paint4_linear_2059_3168" x1="458.099" y1="-0.0429607" x2="420.215" y2="444.657" gradientUnits="userSpaceOnUse">
<stop stop-color="white"/>
<stop offset="1" stop-color="white" stop-opacity="0"/>
</linearGradient>
</defs>
</svg>
