<svg width="881" height="958" viewBox="0 0 881 958" fill="none" xmlns="http://www.w3.org/2000/svg">
<g opacity="0.2">
<path d="M673.665 168.224C673.578 169.914 672.878 171.109 671.48 172.1C662.941 178.161 654.461 184.281 645.952 190.401C620.832 208.41 595.682 226.391 570.562 244.4C542.616 264.42 514.64 284.441 486.693 304.461C462.535 321.771 438.347 339.023 414.247 356.391C405.505 362.686 406.671 373.876 416.404 378.393C418.094 379.792 422.99 379.646 425.554 378.16C429.051 375.683 683.078 194.86 683.398 194.131C685.934 192.324 688.382 190.139 691.879 191.654C692.928 192.47 729.704 203.107 730.375 202.728C731.948 203.398 732.968 202.524 734.192 201.679C738.243 198.91 813.603 145.902 815.351 143.6C807.25 141.297 770.036 130.573 759.283 127.484C757.505 126.989 756.281 126.377 756.398 124.075C757.389 105.92 759.283 66.1705 759.312 65.2672H759.05L758.992 65.0049C756.602 66.5785 682.349 120.228 678.27 123.171C676.375 124.541 675.822 125.94 675.734 128.213C675.181 141.56 674.394 154.877 673.694 168.195L673.665 168.224Z" fill="url(#paint0_linear_2059_3077)"/>
<path d="M782.101 429.77C782.421 427.846 782.742 425.923 783.062 424.029C784.432 417.414 785.044 410.711 785.831 404.009C789.299 374.547 788.424 345.114 784.374 315.826C779.594 281.206 769.949 247.898 755.378 216.075C754.912 215.084 754.649 214.006 753.513 213.54C748.5 217.095 743.488 220.621 738.505 224.235C737.193 225.196 736.028 225.75 734.221 225.196C722.011 221.583 709.713 218.173 697.503 214.501C694.035 213.452 691.325 213.773 688.585 216.162C686.138 218.29 683.457 220.155 680.688 221.874C678.473 223.244 678.24 224.497 679.522 226.828C694.705 254.484 705.021 283.917 710.471 314.952C717.057 352.72 716.59 390.341 708.343 427.905C704.642 444.778 699.776 461.214 693.423 477.241C684.156 500.671 671.887 522.44 656.85 542.548C637.734 568.076 615.032 589.961 588.747 608.174C572.748 619.248 555.904 628.719 538.099 636.5C516.388 645.971 493.833 652.644 470.461 656.578C441.524 661.445 412.47 662.028 383.415 658.21C366.339 655.966 349.524 652.294 333.001 647.136C317.76 642.386 302.985 636.529 288.822 629.36C260.73 615.168 235.406 597.042 213.229 574.603C199.387 560.615 186.943 545.549 176.074 529.084C160.133 504.984 148.069 479.194 139.647 451.626C134.081 433.413 130.525 414.82 128.107 395.995C126.97 387.078 127.495 377.927 127.349 368.864C126.912 344.269 130.263 320.139 135.946 296.243C139.792 280.041 145.184 264.363 151.769 249.092C162.086 225.196 175.432 203.165 191.723 182.912C210.053 160.152 231.238 140.598 255.368 124.046C282.324 105.512 311.552 92.0195 343.025 83.3354C373.07 75.03 403.698 71.7662 434.879 73.2815C459.708 74.5055 483.954 78.7019 507.675 85.8707C526.355 91.495 544.306 99.0718 561.499 108.455C581.549 119.413 600.17 132.41 617.16 147.709C623.862 153.741 630.448 159.919 636.451 166.68C637.996 168.429 639.395 169.245 641.58 167.38C643.562 165.66 645.835 164.232 648.137 162.979C652.042 160.852 654.257 158.317 654.257 153.246C654.257 141.589 655.248 129.962 655.685 118.305C655.801 115.333 656.588 113.205 659.211 111.37C663.99 107.989 669.235 105.133 673.228 100.733C664.952 91.9321 655.539 84.3553 646.039 77.0117C626.281 61.7415 605.182 48.5695 582.743 37.4957C557.653 25.1397 531.425 16.0476 504.294 9.51988C486.693 5.29435 468.829 2.67162 450.732 1.27282C432.665 -0.125969 414.626 -0.475667 396.587 0.748277C369.224 2.61333 342.384 7.42169 316.099 15.3482C292.814 22.3421 270.434 31.4343 249.015 42.8286C214.424 61.2461 183.446 84.6176 156.316 112.943C132.012 138.325 111.642 166.534 95.4681 197.745C85.0354 217.882 76.4387 238.805 69.9692 260.545C66.4431 272.435 63.325 284.441 60.8188 296.564C59.3326 302.742 58.4001 308.978 57.6424 315.273C56.535 323.374 55.9813 331.534 55.3111 339.693C53.5917 360.267 53.8248 380.841 55.8065 401.357C59.1286 435.686 67.0551 468.936 79.7316 501.05C88.3867 522.964 98.9942 543.888 111.671 563.733C129.593 591.797 150.837 617.062 175.607 639.385C195.802 657.569 217.775 673.335 241.467 686.682C261.021 697.697 281.449 706.818 302.693 714.016C317.526 719.058 332.622 723.254 348.067 726.052C357.392 727.859 366.746 729.461 376.159 730.656C397.695 733.629 419.347 734.182 441.057 733.075C474.687 731.355 507.442 724.973 539.293 714.104C577.207 701.165 612.089 682.485 643.941 658.094C683.398 627.932 715.367 591.272 740.02 548.23C754.708 522.615 765.985 495.542 773.97 467.129C777.438 454.832 780.527 442.446 782.159 429.741L782.101 429.77Z" fill="url(#paint1_linear_2059_3077)"/>
<path d="M520.118 254.687C538.652 241.281 557.274 227.993 575.924 214.734C577.819 213.393 577.556 212.606 576.128 211.149C572.573 207.565 568.843 204.155 564.996 200.862C530.988 171.75 491.997 153.973 447.352 148.67C430.887 146.717 414.51 146.601 398.015 148.262C370.069 151.059 343.725 159.132 319.013 172.216C289.201 187.982 264.11 209.401 244.032 236.619C230.86 254.483 220.544 273.862 213.258 294.756C207.78 310.463 204.312 326.666 202.505 343.306C200.349 363.093 200.815 382.764 204.137 402.259C211.976 448.332 232.258 488.227 265.188 521.477C298.351 554.932 338.304 575.447 384.669 583.49C405.243 586.929 425.846 587.395 446.565 584.977C474.949 581.684 501.584 573.087 526.588 559.42C545.384 549.162 562.374 536.398 577.411 521.098C592.448 505.799 605.124 488.81 615.149 469.809C623.629 453.752 629.982 436.967 634.382 419.365C639.016 400.89 641.085 382.181 640.823 363.18C640.531 344.209 637.792 325.53 632.576 307.229C628.904 294.348 624.154 281.876 618.18 269.869C617.509 268.529 617.131 267.334 615.12 268.791C596.673 282.138 578.168 295.426 559.576 308.598C557.536 310.055 557.42 311.367 558.177 313.436C559.984 318.419 561.966 323.373 563.277 328.502C570.533 357.061 569.892 385.415 560.538 413.479C552.611 437.287 539.527 457.89 521.109 474.793C498.408 495.629 471.685 508.451 440.941 512.531C417.832 515.591 395.276 513.434 373.245 505.828C341.51 494.9 316.448 475.434 297.973 447.4C281.304 422.105 273.115 394.245 273.902 364.084C274.834 329.114 286.199 297.758 309.163 271.006C327.58 249.558 350.34 234.492 377.354 226.128C397.141 220.008 417.395 218.143 438.056 220.678C467.314 224.263 493.308 235.249 515.835 254.308C517.321 255.561 518.282 255.94 520.089 254.628L520.118 254.687Z" fill="url(#paint2_linear_2059_3077)"/>
<path d="M433.597 316.643C439.717 312.155 445.924 307.784 452.102 303.412C453.938 302.101 454.113 301.431 451.723 300.498C444.001 297.467 436.307 294.816 427.827 294.116C406.525 292.339 387.845 298.546 372.313 312.708C352.613 330.689 344.628 353.332 349.262 379.88C354.507 409.954 378.928 433.908 413.956 439.678C431.353 442.213 451.315 436.764 468.334 422.222C486.868 406.369 495.523 385.941 493.804 361.404C493.716 359.947 494.62 357.82 492.842 357.178C491.327 356.625 490.19 358.461 488.966 359.306C472.793 370.846 456.706 382.502 440.446 393.926C429.721 401.444 418.007 401.969 406.437 396.549C385.077 386.495 381.259 357.528 399.269 341.85C409.964 332.525 422.174 325.035 433.626 316.672L433.597 316.643Z" fill="url(#paint3_linear_2059_3077)"/>
</g>
<path d="M863.901 934.996C863.144 932.286 844.522 868.787 765.928 864.911C760.391 864.649 754.912 864.503 749.696 864.503C713.939 864.503 692.141 870.856 679.756 876.597L581.87 799.984L582.132 799.751C613.022 773.96 643.883 745.722 673.869 715.852C693.249 696.56 712.832 676.045 732.094 654.859C740.166 645.971 748.326 636.762 756.369 627.553C760.595 622.716 761.819 615.926 759.546 609.923C757.272 603.89 751.91 599.607 745.528 598.762C704.643 593.196 663.466 588.096 622.114 583.404L621.094 527.161C621.59 525.441 622.376 523.897 623.513 522.76C624.708 521.536 626.077 520.924 627.768 520.924C645.777 521.74 664.078 522.644 682.087 523.635C682.408 523.635 682.728 523.635 683.049 523.635C689.606 523.635 695.667 519.934 698.64 514.018C701.758 507.811 700.942 500.351 696.512 495.018C690.713 487.995 684.885 481.001 679.086 474.123C679.465 473.89 679.814 473.657 680.164 473.424L721.72 444.224C727.111 440.436 729.909 433.937 728.976 427.438C728.247 422.251 727.286 417.443 726.149 412.984C728.102 411.236 729.705 409.05 730.754 406.515L751.328 356.013C754.009 349.427 752.435 341.908 747.364 336.925C726.499 316.468 703.652 306.122 679.435 306.122C637.763 306.122 603.697 337.158 584.667 359.393L550.659 321.596C548.299 318.974 545.18 317.109 541.713 316.293L529.123 313.291L482.118 269.404C484.479 267.218 486.227 264.363 487.101 261.128C488.821 254.658 486.693 247.752 481.623 243.381C476.785 239.213 471.948 235.104 467.139 231.083C452.773 219.047 438.318 207.42 424.127 196.55C422.64 195.414 421.154 194.306 419.668 193.17L415.88 190.314C414.422 189.207 412.965 188.099 411.508 187.021C407.312 183.903 403.116 180.814 398.948 177.783C395.859 175.539 392.275 174.461 388.69 174.461C383.503 174.461 378.345 176.763 374.907 181.163C373.595 182.825 366.514 191.771 366.514 191.771C365.173 193.461 363.862 195.151 362.551 196.783C361.181 198.474 359.84 200.164 358.471 201.825L356.314 204.477C356.314 204.477 351.477 210.48 350.078 212.17C348.708 213.86 347.31 215.521 345.94 217.212L343.842 219.776C336.906 228.198 330.757 235.571 325.104 242.215L319.305 248.976C317.906 250.608 316.507 252.181 315.137 253.784L312.864 256.407C308.726 261.157 304.588 265.878 300.45 270.57C242.925 308.395 213.725 363.327 203.788 385.387C203.758 385.475 202.68 387.864 202.68 387.864C202.68 387.923 201.66 390.254 201.631 390.283C201.048 391.682 200.553 392.906 200.145 393.897C196.735 397.015 193.297 400.133 189.858 403.193C162.931 427.264 135.567 449.848 108.524 470.247C107.65 470.889 106.805 471.559 105.93 472.2C104.24 463.982 103.074 460.252 102.142 457.95C98.0038 447.634 87.1923 440.96 74.574 440.96C70.6982 440.96 66.7349 441.572 62.7717 442.767C46.569 447.109 17.9229 464.74 3.96406 533.805C-3.43789 570.436 -0.494592 596.255 12.9688 612.691C18.0103 618.869 24.4214 623.415 31.7359 626.125C23.7512 655.471 13.0854 707.809 27.8601 738.262C33.1347 749.132 43.276 755.368 55.7486 755.368C59.6827 755.368 63.9665 754.727 68.4251 753.503C73.2917 752.279 78.5664 750.21 84.1032 747.471C80.548 754.552 79.0618 762.537 79.7029 771.134C82.2382 804.559 119.568 845.241 154.538 876.393C145.534 875.431 136.296 874.819 127.204 874.819C102.229 874.819 82.2382 879.424 67.8131 888.487C46.8604 901.688 41.7315 931.266 41.2069 934.617C40.4201 939.63 41.8772 944.759 45.1702 948.635C48.4632 952.51 53.2715 954.754 58.3713 954.784C58.3713 954.784 299.255 956.415 299.313 956.415C306.074 956.415 312.223 952.54 315.108 946.42C317.993 940.329 317.119 933.102 312.864 927.857C271.833 877.529 226.576 817.76 209.179 789.26L214.191 789.056L218.883 788.939L223.779 788.852L231.239 788.793C234.474 788.793 237.766 788.793 241.059 788.852L246.363 788.939L251.725 789.056L259.273 789.26L266.879 789.522C266.879 789.522 274.427 789.813 276.758 789.901L275.242 853.604C275.126 858.005 276.962 862.609 279.905 865.902C283.315 869.749 288.123 871.788 292.99 871.788C295.671 871.788 298.352 871.177 300.858 869.923C310.504 865.057 320.266 859.928 329.883 854.682C330.378 854.391 330.874 854.1 331.369 853.779C347.892 844.716 364.474 835.012 380.88 824.871C396.005 842.53 413.694 863.279 428.381 881.376C428.381 881.376 431.791 885.602 432.374 886.33C432.636 886.767 432.927 887.175 433.248 887.583C433.335 887.729 433.452 887.845 433.539 887.962C438.144 893.732 442.777 899.56 447.382 905.418C452.015 911.304 456.648 917.22 461.282 923.194C464.692 927.594 469.879 929.867 475.124 929.867C478.621 929.867 482.176 928.848 485.236 926.72L485.528 926.516C490.307 923.223 493.134 917.803 493.105 912.004L492.463 821.111L639.278 953.472C642.484 956.357 646.651 957.96 650.993 957.96L847.174 957.144C852.624 957.144 857.753 954.55 861.045 950.208C864.339 945.866 865.417 940.213 863.93 934.967L863.901 934.996Z" fill="white"/>
<path opacity="0.15" d="M196.24 955.453C289.233 955.453 364.62 948.865 364.62 940.737C364.62 932.609 289.233 926.021 196.24 926.021C103.246 926.021 27.8601 932.609 27.8601 940.737C27.8601 948.865 103.246 955.453 196.24 955.453Z" fill="#262830"/>
<path opacity="0.15" d="M737.02 955.25C816.397 955.25 880.745 948.701 880.745 940.621C880.745 932.542 816.397 925.992 737.02 925.992C657.642 925.992 593.294 932.542 593.294 940.621C593.294 948.701 657.642 955.25 737.02 955.25Z" fill="#262830"/>
<path d="M300.45 732.61C297.157 732.61 138.627 715.591 105.173 747.967C59.4206 792.204 222.555 908.129 222.555 908.129C222.555 908.129 120.589 875.87 77.197 903.204C62.3931 912.53 58.5464 937.212 58.5464 937.212L299.081 938.844C299.081 938.844 168.73 778.595 186.361 774.282C215.444 767.143 320.762 774.836 320.762 774.836L300.479 732.61H300.45Z" fill="#F5F0E3"/>
<path d="M300.45 732.61C297.157 732.61 138.627 715.591 105.173 747.967C59.4206 792.204 222.555 908.129 222.555 908.129C222.555 908.129 120.589 875.87 77.197 903.204C62.3931 912.53 58.5464 937.212 58.5464 937.212L299.372 938.844C299.372 938.844 168.73 778.595 186.361 774.282C215.444 767.143 320.762 774.836 320.762 774.836L300.479 732.61H300.45Z" stroke="#262830" stroke-width="5.8283" stroke-linecap="round" stroke-linejoin="round"/>
<path opacity="0.15" d="M300.45 732.609C298.206 732.609 223.662 724.683 165.904 729.957C167.914 739.924 175.491 755.514 200.495 772.271C240.127 768.978 320.762 774.835 320.762 774.835L300.479 732.609H300.45Z" fill="black"/>
<path d="M439.222 749.625L650.964 940.531L847.058 939.715C847.058 939.715 831.962 885.687 765.053 882.394C698.144 879.101 678.386 897.752 678.386 897.752L451.287 720.018L439.222 749.625Z" fill="#F5F0E3"/>
<path d="M439.222 749.625L650.964 940.531L847.058 939.715C847.058 939.715 831.962 885.687 765.053 882.394C698.144 879.101 678.386 897.752 678.386 897.752L451.287 720.018L439.222 749.625Z" stroke="#262830" stroke-width="5.8283" stroke-linecap="round" stroke-linejoin="round"/>
<path opacity="0.15" d="M497.534 802.197L507.384 763.905L456.765 724.302L452.51 724.943C452.51 724.943 446.77 738.406 441.233 751.462L497.505 802.197H497.534Z" fill="black"/>
<path d="M743.197 616.099C735.212 625.279 727.198 634.284 719.155 643.143C700.097 664.125 680.893 684.232 661.543 703.466C629.079 735.755 596.207 765.625 562.811 793.076C562.695 786.665 562.578 780.254 562.461 773.843C561.966 746.245 540.664 719.872 514.873 715.122C501.293 712.529 487.713 709.993 474.133 707.516C474.629 775.708 475.095 843.899 475.59 912.119C475.416 912.236 475.27 912.352 475.095 912.469C465.77 900.433 456.474 888.631 447.207 877.033C447.207 877.033 447.178 876.974 447.148 876.945C447.178 876.945 447.236 876.916 447.265 876.887C426.341 850.718 405.563 825.656 384.931 801.643C384.931 801.643 384.902 801.585 384.873 801.585C384.844 801.585 384.815 801.644 384.786 801.673C364.212 814.845 343.434 827.201 322.394 838.711C322.102 838.886 321.782 839.032 321.49 839.207C321.49 839.207 321.519 839.207 321.548 839.236C321.548 839.236 321.519 839.265 321.49 839.294C312.048 844.452 302.519 849.465 292.961 854.273L292.698 853.982C294.097 795.291 295.525 736.6 296.924 677.909C283.227 675.84 269.531 673.829 255.834 671.847C229.782 668.263 207.867 681.843 206.877 701.892C206.643 706.7 206.439 711.48 206.206 716.288C172.839 683.445 140.026 653.575 107.883 626.678C88.6202 610.563 69.6199 595.526 50.8528 581.538C42.9263 575.651 35.0581 569.939 27.2482 564.402C267.112 566.588 506.218 583.869 743.168 616.07L743.197 616.099Z" fill="url(#paint4_linear_2059_3077)"/>
<path d="M388.72 191.918C384.582 197.222 380.415 202.496 376.247 207.713C372.08 212.929 367.884 218.087 363.687 223.216C355.295 233.503 346.902 243.615 338.451 253.552C336.498 255.825 334.575 258.098 332.622 260.342C323.967 270.425 315.254 280.333 306.512 290.067C306.512 290.067 306.57 290.067 306.599 290.067C320.412 286.948 331.428 295.05 331.253 308.105C330.029 385.942 328.805 463.838 327.581 541.762C366.98 543.015 406.35 544.647 445.692 546.716C445.488 460.341 445.284 373.936 445.08 287.531C445.08 273.165 456.299 259.293 470.229 256.612C451.112 240.147 432.199 224.731 413.519 210.423C409.381 207.246 405.243 204.099 401.105 201.039C396.967 197.95 392.829 194.92 388.72 191.947V191.918ZM295.904 323.871C294.039 325.882 292.145 327.863 290.251 329.845C279.935 340.744 269.56 351.38 259.128 361.813C213.608 407.216 167.011 447.985 119.102 484.149C109.661 491.289 100.16 498.225 90.6021 505.014C108.757 504.082 126.942 503.237 145.097 502.479C159.522 501.809 170.712 510.406 170.042 521.596C169.692 527.395 169.342 533.165 168.993 538.964C209.412 539.11 249.802 539.693 290.192 540.684C292.087 468.413 293.981 396.142 295.875 323.871H295.904ZM480.632 292.34C481.361 377.87 482.06 463.4 482.789 548.931C523.091 551.32 563.365 554.118 603.609 557.382C603.435 548.902 603.231 540.392 603.056 531.912C602.706 515.651 614.13 502.887 628.584 503.47C646.739 504.286 664.923 505.189 683.078 506.18C673.782 494.932 664.544 483.916 655.307 473.105C608.476 418.348 562.345 369.39 517.176 326.173C506.83 316.265 496.514 306.677 486.257 297.381C484.391 295.691 482.526 294.001 480.661 292.34H480.632Z" fill="url(#paint5_linear_2059_3077)"/>
<g opacity="0.3">
<path d="M127.757 492.775C175.666 456.611 222.263 415.842 267.783 370.439C277.05 361.201 286.258 351.73 295.438 342.114C295.584 336.023 295.758 329.962 295.904 323.871C294.039 325.882 292.145 327.863 290.251 329.845C279.935 340.744 269.56 351.381 259.127 361.813C213.608 407.216 167.011 447.985 119.102 484.149C109.661 491.289 100.16 498.225 90.6021 505.015C97.9457 504.636 105.289 504.345 112.662 503.995C117.704 500.323 122.745 496.593 127.757 492.805V492.775Z" fill="white"/>
<path d="M180.125 539.022C180.329 535.496 180.562 531.97 180.766 528.444C181.232 520.255 176.424 513.203 168.643 509.152C169.925 511.892 170.537 514.864 170.362 518.07C169.954 525.034 169.517 531.999 169.109 538.964C172.781 538.964 176.453 539.052 180.125 539.052V539.022Z" fill="white"/>
<path d="M489.287 300.994C491.152 302.655 493.017 304.345 494.882 306.035C505.14 315.332 515.427 324.919 525.801 334.827C534.631 343.278 543.519 352.021 552.437 360.909C540.605 348.961 528.861 337.363 517.146 326.172C506.801 316.264 496.485 306.677 486.227 297.38C484.362 295.69 482.497 294 480.632 292.339C481.361 377.869 482.06 463.4 482.789 548.93C485.644 549.105 488.5 549.309 491.356 549.484C490.657 466.634 489.957 383.814 489.258 300.965L489.287 300.994Z" fill="white"/>
<path d="M336.323 542.051C337.489 466.895 338.684 391.768 339.849 316.7C339.966 308.744 335.886 302.654 329.592 299.798C330.67 302.217 331.253 305.014 331.224 308.045C330 385.882 328.776 463.777 327.552 541.702C330.466 541.789 333.409 541.935 336.323 542.022V542.051Z" fill="white"/>
<path d="M341.248 268.966C343.2 266.722 345.124 264.449 347.076 262.176C355.527 252.239 363.949 242.127 372.313 231.84C376.509 226.711 380.676 221.553 384.873 216.337C389.04 211.12 393.207 205.846 397.345 200.542C401.454 203.514 405.592 206.545 409.73 209.634C413.869 212.723 418.007 215.841 422.145 219.018C437.619 230.878 453.268 243.526 469.033 256.872C469.441 256.785 469.82 256.668 470.228 256.581C451.111 240.116 432.199 224.7 413.519 210.392C409.381 207.215 405.243 204.068 401.105 201.008C396.966 197.919 392.828 194.888 388.719 191.916C384.581 197.22 380.414 202.494 376.247 207.711C372.08 212.927 367.883 218.085 363.687 223.214C355.294 233.501 346.901 243.613 338.45 253.55C336.498 255.823 334.575 258.096 332.622 260.34C323.967 270.423 315.254 280.331 306.511 290.065C306.511 290.065 306.57 290.065 306.599 290.065C312.252 288.782 317.439 289.424 321.577 291.493C328.163 284.091 334.72 276.601 341.277 268.995L341.248 268.966Z" fill="white"/>
</g>
<g opacity="0.3">
<path d="M308.872 677.528C295.175 675.459 281.479 673.448 267.782 671.467C262.187 670.709 256.796 670.767 251.725 671.467C253.095 671.554 254.465 671.671 255.863 671.875C269.56 673.856 283.256 675.867 296.953 677.936C295.554 736.627 294.126 795.318 292.727 854.009C292.815 854.096 292.902 854.213 292.99 854.3C296.924 852.319 300.858 850.279 304.792 848.21C306.162 791.296 307.531 734.412 308.872 677.499V677.528Z" fill="white"/>
<path d="M119.86 626.298C100.597 610.183 81.5971 595.146 62.8299 581.158C55.1948 575.446 47.5889 569.938 40.0412 564.606C35.7866 564.547 31.5611 564.489 27.3064 564.431C35.1163 569.968 43.0137 575.65 50.911 581.566C69.6782 595.554 88.6784 610.591 107.941 626.706C140.084 653.604 172.897 683.474 206.265 716.316C206.439 712.47 206.614 708.623 206.789 704.776C177.356 676.276 148.36 650.107 119.889 626.298H119.86Z" fill="white"/>
<path d="M459.126 876.623C459.126 876.623 459.096 876.564 459.067 876.535C459.096 876.535 459.155 876.506 459.184 876.477C438.26 850.308 390.556 794.997 390.527 795.026C387.904 796.717 385.252 798.349 382.629 799.98C401.979 822.594 427.653 852.377 447.265 876.885C447.236 876.885 447.178 876.914 447.148 876.943C447.148 876.943 447.178 877.002 447.207 877.031C456.474 888.629 465.77 900.46 475.095 912.467C475.27 912.35 475.416 912.234 475.591 912.117C475.561 907.163 475.532 902.209 475.474 897.284C470.025 890.319 464.546 883.413 459.126 876.623Z" fill="white"/>
<path d="M574.41 773.461C573.914 745.864 552.612 719.491 526.822 714.741C513.242 712.147 499.662 709.612 486.082 707.135C486.082 708.009 486.082 708.883 486.082 709.787C495.698 711.564 505.286 713.342 514.874 715.149C540.664 719.87 561.937 746.272 562.462 773.869C562.578 780.28 562.695 786.691 562.811 793.102C566.745 789.868 570.65 786.604 574.584 783.311C574.526 780.018 574.468 776.754 574.41 773.461Z" fill="white"/>
</g>
<path d="M743.197 616.099C735.212 625.279 727.198 634.284 719.155 643.143C700.097 664.125 680.893 684.232 661.543 703.466C629.079 735.755 596.207 765.625 562.811 793.076C562.695 786.665 562.578 780.254 562.461 773.843C561.966 746.245 540.664 719.872 514.873 715.122C501.293 712.529 487.713 709.993 474.133 707.516C474.629 775.708 475.095 843.899 475.59 912.119C475.416 912.236 475.27 912.352 475.095 912.469C465.77 900.433 456.474 888.631 447.207 877.033C447.207 877.033 447.178 876.974 447.148 876.945C447.178 876.945 447.236 876.916 447.265 876.887C426.341 850.718 405.563 825.656 384.931 801.643C384.931 801.643 384.902 801.585 384.873 801.585C384.844 801.585 384.815 801.644 384.786 801.673C364.212 814.845 343.434 827.201 322.394 838.711C322.102 838.886 321.782 839.032 321.49 839.207C321.49 839.207 321.519 839.207 321.548 839.236C321.548 839.236 321.519 839.265 321.49 839.294C312.048 844.452 302.519 849.465 292.961 854.273L292.698 853.982C294.097 795.291 295.525 736.6 296.924 677.909C283.227 675.84 269.531 673.829 255.834 671.847C229.782 668.263 207.867 681.843 206.877 701.892C206.643 706.7 206.439 711.48 206.206 716.288C172.839 683.445 140.026 653.575 107.883 626.678C88.6202 610.563 69.6199 595.526 50.8528 581.538C42.9263 575.651 35.0581 569.939 27.2482 564.402C267.112 566.588 506.218 583.869 743.168 616.07L743.197 616.099Z" stroke="#262830" stroke-width="5.8283" stroke-linecap="round" stroke-linejoin="round"/>
<path d="M388.72 191.918C384.582 197.222 380.415 202.496 376.247 207.713C372.08 212.929 367.884 218.087 363.687 223.216C355.295 233.503 346.902 243.615 338.451 253.552C336.498 255.825 334.575 258.098 332.622 260.342C323.967 270.425 315.254 280.333 306.512 290.067C306.512 290.067 306.57 290.067 306.599 290.067C320.412 286.948 331.428 295.05 331.253 308.105C330.029 385.942 328.805 463.838 327.581 541.762C366.98 543.015 406.35 544.647 445.692 546.716C445.488 460.341 445.284 373.936 445.08 287.531C445.08 273.165 456.299 259.293 470.229 256.612C451.112 240.147 432.199 224.731 413.519 210.423C409.381 207.246 405.243 204.099 401.105 201.039C396.967 197.95 392.829 194.92 388.72 191.947V191.918ZM295.904 323.871C294.039 325.882 292.145 327.863 290.251 329.845C279.935 340.744 269.56 351.38 259.128 361.813C213.608 407.216 167.011 447.985 119.102 484.149C109.661 491.289 100.16 498.225 90.6021 505.014C108.757 504.082 126.942 503.237 145.097 502.479C159.522 501.809 170.712 510.406 170.042 521.596C169.692 527.395 169.342 533.165 168.993 538.964C209.412 539.11 249.802 539.693 290.192 540.684C292.087 468.413 293.981 396.142 295.875 323.871H295.904ZM480.632 292.34C481.361 377.87 482.06 463.4 482.789 548.931C523.091 551.32 563.365 554.118 603.61 557.382C603.435 548.902 603.231 540.392 603.056 531.912C602.706 515.651 614.13 502.887 628.584 503.47C646.739 504.286 664.923 505.189 683.078 506.18C673.782 494.932 664.544 483.916 655.307 473.105C608.476 418.348 562.345 369.39 517.176 326.173C506.83 316.265 496.514 306.677 486.257 297.381C484.391 295.691 482.526 294.001 480.661 292.34H480.632Z" stroke="#262830" stroke-width="5.8283" stroke-linecap="round" stroke-linejoin="round"/>
<g opacity="0.2">
<path d="M352.147 454.158C352.147 454.158 348.038 513.403 329.941 516.9C312.165 520.338 296.399 455.382 296.399 455.382L278.302 460.307C278.302 460.307 297.681 532.17 328.979 532.782C368 533.54 352.147 454.129 352.147 454.129V454.158Z" fill="black"/>
<path d="M455.891 458.15C455.891 458.15 440.125 523.077 422.349 519.668C404.252 516.171 400.143 456.926 400.143 456.926C400.143 456.926 384.29 536.336 423.311 535.579C454.609 534.967 473.988 463.104 473.988 463.104L455.891 458.179V458.15Z" fill="black"/>
<path d="M361.793 663.219C374.121 663.219 384.115 642.056 384.115 615.951C384.115 589.846 374.121 568.684 361.793 568.684C349.464 568.684 339.47 589.846 339.47 615.951C339.47 642.056 349.464 663.219 361.793 663.219Z" fill="black"/>
</g>
<path d="M583.822 389.38C583.822 389.38 657.608 273.484 735.154 349.456L714.58 399.958C714.58 399.958 700.621 340.072 637.239 376.091C637.239 376.091 700.359 351.088 711.695 429.974L670.139 459.173C670.139 459.173 662.3 392.294 583.793 389.38H583.822Z" fill="#4DE29B"/>
<path opacity="0.2" d="M654.257 395.266C616.694 363.443 587.348 387.048 587.348 387.048C587.348 387.048 587.844 388.009 588.66 389.7C662.621 395.149 670.198 459.202 670.198 459.202L688.411 446.38C684.215 432.304 674.919 412.78 654.286 395.295L654.257 395.266Z" fill="black"/>
<path opacity="0.2" d="M637.239 376.06C700.622 340.012 714.58 399.927 714.58 399.927L725.596 372.913C725.304 372.68 725.042 372.447 724.751 372.214C667.167 326.957 634.791 374.545 634.791 374.545L637.268 376.06H637.239Z" fill="black"/>
<path d="M583.822 389.38C583.822 389.38 657.608 273.484 735.154 349.456L714.58 399.958C714.58 399.958 700.621 340.072 637.239 376.091C637.239 376.091 700.359 351.088 711.695 429.974L670.139 459.173C670.139 459.173 662.3 392.294 583.793 389.38H583.822Z" stroke="#262830" stroke-width="5.8283" stroke-linecap="round" stroke-linejoin="round"/>
<path d="M215.415 403.019C215.415 403.019 242.284 325.882 317.177 280.625L537.691 333.284L613.401 419.688L215.444 403.019H215.415Z" fill="#FF532D"/>
<path d="M345.532 396.873C377.334 396.873 403.116 376.519 403.116 351.412C403.116 326.305 377.334 305.951 345.532 305.951C313.729 305.951 287.948 326.305 287.948 351.412C287.948 376.519 313.729 396.873 345.532 396.873Z" fill="white"/>
<path d="M215.415 403.019C215.415 403.019 242.284 325.882 317.177 280.625L537.691 333.284L616.14 420.504L215.415 403.019Z" stroke="#262830" stroke-width="5.8283" stroke-linecap="round" stroke-linejoin="round"/>
<path d="M345.532 396.873C377.334 396.873 403.116 376.519 403.116 351.412C403.116 326.305 377.334 305.951 345.532 305.951C313.729 305.951 287.948 326.305 287.948 351.412C287.948 376.519 313.729 396.873 345.532 396.873Z" stroke="#262830" stroke-width="5.8283" stroke-linecap="round" stroke-linejoin="round"/>
<path opacity="0.2" d="M36.5443 571.078C41.3235 574.516 46.1027 578.013 50.8819 581.598C67.7257 594.158 84.8026 607.621 102.054 621.9C104.881 620.531 111.147 617.442 122.366 611.264C137.024 603.192 120.851 572.564 117.121 565.978C90.5435 565.308 63.9665 564.871 37.3602 564.579C37.0397 566.823 36.7483 568.98 36.5151 571.078H36.5443Z" fill="black"/>
<path d="M416.929 654.801C416.929 654.801 441.204 655.617 447.178 667.157" stroke="#262830" stroke-width="5.8283" stroke-linecap="round" stroke-linejoin="round"/>
<path d="M442.223 646.992C442.223 646.992 459.912 651.509 464.837 669.198" stroke="#262830" stroke-width="5.8283" stroke-linecap="round" stroke-linejoin="round"/>
<path d="M136.995 653.403C114.527 670.334 81.8014 693.152 71.3687 691.053C54.9038 687.76 82.0637 606.31 82.0637 606.31C82.0637 606.31 87.8337 603.833 104.269 594.799C120.734 585.736 98.2955 548.231 98.2955 548.231C98.2955 548.231 89.4365 477.125 84.5115 464.769C79.5866 452.413 38.4388 451.598 21.1579 537.186C3.87695 622.746 54.6123 610.972 54.6123 610.972C54.6123 610.972 26.0828 694.346 43.6551 730.569C57.3225 758.749 125.426 697.931 154.976 669.518C148.943 664.039 142.969 658.677 136.995 653.403Z" fill="#F5F0E3"/>
<path d="M138.423 652.996C115.955 669.928 83.2294 692.745 72.7967 690.647C56.3317 687.354 83.4916 605.904 83.4916 605.904C83.4916 605.904 89.2617 603.427 105.697 594.393C122.162 585.33 99.7235 547.825 99.7235 547.825C99.7235 547.825 90.8644 476.719 85.9395 464.363C81.0146 452.007 39.8668 451.191 22.5858 536.78C5.30492 622.339 56.0403 610.566 56.0403 610.566C56.0403 610.566 27.5108 693.94 45.0831 730.163C58.7505 758.343 126.854 697.525 156.404 669.112C150.371 663.633 144.397 658.271 138.423 652.996Z" stroke="#262830" stroke-width="5.8283" stroke-linecap="round" stroke-linejoin="round"/>
<path d="M71.8348 461.303L74.7781 509.153" stroke="#262830" stroke-width="5.8283" stroke-linecap="round" stroke-linejoin="round"/>
<path d="M54.6997 468.853L57.1476 517.402" stroke="#262830" stroke-width="5.8283" stroke-linecap="round" stroke-linejoin="round"/>
<path d="M39.4586 487.967L40.9157 537.129" stroke="#262830" stroke-width="5.8283" stroke-linecap="round" stroke-linejoin="round"/>
<path opacity="0.15" d="M136.995 653.404C132.245 656.989 127.058 660.806 121.696 664.624L130.701 691.813C139.997 683.682 148.448 675.814 154.976 669.52C148.943 664.041 142.969 658.679 136.995 653.404Z" fill="black"/>
<path opacity="0.2" d="M58.2549 533.778C58.2549 533.778 55.2242 544.998 63.8792 560.239C68.5418 568.457 56.3315 581.221 56.3315 581.221L89.8734 566.125C89.8734 566.125 60.4696 554.877 58.2549 533.749V533.778Z" fill="black"/>
<path d="M99.7526 547.825C99.7526 547.825 75.1572 513.642 59.4208 527.251C56.3318 529.932 60.2367 551.934 89.8737 566.126C89.8737 566.126 68.0758 572.712 56.5358 584.631" stroke="#262830" stroke-width="5.8283" stroke-linecap="round" stroke-linejoin="round"/>
<path d="M272.124 446.206L290.221 441.281C290.221 441.281 305.987 506.208 323.763 502.798C341.86 499.301 345.969 440.057 345.969 440.057C345.969 440.057 361.822 519.467 322.801 518.71C291.503 518.098 272.124 446.235 272.124 446.235V446.206Z" fill="#262830"/>
<path d="M467.81 448.946L449.713 444.021C449.713 444.021 433.947 508.948 416.171 505.539C398.074 502.042 393.965 442.797 393.965 442.797C393.965 442.797 378.112 522.207 417.133 521.45C448.431 520.838 467.81 448.975 467.81 448.975V448.946Z" fill="#262830"/>
<path d="M355.294 649.088C366.593 649.088 375.752 627.913 375.752 601.792C375.752 575.671 366.593 554.495 355.294 554.495C343.996 554.495 334.837 575.671 334.837 601.792C334.837 627.913 343.996 649.088 355.294 649.088Z" fill="#262830"/>
<path d="M340.345 571.628L375.548 580.196C372.721 561.953 365.173 555.513 356.314 555.513C347.455 555.513 343.084 559.155 340.345 571.628Z" fill="white"/>
<path d="M353.633 627.784C347.951 630.115 343.579 634.253 340.898 639.295C347.863 646.434 355.527 649.756 361.589 647.25C367.65 644.744 370.827 637.022 370.797 627.055C365.348 625.336 359.316 625.452 353.633 627.784Z" fill="#FF532D"/>
<path d="M355.294 649.088C366.593 649.088 375.752 627.913 375.752 601.792C375.752 575.671 366.593 554.495 355.294 554.495C343.996 554.495 334.837 575.671 334.837 601.792C334.837 627.913 343.996 649.088 355.294 649.088Z" stroke="#262830" stroke-width="6.14886" stroke-linecap="round" stroke-linejoin="round"/>
<path opacity="0.2" d="M448.343 675.985C442.69 664.415 427.42 673.478 427.42 673.478C427.42 673.478 353.458 711.625 295.642 732.84C295.234 750.004 294.826 767.197 294.418 784.362C367.213 759.417 443.156 697.841 445.954 695.538C449.946 692.245 452.365 682.25 448.372 675.985H448.343Z" fill="black"/>
<g opacity="0.2">
<path d="M295.584 335.671L285.471 334.797C276.729 343.947 267.957 352.981 259.127 361.782C240.127 380.724 220.952 398.821 201.544 416.16L293.398 418.724C294.126 391.04 294.855 363.356 295.584 335.671Z" fill="black"/>
<path d="M548.765 357.236L481.128 351.466C481.332 375.624 481.536 399.782 481.74 423.941L613.634 427.613L612.527 424.553C591.108 400.89 569.835 378.422 548.736 357.207L548.765 357.236Z" fill="black"/>
<path d="M445.225 348.406L330.757 338.673C330.32 365.687 329.912 392.701 329.475 419.745L445.4 422.95C445.342 398.092 445.284 373.264 445.225 348.406Z" fill="black"/>
</g>
<path d="M215.415 403.019C215.415 403.019 242.284 325.882 317.177 280.625L537.691 333.284L613.401 419.688L215.444 403.019H215.415Z" fill="#4DE29B"/>
<path opacity="0.2" d="M604.513 409.547L463.613 404.039L219.728 392.499C216.756 399.085 215.386 403.019 215.386 403.019L613.342 419.688L604.483 409.576L604.513 409.547Z" fill="black"/>
<path d="M345.532 396.873C377.335 396.873 403.116 376.519 403.116 351.412C403.116 326.305 377.335 305.951 345.532 305.951C313.729 305.951 287.948 326.305 287.948 351.412C287.948 376.519 313.729 396.873 345.532 396.873Z" fill="white"/>
<path opacity="0.2" d="M345.532 305.951C344.862 305.951 344.221 306.009 343.58 306.039C372.313 306.855 395.277 325.447 395.277 348.323C395.277 371.199 371.235 390.695 341.598 390.695C311.961 390.695 289.056 372.54 288.036 349.867C288.036 350.392 287.948 350.887 287.948 351.412C287.948 376.532 313.739 396.873 345.532 396.873C377.325 396.873 403.116 376.532 403.116 351.412C403.116 326.292 377.325 305.951 345.532 305.951Z" fill="black"/>
<path d="M367.65 352.489C367.854 350.74 368.029 348.963 368.175 347.127L347.718 344.883L348.679 336.636L368.029 338.326L369.807 323.814L358.704 324.396L358.15 329.03L349.641 328.476L350.865 318.131L341.306 317.781L340.141 327.864L320.878 326.786L319.101 343.134C318.838 345.524 319.742 347.564 321.869 349.312C323.617 350.74 325.512 351.585 327.552 351.819L337.256 353.042L335.682 366.856C332.039 366.04 327.144 364.641 320.936 362.659L316.74 369.828C323.413 372.859 329.358 375.073 334.575 376.472L333.904 382.417L343.113 384.341L343.842 378.046C357.48 378.833 365.465 370.353 367.621 352.46L367.65 352.489ZM331.282 343.222L332.185 335.324L339.237 335.878L338.305 343.921L331.282 343.222ZM349.991 366.214C348.65 367.06 347.018 367.555 345.066 367.759L346.639 354.237L355.353 355.374C354.711 360.736 352.934 364.349 349.991 366.214Z" fill="#262830"/>
<path d="M215.415 403.019C215.415 403.019 242.284 325.882 317.177 280.625L537.691 333.284L616.14 420.504L215.415 403.019Z" stroke="#262830" stroke-width="5.8283" stroke-linecap="round" stroke-linejoin="round"/>
<path d="M345.532 396.873C377.335 396.873 403.116 376.519 403.116 351.412C403.116 326.305 377.335 305.951 345.532 305.951C313.729 305.951 287.948 326.305 287.948 351.412C287.948 376.519 313.729 396.873 345.532 396.873Z" stroke="#262830" stroke-width="5.8283" stroke-linecap="round" stroke-linejoin="round"/>
<g opacity="0.2">
<path d="M220.893 586.377C225.818 604.474 243.099 601.735 243.099 601.735C243.099 601.735 203.612 663.864 197.755 708.101C200.582 710.841 203.379 713.58 206.206 716.348C206.439 711.54 206.643 706.761 206.876 701.952C207.692 684.934 223.633 672.636 244.352 671.47C251.404 641.192 265.247 599.549 274.776 572.127C257.029 571.194 239.282 570.349 221.505 569.562C219.728 573.263 218.766 578.684 220.864 586.377H220.893Z" fill="black"/>
</g>
<path d="M428.44 664.942C428.44 664.942 226.839 737.621 222.322 705.536C218.3 677.007 267.171 545.083 267.171 545.083C267.171 545.083 240.04 531.386 182.136 527.54C116.043 523.139 124.552 551.96 150.604 558.546C168.323 563.005 200.67 567.318 210.111 564.025C210.111 564.025 198.193 569.649 203.118 587.746C208.042 605.843 225.323 603.104 225.323 603.104C225.323 603.104 152.703 717.397 189.8 746.276C260.963 801.674 439.397 692.044 443.914 689.217C448.431 686.39 452.015 676.861 448.839 670.158C444.73 657.948 428.411 664.942 428.411 664.942H428.44Z" fill="#F5F0E3"/>
<path d="M134.723 538.583L175.025 538.379" stroke="#262830" stroke-width="5.8283" stroke-linecap="round" stroke-linejoin="round"/>
<path d="M134.723 548.64L178.114 551.117" stroke="#262830" stroke-width="5.8283" stroke-linecap="round" stroke-linejoin="round"/>
<path d="M210.141 564.026C210.141 564.026 215.649 560.587 220.748 559.888" stroke="#262830" stroke-width="5.8283" stroke-linecap="round" stroke-linejoin="round"/>
<path opacity="0.15" d="M448.897 670.16C446.42 662.845 439.572 662.437 434.501 663.283C435.317 664.652 436.162 666.08 436.92 667.566C446.187 685.663 403.466 705.567 325.017 736.282C246.568 766.997 189.858 746.307 189.858 746.307C261.022 801.705 439.455 692.074 443.972 689.248C448.373 686.508 452.074 676.892 448.897 670.189V670.16Z" fill="black"/>
<path d="M428.44 664.942C428.44 664.942 226.839 737.621 222.322 705.536C218.3 677.007 267.171 545.083 267.171 545.083C267.171 545.083 240.04 531.386 182.136 527.54C116.043 523.139 124.552 551.96 150.604 558.546C168.323 563.005 200.67 567.318 210.111 564.025C210.111 564.025 198.251 572.33 203.118 587.746C207.314 601.326 225.323 603.104 225.323 603.104C225.323 603.104 152.703 717.397 189.8 746.276C260.963 801.674 439.397 692.044 443.914 689.217C448.431 686.39 452.015 676.861 448.839 670.158C444.73 657.948 428.411 664.942 428.411 664.942H428.44Z" stroke="#262830" stroke-width="5.8283" stroke-linecap="round" stroke-linejoin="round"/>
<defs>
<linearGradient id="paint0_linear_2059_3077" x1="523.601" y1="741.236" x2="649.308" y2="48.0174" gradientUnits="userSpaceOnUse">
<stop stop-color="#59969B"/>
<stop offset="1" stop-color="#4DE29B"/>
</linearGradient>
<linearGradient id="paint1_linear_2059_3077" x1="358.336" y1="711.249" x2="484.038" y2="18.0587" gradientUnits="userSpaceOnUse">
<stop stop-color="#59969B"/>
<stop offset="1" stop-color="#4DE29B"/>
</linearGradient>
<linearGradient id="paint2_linear_2059_3077" x1="358.566" y1="711.286" x2="484.269" y2="18.0957" gradientUnits="userSpaceOnUse">
<stop stop-color="#59969B"/>
<stop offset="1" stop-color="#4DE29B"/>
</linearGradient>
<linearGradient id="paint3_linear_2059_3077" x1="358.508" y1="711.278" x2="484.211" y2="18.0874" gradientUnits="userSpaceOnUse">
<stop stop-color="#59969B"/>
<stop offset="1" stop-color="#4DE29B"/>
</linearGradient>
<linearGradient id="paint4_linear_2059_3077" x1="151.449" y1="422.92" x2="933.928" y2="1089.39" gradientUnits="userSpaceOnUse">
<stop stop-color="#68CDED"/>
<stop offset="1" stop-color="#3B53A7"/>
</linearGradient>
<linearGradient id="paint5_linear_2059_3077" x1="171.645" y1="282.286" x2="1112.13" y2="1133.92" gradientUnits="userSpaceOnUse">
<stop stop-color="#68CDED"/>
<stop offset="1" stop-color="#3B53A7"/>
</linearGradient>
</defs>
</svg>
