<svg width="1029" height="1009" viewBox="0 0 1029 1009" fill="none" xmlns="http://www.w3.org/2000/svg">
<g opacity="0.2">
<path d="M827.01 340.099C792.011 356.447 753.02 379.061 699.953 397.799C572.4 442.822 556.139 419.072 387.323 327.772C251.173 254.16 76.3534 297.348 83.2308 312.735C88.8843 323.196 135.336 326.402 173.54 332.697C179.806 338.146 178.494 344.499 143.495 346.539C78.4808 350.298 -96.6015 385.297 69.7092 389.056C236.02 392.816 313.565 407.823 231.037 415.313C185.751 419.422 151.393 428.834 144.661 437.082C142.184 437.344 139.707 437.606 137.23 437.839C-7.953 451.448 128.75 466.077 273.933 474.295C231.853 487.263 204.43 500.931 269.795 510.372C317.237 517.221 363.281 507.546 363.31 528.09C347.02 540.097 284.715 566.12 653.064 556.329C877.308 550.355 886.138 421.083 902.078 411.845C918.573 409.106 935.854 406.133 953.805 402.811C1130.08 370.347 956.835 350.764 827.01 340.128V340.099Z" fill="url(#paint0_linear_2059_3257)"/>
<path d="M70.3212 289.625C121.581 270.858 251.173 231.633 387.323 305.245C556.14 396.545 572.401 420.295 699.953 375.272C753.02 356.534 795.013 338.262 830.012 321.914C821.531 321.214 810.195 316.231 802.182 315.619C815.237 311.685 902.953 305.245 934.95 298.484C976.972 286.885 847.03 219.423 778.752 222.395C782.831 220.559 785.542 219.19 785.542 219.19C785.542 219.19 790.671 208.262 796.732 189.378C801.22 190.281 807.398 190.893 815.237 190.165C837.21 188.096 850.236 163.034 853.937 146.015C857.638 129.026 856.968 102.944 845.253 101.341C833.538 99.7677 830.624 107.811 831.556 116.495C832.489 125.179 830.099 146.54 822.61 156.943C817.452 164.083 809.088 163.588 804.338 162.597C807.514 149.745 810.458 135.116 812.643 119.059C814.596 104.634 815.383 91.0835 815.237 78.6984C841.406 77.3578 849.449 59.6689 848.312 35.0735C847.118 9.39981 832.489 -2.46079 820.512 0.424221C808.534 3.30923 815.237 21.377 819.579 27.7007C823.921 34.0244 826.835 41.0184 824.446 48.3912C822.901 53.2287 817.393 55.3851 813.78 56.3177C810.516 29.624 802.123 11.498 791.545 6.63137C773.973 -1.44084 746.579 13.6545 759.926 63.1951C763.132 75.114 765.259 88.1693 766.308 101.604C763.423 102.012 758.411 102.157 755.031 99.1266C750.018 94.6388 750.28 88.1985 750.164 83.5941C750.018 78.9898 751.213 56.7256 736.205 56.5799C721.197 56.4342 720.119 87.6739 731.455 106.791C741.538 123.78 753.807 130.425 767.037 127.54C766.308 161.723 758.965 195.206 745.56 216.072C743.869 218.694 742.674 220.938 741.917 222.832C721.285 222.483 697.767 221.2 670.753 218.753C669.471 214.527 668.538 209.806 668.16 204.444C665.77 171.98 664.808 72.6952 664.808 72.6952C664.808 72.6952 659.796 68.4114 652.394 67.916V88.6648C652.394 88.6648 641.903 86.042 640.708 86.042L642.136 36.8803C642.136 36.8803 628.76 31.6348 624.01 31.4017V23.7666C624.01 23.7666 607.05 16.3646 563.396 16.5978V23.7666C563.396 23.7666 550.515 23.5334 535.944 25.9231V36.1809C535.944 36.1809 511.611 37.3757 487.249 44.7776V61.0095C487.249 61.0095 477.224 62.9328 471.25 66.7503V112.095C471.25 112.095 461.954 113.289 457.641 115.184C457.641 115.184 458.37 186.143 455.747 220.093C452.541 219.743 449.365 219.394 446.159 219.073C431.53 217.587 416.668 216.683 401.66 216.246C399.941 209.69 397.231 196.692 397.114 178.916C401.952 178.421 408.509 176.993 416.027 173.991C428.383 169.095 426.256 146.394 427.188 137.419C428.121 128.443 433.599 113.289 422.613 111.541C411.627 109.821 411.335 120.924 410.199 130.162C409.033 139.4 409.091 151.698 406.673 157.206C405.361 160.207 401.252 161.519 397.785 162.072C397.843 161.256 397.901 160.44 397.989 159.624C401.602 121.974 404.225 118.885 403.7 109.763C403.176 100.642 398.076 93.8519 389.683 96.0084C381.29 98.1649 369.576 113.581 371.324 143.305C372.053 155.778 373.131 170.203 374.53 183.404C372.082 183.724 368.701 183.608 365.35 181.597C359.026 177.809 356.316 165.744 356.608 151.756C356.87 137.768 361.853 133.718 357.715 130.221C353.577 126.724 345.184 130.075 343.873 149.192C342.59 168.338 348.011 198.936 364.155 203.395C369.663 204.91 373.918 204.706 377.181 203.803C377.939 208.495 378.784 212.633 379.688 215.955C364.971 215.955 350.196 216.421 335.451 217.237L334.751 194.944L326.329 190.922V161.635C326.329 161.635 319.277 154.903 315.576 154.583V141.469C315.576 141.469 303.453 132.727 277.896 130.366V141.79L268.804 139.109V149.192L259.391 146.831V126.986L245.928 124.625V115.533L227.073 111.483V105.101C227.073 105.101 216.32 101.72 196.125 105.101V114.193C196.125 114.193 177.97 113.522 172.579 117.223V125.296L162.496 128.326V137.419L155.444 139.429V204.357L145.011 204.706V160.644L138.629 162.335L137.288 196.663L130.557 200.714L128.808 248.302C99.929 255.005 46.3668 281.931 70.3212 289.741V289.625Z" fill="url(#paint1_linear_2059_3257)"/>
</g>
<path d="M920.962 494.399C919.738 486.968 913.91 481.14 906.45 479.945C859.561 472.485 812.148 466.861 764.53 463.043C766.833 459.779 767.998 455.816 767.707 451.765L766.687 437.253C767.299 437.107 768.144 436.99 769.222 436.99C770.067 436.99 771 437.078 771.991 437.224C790.408 440.021 809.029 443.168 827.359 446.636C828.438 446.84 829.516 446.928 830.594 446.928C837.297 446.928 843.533 443.081 846.447 436.845C849.828 429.618 847.846 420.992 841.668 415.921C831.731 407.791 821.881 399.602 812.41 391.646C767.853 354.141 724.082 314.917 682.089 274.876C697.039 264.473 709.045 250.397 718.953 231.776C719.04 231.659 719.099 231.514 719.157 231.397C723.266 223.616 726.967 215.253 730.464 205.782C730.639 205.344 730.784 204.878 730.901 204.441C731.076 203.829 731.222 203.188 731.309 202.576C734.398 184.188 729.502 166.207 717.467 151.986C703.537 135.521 682.176 126.458 657.319 126.458C635.783 126.458 612.557 133.394 589.244 146.653C583.299 133.423 577.442 122.262 571.759 113.345C558.82 93.0622 549.932 80.5605 535.886 78.0543C534.312 77.7629 532.68 77.6172 531.078 77.6172C519.479 77.6172 510.912 84.7277 500.071 93.7324C495.729 97.346 490.775 101.455 484.713 106.001C474.951 113.316 466.005 116.725 456.504 116.725C446.276 116.725 435.989 112.82 425.09 108.682C420.282 106.846 415.327 104.981 410.169 103.349C407.896 102.65 405.565 102.3 403.263 102.3C397.901 102.3 392.801 104.165 388.576 107.691C388.226 107.983 387.905 108.274 387.585 108.595C379.425 115.851 371.091 131.034 369.459 196.136C360.279 194.125 351.012 193.134 341.716 193.134C298.266 193.134 258.721 216.185 245.578 249.202C235.466 274.585 242.198 301.191 264.083 322.377C264.258 322.552 264.404 322.727 264.578 322.872C270.203 328.409 275.885 333.188 281.655 337.268C280.694 338.317 279.703 339.396 278.741 340.445C263.85 356.764 249.891 372.442 236.078 388.382C226.49 399.427 216.67 410.938 206.849 422.624C202.07 428.306 201.429 436.379 205.188 442.76C208.364 448.152 214.134 451.328 220.225 451.328C221.361 451.328 222.498 451.212 223.635 450.978C241.965 447.336 260.586 443.955 278.945 440.954C279.441 440.866 279.907 440.837 280.373 440.837C281.743 440.837 282.763 441.187 283.404 441.886C284.191 442.702 284.599 444.13 284.54 445.879L283.637 469.192C283.433 474.466 285.619 479.566 289.611 483.034C290.339 483.675 291.126 484.229 291.971 484.724C242.198 493.146 192.366 503.491 142.679 515.731C136.356 517.304 131.431 522.229 129.886 528.553C128.342 534.877 130.44 541.55 135.336 545.834C143.554 553.061 151.801 560.172 159.844 567.02C179.281 583.456 199.33 599.746 219.467 615.395C228.064 622.097 237.098 628.975 247.327 636.581C204.372 759.675 258.837 837.22 261.256 840.571C261.81 841.329 262.393 842.028 263.063 842.699C269.882 849.518 276.993 850.946 281.743 850.946C285.502 850.946 288.97 850.101 292.03 848.673C295.905 850.188 300.306 851.15 305.202 851.15C310.768 851.15 315.897 849.693 320.122 846.953C323.182 847.828 326.504 848.381 330.001 848.381C336.616 848.381 342.823 845.467 347.02 840.426C352.149 834.219 353.343 826.059 353.139 819.152C354.043 817.433 354.684 815.539 355.005 813.528C355.005 813.528 355.15 812.625 355.296 811.109C358.064 803.27 360.716 791.322 359.784 775.644C359.172 765.445 352.819 741.665 307.475 741.665C306.309 741.665 305.143 741.665 304.007 741.723C300.656 719.139 300.16 697.341 302.579 676.505C310.243 681.838 317.383 686.762 324.289 691.396C327.233 693.378 330.642 694.398 334.081 694.398C336.762 694.398 339.472 693.786 341.949 692.532C347.603 689.677 351.274 684.023 351.566 677.699L352.353 660.127C353.169 642.846 370.974 624.633 390.499 621.165C398.076 619.766 405.711 618.426 413.317 617.114L413.171 623.875C399.999 625.041 388.75 635.532 383.388 651.793C383.214 652.288 382.951 653.075 382.747 654.124C379.746 666.218 385.02 676.534 389.654 685.655C392.16 690.58 394.754 695.68 396.24 701.158C397.318 705.209 398.6 709.726 399.941 714.563C402.855 725.025 406.119 736.653 408.567 746.94C407.343 749.504 406.148 752.098 404.924 754.75C404.924 754.779 404.778 755.041 404.778 755.07C376.89 815.743 355.704 877.144 345.534 908.442C303.045 886.149 272.592 885.42 268.804 885.42C246.219 885.42 233.164 894.833 226.199 902.73C213.231 917.418 208.772 939.449 212.59 970.018C215.387 992.37 243.101 1001.11 311.438 1001.11C334.11 1001.11 359.521 999.976 381.203 998.023C391.14 997.12 399.591 996.1 405.682 995.051C412.617 993.856 428.733 991.087 429.053 975.555C429.374 971.825 439.573 867.644 478.361 778.937C481.858 770.952 485.529 763.23 489.318 755.944L489.522 755.566C490.775 753.147 492.057 750.757 493.368 748.368C495.233 744.987 497.157 741.694 499.051 738.547C509.484 728.114 519.683 718.06 529.475 708.531C541.86 715.904 555.061 723.597 569.457 731.815C574.586 739.13 579.598 747.202 584.377 755.828C635.259 847.595 648.43 978.965 648.809 983.248C649.159 998.81 665.274 1001.58 672.181 1002.74C678.271 1003.79 686.723 1004.81 696.66 1005.72C718.341 1007.67 743.782 1008.81 766.425 1008.81C834.761 1008.81 862.475 1000.09 865.273 977.711C869.09 947.142 864.632 925.14 851.664 910.424C844.699 902.526 831.614 893.084 809.059 893.084C782.278 893.084 751.854 906.198 732.387 916.281C720.702 880.32 694.358 804.203 660.029 735.487C657.843 731.145 655.658 726.832 653.443 722.607L652.831 721.441C651.257 718.468 649.684 715.496 648.11 712.582C649.8 705.355 651.694 697.895 653.385 691.163C654.609 686.325 655.745 681.75 656.736 677.67C658.076 672.163 660.524 667.005 662.914 662.021C667.343 652.783 672.327 642.322 669.004 630.257C668.771 629.237 668.48 628.45 668.276 627.926C662.71 612.364 652.161 602.543 639.572 600.999L639.222 591.178C648.023 590.683 656.852 590.217 665.624 589.838C666.323 589.838 666.994 589.809 667.664 589.809C685.528 589.809 699.603 599.367 700.215 607.847L701.177 621.923C701.643 628.392 705.635 634.075 711.58 636.697C713.853 637.688 716.243 638.184 718.632 638.184C722.508 638.184 726.355 636.901 729.502 634.395C736.467 628.858 743.607 623.292 750.688 617.872C753.573 625.332 756.079 632.996 758.148 640.835C765.026 669.219 766.104 699.789 761.296 731.903C760.159 731.903 759.023 731.874 757.828 731.874C712.484 731.874 706.131 755.624 705.519 765.853C704.557 781.531 707.238 793.508 710.007 801.347C710.181 802.862 710.298 803.766 710.298 803.766C710.589 805.776 711.231 807.671 712.134 809.39C711.93 816.297 713.125 824.456 718.254 830.663C722.508 835.792 728.541 838.619 735.272 838.619C738.769 838.619 742.091 838.065 745.151 837.191C749.377 839.93 754.506 841.387 760.072 841.387C764.967 841.387 769.368 840.455 773.244 838.91C776.333 840.338 779.771 841.183 783.531 841.183C788.281 841.183 795.391 839.755 802.21 832.936C802.881 832.266 803.463 831.567 804.017 830.809C807.019 826.671 874.277 730.591 798.917 582.407C809.729 574.801 820.307 567.603 830.536 560.9C850.061 548.107 869.44 536.246 888.149 525.697C896.133 521.18 904.089 516.867 911.782 512.846C918.456 509.349 922.157 501.976 920.933 494.516L920.962 494.399Z" fill="white"/>
<path opacity="0.15" d="M318.869 996.162C383.424 996.162 435.756 989.404 435.756 981.067C435.756 972.73 383.424 965.972 318.869 965.972C254.314 965.972 201.983 972.73 201.983 981.067C201.983 989.404 254.314 996.162 318.869 996.162Z" fill="#262830"/>
<path opacity="0.15" d="M753.603 1001.64C820.829 1001.64 875.327 994.88 875.327 986.543C875.327 978.206 820.829 971.447 753.603 971.447C686.376 971.447 631.878 978.206 631.878 986.543C631.878 994.88 686.376 1001.64 753.603 1001.64Z" fill="#262830"/>
<path d="M847.059 975.442C862.446 852.289 721.343 942.074 721.343 942.074C721.343 942.074 624.884 618.808 526.881 614.699C514.409 614.174 530.728 621.226 510.941 626.005C515.604 641.334 520.033 655.876 523.559 667.532C639.251 723.979 665.42 976.374 665.42 982.61C665.42 988.847 843.824 1001.41 847.059 975.412V975.442Z" fill="#F5F0E3"/>
<path d="M847.059 975.442C862.446 852.289 721.343 942.074 721.343 942.074C721.343 942.074 624.884 618.808 526.881 614.699C514.409 614.174 530.728 621.226 510.941 626.005C515.604 641.334 520.033 655.876 523.559 667.532C639.251 723.979 665.42 976.374 665.42 982.61C665.42 988.847 843.825 1001.41 847.059 975.412V975.442Z" stroke="#262830" stroke-width="6.0323" stroke-linecap="round" stroke-linejoin="round"/>
<path opacity="0.15" d="M615.238 692.216C599.444 692.012 563.221 691.458 563.221 691.458L563.716 697.957C576.976 712.003 588.632 728.847 598.832 747.235C618.59 756.385 640.038 766.177 640.154 765.507C640.242 764.982 641.786 754.841 643.535 743.213C634.588 725.32 625.117 708.01 615.238 692.187V692.216Z" fill="black"/>
<path d="M229.084 967.777C213.698 844.625 354.801 934.41 354.801 934.41C354.801 934.41 451.259 611.143 549.262 607.034C561.735 606.51 545.415 613.562 565.203 618.341C560.54 633.67 556.11 648.211 552.584 659.868C436.892 716.315 410.723 968.71 410.723 974.946C410.723 981.183 232.319 993.743 229.084 967.748V967.777Z" fill="#F5F0E3"/>
<path d="M229.084 967.777C213.698 844.625 354.801 934.41 354.801 934.41C354.801 934.41 451.259 611.143 549.262 607.034C561.735 606.51 545.416 613.562 565.203 618.341C560.54 633.67 556.11 648.211 552.584 659.868C436.892 716.315 410.723 968.71 410.723 974.946C410.723 981.183 232.319 993.743 229.084 967.748V967.777Z" stroke="#262830" stroke-width="6.0323" stroke-linecap="round" stroke-linejoin="round"/>
<path opacity="0.15" d="M466.937 727.039L437.475 725.961C429.345 741.697 421.593 758.046 414.337 774.336L417.746 804.789L461.43 771.83C466.238 760.814 471.483 750.061 477.166 739.774L466.908 727.039H466.937Z" fill="black"/>
<path d="M429.083 684.201C428.966 703.755 428.412 722.027 427.567 738.696C427.363 743.446 427.101 748.051 426.839 752.509C423.458 735.432 416.464 712.148 412.268 696.528C407.605 679.189 396.094 668.028 398.979 657.799C398.979 657.653 399.038 657.508 399.096 657.362C404.662 640.139 417.921 635.127 427.218 649.698L429.083 684.172V684.201Z" fill="#B77B46"/>
<path d="M429.083 684.201C428.966 703.755 428.412 722.027 427.567 738.696C427.363 743.446 427.101 748.051 426.839 752.509C423.458 735.432 416.464 712.148 412.268 696.528C407.605 679.189 396.094 668.028 398.979 657.799C398.979 657.653 399.038 657.508 399.096 657.362C404.662 640.139 417.921 635.127 427.218 649.698L429.083 684.172V684.201Z" stroke="#262830" stroke-width="6.0323" stroke-linecap="round" stroke-linejoin="round"/>
<path d="M621.737 661.558C622.349 681.112 623.369 699.355 624.622 715.995C624.972 720.745 625.351 725.349 625.7 729.808C628.644 712.672 635.026 689.214 638.843 673.477C643.069 656.021 654.288 644.569 651.141 634.398C651.141 634.253 651.083 634.107 651.024 633.99C645.021 616.913 631.645 612.251 622.728 627.055L621.737 661.587V661.558Z" fill="#B77B46"/>
<path d="M621.737 661.558C622.349 681.112 623.369 699.355 624.622 715.995C624.972 720.745 625.351 725.349 625.7 729.808C628.644 712.672 635.026 689.214 638.843 673.477C643.069 656.021 654.288 644.569 651.141 634.398C651.141 634.253 651.083 634.107 651.024 633.99C645.021 616.913 631.645 612.251 622.728 627.055L621.737 661.587V661.558Z" stroke="#262830" stroke-width="6.0323" stroke-linecap="round" stroke-linejoin="round"/>
<path d="M902.865 497.229C894.88 501.396 886.837 505.767 878.736 510.342C859.532 521.183 840.007 533.102 820.103 546.157C786.94 567.926 752.816 592.725 717.729 620.585C717.409 615.893 717.088 611.201 716.738 606.509C715.31 586.868 691.706 571.161 664.021 572.239C649.451 572.88 634.821 573.696 620.222 574.658C622.261 630.901 624.301 687.202 626.341 743.533C626.254 743.62 626.166 743.708 626.05 743.795C615.617 738.171 605.243 732.488 594.927 726.718C594.927 726.718 594.868 726.689 594.868 726.66C594.868 726.66 594.927 726.66 594.927 726.631C594.606 726.456 594.286 726.252 593.936 726.077C571.031 713.255 548.417 700.083 526.153 686.59C526.124 686.59 526.094 686.532 526.065 686.503C526.065 686.503 526.007 686.532 526.007 686.561C503.626 708.097 480.896 730.681 457.787 754.373C457.816 754.373 457.874 754.403 457.903 754.432L457.845 754.49C447.616 764.981 437.3 775.705 426.897 786.633C426.722 786.516 426.547 786.4 426.343 786.312C427.654 722.988 428.995 659.663 430.335 596.339C415.706 598.699 401.077 601.206 386.448 603.887C358.676 608.841 335.188 633.99 333.964 659.226C333.702 665.113 333.44 670.97 333.178 676.857C297.596 652.844 262.946 627.753 229.317 601.584C209.268 585.994 189.568 570.024 170.247 553.647C162.088 546.74 154.015 539.746 145.972 532.694C398.163 470.564 651.694 457.363 902.807 497.229H902.865Z" fill="url(#paint2_linear_2059_3257)"/>
<path d="M523.064 113.958C518.897 116.989 514.7 120.078 510.475 123.225C506.279 126.372 502.053 129.549 497.827 132.813C478.798 147.442 459.506 163.236 439.952 180.138C454.086 181.45 465.48 193.66 465.393 207.065C464.752 287.787 464.14 368.509 463.557 449.202C504.268 446.142 545.008 444.598 585.747 444.627C584.407 370.403 583.037 296.267 581.668 222.19C581.464 209.804 592.712 201.936 606.846 204.909C606.875 204.909 606.904 204.909 606.933 204.909C597.958 195.613 589.04 186.229 580.181 176.758C578.2 174.631 576.218 172.532 574.207 170.405C565.582 161.138 556.985 151.784 548.446 142.371C544.192 137.679 539.937 132.958 535.682 128.237C531.457 123.487 527.231 118.737 523.035 113.958H523.064ZM617.891 237.285C620.076 306.496 622.233 375.736 624.389 445.064C666.12 446.084 707.821 448.707 749.435 452.99C749.027 447.308 748.649 441.596 748.241 435.914C747.483 424.927 758.935 417.642 773.769 419.944C792.448 422.771 811.128 425.947 829.779 429.444C819.929 421.372 810.108 413.212 800.346 404.994C750.834 363.322 702.634 319.901 655.716 274.557C644.963 264.153 634.268 253.662 623.661 243.084C621.708 241.161 619.785 239.208 617.861 237.285H617.891ZM429.112 214.234C427.188 215.953 425.294 217.673 423.371 219.392C412.851 228.892 402.272 238.713 391.607 248.854C345.126 293.091 297.363 343.418 248.493 399.749C238.847 410.852 229.172 422.217 219.468 433.786C238.089 430.085 256.74 426.705 275.419 423.645C290.252 421.255 301.822 431.63 301.268 446.521C300.976 454.302 300.656 462.053 300.365 469.834C341.92 462.549 383.534 456.837 425.236 452.699C426.489 373.23 427.83 293.732 429.17 214.234H429.112Z" fill="url(#paint3_linear_2059_3257)"/>
<path d="M902.865 497.229C894.88 501.396 886.837 505.767 878.736 510.342C859.532 521.183 840.007 533.102 820.103 546.157C786.94 567.926 752.816 592.725 717.729 620.585C717.409 615.893 717.088 611.201 716.738 606.509C715.31 586.868 691.706 571.161 664.021 572.239C649.45 572.88 634.821 573.696 620.222 574.658C622.261 630.901 624.301 687.202 626.341 743.533C626.254 743.62 626.166 743.708 626.05 743.795C615.617 738.171 605.243 732.488 594.927 726.718C594.927 726.718 594.868 726.689 594.868 726.66C594.868 726.66 594.927 726.66 594.927 726.631C594.606 726.456 594.286 726.252 593.936 726.077C571.031 713.255 548.417 700.083 526.153 686.59C526.124 686.59 526.094 686.532 526.065 686.503C526.065 686.503 526.007 686.532 526.007 686.561C503.626 708.097 480.896 730.681 457.787 754.373C457.816 754.373 457.874 754.403 457.903 754.432L457.845 754.49C447.616 764.981 437.3 775.705 426.897 786.633C426.722 786.516 426.547 786.4 426.343 786.312C427.654 722.988 428.995 659.663 430.335 596.339C415.706 598.699 401.077 601.206 386.448 603.887C358.676 608.841 335.188 633.99 333.964 659.226C333.702 665.113 333.44 670.97 333.178 676.857C297.596 652.844 262.946 627.753 229.317 601.584C209.268 585.994 189.568 570.024 170.247 553.647C162.088 546.74 154.015 539.746 145.972 532.694C398.163 470.564 651.694 457.363 902.807 497.229H902.865Z" stroke="#262830" stroke-width="6.0323" stroke-linecap="round" stroke-linejoin="round"/>
<path d="M523.064 113.958C518.897 116.989 514.7 120.078 510.475 123.225C506.279 126.372 502.053 129.549 497.827 132.813C478.798 147.442 459.506 163.236 439.952 180.138C454.086 181.45 465.48 193.66 465.393 207.065C464.752 287.787 464.14 368.509 463.557 449.202C504.268 446.142 545.008 444.598 585.747 444.627C584.407 370.403 583.037 296.267 581.668 222.19C581.464 209.804 592.712 201.936 606.846 204.909C606.875 204.909 606.904 204.909 606.933 204.909C597.958 195.613 589.04 186.229 580.181 176.758C578.2 174.631 576.218 172.532 574.207 170.405C565.582 161.138 556.985 151.784 548.446 142.371C544.192 137.679 539.937 132.958 535.682 128.237C531.457 123.487 527.231 118.737 523.035 113.958H523.064ZM617.891 237.285C620.076 306.496 622.233 375.736 624.389 445.064C666.12 446.084 707.821 448.707 749.435 452.99C749.027 447.308 748.649 441.596 748.241 435.914C747.483 424.927 758.936 417.642 773.769 419.944C792.448 422.771 811.128 425.947 829.779 429.444C819.929 421.372 810.108 413.212 800.346 404.994C750.834 363.322 702.634 319.901 655.716 274.557C644.963 264.153 634.268 253.662 623.661 243.084C621.708 241.161 619.785 239.208 617.861 237.285H617.891ZM429.112 214.234C427.188 215.953 425.294 217.673 423.371 219.392C412.851 228.892 402.272 238.713 391.607 248.854C345.126 293.091 297.363 343.418 248.493 399.749C238.847 410.852 229.172 422.217 219.468 433.786C238.089 430.085 256.74 426.705 275.419 423.645C290.252 421.255 301.822 431.63 301.268 446.521C300.976 454.302 300.656 462.053 300.365 469.834C341.92 462.549 383.534 456.837 425.236 452.699C426.489 373.23 427.83 293.732 429.17 214.234H429.112Z" stroke="#262830" stroke-width="6.0323" stroke-linecap="round" stroke-linejoin="round"/>
<g opacity="0.15">
<path d="M429.112 214.23C427.188 215.95 425.294 217.669 423.371 219.389C412.851 228.889 402.272 238.709 391.607 248.851C358.648 280.207 325.047 314.681 290.864 352.157C331.4 369.409 372.344 350.117 427.188 331.001C427.83 292.067 428.441 253.164 429.112 214.23Z" fill="black"/>
<path d="M516.478 307.748C540.782 304.105 562.93 301.978 583.125 300.113C582.658 274.119 582.163 248.095 581.697 222.13C581.493 209.745 592.741 201.877 606.875 204.849C606.904 204.849 606.933 204.849 606.962 204.849C597.987 195.553 589.07 186.169 580.211 176.698C578.229 174.571 576.247 172.473 574.237 170.346C565.611 161.079 557.014 151.724 548.475 142.311C544.221 137.62 539.966 132.899 535.711 128.178C531.486 123.428 527.26 118.678 523.064 113.898C518.897 116.929 514.7 120.018 510.475 123.165C506.278 126.313 502.053 129.489 497.827 132.753C478.798 147.382 459.506 163.177 439.952 180.079C454.086 181.39 465.48 193.601 465.393 207.006C465.102 244.365 464.839 281.695 464.548 319.026C480.634 314.48 497.827 310.487 516.449 307.719L516.478 307.748Z" fill="black"/>
<path d="M655.745 274.556C644.992 264.153 634.297 253.662 623.69 243.083C621.737 241.16 619.814 239.208 617.891 237.284C618.502 257.042 619.114 276.829 619.756 296.558C638.115 294.518 654.521 291.925 669.238 287.495C664.721 283.182 660.233 278.898 655.745 274.556Z" fill="black"/>
</g>
<path d="M499.255 638.33L498.964 680.44L462.741 683.091L425.789 685.831L423.924 651.356L423.487 643.488L428.733 643.138L430.073 643.051L499.255 638.33Z" fill="#875530"/>
<path d="M626.749 633.376L627.274 641.302L629.139 667.967L624.564 668.229L594.373 669.978L579.103 670.852L577.092 629.937L619.668 625.129L626.108 624.4L626.749 633.376Z" fill="#875530"/>
<path opacity="0.15" d="M498.964 672.021L462.741 674.672L425.79 677.412V685.834L462.741 683.094L498.964 680.442V672.021Z" fill="black"/>
<path opacity="0.15" d="M624.564 659.807L594.373 661.527L579.103 662.43V670.852L594.373 669.978L624.564 668.229L629.139 667.967L628.556 659.574L624.564 659.807Z" fill="black"/>
<path d="M499.255 638.33L498.964 680.44L462.741 683.091L425.789 685.831L423.924 651.356L423.487 643.488L428.733 643.138L430.073 643.051L499.255 638.33Z" stroke="#262830" stroke-width="6.0323" stroke-linecap="round" stroke-linejoin="round"/>
<path d="M626.749 633.376L627.274 641.302L629.139 667.967L624.564 668.229L594.373 669.978L579.103 670.852L577.092 629.937L619.668 625.129L626.108 624.4L626.749 633.376Z" stroke="#262830" stroke-width="6.0323" stroke-linecap="round" stroke-linejoin="round"/>
<path d="M579.103 670.853L579.336 676.011C579.511 680.382 576.131 684.171 571.759 684.404L506.861 688.017C502.461 688.251 498.935 684.87 498.935 680.47L499.226 638.36L499.284 634.222C499.284 629.793 502.898 626.063 507.298 625.8L568.729 622.449C573.129 622.187 576.859 625.538 577.063 629.997L579.074 670.911L579.103 670.853Z" fill="#FF782D"/>
<path opacity="0.3" d="M506.366 687.579L506.657 645.469L506.715 641.331C506.715 636.902 510.329 633.172 514.729 632.909L576.16 629.558C576.451 629.558 576.743 629.558 577.034 629.587C576.626 625.333 573.012 622.156 568.758 622.418L507.327 625.77C502.927 626.032 499.343 629.762 499.313 634.192L499.255 638.33L498.964 680.439C498.964 684.694 502.257 687.929 506.395 687.987C506.395 687.841 506.366 687.725 506.366 687.579Z" fill="white"/>
<path opacity="0.15" d="M579.103 670.852L577.092 629.938C576.917 626.266 574.324 623.381 570.943 622.623C570.972 622.885 571.031 623.118 571.06 623.352L573.071 664.266L573.304 669.424C573.479 673.796 570.098 677.584 565.727 677.817L500.829 681.431C500.217 681.46 499.605 681.431 499.022 681.314C499.43 685.306 502.752 688.25 506.861 688.017L571.759 684.403C576.16 684.17 579.511 680.411 579.336 676.01L579.103 670.852Z" fill="black"/>
<path d="M579.103 670.853L579.336 676.011C579.511 680.382 576.131 684.171 571.759 684.404L506.861 688.017C502.461 688.251 498.935 684.87 498.935 680.47L499.226 638.36L499.284 634.222C499.284 629.793 502.898 626.063 507.298 625.8L568.729 622.449C573.129 622.187 576.859 625.538 577.063 629.997L579.074 670.911L579.103 670.853Z" stroke="#262830" stroke-width="6.0323" stroke-linecap="round" stroke-linejoin="round"/>
<path opacity="0.15" d="M324.61 563.32C318.112 560.493 311.176 564.661 311.176 564.661C297.13 591.587 287.251 616.737 280.606 640.021C287.979 645.354 295.41 650.628 302.871 655.874C310.185 604.293 332.974 575.589 332.974 575.589C332.974 575.589 332.1 566.584 324.639 563.349L324.61 563.32Z" fill="black"/>
<path d="M274.604 830.319C274.604 830.319 194.668 719.785 309.865 551.93C309.865 551.93 317.267 548.608 323.386 552.192C330.38 556.301 330.176 565.364 330.176 565.364C330.176 565.364 262.714 632.011 288.766 760.379C288.766 760.379 340.055 752.395 341.542 776.669C343.028 800.944 334.198 813.446 334.198 813.446C334.198 813.446 337.52 830.902 329.244 830.902C320.968 830.902 313.245 824.287 313.245 824.287C313.245 824.287 314.353 833.67 304.415 833.67C294.478 833.67 290.078 826.501 290.078 826.501C290.078 826.501 283.463 839.178 274.633 830.348L274.604 830.319Z" fill="#F5F0E3"/>
<path opacity="0.15" d="M323.445 777.657C323.445 777.657 336.063 780.688 337.287 791.645C338.336 801.058 336.879 810.995 336.879 810.995L322.745 782.058L323.445 777.657Z" fill="black"/>
<path d="M274.604 830.319C274.604 830.319 194.668 719.785 309.865 551.93C309.865 551.93 317.267 548.608 323.386 552.192C330.38 556.301 330.176 565.364 330.176 565.364C330.176 565.364 262.714 632.011 288.766 760.379C288.766 760.379 340.055 752.395 341.542 776.669C343.028 800.944 334.198 813.446 334.198 813.446C334.198 813.446 337.52 830.902 329.244 830.902C320.968 830.902 313.245 824.287 313.245 824.287C313.245 824.287 314.353 833.67 304.415 833.67C294.478 833.67 290.078 826.501 290.078 826.501C290.078 826.501 283.463 839.178 274.633 830.348L274.604 830.319Z" stroke="#262830" stroke-width="6.0323" stroke-linecap="round" stroke-linejoin="round"/>
<path d="M334.169 813.415C334.169 813.415 333.061 796.163 322.221 780.252" stroke="#262830" stroke-width="6.0323" stroke-linecap="round" stroke-linejoin="round"/>
<path d="M306.164 798.961C306.164 798.961 309.253 819.535 313.216 824.256" stroke="#262830" stroke-width="6.0323" stroke-linecap="round" stroke-linejoin="round"/>
<path d="M290.049 826.469C290.049 826.469 287.018 822.011 285.59 810.5" stroke="#262830" stroke-width="6.0323" stroke-linecap="round" stroke-linejoin="round"/>
<path d="M329.885 591.969C333.44 575.241 330.147 565.362 330.147 565.362" stroke="#262830" stroke-width="6.0323" stroke-linecap="round" stroke-linejoin="round"/>
<path d="M329.739 539.863C329.739 539.863 345.796 548.926 347.02 568.247" stroke="#262830" stroke-width="6.0323" stroke-linecap="round" stroke-linejoin="round"/>
<path opacity="0.15" d="M330.147 565.36C330.147 565.36 324.96 557.579 324.377 555.219C310.506 567.05 283.579 607.703 273.788 666.977C265.424 717.566 279.937 746.97 286.96 759.122C262.685 636.932 330.147 565.36 330.147 565.36Z" fill="black"/>
<path opacity="0.15" d="M751.563 558.805C751.563 558.805 744.773 554.375 738.187 556.94C730.639 559.912 729.415 568.888 729.415 568.888C729.415 568.888 737.342 579.67 744.802 599.632C751.009 594.911 757.187 590.307 763.336 585.79C759.839 577.018 755.963 568.042 751.563 558.834V558.805Z" fill="black"/>
<path d="M789.01 820.437C789.01 820.437 868.945 709.903 753.748 542.048C753.748 542.048 746.346 538.726 740.227 542.311C733.233 546.419 733.437 555.482 733.437 555.482C733.437 555.482 800.899 622.129 774.847 750.498C774.847 750.498 723.558 742.513 722.071 766.788C720.614 791.063 729.415 803.564 729.415 803.564C729.415 803.564 726.093 821.02 734.369 821.02C742.645 821.02 750.368 814.405 750.368 814.405C750.368 814.405 749.26 823.788 759.198 823.788C769.135 823.788 773.535 816.62 773.535 816.62C773.535 816.62 780.15 829.296 788.98 820.466L789.01 820.437Z" fill="#F5F0E3"/>
<path opacity="0.15" d="M740.197 767.776C740.197 767.776 727.579 770.807 726.355 781.764C725.306 791.177 726.763 801.114 726.763 801.114L740.897 772.177L740.197 767.776Z" fill="black"/>
<path d="M789.01 820.437C789.01 820.437 868.945 709.903 753.748 542.048C753.748 542.048 746.346 538.726 740.227 542.311C733.233 546.419 733.437 555.482 733.437 555.482C733.437 555.482 800.899 622.129 774.847 750.498C774.847 750.498 723.558 742.513 722.071 766.788C720.614 791.063 729.415 803.564 729.415 803.564C729.415 803.564 726.093 821.02 734.369 821.02C742.645 821.02 750.368 814.405 750.368 814.405C750.368 814.405 749.26 823.788 759.198 823.788C769.135 823.788 773.535 816.62 773.535 816.62C773.535 816.62 780.15 829.296 788.98 820.466L789.01 820.437Z" stroke="#262830" stroke-width="6.0323" stroke-linecap="round" stroke-linejoin="round"/>
<path d="M729.473 803.534C729.473 803.534 730.581 786.282 741.421 770.371" stroke="#262830" stroke-width="6.0323" stroke-linecap="round" stroke-linejoin="round"/>
<path d="M757.478 789.108C757.478 789.108 754.389 809.682 750.426 814.403" stroke="#262830" stroke-width="6.0323" stroke-linecap="round" stroke-linejoin="round"/>
<path d="M773.593 816.591C773.593 816.591 776.624 812.132 778.052 800.621" stroke="#262830" stroke-width="6.0323" stroke-linecap="round" stroke-linejoin="round"/>
<path d="M733.757 582.087C730.202 565.359 733.495 555.48 733.495 555.48" stroke="#262830" stroke-width="6.0323" stroke-linecap="round" stroke-linejoin="round"/>
<path d="M733.874 529.982C733.874 529.982 717.817 539.045 716.593 558.366" stroke="#262830" stroke-width="6.0323" stroke-linecap="round" stroke-linejoin="round"/>
<path opacity="0.15" d="M733.466 555.479C733.466 555.479 738.653 547.698 739.236 545.338C753.107 557.169 780.034 597.822 789.825 657.096C798.189 707.685 783.676 737.089 776.653 749.241C800.928 627.051 733.466 555.479 733.466 555.479Z" fill="black"/>
<g opacity="0.2">
<path d="M466.879 480.149C484.277 480.149 498.44 458.526 498.44 431.979C498.44 405.431 484.277 383.808 466.879 383.808C449.482 383.808 435.319 405.401 435.319 431.979C435.319 458.556 449.482 480.149 466.879 480.149Z" fill="black"/>
<path d="M635.55 409.775C635.317 408.667 630.188 386.578 615.559 377.748C620.164 374.747 623.223 372.707 623.719 372.386L614.044 357.815C599.415 367.52 558.85 393.893 546.873 399.4C539.383 402.839 528.31 390.221 525.774 386.636L518.635 391.707L511.495 396.748C517.003 404.529 527.727 415.02 539.937 417.089C539.733 417.264 539.5 417.439 539.354 417.672C538.946 418.255 529.796 432.068 539.471 448.737C540.024 449.699 541.015 450.223 542.064 450.223C542.443 450.223 542.822 450.136 543.201 449.99L633.714 413.155C635.084 412.601 635.842 411.144 635.521 409.716L635.55 409.775ZM541.248 430.465C541.219 431.951 541.19 433.525 541.219 435.157C541.074 433.496 541.103 431.922 541.248 430.465Z" fill="black"/>
<path d="M459.186 363.906C468.074 364.838 476.38 371.045 483.869 382.294L498.44 372.619C487.92 356.824 475.33 348.024 461.051 346.537C439.137 344.177 422.176 360.467 421.448 361.166L433.658 373.668C433.658 373.668 445.577 362.478 459.215 363.906H459.186Z" fill="black"/>
<path d="M488.677 506.175C469.589 512.616 454.64 527.915 444.294 551.665L459.215 558.164C467.637 538.872 479.235 526.574 493.747 521.649C516.332 513.985 539.325 526.429 539.558 526.574L547.484 512.353C546.29 511.683 518.197 496.267 488.677 506.175Z" fill="black"/>
</g>
<path d="M465.16 465.64C480.932 465.64 493.718 445.43 493.718 420.5C493.718 395.569 480.932 375.359 465.16 375.359C449.387 375.359 436.601 395.569 436.601 420.5C436.601 445.43 449.387 465.64 465.16 465.64Z" fill="white"/>
<path d="M538.101 406.249C538.101 406.249 536.469 422.451 538.334 434.108L628.847 397.273C628.847 397.273 622.087 367.024 602.037 364.227L538.101 406.219V406.249Z" fill="white"/>
<path d="M465.16 465.64C480.932 465.64 493.718 445.43 493.718 420.5C493.718 395.569 480.932 375.359 465.16 375.359C449.387 375.359 436.601 395.569 436.601 420.5C436.601 445.43 449.387 465.64 465.16 465.64Z" stroke="#262830" stroke-width="6.0323" stroke-linecap="round" stroke-linejoin="round"/>
<path d="M538.101 406.249C538.101 406.249 529.504 418.896 538.334 434.108L628.848 397.273C628.848 397.273 622.087 367.024 602.037 364.227L538.101 406.219V406.249Z" stroke="#262830" stroke-width="6.0323" stroke-linecap="round" stroke-linejoin="round"/>
<path d="M514.875 378.566C514.875 378.566 531.049 401.413 546.756 394.186C562.463 386.959 615.122 351.96 615.122 351.96" stroke="#262830" stroke-width="17.4849" stroke-miterlimit="10"/>
<path d="M425.789 355.922C425.789 355.922 460.322 322.263 489.405 365.975" stroke="#262830" stroke-width="17.4849" stroke-miterlimit="10"/>
<path d="M482.644 441.102C488.615 441.102 493.456 434.513 493.456 426.385C493.456 418.258 488.615 411.669 482.644 411.669C476.673 411.669 471.833 418.258 471.833 426.385C471.833 434.513 476.673 441.102 482.644 441.102Z" fill="#262830"/>
<path d="M559.345 413.856C561.822 423.88 556.518 429.854 549.175 431.661C545.153 432.652 540.782 434.779 538.625 432.623C536.819 430.845 536.993 425.367 535.886 420.821C533.409 410.796 534.254 400.8 541.598 398.993C548.942 397.187 556.897 403.831 559.374 413.856H559.345Z" fill="#262830"/>
<path d="M458.311 550.79L443.391 544.292C453.736 520.541 468.657 505.242 487.773 498.802C517.294 488.864 545.415 504.309 546.581 504.98L538.655 519.201C538.421 519.084 515.429 506.612 492.844 514.276C478.361 519.201 466.733 531.498 458.311 550.79Z" fill="#262830"/>
<path d="M546.406 658.235C545.94 655.612 544.454 653.834 541.86 653.077C541.19 652.902 540.52 652.756 539.82 652.698C539.558 652.698 539.325 652.64 539.092 652.552L539.033 646.258C540.228 646.578 541.015 647.54 541.161 648.909C541.219 649.492 541.219 650.104 541.277 650.687C541.277 650.862 541.336 651.037 541.336 651.212L546.435 651.153C546.552 649.929 546.377 638.419 546.231 637.865C544.804 637.865 543.376 637.865 541.948 637.923C541.627 637.923 541.277 637.777 541.044 638.185C541.015 638.244 540.811 638.215 540.724 638.185C540.461 638.156 540.199 638.069 539.937 638.069C539.616 638.069 539.267 638.069 538.946 638.069L538.888 633.027L533.788 633.086L533.846 638.069C532.651 638.127 531.515 638.419 530.408 638.914C528.805 639.642 527.639 640.808 527.085 642.469C526.852 643.198 526.648 643.985 526.648 644.771C526.59 646.666 526.648 648.531 526.648 650.425C526.648 651.066 526.736 651.707 526.881 652.348C527.406 654.65 528.717 656.253 530.99 656.982C531.777 657.244 532.593 657.39 533.438 657.477C533.642 657.477 533.846 657.535 534.05 657.594L534.109 663.888C533.001 663.568 532.331 662.723 532.069 661.44C531.952 660.916 531.981 660.362 531.952 659.808C531.952 659.546 531.952 659.255 531.952 658.963L526.765 659.022L526.911 672.31H527.639C528.834 672.31 530.029 672.31 531.224 672.252C531.544 672.252 531.952 672.398 532.185 671.99C532.185 671.931 532.418 671.99 532.535 671.99C532.797 672.019 533.06 672.106 533.322 672.106C533.613 672.106 533.934 672.106 534.225 672.106L534.283 677.468L539.383 677.41L539.325 672.106C540.403 672.048 541.452 671.815 542.443 671.407C544.541 670.562 545.882 669.075 546.377 666.861C546.552 666.103 546.61 665.316 546.639 664.529C546.639 663.043 546.639 661.586 546.61 660.1C546.61 659.488 546.552 658.847 546.435 658.264L546.406 658.235ZM531.894 649.521C531.894 649.259 531.923 648.997 531.981 648.735C532.214 647.482 532.885 646.636 533.963 646.316L534.021 652.377C532.651 652.086 531.836 651.037 531.894 649.521ZM541.336 660.887C541.336 660.887 541.336 660.974 541.336 661.032C541.219 662.46 540.461 663.451 539.237 663.83L539.179 657.798C540.491 658.147 541.598 658.876 541.336 660.887Z" fill="#262830"/>
<path d="M494.447 119.93C515.196 104.398 523.559 93.6445 531.923 95.2181C531.719 136.337 495.467 170.228 474.281 173.026C453.124 175.765 414.745 170.432 398.979 121.125C400.524 119.784 402.301 119.406 404.254 120.018C430.773 128.294 458.02 147.265 494.447 119.959V119.93Z" fill="#875530"/>
<path d="M593.091 207.413H593.033C569.924 226.938 529.067 241.421 488.065 249.61C449.423 257.391 410.607 259.576 386.332 255.205C386.886 276.1 387.672 290.845 387.672 290.845C387.672 290.845 391.548 294.43 402.826 294.779C433.017 276.886 462.741 257.333 488.619 252.291C489.901 252.029 491.183 251.796 492.436 251.621C515.225 248.444 552.584 253.836 590.352 255.38C600.056 252.087 605.534 248.473 605.534 248.473C605.534 248.473 600.784 230.726 593.033 207.442L593.091 207.413Z" fill="#FF782D"/>
<path opacity="0.15" d="M593.47 208.549C599.007 226.034 602.3 238.302 602.3 238.302C602.3 238.302 596.821 241.916 587.117 245.209C564.62 244.305 542.297 242.032 523.064 240.983C511.699 244.364 499.896 247.249 488.094 249.609C475.184 252.203 462.304 254.155 449.889 255.467C433.658 263.743 416.668 274.438 399.533 284.579C393.501 284.404 389.596 283.297 387.264 282.306C387.497 287.668 387.672 290.815 387.672 290.815C387.672 290.815 391.548 294.4 402.826 294.749C433.017 276.857 462.741 257.303 488.619 252.261C489.901 251.999 491.183 251.766 492.436 251.591C515.225 248.414 552.584 253.806 590.352 255.35C600.056 252.057 605.534 248.444 605.534 248.444C605.534 248.444 600.93 231.25 593.411 208.549H593.47Z" fill="black"/>
<path d="M580.414 172.502C585.164 184.538 589.448 196.602 593.091 207.443H593.033C569.923 226.968 529.067 241.451 488.065 249.64C449.423 257.421 410.607 259.606 386.332 255.235C386.04 244.657 385.836 232.446 385.836 219.828C385.895 177.281 388.401 129.722 398.95 121.155C414.716 170.462 453.124 175.795 474.252 173.056C495.438 170.258 531.69 136.367 531.894 95.248C538.217 96.3846 544.541 104.457 556.227 122.758C564.999 136.454 573.216 154.493 580.385 172.531L580.414 172.502Z" fill="#B77B46"/>
<path d="M276.031 310.283C220.225 257.391 301.909 184.654 385.865 219.798C385.865 232.417 386.069 244.627 386.361 255.205C386.915 276.1 387.701 290.845 387.701 290.845C387.701 290.845 391.577 294.43 402.855 294.779C358.706 321.007 313.624 343.65 278.071 312.177C277.401 311.565 276.701 310.953 276.031 310.341V310.283Z" fill="#875530"/>
<path d="M276.031 310.283C220.225 257.391 301.909 184.654 385.865 219.798C385.865 232.417 386.069 244.627 386.361 255.205C386.915 276.1 387.701 290.845 387.701 290.845C387.701 290.845 391.577 294.43 402.855 294.779C358.706 321.007 313.624 343.65 278.071 312.177C277.401 311.565 276.701 310.953 276.031 310.341V310.283Z" stroke="#262830" stroke-width="6.0323" stroke-linecap="round" stroke-linejoin="round"/>
<path d="M580.415 172.501C661.311 114.975 720.877 154.695 713.3 199.631C713.3 199.661 713.271 199.69 713.3 199.719C710.065 208.49 706.656 216.242 702.955 223.207V223.265C702.284 224.11 701.614 224.984 700.944 225.83C678.243 253.718 634.093 257.128 590.41 255.35C600.114 252.057 605.593 248.443 605.593 248.443C605.593 248.443 600.843 230.696 593.091 207.412C589.448 196.572 585.165 184.536 580.415 172.471V172.501Z" fill="#875530"/>
<path d="M506.424 292.242C395.599 308.765 340.434 373.692 276.031 310.309C276.702 310.921 277.401 311.533 278.071 312.145C313.595 343.618 358.706 320.975 402.855 294.748C433.046 276.855 462.77 257.301 488.648 252.259C489.93 251.997 491.212 251.764 492.465 251.589C515.254 248.413 552.614 253.804 590.381 255.348C634.035 257.126 678.213 253.717 700.915 225.828C701.614 224.954 702.255 224.109 702.896 223.264C666.907 291.193 607.837 277.146 506.424 292.271V292.242Z" fill="#B77B46"/>
<path d="M494.447 119.93C515.196 104.398 523.559 93.6445 531.923 95.2181C531.719 136.337 495.467 170.228 474.281 173.026C453.124 175.765 414.745 170.432 398.979 121.125C400.524 119.784 402.301 119.406 404.254 120.018C430.773 128.294 458.02 147.265 494.447 119.959V119.93Z" stroke="#262830" stroke-width="6.0323" stroke-linecap="round" stroke-linejoin="round"/>
<path d="M580.414 172.502C585.164 184.538 589.448 196.602 593.091 207.443H593.033C569.923 226.968 529.067 241.451 488.065 249.64C449.423 257.421 410.607 259.606 386.332 255.235C386.04 244.657 385.836 232.446 385.836 219.828C385.895 177.281 388.401 129.722 398.95 121.155C414.716 170.462 453.124 175.795 474.252 173.056C495.438 170.258 531.69 136.367 531.894 95.248C538.217 96.3846 544.541 104.457 556.227 122.758C564.999 136.454 573.216 154.493 580.385 172.531L580.414 172.502Z" stroke="#262830" stroke-width="6.0323" stroke-linecap="round" stroke-linejoin="round"/>
<path d="M580.415 172.501C661.311 114.975 720.877 154.695 713.3 199.631C713.3 199.661 713.271 199.69 713.3 199.719C710.065 208.49 706.656 216.242 702.955 223.207V223.265C702.284 224.11 701.614 224.984 700.944 225.83C678.243 253.718 634.093 257.128 590.41 255.35C600.114 252.057 605.593 248.443 605.593 248.443C605.593 248.443 600.843 230.696 593.091 207.412C589.448 196.572 585.165 184.536 580.415 172.471V172.501Z" stroke="#262830" stroke-width="6.0323" stroke-linecap="round" stroke-linejoin="round"/>
<path d="M506.424 292.242C395.599 308.765 340.434 373.692 276.031 310.309C276.702 310.921 277.401 311.533 278.071 312.145C313.595 343.618 358.706 320.975 402.855 294.748C433.046 276.855 462.77 257.301 488.648 252.259C489.93 251.997 491.212 251.764 492.465 251.589C515.254 248.413 552.614 253.804 590.381 255.348C634.035 257.126 678.213 253.717 700.915 225.828C701.614 224.954 702.255 224.109 702.896 223.264C666.907 291.193 607.837 277.146 506.424 292.271V292.242Z" stroke="#262830" stroke-width="6.0323" stroke-linecap="round" stroke-linejoin="round"/>
<defs>
<linearGradient id="paint0_linear_2059_3257" x1="-0.026504" y1="422.278" x2="1028.73" y2="422.278" gradientUnits="userSpaceOnUse">
<stop stop-color="#FF782D"/>
<stop offset="1" stop-color="#FFB22D"/>
</linearGradient>
<linearGradient id="paint1_linear_2059_3257" x1="64.318" y1="198.703" x2="943.168" y2="198.703" gradientUnits="userSpaceOnUse">
<stop stop-color="#FF782D"/>
<stop offset="1" stop-color="#FFB22D"/>
</linearGradient>
<linearGradient id="paint2_linear_2059_3257" x1="737.4" y1="285.953" x2="231.474" y2="830.054" gradientUnits="userSpaceOnUse">
<stop stop-color="#68CDED"/>
<stop offset="1" stop-color="#3B53A7"/>
</linearGradient>
<linearGradient id="paint3_linear_2059_3257" x1="701.527" y1="233.089" x2="289.378" y2="676.36" gradientUnits="userSpaceOnUse">
<stop stop-color="#68CDED"/>
<stop offset="1" stop-color="#3B53A7"/>
</linearGradient>
</defs>
</svg>
