<svg width="806" height="1067" viewBox="0 0 806 1067" fill="none" xmlns="http://www.w3.org/2000/svg">
<g opacity="0.4">
<path d="M325.628 410.611C323.472 409.299 321.752 408.396 320.179 407.288C311.873 401.344 303.51 395.486 295.35 389.337C291.154 386.19 287.016 385.199 282.003 387.123C275.709 389.541 269.006 390.998 263.061 394.029C259.623 395.778 256.155 399.362 254.843 402.917C251.463 412.068 249.277 421.626 246.655 431.039C244.207 439.81 243.216 440.568 233.832 440.044C225.148 439.548 216.464 438.936 207.78 438.586C202.185 438.382 199.037 436.226 198.28 430.223C197.027 420.315 195.045 410.523 193.646 400.615C192.83 394.932 190.295 391.057 184.875 388.754C179.279 386.394 173.801 383.684 168.468 380.799C163.31 378.001 158.735 378.497 153.781 381.469C145.009 386.715 135.917 391.406 127.116 396.564C122.774 399.1 119.598 398.546 116.334 394.728C109.981 387.297 103.482 379.983 96.7507 372.901C92.496 368.414 92.6126 364.509 96.3427 359.73C102.346 352.007 107.795 343.877 113.682 336.067C117.15 331.462 118.053 326.829 115.722 321.467C114.44 318.494 113.041 315.405 112.575 312.229C110.68 299.494 102.608 294.103 90.7184 292.063C83.4913 290.81 76.5265 288.071 69.3868 286.176C64.9282 284.982 62.9174 282.504 63.2671 277.725C64.0248 267.322 64.5202 256.889 65.0447 246.456C65.2779 241.823 67.4635 239.433 72.1553 238.734C82.6753 237.189 93.1372 235.179 103.657 233.663C108.67 232.935 111.992 230.691 114.061 226.028C116.684 220.054 119.569 214.226 122.57 208.427C125.018 203.735 124.756 199.393 122.133 194.847C117.004 186.017 112.196 177.012 107.067 168.153C104.357 163.49 104.59 159.848 108.961 156.176C116.276 150.027 123.473 143.703 130.351 137.088C134.576 133.038 138.248 132.688 142.911 136.243C151.041 142.421 159.551 148.104 167.681 154.282C171.936 157.516 176.19 158.128 181.086 156.263C185.341 154.631 189.596 152.708 194.025 151.834C203.962 149.852 208.479 143.703 210.344 134.174C211.918 126.102 214.89 118.321 216.785 110.278C218.009 105.033 221.127 102.993 226.081 103.226C236.076 103.75 246.043 104.45 256.038 104.974C261.196 105.237 263.877 107.743 264.635 112.901C266.15 123.217 268.074 133.475 269.473 143.791C270.143 148.832 272.445 152.184 277.049 154.253C283.169 157.05 289.26 159.935 295.234 162.995C299.751 165.326 303.83 165.006 308.172 162.471C316.623 157.516 325.366 153.087 333.7 148.045C339.179 144.723 343.288 144.403 347.717 149.969C353.662 157.458 360.307 164.365 366.805 171.388C370.156 175.001 370.506 178.294 367.446 182.374C361.327 190.534 355.761 199.131 349.466 207.174C337.023 215.188 341.743 253.217 376.218 252.634C382.192 253.509 387.933 255.898 393.819 257.414C398.365 258.579 400.201 261.406 399.91 265.981C399.24 275.977 398.482 285.943 398.22 295.939C398.074 301.65 395.276 304.128 390.031 304.914C379.744 306.517 369.34 307.77 359.228 310.131C355.527 311.005 351.448 313.919 349.349 317.095C345.532 322.836 343.201 329.51 340.024 335.717C337.693 340.263 338.217 344.372 340.724 348.656C345.852 357.486 350.632 366.52 355.877 375.291C358.675 379.983 358.471 383.567 354.158 387.239C346.523 393.679 339.208 400.499 331.631 407.026C329.912 408.512 327.697 409.416 325.716 410.581L325.628 410.611ZM303.568 275.19C305.229 227.048 266.617 197.936 229.111 199.014C189.333 200.18 158.298 233.051 158.851 274.461C159.347 311.85 192.889 344.838 230.044 344.459C270.492 344.051 304.18 312.287 303.597 275.161L303.568 275.19Z" fill="url(#paint0_linear_2059_2988)"/>
<path d="M457.552 98.6785C457.61 95.3564 457.843 92.0342 457.697 88.7412C457.523 84.574 459.038 82.1844 463.351 81.4559C470.957 80.1153 478.534 78.6874 486.052 76.9389C490.132 76.0064 492.288 77.58 493.833 81.077C496.66 87.459 499.632 93.7827 502.517 100.165C502.896 101.01 503.187 101.913 503.683 102.671C507.296 108.295 529.269 112.666 534.689 108.761C540.518 104.565 546.288 100.31 551.97 95.9392C554.884 93.6953 557.391 93.5205 560.305 96.0849C566.22 101.33 572.311 106.401 578.431 111.384C581.403 113.803 581.695 116.367 579.975 119.602C576.711 125.78 573.185 131.871 570.621 138.311C569.397 141.371 569.309 145.48 570.242 148.656C571.903 154.251 574.613 159.584 577.236 164.83C577.994 166.345 579.888 167.773 581.578 168.268C588.98 170.483 596.411 172.523 603.93 174.301C608.068 175.262 609.845 177.565 609.7 181.674C609.437 189.396 609.117 197.119 609 204.841C608.942 208.629 607.164 210.553 603.551 211.252C596.877 212.534 590.233 213.962 583.56 215.332C582.307 215.594 580.995 215.74 579.8 216.206C573.622 218.508 564.618 239.082 567.211 245.202C570.009 251.817 572.894 258.374 575.925 264.873C577.411 268.078 576.828 270.439 574.03 272.508C567.677 277.199 561.266 281.862 555.088 286.787C551.883 289.322 549.26 289.177 546.288 286.612C541.13 282.154 536.146 277.433 530.551 273.644C527.666 271.692 523.586 271.517 520.031 270.555C519.711 270.468 519.332 270.788 518.982 270.788C504.324 270.934 495.173 278.365 490.744 292.091C490.365 293.286 489.549 294.364 488.966 295.5C486.324 300.59 482.225 302.436 476.669 301.037C470.257 299.405 463.875 297.657 457.435 296.112C453.355 295.151 451.636 292.819 451.84 288.623C452.16 282.008 452.219 275.393 452.394 268.748C452.423 267.466 452.598 266.155 452.394 264.902C451.374 257.937 433.16 245.144 426.195 246.455C419.347 247.767 412.47 249.02 405.621 250.418C402.154 251.147 399.968 249.952 398.569 246.776C395.335 239.374 392.1 231.943 388.632 224.628C387.058 221.277 388.107 219.033 390.759 217.051C396.5 212.738 402.503 208.717 407.778 203.879C410.197 201.665 411.508 197.964 412.615 194.671C413.344 192.514 412.295 189.833 412.819 187.56C415.209 176.982 409.876 170.745 402.154 164.422C385.689 150.958 387.379 156 396.675 137.845C405.476 120.622 401.425 121.525 420.775 127.266C431.528 130.472 439.309 128.461 448.489 121.904C457.61 115.377 456.852 107.334 457.523 98.7368L457.552 98.6785ZM543.927 193.301C545.85 167.015 526.034 144.168 499.749 142.391C473.958 140.613 450.937 160.721 449.188 186.54C447.469 212.156 467.256 235.148 492.696 237.13C519.04 239.17 542.004 219.528 543.927 193.33V193.301Z" fill="url(#paint1_linear_2059_2988)"/>
<path d="M682.583 200.121C683.632 205.571 684.302 211.166 685.876 216.441C686.721 219.209 688.644 222.327 691.034 223.813C705.721 233.051 705.721 232.702 721.866 226.261C735.62 220.783 732.356 221.628 739.001 231.798C741.478 235.616 743.372 239.812 745.936 243.513C748.472 247.156 747.539 249.545 744.392 252.051C739.525 255.956 734.63 259.832 730.229 264.204C728.422 266.01 727.111 268.924 726.82 271.489C726.295 275.948 726.324 280.581 726.907 285.069C727.228 287.488 728.597 290.227 730.375 291.888C735.183 296.347 740.37 300.397 745.558 304.419C748.268 306.517 749.084 308.557 747.248 311.675C743.634 317.766 740.196 323.944 736.815 330.151C735.154 333.24 733.114 333.968 729.792 332.657C723.672 330.267 717.523 327.936 711.2 326.217C708.752 325.546 705.342 325.809 703.215 327.062C684.856 338.048 688.906 331.754 685.439 352.415C682.932 367.219 684.652 364.246 670.955 364.8C666.934 364.975 662.883 364.771 658.862 365.004C654.578 365.266 652.305 363.664 651.722 359.205C651.022 353.697 649.711 348.277 648.953 342.769C648.341 338.398 645.952 335.95 642.455 333.269C632.692 325.809 623.542 326.304 612.614 331.258C600.578 336.708 602.473 338.34 594.983 325.605C592.856 321.991 590.729 318.348 588.485 314.793C586.241 311.296 586.183 308.499 589.884 305.73C594.459 302.321 598.626 298.328 603.056 294.744C606.115 292.267 607.135 289.323 607.689 285.273C609.292 273.237 604.746 265.34 594.983 258.229C583.735 250.012 583.064 252.955 591.107 238.967C593.206 235.324 595.333 231.682 597.286 227.951C598.859 224.921 600.812 223.872 604.25 225.241C610.05 227.543 615.994 229.409 621.823 231.594C625.378 232.935 628.321 232.235 631.876 230.72C643.154 225.97 648.021 218.072 649.099 205.746C650.294 191.787 648.341 193.302 663.612 193.156C666.992 193.127 670.343 193.04 673.695 192.952C680.98 192.807 681.067 192.865 682.612 200.121H682.583ZM697.795 270.644C693.249 253.946 675.268 243.63 658.658 248.205C641.843 252.809 631.76 270.498 636.306 287.4C640.823 304.186 658.483 314.269 675.443 309.752C692.258 305.264 702.399 287.546 697.795 270.673V270.644Z" fill="url(#paint2_linear_2059_2988)"/>
<path d="M373.479 16.5865C372.196 21.22 370.565 25.7661 369.778 30.487C369.37 32.9349 369.69 36.0822 370.943 38.1512C378.753 50.9152 378.899 50.6238 393.849 51.8477C406.583 52.8968 403.728 52.2849 404.981 62.6884C405.447 66.5642 405.272 70.5566 405.855 74.4033C406.409 78.1917 404.777 79.6779 401.396 80.4064C396.151 81.5429 390.876 82.6795 385.776 84.3697C383.678 85.0691 381.551 86.8467 380.356 88.7118C378.229 91.9756 376.48 95.56 375.227 99.2319C374.528 101.213 374.557 103.865 375.285 105.847C377.296 111.122 379.744 116.25 382.221 121.35C383.503 124.002 383.387 125.896 380.735 127.616C375.606 130.938 370.565 134.377 365.581 137.903C363.104 139.651 361.268 139.418 359.17 137.145C355.353 132.949 351.477 128.781 347.251 125.051C345.619 123.594 342.88 122.487 340.753 122.662C322.364 124.119 327.901 120.797 317.294 135.455C309.688 145.946 312.165 144.285 301.353 139.476C298.177 138.048 295.117 136.358 291.912 134.988C288.502 133.531 287.336 131.433 288.619 127.791C290.192 123.274 291.27 118.582 292.786 114.036C294.01 110.422 293.077 107.595 291.387 104.215C286.695 94.7149 279.439 91.5968 269.094 91.2471C257.699 90.8682 258.545 92.8499 257.641 80.1442C257.379 76.5306 257.146 72.9171 256.767 69.3035C256.388 65.7482 257.408 63.5626 261.342 62.8341C266.18 61.9598 270.93 60.4445 275.738 59.3662C279.06 58.6086 280.984 56.7435 282.936 53.8294C288.793 45.1452 288.298 37.277 283.461 28.0682C277.895 17.4025 276.263 19.4424 287.832 11.6907C290.862 9.67995 293.893 7.66918 296.837 5.54185C299.226 3.8225 301.12 3.73508 303.248 6.09554C306.832 10.0879 310.737 13.818 314.409 17.723C316.653 20.1126 319.188 20.6954 322.51 20.8994C333.059 21.5405 339.82 17.315 345.386 8.19373C351.652 -2.12237 349.554 -1.71439 361.414 3.99735C364.037 5.25044 366.66 6.47438 369.282 7.69832C374.965 10.3793 375.023 10.4668 373.45 16.6448L373.479 16.5865ZM358.267 76.9386C361.152 62.2804 351.185 47.4474 336.615 44.6206C321.869 41.7648 307.269 51.5563 304.326 66.3602C301.383 81.0475 311.174 95.6183 326.036 98.6199C340.753 101.592 355.382 91.7716 358.267 76.9677V76.9386Z" fill="url(#paint3_linear_2059_2988)"/>
</g>
<path d="M783.617 1004.25C784.636 980.731 779.77 963.129 768.813 950.744C761.848 942.846 748.763 933.405 726.208 933.405C699.427 933.405 669.003 946.489 649.565 956.601C636.656 916.765 605.882 827.971 566.221 754.651C566.804 754.213 567.328 753.747 567.853 753.252C602.211 720.234 637.384 683.982 672.412 645.574C673.403 644.496 674.365 643.417 675.356 642.339C700.155 638.959 717.203 634.995 727.344 630.216C728.656 629.604 729.909 628.963 731.104 628.322C731.482 628.118 731.861 627.914 732.211 627.71C733.056 627.244 733.872 626.778 734.659 626.282C735.008 626.078 735.358 625.845 735.679 625.641L736.028 625.408C736.728 624.971 737.398 624.505 738.097 624.009C738.564 623.689 739.03 623.339 739.409 623.047C740.05 622.552 740.691 622.086 741.449 621.474C741.828 621.153 742.206 620.862 742.585 620.541C743.168 620.046 743.722 619.55 744.275 619.026C744.305 618.997 745.266 618.123 745.47 617.919C746.082 617.336 746.636 616.724 747.364 615.966C747.656 615.675 747.918 615.354 748.21 615.063C749.055 614.101 749.871 613.11 750.541 612.207C750.832 611.799 751.124 611.391 751.357 611.099C751.852 610.4 752.348 609.73 752.843 608.943C753.105 608.506 753.368 608.069 753.63 607.632L753.776 607.369C754.096 606.816 754.446 606.233 754.708 605.708C754.97 605.242 755.203 604.747 755.553 604.047C755.845 603.464 756.107 602.911 756.369 602.328C756.631 601.745 756.865 601.191 757.156 600.463C757.36 599.909 757.564 599.385 757.768 598.831C757.972 598.248 758.176 597.636 758.38 597.053C758.584 596.47 758.73 595.858 758.934 595.159C759.108 594.576 759.254 593.964 759.371 593.498C759.487 592.973 759.604 592.42 759.75 591.749C762.256 579.597 760.653 565.813 755.029 550.602C757.447 547.687 759.866 544.773 762.256 541.859C766.656 536.497 767.501 529.037 764.354 522.859C761.352 516.943 755.32 513.271 748.763 513.271C748.443 513.271 748.122 513.271 747.802 513.271C743.722 513.504 739.613 513.708 735.533 513.912C719.826 490.424 699.164 467.577 680.805 449.189C684.914 448.781 689.023 448.402 693.132 447.994C699.747 447.353 705.43 442.982 707.79 436.746C710.122 430.509 708.752 423.486 704.177 418.649C694.881 408.712 685.41 398.803 676.055 389.187C662.592 375.315 648.254 361.007 633.509 346.669C627.913 341.22 622.26 335.77 616.606 330.437C620.424 324.696 626.165 316.916 631.09 311.437C639.279 302.316 650.469 289.785 658.279 266.064C658.454 265.568 658.599 265.044 658.716 264.519C664.748 238.321 661.339 216.873 648.575 200.816C629.458 176.774 596.207 174.909 586.445 174.909C584.638 174.909 583.647 174.967 583.647 174.967C583.502 174.967 583.239 174.967 583.094 174.996C551.941 177.59 529.444 188.139 516.214 206.353C510.648 213.988 506.918 222.847 504.994 232.668C502.75 230.89 500.536 229.112 498.321 227.364C496.281 225.761 494.27 224.158 492.23 222.585C492.23 222.585 492.172 222.555 492.143 222.526L481.244 213.93C484.333 211.423 486.519 207.868 487.335 203.817C488.646 197.202 486.052 190.442 480.661 186.391C459.621 170.684 438.406 155.792 417.628 142.125C412.965 139.036 408.274 136.034 403.611 133.033C402.387 132.246 401.163 131.488 399.968 130.731L395.597 127.991C393.586 126.709 391.576 125.456 389.565 124.203C386.709 122.454 383.533 121.58 380.385 121.58C375.227 121.58 370.127 123.853 366.718 128.166C362.201 133.82 357.713 139.415 353.196 144.952C348.679 150.488 344.133 155.996 339.587 161.446C335.041 166.895 330.495 172.315 325.949 177.678C321.403 183.04 316.857 188.343 312.34 193.56C310.242 195.978 308.143 198.368 306.045 200.787C296.807 211.336 287.395 221.885 278.04 232.143C272.853 237.826 272.037 246.189 275.942 252.804C276.641 253.97 277.487 255.048 278.39 255.981L268.249 266.588C268.074 266.763 267.87 266.938 267.695 267.113C265.713 269.211 263.732 271.309 261.75 273.378C251.084 284.569 240.098 295.788 229.17 306.687C194.113 341.599 158.676 373.887 123.852 402.65C112.4 412.092 100.831 421.359 89.4071 430.131C80.4898 437.008 71.4268 443.74 62.5095 450.209C56.3315 454.668 53.767 462.594 56.1566 469.85C58.5171 477.019 65.2196 481.886 72.7673 481.886H72.913C75.7106 481.886 78.5081 481.828 81.3057 481.769L90.6893 481.653C103.832 481.507 116.975 481.361 130.176 481.128H130.584C134.984 481.128 138.219 482.614 139.793 484.013C139.793 484.013 139.938 484.159 140.201 484.45L140.317 484.567L140.492 484.829L141.162 502.431C141.308 506.394 142.765 510.007 145.126 512.834C102.9 510.561 60.6153 507.851 18.7972 504.704C18.36 504.675 17.9229 504.645 17.4858 504.645C10.113 504.645 3.46872 509.279 0.99169 516.331C-1.63105 523.791 1.07912 532.068 7.57768 536.555C16.4076 542.617 25.354 548.941 34.213 555.381C44.5874 562.928 55.1658 570.884 65.6276 578.985C76.0311 587.058 86.5221 595.48 96.8673 604.018C120.297 623.368 143.96 644.233 167.302 666.148C170.158 724.868 195.832 762.723 232.929 762.723C248.17 762.723 264.431 756.078 281.391 742.936C281.741 756.632 282.091 770.3 282.441 783.996C282.819 798.596 283.169 812.963 283.577 826.834C283.694 830.739 285.355 834.79 287.832 837.791C291.27 841.929 296.254 844.115 301.295 844.115C304.501 844.115 307.765 843.241 310.65 841.405C315.574 838.287 320.529 835.081 325.483 831.817C324.9 883.252 325.803 933.988 326.561 964.178C290.454 948.908 262.945 941.448 242.954 941.448C225.498 941.448 212.297 946.955 203.729 957.825C192.568 971.988 192.452 991.251 195.657 1010.25C187.148 1014.07 179.28 1020.48 179.28 1031.61C179.28 1052.42 205.012 1057.75 231.385 1061.42C256.038 1064.86 288.648 1066.76 323.21 1066.76C357.771 1066.76 390.381 1064.86 415.035 1061.42C441.378 1057.75 467.14 1052.39 467.14 1031.61C467.14 1013.95 448.081 1007.54 430.217 1004.19L408.332 824.852C414.772 832.954 421.125 841.113 427.391 849.302C427.711 849.856 428.09 850.41 428.469 850.905C428.469 850.905 428.585 851.051 428.614 851.08C437.036 862.095 445.429 873.286 453.56 884.359C456.445 888.264 460.816 890.829 465.653 891.383C466.324 891.47 466.994 891.499 467.664 891.499C471.802 891.499 475.824 890.042 479.029 887.303L479.758 886.662C483.401 883.427 485.528 878.793 485.615 873.927V872.557C485.761 871.741 485.848 870.925 485.848 870.109L485.965 862.736C485.965 861.891 485.965 861.046 485.819 860.23C486.286 832.604 486.752 803.696 487.16 772.835C538.507 846.563 558.353 964.848 563.889 1005.79C554.681 1009.64 545.705 1016.28 545.705 1028.29C545.705 1050.55 576.77 1055.45 593.468 1058.07C615.616 1061.54 644.874 1063.46 675.822 1063.46C706.77 1063.46 736.058 1061.54 758.176 1058.07C774.874 1055.45 805.939 1050.58 805.939 1028.29C805.939 1014.8 794.719 1007.98 783.587 1004.19L783.617 1004.25ZM298.556 341.861C298.556 341.482 298.556 341.103 298.556 340.724L299.139 341.336C298.935 341.511 298.76 341.686 298.585 341.861H298.556Z" fill="white"/>
<path opacity="0.15" d="M323.209 1049.34C393.027 1049.34 449.625 1041.42 449.625 1031.65C449.625 1021.88 393.027 1013.96 323.209 1013.96C253.392 1013.96 196.793 1021.88 196.793 1031.65C196.793 1041.42 253.392 1049.34 323.209 1049.34Z" fill="#262830"/>
<path opacity="0.15" d="M675.851 1046.04C738.072 1046.04 788.512 1038.12 788.512 1028.35C788.512 1018.58 738.072 1010.66 675.851 1010.66C613.63 1010.66 563.19 1018.58 563.19 1028.35C563.19 1038.12 613.63 1046.04 675.851 1046.04Z" fill="#262830"/>
<path d="M372.896 679.118C348.679 682.324 354.07 677.457 354.07 677.457C336.352 749.466 344.832 991.486 344.832 991.486C208.421 927.491 202.418 968.144 216.697 1025.06C222.671 1048.92 415.792 1030.68 415.792 1030.68L372.896 679.118Z" fill="#F5F0E3"/>
<path d="M372.896 679.118C348.679 682.324 354.07 677.457 354.07 677.457C336.352 749.466 344.832 991.486 344.832 991.486C208.421 927.491 202.418 968.144 216.697 1025.06C222.671 1048.92 415.792 1030.68 415.792 1030.68L372.896 679.118Z" stroke="#262830" stroke-width="5.8283" stroke-linecap="round" stroke-linejoin="round"/>
<path opacity="0.15" d="M386.242 788.488L381.87 752.76L374.294 726.475C374.294 726.475 361.734 726.999 347.017 728.048C344.394 760.046 343.258 799.27 342.908 837.533L386.213 788.488H386.242Z" fill="black"/>
<path d="M765.082 1015.88C780.469 892.728 639.365 982.513 639.365 982.513C639.365 982.513 542.907 659.246 444.904 655.137C432.431 654.612 448.751 661.665 428.964 666.444C433.626 681.772 438.056 696.314 441.582 707.971C557.274 764.418 583.443 1016.81 583.443 1023.05C583.443 1029.29 761.847 1041.85 765.082 1015.85V1015.88Z" fill="#F5F0E3"/>
<path d="M765.082 1015.88C780.469 892.728 639.365 982.513 639.365 982.513C639.365 982.513 542.907 659.246 444.904 655.137C432.431 654.612 448.751 661.665 428.964 666.444C433.626 681.772 438.056 696.314 441.582 707.971C557.274 764.418 583.443 1016.81 583.443 1023.05C583.443 1029.29 761.847 1041.85 765.082 1015.85V1015.88Z" stroke="#262830" stroke-width="5.8283" stroke-linecap="round" stroke-linejoin="round"/>
<path opacity="0.15" d="M512.308 702.347C490.744 674.605 467.868 656.129 444.904 655.167C432.431 654.643 448.751 661.695 428.964 666.474C433.626 681.803 438.056 696.344 441.582 708.001C463.205 718.55 481.71 735.977 497.505 757.337C502.021 740.61 508.054 718.2 512.308 702.347Z" fill="black"/>
<path d="M380.414 139.04C375.867 144.723 371.321 150.376 366.775 155.971C362.2 161.566 357.625 167.103 353.05 172.582C343.899 183.597 334.72 194.409 325.54 204.987C323.442 207.406 321.315 209.825 319.216 212.244C309.804 222.997 300.391 233.546 290.978 243.862C291.007 243.862 291.036 243.862 291.066 243.862C306.365 240.219 318.808 248.117 318.954 261.58C319.712 341.952 320.732 422.383 321.985 502.843C362.579 502.581 403.202 501.881 443.796 500.774C443.884 411.892 443.651 322.981 443.097 234.041C443.01 219.267 455.191 204.2 470.257 200.354C449.537 184.88 428.818 170.309 408.098 156.671C403.494 153.64 398.889 150.668 394.285 147.724C389.681 144.781 385.047 141.896 380.443 139.04H380.414ZM280.4 279.094C278.389 281.222 276.407 283.32 274.397 285.418C263.41 296.929 252.453 308.148 241.496 319.047C193.704 366.635 146.378 408.337 100.043 443.977C90.8925 451 81.8003 457.79 72.7373 464.347C91.7667 464.172 110.767 463.939 129.796 463.589C144.921 463.269 157.51 472.273 157.947 483.813C158.18 489.758 158.413 495.732 158.647 501.677C200.261 502.522 241.875 502.93 283.46 502.93C282.09 428.299 281.07 353.667 280.4 279.065V279.094ZM481.505 236.314C482.205 324.176 482.409 412.009 482.059 499.812C523.644 498.413 565.258 496.577 606.872 494.333C606.989 485.708 607.076 477.082 607.164 468.456C607.31 451.933 619.636 437.42 634.703 435.963C653.644 434.215 672.586 432.437 691.499 430.572C682.232 420.664 672.936 410.93 663.611 401.343C616.314 352.677 568.493 307.973 520.526 267.904C509.54 258.724 498.524 249.778 487.538 241.065C485.527 239.491 483.516 237.888 481.505 236.344V236.314Z" fill="url(#paint4_linear_2059_2988)"/>
<path d="M380.414 139.04C375.867 144.723 371.321 150.376 366.775 155.971C362.2 161.566 357.625 167.103 353.05 172.582C343.899 183.597 334.72 194.409 325.54 204.987C323.442 207.406 321.315 209.825 319.216 212.244C309.804 222.997 300.391 233.546 290.978 243.862C291.007 243.862 291.036 243.862 291.066 243.862C306.365 240.219 318.808 248.117 318.954 261.58C319.712 341.952 320.732 422.383 321.985 502.843C362.579 502.581 403.202 501.881 443.796 500.774C443.884 411.892 443.651 322.981 443.097 234.041C443.01 219.267 455.191 204.2 470.257 200.354C449.537 184.88 428.818 170.309 408.098 156.671C403.494 153.64 398.889 150.668 394.285 147.724C389.681 144.781 385.047 141.896 380.443 139.04H380.414ZM280.4 279.094C278.389 281.222 276.407 283.32 274.397 285.418C263.41 296.929 252.453 308.148 241.496 319.047C193.704 366.635 146.378 408.337 100.043 443.977C90.8925 451 81.8003 457.79 72.7373 464.347C91.7667 464.172 110.767 463.939 129.796 463.589C144.921 463.269 157.51 472.273 157.947 483.813C158.18 489.758 158.413 495.732 158.647 501.677C200.261 502.522 241.875 502.93 283.46 502.93C282.09 428.299 281.07 353.667 280.4 279.065V279.094ZM481.505 236.314C482.205 324.176 482.409 412.009 482.059 499.812C523.644 498.413 565.258 496.577 606.872 494.333C606.989 485.708 607.076 477.082 607.164 468.456C607.31 451.933 619.636 437.42 634.703 435.963C653.644 434.215 672.586 432.437 691.499 430.572C682.232 420.664 672.936 410.93 663.611 401.343C616.314 352.677 568.493 307.973 520.526 267.904C509.54 258.724 498.524 249.778 487.538 241.065C485.527 239.491 483.516 237.888 481.505 236.344V236.314Z" fill="url(#paint5_linear_2059_2988)"/>
<g opacity="0.3">
<path d="M166.165 488.769C165.874 480.9 159.9 474.198 151.332 470.847C155.296 474.344 157.743 478.861 157.918 483.815C158.151 489.76 158.385 495.734 158.618 501.678C161.299 501.737 163.98 501.737 166.661 501.795C166.486 497.453 166.311 493.082 166.165 488.74V488.769Z" fill="white"/>
<path d="M303.917 243.57C311.756 234.915 319.595 226.143 327.434 217.197C329.533 214.778 331.66 212.388 333.758 209.94C342.938 199.333 352.117 188.521 361.268 177.535C365.843 172.056 370.418 166.49 374.993 160.924C379.51 155.387 384.027 149.792 388.515 144.139C385.805 142.449 383.124 140.729 380.414 139.039C375.868 144.722 371.321 150.375 366.775 155.97C362.2 161.565 357.625 167.102 353.05 172.581C343.899 183.596 334.72 194.408 325.54 204.986C323.442 207.405 321.315 209.824 319.216 212.243C309.804 222.996 300.391 233.545 290.978 243.861C291.007 243.861 291.037 243.861 291.066 243.861C295.699 242.754 300.07 242.725 303.917 243.57Z" fill="white"/>
<path d="M108.261 448.929C154.596 413.289 201.922 371.587 249.714 323.999C259.972 313.77 270.259 303.25 280.546 292.497C280.517 288.038 280.429 283.55 280.4 279.092C278.389 281.219 276.408 283.317 274.397 285.416C263.411 296.926 252.453 308.146 241.496 319.045C193.704 366.633 146.378 408.334 100.043 443.975C90.8927 450.998 81.8006 457.788 72.7375 464.344C77.8082 464.286 82.8788 464.199 87.9494 464.14C94.7103 459.186 101.471 454.116 108.261 448.899V448.929Z" fill="white"/>
<path d="M327.144 266.506C327.056 257.793 321.811 251.44 314.001 249.021C317.061 252.198 318.867 256.482 318.926 261.581C319.683 341.954 320.703 422.384 321.956 502.844C324.667 502.844 327.406 502.757 330.116 502.757C328.892 423.987 327.901 345.247 327.144 266.536V266.506Z" fill="white"/>
<path d="M490.307 499.464C490.598 413.934 490.423 328.374 489.753 242.786C489.025 242.203 488.267 241.591 487.538 241.008C485.528 239.434 483.517 237.832 481.506 236.287C482.206 324.149 482.409 411.981 482.06 499.785C484.799 499.697 487.568 499.552 490.307 499.464Z" fill="white"/>
</g>
<path d="M380.414 139.04C375.867 144.723 371.321 150.376 366.775 155.971C362.2 161.566 357.625 167.103 353.05 172.582C343.899 183.597 334.72 194.409 325.54 204.987C323.442 207.406 321.315 209.825 319.216 212.244C309.804 222.997 300.391 233.546 290.978 243.862C291.007 243.862 291.036 243.862 291.066 243.862C306.365 240.219 318.808 248.117 318.954 261.58C319.712 341.952 320.732 422.383 321.985 502.843C362.579 502.581 403.202 501.881 443.796 500.774C443.884 411.892 443.651 322.981 443.097 234.041C443.01 219.267 455.191 204.2 470.257 200.354C449.537 184.88 428.818 170.309 408.098 156.671C403.494 153.64 398.889 150.668 394.285 147.724C389.681 144.781 385.047 141.896 380.443 139.04H380.414ZM280.4 279.094C278.389 281.222 276.407 283.32 274.397 285.418C263.41 296.929 252.453 308.148 241.496 319.047C193.704 366.635 146.378 408.337 100.043 443.977C90.8925 451 81.8003 457.79 72.7373 464.347C91.7667 464.172 110.767 463.939 129.796 463.589C144.921 463.269 157.51 472.273 157.947 483.813C158.18 489.758 158.413 495.732 158.647 501.677C200.261 502.522 241.875 502.93 283.46 502.93C282.09 428.299 281.07 353.667 280.4 279.065V279.094ZM481.505 236.314C482.205 324.176 482.409 412.009 482.059 499.812C523.644 498.413 565.258 496.577 606.872 494.333C606.989 485.708 607.076 477.082 607.164 468.456C607.31 451.933 619.636 437.42 634.702 435.963C653.644 434.215 672.586 432.437 691.499 430.572C682.232 420.664 672.936 410.93 663.611 401.343C616.314 352.677 568.493 307.973 520.526 267.904C509.54 258.724 498.524 249.778 487.538 241.065C485.527 239.491 483.516 237.888 481.505 236.344V236.314Z" stroke="#262830" stroke-width="5.8283" stroke-linecap="round" stroke-linejoin="round"/>
<g opacity="0.2">
<path d="M498.612 360.051C498.466 360.197 483.72 375.642 465.944 375.03C455.54 374.651 445.545 368.677 436.22 357.254L420.396 370.134C433.626 386.395 448.78 394.905 465.419 395.429C465.944 395.429 466.469 395.429 466.993 395.429C493.366 395.429 512.745 374.797 513.561 373.894L498.612 360.022V360.051Z" fill="black"/>
<path d="M346.726 325.023C358.587 328.054 366.571 345.889 368.67 352.504L378.403 349.473L388.136 346.442C387.029 342.916 376.713 311.677 351.826 305.295C337.051 301.506 321.46 307.393 305.491 322.779L319.654 337.467C330.174 327.326 339.266 323.129 346.726 325.023Z" fill="black"/>
<path d="M492.842 424.513C492.317 424.018 491.793 423.552 491.239 423.056C491.239 423.056 491.239 423.056 491.21 423.027C488.354 420.521 484.973 418.16 480.981 416.033C476.989 413.906 472.355 412.012 467.051 410.438C452.801 406.271 433.51 404.522 407.34 407.203L402.94 429.147L506.626 459.308C506.626 459.308 508.957 439.988 492.929 424.601L492.871 424.543L492.842 424.513Z" fill="black"/>
<path d="M340.81 357.456C321.431 356.494 304.646 378.059 303.276 405.568C301.906 433.078 316.506 456.187 335.885 457.149C352.03 457.936 366.367 443.044 371.496 422.121C372.72 419.236 373.449 415.914 373.449 412.358C373.449 411.572 373.42 410.814 373.332 410.085C373.332 409.736 373.391 409.386 373.42 409.036C374.789 381.498 360.189 358.417 340.81 357.456Z" fill="black"/>
<path d="M421.445 477.114C402.357 483.554 387.407 498.853 377.062 522.604L391.983 529.102C400.405 509.81 412.003 497.513 426.515 492.588C449.1 484.924 472.093 497.367 472.326 497.513L480.252 483.292C479.058 482.621 450.965 467.206 421.445 477.114Z" fill="black"/>
</g>
<path d="M457.93 383.95C457.406 383.95 456.881 383.95 456.357 383.95C439.717 383.425 424.592 374.916 411.333 358.655L427.157 345.774C436.453 357.198 446.448 363.172 456.881 363.551C474.657 364.134 489.403 348.718 489.549 348.572L504.498 362.443C503.682 363.347 484.303 383.979 457.93 383.979V383.95Z" fill="#262830"/>
<path d="M359.607 340.964C357.509 334.349 349.524 316.514 337.663 313.483C330.232 311.589 321.111 315.786 310.591 325.927L296.428 311.24C312.398 295.824 327.988 289.937 342.763 293.755C367.65 300.137 377.966 331.376 379.073 334.902L359.578 340.935L359.607 340.964Z" fill="#262830"/>
<path d="M497.562 447.769C497.562 447.769 505.256 384.677 398.277 395.664L393.877 417.607L497.562 447.769Z" fill="white"/>
<path d="M497.562 447.769C497.562 447.769 505.256 384.677 398.277 395.664L393.877 417.607L497.562 447.769Z" stroke="#262830" stroke-width="5.8283" stroke-linecap="round" stroke-linejoin="round"/>
<path d="M490.393 420.871C486.896 426.175 480.981 429.672 474.249 429.672C463.496 429.672 454.812 420.755 454.812 409.768C454.812 405.747 455.977 402.017 457.988 398.898C475.036 403.911 484.827 412.362 490.393 420.871Z" fill="#262830"/>
<path d="M364.412 397.553C365.773 370.017 351.174 346.919 331.804 345.961C312.433 345.003 295.627 366.55 294.266 394.086C292.905 421.622 307.504 444.721 326.874 445.678C346.244 446.636 363.05 425.089 364.412 397.553Z" fill="white"/>
<path d="M364.412 397.553C365.773 370.017 351.174 346.919 331.804 345.961C312.433 345.003 295.627 366.55 294.266 394.086C292.905 421.622 307.504 444.721 326.874 445.678C346.244 446.636 363.05 425.089 364.412 397.553Z" stroke="#262830" stroke-width="5.8283" stroke-linecap="round" stroke-linejoin="round"/>
<path d="M349.32 420.781C357.641 420.781 364.386 411.87 364.386 400.877C364.386 389.885 357.641 380.974 349.32 380.974C340.999 380.974 334.254 389.885 334.254 400.877C334.254 411.87 340.999 420.781 349.32 420.781Z" fill="#262830"/>
<path d="M382.92 517.562L367.999 511.063C378.345 487.313 393.265 472.013 412.382 465.573C441.902 455.636 470.024 471.081 471.189 471.751L463.263 485.972C463.03 485.856 440.037 473.383 417.452 481.047C402.969 485.972 391.342 498.27 382.92 517.562Z" fill="#262830"/>
<path d="M748.85 530.704C740.02 541.428 731.161 552.006 722.331 562.439C701.349 587.122 680.397 610.93 659.531 633.806C624.532 672.186 589.854 707.913 555.758 740.697C555.933 734.17 556.137 727.613 556.312 721.085C557.099 692.964 536.875 668.922 511.288 667.057C497.854 665.979 484.42 664.871 470.986 663.647C470.316 733.674 469.383 803.701 468.13 873.729C467.984 873.874 467.809 873.991 467.664 874.137C459.358 862.8 450.966 851.61 442.485 840.566C442.485 840.566 442.456 840.507 442.427 840.507C442.456 840.507 442.515 840.478 442.544 840.449C423.456 815.533 404.019 791.375 384.319 768.003C384.319 768.003 384.29 767.945 384.261 767.945C384.261 767.974 384.202 768.003 384.173 768.032C364.94 782.982 345.969 796.824 327.231 809.588C326.968 809.763 326.706 809.938 326.415 810.142C326.415 810.142 326.444 810.142 326.473 810.171C326.473 810.171 326.444 810.2 326.415 810.229C317.993 815.941 309.629 821.449 301.295 826.723C301.207 826.636 301.12 826.519 301.032 826.432C299.342 765.788 297.827 705.174 296.516 644.56C283.081 642.811 269.647 641.033 256.213 639.168C230.627 635.846 210.577 649.718 211.51 670.437C211.714 675.391 211.947 680.345 212.151 685.299C177.851 651.233 143.085 619.614 107.97 590.619C86.9297 573.25 65.7438 556.814 44.4705 541.311C35.4949 534.783 26.4902 528.401 17.4563 522.194C261.109 540.437 504.673 544.225 748.792 530.762L748.85 530.704Z" fill="url(#paint6_linear_2059_2988)"/>
<path d="M748.85 530.704C740.02 541.428 731.161 552.006 722.331 562.439C701.349 587.122 680.397 610.93 659.531 633.806C624.532 672.186 589.854 707.913 555.758 740.697C555.933 734.17 556.137 727.613 556.312 721.085C557.099 692.964 536.875 668.922 511.288 667.057C497.854 665.979 484.42 664.871 470.986 663.647C470.316 733.674 469.383 803.701 468.13 873.729C467.984 873.874 467.809 873.991 467.664 874.137C459.358 862.8 450.966 851.61 442.485 840.566C442.485 840.566 442.456 840.507 442.427 840.507C442.456 840.507 442.515 840.478 442.544 840.449C423.456 815.533 404.019 791.375 384.319 768.003C384.319 768.003 384.29 767.945 384.261 767.945C384.261 767.974 384.202 768.003 384.173 768.032C364.94 782.982 345.969 796.824 327.231 809.588C326.968 809.763 326.706 809.938 326.415 810.142C326.415 810.142 326.444 810.142 326.473 810.171C326.473 810.171 326.444 810.2 326.415 810.229C317.993 815.941 309.629 821.449 301.295 826.723C301.207 826.636 301.12 826.519 301.032 826.432C299.342 765.788 297.827 705.174 296.516 644.56C283.081 642.811 269.647 641.033 256.213 639.168C230.627 635.846 210.577 649.718 211.51 670.437C211.714 675.391 211.947 680.345 212.151 685.299C177.851 651.233 143.085 619.614 107.97 590.619C86.9297 573.25 65.7438 556.814 44.4705 541.311C35.4949 534.783 26.4902 528.401 17.4563 522.194C261.109 540.437 504.673 544.225 748.792 530.762L748.85 530.704Z" fill="url(#paint7_linear_2059_2988)"/>
<g opacity="0.3">
<path d="M308.61 643.863C304.646 643.338 300.654 642.784 296.691 642.26C297.973 700.863 299.43 767.714 301.062 826.318C301.149 826.405 301.237 826.522 301.324 826.609C305.113 824.19 308.93 821.742 312.748 819.236C311.232 763.518 309.834 699.523 308.61 643.833V643.863Z" fill="white"/>
<path d="M120.064 598.224C99.0233 580.856 77.8375 564.42 56.5641 548.917C47.5885 542.389 38.5838 536.007 29.5499 529.8C266.791 547.576 503.945 551.569 741.652 539.329C744.042 536.444 746.431 533.588 748.821 530.674C504.673 544.137 261.109 540.349 17.4854 522.106C26.5192 528.314 35.524 534.666 44.4995 541.223C65.802 556.727 86.9588 573.162 107.999 590.531C143.114 619.527 177.88 651.116 212.18 685.212C212.122 683.755 212.063 682.297 211.976 680.84C181.669 651.349 150.983 623.781 120.034 598.224H120.064Z" fill="white"/>
<path d="M568.348 728.43C568.873 706.05 556.08 686.35 537.895 678.365C549.435 688.39 556.75 703.951 556.284 721.028C556.109 727.556 555.934 734.113 555.73 740.641C559.926 736.619 564.123 732.539 568.348 728.401V728.43Z" fill="white"/>
<path d="M445.079 834.417C445.079 834.417 445.05 834.358 445.021 834.358C445.05 834.358 445.109 834.329 445.138 834.3C426.05 809.384 406.613 785.226 386.913 761.854C386.913 761.854 386.884 761.796 386.855 761.796C386.855 761.825 386.796 761.854 386.767 761.883C385.631 762.758 384.523 763.603 383.416 764.448C400.172 784.614 416.754 805.304 433.073 826.607C433.044 826.607 432.986 826.636 432.957 826.665C432.957 826.665 432.986 826.723 433.015 826.723C441.466 837.768 459.563 858.925 467.897 870.261C468.043 870.115 468.218 869.998 468.364 869.853C468.422 867.376 468.451 864.928 468.48 862.451C463.934 856.389 449.684 840.391 445.079 834.387V834.417Z" fill="white"/>
</g>
<path d="M748.85 530.704C740.02 541.428 731.161 552.006 722.331 562.439C701.349 587.122 680.397 610.93 659.531 633.806C624.532 672.186 589.854 707.913 555.758 740.697C555.933 734.17 556.137 727.613 556.312 721.085C557.099 692.964 536.875 668.922 511.288 667.057C497.854 665.979 484.42 664.871 470.986 663.647C470.316 733.674 469.383 803.701 468.13 873.729C467.984 873.874 467.809 873.991 467.664 874.137C459.358 862.8 450.966 851.61 442.485 840.566C442.485 840.566 442.456 840.507 442.427 840.507C442.456 840.507 442.515 840.478 442.544 840.449C423.456 815.533 404.019 791.375 384.319 768.003C384.319 768.003 384.29 767.945 384.261 767.945C384.261 767.974 384.202 768.003 384.173 768.032C364.94 782.982 345.969 796.824 327.231 809.588C326.968 809.763 326.706 809.938 326.415 810.142C326.415 810.142 326.444 810.142 326.473 810.171C326.473 810.171 326.444 810.2 326.415 810.229C317.993 815.941 309.629 821.449 301.295 826.723C301.207 826.636 301.12 826.519 301.032 826.432C299.342 765.788 297.827 705.174 296.516 644.56C283.081 642.811 269.647 641.033 256.213 639.168C230.627 635.846 210.577 649.718 211.51 670.437C211.714 675.391 211.947 680.345 212.151 685.299C177.851 651.233 143.085 619.614 107.97 590.619C86.9297 573.25 65.7438 556.814 44.4705 541.311C35.4949 534.783 26.4902 528.401 17.4563 522.194C261.109 540.437 504.673 544.225 748.792 530.762L748.85 530.704Z" stroke="#262830" stroke-width="5.8283" stroke-linecap="round" stroke-linejoin="round"/>
<path d="M577.352 482.474C577.352 482.474 575.283 476.296 575.953 466.854" stroke="#262830" stroke-width="5.8283" stroke-linecap="round" stroke-linejoin="round"/>
<path d="M563.073 472.449C563.073 472.449 561.441 454.352 571.291 438.44" stroke="#262830" stroke-width="5.8283" stroke-linecap="round" stroke-linejoin="round"/>
<path opacity="0.2" d="M726.236 531.84C703.477 533.005 680.747 534.054 657.987 534.9C684.622 560.165 698.231 584.994 664.806 594.844C646.33 600.264 570.97 598.224 570.97 598.224C570.97 598.224 587.261 573.57 571.408 570.277C549.639 565.76 501.293 569.432 485.615 587.966C473.259 602.566 517.292 595.164 517.292 595.164C517.292 595.164 500.156 600.497 492.201 605.859C482.118 612.649 483.983 619.847 509.511 615.505C509.511 615.505 473.696 640.421 511.522 632.407C511.522 632.407 491.356 655.662 524.49 645.375C542.878 639.663 562.723 637.449 562.723 637.449C562.723 637.449 568.377 677.81 598.422 644.472C598.422 644.472 624.212 643.306 653.383 640.45C655.423 638.235 657.462 636.021 659.532 633.777C680.397 610.901 701.35 587.092 722.331 562.409C726.79 557.135 731.249 551.831 735.737 546.498C732.881 541.66 729.704 536.765 726.266 531.811L726.236 531.84Z" fill="black"/>
<path d="M627.825 424.045C613.575 415.827 577.352 433.924 575.953 466.854C621.123 495.966 718.281 564.566 656.879 582.575C638.404 587.995 563.044 585.955 563.044 585.955C563.044 585.955 579.334 561.302 563.481 558.009C541.712 553.492 493.366 557.164 477.688 575.698C465.332 590.298 509.365 582.896 509.365 582.896C509.365 582.896 492.23 588.229 484.274 593.591C474.191 600.381 476.056 607.578 501.584 603.236C501.584 603.236 465.769 628.152 503.595 620.138C503.595 620.138 483.429 643.393 516.563 633.106C534.951 627.395 554.797 625.18 554.797 625.18C554.797 625.18 560.45 665.541 590.495 632.203C590.495 632.203 691.704 627.628 719.942 614.368C788.279 582.313 692.549 478.86 627.796 424.016L627.825 424.045Z" fill="#F5F0E3"/>
<path d="M627.825 424.045C613.575 415.827 577.352 433.924 575.953 466.854C621.123 495.966 718.281 564.566 656.879 582.575C638.404 587.995 563.044 585.955 563.044 585.955C563.044 585.955 579.334 561.302 563.481 558.009C541.712 553.492 493.366 557.164 477.688 575.698C465.332 590.298 509.365 582.896 509.365 582.896C509.365 582.896 492.23 588.229 484.274 593.591C474.191 600.381 476.056 607.578 501.584 603.236C501.584 603.236 465.769 628.152 503.595 620.138C503.595 620.138 483.429 643.393 516.563 633.106C534.951 627.395 554.797 625.18 554.797 625.18C554.797 625.18 560.45 665.541 590.495 632.203C590.495 632.203 691.704 627.628 719.942 614.368C788.279 582.313 692.549 478.86 627.796 424.016L627.825 424.045Z" fill="#F5F0E3"/>
<path opacity="0.2" d="M516.592 633.108C534.165 627.659 553.019 625.386 554.651 625.211C560.858 611.922 498.904 631.68 498.904 631.68C498.904 631.68 499.253 633.195 499.72 635.119C502.255 636.255 507.355 635.993 516.592 633.108Z" fill="black"/>
<path opacity="0.2" d="M520.848 613.437C520.848 613.437 542.908 614.573 542.791 612.213C541.83 590.677 488.763 619.615 488.763 619.615C488.763 619.615 488.996 620.431 489.317 621.567C491.939 622.033 502.197 620.576 520.848 613.437Z" fill="black"/>
<path opacity="0.2" d="M539.643 596.827C539.06 584.092 519.128 590.649 502.342 596.565C490.277 600.82 478.883 599.858 478.883 599.858C478.883 599.858 479.437 601.169 480.224 603.034C483.05 604.783 495.202 606.852 506.713 600.557C506.713 600.557 539.731 599.217 539.614 596.856L539.643 596.827Z" fill="black"/>
<path opacity="0.2" d="M540.052 581.206C539.469 568.471 522.159 572.026 503.013 577.097C493.629 579.603 482.905 576.631 478.301 575.057C478.097 575.29 477.893 575.494 477.689 575.698C477.397 576.048 477.193 576.339 476.96 576.66C477.689 578.467 478.738 581.089 479.874 583.916C489.025 586.306 509.365 582.896 509.365 582.896C509.365 582.896 540.11 583.537 540.022 581.177L540.052 581.206Z" fill="black"/>
<path opacity="0.2" d="M743.285 584.557C742.877 585.343 742.352 584.003 741.857 584.994C726.237 614.602 639.22 619.148 611.448 620.168C586.765 621.071 584.492 628.793 575.458 636.633C567.095 643.86 559.081 636.662 557.915 635.554C562.053 644.705 571.291 653.593 590.525 632.261C590.525 632.261 691.733 627.686 719.971 614.427C734.863 607.462 741.944 597.088 743.285 584.586V584.557Z" fill="black"/>
<path opacity="0.15" d="M579.567 451.06C577.527 455.839 576.187 461.113 575.953 466.825C621.123 495.938 718.281 564.537 656.88 582.546C654.869 583.129 673.723 584.091 677.716 561.302C689.197 495.734 580.383 451.409 579.538 451.06H579.567Z" fill="black"/>
<path d="M627.825 424.045C613.575 415.827 577.352 433.924 575.953 466.854C621.123 495.966 718.281 564.566 656.879 582.575C638.404 587.995 563.044 585.955 563.044 585.955C563.044 585.955 579.334 561.302 563.481 558.009C541.712 553.492 493.366 557.164 477.688 575.698C465.332 590.298 509.365 582.896 509.365 582.896C509.365 582.896 492.23 588.229 484.274 593.591C474.191 600.381 476.056 607.578 501.584 603.236C501.584 603.236 465.769 628.152 503.595 620.138C503.595 620.138 483.429 643.393 516.563 633.106C534.951 627.395 554.797 625.18 554.797 625.18C554.797 625.18 560.45 665.541 590.495 632.203C590.495 632.203 691.704 627.628 719.942 614.368C788.279 582.313 692.549 478.86 627.796 424.016L627.825 424.045Z" stroke="#262830" stroke-width="5.8283" stroke-linecap="round" stroke-linejoin="round"/>
<path d="M503.624 620.139C503.624 620.139 517.816 611.629 540.576 611.367" stroke="#262830" stroke-width="5.8283" stroke-linecap="round" stroke-linejoin="round"/>
<path d="M501.614 603.236C501.614 603.236 517.292 595.193 537.574 596.562" stroke="#262830" stroke-width="5.8283" stroke-linecap="round" stroke-linejoin="round"/>
<path d="M509.394 582.925C509.394 582.925 522.624 579.807 537.778 581.06" stroke="#262830" stroke-width="5.8283" stroke-linecap="round" stroke-linejoin="round"/>
<path opacity="0.2" d="M413.694 555.793C419.581 551.13 413.14 544.952 399.735 538.453C372.226 538.191 344.745 537.725 317.265 537.055C344.833 548.012 399.152 567.333 413.694 555.793Z" fill="black"/>
<path opacity="0.2" d="M310.707 536.878C283.139 536.179 255.542 535.276 227.974 534.197C215.735 567.885 197.434 622.933 191.635 665.188C198.512 671.774 205.36 678.419 212.18 685.209C211.976 680.255 211.742 675.301 211.538 670.346C210.956 657.116 218.94 646.684 231.442 641.73C233.599 622.321 238.961 598.25 248.315 568.934L262.74 582.223C301.673 616.376 306.627 592.509 306.627 592.509C320.353 596.91 318.983 574.413 318.983 574.413C334.894 582.63 331.601 562.61 331.601 562.61C329.62 552.702 318.925 542.998 310.736 536.849L310.707 536.878Z" fill="black"/>
<path opacity="0.2" d="M297.361 679.527C297.798 698.76 298.235 717.964 298.701 737.198C300.158 735.595 301.644 733.963 303.131 732.215L302.606 674.281C302.606 674.281 300.625 676.409 297.332 679.527H297.361Z" fill="black"/>
<path d="M243.098 539.385C217.599 619.203 221.708 660.351 239.805 673.494C257.902 686.666 297.389 644.702 297.389 644.702L297.913 702.635C221.388 790.672 187.147 724.521 184.669 663.615C182.192 602.709 234.356 474.078 234.356 474.078C234.356 474.078 198.657 401.953 217.599 401.953C236.512 401.953 252.977 472.709 252.977 472.709C308.929 477.634 428.234 510.564 408.476 526.183C388.718 541.803 295.757 500.685 295.757 500.685C295.757 500.685 323.092 516.596 326.385 533.061C326.385 533.061 329.678 553.081 313.766 544.863C313.766 544.863 315.136 567.36 301.41 562.96C301.41 562.96 296.486 586.827 257.523 552.673L243.098 539.385Z" fill="#F5F0E3"/>
<path opacity="0.2" d="M295.757 500.713C295.757 500.713 388.747 541.86 408.476 526.211C411.827 523.559 411.157 520.412 407.514 517.003C405.882 518.168 404.6 519.538 403.988 520.995C400.433 529.504 345.851 514.963 322.246 503.16C298.671 491.358 294.62 499.051 293.804 499.605L295.757 500.713Z" fill="black"/>
<path opacity="0.15" d="M297.418 644.701C297.418 644.701 283.139 659.855 267.839 669.093C272.502 686.315 277.573 705.316 281.448 719.886C286.723 714.961 292.202 709.25 297.943 702.635L297.418 644.701Z" fill="black"/>
<path opacity="0.2" d="M240.942 674.194C240.563 673.961 240.184 673.757 239.806 673.495C221.709 660.323 217.6 619.175 243.099 539.386C243.099 539.386 184.204 638.904 237.241 672.417C238.552 673.233 239.776 673.816 240.942 674.194Z" fill="black"/>
<path d="M243.098 539.385C217.599 619.203 221.708 660.351 239.805 673.494C257.902 686.666 297.389 644.702 297.389 644.702L297.913 702.635C221.388 790.672 187.147 724.521 184.669 663.615C182.192 602.709 234.356 474.078 234.356 474.078C234.356 474.078 198.657 401.953 217.599 401.953C236.512 401.953 252.977 472.709 252.977 472.709C308.929 477.634 428.234 510.564 408.476 526.183C388.718 541.803 295.757 500.685 295.757 500.685C295.757 500.685 323.092 516.596 326.385 533.061C326.385 533.061 329.678 553.081 313.766 544.863C313.766 544.863 315.136 567.36 301.41 562.96C301.41 562.96 296.486 586.827 257.523 552.673L243.098 539.385Z" stroke="#262830" stroke-width="5.8283" stroke-linecap="round" stroke-linejoin="round"/>
<path opacity="0.2" d="M551.416 294.395C554.068 303.517 557.04 310.307 558.089 312.521C562.519 321.876 564.18 341.313 564.18 341.313C564.18 341.313 556.224 344.723 556.224 348.744C556.224 352.766 559.634 354.835 559.634 354.835C559.634 354.835 549.318 385.754 561.062 391.874C572.806 397.993 585.686 398.751 585.686 398.751C585.686 398.751 603.026 400.15 607.776 391.932C612.526 383.714 617.363 361.829 617.363 361.829C617.363 361.829 619.869 360.867 621.414 359.119C598.159 336.505 574.817 314.911 551.445 294.366L551.416 294.395Z" fill="black"/>
<path d="M541.537 328.433C541.537 328.433 539.147 309.053 534.339 299.903C529.531 290.753 486.955 200.53 584.579 192.371C584.579 192.371 658.307 188.524 641.696 260.533C635.052 280.699 626.018 290.84 618.092 299.699C610.165 308.529 597.139 326.538 595.857 332.25C594.575 337.962 548.706 345.917 548.706 345.917L541.479 328.462L541.537 328.433Z" fill="#FFC627"/>
<path d="M541.537 328.433C541.537 328.433 539.147 309.053 534.339 299.903C529.531 290.753 486.955 200.53 584.579 192.371C584.579 192.371 658.307 188.524 641.696 260.533C635.052 280.699 626.018 290.84 618.092 299.699C610.165 308.529 597.139 326.538 595.857 332.25C594.575 337.962 548.706 345.917 548.706 345.917L541.479 328.462L541.537 328.433Z" stroke="#262830" stroke-width="5.8283" stroke-linecap="round" stroke-linejoin="round"/>
<path d="M553.777 333.009C553.777 333.009 555.7 306.461 556.749 285.974C557.245 276.328 557.565 268.023 557.419 264.439C556.924 253.307 553.514 247.303 549.493 251.208C545.471 255.113 536.088 288.131 560.334 284.197C567.736 281.632 576.711 272.802 575.604 260.912C574.496 249.023 567.765 256.454 567.59 265.051C567.415 273.647 567.736 286.411 575.895 286.936C584.055 287.46 592.885 271.374 590.378 261.087C587.872 250.8 583.414 259.863 582.86 269.393C582.306 278.922 586.27 289.763 597.081 289.646C607.893 289.529 616.314 269.976 615.003 262.428C613.692 254.88 608.33 250.975 603.405 259.718C598.48 268.46 583.938 323.042 582.569 337.234" stroke="#262830" stroke-width="5.8283" stroke-linecap="round" stroke-linejoin="round"/>
<path d="M566.57 203.765C566.57 203.765 615.382 215.014 622.492 243.368C624.124 249.342 625.377 257.939 625.29 264.729C625.231 270.47 625.406 274.433 627.242 270.033C629.078 265.632 648.195 230.109 621.006 212.158C593.817 194.207 566.54 203.765 566.54 203.765H566.57Z" fill="#FFE092"/>
<path d="M541.537 328.434C541.537 328.434 533.727 332.164 533.873 336.185C534.018 340.207 537.486 342.159 537.486 342.159C537.486 342.159 528.336 373.428 540.313 379.14C552.29 384.852 565.2 385.085 565.2 385.085C565.2 385.085 582.568 385.813 587.027 377.42C591.486 369.028 595.449 346.968 595.449 346.968C595.449 346.968 602.297 344.083 599.995 339.478C597.693 334.874 595.915 332.222 595.915 332.222C595.915 332.222 582.772 339.333 541.537 328.434Z" fill="#BDCCD4"/>
<path d="M541.537 328.434C541.537 328.434 533.727 332.164 533.873 336.185C534.018 340.207 537.486 342.159 537.486 342.159C537.486 342.159 528.336 373.428 540.313 379.14C552.29 384.852 565.2 385.085 565.2 385.085C565.2 385.085 582.568 385.813 587.027 377.42C591.486 369.028 595.449 346.968 595.449 346.968C595.449 346.968 602.297 344.083 599.995 339.478C597.693 334.874 595.915 332.222 595.915 332.222C595.915 332.222 582.772 339.333 541.537 328.434Z" stroke="#262830" stroke-width="5.8283" stroke-linecap="round" stroke-linejoin="round"/>
<path d="M537.486 342.129C537.486 342.129 569.6 352.562 595.449 346.937" stroke="#262830" stroke-width="5.8283" stroke-linecap="round" stroke-linejoin="round"/>
<path d="M489.957 195.432L515.455 211.897" stroke="#262830" stroke-width="5.8283" stroke-linecap="round" stroke-linejoin="round"/>
<path d="M534.397 192.982L512.978 162.938" stroke="#262830" stroke-width="5.8283" stroke-linecap="round" stroke-linejoin="round"/>
<path d="M636.83 308.441L656.296 317.475" stroke="#262830" stroke-width="5.8283" stroke-linecap="round" stroke-linejoin="round"/>
<path d="M648.895 280.466L687.828 287.314" stroke="#262830" stroke-width="5.8283" stroke-linecap="round" stroke-linejoin="round"/>
<defs>
<linearGradient id="paint0_linear_2059_2988" x1="236.455" y1="421.335" x2="221.622" y2="-29.5721" gradientUnits="userSpaceOnUse">
<stop stop-color="#FFC627"/>
<stop offset="1" stop-color="#FFD127"/>
</linearGradient>
<linearGradient id="paint1_linear_2059_2988" x1="505.81" y1="412.474" x2="491.006" y2="-38.4324" gradientUnits="userSpaceOnUse">
<stop stop-color="#FFC627"/>
<stop offset="1" stop-color="#FFC627"/>
</linearGradient>
<linearGradient id="paint2_linear_2059_2988" x1="671.363" y1="407.055" x2="656.559" y2="-43.8516" gradientUnits="userSpaceOnUse">
<stop stop-color="#FFC627"/>
<stop offset="1" stop-color="#FFC627"/>
</linearGradient>
<linearGradient id="paint3_linear_2059_2988" x1="342.705" y1="417.836" x2="327.901" y2="-33.0707" gradientUnits="userSpaceOnUse">
<stop stop-color="#FFC627"/>
<stop offset="1" stop-color="#FFC627"/>
</linearGradient>
<linearGradient id="paint4_linear_2059_2988" x1="144.979" y1="-53.8769" x2="605.765" y2="920.324" gradientUnits="userSpaceOnUse">
<stop stop-color="#68CDED"/>
<stop offset="1" stop-color="#3B53A7"/>
</linearGradient>
<linearGradient id="paint5_linear_2059_2988" x1="401.046" y1="536.56" x2="282.556" y2="-21.3258" gradientUnits="userSpaceOnUse">
<stop stop-color="#68CDED"/>
<stop offset="1" stop-color="#3B53A7"/>
</linearGradient>
<linearGradient id="paint6_linear_2059_2988" x1="337.401" y1="411.981" x2="600.695" y2="1070.26" gradientUnits="userSpaceOnUse">
<stop stop-color="#68CDED"/>
<stop offset="1" stop-color="#3B53A7"/>
</linearGradient>
<linearGradient id="paint7_linear_2059_2988" x1="337.401" y1="411.981" x2="600.695" y2="1070.26" gradientUnits="userSpaceOnUse">
<stop stop-color="#68CDED"/>
<stop offset="1" stop-color="#3B53A7"/>
</linearGradient>
</defs>
</svg>
