<svg width="1135" height="1051" viewBox="0 0 1135 1051" fill="none" xmlns="http://www.w3.org/2000/svg">
<g opacity="0.3">
<path d="M566.08 0.0291415C565.118 0.58283 564.739 0.699396 564.535 0.96167C563.836 1.80677 563.195 2.68102 562.583 3.58441C514.179 75.6805 474.197 152.06 445.871 234.269C429.552 281.624 418.187 330.086 415.593 380.326C413.553 419.58 417.254 458.134 430.339 495.406C453.71 561.994 500.628 606.989 562.204 638.316C563.923 639.19 566.925 639.044 568.673 638.112C578.319 632.925 588.023 627.767 597.261 621.88C672.009 574.146 710.534 505.431 715.022 417.248C717.82 362.521 708.057 309.512 692.204 257.436C669.328 182.339 635.291 112.311 594.784 45.3151C585.517 30.0158 575.667 15.0953 566.08 0V0.0291415ZM412.679 524.781C409.007 514.931 405.277 506.043 402.304 496.892C384.732 442.951 384.499 387.961 392.921 332.534C400.323 283.868 414.515 237.066 432.641 191.431C434.185 187.584 434.01 185.486 430.193 183.096C389.657 157.423 345.566 141.132 298.648 131.982C294.685 131.195 292.936 132.361 291.537 136.207C269.681 196.501 266.855 257.553 283.669 319.479C297.482 370.331 322.427 415.529 353.755 457.464C371.473 481.185 391.085 503.274 412.65 524.781H412.679ZM696.372 185.981C700.859 198.133 705.347 209.702 709.398 221.388C727.786 274.455 740.929 328.6 742.94 385.018C744.601 431.994 738.365 477.6 719.393 521.021C719.189 521.517 719.219 522.099 719.306 521.458C724.668 516.504 730.963 511.434 736.412 505.576C776.569 462.476 810.49 415.15 833.016 360.335C863.294 286.665 866.442 212.15 839.311 136.761C837.708 132.332 835.755 131.312 831.384 132.157C789.654 140.375 750.05 154.304 713.128 175.607C707.474 178.871 701.996 182.455 696.342 185.981H696.372Z" fill="url(#paint0_linear_2059_2801)"/>
<path d="M16.1494 329.212C32.6727 324.695 49.021 319.362 65.7774 315.836C125.576 303.217 185.083 303.101 244.036 321.518C253.595 324.491 258.636 329.066 261.696 339.061C278.831 395.101 308.818 444.204 345.653 489.315C384.382 536.728 429.143 577.818 478.217 614.274C479.529 615.265 480.869 616.226 482.152 617.246C482.385 617.421 482.443 617.858 482.938 618.966C473.03 617.742 463.559 616.722 454.117 615.381C393.153 606.755 333.471 592.942 275.742 571.232C220.286 550.396 168.385 523.178 122.807 484.798C74.345 444 38.5592 394.372 18.131 334.078C17.6939 332.767 16.8197 331.572 16.1494 330.319C16.1494 329.94 16.1494 329.59 16.1494 329.212Z" fill="url(#paint1_linear_2059_2801)"/>
<path d="M1113.56 333.613C1112.63 335.507 1111.46 337.343 1110.76 339.325C1085.15 410.518 1038.76 465.333 977.325 508.171C923.384 545.792 863.615 570.854 800.756 589.126C751.711 603.405 701.646 612.731 650.94 618.588C650.095 618.675 649.22 618.588 646.977 618.588C650.095 616.257 652.222 614.683 654.32 613.08C713.478 568.698 766.399 518.079 809.324 457.552C836.892 418.648 858.573 376.801 871.92 330.874C872.853 327.668 874.397 326.065 877.457 324.958C920.645 309.338 965.231 304.967 1010.81 308.143C1045.98 310.62 1080.22 317.789 1113.56 329.242V333.642V333.613Z" fill="url(#paint2_linear_2059_2801)"/>
<path d="M566.08 0.0283203C575.668 15.1236 585.547 30.0441 594.785 45.3434C635.292 112.34 669.358 182.367 692.205 257.465C708.058 309.54 717.791 362.549 715.023 417.277C710.535 505.459 672.01 574.175 597.262 621.908C588.024 627.795 578.32 632.953 568.674 638.14C566.955 639.073 563.924 639.219 562.205 638.344C500.629 607.017 453.682 562.023 430.339 495.434C417.255 458.162 413.554 419.608 415.594 380.354C418.187 330.114 429.552 281.652 445.872 234.297C474.197 152.06 514.179 75.7089 562.583 3.61273C563.195 2.70934 563.837 1.83509 564.536 0.989991C564.74 0.727717 565.119 0.611151 566.08 0.0574618V0.0283203Z" fill="url(#paint3_linear_2059_2801)"/>
<path d="M412.679 524.779C391.114 503.272 371.502 481.183 353.784 457.462C322.457 415.527 297.512 370.3 283.699 319.477C266.884 257.58 269.711 196.5 291.567 136.206C292.966 132.359 294.685 131.193 298.677 131.98C345.595 141.131 389.715 157.45 430.222 183.094C434.04 185.513 434.215 187.582 432.67 191.429C414.544 237.094 400.352 283.895 392.95 332.532C384.528 387.959 384.761 442.949 402.334 496.89C405.306 506.012 409.007 514.929 412.708 524.779H412.679Z" fill="url(#paint4_linear_2059_2801)"/>
<path d="M696.371 185.982C702.025 182.485 707.503 178.871 713.157 175.607C750.079 154.334 789.682 140.375 831.413 132.157C835.784 131.312 837.737 132.332 839.339 136.761C866.47 212.151 863.323 286.636 833.045 360.335C810.518 415.15 776.569 462.476 736.441 505.577C730.991 511.434 724.697 516.505 719.335 521.459C719.247 522.129 719.218 521.517 719.422 521.022C738.393 477.601 744.629 431.994 742.968 385.018C740.987 328.6 727.844 274.455 709.426 221.388C705.376 209.674 700.888 198.134 696.4 185.982H696.371Z" fill="url(#paint5_linear_2059_2801)"/>
</g>
<path d="M584.758 962.339C576.89 962.339 570.77 960.911 569.633 960.619C569.167 960.503 568.672 960.444 568.205 960.444C567.739 960.444 567.244 960.503 566.777 960.619C565.612 960.911 559.492 962.339 551.653 962.339C526.854 962.339 509.689 947.243 507.97 923.901C506.629 905.688 512.516 883.103 517.703 867.337C518.257 865.676 518.024 863.87 517.12 862.383C516.217 860.897 514.702 859.877 512.982 859.615L501.296 857.779C500.976 857.721 500.685 857.721 500.364 857.721C497.654 857.721 495.293 859.557 494.623 862.179L493.749 865.501C491.825 872.903 485.414 878.265 477.779 878.819C476.147 878.936 467.23 879.489 453.941 879.489C417.398 879.489 347.021 875.468 286.378 848.658C283.638 847.434 280.841 846.122 278.014 844.723C277.46 844.461 276.936 844.17 276.411 843.907L275.916 843.645C273.934 842.625 271.953 841.605 270.088 840.556C269.563 840.265 269.068 839.973 268.601 839.682L268.135 839.42C266.183 838.283 264.376 837.205 262.627 836.127C262.19 835.835 260.996 835.048 260.996 835.048C259.13 833.825 257.353 832.659 255.633 831.435L254.322 830.473C252.574 829.22 250.796 827.88 249.106 826.51L248.377 825.927C246.454 824.383 244.705 822.867 243.015 821.352L242.636 821.002C240.8 819.341 239.081 817.68 237.478 816.048C235.642 814.183 234.01 812.405 232.466 810.599C213.407 788.509 205.889 762.224 211.834 738.532C216.409 720.347 228.444 706.301 244.88 699.977C258.548 694.703 277.431 691.934 299.491 691.934C311.177 691.934 330.236 692.78 354.744 696.801C355.035 696.859 355.385 696.888 355.705 696.888C357.949 696.888 359.96 695.665 360.98 693.654C362.175 691.352 361.738 688.554 359.902 686.747L311.09 637.935C309.982 636.799 308.467 636.187 306.893 636.187C306.602 636.187 306.281 636.187 305.99 636.245C303.455 636.624 300.89 636.973 298.384 637.294C288.738 638.46 279.005 639.072 269.476 639.072C192.542 639.072 136.532 601.333 110.013 578.836C108.935 577.933 107.595 577.437 106.167 577.437C104.739 577.437 103.486 577.904 102.407 578.778C87.0498 591.25 69.2152 591.25 60.6184 591.25C59.1613 591.25 57.7043 591.25 56.218 591.192C32.5843 590.668 17.1684 580.876 16.9936 566.218C16.9936 565.722 16.9936 565.198 17.0227 564.673C17.1684 562.371 15.9736 560.156 13.9337 559.049C13.4092 558.758 12.9137 558.466 12.4183 558.175C-2.32727 549.112 -0.287364 537.222 0.674306 533.783C1.57769 530.578 2.9182 528.013 4.72498 525.944C6.56089 523.846 6.7066 520.815 5.07468 518.542C0.93658 512.831 -0.491355 506.798 0.820013 500.62C2.53936 492.461 10.1162 484.243 23.1133 484.243C25.6777 484.243 28.5627 484.563 31.6809 485.175C32.0597 485.234 32.4386 485.292 32.8174 485.292C34.0996 485.292 35.3527 484.884 36.3727 484.097C37.7132 483.106 38.5583 481.562 38.7331 479.901C38.908 477.919 39.1994 475.879 39.5782 473.839C45.086 443.59 68.3992 429.806 87.72 429.806C89.148 429.806 90.5759 429.865 91.9456 430.01C92.7615 430.098 93.5775 430.214 94.3643 430.331C94.6849 430.389 95.0054 430.418 95.326 430.418C96.5499 430.418 97.7156 430.04 98.7064 429.369C103.894 425.756 110.596 422.288 118.581 419.024L119.076 418.849C126.303 416.139 132.773 414.828 138.893 414.828C150.607 414.828 160.516 419.869 166.839 429.049C182.78 452.158 170.424 499.047 161.623 524.924C160.865 527.168 161.506 529.674 163.284 531.248C168.325 535.765 175.145 539.495 183.508 542.322C185.286 542.934 187.209 543.487 189.22 544.041L191.289 544.537C192.659 544.886 193.999 545.207 195.369 545.498C195.806 545.586 197.817 545.965 197.817 545.965C199.186 546.227 200.527 546.489 201.926 546.722C202.363 546.78 205.19 547.188 205.19 547.188C205.423 547.218 205.743 547.247 206.035 547.247C208.308 547.247 210.318 545.994 211.338 543.983C212.475 541.681 212.038 538.941 210.231 537.135L207.812 534.716C202.712 529.616 201.197 521.981 203.966 515.308C206.734 508.634 213.203 504.292 220.431 504.292H333.529C335.656 504.292 337.638 503.126 338.687 501.291C339.736 499.425 339.707 497.152 338.599 495.317C336.938 492.548 336.064 489.372 336.064 486.195V464.339C336.064 464.019 336.064 463.698 335.977 463.407L335.918 462.969C335.86 462.649 335.802 462.328 335.685 462.037L335.481 461.483C335.277 460.93 335.015 460.434 334.665 459.997L334.461 459.706C334.228 459.385 333.937 459.094 333.645 458.831L333.325 458.54C333.004 458.249 332.655 457.986 332.276 457.782C331.11 457.112 329.828 456.762 328.487 456.762H275.566C268.339 456.762 261.87 452.449 259.101 445.747C256.333 439.044 257.848 431.438 262.948 426.339L457.788 231.498C459.362 229.925 461.198 228.672 463.267 227.768C464.899 227.069 466.123 225.67 466.618 223.951C467.113 222.231 466.793 220.395 465.773 218.938C465.044 217.889 464.432 216.753 463.937 215.587C461.169 208.884 462.655 201.249 467.725 196.179L493.749 170.155L499.606 164.298L524.989 138.887L537.723 126.181L550.371 113.504C553.722 110.124 558.21 108.288 562.989 108.259C567.768 108.259 572.227 110.124 575.607 113.475L658.282 196.15C663.382 201.249 664.897 208.884 662.129 215.558C661.633 216.753 660.992 217.918 660.234 218.997C659.185 220.483 658.894 222.319 659.389 224.038C659.885 225.757 661.109 227.156 662.77 227.856C664.897 228.759 666.791 230.041 668.394 231.644L863.234 426.484C868.334 431.584 869.849 439.219 867.081 445.893C864.312 452.566 857.843 456.908 850.616 456.908H797.695C793.499 456.908 790.118 460.318 790.118 464.485V486.37C790.118 489.517 789.273 492.606 787.67 495.346C786.592 497.182 786.592 499.455 787.641 501.291C788.69 503.126 790.672 504.292 792.799 504.292H905.781C913.008 504.292 919.477 508.605 922.246 515.278C925.014 521.952 923.499 529.587 918.399 534.687L914.96 538.125C913.212 539.874 912.716 542.584 913.795 544.828C914.756 546.897 916.884 548.238 919.186 548.238C919.273 548.238 919.652 548.238 919.74 548.238C920.672 548.15 923.441 547.888 923.441 547.888C924.111 547.83 924.781 547.742 925.422 547.684C926.821 547.509 928.249 547.334 929.677 547.101C929.677 547.101 931.833 546.81 932.387 546.722C933.757 546.489 935.155 546.227 936.554 545.965L938.769 545.557C940.314 545.236 941.625 544.915 942.936 544.566L944.947 544.07C947.103 543.487 949.027 542.905 950.805 542.322C959.168 539.495 965.987 535.765 971.029 531.277C972.806 529.674 973.447 527.197 972.69 524.953C963.889 499.076 951.533 452.158 967.473 429.078C973.797 419.898 983.734 414.857 995.449 414.857C1001.57 414.857 1008.04 416.168 1015.27 418.878L1015.79 419.082C1023.72 422.288 1030.39 425.785 1035.61 429.398C1036.6 430.098 1037.76 430.448 1038.99 430.448C1039.31 430.448 1039.63 430.448 1039.95 430.36C1040.74 430.243 1041.52 430.127 1042.34 430.04C1043.74 429.894 1045.14 429.836 1046.59 429.836C1065.94 429.836 1089.26 443.62 1094.73 473.868C1095.11 475.908 1095.38 477.919 1095.58 479.901C1095.73 481.562 1096.6 483.106 1097.94 484.097C1098.96 484.855 1100.21 485.292 1101.5 485.292C1101.87 485.292 1102.25 485.263 1102.63 485.175C1105.78 484.563 1108.58 484.272 1111.2 484.272C1124.2 484.272 1131.77 492.49 1133.49 500.649C1134.8 506.827 1133.38 512.86 1129.24 518.571C1127.61 520.815 1127.75 523.875 1129.59 525.973C1131.42 528.042 1132.73 530.636 1133.64 533.812C1134.6 537.251 1136.61 549.141 1121.89 558.204C1121.4 558.525 1120.87 558.816 1120.35 559.107C1118.34 560.215 1117.12 562.4 1117.29 564.703C1117.32 565.227 1117.35 565.722 1117.32 566.247C1117.12 580.905 1101.73 590.697 1078.09 591.221C1076.61 591.25 1075.15 591.28 1073.69 591.28C1065.13 591.28 1047.26 591.28 1031.91 578.807C1030.86 577.962 1029.52 577.466 1028.18 577.466C1026.83 577.466 1025.41 577.962 1024.33 578.865C997.781 601.363 941.771 639.101 864.866 639.101C855.308 639.101 845.574 638.518 835.958 637.323C831.237 636.74 826.428 636.012 821.591 635.138C821.241 635.079 820.892 635.05 820.542 635.05C818.968 635.05 817.453 635.691 816.345 636.799L767.971 685.174C766.164 686.98 765.727 689.72 766.834 691.993C767.854 694.033 769.894 695.315 772.167 695.315C772.429 695.315 772.692 695.315 772.954 695.257C788.923 693.129 805.563 691.701 822.494 691.002C823.747 690.944 825.03 690.914 826.312 690.914H827.448C867.897 690.914 879.553 713.995 882.701 723.932C882.846 724.369 882.934 724.66 883.021 724.923C883.05 725.039 883.167 725.476 883.196 725.622C883.517 726.788 883.75 727.808 883.954 728.886C887.276 745.059 883.021 763.185 871.365 782.798C871.365 782.798 870.403 784.401 869.995 785.071L868.421 787.548C854.987 808.238 835.783 825.461 815.675 834.757C813.635 835.777 811.77 836.71 809.818 837.584C785.776 849.736 759.694 857.05 742.151 861.509L739.179 862.267L738.421 862.441C734.982 863.287 731.602 864.073 728.134 864.831L727.435 864.977C705.957 869.552 683.781 872.087 659.652 872.729H657.816C654.435 872.845 650.967 872.903 647.383 872.903C640.739 872.903 634.677 869.231 631.588 863.345C630.568 861.363 628.528 860.169 626.314 860.169C626.255 860.169 625.352 860.198 625.002 860.198H624.478C622.613 860.198 620.835 861.072 619.728 862.558C618.562 864.103 618.241 866.113 618.824 867.978C626.11 890.33 629.403 909.709 628.354 923.988C626.634 947.331 609.499 962.426 584.67 962.426L584.758 962.339Z" fill="white"/>
<path d="M142.214 530.959C142.214 530.959 187.587 412.732 127.031 435.433C127.031 435.433 94.3341 448.751 106.603 455.57C118.871 462.389 134.52 441.931 138.454 457.435C142.126 471.976 130.266 488.325 130.266 488.325C130.266 488.325 108.876 488.791 104.796 500.156C104.796 500.156 74.5761 501.584 76.1206 483.312C77.6651 465.041 85.3585 462.389 102.96 460.903C106.37 460.611 105.175 449.013 91.8571 447.643C79.6176 446.39 62.8612 454.695 58.8106 476.93C54.7599 499.165 63.8229 508.782 92.469 510.152C92.469 510.152 75.3921 519.069 44.5895 507.092C9.79453 493.57 14.7777 509.889 40.8302 521.429C66.8828 532.97 95.6455 521.08 95.6455 521.08C95.6455 521.08 92.2359 535.301 58.898 535.068C26.9589 534.864 11.5722 535.651 23.4036 542.907C35.2351 550.192 79.0348 554.855 97.4522 538.798C97.4522 538.798 86.9904 559.284 54.4685 560.858C21.9465 562.461 39.8977 572.864 58.286 573.243C77.5777 573.651 94.3341 571.786 105.204 547.89C105.204 547.89 217.836 679.231 388.867 590.233C399.475 584.725 405.012 572.719 402.156 561.12C398.776 547.278 384.438 537.516 370.975 542.178C293.487 568.93 171.821 584.608 142.155 530.959H142.214Z" fill="#F5F0E3"/>
<path opacity="0.15" d="M375.287 584.171C371.849 580.295 344.193 568.085 317.383 557.069C268.804 567.589 215.738 571.32 179.515 559.109C190.909 567.997 207.112 577.148 228.531 581.257C270.232 589.242 295.614 593.147 297.917 619.549C321.201 616.722 346.204 610.049 372.752 598.101C375.55 591.107 376.803 585.89 375.287 584.2V584.171Z" fill="black"/>
<path d="M142.214 530.959C142.214 530.959 187.587 412.732 127.031 435.433C127.031 435.433 94.3341 448.751 106.603 455.57C118.871 462.389 134.52 441.931 138.454 457.435C142.126 471.976 130.266 488.325 130.266 488.325C130.266 488.325 108.876 488.791 104.796 500.156C104.796 500.156 74.5761 501.584 76.1206 483.312C77.6651 465.041 85.3585 462.389 102.96 460.903C106.37 460.611 105.175 449.013 91.8571 447.643C79.6176 446.39 62.8612 454.695 58.8106 476.93C54.7599 499.165 63.8229 508.782 92.469 510.152C92.469 510.152 75.3921 519.069 44.5895 507.092C9.79453 493.57 14.7777 509.889 40.8302 521.429C66.8828 532.97 95.6455 521.08 95.6455 521.08C95.6455 521.08 92.2359 535.301 58.898 535.068C26.9589 534.864 11.5722 535.651 23.4036 542.907C35.2351 550.192 79.0348 554.855 97.4522 538.798C97.4522 538.798 86.9904 559.284 54.4685 560.858C21.9465 562.461 39.8977 572.864 58.286 573.243C77.5777 573.651 94.3341 571.786 105.204 547.89C105.204 547.89 217.836 679.231 388.867 590.233C399.475 584.725 405.012 572.719 402.156 561.12C398.776 547.278 384.438 537.516 370.975 542.178C293.487 568.93 171.821 584.608 142.155 530.959H142.214Z" stroke="#262830" stroke-width="4.83749" stroke-linecap="round" stroke-linejoin="round"/>
<path d="M130.265 488.296C130.265 488.296 135.248 487.917 139.445 490.249" stroke="#262830" stroke-width="4.83749" stroke-linecap="round" stroke-linejoin="round"/>
<path d="M136.736 520.207C136.736 520.207 140.932 529.649 143.234 532.563" stroke="#262830" stroke-width="4.83749" stroke-linecap="round" stroke-linejoin="round"/>
<path d="M995.535 530.959C995.535 530.959 950.161 412.732 1010.72 435.433C1010.72 435.433 1043.41 448.751 1031.15 455.57C1018.85 462.389 1003.23 441.931 999.294 457.435C995.622 471.976 1007.48 488.325 1007.48 488.325C1007.48 488.325 1028.87 488.791 1032.95 500.156C1032.95 500.156 1063.17 501.584 1061.63 483.312C1060.02 464.603 1052.39 462.389 1034.79 460.903C1031.38 460.611 1032.57 449.013 1045.89 447.643C1058.13 446.39 1074.89 454.695 1078.94 476.93C1082.78 498.058 1073.93 508.782 1045.28 510.152C1045.28 510.152 1062.36 519.069 1093.16 507.092C1127.95 493.57 1122.97 509.889 1096.92 521.429C1069.96 533.377 1042.1 521.08 1042.1 521.08C1042.1 521.08 1045.51 535.301 1078.85 535.068C1110.79 534.864 1126.18 535.651 1114.34 542.907C1102.51 550.163 1058.71 554.855 1040.3 538.798C1040.3 538.798 1050.76 559.284 1083.28 560.858C1115.8 562.461 1097.85 572.864 1079.46 573.243C1060.17 573.651 1043.41 571.786 1032.54 547.89C1032.54 547.89 919.912 679.231 748.881 590.233C738.273 584.725 732.736 572.719 735.592 561.12C738.973 547.278 753.31 537.516 766.774 542.178C844.261 568.93 965.927 584.608 995.593 530.959H995.535Z" fill="#F5F0E3"/>
<path opacity="0.15" d="M762.433 584.171C765.871 580.295 793.526 568.085 820.337 557.069C868.916 567.589 921.982 571.32 958.205 559.109C946.811 567.997 930.608 577.148 909.189 581.257C867.488 589.242 842.105 593.147 839.803 619.549C816.519 616.722 791.516 610.049 764.968 598.101C762.17 591.107 760.917 585.89 762.433 584.2V584.171Z" fill="black"/>
<path d="M995.535 530.959C995.535 530.959 950.161 412.732 1010.72 435.433C1010.72 435.433 1043.41 448.751 1031.15 455.57C1018.85 462.389 1003.23 441.931 999.294 457.435C995.622 471.976 1007.48 488.325 1007.48 488.325C1007.48 488.325 1028.87 488.791 1032.95 500.156C1032.95 500.156 1063.17 501.584 1061.63 483.312C1060.02 464.603 1052.39 462.389 1034.79 460.903C1031.38 460.611 1032.57 449.013 1045.89 447.643C1058.13 446.39 1074.89 454.695 1078.94 476.93C1082.78 498.058 1073.93 508.782 1045.28 510.152C1045.28 510.152 1062.36 519.069 1093.16 507.092C1127.95 493.57 1122.97 509.889 1096.92 521.429C1069.96 533.377 1042.1 521.08 1042.1 521.08C1042.1 521.08 1045.51 535.301 1078.85 535.068C1110.79 534.864 1126.18 535.651 1114.34 542.907C1102.51 550.163 1058.71 554.855 1040.3 538.798C1040.3 538.798 1050.76 559.284 1083.28 560.858C1115.8 562.461 1097.85 572.864 1079.46 573.243C1060.17 573.651 1043.41 571.786 1032.54 547.89C1032.54 547.89 919.912 679.231 748.881 590.233C738.273 584.725 732.736 572.719 735.592 561.12C738.973 547.278 753.31 537.516 766.774 542.178C844.261 568.93 965.927 584.608 995.593 530.959H995.535Z" stroke="#262830" stroke-width="4.83749" stroke-linecap="round" stroke-linejoin="round"/>
<path d="M1007.48 488.296C1007.48 488.296 1002.5 487.917 998.303 490.249" stroke="#262830" stroke-width="4.83749" stroke-linecap="round" stroke-linejoin="round"/>
<path d="M1001.01 520.207C1001.01 520.207 996.817 529.649 994.514 532.563" stroke="#262830" stroke-width="4.83749" stroke-linecap="round" stroke-linejoin="round"/>
<path d="M907.529 521.985L883.458 546.085L826.399 603.145L730.669 698.874V681.768C730.669 657.406 710.911 637.648 686.549 637.648H648.14V832.255L647.674 832.751L622.233 807.31L622.175 807.252L622.292 807.164L564.912 749.785L564.854 749.726L564.766 749.843L508.232 806.348L507.416 807.164H507.474L507.416 807.281L482.004 832.692L481.771 832.459V637.648H443.363C419 637.648 399.242 657.406 399.242 681.768V699.078L303.629 603.465L246.337 546.173L222.149 521.985H907.529Z" fill="url(#paint6_linear_2059_2801)"/>
<g opacity="0.3">
<path d="M494.651 635.961H456.242C452.104 635.961 448.112 636.573 444.323 637.651H481.799V832.462L482.032 832.695L494.651 820.077V635.99V635.961Z" fill="white"/>
<path d="M316.48 601.776L259.187 544.484L236.69 521.986H222.148L246.336 546.174L303.628 603.437L399.242 699.079V684.538L316.48 601.776Z" fill="white"/>
<path d="M635.084 805.621L635.026 805.563L635.142 805.475L577.763 748.125L577.704 748.066L577.646 748.154L570.448 755.352L622.291 807.165L622.174 807.253L622.233 807.282L647.673 832.722L648.11 832.256V818.647L635.084 805.621Z" fill="white"/>
<path d="M743.52 685.997V680.081C743.52 655.719 723.762 635.961 699.399 635.961H660.991V637.651H686.548C710.91 637.651 730.668 657.409 730.668 681.771V698.877L743.52 686.026V685.997Z" fill="white"/>
</g>
<path d="M907.529 521.985L883.458 546.085L826.399 603.145L730.669 698.874V681.768C730.669 657.406 710.911 637.648 686.549 637.648H648.14V832.255L647.674 832.751L622.233 807.31L622.175 807.252L622.292 807.164L564.912 749.785L564.854 749.726L564.766 749.843L508.232 806.348L507.416 807.164H507.474L507.416 807.281L482.004 832.692L481.771 832.459V637.648H443.363C419 637.648 399.242 657.406 399.242 681.768V699.078L303.629 603.465L246.337 546.173L222.149 521.985H907.529Z" stroke="#262830" stroke-width="5.94487" stroke-linecap="round" stroke-linejoin="round"/>
<path opacity="0.2" d="M648.111 716.007C633.598 720.99 620.018 728.013 620.018 728.013C620.018 728.013 618.678 718.658 608.682 719.999C598.657 721.339 591.984 736.027 591.984 736.027C591.984 736.027 590.644 722.01 577.967 719.999C565.29 717.988 556.606 738.038 556.606 738.038C556.606 738.038 547.922 728.683 531.894 721.339C515.866 713.996 515.196 730.694 515.196 730.694C504.356 720.232 491.213 717.289 481.742 716.735V738.562L481.829 738.679C481.829 738.679 481.771 738.679 481.742 738.65V832.427L481.975 832.66L483.519 831.116L488.24 812.873H501.791L507.386 807.249L507.445 807.161H507.386L508.202 806.316L564.737 749.811L564.824 749.694L564.882 749.752L622.262 807.132L622.146 807.219L622.204 807.278L627.42 812.494L644.468 812.436L648.111 828.114V715.948V716.007Z" fill="black"/>
<path d="M564.736 125.862L552.06 138.568L539.354 151.245L513.943 176.685L508.114 182.513L482.091 208.537H482.178C496.195 208.537 507.561 219.873 507.59 233.89L508.114 486.052H621.825L622.029 233.948C622.029 219.931 633.423 208.566 647.44 208.566L590.206 151.332L577.5 138.626L564.765 125.891L564.736 125.862ZM472.154 243.885L466.617 249.422L436.193 279.846L303.483 412.557L277.313 438.726H330.234C344.252 438.726 355.646 450.091 355.646 464.137V486.022H472.154V243.885ZM657.552 244.089V486.256H774.06V464.37C774.06 450.353 785.425 438.959 799.471 438.959H852.392L826.223 412.79L693.513 280.079L663.089 249.656L657.552 244.119V244.089Z" fill="url(#paint7_linear_2059_2801)"/>
<g opacity="0.3">
<path d="M364.564 486.051V467.866C364.564 455.569 355.822 445.311 344.194 442.979C351.072 447.526 355.618 455.306 355.618 464.165V486.051H364.564Z" fill="white"/>
<path d="M312.401 416.287L445.112 283.577L472.155 256.533V243.886L466.589 249.452L436.165 279.846L303.455 412.586L277.286 438.755H289.933L312.401 416.287Z" fill="white"/>
<path d="M517.033 186.213L522.862 180.385L548.273 154.945L560.979 142.268L571.033 132.185L564.709 125.861L552.032 138.567L539.327 151.244L513.915 176.684L508.087 182.512L482.063 208.536H482.151C485.852 208.536 489.32 209.352 492.496 210.751L517.033 186.213Z" fill="white"/>
<path d="M516.479 237.589C516.479 225.321 507.708 215.092 496.109 212.731C502.958 217.278 507.504 225.029 507.533 233.888L508.057 486.05H517.004L516.479 237.618V237.589Z" fill="white"/>
<path d="M666.501 253.035L663.091 249.626L657.554 244.089V486.226H666.501V253.035Z" fill="white"/>
</g>
<path d="M564.736 125.862L552.06 138.568L539.354 151.245L513.943 176.685L508.114 182.513L482.091 208.537H482.178C496.195 208.537 507.561 219.873 507.59 233.89L508.114 486.052H621.825L622.029 233.948C622.029 219.931 633.423 208.566 647.44 208.566L590.206 151.332L577.5 138.626L564.765 125.891L564.736 125.862ZM472.154 243.885L466.617 249.422L436.193 279.846L303.483 412.557L277.313 438.726H330.234C344.252 438.726 355.646 450.091 355.646 464.137V486.022H472.154V243.885ZM657.552 244.089V486.256H774.06V464.37C774.06 450.353 785.425 438.959 799.471 438.959H852.392L826.223 412.79L693.513 280.079L663.089 249.656L657.552 244.119V244.089Z" stroke="#262830" stroke-width="5.94487" stroke-linecap="round" stroke-linejoin="round"/>
<path d="M486.608 828.403L478.157 861.042C478.157 861.042 376.686 868.385 295.236 832.337C213.785 796.289 218.273 729.876 252.98 716.529C287.688 703.182 375.346 706.155 480.139 754.209L467.462 732.848C467.462 732.848 494.156 727.515 513.535 746.195C513.535 746.195 514.205 729.497 530.233 736.841C546.261 744.184 554.945 753.539 554.945 753.539C554.945 753.539 563.629 733.519 576.306 735.5C588.982 737.482 590.323 751.528 590.323 751.528C590.323 751.528 596.996 736.841 607.021 735.5C617.046 734.16 618.357 743.514 618.357 743.514C618.357 743.514 654.405 724.834 671.773 726.816L653.735 750.188C653.735 750.188 709.453 713.527 824.912 708.661C904.847 705.31 861.252 796.989 807.281 819.603C770.388 835.077 726.501 854.98 649.072 854.98L642.807 827.937L486.608 828.345V828.403Z" fill="#D7DDF7"/>
<g opacity="0.1">
<path d="M563.252 782.419C549.031 782.419 536.384 780.845 525.776 778.688C491.476 771.753 470.669 757.852 469.795 757.24C468.426 756.308 468.076 754.472 469.008 753.102C469.941 751.762 471.777 751.383 473.117 752.315C473.933 752.869 556.054 806.927 659.914 751.033C661.342 750.246 663.149 750.8 663.936 752.257C664.723 753.714 664.169 755.492 662.712 756.279C625.586 776.27 591.315 782.389 563.223 782.389L563.252 782.419Z" fill="black"/>
<path d="M559.434 794.336C558.881 794.336 558.327 794.19 557.802 793.841C556.433 792.937 556.054 791.101 556.928 789.732L564.418 778.279C565.321 776.909 567.157 776.531 568.527 777.405C569.896 778.308 570.275 780.144 569.401 781.514L561.911 792.966C561.329 793.841 560.396 794.307 559.434 794.307V794.336Z" fill="black"/>
<path d="M587.382 798.504C586.245 798.504 585.138 797.833 584.642 796.726L577.59 780.523C576.949 779.008 577.619 777.259 579.135 776.618C580.65 775.977 582.398 776.647 583.039 778.163L590.092 794.366C590.733 795.881 590.063 797.629 588.547 798.271C588.168 798.445 587.76 798.504 587.352 798.504H587.382Z" fill="black"/>
</g>
<path d="M486.608 828.405L478.157 861.043C478.157 861.043 376.686 868.387 295.236 832.339C213.785 796.291 218.273 729.877 252.98 716.53C287.688 703.184 375.346 706.156 480.139 754.21L467.462 732.85C467.462 732.85 494.156 727.517 513.535 746.196C513.535 746.196 514.205 729.498 530.233 736.842C546.261 744.186 554.945 753.54 554.945 753.54C554.945 753.54 563.629 733.52 576.306 735.502C588.982 737.483 590.323 751.529 590.323 751.529C590.323 751.529 596.996 736.842 607.021 735.502C617.045 734.161 618.357 743.515 618.357 743.515C618.357 743.515 654.405 724.836 671.773 726.817L653.735 750.189C653.735 750.189 709.453 713.529 824.912 708.662C841.406 707.963 862.242 711.46 867.546 729.761C872.209 745.847 863.991 763.944 855.481 777.232C829.983 817.04 780.5 833.912 736.555 844.899C707.967 852.039 678.505 855.011 649.072 855.011L642.807 827.968L486.608 828.376V828.405Z" stroke="#262830" stroke-width="5.94487" stroke-linecap="round" stroke-linejoin="round"/>
<path d="M642.4 822.81L638.204 797.02C638.204 797.02 739.266 789.618 786.621 767.82" stroke="#262830" stroke-width="5.94487" stroke-linecap="round" stroke-linejoin="round"/>
<path d="M320.792 778.72C383.271 797.574 491.037 801.363 491.037 801.363L487.86 821.645" stroke="#262830" stroke-width="5.94487" stroke-linecap="round" stroke-linejoin="round"/>
<path d="M642.486 816.283L570.419 818.906L575.606 943.311C575.606 943.311 610.168 951.937 612.324 922.562C614.481 893.188 593.324 846.532 593.324 846.532L646.799 837.294L642.486 816.283Z" fill="#F5F0E3"/>
<path d="M641.67 816.866L570.419 818.906L575.606 943.311C575.606 943.311 610.168 951.937 612.324 922.562C614.481 893.188 593.324 846.532 593.324 846.532L645.546 837.906L641.67 816.837V816.866Z" stroke="#262830" stroke-width="5.12891" stroke-linecap="round" stroke-linejoin="round"/>
<path d="M488.241 815.729L569.312 818.905L564.125 943.31C564.125 943.31 529.563 951.936 527.407 922.561C525.25 893.187 546.407 846.531 546.407 846.531L483.898 836.74L488.211 815.729H488.241Z" fill="#F5F0E3"/>
<path d="M488.241 815.729L569.312 818.905L564.125 943.31C564.125 943.31 529.563 951.936 527.407 922.561C525.25 893.187 546.407 846.531 546.407 846.531L483.898 836.74L488.211 815.729H488.241Z" stroke="#262830" stroke-width="5.12891" stroke-linecap="round" stroke-linejoin="round"/>
<path opacity="0.1" d="M501.091 782.071C501.091 782.071 470.638 784.693 425.469 783.615C388.197 782.741 349.118 778.136 331.692 779.156C293.108 781.4 491.008 801.391 491.008 801.391L501.062 782.1L501.091 782.071Z" fill="black"/>
<path opacity="0.1" d="M630.218 780.817C630.218 780.817 658.631 777.874 703.596 773.561C740.693 769.977 759.927 767.237 777.382 767.004C798.073 766.713 757.421 778.894 714.495 786.995C677.31 794.018 638.173 797.049 638.173 797.049L630.218 780.846V780.817Z" fill="black"/>
<path opacity="0.2" d="M491.038 801.363L473.174 800.343C472.824 811.213 466.85 838.868 415.969 846.241C370.013 852.885 289.203 818.556 247.677 798.886C258.226 811.125 273.7 822.782 295.265 832.34C376.715 868.388 478.186 861.045 478.186 861.045L483.315 841.199L491.038 801.392V801.363Z" fill="black"/>
<path opacity="0.2" d="M639.018 796.727L653.851 795.882C654.142 804.887 659.096 827.88 701.352 833.999C739.527 839.536 806.64 811.007 841.114 794.688C832.343 804.858 819.491 814.533 801.598 822.459C733.961 852.388 649.917 853.553 649.917 853.553L645.4 829.803L638.989 796.727H639.018Z" fill="black"/>
<g opacity="0.2">
<path d="M504.066 466.323C485.94 469.82 469.883 403.64 469.883 403.64L451.436 408.681C451.436 408.681 471.165 481.943 503.075 482.555C542.824 483.313 526.709 402.387 526.709 402.387C526.709 402.387 522.512 462.768 504.066 466.323Z" fill="black"/>
<path d="M634.969 463.818C616.522 460.263 612.326 399.882 612.326 399.882C612.326 399.882 596.181 480.808 635.96 480.05C667.87 479.438 687.598 406.176 687.598 406.176L669.152 401.135C669.152 401.135 653.095 467.315 634.969 463.818Z" fill="black"/>
<path d="M687.89 354.536L445.258 358.995C445.258 358.995 482.705 380.793 562.669 381.346C619.699 381.754 687.89 354.507 687.89 354.507V354.536Z" fill="black"/>
<path d="M591.81 550.862C589.77 537.806 585.398 527.403 579.832 522.332C577.181 519.534 574.266 517.932 571.148 517.932C559.637 517.932 550.312 539.525 550.312 566.132C550.312 592.738 559.637 614.332 571.148 614.332C582.659 614.332 591.984 592.738 591.984 566.132C591.984 560.799 591.606 555.67 590.906 550.862H591.78H591.81Z" fill="black"/>
</g>
<path d="M449.716 393.586L468.163 388.544C468.163 388.544 484.22 454.725 502.346 451.228C520.792 447.672 524.989 387.291 524.989 387.291C524.989 387.291 541.133 468.217 501.355 467.459C469.445 466.847 449.716 393.586 449.716 393.586Z" fill="#262830"/>
<path d="M685.879 391.078L667.432 386.036C667.432 386.036 651.375 452.217 633.249 448.72C614.802 445.164 610.606 384.783 610.606 384.783C610.606 384.783 594.462 465.709 634.24 464.952C666.15 464.34 685.879 391.078 685.879 391.078Z" fill="#262830"/>
<path d="M443.538 343.899L686.17 339.44C686.17 339.44 617.979 366.688 560.949 366.28C481.014 365.726 443.538 343.928 443.538 343.928V343.899Z" fill="#262830"/>
<path d="M569.429 599.238C580.937 599.238 590.266 577.658 590.266 551.038C590.266 524.418 580.937 502.838 569.429 502.838C557.922 502.838 548.593 524.418 548.593 551.038C548.593 577.658 557.922 599.238 569.429 599.238Z" fill="#262830"/>
<path d="M550.894 529.037H590.089C587.204 510.445 579.511 503.888 570.477 503.888C561.443 503.888 553.779 510.445 550.865 529.037H550.894Z" fill="white"/>
<path d="M569.429 572.136C563.164 572.136 557.452 574.817 552.964 579.305C556.782 590.67 562.727 597.984 569.429 597.984C576.132 597.984 582.077 590.641 585.894 579.305C581.436 574.817 575.695 572.136 569.429 572.136Z" fill="#FF532D"/>
<path d="M569.429 599.238C580.937 599.238 590.266 577.658 590.266 551.038C590.266 524.418 580.937 502.838 569.429 502.838C557.922 502.838 548.593 524.418 548.593 551.038C548.593 577.658 557.922 599.238 569.429 599.238Z" stroke="#262830" stroke-width="6.26543" stroke-linecap="round" stroke-linejoin="round"/>
<path opacity="0.2" d="M488.181 816.023L483.926 836.772L503.072 839.774L507.006 816.489L493.747 815.965C491.911 815.965 490.046 816.023 488.21 816.023H488.181Z" fill="black"/>
<path opacity="0.2" d="M622.261 817.157L626.749 842.307L647.993 840.908L642.485 816.283L622.261 817.157Z" fill="black"/>
<path opacity="0.15" d="M565.232 1050.38C670.715 1050.38 756.226 1037.81 756.226 1022.31C756.226 1006.82 670.715 994.251 565.232 994.251C459.749 994.251 374.239 1006.82 374.239 1022.31C374.239 1037.81 459.749 1050.38 565.232 1050.38Z" fill="#262830"/>
<path d="M468.656 748.995C468.656 748.995 551.739 805.326 658.513 747.888" stroke="#262830" stroke-width="5.94487" stroke-linecap="round" stroke-linejoin="round"/>
<path d="M564.124 774.086L556.635 785.568" stroke="#262830" stroke-width="5.94487" stroke-linecap="round" stroke-linejoin="round"/>
<path d="M577.529 773.533L584.61 789.765" stroke="#262830" stroke-width="5.94487" stroke-linecap="round" stroke-linejoin="round"/>
<defs>
<linearGradient id="paint0_linear_2059_2801" x1="595.513" y1="646.709" x2="529.391" y2="-244.964" gradientUnits="userSpaceOnUse">
<stop stop-color="#68CDED"/>
<stop offset="1" stop-color="#3B53A7" stop-opacity="0"/>
</linearGradient>
<linearGradient id="paint1_linear_2059_2801" x1="264.115" y1="671.275" x2="197.993" y2="-220.398" gradientUnits="userSpaceOnUse">
<stop stop-color="#68CDED"/>
<stop offset="1" stop-color="#3B53A7" stop-opacity="0"/>
</linearGradient>
<linearGradient id="paint2_linear_2059_2801" x1="891.445" y1="624.737" x2="825.323" y2="-266.935" gradientUnits="userSpaceOnUse">
<stop stop-color="#68CDED"/>
<stop offset="1" stop-color="#3B53A7" stop-opacity="0"/>
</linearGradient>
<linearGradient id="paint3_linear_2059_2801" x1="583.769" y1="647.553" x2="517.618" y2="-244.09" gradientUnits="userSpaceOnUse">
<stop stop-color="#68CDED"/>
<stop offset="1" stop-color="#3B53A7" stop-opacity="0"/>
</linearGradient>
<linearGradient id="paint4_linear_2059_2801" x1="386.044" y1="662.239" x2="319.921" y2="-229.433" gradientUnits="userSpaceOnUse">
<stop stop-color="#68CDED"/>
<stop offset="1" stop-color="#3B53A7" stop-opacity="0"/>
</linearGradient>
<linearGradient id="paint5_linear_2059_2801" x1="807.488" y1="630.973" x2="741.366" y2="-260.7" gradientUnits="userSpaceOnUse">
<stop stop-color="#68CDED"/>
<stop offset="1" stop-color="#3B53A7" stop-opacity="0"/>
</linearGradient>
<linearGradient id="paint6_linear_2059_2801" x1="564.883" y1="525.22" x2="569.342" y2="905.4" gradientUnits="userSpaceOnUse">
<stop stop-color="#68CDED"/>
<stop offset="1" stop-color="#3B53A7"/>
</linearGradient>
<linearGradient id="paint7_linear_2059_2801" x1="564.678" y1="462.797" x2="568.058" y2="-60.4686" gradientUnits="userSpaceOnUse">
<stop stop-color="#68CDED"/>
<stop offset="1" stop-color="#3B53A7"/>
</linearGradient>
</defs>
</svg>
